%TF.GenerationSoftware,KiCad,Pcbnew,8.0.2-8.0.2-0~ubuntu22.04.1*%
%TF.CreationDate,2024-05-30T13:23:40+02:00*%
%TF.ProjectId,Version 1,56657273-696f-46e2-9031-2e6b69636164,1*%
%TF.SameCoordinates,Original*%
%TF.FileFunction,Profile,NP*%
%FSLAX46Y46*%
G04 Gerber Fmt 4.6, Leading zero omitted, Abs format (unit mm)*
G04 Created by KiCad (PCBNEW 8.0.2-8.0.2-0~ubuntu22.04.1) date 2024-05-30 13:23:40*
%MOMM*%
%LPD*%
G01*
G04 APERTURE LIST*
%TA.AperFunction,Profile*%
%ADD10C,0.050000*%
%TD*%
G04 APERTURE END LIST*
D10*
X17780000Y-55880000D02*
X43180000Y-55880000D01*
X88900000Y-45720000D02*
X88900000Y-52070000D01*
X95250000Y-45720000D02*
X88900000Y-45720000D01*
X17780000Y-17780000D02*
X17780000Y-55880000D01*
X87630000Y-54610000D02*
X88900000Y-54610000D01*
X88900000Y-54610000D02*
X88900000Y-58420000D01*
X43180000Y-35560000D02*
X43180000Y-17780000D01*
X45720000Y-40640000D02*
X45720000Y-60960000D01*
X106680000Y-48260000D02*
X106680000Y-45720000D01*
X83820000Y-17780000D02*
X83820000Y-30480000D01*
X81280000Y-35560000D02*
X83820000Y-35560000D01*
X114300000Y-43180000D02*
X114300000Y-17780000D01*
X81280000Y-60960000D02*
X81280000Y-54610000D01*
X81280000Y-17780000D02*
X45720000Y-17780000D01*
X95250000Y-43180000D02*
X95250000Y-45720000D01*
X88900000Y-60960000D02*
X106680000Y-60960000D01*
X45720000Y-35560000D02*
X43180000Y-35560000D01*
X43180000Y-55880000D02*
X43180000Y-40640000D01*
X81280000Y-54610000D02*
X87630000Y-54610000D01*
X83820000Y-30480000D02*
X81280000Y-30480000D01*
X83820000Y-35560000D02*
X83820000Y-43180000D01*
X100330000Y-43180000D02*
X114300000Y-43180000D01*
X88900000Y-58420000D02*
X88900000Y-60960000D01*
X83820000Y-43180000D02*
X95250000Y-43180000D01*
X106680000Y-60960000D02*
X106680000Y-48260000D01*
X81280000Y-30480000D02*
X81280000Y-17780000D01*
X45720000Y-17780000D02*
X45720000Y-35560000D01*
X43180000Y-17780000D02*
X17780000Y-17780000D01*
X100330000Y-45720000D02*
X100330000Y-43180000D01*
X43180000Y-40640000D02*
X45720000Y-40640000D01*
X88900000Y-52070000D02*
X81280000Y-52070000D01*
X81280000Y-52070000D02*
X81280000Y-35560000D01*
X106680000Y-45720000D02*
X100330000Y-45720000D01*
X114300000Y-17780000D02*
X83820000Y-17780000D01*
X45720000Y-60960000D02*
X81280000Y-60960000D01*
M02*
