%TF.GenerationSoftware,KiCad,Pcbnew,8.0.2-8.0.2-0~ubuntu22.04.1*%
%TF.CreationDate,2024-05-31T00:48:12+02:00*%
%TF.ProjectId,Version 1,56657273-696f-46e2-9031-2e6b69636164,1*%
%TF.SameCoordinates,Original*%
%TF.FileFunction,Copper,L2,Bot*%
%TF.FilePolarity,Positive*%
%FSLAX46Y46*%
G04 Gerber Fmt 4.6, Leading zero omitted, Abs format (unit mm)*
G04 Created by KiCad (PCBNEW 8.0.2-8.0.2-0~ubuntu22.04.1) date 2024-05-31 00:48:12*
%MOMM*%
%LPD*%
G01*
G04 APERTURE LIST*
%TA.AperFunction,ComponentPad*%
%ADD10C,2.000000*%
%TD*%
%TA.AperFunction,ComponentPad*%
%ADD11R,1.700000X1.700000*%
%TD*%
%TA.AperFunction,ComponentPad*%
%ADD12O,1.700000X1.700000*%
%TD*%
%TA.AperFunction,ComponentPad*%
%ADD13C,1.600000*%
%TD*%
%TA.AperFunction,ComponentPad*%
%ADD14O,1.600000X1.600000*%
%TD*%
%TA.AperFunction,ComponentPad*%
%ADD15R,1.600000X1.600000*%
%TD*%
%TA.AperFunction,ViaPad*%
%ADD16C,0.600000*%
%TD*%
%TA.AperFunction,Conductor*%
%ADD17C,0.200000*%
%TD*%
G04 APERTURE END LIST*
D10*
%TO.P,USR_SW1,1,A*%
%TO.N,GND*%
X92928000Y-56186000D03*
X92928000Y-62686000D03*
%TO.P,USR_SW1,2,B*%
%TO.N,/USR_Key*%
X88428000Y-56186000D03*
X88428000Y-62686000D03*
%TD*%
D11*
%TO.P,J9,1,Pin_1*%
%TO.N,+3.3V2*%
X82042000Y-68057000D03*
D12*
%TO.P,J9,2,Pin_2*%
%TO.N,/RTS*%
X82042000Y-65517000D03*
%TO.P,J9,3,Pin_3*%
%TO.N,/DTR*%
X82042000Y-62977000D03*
%TO.P,J9,4,Pin_4*%
%TO.N,/ESPEN*%
X82042000Y-60437000D03*
%TO.P,J9,5,Pin_5*%
%TO.N,/USR_Key*%
X82042000Y-57897000D03*
%TO.P,J9,6,Pin_6*%
%TO.N,/RX*%
X82042000Y-55357000D03*
%TO.P,J9,7,Pin_7*%
%TO.N,/TX*%
X82042000Y-52817000D03*
%TO.P,J9,8,Pin_8*%
%TO.N,GND*%
X82042000Y-50277000D03*
%TD*%
D11*
%TO.P,JP1,1,A*%
%TO.N,/SCL*%
X57414000Y-72136000D03*
D12*
%TO.P,JP1,2,B*%
%TO.N,/SCL1*%
X54874000Y-72136000D03*
%TD*%
D13*
%TO.P,R1,1*%
%TO.N,GND*%
X145214400Y-49282000D03*
D14*
%TO.P,R1,2*%
%TO.N,/BOOT0*%
X135054400Y-49282000D03*
%TD*%
D13*
%TO.P,C15,1*%
%TO.N,/C1*%
X50415000Y-53473000D03*
%TO.P,C15,2*%
%TO.N,GND*%
X55415000Y-53473000D03*
%TD*%
%TO.P,R4,1*%
%TO.N,+3.3V2*%
X85344000Y-56134000D03*
D14*
%TO.P,R4,2*%
%TO.N,/ESPEN*%
X85344000Y-45974000D03*
%TD*%
D13*
%TO.P,C6,1*%
%TO.N,+3.3V2*%
X100798000Y-71882000D03*
%TO.P,C6,2*%
%TO.N,GND*%
X95798000Y-71882000D03*
%TD*%
D15*
%TO.P,C10,1*%
%TO.N,GND*%
X125591000Y-67850113D03*
D13*
%TO.P,C10,2*%
%TO.N,/VCAP*%
X125591000Y-65850113D03*
%TD*%
D11*
%TO.P,JP4,1,A*%
%TO.N,/SDA*%
X57409000Y-60706000D03*
D12*
%TO.P,JP4,2,B*%
%TO.N,/SDA2*%
X54869000Y-60706000D03*
%TD*%
D13*
%TO.P,C11,1*%
%TO.N,+3.3V3*%
X76280000Y-68840000D03*
%TO.P,C11,2*%
%TO.N,GND*%
X71280000Y-68840000D03*
%TD*%
%TO.P,R3,1*%
%TO.N,/USR_Key*%
X85344000Y-58420000D03*
D14*
%TO.P,R3,2*%
%TO.N,+3.3V2*%
X85344000Y-68580000D03*
%TD*%
D13*
%TO.P,C5,1*%
%TO.N,/GPIO0*%
X116332000Y-56094000D03*
%TO.P,C5,2*%
%TO.N,GND*%
X116332000Y-51094000D03*
%TD*%
%TO.P,C13,1*%
%TO.N,+3.3V4*%
X47450000Y-50807000D03*
%TO.P,C13,2*%
%TO.N,GND*%
X47450000Y-55807000D03*
%TD*%
%TO.P,R2,1*%
%TO.N,GND*%
X121100000Y-50124000D03*
D14*
%TO.P,R2,2*%
%TO.N,/BOOT1*%
X121100000Y-60284000D03*
%TD*%
D13*
%TO.P,C2,1*%
%TO.N,+3.3V1*%
X140958000Y-59188000D03*
%TO.P,C2,2*%
%TO.N,GND*%
X140958000Y-64188000D03*
%TD*%
D10*
%TO.P,RESET_SW1,1,A*%
%TO.N,GND*%
X92928000Y-46534000D03*
X92928000Y-53034000D03*
%TO.P,RESET_SW1,2,B*%
%TO.N,/ESPEN*%
X88428000Y-46534000D03*
X88428000Y-53034000D03*
%TD*%
D11*
%TO.P,JP2,1,A*%
%TO.N,/SDA*%
X57409000Y-64516000D03*
D12*
%TO.P,JP2,2,B*%
%TO.N,/SDA1*%
X54869000Y-64516000D03*
%TD*%
D13*
%TO.P,C4,1*%
%TO.N,/GPIO1*%
X116332000Y-62304400D03*
%TO.P,C4,2*%
%TO.N,GND*%
X116332000Y-67304400D03*
%TD*%
%TO.P,C7,1*%
%TO.N,GND*%
X124194000Y-50124000D03*
%TO.P,C7,2*%
%TO.N,/RS*%
X124194000Y-55124000D03*
%TD*%
%TO.P,C3,1*%
%TO.N,+3.3V1*%
X135054400Y-52355400D03*
%TO.P,C3,2*%
%TO.N,GND*%
X140054400Y-52355400D03*
%TD*%
%TO.P,C14,1*%
%TO.N,+3.3V4*%
X53495000Y-50307000D03*
%TO.P,C14,2*%
%TO.N,GND*%
X58495000Y-50307000D03*
%TD*%
D11*
%TO.P,JP3,1,A*%
%TO.N,/SCL*%
X57409000Y-68326000D03*
D12*
%TO.P,JP3,2,B*%
%TO.N,/SCL2*%
X54869000Y-68326000D03*
%TD*%
D11*
%TO.P,J3,1,Pin_1*%
%TO.N,+3.3V1*%
X144260000Y-61728000D03*
D12*
%TO.P,J3,2,Pin_2*%
%TO.N,/SWDIO*%
X144260000Y-59188000D03*
%TO.P,J3,3,Pin_3*%
%TO.N,/SWCLK*%
X144260000Y-56648000D03*
%TO.P,J3,4,Pin_4*%
%TO.N,GND*%
X144260000Y-54108000D03*
%TD*%
D13*
%TO.P,C1,1*%
%TO.N,+3.3V1*%
X130290000Y-64522000D03*
%TO.P,C1,2*%
%TO.N,GND*%
X130290000Y-69522000D03*
%TD*%
%TO.P,C12,1*%
%TO.N,+3.3V3*%
X72465000Y-49536000D03*
%TO.P,C12,2*%
%TO.N,GND*%
X67465000Y-49536000D03*
%TD*%
%TO.P,C16,1*%
%TO.N,/DTR*%
X88686000Y-71882000D03*
%TO.P,C16,2*%
%TO.N,/ESPEN*%
X93686000Y-71882000D03*
%TD*%
D15*
%TO.P,C17,1*%
%TO.N,GND*%
X92964000Y-66354888D03*
D13*
%TO.P,C17,2*%
%TO.N,/ESPEN*%
X92964000Y-68354888D03*
%TD*%
D11*
%TO.P,J8,1,Pin_1*%
%TO.N,+3.3V4*%
X57900000Y-46488000D03*
D12*
%TO.P,J8,2,Pin_2*%
%TO.N,DRDY*%
X55360000Y-46488000D03*
%TO.P,J8,3,Pin_3*%
%TO.N,/SCL2*%
X52820000Y-46488000D03*
%TO.P,J8,4,Pin_4*%
%TO.N,/SDA2*%
X50280000Y-46488000D03*
%TO.P,J8,5,Pin_5*%
%TO.N,GND*%
X47740000Y-46488000D03*
%TD*%
D11*
%TO.P,J2,1,Pin_1*%
%TO.N,GND*%
X98540000Y-46488000D03*
D12*
%TO.P,J2,2,Pin_2*%
%TO.N,/GPIO7*%
X101080000Y-46488000D03*
%TO.P,J2,3,Pin_3*%
%TO.N,/GPIO6*%
X103620000Y-46488000D03*
%TO.P,J2,4,Pin_4*%
%TO.N,/GPIO5*%
X106160000Y-46488000D03*
%TO.P,J2,5,Pin_5*%
%TO.N,/GPIO4*%
X108700000Y-46488000D03*
%TO.P,J2,6,Pin_6*%
%TO.N,/GPIO3*%
X111240000Y-46488000D03*
%TO.P,J2,7,Pin_7*%
%TO.N,/GPIO2*%
X113780000Y-46488000D03*
%TO.P,J2,8,Pin_8*%
%TO.N,/ESPEN*%
X116320000Y-46488000D03*
%TD*%
D11*
%TO.P,J6,1,Pin_1*%
%TO.N,/SDA1*%
X65520000Y-71888000D03*
D12*
%TO.P,J6,2,Pin_2*%
%TO.N,/SCL1*%
X68060000Y-71888000D03*
%TO.P,J6,3,Pin_3*%
%TO.N,/TXD*%
X70600000Y-71888000D03*
%TO.P,J6,4,Pin_4*%
%TO.N,/RXD*%
X73140000Y-71888000D03*
%TO.P,J6,5,Pin_5*%
%TO.N,+3.3V3*%
X75680000Y-71888000D03*
%TD*%
D11*
%TO.P,J4,1,Pin_1*%
%TO.N,TIM2_CH3*%
X121400000Y-46488000D03*
D12*
%TO.P,J4,2,Pin_2*%
%TO.N,TIM2_CH2*%
X123940000Y-46488000D03*
%TO.P,J4,3,Pin_3*%
%TO.N,TIM2_CH1*%
X126480000Y-46488000D03*
%TO.P,J4,4,Pin_4*%
%TO.N,GND*%
X129020000Y-46488000D03*
%TO.P,J4,5,Pin_5*%
%TO.N,+3.3V1*%
X131560000Y-46488000D03*
%TO.P,J4,6,Pin_6*%
%TO.N,I2C1_SDA*%
X134100000Y-46488000D03*
%TO.P,J4,7,Pin_7*%
%TO.N,I2C1_SCL*%
X136640000Y-46488000D03*
%TO.P,J4,8,Pin_8*%
%TO.N,GND1*%
X139180000Y-46488000D03*
%TO.P,J4,9,Pin_9*%
%TO.N,EXTI4*%
X141720000Y-46488000D03*
%TO.P,J4,10,Pin_10*%
%TO.N,I2C2_SDA*%
X144260000Y-46488000D03*
%TD*%
D11*
%TO.P,J1,1,Pin_1*%
%TO.N,+3.3V2*%
X103620000Y-71888000D03*
D12*
%TO.P,J1,2,Pin_2*%
%TO.N,/GPIO10*%
X106160000Y-71888000D03*
%TO.P,J1,3,Pin_3*%
%TO.N,/GPIO8*%
X108700000Y-71888000D03*
%TO.P,J1,4,Pin_4*%
%TO.N,/SDA*%
X111240000Y-71888000D03*
%TO.P,J1,5,Pin_5*%
%TO.N,/SCL*%
X113780000Y-71888000D03*
%TD*%
D11*
%TO.P,J5,1,Pin_1*%
%TO.N,+3.3V1*%
X121400000Y-71888000D03*
D12*
%TO.P,J5,2,Pin_2*%
%TO.N,I2C2_SCL*%
X123940000Y-71888000D03*
%TO.P,J5,3,Pin_3*%
%TO.N,unconnected-(J5-Pin_3-Pad3)*%
X126480000Y-71888000D03*
%TO.P,J5,4,Pin_4*%
%TO.N,GND*%
X129020000Y-71888000D03*
%TO.P,J5,5,Pin_5*%
%TO.N,TIM1_CH1N*%
X131560000Y-71888000D03*
%TO.P,J5,6,Pin_6*%
%TO.N,TIM1_CH2N*%
X134100000Y-71888000D03*
%TO.P,J5,7,Pin_7*%
%TO.N,TIM1_CH3N*%
X136640000Y-71888000D03*
%TO.P,J5,8,Pin_8*%
%TO.N,TIM1_CH1*%
X139180000Y-71888000D03*
%TO.P,J5,9,Pin_9*%
%TO.N,TIM1_CH2*%
X141720000Y-71888000D03*
%TO.P,J5,10,Pin_10*%
%TO.N,TIM1_CH3*%
X144260000Y-71888000D03*
%TD*%
D11*
%TO.P,J7,1,Pin_1*%
%TO.N,/SBOOT*%
X65520000Y-46488000D03*
D12*
%TO.P,J7,2,Pin_2*%
%TO.N,/TPULSE*%
X68060000Y-46488000D03*
%TO.P,J7,3,Pin_3*%
%TO.N,GND*%
X70600000Y-46488000D03*
%TO.P,J7,4,Pin_4*%
%TO.N,/EXTINT*%
X73140000Y-46488000D03*
%TO.P,J7,5,Pin_5*%
%TO.N,/RST*%
X75680000Y-46488000D03*
%TD*%
D16*
%TO.N,GND*%
X137416400Y-59788000D03*
X130048000Y-48387000D03*
X51274986Y-52003016D03*
X75946000Y-53975000D03*
X131839400Y-51796600D03*
X110236000Y-66421000D03*
X74549000Y-51943000D03*
X63373000Y-64389000D03*
X76581000Y-53975000D03*
X128028289Y-53296311D03*
X64135000Y-65786000D03*
X74549000Y-53213000D03*
X100076000Y-66421000D03*
X76581000Y-64389000D03*
X75311000Y-64389000D03*
X64135000Y-51943000D03*
X63373000Y-53975000D03*
X100076000Y-48768000D03*
X62738000Y-53975000D03*
X75311000Y-53975000D03*
X74549000Y-65151000D03*
X133888997Y-53388997D03*
X64135000Y-52578000D03*
X64135000Y-66421000D03*
X62103000Y-53975000D03*
X74549000Y-52578000D03*
X62103000Y-64389000D03*
X52234015Y-51222000D03*
X74549000Y-65786000D03*
X75946000Y-64389000D03*
X62738000Y-64389000D03*
X64135000Y-53213000D03*
X74549000Y-66421000D03*
X64135000Y-65151000D03*
X130593977Y-63047977D03*
X100076000Y-69596000D03*
X100076000Y-51943000D03*
%TO.N,/RS*%
X128123329Y-55512671D03*
X126567746Y-57068360D03*
%TO.N,/RTS*%
X88596000Y-65405000D03*
X85332000Y-66040000D03*
%TO.N,/SDA1*%
X56769000Y-62611000D03*
X58009000Y-62611000D03*
%TO.N,/SCL1*%
X60368265Y-72981735D03*
X58254735Y-73825265D03*
%TO.N,/USR_Key*%
X90396000Y-62738000D03*
%TO.N,/TX*%
X89028000Y-50038000D03*
X87828000Y-50038000D03*
%TO.N,/RX*%
X87828000Y-51054000D03*
X89028000Y-51054000D03*
%TD*%
D17*
%TO.N,/RS*%
X126567746Y-57068254D02*
X126567746Y-57068360D01*
X128123329Y-55512671D02*
X126567746Y-57068254D01*
%TO.N,/RTS*%
X85967000Y-65405000D02*
X88596000Y-65405000D01*
X82535000Y-65024000D02*
X82042000Y-65517000D01*
X85332000Y-66040000D02*
X85967000Y-65405000D01*
%TO.N,/SDA1*%
X58009000Y-62611000D02*
X56769000Y-62611000D01*
%TO.N,/SCL1*%
X59098265Y-72981735D02*
X58254735Y-73825265D01*
X60368265Y-72981735D02*
X59098265Y-72981735D01*
%TO.N,/USR_Key*%
X88480000Y-62738000D02*
X88428000Y-62686000D01*
X82565000Y-58420000D02*
X82042000Y-57897000D01*
X85344000Y-58420000D02*
X82565000Y-58420000D01*
X90396000Y-62738000D02*
X88480000Y-62738000D01*
%TO.N,/TX*%
X87828000Y-50038000D02*
X89028000Y-50038000D01*
%TO.N,/RX*%
X87828000Y-51054000D02*
X89028000Y-51054000D01*
%TD*%
%TA.AperFunction,Conductor*%
%TO.N,GND*%
G36*
X146628039Y-43834685D02*
G01*
X146673794Y-43887489D01*
X146685000Y-43939000D01*
X146685000Y-74171000D01*
X146665315Y-74238039D01*
X146612511Y-74283794D01*
X146561000Y-74295000D01*
X59113222Y-74295000D01*
X59046183Y-74275315D01*
X59000428Y-74222511D01*
X58990484Y-74153353D01*
X58996180Y-74130046D01*
X59014076Y-74078900D01*
X59040103Y-74004520D01*
X59049896Y-73917594D01*
X59076961Y-73853184D01*
X59085423Y-73843810D01*
X59310683Y-73618553D01*
X59372007Y-73585069D01*
X59398364Y-73582235D01*
X59785853Y-73582235D01*
X59852892Y-73601920D01*
X59863168Y-73609290D01*
X59866001Y-73611549D01*
X59866003Y-73611551D01*
X60018743Y-73707524D01*
X60189010Y-73767103D01*
X60189015Y-73767104D01*
X60368261Y-73787300D01*
X60368265Y-73787300D01*
X60368269Y-73787300D01*
X60547514Y-73767104D01*
X60547517Y-73767103D01*
X60547520Y-73767103D01*
X60717787Y-73707524D01*
X60870527Y-73611551D01*
X60998081Y-73483997D01*
X61094054Y-73331257D01*
X61153633Y-73160990D01*
X61159520Y-73108741D01*
X61173830Y-72981738D01*
X61173830Y-72981731D01*
X61153634Y-72802485D01*
X61153633Y-72802480D01*
X61125171Y-72721141D01*
X61094054Y-72632213D01*
X61073601Y-72599663D01*
X61052343Y-72565830D01*
X60998081Y-72479473D01*
X60870527Y-72351919D01*
X60792043Y-72302604D01*
X60717788Y-72255946D01*
X60547519Y-72196366D01*
X60547514Y-72196365D01*
X60368269Y-72176170D01*
X60368261Y-72176170D01*
X60189015Y-72196365D01*
X60189010Y-72196366D01*
X60018741Y-72255946D01*
X59866001Y-72351920D01*
X59863168Y-72354180D01*
X59860989Y-72355069D01*
X59860107Y-72355624D01*
X59860009Y-72355469D01*
X59798482Y-72380590D01*
X59785853Y-72381235D01*
X59184935Y-72381235D01*
X59184919Y-72381234D01*
X59177323Y-72381234D01*
X59019208Y-72381234D01*
X59019207Y-72381234D01*
X58920592Y-72407658D01*
X58850742Y-72405995D01*
X58792880Y-72366832D01*
X58765376Y-72302604D01*
X58764499Y-72287883D01*
X58764499Y-71238129D01*
X58764498Y-71238123D01*
X58762706Y-71221454D01*
X58758091Y-71178517D01*
X58756810Y-71175083D01*
X58707797Y-71043671D01*
X58707793Y-71043664D01*
X58667721Y-70990135D01*
X64169500Y-70990135D01*
X64169500Y-72785870D01*
X64169501Y-72785876D01*
X64175908Y-72845483D01*
X64226202Y-72980328D01*
X64226206Y-72980335D01*
X64312452Y-73095544D01*
X64312455Y-73095547D01*
X64427664Y-73181793D01*
X64427671Y-73181797D01*
X64562517Y-73232091D01*
X64562516Y-73232091D01*
X64569444Y-73232835D01*
X64622127Y-73238500D01*
X66417872Y-73238499D01*
X66477483Y-73232091D01*
X66612331Y-73181796D01*
X66727546Y-73095546D01*
X66813796Y-72980331D01*
X66862810Y-72848916D01*
X66904681Y-72792984D01*
X66970145Y-72768566D01*
X67038418Y-72783417D01*
X67066673Y-72804569D01*
X67188599Y-72926495D01*
X67267484Y-72981731D01*
X67382165Y-73062032D01*
X67382167Y-73062033D01*
X67382170Y-73062035D01*
X67596337Y-73161903D01*
X67596343Y-73161904D01*
X67596344Y-73161905D01*
X67643343Y-73174498D01*
X67824592Y-73223063D01*
X68001034Y-73238500D01*
X68059999Y-73243659D01*
X68060000Y-73243659D01*
X68060001Y-73243659D01*
X68118966Y-73238500D01*
X68295408Y-73223063D01*
X68523663Y-73161903D01*
X68737830Y-73062035D01*
X68931401Y-72926495D01*
X69098495Y-72759401D01*
X69228425Y-72573842D01*
X69283002Y-72530217D01*
X69352500Y-72523023D01*
X69414855Y-72554546D01*
X69431575Y-72573842D01*
X69561500Y-72759395D01*
X69561505Y-72759401D01*
X69728599Y-72926495D01*
X69807484Y-72981731D01*
X69922165Y-73062032D01*
X69922167Y-73062033D01*
X69922170Y-73062035D01*
X70136337Y-73161903D01*
X70136343Y-73161904D01*
X70136344Y-73161905D01*
X70183343Y-73174498D01*
X70364592Y-73223063D01*
X70541034Y-73238500D01*
X70599999Y-73243659D01*
X70600000Y-73243659D01*
X70600001Y-73243659D01*
X70658966Y-73238500D01*
X70835408Y-73223063D01*
X71063663Y-73161903D01*
X71277830Y-73062035D01*
X71471401Y-72926495D01*
X71638495Y-72759401D01*
X71768425Y-72573842D01*
X71823002Y-72530217D01*
X71892500Y-72523023D01*
X71954855Y-72554546D01*
X71971575Y-72573842D01*
X72101500Y-72759395D01*
X72101505Y-72759401D01*
X72268599Y-72926495D01*
X72347484Y-72981731D01*
X72462165Y-73062032D01*
X72462167Y-73062033D01*
X72462170Y-73062035D01*
X72676337Y-73161903D01*
X72676343Y-73161904D01*
X72676344Y-73161905D01*
X72723343Y-73174498D01*
X72904592Y-73223063D01*
X73081034Y-73238500D01*
X73139999Y-73243659D01*
X73140000Y-73243659D01*
X73140001Y-73243659D01*
X73198966Y-73238500D01*
X73375408Y-73223063D01*
X73603663Y-73161903D01*
X73817830Y-73062035D01*
X74011401Y-72926495D01*
X74178495Y-72759401D01*
X74308425Y-72573842D01*
X74363002Y-72530217D01*
X74432500Y-72523023D01*
X74494855Y-72554546D01*
X74511575Y-72573842D01*
X74641500Y-72759395D01*
X74641505Y-72759401D01*
X74808599Y-72926495D01*
X74887484Y-72981731D01*
X75002165Y-73062032D01*
X75002167Y-73062033D01*
X75002170Y-73062035D01*
X75216337Y-73161903D01*
X75216343Y-73161904D01*
X75216344Y-73161905D01*
X75263343Y-73174498D01*
X75444592Y-73223063D01*
X75621034Y-73238500D01*
X75679999Y-73243659D01*
X75680000Y-73243659D01*
X75680001Y-73243659D01*
X75738966Y-73238500D01*
X75915408Y-73223063D01*
X76143663Y-73161903D01*
X76357830Y-73062035D01*
X76551401Y-72926495D01*
X76718495Y-72759401D01*
X76854035Y-72565830D01*
X76953903Y-72351663D01*
X77015063Y-72123408D01*
X77035659Y-71888000D01*
X77035134Y-71881998D01*
X87380532Y-71881998D01*
X87380532Y-71882001D01*
X87400364Y-72108686D01*
X87400366Y-72108697D01*
X87459258Y-72328488D01*
X87459261Y-72328497D01*
X87555431Y-72534732D01*
X87555432Y-72534734D01*
X87685954Y-72721141D01*
X87846858Y-72882045D01*
X87846861Y-72882047D01*
X88033266Y-73012568D01*
X88239504Y-73108739D01*
X88459308Y-73167635D01*
X88621135Y-73181793D01*
X88685998Y-73187468D01*
X88686000Y-73187468D01*
X88686002Y-73187468D01*
X88742673Y-73182509D01*
X88912692Y-73167635D01*
X89132496Y-73108739D01*
X89338734Y-73012568D01*
X89525139Y-72882047D01*
X89686047Y-72721139D01*
X89816568Y-72534734D01*
X89912739Y-72328496D01*
X89971635Y-72108692D01*
X89991468Y-71882000D01*
X89991468Y-71881998D01*
X92380532Y-71881998D01*
X92380532Y-71882001D01*
X92400364Y-72108686D01*
X92400366Y-72108697D01*
X92459258Y-72328488D01*
X92459261Y-72328497D01*
X92555431Y-72534732D01*
X92555432Y-72534734D01*
X92685954Y-72721141D01*
X92846858Y-72882045D01*
X92846861Y-72882047D01*
X93033266Y-73012568D01*
X93239504Y-73108739D01*
X93459308Y-73167635D01*
X93621135Y-73181793D01*
X93685998Y-73187468D01*
X93686000Y-73187468D01*
X93686002Y-73187468D01*
X93742673Y-73182509D01*
X93912692Y-73167635D01*
X94132496Y-73108739D01*
X94338734Y-73012568D01*
X94525139Y-72882047D01*
X94686047Y-72721139D01*
X94816568Y-72534734D01*
X94912739Y-72328496D01*
X94971635Y-72108692D01*
X94991468Y-71882000D01*
X94991468Y-71881998D01*
X99492532Y-71881998D01*
X99492532Y-71882001D01*
X99512364Y-72108686D01*
X99512366Y-72108697D01*
X99571258Y-72328488D01*
X99571261Y-72328497D01*
X99667431Y-72534732D01*
X99667432Y-72534734D01*
X99797954Y-72721141D01*
X99958858Y-72882045D01*
X99958861Y-72882047D01*
X100145266Y-73012568D01*
X100351504Y-73108739D01*
X100571308Y-73167635D01*
X100733135Y-73181793D01*
X100797998Y-73187468D01*
X100798000Y-73187468D01*
X100798002Y-73187468D01*
X100854673Y-73182509D01*
X101024692Y-73167635D01*
X101244496Y-73108739D01*
X101450734Y-73012568D01*
X101637139Y-72882047D01*
X101798047Y-72721139D01*
X101928568Y-72534734D01*
X102024739Y-72328496D01*
X102025722Y-72324824D01*
X102062081Y-72265161D01*
X102124925Y-72234626D01*
X102194301Y-72242914D01*
X102248184Y-72287394D01*
X102269465Y-72353944D01*
X102269500Y-72356907D01*
X102269500Y-72785870D01*
X102269501Y-72785876D01*
X102275908Y-72845483D01*
X102326202Y-72980328D01*
X102326206Y-72980335D01*
X102412452Y-73095544D01*
X102412455Y-73095547D01*
X102527664Y-73181793D01*
X102527671Y-73181797D01*
X102662517Y-73232091D01*
X102662516Y-73232091D01*
X102669444Y-73232835D01*
X102722127Y-73238500D01*
X104517872Y-73238499D01*
X104577483Y-73232091D01*
X104712331Y-73181796D01*
X104827546Y-73095546D01*
X104913796Y-72980331D01*
X104962810Y-72848916D01*
X105004681Y-72792984D01*
X105070145Y-72768566D01*
X105138418Y-72783417D01*
X105166673Y-72804569D01*
X105288599Y-72926495D01*
X105367484Y-72981731D01*
X105482165Y-73062032D01*
X105482167Y-73062033D01*
X105482170Y-73062035D01*
X105696337Y-73161903D01*
X105696343Y-73161904D01*
X105696344Y-73161905D01*
X105743343Y-73174498D01*
X105924592Y-73223063D01*
X106101034Y-73238500D01*
X106159999Y-73243659D01*
X106160000Y-73243659D01*
X106160001Y-73243659D01*
X106218966Y-73238500D01*
X106395408Y-73223063D01*
X106623663Y-73161903D01*
X106837830Y-73062035D01*
X107031401Y-72926495D01*
X107198495Y-72759401D01*
X107328425Y-72573842D01*
X107383002Y-72530217D01*
X107452500Y-72523023D01*
X107514855Y-72554546D01*
X107531575Y-72573842D01*
X107661500Y-72759395D01*
X107661505Y-72759401D01*
X107828599Y-72926495D01*
X107907484Y-72981731D01*
X108022165Y-73062032D01*
X108022167Y-73062033D01*
X108022170Y-73062035D01*
X108236337Y-73161903D01*
X108236343Y-73161904D01*
X108236344Y-73161905D01*
X108283343Y-73174498D01*
X108464592Y-73223063D01*
X108641034Y-73238500D01*
X108699999Y-73243659D01*
X108700000Y-73243659D01*
X108700001Y-73243659D01*
X108758966Y-73238500D01*
X108935408Y-73223063D01*
X109163663Y-73161903D01*
X109377830Y-73062035D01*
X109571401Y-72926495D01*
X109738495Y-72759401D01*
X109868425Y-72573842D01*
X109923002Y-72530217D01*
X109992500Y-72523023D01*
X110054855Y-72554546D01*
X110071575Y-72573842D01*
X110201500Y-72759395D01*
X110201505Y-72759401D01*
X110368599Y-72926495D01*
X110447484Y-72981731D01*
X110562165Y-73062032D01*
X110562167Y-73062033D01*
X110562170Y-73062035D01*
X110776337Y-73161903D01*
X110776343Y-73161904D01*
X110776344Y-73161905D01*
X110823343Y-73174498D01*
X111004592Y-73223063D01*
X111181034Y-73238500D01*
X111239999Y-73243659D01*
X111240000Y-73243659D01*
X111240001Y-73243659D01*
X111298966Y-73238500D01*
X111475408Y-73223063D01*
X111703663Y-73161903D01*
X111917830Y-73062035D01*
X112111401Y-72926495D01*
X112278495Y-72759401D01*
X112408425Y-72573842D01*
X112463002Y-72530217D01*
X112532500Y-72523023D01*
X112594855Y-72554546D01*
X112611575Y-72573842D01*
X112741500Y-72759395D01*
X112741505Y-72759401D01*
X112908599Y-72926495D01*
X112987484Y-72981731D01*
X113102165Y-73062032D01*
X113102167Y-73062033D01*
X113102170Y-73062035D01*
X113316337Y-73161903D01*
X113316343Y-73161904D01*
X113316344Y-73161905D01*
X113363343Y-73174498D01*
X113544592Y-73223063D01*
X113721034Y-73238500D01*
X113779999Y-73243659D01*
X113780000Y-73243659D01*
X113780001Y-73243659D01*
X113838966Y-73238500D01*
X114015408Y-73223063D01*
X114243663Y-73161903D01*
X114457830Y-73062035D01*
X114651401Y-72926495D01*
X114818495Y-72759401D01*
X114954035Y-72565830D01*
X115053903Y-72351663D01*
X115115063Y-72123408D01*
X115135659Y-71888000D01*
X115115063Y-71652592D01*
X115062968Y-71458169D01*
X115053905Y-71424344D01*
X115053904Y-71424343D01*
X115053903Y-71424337D01*
X114954035Y-71210171D01*
X114948425Y-71202158D01*
X114818494Y-71016597D01*
X114792032Y-70990135D01*
X120049500Y-70990135D01*
X120049500Y-72785870D01*
X120049501Y-72785876D01*
X120055908Y-72845483D01*
X120106202Y-72980328D01*
X120106206Y-72980335D01*
X120192452Y-73095544D01*
X120192455Y-73095547D01*
X120307664Y-73181793D01*
X120307671Y-73181797D01*
X120442517Y-73232091D01*
X120442516Y-73232091D01*
X120449444Y-73232835D01*
X120502127Y-73238500D01*
X122297872Y-73238499D01*
X122357483Y-73232091D01*
X122492331Y-73181796D01*
X122607546Y-73095546D01*
X122693796Y-72980331D01*
X122742810Y-72848916D01*
X122784681Y-72792984D01*
X122850145Y-72768566D01*
X122918418Y-72783417D01*
X122946673Y-72804569D01*
X123068599Y-72926495D01*
X123147484Y-72981731D01*
X123262165Y-73062032D01*
X123262167Y-73062033D01*
X123262170Y-73062035D01*
X123476337Y-73161903D01*
X123476343Y-73161904D01*
X123476344Y-73161905D01*
X123523343Y-73174498D01*
X123704592Y-73223063D01*
X123881034Y-73238500D01*
X123939999Y-73243659D01*
X123940000Y-73243659D01*
X123940001Y-73243659D01*
X123998966Y-73238500D01*
X124175408Y-73223063D01*
X124403663Y-73161903D01*
X124617830Y-73062035D01*
X124811401Y-72926495D01*
X124978495Y-72759401D01*
X125108425Y-72573842D01*
X125163002Y-72530217D01*
X125232500Y-72523023D01*
X125294855Y-72554546D01*
X125311575Y-72573842D01*
X125441500Y-72759395D01*
X125441505Y-72759401D01*
X125608599Y-72926495D01*
X125687484Y-72981731D01*
X125802165Y-73062032D01*
X125802167Y-73062033D01*
X125802170Y-73062035D01*
X126016337Y-73161903D01*
X126016343Y-73161904D01*
X126016344Y-73161905D01*
X126063343Y-73174498D01*
X126244592Y-73223063D01*
X126421034Y-73238500D01*
X126479999Y-73243659D01*
X126480000Y-73243659D01*
X126480001Y-73243659D01*
X126538966Y-73238500D01*
X126715408Y-73223063D01*
X126943663Y-73161903D01*
X127157830Y-73062035D01*
X127351401Y-72926495D01*
X127518495Y-72759401D01*
X127654035Y-72565830D01*
X127753903Y-72351663D01*
X127815063Y-72123408D01*
X127835659Y-71888000D01*
X127835659Y-71887999D01*
X130204341Y-71887999D01*
X130204341Y-71888000D01*
X130224936Y-72123403D01*
X130224938Y-72123413D01*
X130286094Y-72351655D01*
X130286096Y-72351659D01*
X130286097Y-72351663D01*
X130345696Y-72479473D01*
X130385965Y-72565830D01*
X130385967Y-72565834D01*
X130494281Y-72720521D01*
X130521505Y-72759401D01*
X130688599Y-72926495D01*
X130767484Y-72981731D01*
X130882165Y-73062032D01*
X130882167Y-73062033D01*
X130882170Y-73062035D01*
X131096337Y-73161903D01*
X131096343Y-73161904D01*
X131096344Y-73161905D01*
X131143343Y-73174498D01*
X131324592Y-73223063D01*
X131501034Y-73238500D01*
X131559999Y-73243659D01*
X131560000Y-73243659D01*
X131560001Y-73243659D01*
X131618966Y-73238500D01*
X131795408Y-73223063D01*
X132023663Y-73161903D01*
X132237830Y-73062035D01*
X132431401Y-72926495D01*
X132598495Y-72759401D01*
X132728425Y-72573842D01*
X132783002Y-72530217D01*
X132852500Y-72523023D01*
X132914855Y-72554546D01*
X132931575Y-72573842D01*
X133061500Y-72759395D01*
X133061505Y-72759401D01*
X133228599Y-72926495D01*
X133307484Y-72981731D01*
X133422165Y-73062032D01*
X133422167Y-73062033D01*
X133422170Y-73062035D01*
X133636337Y-73161903D01*
X133636343Y-73161904D01*
X133636344Y-73161905D01*
X133683343Y-73174498D01*
X133864592Y-73223063D01*
X134041034Y-73238500D01*
X134099999Y-73243659D01*
X134100000Y-73243659D01*
X134100001Y-73243659D01*
X134158966Y-73238500D01*
X134335408Y-73223063D01*
X134563663Y-73161903D01*
X134777830Y-73062035D01*
X134971401Y-72926495D01*
X135138495Y-72759401D01*
X135268425Y-72573842D01*
X135323002Y-72530217D01*
X135392500Y-72523023D01*
X135454855Y-72554546D01*
X135471575Y-72573842D01*
X135601500Y-72759395D01*
X135601505Y-72759401D01*
X135768599Y-72926495D01*
X135847484Y-72981731D01*
X135962165Y-73062032D01*
X135962167Y-73062033D01*
X135962170Y-73062035D01*
X136176337Y-73161903D01*
X136176343Y-73161904D01*
X136176344Y-73161905D01*
X136223343Y-73174498D01*
X136404592Y-73223063D01*
X136581034Y-73238500D01*
X136639999Y-73243659D01*
X136640000Y-73243659D01*
X136640001Y-73243659D01*
X136698966Y-73238500D01*
X136875408Y-73223063D01*
X137103663Y-73161903D01*
X137317830Y-73062035D01*
X137511401Y-72926495D01*
X137678495Y-72759401D01*
X137808425Y-72573842D01*
X137863002Y-72530217D01*
X137932500Y-72523023D01*
X137994855Y-72554546D01*
X138011575Y-72573842D01*
X138141500Y-72759395D01*
X138141505Y-72759401D01*
X138308599Y-72926495D01*
X138387484Y-72981731D01*
X138502165Y-73062032D01*
X138502167Y-73062033D01*
X138502170Y-73062035D01*
X138716337Y-73161903D01*
X138716343Y-73161904D01*
X138716344Y-73161905D01*
X138763343Y-73174498D01*
X138944592Y-73223063D01*
X139121034Y-73238500D01*
X139179999Y-73243659D01*
X139180000Y-73243659D01*
X139180001Y-73243659D01*
X139238966Y-73238500D01*
X139415408Y-73223063D01*
X139643663Y-73161903D01*
X139857830Y-73062035D01*
X140051401Y-72926495D01*
X140218495Y-72759401D01*
X140348425Y-72573842D01*
X140403002Y-72530217D01*
X140472500Y-72523023D01*
X140534855Y-72554546D01*
X140551575Y-72573842D01*
X140681500Y-72759395D01*
X140681505Y-72759401D01*
X140848599Y-72926495D01*
X140927484Y-72981731D01*
X141042165Y-73062032D01*
X141042167Y-73062033D01*
X141042170Y-73062035D01*
X141256337Y-73161903D01*
X141256343Y-73161904D01*
X141256344Y-73161905D01*
X141303343Y-73174498D01*
X141484592Y-73223063D01*
X141661034Y-73238500D01*
X141719999Y-73243659D01*
X141720000Y-73243659D01*
X141720001Y-73243659D01*
X141778966Y-73238500D01*
X141955408Y-73223063D01*
X142183663Y-73161903D01*
X142397830Y-73062035D01*
X142591401Y-72926495D01*
X142758495Y-72759401D01*
X142888425Y-72573842D01*
X142943002Y-72530217D01*
X143012500Y-72523023D01*
X143074855Y-72554546D01*
X143091575Y-72573842D01*
X143221500Y-72759395D01*
X143221505Y-72759401D01*
X143388599Y-72926495D01*
X143467484Y-72981731D01*
X143582165Y-73062032D01*
X143582167Y-73062033D01*
X143582170Y-73062035D01*
X143796337Y-73161903D01*
X143796343Y-73161904D01*
X143796344Y-73161905D01*
X143843343Y-73174498D01*
X144024592Y-73223063D01*
X144201034Y-73238500D01*
X144259999Y-73243659D01*
X144260000Y-73243659D01*
X144260001Y-73243659D01*
X144318966Y-73238500D01*
X144495408Y-73223063D01*
X144723663Y-73161903D01*
X144937830Y-73062035D01*
X145131401Y-72926495D01*
X145298495Y-72759401D01*
X145434035Y-72565830D01*
X145533903Y-72351663D01*
X145595063Y-72123408D01*
X145615659Y-71888000D01*
X145595063Y-71652592D01*
X145542968Y-71458169D01*
X145533905Y-71424344D01*
X145533904Y-71424343D01*
X145533903Y-71424337D01*
X145434035Y-71210171D01*
X145428425Y-71202158D01*
X145298494Y-71016597D01*
X145131402Y-70849506D01*
X145131395Y-70849501D01*
X144937834Y-70713967D01*
X144937830Y-70713965D01*
X144937828Y-70713964D01*
X144723663Y-70614097D01*
X144723659Y-70614096D01*
X144723655Y-70614094D01*
X144495413Y-70552938D01*
X144495403Y-70552936D01*
X144260001Y-70532341D01*
X144259999Y-70532341D01*
X144024596Y-70552936D01*
X144024586Y-70552938D01*
X143796344Y-70614094D01*
X143796335Y-70614098D01*
X143582171Y-70713964D01*
X143582169Y-70713965D01*
X143388597Y-70849505D01*
X143221505Y-71016597D01*
X143091575Y-71202158D01*
X143036998Y-71245783D01*
X142967500Y-71252977D01*
X142905145Y-71221454D01*
X142888425Y-71202158D01*
X142758494Y-71016597D01*
X142591402Y-70849506D01*
X142591395Y-70849501D01*
X142397834Y-70713967D01*
X142397830Y-70713965D01*
X142397828Y-70713964D01*
X142183663Y-70614097D01*
X142183659Y-70614096D01*
X142183655Y-70614094D01*
X141955413Y-70552938D01*
X141955403Y-70552936D01*
X141720001Y-70532341D01*
X141719999Y-70532341D01*
X141484596Y-70552936D01*
X141484586Y-70552938D01*
X141256344Y-70614094D01*
X141256335Y-70614098D01*
X141042171Y-70713964D01*
X141042169Y-70713965D01*
X140848597Y-70849505D01*
X140681505Y-71016597D01*
X140551575Y-71202158D01*
X140496998Y-71245783D01*
X140427500Y-71252977D01*
X140365145Y-71221454D01*
X140348425Y-71202158D01*
X140218494Y-71016597D01*
X140051402Y-70849506D01*
X140051395Y-70849501D01*
X139857834Y-70713967D01*
X139857830Y-70713965D01*
X139857828Y-70713964D01*
X139643663Y-70614097D01*
X139643659Y-70614096D01*
X139643655Y-70614094D01*
X139415413Y-70552938D01*
X139415403Y-70552936D01*
X139180001Y-70532341D01*
X139179999Y-70532341D01*
X138944596Y-70552936D01*
X138944586Y-70552938D01*
X138716344Y-70614094D01*
X138716335Y-70614098D01*
X138502171Y-70713964D01*
X138502169Y-70713965D01*
X138308597Y-70849505D01*
X138141505Y-71016597D01*
X138011575Y-71202158D01*
X137956998Y-71245783D01*
X137887500Y-71252977D01*
X137825145Y-71221454D01*
X137808425Y-71202158D01*
X137678494Y-71016597D01*
X137511402Y-70849506D01*
X137511395Y-70849501D01*
X137317834Y-70713967D01*
X137317830Y-70713965D01*
X137317828Y-70713964D01*
X137103663Y-70614097D01*
X137103659Y-70614096D01*
X137103655Y-70614094D01*
X136875413Y-70552938D01*
X136875403Y-70552936D01*
X136640001Y-70532341D01*
X136639999Y-70532341D01*
X136404596Y-70552936D01*
X136404586Y-70552938D01*
X136176344Y-70614094D01*
X136176335Y-70614098D01*
X135962171Y-70713964D01*
X135962169Y-70713965D01*
X135768597Y-70849505D01*
X135601505Y-71016597D01*
X135471575Y-71202158D01*
X135416998Y-71245783D01*
X135347500Y-71252977D01*
X135285145Y-71221454D01*
X135268425Y-71202158D01*
X135138494Y-71016597D01*
X134971402Y-70849506D01*
X134971395Y-70849501D01*
X134777834Y-70713967D01*
X134777830Y-70713965D01*
X134777828Y-70713964D01*
X134563663Y-70614097D01*
X134563659Y-70614096D01*
X134563655Y-70614094D01*
X134335413Y-70552938D01*
X134335403Y-70552936D01*
X134100001Y-70532341D01*
X134099999Y-70532341D01*
X133864596Y-70552936D01*
X133864586Y-70552938D01*
X133636344Y-70614094D01*
X133636335Y-70614098D01*
X133422171Y-70713964D01*
X133422169Y-70713965D01*
X133228597Y-70849505D01*
X133061505Y-71016597D01*
X132931575Y-71202158D01*
X132876998Y-71245783D01*
X132807500Y-71252977D01*
X132745145Y-71221454D01*
X132728425Y-71202158D01*
X132598494Y-71016597D01*
X132431402Y-70849506D01*
X132431395Y-70849501D01*
X132237834Y-70713967D01*
X132237830Y-70713965D01*
X132237828Y-70713964D01*
X132023663Y-70614097D01*
X132023659Y-70614096D01*
X132023655Y-70614094D01*
X131795413Y-70552938D01*
X131795403Y-70552936D01*
X131560001Y-70532341D01*
X131559999Y-70532341D01*
X131324596Y-70552936D01*
X131324586Y-70552938D01*
X131096344Y-70614094D01*
X131096335Y-70614098D01*
X130882171Y-70713964D01*
X130882169Y-70713965D01*
X130688597Y-70849505D01*
X130521505Y-71016597D01*
X130385965Y-71210169D01*
X130385964Y-71210171D01*
X130286098Y-71424335D01*
X130286094Y-71424344D01*
X130224938Y-71652586D01*
X130224936Y-71652596D01*
X130204341Y-71887999D01*
X127835659Y-71887999D01*
X127815063Y-71652592D01*
X127762968Y-71458169D01*
X127753905Y-71424344D01*
X127753904Y-71424343D01*
X127753903Y-71424337D01*
X127654035Y-71210171D01*
X127648425Y-71202158D01*
X127518494Y-71016597D01*
X127351402Y-70849506D01*
X127351395Y-70849501D01*
X127157834Y-70713967D01*
X127157830Y-70713965D01*
X127157828Y-70713964D01*
X126943663Y-70614097D01*
X126943659Y-70614096D01*
X126943655Y-70614094D01*
X126715413Y-70552938D01*
X126715403Y-70552936D01*
X126480001Y-70532341D01*
X126479999Y-70532341D01*
X126244596Y-70552936D01*
X126244586Y-70552938D01*
X126016344Y-70614094D01*
X126016335Y-70614098D01*
X125802171Y-70713964D01*
X125802169Y-70713965D01*
X125608597Y-70849505D01*
X125441505Y-71016597D01*
X125311575Y-71202158D01*
X125256998Y-71245783D01*
X125187500Y-71252977D01*
X125125145Y-71221454D01*
X125108425Y-71202158D01*
X124978494Y-71016597D01*
X124811402Y-70849506D01*
X124811395Y-70849501D01*
X124617834Y-70713967D01*
X124617830Y-70713965D01*
X124617828Y-70713964D01*
X124403663Y-70614097D01*
X124403659Y-70614096D01*
X124403655Y-70614094D01*
X124175413Y-70552938D01*
X124175403Y-70552936D01*
X123940001Y-70532341D01*
X123939999Y-70532341D01*
X123704596Y-70552936D01*
X123704586Y-70552938D01*
X123476344Y-70614094D01*
X123476335Y-70614098D01*
X123262171Y-70713964D01*
X123262169Y-70713965D01*
X123068600Y-70849503D01*
X122946673Y-70971430D01*
X122885350Y-71004914D01*
X122815658Y-70999930D01*
X122759725Y-70958058D01*
X122742810Y-70927081D01*
X122693797Y-70795671D01*
X122693793Y-70795664D01*
X122607547Y-70680455D01*
X122607544Y-70680452D01*
X122492335Y-70594206D01*
X122492328Y-70594202D01*
X122357482Y-70543908D01*
X122357483Y-70543908D01*
X122297883Y-70537501D01*
X122297881Y-70537500D01*
X122297873Y-70537500D01*
X122297864Y-70537500D01*
X120502129Y-70537500D01*
X120502123Y-70537501D01*
X120442516Y-70543908D01*
X120307671Y-70594202D01*
X120307664Y-70594206D01*
X120192455Y-70680452D01*
X120192452Y-70680455D01*
X120106206Y-70795664D01*
X120106202Y-70795671D01*
X120055908Y-70930517D01*
X120049501Y-70990116D01*
X120049500Y-70990135D01*
X114792032Y-70990135D01*
X114651402Y-70849506D01*
X114651395Y-70849501D01*
X114457834Y-70713967D01*
X114457830Y-70713965D01*
X114457828Y-70713964D01*
X114243663Y-70614097D01*
X114243659Y-70614096D01*
X114243655Y-70614094D01*
X114015413Y-70552938D01*
X114015403Y-70552936D01*
X113780001Y-70532341D01*
X113779999Y-70532341D01*
X113544596Y-70552936D01*
X113544586Y-70552938D01*
X113316344Y-70614094D01*
X113316335Y-70614098D01*
X113102171Y-70713964D01*
X113102169Y-70713965D01*
X112908597Y-70849505D01*
X112741505Y-71016597D01*
X112611575Y-71202158D01*
X112556998Y-71245783D01*
X112487500Y-71252977D01*
X112425145Y-71221454D01*
X112408425Y-71202158D01*
X112278494Y-71016597D01*
X112111402Y-70849506D01*
X112111395Y-70849501D01*
X111917834Y-70713967D01*
X111917830Y-70713965D01*
X111917828Y-70713964D01*
X111703663Y-70614097D01*
X111703659Y-70614096D01*
X111703655Y-70614094D01*
X111475413Y-70552938D01*
X111475403Y-70552936D01*
X111240001Y-70532341D01*
X111239999Y-70532341D01*
X111004596Y-70552936D01*
X111004586Y-70552938D01*
X110776344Y-70614094D01*
X110776335Y-70614098D01*
X110562171Y-70713964D01*
X110562169Y-70713965D01*
X110368597Y-70849505D01*
X110201505Y-71016597D01*
X110071575Y-71202158D01*
X110016998Y-71245783D01*
X109947500Y-71252977D01*
X109885145Y-71221454D01*
X109868425Y-71202158D01*
X109738494Y-71016597D01*
X109571402Y-70849506D01*
X109571395Y-70849501D01*
X109377834Y-70713967D01*
X109377830Y-70713965D01*
X109377828Y-70713964D01*
X109163663Y-70614097D01*
X109163659Y-70614096D01*
X109163655Y-70614094D01*
X108935413Y-70552938D01*
X108935403Y-70552936D01*
X108700001Y-70532341D01*
X108699999Y-70532341D01*
X108464596Y-70552936D01*
X108464586Y-70552938D01*
X108236344Y-70614094D01*
X108236335Y-70614098D01*
X108022171Y-70713964D01*
X108022169Y-70713965D01*
X107828597Y-70849505D01*
X107661505Y-71016597D01*
X107531575Y-71202158D01*
X107476998Y-71245783D01*
X107407500Y-71252977D01*
X107345145Y-71221454D01*
X107328425Y-71202158D01*
X107198494Y-71016597D01*
X107031402Y-70849506D01*
X107031395Y-70849501D01*
X106837834Y-70713967D01*
X106837830Y-70713965D01*
X106837828Y-70713964D01*
X106623663Y-70614097D01*
X106623659Y-70614096D01*
X106623655Y-70614094D01*
X106395413Y-70552938D01*
X106395403Y-70552936D01*
X106160001Y-70532341D01*
X106159999Y-70532341D01*
X105924596Y-70552936D01*
X105924586Y-70552938D01*
X105696344Y-70614094D01*
X105696335Y-70614098D01*
X105482171Y-70713964D01*
X105482169Y-70713965D01*
X105288600Y-70849503D01*
X105166673Y-70971430D01*
X105105350Y-71004914D01*
X105035658Y-70999930D01*
X104979725Y-70958058D01*
X104962810Y-70927081D01*
X104913797Y-70795671D01*
X104913793Y-70795664D01*
X104827547Y-70680455D01*
X104827544Y-70680452D01*
X104712335Y-70594206D01*
X104712328Y-70594202D01*
X104577482Y-70543908D01*
X104577483Y-70543908D01*
X104517883Y-70537501D01*
X104517881Y-70537500D01*
X104517873Y-70537500D01*
X104517864Y-70537500D01*
X102722129Y-70537500D01*
X102722123Y-70537501D01*
X102662516Y-70543908D01*
X102527671Y-70594202D01*
X102527664Y-70594206D01*
X102412455Y-70680452D01*
X102412452Y-70680455D01*
X102326206Y-70795664D01*
X102326202Y-70795671D01*
X102275908Y-70930517D01*
X102269501Y-70990116D01*
X102269500Y-70990135D01*
X102269500Y-71407090D01*
X102249815Y-71474129D01*
X102197011Y-71519884D01*
X102127853Y-71529828D01*
X102064297Y-71500803D01*
X102026523Y-71442025D01*
X102025725Y-71439182D01*
X102024742Y-71435513D01*
X102024738Y-71435502D01*
X101940770Y-71255433D01*
X101928568Y-71229266D01*
X101798047Y-71042861D01*
X101798045Y-71042858D01*
X101637141Y-70881954D01*
X101450734Y-70751432D01*
X101450732Y-70751431D01*
X101244497Y-70655261D01*
X101244488Y-70655258D01*
X101024697Y-70596366D01*
X101024693Y-70596365D01*
X101024692Y-70596365D01*
X101024691Y-70596364D01*
X101024686Y-70596364D01*
X100798002Y-70576532D01*
X100797998Y-70576532D01*
X100571313Y-70596364D01*
X100571302Y-70596366D01*
X100351511Y-70655258D01*
X100351502Y-70655261D01*
X100145267Y-70751431D01*
X100145265Y-70751432D01*
X99958858Y-70881954D01*
X99797954Y-71042858D01*
X99667432Y-71229265D01*
X99667431Y-71229267D01*
X99571261Y-71435502D01*
X99571258Y-71435511D01*
X99512366Y-71655302D01*
X99512364Y-71655313D01*
X99492532Y-71881998D01*
X94991468Y-71881998D01*
X94971635Y-71655308D01*
X94926916Y-71488415D01*
X94912741Y-71435511D01*
X94912738Y-71435502D01*
X94828770Y-71255433D01*
X94816568Y-71229266D01*
X94686047Y-71042861D01*
X94686045Y-71042858D01*
X94525141Y-70881954D01*
X94338734Y-70751432D01*
X94338732Y-70751431D01*
X94132497Y-70655261D01*
X94132488Y-70655258D01*
X93912697Y-70596366D01*
X93912693Y-70596365D01*
X93912692Y-70596365D01*
X93912691Y-70596364D01*
X93912686Y-70596364D01*
X93686002Y-70576532D01*
X93685998Y-70576532D01*
X93459313Y-70596364D01*
X93459302Y-70596366D01*
X93239511Y-70655258D01*
X93239502Y-70655261D01*
X93033267Y-70751431D01*
X93033265Y-70751432D01*
X92846858Y-70881954D01*
X92685954Y-71042858D01*
X92555432Y-71229265D01*
X92555431Y-71229267D01*
X92459261Y-71435502D01*
X92459258Y-71435511D01*
X92400366Y-71655302D01*
X92400364Y-71655313D01*
X92380532Y-71881998D01*
X89991468Y-71881998D01*
X89971635Y-71655308D01*
X89926916Y-71488415D01*
X89912741Y-71435511D01*
X89912738Y-71435502D01*
X89828770Y-71255433D01*
X89816568Y-71229266D01*
X89686047Y-71042861D01*
X89686045Y-71042858D01*
X89525141Y-70881954D01*
X89338734Y-70751432D01*
X89338732Y-70751431D01*
X89132497Y-70655261D01*
X89132488Y-70655258D01*
X88912697Y-70596366D01*
X88912693Y-70596365D01*
X88912692Y-70596365D01*
X88912691Y-70596364D01*
X88912686Y-70596364D01*
X88686002Y-70576532D01*
X88685998Y-70576532D01*
X88459313Y-70596364D01*
X88459302Y-70596366D01*
X88239511Y-70655258D01*
X88239502Y-70655261D01*
X88033267Y-70751431D01*
X88033265Y-70751432D01*
X87846858Y-70881954D01*
X87685954Y-71042858D01*
X87555432Y-71229265D01*
X87555431Y-71229267D01*
X87459261Y-71435502D01*
X87459258Y-71435511D01*
X87400366Y-71655302D01*
X87400364Y-71655313D01*
X87380532Y-71881998D01*
X77035134Y-71881998D01*
X77015063Y-71652592D01*
X76962968Y-71458169D01*
X76953905Y-71424344D01*
X76953904Y-71424343D01*
X76953903Y-71424337D01*
X76854035Y-71210171D01*
X76848425Y-71202158D01*
X76718494Y-71016597D01*
X76551402Y-70849506D01*
X76551395Y-70849501D01*
X76357834Y-70713967D01*
X76357830Y-70713965D01*
X76357828Y-70713964D01*
X76143663Y-70614097D01*
X76143659Y-70614096D01*
X76143655Y-70614094D01*
X75915413Y-70552938D01*
X75915403Y-70552936D01*
X75680001Y-70532341D01*
X75679999Y-70532341D01*
X75444596Y-70552936D01*
X75444586Y-70552938D01*
X75216344Y-70614094D01*
X75216335Y-70614098D01*
X75002171Y-70713964D01*
X75002169Y-70713965D01*
X74808597Y-70849505D01*
X74641505Y-71016597D01*
X74511575Y-71202158D01*
X74456998Y-71245783D01*
X74387500Y-71252977D01*
X74325145Y-71221454D01*
X74308425Y-71202158D01*
X74178494Y-71016597D01*
X74011402Y-70849506D01*
X74011395Y-70849501D01*
X73817834Y-70713967D01*
X73817830Y-70713965D01*
X73817828Y-70713964D01*
X73603663Y-70614097D01*
X73603659Y-70614096D01*
X73603655Y-70614094D01*
X73375413Y-70552938D01*
X73375403Y-70552936D01*
X73140001Y-70532341D01*
X73139999Y-70532341D01*
X72904596Y-70552936D01*
X72904586Y-70552938D01*
X72676344Y-70614094D01*
X72676335Y-70614098D01*
X72462171Y-70713964D01*
X72462169Y-70713965D01*
X72268597Y-70849505D01*
X72101505Y-71016597D01*
X71971575Y-71202158D01*
X71916998Y-71245783D01*
X71847500Y-71252977D01*
X71785145Y-71221454D01*
X71768425Y-71202158D01*
X71638494Y-71016597D01*
X71471402Y-70849506D01*
X71471395Y-70849501D01*
X71277834Y-70713967D01*
X71277830Y-70713965D01*
X71277828Y-70713964D01*
X71063663Y-70614097D01*
X71063659Y-70614096D01*
X71063655Y-70614094D01*
X70835413Y-70552938D01*
X70835403Y-70552936D01*
X70600001Y-70532341D01*
X70599999Y-70532341D01*
X70364596Y-70552936D01*
X70364586Y-70552938D01*
X70136344Y-70614094D01*
X70136335Y-70614098D01*
X69922171Y-70713964D01*
X69922169Y-70713965D01*
X69728597Y-70849505D01*
X69561505Y-71016597D01*
X69431575Y-71202158D01*
X69376998Y-71245783D01*
X69307500Y-71252977D01*
X69245145Y-71221454D01*
X69228425Y-71202158D01*
X69098494Y-71016597D01*
X68931402Y-70849506D01*
X68931395Y-70849501D01*
X68737834Y-70713967D01*
X68737830Y-70713965D01*
X68737828Y-70713964D01*
X68523663Y-70614097D01*
X68523659Y-70614096D01*
X68523655Y-70614094D01*
X68295413Y-70552938D01*
X68295403Y-70552936D01*
X68060001Y-70532341D01*
X68059999Y-70532341D01*
X67824596Y-70552936D01*
X67824586Y-70552938D01*
X67596344Y-70614094D01*
X67596335Y-70614098D01*
X67382171Y-70713964D01*
X67382169Y-70713965D01*
X67188600Y-70849503D01*
X67066673Y-70971430D01*
X67005350Y-71004914D01*
X66935658Y-70999930D01*
X66879725Y-70958058D01*
X66862810Y-70927081D01*
X66813797Y-70795671D01*
X66813793Y-70795664D01*
X66727547Y-70680455D01*
X66727544Y-70680452D01*
X66612335Y-70594206D01*
X66612328Y-70594202D01*
X66477482Y-70543908D01*
X66477483Y-70543908D01*
X66417883Y-70537501D01*
X66417881Y-70537500D01*
X66417873Y-70537500D01*
X66417864Y-70537500D01*
X64622129Y-70537500D01*
X64622123Y-70537501D01*
X64562516Y-70543908D01*
X64427671Y-70594202D01*
X64427664Y-70594206D01*
X64312455Y-70680452D01*
X64312452Y-70680455D01*
X64226206Y-70795664D01*
X64226202Y-70795671D01*
X64175908Y-70930517D01*
X64169501Y-70990116D01*
X64169500Y-70990135D01*
X58667721Y-70990135D01*
X58621547Y-70928455D01*
X58621544Y-70928452D01*
X58506335Y-70842206D01*
X58506328Y-70842202D01*
X58371482Y-70791908D01*
X58371483Y-70791908D01*
X58311883Y-70785501D01*
X58311881Y-70785500D01*
X58311873Y-70785500D01*
X58311864Y-70785500D01*
X56516129Y-70785500D01*
X56516123Y-70785501D01*
X56456516Y-70791908D01*
X56321671Y-70842202D01*
X56321664Y-70842206D01*
X56206455Y-70928452D01*
X56206452Y-70928455D01*
X56120206Y-71043664D01*
X56120203Y-71043669D01*
X56071189Y-71175083D01*
X56029317Y-71231016D01*
X55963853Y-71255433D01*
X55895580Y-71240581D01*
X55867326Y-71219430D01*
X55745402Y-71097506D01*
X55745395Y-71097501D01*
X55551834Y-70961967D01*
X55551830Y-70961965D01*
X55543451Y-70958058D01*
X55337663Y-70862097D01*
X55337659Y-70862096D01*
X55337655Y-70862094D01*
X55109413Y-70800938D01*
X55109403Y-70800936D01*
X54874001Y-70780341D01*
X54873999Y-70780341D01*
X54638596Y-70800936D01*
X54638586Y-70800938D01*
X54410344Y-70862094D01*
X54410335Y-70862098D01*
X54196171Y-70961964D01*
X54196169Y-70961965D01*
X54002597Y-71097505D01*
X53835505Y-71264597D01*
X53699965Y-71458169D01*
X53699964Y-71458171D01*
X53600098Y-71672335D01*
X53600094Y-71672344D01*
X53538938Y-71900586D01*
X53538936Y-71900596D01*
X53518341Y-72135999D01*
X53518341Y-72136000D01*
X53538936Y-72371403D01*
X53538938Y-72371413D01*
X53600094Y-72599655D01*
X53600096Y-72599659D01*
X53600097Y-72599663D01*
X53674582Y-72759396D01*
X53699965Y-72813830D01*
X53699967Y-72813834D01*
X53778854Y-72926495D01*
X53835505Y-73007401D01*
X54002599Y-73174495D01*
X54084855Y-73232091D01*
X54196165Y-73310032D01*
X54196167Y-73310033D01*
X54196170Y-73310035D01*
X54410337Y-73409903D01*
X54638592Y-73471063D01*
X54815034Y-73486500D01*
X54873999Y-73491659D01*
X54874000Y-73491659D01*
X54874001Y-73491659D01*
X54932966Y-73486500D01*
X55109408Y-73471063D01*
X55337663Y-73409903D01*
X55551830Y-73310035D01*
X55745401Y-73174495D01*
X55867329Y-73052566D01*
X55928648Y-73019084D01*
X55998340Y-73024068D01*
X56054274Y-73065939D01*
X56071189Y-73096917D01*
X56120202Y-73228328D01*
X56120206Y-73228335D01*
X56206452Y-73343544D01*
X56206455Y-73343547D01*
X56321664Y-73429793D01*
X56321671Y-73429797D01*
X56456517Y-73480091D01*
X56456516Y-73480091D01*
X56463444Y-73480835D01*
X56516127Y-73486500D01*
X57350419Y-73486499D01*
X57417458Y-73506183D01*
X57463213Y-73558987D01*
X57473157Y-73628146D01*
X57470480Y-73639118D01*
X57470917Y-73639218D01*
X57469365Y-73646015D01*
X57449170Y-73825261D01*
X57449170Y-73825268D01*
X57469365Y-74004514D01*
X57469366Y-74004519D01*
X57513290Y-74130045D01*
X57516851Y-74199824D01*
X57482122Y-74260452D01*
X57420129Y-74292679D01*
X57396248Y-74295000D01*
X45209000Y-74295000D01*
X45141961Y-74275315D01*
X45096206Y-74222511D01*
X45085000Y-74171000D01*
X45085000Y-68325999D01*
X53513341Y-68325999D01*
X53513341Y-68326000D01*
X53533936Y-68561403D01*
X53533938Y-68561413D01*
X53595094Y-68789655D01*
X53595096Y-68789659D01*
X53595097Y-68789663D01*
X53672136Y-68954873D01*
X53694965Y-69003830D01*
X53694967Y-69003834D01*
X53738977Y-69066686D01*
X53830505Y-69197401D01*
X53997599Y-69364495D01*
X54075639Y-69419139D01*
X54191165Y-69500032D01*
X54191167Y-69500033D01*
X54191170Y-69500035D01*
X54405337Y-69599903D01*
X54633592Y-69661063D01*
X54810034Y-69676500D01*
X54868999Y-69681659D01*
X54869000Y-69681659D01*
X54869001Y-69681659D01*
X54927966Y-69676500D01*
X55104408Y-69661063D01*
X55332663Y-69599903D01*
X55546830Y-69500035D01*
X55740401Y-69364495D01*
X55862329Y-69242566D01*
X55923648Y-69209084D01*
X55993340Y-69214068D01*
X56049274Y-69255939D01*
X56066189Y-69286917D01*
X56115202Y-69418328D01*
X56115206Y-69418335D01*
X56201452Y-69533544D01*
X56201455Y-69533547D01*
X56316664Y-69619793D01*
X56316671Y-69619797D01*
X56451517Y-69670091D01*
X56451516Y-69670091D01*
X56458444Y-69670835D01*
X56511127Y-69676500D01*
X58306872Y-69676499D01*
X58366483Y-69670091D01*
X58501331Y-69619796D01*
X58616546Y-69533546D01*
X58702796Y-69418331D01*
X58753091Y-69283483D01*
X58759500Y-69223873D01*
X58759500Y-68839998D01*
X74974532Y-68839998D01*
X74974532Y-68840001D01*
X74994364Y-69066686D01*
X74994366Y-69066697D01*
X75053258Y-69286488D01*
X75053261Y-69286497D01*
X75149431Y-69492732D01*
X75149432Y-69492734D01*
X75279954Y-69679141D01*
X75440858Y-69840045D01*
X75440861Y-69840047D01*
X75627266Y-69970568D01*
X75833504Y-70066739D01*
X76053308Y-70125635D01*
X76215230Y-70139801D01*
X76279998Y-70145468D01*
X76280000Y-70145468D01*
X76280002Y-70145468D01*
X76336673Y-70140509D01*
X76506692Y-70125635D01*
X76726496Y-70066739D01*
X76932734Y-69970568D01*
X77119139Y-69840047D01*
X77280047Y-69679139D01*
X77410568Y-69492734D01*
X77506739Y-69286496D01*
X77565635Y-69066692D01*
X77585468Y-68840000D01*
X77565635Y-68613308D01*
X77506739Y-68393504D01*
X77410568Y-68187266D01*
X77280047Y-68000861D01*
X77280045Y-68000858D01*
X77119141Y-67839954D01*
X76932734Y-67709432D01*
X76932732Y-67709431D01*
X76726497Y-67613261D01*
X76726488Y-67613258D01*
X76506697Y-67554366D01*
X76506693Y-67554365D01*
X76506692Y-67554365D01*
X76506691Y-67554364D01*
X76506686Y-67554364D01*
X76280002Y-67534532D01*
X76279998Y-67534532D01*
X76053313Y-67554364D01*
X76053302Y-67554366D01*
X75833511Y-67613258D01*
X75833502Y-67613261D01*
X75627267Y-67709431D01*
X75627265Y-67709432D01*
X75440858Y-67839954D01*
X75279954Y-68000858D01*
X75149432Y-68187265D01*
X75149431Y-68187267D01*
X75053261Y-68393502D01*
X75053258Y-68393511D01*
X74994366Y-68613302D01*
X74994364Y-68613313D01*
X74974532Y-68839998D01*
X58759500Y-68839998D01*
X58759499Y-67428128D01*
X58753091Y-67368517D01*
X58751810Y-67365083D01*
X58702797Y-67233671D01*
X58702793Y-67233664D01*
X58616547Y-67118455D01*
X58616544Y-67118452D01*
X58501335Y-67032206D01*
X58501328Y-67032202D01*
X58366482Y-66981908D01*
X58366483Y-66981908D01*
X58306883Y-66975501D01*
X58306881Y-66975500D01*
X58306873Y-66975500D01*
X58306864Y-66975500D01*
X56511129Y-66975500D01*
X56511123Y-66975501D01*
X56451516Y-66981908D01*
X56316671Y-67032202D01*
X56316664Y-67032206D01*
X56201455Y-67118452D01*
X56201452Y-67118455D01*
X56115206Y-67233664D01*
X56115203Y-67233669D01*
X56066189Y-67365083D01*
X56024317Y-67421016D01*
X55958853Y-67445433D01*
X55890580Y-67430581D01*
X55862326Y-67409430D01*
X55740402Y-67287506D01*
X55740395Y-67287501D01*
X55546834Y-67151967D01*
X55546830Y-67151965D01*
X55546828Y-67151964D01*
X55332663Y-67052097D01*
X55332659Y-67052096D01*
X55332655Y-67052094D01*
X55104413Y-66990938D01*
X55104403Y-66990936D01*
X54869001Y-66970341D01*
X54868999Y-66970341D01*
X54633596Y-66990936D01*
X54633586Y-66990938D01*
X54405344Y-67052094D01*
X54405335Y-67052098D01*
X54191171Y-67151964D01*
X54191169Y-67151965D01*
X53997597Y-67287505D01*
X53830505Y-67454597D01*
X53694965Y-67648169D01*
X53694964Y-67648171D01*
X53595098Y-67862335D01*
X53595094Y-67862344D01*
X53533938Y-68090586D01*
X53533936Y-68090596D01*
X53513341Y-68325999D01*
X45085000Y-68325999D01*
X45085000Y-60705999D01*
X53513341Y-60705999D01*
X53513341Y-60706000D01*
X53533936Y-60941403D01*
X53533938Y-60941413D01*
X53595094Y-61169655D01*
X53595096Y-61169659D01*
X53595097Y-61169663D01*
X53657904Y-61304353D01*
X53694965Y-61383830D01*
X53694967Y-61383834D01*
X53783827Y-61510738D01*
X53830505Y-61577401D01*
X53997599Y-61744495D01*
X54074483Y-61798330D01*
X54191165Y-61880032D01*
X54191167Y-61880033D01*
X54191170Y-61880035D01*
X54405337Y-61979903D01*
X54405343Y-61979904D01*
X54405344Y-61979905D01*
X54433973Y-61987576D01*
X54633592Y-62041063D01*
X54821918Y-62057539D01*
X54868999Y-62061659D01*
X54869000Y-62061659D01*
X54869001Y-62061659D01*
X54908234Y-62058226D01*
X55104408Y-62041063D01*
X55332663Y-61979903D01*
X55546830Y-61880035D01*
X55740401Y-61744495D01*
X55862329Y-61622566D01*
X55923648Y-61589084D01*
X55993340Y-61594068D01*
X56049274Y-61635939D01*
X56066189Y-61666917D01*
X56115202Y-61798328D01*
X56115204Y-61798331D01*
X56193968Y-61903547D01*
X56218386Y-61969009D01*
X56203535Y-62037283D01*
X56182384Y-62065537D01*
X56139184Y-62108737D01*
X56043211Y-62261476D01*
X55983631Y-62431745D01*
X55983630Y-62431750D01*
X55963435Y-62610996D01*
X55963435Y-62611003D01*
X55983630Y-62790249D01*
X55983631Y-62790254D01*
X56043211Y-62960523D01*
X56139184Y-63113262D01*
X56182383Y-63156461D01*
X56215868Y-63217784D01*
X56210884Y-63287476D01*
X56193969Y-63318453D01*
X56115203Y-63423669D01*
X56066189Y-63555083D01*
X56024317Y-63611016D01*
X55958853Y-63635433D01*
X55890580Y-63620581D01*
X55862326Y-63599430D01*
X55740402Y-63477506D01*
X55740395Y-63477501D01*
X55720812Y-63463789D01*
X55679652Y-63434968D01*
X55546834Y-63341967D01*
X55546830Y-63341965D01*
X55496408Y-63318453D01*
X55332663Y-63242097D01*
X55332659Y-63242096D01*
X55332655Y-63242094D01*
X55104413Y-63180938D01*
X55104403Y-63180936D01*
X54869001Y-63160341D01*
X54868999Y-63160341D01*
X54633596Y-63180936D01*
X54633586Y-63180938D01*
X54405344Y-63242094D01*
X54405335Y-63242098D01*
X54191171Y-63341964D01*
X54191169Y-63341965D01*
X53997597Y-63477505D01*
X53830505Y-63644597D01*
X53694965Y-63838169D01*
X53694964Y-63838171D01*
X53595098Y-64052335D01*
X53595094Y-64052344D01*
X53533938Y-64280586D01*
X53533936Y-64280596D01*
X53513341Y-64515999D01*
X53513341Y-64516000D01*
X53533936Y-64751403D01*
X53533938Y-64751413D01*
X53595094Y-64979655D01*
X53595096Y-64979659D01*
X53595097Y-64979663D01*
X53679499Y-65160663D01*
X53694965Y-65193830D01*
X53694967Y-65193834D01*
X53756419Y-65281596D01*
X53830505Y-65387401D01*
X53997599Y-65554495D01*
X54094384Y-65622265D01*
X54191165Y-65690032D01*
X54191167Y-65690033D01*
X54191170Y-65690035D01*
X54405337Y-65789903D01*
X54633592Y-65851063D01*
X54810034Y-65866500D01*
X54868999Y-65871659D01*
X54869000Y-65871659D01*
X54869001Y-65871659D01*
X54927966Y-65866500D01*
X55104408Y-65851063D01*
X55332663Y-65789903D01*
X55546830Y-65690035D01*
X55740401Y-65554495D01*
X55862329Y-65432566D01*
X55923648Y-65399084D01*
X55993340Y-65404068D01*
X56049274Y-65445939D01*
X56066189Y-65476917D01*
X56115202Y-65608328D01*
X56115206Y-65608335D01*
X56201452Y-65723544D01*
X56201455Y-65723547D01*
X56316664Y-65809793D01*
X56316671Y-65809797D01*
X56451517Y-65860091D01*
X56451516Y-65860091D01*
X56457600Y-65860745D01*
X56511127Y-65866500D01*
X58306872Y-65866499D01*
X58366483Y-65860091D01*
X58501331Y-65809796D01*
X58616546Y-65723546D01*
X58702796Y-65608331D01*
X58753091Y-65473483D01*
X58759500Y-65413873D01*
X58759499Y-63618128D01*
X58753091Y-63558517D01*
X58751810Y-63555083D01*
X58702797Y-63423671D01*
X58702793Y-63423664D01*
X58611232Y-63301355D01*
X58612643Y-63300298D01*
X58584278Y-63248338D01*
X58589270Y-63178647D01*
X58617763Y-63134314D01*
X58638816Y-63113262D01*
X58734789Y-62960522D01*
X58794368Y-62790255D01*
X58799852Y-62741586D01*
X58814565Y-62611003D01*
X58814565Y-62610996D01*
X58794369Y-62431750D01*
X58794368Y-62431745D01*
X58779228Y-62388478D01*
X58734789Y-62261478D01*
X58718615Y-62235738D01*
X58638815Y-62108737D01*
X58617766Y-62087688D01*
X58584281Y-62026365D01*
X58589265Y-61956673D01*
X58612034Y-61921247D01*
X58611231Y-61920646D01*
X58641633Y-61880034D01*
X58702796Y-61798331D01*
X58753091Y-61663483D01*
X58759500Y-61603873D01*
X58759499Y-59808128D01*
X58753091Y-59748517D01*
X58751810Y-59745083D01*
X58702797Y-59613671D01*
X58702793Y-59613664D01*
X58616547Y-59498455D01*
X58616544Y-59498452D01*
X58501335Y-59412206D01*
X58501328Y-59412202D01*
X58366482Y-59361908D01*
X58366483Y-59361908D01*
X58306883Y-59355501D01*
X58306881Y-59355500D01*
X58306873Y-59355500D01*
X58306864Y-59355500D01*
X56511129Y-59355500D01*
X56511123Y-59355501D01*
X56451516Y-59361908D01*
X56316671Y-59412202D01*
X56316664Y-59412206D01*
X56201455Y-59498452D01*
X56201452Y-59498455D01*
X56115206Y-59613664D01*
X56115203Y-59613669D01*
X56066189Y-59745083D01*
X56024317Y-59801016D01*
X55958853Y-59825433D01*
X55890580Y-59810581D01*
X55862326Y-59789430D01*
X55740402Y-59667506D01*
X55740395Y-59667501D01*
X55546834Y-59531967D01*
X55546830Y-59531965D01*
X55546828Y-59531964D01*
X55332663Y-59432097D01*
X55332659Y-59432096D01*
X55332655Y-59432094D01*
X55104413Y-59370938D01*
X55104403Y-59370936D01*
X54869001Y-59350341D01*
X54868999Y-59350341D01*
X54633596Y-59370936D01*
X54633586Y-59370938D01*
X54405344Y-59432094D01*
X54405335Y-59432098D01*
X54191171Y-59531964D01*
X54191169Y-59531965D01*
X53997597Y-59667505D01*
X53830505Y-59834597D01*
X53694965Y-60028169D01*
X53694964Y-60028171D01*
X53595098Y-60242335D01*
X53595094Y-60242344D01*
X53533938Y-60470586D01*
X53533936Y-60470596D01*
X53513341Y-60705999D01*
X45085000Y-60705999D01*
X45085000Y-53472998D01*
X49109532Y-53472998D01*
X49109532Y-53473001D01*
X49129364Y-53699686D01*
X49129366Y-53699697D01*
X49188258Y-53919488D01*
X49188261Y-53919497D01*
X49284431Y-54125732D01*
X49284432Y-54125734D01*
X49414954Y-54312141D01*
X49575858Y-54473045D01*
X49575861Y-54473047D01*
X49762266Y-54603568D01*
X49968504Y-54699739D01*
X50188308Y-54758635D01*
X50350230Y-54772801D01*
X50414998Y-54778468D01*
X50415000Y-54778468D01*
X50415002Y-54778468D01*
X50471673Y-54773509D01*
X50641692Y-54758635D01*
X50861496Y-54699739D01*
X51067734Y-54603568D01*
X51254139Y-54473047D01*
X51415047Y-54312139D01*
X51545568Y-54125734D01*
X51641739Y-53919496D01*
X51700635Y-53699692D01*
X51720468Y-53473000D01*
X51700635Y-53246308D01*
X51641739Y-53026504D01*
X51545568Y-52820266D01*
X51543280Y-52816999D01*
X80686341Y-52816999D01*
X80686341Y-52817000D01*
X80706936Y-53052403D01*
X80706938Y-53052413D01*
X80768094Y-53280655D01*
X80768096Y-53280659D01*
X80768097Y-53280663D01*
X80857786Y-53473001D01*
X80867965Y-53494830D01*
X80867967Y-53494834D01*
X81003501Y-53688395D01*
X81003506Y-53688402D01*
X81170597Y-53855493D01*
X81170603Y-53855498D01*
X81356158Y-53985425D01*
X81399783Y-54040002D01*
X81406977Y-54109500D01*
X81375454Y-54171855D01*
X81356158Y-54188575D01*
X81170597Y-54318505D01*
X81003505Y-54485597D01*
X80867965Y-54679169D01*
X80867964Y-54679171D01*
X80768098Y-54893335D01*
X80768094Y-54893344D01*
X80706938Y-55121586D01*
X80706936Y-55121596D01*
X80686341Y-55356999D01*
X80686341Y-55357000D01*
X80706936Y-55592403D01*
X80706938Y-55592413D01*
X80768094Y-55820655D01*
X80768096Y-55820659D01*
X80768097Y-55820663D01*
X80834535Y-55963139D01*
X80867965Y-56034830D01*
X80867967Y-56034834D01*
X81003501Y-56228395D01*
X81003506Y-56228402D01*
X81170597Y-56395493D01*
X81170603Y-56395498D01*
X81356158Y-56525425D01*
X81399783Y-56580002D01*
X81406977Y-56649500D01*
X81375454Y-56711855D01*
X81356158Y-56728575D01*
X81170597Y-56858505D01*
X81003505Y-57025597D01*
X80867965Y-57219169D01*
X80867964Y-57219171D01*
X80768098Y-57433335D01*
X80768094Y-57433344D01*
X80706938Y-57661586D01*
X80706936Y-57661596D01*
X80686341Y-57896999D01*
X80686341Y-57897000D01*
X80706936Y-58132403D01*
X80706938Y-58132413D01*
X80768094Y-58360655D01*
X80768096Y-58360659D01*
X80768097Y-58360663D01*
X80867965Y-58574830D01*
X80867967Y-58574834D01*
X81003501Y-58768395D01*
X81003506Y-58768402D01*
X81170597Y-58935493D01*
X81170603Y-58935498D01*
X81356158Y-59065425D01*
X81399783Y-59120002D01*
X81406977Y-59189500D01*
X81375454Y-59251855D01*
X81356158Y-59268575D01*
X81170597Y-59398505D01*
X81003505Y-59565597D01*
X80867965Y-59759169D01*
X80867964Y-59759171D01*
X80768098Y-59973335D01*
X80768094Y-59973344D01*
X80706938Y-60201586D01*
X80706936Y-60201596D01*
X80686341Y-60436999D01*
X80686341Y-60437000D01*
X80706936Y-60672403D01*
X80706938Y-60672413D01*
X80768094Y-60900655D01*
X80768096Y-60900659D01*
X80768097Y-60900663D01*
X80850631Y-61077658D01*
X80867965Y-61114830D01*
X80867967Y-61114834D01*
X80976281Y-61269521D01*
X81002644Y-61307172D01*
X81003501Y-61308395D01*
X81003506Y-61308402D01*
X81170597Y-61475493D01*
X81170603Y-61475498D01*
X81356158Y-61605425D01*
X81399783Y-61660002D01*
X81406977Y-61729500D01*
X81375454Y-61791855D01*
X81356158Y-61808575D01*
X81170597Y-61938505D01*
X81003505Y-62105597D01*
X80867965Y-62299169D01*
X80867964Y-62299171D01*
X80768098Y-62513335D01*
X80768094Y-62513344D01*
X80706938Y-62741586D01*
X80706936Y-62741596D01*
X80686341Y-62976999D01*
X80686341Y-62977000D01*
X80706936Y-63212403D01*
X80706938Y-63212413D01*
X80768094Y-63440655D01*
X80768096Y-63440659D01*
X80768097Y-63440663D01*
X80847534Y-63611016D01*
X80867965Y-63654830D01*
X80867967Y-63654834D01*
X80976281Y-63809521D01*
X80996340Y-63838169D01*
X81003501Y-63848395D01*
X81003506Y-63848402D01*
X81170597Y-64015493D01*
X81170603Y-64015498D01*
X81356158Y-64145425D01*
X81399783Y-64200002D01*
X81406977Y-64269500D01*
X81375454Y-64331855D01*
X81356158Y-64348575D01*
X81170597Y-64478505D01*
X81003505Y-64645597D01*
X80867965Y-64839169D01*
X80867964Y-64839171D01*
X80768098Y-65053335D01*
X80768094Y-65053344D01*
X80706938Y-65281586D01*
X80706936Y-65281596D01*
X80686341Y-65516999D01*
X80686341Y-65517000D01*
X80706936Y-65752403D01*
X80706938Y-65752413D01*
X80768094Y-65980655D01*
X80768096Y-65980659D01*
X80768097Y-65980663D01*
X80818716Y-66089215D01*
X80867965Y-66194830D01*
X80867967Y-66194834D01*
X80885068Y-66219256D01*
X81003501Y-66388396D01*
X81003506Y-66388402D01*
X81125430Y-66510326D01*
X81158915Y-66571649D01*
X81153931Y-66641341D01*
X81112059Y-66697274D01*
X81081083Y-66714189D01*
X80949669Y-66763203D01*
X80949664Y-66763206D01*
X80834455Y-66849452D01*
X80834452Y-66849455D01*
X80748206Y-66964664D01*
X80748202Y-66964671D01*
X80697908Y-67099517D01*
X80692270Y-67151964D01*
X80691501Y-67159123D01*
X80691500Y-67159135D01*
X80691500Y-68954870D01*
X80691501Y-68954876D01*
X80697908Y-69014483D01*
X80748202Y-69149328D01*
X80748206Y-69149335D01*
X80834452Y-69264544D01*
X80834455Y-69264547D01*
X80949664Y-69350793D01*
X80949671Y-69350797D01*
X81084517Y-69401091D01*
X81084516Y-69401091D01*
X81091444Y-69401835D01*
X81144127Y-69407500D01*
X82939872Y-69407499D01*
X82999483Y-69401091D01*
X83134331Y-69350796D01*
X83249546Y-69264546D01*
X83335796Y-69149331D01*
X83386091Y-69014483D01*
X83392500Y-68954873D01*
X83392500Y-68579998D01*
X84038532Y-68579998D01*
X84038532Y-68580001D01*
X84058364Y-68806686D01*
X84058366Y-68806697D01*
X84117258Y-69026488D01*
X84117261Y-69026497D01*
X84213431Y-69232732D01*
X84213432Y-69232734D01*
X84343954Y-69419141D01*
X84504858Y-69580045D01*
X84504861Y-69580047D01*
X84691266Y-69710568D01*
X84897504Y-69806739D01*
X85117308Y-69865635D01*
X85279230Y-69879801D01*
X85343998Y-69885468D01*
X85344000Y-69885468D01*
X85344002Y-69885468D01*
X85400673Y-69880509D01*
X85570692Y-69865635D01*
X85790496Y-69806739D01*
X85996734Y-69710568D01*
X86183139Y-69580047D01*
X86344047Y-69419139D01*
X86474568Y-69232734D01*
X86570739Y-69026496D01*
X86629635Y-68806692D01*
X86649468Y-68580000D01*
X86647841Y-68561408D01*
X86633152Y-68393511D01*
X86629773Y-68354886D01*
X91658532Y-68354886D01*
X91658532Y-68354889D01*
X91678364Y-68581574D01*
X91678366Y-68581585D01*
X91737258Y-68801376D01*
X91737261Y-68801385D01*
X91833431Y-69007620D01*
X91833432Y-69007622D01*
X91963954Y-69194029D01*
X92124858Y-69354933D01*
X92171693Y-69387727D01*
X92311266Y-69485456D01*
X92517504Y-69581627D01*
X92737308Y-69640523D01*
X92899230Y-69654689D01*
X92963998Y-69660356D01*
X92964000Y-69660356D01*
X92964002Y-69660356D01*
X93020673Y-69655397D01*
X93190692Y-69640523D01*
X93410496Y-69581627D01*
X93616734Y-69485456D01*
X93803139Y-69354935D01*
X93964047Y-69194027D01*
X94094568Y-69007622D01*
X94190739Y-68801384D01*
X94249635Y-68581580D01*
X94269468Y-68354888D01*
X94249635Y-68128196D01*
X94190739Y-67908392D01*
X94094568Y-67702154D01*
X93964047Y-67515749D01*
X93964045Y-67515746D01*
X93803141Y-67354842D01*
X93616734Y-67224320D01*
X93616732Y-67224319D01*
X93410497Y-67128149D01*
X93410488Y-67128146D01*
X93190697Y-67069254D01*
X93190693Y-67069253D01*
X93190692Y-67069253D01*
X93190691Y-67069252D01*
X93190686Y-67069252D01*
X92964002Y-67049420D01*
X92963998Y-67049420D01*
X92737313Y-67069252D01*
X92737302Y-67069254D01*
X92517511Y-67128146D01*
X92517502Y-67128149D01*
X92311267Y-67224319D01*
X92311265Y-67224320D01*
X92124858Y-67354842D01*
X91963954Y-67515746D01*
X91833432Y-67702153D01*
X91833431Y-67702155D01*
X91737261Y-67908390D01*
X91737258Y-67908399D01*
X91678366Y-68128190D01*
X91678364Y-68128201D01*
X91658532Y-68354886D01*
X86629773Y-68354886D01*
X86629635Y-68353308D01*
X86570739Y-68133504D01*
X86474568Y-67927266D01*
X86344047Y-67740861D01*
X86344045Y-67740858D01*
X86183141Y-67579954D01*
X85996734Y-67449432D01*
X85996732Y-67449431D01*
X85790497Y-67353261D01*
X85790488Y-67353258D01*
X85570697Y-67294366D01*
X85570693Y-67294365D01*
X85570692Y-67294365D01*
X85570691Y-67294364D01*
X85570686Y-67294364D01*
X85344002Y-67274532D01*
X85343998Y-67274532D01*
X85117313Y-67294364D01*
X85117302Y-67294366D01*
X84897511Y-67353258D01*
X84897502Y-67353261D01*
X84691267Y-67449431D01*
X84691265Y-67449432D01*
X84504858Y-67579954D01*
X84343954Y-67740858D01*
X84213432Y-67927265D01*
X84213431Y-67927267D01*
X84117261Y-68133502D01*
X84117258Y-68133511D01*
X84058366Y-68353302D01*
X84058364Y-68353313D01*
X84038532Y-68579998D01*
X83392500Y-68579998D01*
X83392499Y-67159128D01*
X83386091Y-67099517D01*
X83377638Y-67076854D01*
X83335797Y-66964671D01*
X83335793Y-66964664D01*
X83249547Y-66849455D01*
X83249544Y-66849452D01*
X83134335Y-66763206D01*
X83134328Y-66763202D01*
X83002917Y-66714189D01*
X82946983Y-66672318D01*
X82922566Y-66606853D01*
X82937418Y-66538580D01*
X82958563Y-66510332D01*
X83080495Y-66388401D01*
X83216035Y-66194830D01*
X83288235Y-66039996D01*
X84526435Y-66039996D01*
X84526435Y-66040003D01*
X84546630Y-66219249D01*
X84546631Y-66219254D01*
X84606211Y-66389523D01*
X84677418Y-66502847D01*
X84702184Y-66542262D01*
X84829738Y-66669816D01*
X84863508Y-66691035D01*
X84978360Y-66763202D01*
X84982478Y-66765789D01*
X85152745Y-66825368D01*
X85152750Y-66825369D01*
X85331996Y-66845565D01*
X85332000Y-66845565D01*
X85332004Y-66845565D01*
X85511249Y-66825369D01*
X85511252Y-66825368D01*
X85511255Y-66825368D01*
X85681522Y-66765789D01*
X85834262Y-66669816D01*
X85961816Y-66542262D01*
X86057789Y-66389522D01*
X86117368Y-66219255D01*
X86127161Y-66132329D01*
X86154226Y-66067919D01*
X86162685Y-66058548D01*
X86179420Y-66041814D01*
X86240743Y-66008333D01*
X86267097Y-66005500D01*
X88013588Y-66005500D01*
X88080627Y-66025185D01*
X88090903Y-66032555D01*
X88093736Y-66034814D01*
X88093738Y-66034816D01*
X88246478Y-66130789D01*
X88416745Y-66190368D01*
X88416750Y-66190369D01*
X88595996Y-66210565D01*
X88596000Y-66210565D01*
X88596004Y-66210565D01*
X88775249Y-66190369D01*
X88775252Y-66190368D01*
X88775255Y-66190368D01*
X88945522Y-66130789D01*
X89098262Y-66034816D01*
X89225816Y-65907262D01*
X89261726Y-65850111D01*
X124285532Y-65850111D01*
X124285532Y-65850114D01*
X124305364Y-66076799D01*
X124305366Y-66076810D01*
X124364258Y-66296601D01*
X124364261Y-66296610D01*
X124460431Y-66502845D01*
X124460432Y-66502847D01*
X124590954Y-66689254D01*
X124751858Y-66850158D01*
X124751861Y-66850160D01*
X124938266Y-66980681D01*
X125144504Y-67076852D01*
X125364308Y-67135748D01*
X125526230Y-67149914D01*
X125590998Y-67155581D01*
X125591000Y-67155581D01*
X125591002Y-67155581D01*
X125647673Y-67150622D01*
X125817692Y-67135748D01*
X126037496Y-67076852D01*
X126243734Y-66980681D01*
X126430139Y-66850160D01*
X126591047Y-66689252D01*
X126721568Y-66502847D01*
X126817739Y-66296609D01*
X126876635Y-66076805D01*
X126895034Y-65866499D01*
X126896468Y-65850114D01*
X126896468Y-65850111D01*
X126885395Y-65723546D01*
X126876635Y-65623421D01*
X126817739Y-65403617D01*
X126721568Y-65197379D01*
X126591047Y-65010974D01*
X126591045Y-65010971D01*
X126430141Y-64850067D01*
X126243734Y-64719545D01*
X126243732Y-64719544D01*
X126037497Y-64623374D01*
X126037488Y-64623371D01*
X125817697Y-64564479D01*
X125817693Y-64564478D01*
X125817692Y-64564478D01*
X125817691Y-64564477D01*
X125817686Y-64564477D01*
X125591002Y-64544645D01*
X125590998Y-64544645D01*
X125364313Y-64564477D01*
X125364302Y-64564479D01*
X125144511Y-64623371D01*
X125144502Y-64623374D01*
X124938267Y-64719544D01*
X124938265Y-64719545D01*
X124751858Y-64850067D01*
X124590954Y-65010971D01*
X124460432Y-65197378D01*
X124460431Y-65197380D01*
X124364261Y-65403615D01*
X124364258Y-65403624D01*
X124305366Y-65623415D01*
X124305364Y-65623426D01*
X124285532Y-65850111D01*
X89261726Y-65850111D01*
X89321789Y-65754522D01*
X89381368Y-65584255D01*
X89384721Y-65554495D01*
X89401565Y-65405003D01*
X89401565Y-65404996D01*
X89381369Y-65225750D01*
X89381368Y-65225745D01*
X89321788Y-65055476D01*
X89267135Y-64968497D01*
X89225816Y-64902738D01*
X89098262Y-64775184D01*
X89056108Y-64748697D01*
X88945523Y-64679211D01*
X88775254Y-64619631D01*
X88775249Y-64619630D01*
X88596004Y-64599435D01*
X88595996Y-64599435D01*
X88416750Y-64619630D01*
X88416745Y-64619631D01*
X88246476Y-64679211D01*
X88093736Y-64775185D01*
X88090903Y-64777445D01*
X88088724Y-64778334D01*
X88087842Y-64778889D01*
X88087744Y-64778734D01*
X88026217Y-64803855D01*
X88013588Y-64804500D01*
X86053670Y-64804500D01*
X86053654Y-64804499D01*
X86046058Y-64804499D01*
X85887943Y-64804499D01*
X85811579Y-64824961D01*
X85735214Y-64845423D01*
X85735209Y-64845426D01*
X85598290Y-64924475D01*
X85598282Y-64924481D01*
X85313465Y-65209298D01*
X85252142Y-65242783D01*
X85239668Y-65244837D01*
X85152750Y-65254630D01*
X84982478Y-65314210D01*
X84829737Y-65410184D01*
X84702184Y-65537737D01*
X84606211Y-65690476D01*
X84546631Y-65860745D01*
X84546630Y-65860750D01*
X84526435Y-66039996D01*
X83288235Y-66039996D01*
X83315903Y-65980663D01*
X83377063Y-65752408D01*
X83397659Y-65517000D01*
X83377063Y-65281592D01*
X83315903Y-65053337D01*
X83216035Y-64839171D01*
X83191759Y-64804500D01*
X83080494Y-64645597D01*
X82956894Y-64521998D01*
X128984532Y-64521998D01*
X128984532Y-64522001D01*
X129004364Y-64748686D01*
X129004366Y-64748697D01*
X129063258Y-64968488D01*
X129063261Y-64968497D01*
X129159431Y-65174732D01*
X129159432Y-65174734D01*
X129289954Y-65361141D01*
X129450858Y-65522045D01*
X129450861Y-65522047D01*
X129637266Y-65652568D01*
X129843504Y-65748739D01*
X129843509Y-65748740D01*
X129843511Y-65748741D01*
X129865090Y-65754523D01*
X130063308Y-65807635D01*
X130225230Y-65821801D01*
X130289998Y-65827468D01*
X130290000Y-65827468D01*
X130290002Y-65827468D01*
X130346673Y-65822509D01*
X130516692Y-65807635D01*
X130736496Y-65748739D01*
X130942734Y-65652568D01*
X131129139Y-65522047D01*
X131290047Y-65361139D01*
X131420568Y-65174734D01*
X131516739Y-64968496D01*
X131575635Y-64748692D01*
X131595468Y-64522000D01*
X131575635Y-64295308D01*
X131516739Y-64075504D01*
X131420568Y-63869266D01*
X131290047Y-63682861D01*
X131290045Y-63682858D01*
X131129141Y-63521954D01*
X130942734Y-63391432D01*
X130942732Y-63391431D01*
X130736497Y-63295261D01*
X130736488Y-63295258D01*
X130516697Y-63236366D01*
X130516693Y-63236365D01*
X130516692Y-63236365D01*
X130516691Y-63236364D01*
X130516686Y-63236364D01*
X130290002Y-63216532D01*
X130289998Y-63216532D01*
X130063313Y-63236364D01*
X130063302Y-63236366D01*
X129843511Y-63295258D01*
X129843502Y-63295261D01*
X129637267Y-63391431D01*
X129637265Y-63391432D01*
X129450858Y-63521954D01*
X129289954Y-63682858D01*
X129159432Y-63869265D01*
X129159431Y-63869267D01*
X129063261Y-64075502D01*
X129063258Y-64075511D01*
X129004366Y-64295302D01*
X129004364Y-64295313D01*
X128984532Y-64521998D01*
X82956894Y-64521998D01*
X82913402Y-64478506D01*
X82913396Y-64478501D01*
X82727842Y-64348575D01*
X82684217Y-64293998D01*
X82677023Y-64224500D01*
X82708546Y-64162145D01*
X82727842Y-64145425D01*
X82842946Y-64064828D01*
X82913401Y-64015495D01*
X83080495Y-63848401D01*
X83216035Y-63654830D01*
X83315903Y-63440663D01*
X83377063Y-63212408D01*
X83397659Y-62977000D01*
X83377063Y-62741592D01*
X83362166Y-62685994D01*
X86922357Y-62685994D01*
X86922357Y-62686005D01*
X86942890Y-62933812D01*
X86942892Y-62933824D01*
X87003936Y-63174881D01*
X87103826Y-63402606D01*
X87239833Y-63610782D01*
X87248854Y-63620581D01*
X87408256Y-63793738D01*
X87604491Y-63946474D01*
X87604493Y-63946475D01*
X87800121Y-64052344D01*
X87823190Y-64064828D01*
X88058386Y-64145571D01*
X88303665Y-64186500D01*
X88552335Y-64186500D01*
X88797614Y-64145571D01*
X89032810Y-64064828D01*
X89251509Y-63946474D01*
X89447744Y-63793738D01*
X89616164Y-63610785D01*
X89703240Y-63477505D01*
X89742858Y-63416865D01*
X89796004Y-63371508D01*
X89865236Y-63362084D01*
X89912637Y-63379691D01*
X90046478Y-63463789D01*
X90212701Y-63521953D01*
X90216745Y-63523368D01*
X90216750Y-63523369D01*
X90395996Y-63543565D01*
X90396000Y-63543565D01*
X90396004Y-63543565D01*
X90575249Y-63523369D01*
X90575252Y-63523368D01*
X90575255Y-63523368D01*
X90745522Y-63463789D01*
X90898262Y-63367816D01*
X91025816Y-63240262D01*
X91121789Y-63087522D01*
X91181368Y-62917255D01*
X91192289Y-62820328D01*
X91201565Y-62738003D01*
X91201565Y-62737996D01*
X91181369Y-62558750D01*
X91181368Y-62558745D01*
X91121789Y-62388478D01*
X91068958Y-62304398D01*
X115026532Y-62304398D01*
X115026532Y-62304401D01*
X115046364Y-62531086D01*
X115046366Y-62531097D01*
X115105258Y-62750888D01*
X115105261Y-62750897D01*
X115201431Y-62957132D01*
X115201432Y-62957134D01*
X115331954Y-63143541D01*
X115492858Y-63304445D01*
X115492861Y-63304447D01*
X115679266Y-63434968D01*
X115885504Y-63531139D01*
X116105308Y-63590035D01*
X116267230Y-63604201D01*
X116331998Y-63609868D01*
X116332000Y-63609868D01*
X116332002Y-63609868D01*
X116388673Y-63604909D01*
X116558692Y-63590035D01*
X116778496Y-63531139D01*
X116984734Y-63434968D01*
X117171139Y-63304447D01*
X117332047Y-63143539D01*
X117462568Y-62957134D01*
X117558739Y-62750896D01*
X117617635Y-62531092D01*
X117637468Y-62304400D01*
X117637010Y-62299169D01*
X117622866Y-62137500D01*
X117617635Y-62077708D01*
X117558739Y-61857904D01*
X117462568Y-61651666D01*
X117339213Y-61475495D01*
X117332045Y-61465258D01*
X117171141Y-61304354D01*
X116984734Y-61173832D01*
X116984732Y-61173831D01*
X116778497Y-61077661D01*
X116778488Y-61077658D01*
X116558697Y-61018766D01*
X116558693Y-61018765D01*
X116558692Y-61018765D01*
X116558691Y-61018764D01*
X116558686Y-61018764D01*
X116332002Y-60998932D01*
X116331998Y-60998932D01*
X116105313Y-61018764D01*
X116105302Y-61018766D01*
X115885511Y-61077658D01*
X115885502Y-61077661D01*
X115679267Y-61173831D01*
X115679265Y-61173832D01*
X115492858Y-61304354D01*
X115331954Y-61465258D01*
X115201432Y-61651665D01*
X115201431Y-61651667D01*
X115105261Y-61857902D01*
X115105258Y-61857911D01*
X115046366Y-62077702D01*
X115046364Y-62077713D01*
X115026532Y-62304398D01*
X91068958Y-62304398D01*
X91025816Y-62235738D01*
X90898262Y-62108184D01*
X90849760Y-62077708D01*
X90745523Y-62012211D01*
X90575254Y-61952631D01*
X90575249Y-61952630D01*
X90396004Y-61932435D01*
X90395996Y-61932435D01*
X90216750Y-61952630D01*
X90216745Y-61952631D01*
X90046476Y-62012211D01*
X89952248Y-62071419D01*
X89885011Y-62090419D01*
X89818176Y-62070051D01*
X89772962Y-62016783D01*
X89772720Y-62016235D01*
X89752173Y-61969393D01*
X89616166Y-61761217D01*
X89586968Y-61729500D01*
X89447744Y-61578262D01*
X89251509Y-61425526D01*
X89251507Y-61425525D01*
X89251506Y-61425524D01*
X89032811Y-61307172D01*
X89032802Y-61307169D01*
X88797616Y-61226429D01*
X88552335Y-61185500D01*
X88303665Y-61185500D01*
X88058383Y-61226429D01*
X87823197Y-61307169D01*
X87823188Y-61307172D01*
X87604493Y-61425524D01*
X87408257Y-61578261D01*
X87239833Y-61761217D01*
X87103826Y-61969393D01*
X87003936Y-62197118D01*
X86942892Y-62438175D01*
X86942890Y-62438187D01*
X86922357Y-62685994D01*
X83362166Y-62685994D01*
X83315903Y-62513337D01*
X83216035Y-62299171D01*
X83189643Y-62261478D01*
X83080494Y-62105597D01*
X82913402Y-61938506D01*
X82913396Y-61938501D01*
X82727842Y-61808575D01*
X82684217Y-61753998D01*
X82677023Y-61684500D01*
X82708546Y-61622145D01*
X82727842Y-61605425D01*
X82778958Y-61569633D01*
X82913401Y-61475495D01*
X83080495Y-61308401D01*
X83216035Y-61114830D01*
X83315903Y-60900663D01*
X83377063Y-60672408D01*
X83397659Y-60437000D01*
X83384273Y-60283998D01*
X119794532Y-60283998D01*
X119794532Y-60284001D01*
X119814364Y-60510686D01*
X119814366Y-60510697D01*
X119873258Y-60730488D01*
X119873261Y-60730497D01*
X119969431Y-60936732D01*
X119969432Y-60936734D01*
X120099954Y-61123141D01*
X120260858Y-61284045D01*
X120260861Y-61284047D01*
X120447266Y-61414568D01*
X120653504Y-61510739D01*
X120873308Y-61569635D01*
X121035230Y-61583801D01*
X121099998Y-61589468D01*
X121100000Y-61589468D01*
X121100002Y-61589468D01*
X121156673Y-61584509D01*
X121326692Y-61569635D01*
X121546496Y-61510739D01*
X121752734Y-61414568D01*
X121939139Y-61284047D01*
X122100047Y-61123139D01*
X122230568Y-60936734D01*
X122326739Y-60730496D01*
X122385635Y-60510692D01*
X122405468Y-60284000D01*
X122385635Y-60057308D01*
X122334329Y-59865830D01*
X122326741Y-59837511D01*
X122326738Y-59837502D01*
X122321110Y-59825433D01*
X122230568Y-59631266D01*
X122100047Y-59444861D01*
X122100045Y-59444858D01*
X121939141Y-59283954D01*
X121802100Y-59187998D01*
X139652532Y-59187998D01*
X139652532Y-59188001D01*
X139672364Y-59414686D01*
X139672366Y-59414697D01*
X139731258Y-59634488D01*
X139731261Y-59634497D01*
X139827431Y-59840732D01*
X139827432Y-59840734D01*
X139957954Y-60027141D01*
X140118858Y-60188045D01*
X140118861Y-60188047D01*
X140305266Y-60318568D01*
X140511504Y-60414739D01*
X140731308Y-60473635D01*
X140893230Y-60487801D01*
X140957998Y-60493468D01*
X140958000Y-60493468D01*
X140958002Y-60493468D01*
X141014673Y-60488509D01*
X141184692Y-60473635D01*
X141404496Y-60414739D01*
X141610734Y-60318568D01*
X141797139Y-60188047D01*
X141958047Y-60027139D01*
X142088568Y-59840734D01*
X142184739Y-59634496D01*
X142243635Y-59414692D01*
X142263468Y-59188000D01*
X142243635Y-58961308D01*
X142184739Y-58741504D01*
X142088568Y-58535266D01*
X141990839Y-58395693D01*
X141958045Y-58348858D01*
X141797141Y-58187954D01*
X141610734Y-58057432D01*
X141610732Y-58057431D01*
X141404497Y-57961261D01*
X141404488Y-57961258D01*
X141184697Y-57902366D01*
X141184693Y-57902365D01*
X141184692Y-57902365D01*
X141184691Y-57902364D01*
X141184686Y-57902364D01*
X140958002Y-57882532D01*
X140957998Y-57882532D01*
X140731313Y-57902364D01*
X140731302Y-57902366D01*
X140511511Y-57961258D01*
X140511502Y-57961261D01*
X140305267Y-58057431D01*
X140305265Y-58057432D01*
X140118858Y-58187954D01*
X139957954Y-58348858D01*
X139827432Y-58535265D01*
X139827431Y-58535267D01*
X139731261Y-58741502D01*
X139731258Y-58741511D01*
X139672366Y-58961302D01*
X139672364Y-58961313D01*
X139652532Y-59187998D01*
X121802100Y-59187998D01*
X121752734Y-59153432D01*
X121752732Y-59153431D01*
X121546497Y-59057261D01*
X121546488Y-59057258D01*
X121326697Y-58998366D01*
X121326693Y-58998365D01*
X121326692Y-58998365D01*
X121326691Y-58998364D01*
X121326686Y-58998364D01*
X121100002Y-58978532D01*
X121099998Y-58978532D01*
X120873313Y-58998364D01*
X120873302Y-58998366D01*
X120653511Y-59057258D01*
X120653502Y-59057261D01*
X120447267Y-59153431D01*
X120447265Y-59153432D01*
X120260858Y-59283954D01*
X120099954Y-59444858D01*
X119969432Y-59631265D01*
X119969431Y-59631267D01*
X119873261Y-59837502D01*
X119873258Y-59837511D01*
X119814366Y-60057302D01*
X119814364Y-60057313D01*
X119794532Y-60283998D01*
X83384273Y-60283998D01*
X83377063Y-60201592D01*
X83315903Y-59973337D01*
X83216035Y-59759171D01*
X83208575Y-59748516D01*
X83080494Y-59565597D01*
X82913402Y-59398506D01*
X82913396Y-59398501D01*
X82727842Y-59268575D01*
X82684217Y-59213998D01*
X82677023Y-59144500D01*
X82708546Y-59082145D01*
X82727843Y-59065424D01*
X82759977Y-59042924D01*
X82826183Y-59020597D01*
X82831099Y-59020500D01*
X84112308Y-59020500D01*
X84179347Y-59040185D01*
X84213880Y-59073374D01*
X84263683Y-59144500D01*
X84343954Y-59259141D01*
X84504858Y-59420045D01*
X84504861Y-59420047D01*
X84691266Y-59550568D01*
X84897504Y-59646739D01*
X84897509Y-59646740D01*
X84897511Y-59646741D01*
X84915884Y-59651664D01*
X85117308Y-59705635D01*
X85279230Y-59719801D01*
X85343998Y-59725468D01*
X85344000Y-59725468D01*
X85344002Y-59725468D01*
X85400673Y-59720509D01*
X85570692Y-59705635D01*
X85790496Y-59646739D01*
X85996734Y-59550568D01*
X86183139Y-59420047D01*
X86344047Y-59259139D01*
X86474568Y-59072734D01*
X86570739Y-58866496D01*
X86629635Y-58646692D01*
X86649468Y-58420000D01*
X86629635Y-58193308D01*
X86570739Y-57973504D01*
X86474568Y-57767266D01*
X86344047Y-57580861D01*
X86344045Y-57580858D01*
X86183141Y-57419954D01*
X86124045Y-57378575D01*
X86080420Y-57323999D01*
X86073226Y-57254500D01*
X86104749Y-57192145D01*
X86124045Y-57175425D01*
X86145257Y-57160572D01*
X86183139Y-57134047D01*
X86344047Y-56973139D01*
X86474568Y-56786734D01*
X86570739Y-56580496D01*
X86629635Y-56360692D01*
X86646634Y-56166384D01*
X86649468Y-56134001D01*
X86649468Y-56133998D01*
X86635135Y-55970171D01*
X86629635Y-55907308D01*
X86570739Y-55687504D01*
X86474568Y-55481266D01*
X86344047Y-55294861D01*
X86344045Y-55294858D01*
X86183141Y-55133954D01*
X85996734Y-55003432D01*
X85996732Y-55003431D01*
X85790497Y-54907261D01*
X85790488Y-54907258D01*
X85570697Y-54848366D01*
X85570693Y-54848365D01*
X85570692Y-54848365D01*
X85570691Y-54848364D01*
X85570686Y-54848364D01*
X85344002Y-54828532D01*
X85343998Y-54828532D01*
X85117313Y-54848364D01*
X85117302Y-54848366D01*
X84897511Y-54907258D01*
X84897502Y-54907261D01*
X84691267Y-55003431D01*
X84691265Y-55003432D01*
X84504858Y-55133954D01*
X84343954Y-55294858D01*
X84213432Y-55481265D01*
X84213431Y-55481267D01*
X84117261Y-55687502D01*
X84117258Y-55687511D01*
X84058366Y-55907302D01*
X84058364Y-55907313D01*
X84038532Y-56133998D01*
X84038532Y-56134001D01*
X84058364Y-56360686D01*
X84058366Y-56360697D01*
X84117258Y-56580488D01*
X84117261Y-56580497D01*
X84213431Y-56786732D01*
X84213432Y-56786734D01*
X84343954Y-56973141D01*
X84504858Y-57134045D01*
X84563955Y-57175425D01*
X84607580Y-57230001D01*
X84614774Y-57299500D01*
X84583251Y-57361855D01*
X84563955Y-57378575D01*
X84504858Y-57419954D01*
X84343954Y-57580858D01*
X84298643Y-57645571D01*
X84213881Y-57766624D01*
X84159307Y-57810248D01*
X84112308Y-57819500D01*
X83504503Y-57819500D01*
X83437464Y-57799815D01*
X83391709Y-57747011D01*
X83380975Y-57706308D01*
X83377063Y-57661592D01*
X83338964Y-57519402D01*
X83315905Y-57433344D01*
X83315904Y-57433343D01*
X83315903Y-57433337D01*
X83216035Y-57219171D01*
X83197112Y-57192145D01*
X83080494Y-57025597D01*
X82913402Y-56858506D01*
X82913396Y-56858501D01*
X82727842Y-56728575D01*
X82684217Y-56673998D01*
X82677023Y-56604500D01*
X82708546Y-56542145D01*
X82727842Y-56525425D01*
X82750026Y-56509891D01*
X82913401Y-56395495D01*
X83080495Y-56228401D01*
X83216035Y-56034830D01*
X83315903Y-55820663D01*
X83377063Y-55592408D01*
X83397659Y-55357000D01*
X83377063Y-55121592D01*
X83316967Y-54897308D01*
X83315905Y-54893344D01*
X83315904Y-54893343D01*
X83315903Y-54893337D01*
X83216035Y-54679171D01*
X83214867Y-54677502D01*
X83080494Y-54485597D01*
X82913402Y-54318506D01*
X82913396Y-54318501D01*
X82727842Y-54188575D01*
X82684217Y-54133998D01*
X82677023Y-54064500D01*
X82708546Y-54002145D01*
X82727842Y-53985425D01*
X82765892Y-53958782D01*
X82913401Y-53855495D01*
X83080495Y-53688401D01*
X83216035Y-53494830D01*
X83315903Y-53280663D01*
X83377063Y-53052408D01*
X83378674Y-53033994D01*
X86922357Y-53033994D01*
X86922357Y-53034005D01*
X86942890Y-53281812D01*
X86942892Y-53281824D01*
X87003936Y-53522881D01*
X87103826Y-53750606D01*
X87239833Y-53958782D01*
X87239836Y-53958785D01*
X87408256Y-54141738D01*
X87604491Y-54294474D01*
X87823190Y-54412828D01*
X87903885Y-54440530D01*
X88055902Y-54492719D01*
X88112917Y-54533105D01*
X88139048Y-54597904D01*
X88125996Y-54666544D01*
X88077908Y-54717232D01*
X88055902Y-54727281D01*
X87823197Y-54807169D01*
X87823188Y-54807172D01*
X87604493Y-54925524D01*
X87408257Y-55078261D01*
X87239833Y-55261217D01*
X87103826Y-55469393D01*
X87003936Y-55697118D01*
X86942892Y-55938175D01*
X86942890Y-55938187D01*
X86922357Y-56185994D01*
X86922357Y-56186005D01*
X86942890Y-56433812D01*
X86942892Y-56433824D01*
X87003936Y-56674881D01*
X87103826Y-56902606D01*
X87239833Y-57110782D01*
X87239836Y-57110785D01*
X87408256Y-57293738D01*
X87604491Y-57446474D01*
X87823190Y-57564828D01*
X88058386Y-57645571D01*
X88303665Y-57686500D01*
X88552335Y-57686500D01*
X88797614Y-57645571D01*
X89032810Y-57564828D01*
X89251509Y-57446474D01*
X89447744Y-57293738D01*
X89616164Y-57110785D01*
X89752173Y-56902607D01*
X89852063Y-56674881D01*
X89913108Y-56433821D01*
X89915112Y-56409635D01*
X89933643Y-56186005D01*
X89933643Y-56185994D01*
X89926020Y-56093998D01*
X115026532Y-56093998D01*
X115026532Y-56094001D01*
X115046364Y-56320686D01*
X115046366Y-56320697D01*
X115105258Y-56540488D01*
X115105261Y-56540497D01*
X115201431Y-56746732D01*
X115201432Y-56746734D01*
X115331954Y-56933141D01*
X115492858Y-57094045D01*
X115518008Y-57111655D01*
X115679266Y-57224568D01*
X115885504Y-57320739D01*
X115885509Y-57320740D01*
X115885511Y-57320741D01*
X115904504Y-57325830D01*
X116105308Y-57379635D01*
X116267230Y-57393801D01*
X116331998Y-57399468D01*
X116332000Y-57399468D01*
X116332002Y-57399468D01*
X116388673Y-57394509D01*
X116558692Y-57379635D01*
X116778496Y-57320739D01*
X116984734Y-57224568D01*
X117171139Y-57094047D01*
X117196830Y-57068356D01*
X125762181Y-57068356D01*
X125762181Y-57068363D01*
X125782376Y-57247609D01*
X125782377Y-57247614D01*
X125841957Y-57417883D01*
X125905746Y-57519402D01*
X125937930Y-57570622D01*
X126065484Y-57698176D01*
X126078426Y-57706308D01*
X126175441Y-57767267D01*
X126218224Y-57794149D01*
X126290673Y-57819500D01*
X126388491Y-57853728D01*
X126388496Y-57853729D01*
X126567742Y-57873925D01*
X126567746Y-57873925D01*
X126567750Y-57873925D01*
X126746995Y-57853729D01*
X126746998Y-57853728D01*
X126747001Y-57853728D01*
X126917268Y-57794149D01*
X127070008Y-57698176D01*
X127197562Y-57570622D01*
X127293535Y-57417882D01*
X127353114Y-57247615D01*
X127362921Y-57160571D01*
X127389987Y-57096158D01*
X127398450Y-57086783D01*
X127837235Y-56647999D01*
X142904341Y-56647999D01*
X142904341Y-56648000D01*
X142924936Y-56883403D01*
X142924938Y-56883413D01*
X142986094Y-57111655D01*
X142986096Y-57111659D01*
X142986097Y-57111663D01*
X143036228Y-57219169D01*
X143085965Y-57325830D01*
X143085967Y-57325834D01*
X143221501Y-57519395D01*
X143221506Y-57519402D01*
X143388597Y-57686493D01*
X143388603Y-57686498D01*
X143574158Y-57816425D01*
X143617783Y-57871002D01*
X143624977Y-57940500D01*
X143593454Y-58002855D01*
X143574158Y-58019575D01*
X143388597Y-58149505D01*
X143221505Y-58316597D01*
X143085965Y-58510169D01*
X143085964Y-58510171D01*
X142986098Y-58724335D01*
X142986094Y-58724344D01*
X142924938Y-58952586D01*
X142924936Y-58952596D01*
X142904341Y-59187999D01*
X142904341Y-59188000D01*
X142924936Y-59423403D01*
X142924938Y-59423413D01*
X142986094Y-59651655D01*
X142986096Y-59651659D01*
X142986097Y-59651663D01*
X143031261Y-59748517D01*
X143085965Y-59865830D01*
X143085967Y-59865834D01*
X143161241Y-59973335D01*
X143221501Y-60059396D01*
X143221506Y-60059402D01*
X143343430Y-60181326D01*
X143376915Y-60242649D01*
X143371931Y-60312341D01*
X143330059Y-60368274D01*
X143299083Y-60385189D01*
X143167669Y-60434203D01*
X143167664Y-60434206D01*
X143052455Y-60520452D01*
X143052452Y-60520455D01*
X142966206Y-60635664D01*
X142966202Y-60635671D01*
X142915908Y-60770517D01*
X142909501Y-60830116D01*
X142909501Y-60830123D01*
X142909500Y-60830135D01*
X142909500Y-62625870D01*
X142909501Y-62625876D01*
X142915908Y-62685483D01*
X142966202Y-62820328D01*
X142966206Y-62820335D01*
X143052452Y-62935544D01*
X143052455Y-62935547D01*
X143167664Y-63021793D01*
X143167671Y-63021797D01*
X143302517Y-63072091D01*
X143302516Y-63072091D01*
X143309444Y-63072835D01*
X143362127Y-63078500D01*
X145157872Y-63078499D01*
X145217483Y-63072091D01*
X145352331Y-63021796D01*
X145467546Y-62935546D01*
X145553796Y-62820331D01*
X145604091Y-62685483D01*
X145610500Y-62625873D01*
X145610499Y-60830128D01*
X145604091Y-60770517D01*
X145589161Y-60730488D01*
X145553797Y-60635671D01*
X145553793Y-60635664D01*
X145467547Y-60520455D01*
X145467544Y-60520452D01*
X145352335Y-60434206D01*
X145352328Y-60434202D01*
X145220917Y-60385189D01*
X145164983Y-60343318D01*
X145140566Y-60277853D01*
X145155418Y-60209580D01*
X145176563Y-60181332D01*
X145298495Y-60059401D01*
X145434035Y-59865830D01*
X145533903Y-59651663D01*
X145595063Y-59423408D01*
X145615659Y-59188000D01*
X145595063Y-58952592D01*
X145533903Y-58724337D01*
X145434035Y-58510171D01*
X145370896Y-58419998D01*
X145298494Y-58316597D01*
X145131402Y-58149506D01*
X145131396Y-58149501D01*
X144945842Y-58019575D01*
X144902217Y-57964998D01*
X144895023Y-57895500D01*
X144926546Y-57833145D01*
X144945842Y-57816425D01*
X145016048Y-57767266D01*
X145131401Y-57686495D01*
X145298495Y-57519401D01*
X145434035Y-57325830D01*
X145533903Y-57111663D01*
X145595063Y-56883408D01*
X145615659Y-56648000D01*
X145595063Y-56412592D01*
X145533903Y-56184337D01*
X145434035Y-55970171D01*
X145429112Y-55963139D01*
X145298494Y-55776597D01*
X145131402Y-55609506D01*
X145131395Y-55609501D01*
X144937834Y-55473967D01*
X144937830Y-55473965D01*
X144867707Y-55441266D01*
X144723663Y-55374097D01*
X144723659Y-55374096D01*
X144723655Y-55374094D01*
X144495413Y-55312938D01*
X144495403Y-55312936D01*
X144260001Y-55292341D01*
X144259999Y-55292341D01*
X144024596Y-55312936D01*
X144024586Y-55312938D01*
X143796344Y-55374094D01*
X143796335Y-55374098D01*
X143582171Y-55473964D01*
X143582169Y-55473965D01*
X143388597Y-55609505D01*
X143221505Y-55776597D01*
X143085965Y-55970169D01*
X143085964Y-55970171D01*
X142986098Y-56184335D01*
X142986094Y-56184344D01*
X142924938Y-56412586D01*
X142924936Y-56412596D01*
X142904341Y-56647999D01*
X127837235Y-56647999D01*
X128141865Y-56343369D01*
X128203186Y-56309886D01*
X128215639Y-56307834D01*
X128302584Y-56298039D01*
X128472851Y-56238460D01*
X128625591Y-56142487D01*
X128753145Y-56014933D01*
X128849118Y-55862193D01*
X128908697Y-55691926D01*
X128908698Y-55691920D01*
X128928894Y-55512674D01*
X128928894Y-55512667D01*
X128908698Y-55333421D01*
X128908697Y-55333416D01*
X128849117Y-55163147D01*
X128753144Y-55010408D01*
X128625591Y-54882855D01*
X128472852Y-54786882D01*
X128302583Y-54727302D01*
X128302578Y-54727301D01*
X128123333Y-54707106D01*
X128123325Y-54707106D01*
X127944079Y-54727301D01*
X127944074Y-54727302D01*
X127773805Y-54786882D01*
X127621066Y-54882855D01*
X127493513Y-55010408D01*
X127397539Y-55163149D01*
X127337959Y-55333421D01*
X127328166Y-55420338D01*
X127301099Y-55484752D01*
X127292627Y-55494135D01*
X126549092Y-56237671D01*
X126487769Y-56271156D01*
X126475296Y-56273210D01*
X126388496Y-56282990D01*
X126218224Y-56342570D01*
X126065483Y-56438544D01*
X125937930Y-56566097D01*
X125841957Y-56718836D01*
X125782377Y-56889105D01*
X125782376Y-56889110D01*
X125762181Y-57068356D01*
X117196830Y-57068356D01*
X117332047Y-56933139D01*
X117462568Y-56746734D01*
X117558739Y-56540496D01*
X117617635Y-56320692D01*
X117637468Y-56094000D01*
X117617635Y-55867308D01*
X117558739Y-55647504D01*
X117462568Y-55441266D01*
X117358291Y-55292341D01*
X117332045Y-55254858D01*
X117201185Y-55123998D01*
X122888532Y-55123998D01*
X122888532Y-55124001D01*
X122908364Y-55350686D01*
X122908366Y-55350697D01*
X122967258Y-55570488D01*
X122967261Y-55570497D01*
X123063431Y-55776732D01*
X123063432Y-55776734D01*
X123193954Y-55963141D01*
X123354858Y-56124045D01*
X123354861Y-56124047D01*
X123541266Y-56254568D01*
X123747504Y-56350739D01*
X123967308Y-56409635D01*
X124129230Y-56423801D01*
X124193998Y-56429468D01*
X124194000Y-56429468D01*
X124194002Y-56429468D01*
X124250673Y-56424509D01*
X124420692Y-56409635D01*
X124640496Y-56350739D01*
X124846734Y-56254568D01*
X125033139Y-56124047D01*
X125194047Y-55963139D01*
X125324568Y-55776734D01*
X125420739Y-55570496D01*
X125479635Y-55350692D01*
X125499468Y-55124000D01*
X125479635Y-54897308D01*
X125420739Y-54677504D01*
X125324568Y-54471266D01*
X125217602Y-54318501D01*
X125194045Y-54284858D01*
X125033141Y-54123954D01*
X124846734Y-53993432D01*
X124846732Y-53993431D01*
X124640497Y-53897261D01*
X124640488Y-53897258D01*
X124420697Y-53838366D01*
X124420693Y-53838365D01*
X124420692Y-53838365D01*
X124420691Y-53838364D01*
X124420686Y-53838364D01*
X124194002Y-53818532D01*
X124193998Y-53818532D01*
X123967313Y-53838364D01*
X123967302Y-53838366D01*
X123747511Y-53897258D01*
X123747502Y-53897261D01*
X123541267Y-53993431D01*
X123541265Y-53993432D01*
X123354858Y-54123954D01*
X123193954Y-54284858D01*
X123063432Y-54471265D01*
X123063431Y-54471267D01*
X122967261Y-54677502D01*
X122967258Y-54677511D01*
X122908366Y-54897302D01*
X122908364Y-54897313D01*
X122888532Y-55123998D01*
X117201185Y-55123998D01*
X117171141Y-55093954D01*
X116984734Y-54963432D01*
X116984732Y-54963431D01*
X116778497Y-54867261D01*
X116778488Y-54867258D01*
X116558697Y-54808366D01*
X116558693Y-54808365D01*
X116558692Y-54808365D01*
X116558691Y-54808364D01*
X116558686Y-54808364D01*
X116332002Y-54788532D01*
X116331998Y-54788532D01*
X116105313Y-54808364D01*
X116105302Y-54808366D01*
X115885511Y-54867258D01*
X115885502Y-54867261D01*
X115679267Y-54963431D01*
X115679265Y-54963432D01*
X115492858Y-55093954D01*
X115331954Y-55254858D01*
X115201432Y-55441265D01*
X115201431Y-55441267D01*
X115105261Y-55647502D01*
X115105258Y-55647511D01*
X115046366Y-55867302D01*
X115046364Y-55867313D01*
X115026532Y-56093998D01*
X89926020Y-56093998D01*
X89913109Y-55938187D01*
X89913107Y-55938175D01*
X89852063Y-55697118D01*
X89752173Y-55469393D01*
X89616166Y-55261217D01*
X89594557Y-55237744D01*
X89447744Y-55078262D01*
X89251509Y-54925526D01*
X89251507Y-54925525D01*
X89251506Y-54925524D01*
X89032811Y-54807172D01*
X89032802Y-54807169D01*
X88800097Y-54727281D01*
X88743082Y-54686896D01*
X88716951Y-54622096D01*
X88730002Y-54553456D01*
X88778091Y-54502768D01*
X88800097Y-54492719D01*
X88883396Y-54464121D01*
X89032810Y-54412828D01*
X89251509Y-54294474D01*
X89447744Y-54141738D01*
X89616164Y-53958785D01*
X89752173Y-53750607D01*
X89852063Y-53522881D01*
X89913108Y-53281821D01*
X89913205Y-53280655D01*
X89933643Y-53034005D01*
X89933643Y-53033994D01*
X89913109Y-52786187D01*
X89913107Y-52786175D01*
X89852063Y-52545118D01*
X89768844Y-52355398D01*
X133748932Y-52355398D01*
X133748932Y-52355401D01*
X133768764Y-52582086D01*
X133768766Y-52582097D01*
X133827658Y-52801888D01*
X133827661Y-52801897D01*
X133923831Y-53008132D01*
X133923832Y-53008134D01*
X134054354Y-53194541D01*
X134215258Y-53355445D01*
X134215261Y-53355447D01*
X134401666Y-53485968D01*
X134607904Y-53582139D01*
X134827708Y-53641035D01*
X134989630Y-53655201D01*
X135054398Y-53660868D01*
X135054400Y-53660868D01*
X135054402Y-53660868D01*
X135111073Y-53655909D01*
X135281092Y-53641035D01*
X135500896Y-53582139D01*
X135707134Y-53485968D01*
X135893539Y-53355447D01*
X136054447Y-53194539D01*
X136184968Y-53008134D01*
X136281139Y-52801896D01*
X136340035Y-52582092D01*
X136359868Y-52355400D01*
X136359687Y-52353335D01*
X136354201Y-52290630D01*
X136340035Y-52128708D01*
X136290971Y-51945597D01*
X136281141Y-51908911D01*
X136281138Y-51908902D01*
X136233641Y-51807045D01*
X136184968Y-51702666D01*
X136073238Y-51543097D01*
X136054445Y-51516258D01*
X135893541Y-51355354D01*
X135707134Y-51224832D01*
X135707132Y-51224831D01*
X135500897Y-51128661D01*
X135500888Y-51128658D01*
X135281097Y-51069766D01*
X135281093Y-51069765D01*
X135281092Y-51069765D01*
X135281091Y-51069764D01*
X135281086Y-51069764D01*
X135054402Y-51049932D01*
X135054398Y-51049932D01*
X134827713Y-51069764D01*
X134827702Y-51069766D01*
X134607911Y-51128658D01*
X134607902Y-51128661D01*
X134401667Y-51224831D01*
X134401665Y-51224832D01*
X134215258Y-51355354D01*
X134054354Y-51516258D01*
X133923832Y-51702665D01*
X133923831Y-51702667D01*
X133827661Y-51908902D01*
X133827658Y-51908911D01*
X133768766Y-52128702D01*
X133768764Y-52128713D01*
X133748932Y-52355398D01*
X89768844Y-52355398D01*
X89752173Y-52317393D01*
X89616166Y-52109217D01*
X89447740Y-51926258D01*
X89444066Y-51922876D01*
X89408078Y-51862988D01*
X89410181Y-51793150D01*
X89449708Y-51735535D01*
X89462077Y-51726659D01*
X89530262Y-51683816D01*
X89657816Y-51556262D01*
X89753789Y-51403522D01*
X89813368Y-51233255D01*
X89814317Y-51224831D01*
X89833565Y-51054003D01*
X89833565Y-51053996D01*
X89813369Y-50874750D01*
X89813368Y-50874745D01*
X89753788Y-50704475D01*
X89695664Y-50611973D01*
X89676663Y-50544736D01*
X89695664Y-50480027D01*
X89753788Y-50387524D01*
X89758122Y-50375139D01*
X89813368Y-50217255D01*
X89820465Y-50154266D01*
X89833565Y-50038003D01*
X89833565Y-50037996D01*
X89813369Y-49858750D01*
X89813368Y-49858745D01*
X89753789Y-49688478D01*
X89746219Y-49676431D01*
X89714582Y-49626080D01*
X89657816Y-49535738D01*
X89530262Y-49408184D01*
X89377523Y-49312211D01*
X89291180Y-49281998D01*
X133748932Y-49281998D01*
X133748932Y-49282001D01*
X133768764Y-49508686D01*
X133768766Y-49508697D01*
X133827658Y-49728488D01*
X133827661Y-49728497D01*
X133923831Y-49934732D01*
X133923832Y-49934734D01*
X134054354Y-50121141D01*
X134215258Y-50282045D01*
X134215261Y-50282047D01*
X134401666Y-50412568D01*
X134607904Y-50508739D01*
X134827708Y-50567635D01*
X134989630Y-50581801D01*
X135054398Y-50587468D01*
X135054400Y-50587468D01*
X135054402Y-50587468D01*
X135111073Y-50582509D01*
X135281092Y-50567635D01*
X135500896Y-50508739D01*
X135707134Y-50412568D01*
X135893539Y-50282047D01*
X136054447Y-50121139D01*
X136184968Y-49934734D01*
X136281139Y-49728496D01*
X136340035Y-49508692D01*
X136359868Y-49282000D01*
X136357298Y-49252630D01*
X136343027Y-49089511D01*
X136340035Y-49055308D01*
X136281139Y-48835504D01*
X136184968Y-48629266D01*
X136054447Y-48442861D01*
X136054445Y-48442858D01*
X135893541Y-48281954D01*
X135707134Y-48151432D01*
X135707132Y-48151431D01*
X135500897Y-48055261D01*
X135500888Y-48055258D01*
X135281097Y-47996366D01*
X135281093Y-47996365D01*
X135281092Y-47996365D01*
X135281091Y-47996364D01*
X135281086Y-47996364D01*
X135054402Y-47976532D01*
X135054398Y-47976532D01*
X134827713Y-47996364D01*
X134827702Y-47996366D01*
X134607911Y-48055258D01*
X134607902Y-48055261D01*
X134401667Y-48151431D01*
X134401665Y-48151432D01*
X134215258Y-48281954D01*
X134054354Y-48442858D01*
X133923832Y-48629265D01*
X133923831Y-48629267D01*
X133827661Y-48835502D01*
X133827658Y-48835511D01*
X133768766Y-49055302D01*
X133768764Y-49055313D01*
X133748932Y-49281998D01*
X89291180Y-49281998D01*
X89207254Y-49252631D01*
X89207249Y-49252630D01*
X89028004Y-49232435D01*
X89027996Y-49232435D01*
X88848750Y-49252630D01*
X88848745Y-49252631D01*
X88678476Y-49312211D01*
X88525736Y-49408185D01*
X88522903Y-49410445D01*
X88520724Y-49411334D01*
X88519842Y-49411889D01*
X88519744Y-49411734D01*
X88458217Y-49436855D01*
X88445588Y-49437500D01*
X88410412Y-49437500D01*
X88343373Y-49417815D01*
X88333097Y-49410445D01*
X88330263Y-49408185D01*
X88330262Y-49408184D01*
X88273496Y-49372515D01*
X88177523Y-49312211D01*
X88007254Y-49252631D01*
X88007249Y-49252630D01*
X87828004Y-49232435D01*
X87827996Y-49232435D01*
X87648750Y-49252630D01*
X87648745Y-49252631D01*
X87478476Y-49312211D01*
X87325737Y-49408184D01*
X87198184Y-49535737D01*
X87102211Y-49688476D01*
X87042631Y-49858745D01*
X87042630Y-49858750D01*
X87022435Y-50037996D01*
X87022435Y-50038003D01*
X87042630Y-50217249D01*
X87042631Y-50217254D01*
X87102211Y-50387523D01*
X87160336Y-50480028D01*
X87179336Y-50547265D01*
X87160336Y-50611972D01*
X87102211Y-50704476D01*
X87042631Y-50874745D01*
X87042630Y-50874750D01*
X87022435Y-51053996D01*
X87022435Y-51054003D01*
X87042630Y-51233249D01*
X87042631Y-51233254D01*
X87102211Y-51403523D01*
X87198184Y-51556262D01*
X87325738Y-51683816D01*
X87393918Y-51726656D01*
X87440209Y-51778991D01*
X87450857Y-51848044D01*
X87422482Y-51911893D01*
X87411939Y-51922871D01*
X87408259Y-51926258D01*
X87239833Y-52109217D01*
X87103826Y-52317393D01*
X87003936Y-52545118D01*
X86942892Y-52786175D01*
X86942890Y-52786187D01*
X86922357Y-53033994D01*
X83378674Y-53033994D01*
X83397659Y-52817000D01*
X83377063Y-52581592D01*
X83315903Y-52353337D01*
X83216035Y-52139171D01*
X83208713Y-52128713D01*
X83080494Y-51945597D01*
X82913402Y-51778506D01*
X82913395Y-51778501D01*
X82719834Y-51642967D01*
X82719830Y-51642965D01*
X82611897Y-51592635D01*
X82505663Y-51543097D01*
X82505659Y-51543096D01*
X82505655Y-51543094D01*
X82277413Y-51481938D01*
X82277403Y-51481936D01*
X82042001Y-51461341D01*
X82041999Y-51461341D01*
X81806596Y-51481936D01*
X81806586Y-51481938D01*
X81578344Y-51543094D01*
X81578335Y-51543098D01*
X81364171Y-51642964D01*
X81364169Y-51642965D01*
X81170597Y-51778505D01*
X81003505Y-51945597D01*
X80867965Y-52139169D01*
X80867964Y-52139171D01*
X80768098Y-52353335D01*
X80768094Y-52353344D01*
X80706938Y-52581586D01*
X80706936Y-52581596D01*
X80686341Y-52816999D01*
X51543280Y-52816999D01*
X51415047Y-52633861D01*
X51415045Y-52633858D01*
X51254141Y-52472954D01*
X51067734Y-52342432D01*
X51067732Y-52342431D01*
X50861497Y-52246261D01*
X50861488Y-52246258D01*
X50641697Y-52187366D01*
X50641693Y-52187365D01*
X50641692Y-52187365D01*
X50641691Y-52187364D01*
X50641686Y-52187364D01*
X50415002Y-52167532D01*
X50414998Y-52167532D01*
X50188313Y-52187364D01*
X50188302Y-52187366D01*
X49968511Y-52246258D01*
X49968502Y-52246261D01*
X49762267Y-52342431D01*
X49762265Y-52342432D01*
X49575858Y-52472954D01*
X49414954Y-52633858D01*
X49284432Y-52820265D01*
X49284431Y-52820267D01*
X49188261Y-53026502D01*
X49188258Y-53026511D01*
X49129366Y-53246302D01*
X49129364Y-53246313D01*
X49109532Y-53472998D01*
X45085000Y-53472998D01*
X45085000Y-50806998D01*
X46144532Y-50806998D01*
X46144532Y-50807001D01*
X46164364Y-51033686D01*
X46164366Y-51033697D01*
X46223258Y-51253488D01*
X46223261Y-51253497D01*
X46319431Y-51459732D01*
X46319432Y-51459734D01*
X46449954Y-51646141D01*
X46610858Y-51807045D01*
X46657693Y-51839839D01*
X46797266Y-51937568D01*
X47003504Y-52033739D01*
X47223308Y-52092635D01*
X47385230Y-52106801D01*
X47449998Y-52112468D01*
X47450000Y-52112468D01*
X47450002Y-52112468D01*
X47506673Y-52107509D01*
X47676692Y-52092635D01*
X47896496Y-52033739D01*
X48102734Y-51937568D01*
X48289139Y-51807047D01*
X48450047Y-51646139D01*
X48580568Y-51459734D01*
X48676739Y-51253496D01*
X48735635Y-51033692D01*
X48755468Y-50807000D01*
X48735635Y-50580308D01*
X48680661Y-50375141D01*
X48676741Y-50360511D01*
X48676738Y-50360502D01*
X48651790Y-50307001D01*
X48651789Y-50306998D01*
X52189532Y-50306998D01*
X52189532Y-50307001D01*
X52209364Y-50533686D01*
X52209366Y-50533697D01*
X52268258Y-50753488D01*
X52268261Y-50753497D01*
X52364431Y-50959732D01*
X52364432Y-50959734D01*
X52494954Y-51146141D01*
X52655858Y-51307045D01*
X52655861Y-51307047D01*
X52842266Y-51437568D01*
X53048504Y-51533739D01*
X53048509Y-51533740D01*
X53048511Y-51533741D01*
X53083429Y-51543097D01*
X53268308Y-51592635D01*
X53430230Y-51606801D01*
X53494998Y-51612468D01*
X53495000Y-51612468D01*
X53495002Y-51612468D01*
X53551673Y-51607509D01*
X53721692Y-51592635D01*
X53941496Y-51533739D01*
X54147734Y-51437568D01*
X54334139Y-51307047D01*
X54495047Y-51146139D01*
X54625568Y-50959734D01*
X54721739Y-50753496D01*
X54780635Y-50533692D01*
X54800468Y-50307000D01*
X54780635Y-50080308D01*
X54721739Y-49860504D01*
X54625568Y-49654266D01*
X54542757Y-49535998D01*
X71159532Y-49535998D01*
X71159532Y-49536001D01*
X71179364Y-49762686D01*
X71179366Y-49762697D01*
X71238258Y-49982488D01*
X71238261Y-49982497D01*
X71334431Y-50188732D01*
X71334432Y-50188734D01*
X71464954Y-50375141D01*
X71625858Y-50536045D01*
X71625861Y-50536047D01*
X71812266Y-50666568D01*
X72018504Y-50762739D01*
X72238308Y-50821635D01*
X72400230Y-50835801D01*
X72464998Y-50841468D01*
X72465000Y-50841468D01*
X72465002Y-50841468D01*
X72521673Y-50836509D01*
X72691692Y-50821635D01*
X72911496Y-50762739D01*
X73117734Y-50666568D01*
X73304139Y-50536047D01*
X73465047Y-50375139D01*
X73595568Y-50188734D01*
X73691739Y-49982496D01*
X73750635Y-49762692D01*
X73770468Y-49536000D01*
X73767452Y-49501532D01*
X73759483Y-49410445D01*
X73750635Y-49309308D01*
X73691739Y-49089504D01*
X73595568Y-48883266D01*
X73465047Y-48696861D01*
X73465045Y-48696858D01*
X73304141Y-48535954D01*
X73117734Y-48405432D01*
X73117732Y-48405431D01*
X72911497Y-48309261D01*
X72911488Y-48309258D01*
X72691697Y-48250366D01*
X72691693Y-48250365D01*
X72691692Y-48250365D01*
X72691691Y-48250364D01*
X72691686Y-48250364D01*
X72465002Y-48230532D01*
X72464998Y-48230532D01*
X72238313Y-48250364D01*
X72238302Y-48250366D01*
X72018511Y-48309258D01*
X72018502Y-48309261D01*
X71812267Y-48405431D01*
X71812265Y-48405432D01*
X71625858Y-48535954D01*
X71464954Y-48696858D01*
X71334432Y-48883265D01*
X71334431Y-48883267D01*
X71238261Y-49089502D01*
X71238258Y-49089511D01*
X71179366Y-49309302D01*
X71179364Y-49309313D01*
X71159532Y-49535998D01*
X54542757Y-49535998D01*
X54523633Y-49508686D01*
X54495045Y-49467858D01*
X54334141Y-49306954D01*
X54147734Y-49176432D01*
X54147732Y-49176431D01*
X53941497Y-49080261D01*
X53941488Y-49080258D01*
X53721697Y-49021366D01*
X53721693Y-49021365D01*
X53721692Y-49021365D01*
X53721691Y-49021364D01*
X53721686Y-49021364D01*
X53495002Y-49001532D01*
X53494998Y-49001532D01*
X53268313Y-49021364D01*
X53268302Y-49021366D01*
X53048511Y-49080258D01*
X53048502Y-49080261D01*
X52842267Y-49176431D01*
X52842265Y-49176432D01*
X52655858Y-49306954D01*
X52494954Y-49467858D01*
X52364432Y-49654265D01*
X52364431Y-49654267D01*
X52268261Y-49860502D01*
X52268258Y-49860511D01*
X52209366Y-50080302D01*
X52209364Y-50080313D01*
X52189532Y-50306998D01*
X48651789Y-50306998D01*
X48580568Y-50154266D01*
X48460295Y-49982497D01*
X48450045Y-49967858D01*
X48289141Y-49806954D01*
X48102734Y-49676432D01*
X48102732Y-49676431D01*
X47896497Y-49580261D01*
X47896488Y-49580258D01*
X47676697Y-49521366D01*
X47676693Y-49521365D01*
X47676692Y-49521365D01*
X47676691Y-49521364D01*
X47676686Y-49521364D01*
X47450002Y-49501532D01*
X47449998Y-49501532D01*
X47223313Y-49521364D01*
X47223302Y-49521366D01*
X47003511Y-49580258D01*
X47003502Y-49580261D01*
X46797267Y-49676431D01*
X46797265Y-49676432D01*
X46610858Y-49806954D01*
X46449954Y-49967858D01*
X46319432Y-50154265D01*
X46319431Y-50154267D01*
X46223261Y-50360502D01*
X46223258Y-50360511D01*
X46164366Y-50580302D01*
X46164364Y-50580313D01*
X46144532Y-50806998D01*
X45085000Y-50806998D01*
X45085000Y-46487999D01*
X48924341Y-46487999D01*
X48924341Y-46488000D01*
X48944936Y-46723403D01*
X48944938Y-46723413D01*
X49006094Y-46951655D01*
X49006096Y-46951659D01*
X49006097Y-46951663D01*
X49010000Y-46960032D01*
X49105965Y-47165830D01*
X49105967Y-47165834D01*
X49171648Y-47259635D01*
X49241505Y-47359401D01*
X49408599Y-47526495D01*
X49505384Y-47594265D01*
X49602165Y-47662032D01*
X49602167Y-47662033D01*
X49602170Y-47662035D01*
X49816337Y-47761903D01*
X50044592Y-47823063D01*
X50221034Y-47838500D01*
X50279999Y-47843659D01*
X50280000Y-47843659D01*
X50280001Y-47843659D01*
X50338966Y-47838500D01*
X50515408Y-47823063D01*
X50743663Y-47761903D01*
X50957830Y-47662035D01*
X51151401Y-47526495D01*
X51318495Y-47359401D01*
X51448425Y-47173842D01*
X51503002Y-47130217D01*
X51572500Y-47123023D01*
X51634855Y-47154546D01*
X51651575Y-47173842D01*
X51781500Y-47359395D01*
X51781505Y-47359401D01*
X51948599Y-47526495D01*
X52045384Y-47594265D01*
X52142165Y-47662032D01*
X52142167Y-47662033D01*
X52142170Y-47662035D01*
X52356337Y-47761903D01*
X52584592Y-47823063D01*
X52761034Y-47838500D01*
X52819999Y-47843659D01*
X52820000Y-47843659D01*
X52820001Y-47843659D01*
X52878966Y-47838500D01*
X53055408Y-47823063D01*
X53283663Y-47761903D01*
X53497830Y-47662035D01*
X53691401Y-47526495D01*
X53858495Y-47359401D01*
X53988425Y-47173842D01*
X54043002Y-47130217D01*
X54112500Y-47123023D01*
X54174855Y-47154546D01*
X54191575Y-47173842D01*
X54321500Y-47359395D01*
X54321505Y-47359401D01*
X54488599Y-47526495D01*
X54585384Y-47594265D01*
X54682165Y-47662032D01*
X54682167Y-47662033D01*
X54682170Y-47662035D01*
X54896337Y-47761903D01*
X55124592Y-47823063D01*
X55301034Y-47838500D01*
X55359999Y-47843659D01*
X55360000Y-47843659D01*
X55360001Y-47843659D01*
X55418966Y-47838500D01*
X55595408Y-47823063D01*
X55823663Y-47761903D01*
X56037830Y-47662035D01*
X56231401Y-47526495D01*
X56353329Y-47404566D01*
X56414648Y-47371084D01*
X56484340Y-47376068D01*
X56540274Y-47417939D01*
X56557189Y-47448917D01*
X56606202Y-47580328D01*
X56606206Y-47580335D01*
X56692452Y-47695544D01*
X56692455Y-47695547D01*
X56807664Y-47781793D01*
X56807671Y-47781797D01*
X56942517Y-47832091D01*
X56942516Y-47832091D01*
X56949444Y-47832835D01*
X57002127Y-47838500D01*
X58797872Y-47838499D01*
X58857483Y-47832091D01*
X58992331Y-47781796D01*
X59107546Y-47695546D01*
X59193796Y-47580331D01*
X59244091Y-47445483D01*
X59250500Y-47385873D01*
X59250499Y-45590135D01*
X64169500Y-45590135D01*
X64169500Y-47385870D01*
X64169501Y-47385876D01*
X64175908Y-47445483D01*
X64226202Y-47580328D01*
X64226206Y-47580335D01*
X64312452Y-47695544D01*
X64312455Y-47695547D01*
X64427664Y-47781793D01*
X64427671Y-47781797D01*
X64562517Y-47832091D01*
X64562516Y-47832091D01*
X64569444Y-47832835D01*
X64622127Y-47838500D01*
X66417872Y-47838499D01*
X66477483Y-47832091D01*
X66612331Y-47781796D01*
X66727546Y-47695546D01*
X66813796Y-47580331D01*
X66862810Y-47448916D01*
X66904681Y-47392984D01*
X66970145Y-47368566D01*
X67038418Y-47383417D01*
X67066673Y-47404569D01*
X67188599Y-47526495D01*
X67285384Y-47594265D01*
X67382165Y-47662032D01*
X67382167Y-47662033D01*
X67382170Y-47662035D01*
X67596337Y-47761903D01*
X67824592Y-47823063D01*
X68001034Y-47838500D01*
X68059999Y-47843659D01*
X68060000Y-47843659D01*
X68060001Y-47843659D01*
X68118966Y-47838500D01*
X68295408Y-47823063D01*
X68523663Y-47761903D01*
X68737830Y-47662035D01*
X68931401Y-47526495D01*
X69098495Y-47359401D01*
X69234035Y-47165830D01*
X69333903Y-46951663D01*
X69395063Y-46723408D01*
X69415659Y-46488000D01*
X69415659Y-46487999D01*
X71784341Y-46487999D01*
X71784341Y-46488000D01*
X71804936Y-46723403D01*
X71804938Y-46723413D01*
X71866094Y-46951655D01*
X71866096Y-46951659D01*
X71866097Y-46951663D01*
X71870000Y-46960032D01*
X71965965Y-47165830D01*
X71965967Y-47165834D01*
X72031648Y-47259635D01*
X72101505Y-47359401D01*
X72268599Y-47526495D01*
X72365384Y-47594265D01*
X72462165Y-47662032D01*
X72462167Y-47662033D01*
X72462170Y-47662035D01*
X72676337Y-47761903D01*
X72904592Y-47823063D01*
X73081034Y-47838500D01*
X73139999Y-47843659D01*
X73140000Y-47843659D01*
X73140001Y-47843659D01*
X73198966Y-47838500D01*
X73375408Y-47823063D01*
X73603663Y-47761903D01*
X73817830Y-47662035D01*
X74011401Y-47526495D01*
X74178495Y-47359401D01*
X74308425Y-47173842D01*
X74363002Y-47130217D01*
X74432500Y-47123023D01*
X74494855Y-47154546D01*
X74511575Y-47173842D01*
X74641500Y-47359395D01*
X74641505Y-47359401D01*
X74808599Y-47526495D01*
X74905384Y-47594265D01*
X75002165Y-47662032D01*
X75002167Y-47662033D01*
X75002170Y-47662035D01*
X75216337Y-47761903D01*
X75444592Y-47823063D01*
X75621034Y-47838500D01*
X75679999Y-47843659D01*
X75680000Y-47843659D01*
X75680001Y-47843659D01*
X75738966Y-47838500D01*
X75915408Y-47823063D01*
X76143663Y-47761903D01*
X76357830Y-47662035D01*
X76551401Y-47526495D01*
X76718495Y-47359401D01*
X76854035Y-47165830D01*
X76953903Y-46951663D01*
X77015063Y-46723408D01*
X77035659Y-46488000D01*
X77015063Y-46252592D01*
X76968626Y-46079285D01*
X76953905Y-46024344D01*
X76953904Y-46024343D01*
X76953903Y-46024337D01*
X76930429Y-45973998D01*
X84038532Y-45973998D01*
X84038532Y-45974001D01*
X84058364Y-46200686D01*
X84058366Y-46200697D01*
X84117258Y-46420488D01*
X84117261Y-46420497D01*
X84213431Y-46626732D01*
X84213432Y-46626734D01*
X84343954Y-46813141D01*
X84504858Y-46974045D01*
X84504861Y-46974047D01*
X84691266Y-47104568D01*
X84897504Y-47200739D01*
X85117308Y-47259635D01*
X85279230Y-47273801D01*
X85343998Y-47279468D01*
X85344000Y-47279468D01*
X85344002Y-47279468D01*
X85400673Y-47274509D01*
X85570692Y-47259635D01*
X85790496Y-47200739D01*
X85996734Y-47104568D01*
X86183139Y-46974047D01*
X86344047Y-46813139D01*
X86474568Y-46626734D01*
X86517814Y-46533994D01*
X86922357Y-46533994D01*
X86922357Y-46534005D01*
X86942890Y-46781812D01*
X86942892Y-46781824D01*
X87003936Y-47022881D01*
X87103826Y-47250606D01*
X87239833Y-47458782D01*
X87239836Y-47458785D01*
X87408256Y-47641738D01*
X87604491Y-47794474D01*
X87823190Y-47912828D01*
X88058386Y-47993571D01*
X88303665Y-48034500D01*
X88552335Y-48034500D01*
X88797614Y-47993571D01*
X89032810Y-47912828D01*
X89251509Y-47794474D01*
X89447744Y-47641738D01*
X89616164Y-47458785D01*
X89752173Y-47250607D01*
X89852063Y-47022881D01*
X89913108Y-46781821D01*
X89917948Y-46723413D01*
X89933643Y-46534005D01*
X89933643Y-46533994D01*
X89929832Y-46487999D01*
X99724341Y-46487999D01*
X99724341Y-46488000D01*
X99744936Y-46723403D01*
X99744938Y-46723413D01*
X99806094Y-46951655D01*
X99806096Y-46951659D01*
X99806097Y-46951663D01*
X99810000Y-46960032D01*
X99905965Y-47165830D01*
X99905967Y-47165834D01*
X99971648Y-47259635D01*
X100041505Y-47359401D01*
X100208599Y-47526495D01*
X100305384Y-47594265D01*
X100402165Y-47662032D01*
X100402167Y-47662033D01*
X100402170Y-47662035D01*
X100616337Y-47761903D01*
X100844592Y-47823063D01*
X101021034Y-47838500D01*
X101079999Y-47843659D01*
X101080000Y-47843659D01*
X101080001Y-47843659D01*
X101138966Y-47838500D01*
X101315408Y-47823063D01*
X101543663Y-47761903D01*
X101757830Y-47662035D01*
X101951401Y-47526495D01*
X102118495Y-47359401D01*
X102248425Y-47173842D01*
X102303002Y-47130217D01*
X102372500Y-47123023D01*
X102434855Y-47154546D01*
X102451575Y-47173842D01*
X102581500Y-47359395D01*
X102581505Y-47359401D01*
X102748599Y-47526495D01*
X102845384Y-47594265D01*
X102942165Y-47662032D01*
X102942167Y-47662033D01*
X102942170Y-47662035D01*
X103156337Y-47761903D01*
X103384592Y-47823063D01*
X103561034Y-47838500D01*
X103619999Y-47843659D01*
X103620000Y-47843659D01*
X103620001Y-47843659D01*
X103678966Y-47838500D01*
X103855408Y-47823063D01*
X104083663Y-47761903D01*
X104297830Y-47662035D01*
X104491401Y-47526495D01*
X104658495Y-47359401D01*
X104788425Y-47173842D01*
X104843002Y-47130217D01*
X104912500Y-47123023D01*
X104974855Y-47154546D01*
X104991575Y-47173842D01*
X105121500Y-47359395D01*
X105121505Y-47359401D01*
X105288599Y-47526495D01*
X105385384Y-47594265D01*
X105482165Y-47662032D01*
X105482167Y-47662033D01*
X105482170Y-47662035D01*
X105696337Y-47761903D01*
X105924592Y-47823063D01*
X106101034Y-47838500D01*
X106159999Y-47843659D01*
X106160000Y-47843659D01*
X106160001Y-47843659D01*
X106218966Y-47838500D01*
X106395408Y-47823063D01*
X106623663Y-47761903D01*
X106837830Y-47662035D01*
X107031401Y-47526495D01*
X107198495Y-47359401D01*
X107328425Y-47173842D01*
X107383002Y-47130217D01*
X107452500Y-47123023D01*
X107514855Y-47154546D01*
X107531575Y-47173842D01*
X107661500Y-47359395D01*
X107661505Y-47359401D01*
X107828599Y-47526495D01*
X107925384Y-47594265D01*
X108022165Y-47662032D01*
X108022167Y-47662033D01*
X108022170Y-47662035D01*
X108236337Y-47761903D01*
X108464592Y-47823063D01*
X108641034Y-47838500D01*
X108699999Y-47843659D01*
X108700000Y-47843659D01*
X108700001Y-47843659D01*
X108758966Y-47838500D01*
X108935408Y-47823063D01*
X109163663Y-47761903D01*
X109377830Y-47662035D01*
X109571401Y-47526495D01*
X109738495Y-47359401D01*
X109868425Y-47173842D01*
X109923002Y-47130217D01*
X109992500Y-47123023D01*
X110054855Y-47154546D01*
X110071575Y-47173842D01*
X110201500Y-47359395D01*
X110201505Y-47359401D01*
X110368599Y-47526495D01*
X110465384Y-47594265D01*
X110562165Y-47662032D01*
X110562167Y-47662033D01*
X110562170Y-47662035D01*
X110776337Y-47761903D01*
X111004592Y-47823063D01*
X111181034Y-47838500D01*
X111239999Y-47843659D01*
X111240000Y-47843659D01*
X111240001Y-47843659D01*
X111298966Y-47838500D01*
X111475408Y-47823063D01*
X111703663Y-47761903D01*
X111917830Y-47662035D01*
X112111401Y-47526495D01*
X112278495Y-47359401D01*
X112408425Y-47173842D01*
X112463002Y-47130217D01*
X112532500Y-47123023D01*
X112594855Y-47154546D01*
X112611575Y-47173842D01*
X112741500Y-47359395D01*
X112741505Y-47359401D01*
X112908599Y-47526495D01*
X113005384Y-47594265D01*
X113102165Y-47662032D01*
X113102167Y-47662033D01*
X113102170Y-47662035D01*
X113316337Y-47761903D01*
X113544592Y-47823063D01*
X113721034Y-47838500D01*
X113779999Y-47843659D01*
X113780000Y-47843659D01*
X113780001Y-47843659D01*
X113838966Y-47838500D01*
X114015408Y-47823063D01*
X114243663Y-47761903D01*
X114457830Y-47662035D01*
X114651401Y-47526495D01*
X114818495Y-47359401D01*
X114948425Y-47173842D01*
X115003002Y-47130217D01*
X115072500Y-47123023D01*
X115134855Y-47154546D01*
X115151575Y-47173842D01*
X115281500Y-47359395D01*
X115281505Y-47359401D01*
X115448599Y-47526495D01*
X115545384Y-47594265D01*
X115642165Y-47662032D01*
X115642167Y-47662033D01*
X115642170Y-47662035D01*
X115856337Y-47761903D01*
X116084592Y-47823063D01*
X116261034Y-47838500D01*
X116319999Y-47843659D01*
X116320000Y-47843659D01*
X116320001Y-47843659D01*
X116378966Y-47838500D01*
X116555408Y-47823063D01*
X116783663Y-47761903D01*
X116997830Y-47662035D01*
X117191401Y-47526495D01*
X117358495Y-47359401D01*
X117494035Y-47165830D01*
X117593903Y-46951663D01*
X117655063Y-46723408D01*
X117675659Y-46488000D01*
X117655063Y-46252592D01*
X117608626Y-46079285D01*
X117593905Y-46024344D01*
X117593904Y-46024343D01*
X117593903Y-46024337D01*
X117494035Y-45810171D01*
X117488425Y-45802158D01*
X117358494Y-45616597D01*
X117332032Y-45590135D01*
X120049500Y-45590135D01*
X120049500Y-47385870D01*
X120049501Y-47385876D01*
X120055908Y-47445483D01*
X120106202Y-47580328D01*
X120106206Y-47580335D01*
X120192452Y-47695544D01*
X120192455Y-47695547D01*
X120307664Y-47781793D01*
X120307671Y-47781797D01*
X120442517Y-47832091D01*
X120442516Y-47832091D01*
X120449444Y-47832835D01*
X120502127Y-47838500D01*
X122297872Y-47838499D01*
X122357483Y-47832091D01*
X122492331Y-47781796D01*
X122607546Y-47695546D01*
X122693796Y-47580331D01*
X122742810Y-47448916D01*
X122784681Y-47392984D01*
X122850145Y-47368566D01*
X122918418Y-47383417D01*
X122946673Y-47404569D01*
X123068599Y-47526495D01*
X123165384Y-47594265D01*
X123262165Y-47662032D01*
X123262167Y-47662033D01*
X123262170Y-47662035D01*
X123476337Y-47761903D01*
X123704592Y-47823063D01*
X123881034Y-47838500D01*
X123939999Y-47843659D01*
X123940000Y-47843659D01*
X123940001Y-47843659D01*
X123998966Y-47838500D01*
X124175408Y-47823063D01*
X124403663Y-47761903D01*
X124617830Y-47662035D01*
X124811401Y-47526495D01*
X124978495Y-47359401D01*
X125108425Y-47173842D01*
X125163002Y-47130217D01*
X125232500Y-47123023D01*
X125294855Y-47154546D01*
X125311575Y-47173842D01*
X125441500Y-47359395D01*
X125441505Y-47359401D01*
X125608599Y-47526495D01*
X125705384Y-47594265D01*
X125802165Y-47662032D01*
X125802167Y-47662033D01*
X125802170Y-47662035D01*
X126016337Y-47761903D01*
X126244592Y-47823063D01*
X126421034Y-47838500D01*
X126479999Y-47843659D01*
X126480000Y-47843659D01*
X126480001Y-47843659D01*
X126538966Y-47838500D01*
X126715408Y-47823063D01*
X126943663Y-47761903D01*
X127157830Y-47662035D01*
X127351401Y-47526495D01*
X127518495Y-47359401D01*
X127654035Y-47165830D01*
X127753903Y-46951663D01*
X127815063Y-46723408D01*
X127835659Y-46488000D01*
X127835659Y-46487999D01*
X130204341Y-46487999D01*
X130204341Y-46488000D01*
X130224936Y-46723403D01*
X130224938Y-46723413D01*
X130286094Y-46951655D01*
X130286096Y-46951659D01*
X130286097Y-46951663D01*
X130290000Y-46960032D01*
X130385965Y-47165830D01*
X130385967Y-47165834D01*
X130451648Y-47259635D01*
X130521505Y-47359401D01*
X130688599Y-47526495D01*
X130785384Y-47594265D01*
X130882165Y-47662032D01*
X130882167Y-47662033D01*
X130882170Y-47662035D01*
X131096337Y-47761903D01*
X131324592Y-47823063D01*
X131501034Y-47838500D01*
X131559999Y-47843659D01*
X131560000Y-47843659D01*
X131560001Y-47843659D01*
X131618966Y-47838500D01*
X131795408Y-47823063D01*
X132023663Y-47761903D01*
X132237830Y-47662035D01*
X132431401Y-47526495D01*
X132598495Y-47359401D01*
X132728425Y-47173842D01*
X132783002Y-47130217D01*
X132852500Y-47123023D01*
X132914855Y-47154546D01*
X132931575Y-47173842D01*
X133061500Y-47359395D01*
X133061505Y-47359401D01*
X133228599Y-47526495D01*
X133325384Y-47594265D01*
X133422165Y-47662032D01*
X133422167Y-47662033D01*
X133422170Y-47662035D01*
X133636337Y-47761903D01*
X133864592Y-47823063D01*
X134041034Y-47838500D01*
X134099999Y-47843659D01*
X134100000Y-47843659D01*
X134100001Y-47843659D01*
X134158966Y-47838500D01*
X134335408Y-47823063D01*
X134563663Y-47761903D01*
X134777830Y-47662035D01*
X134971401Y-47526495D01*
X135138495Y-47359401D01*
X135268425Y-47173842D01*
X135323002Y-47130217D01*
X135392500Y-47123023D01*
X135454855Y-47154546D01*
X135471575Y-47173842D01*
X135601500Y-47359395D01*
X135601505Y-47359401D01*
X135768599Y-47526495D01*
X135865384Y-47594265D01*
X135962165Y-47662032D01*
X135962167Y-47662033D01*
X135962170Y-47662035D01*
X136176337Y-47761903D01*
X136404592Y-47823063D01*
X136581034Y-47838500D01*
X136639999Y-47843659D01*
X136640000Y-47843659D01*
X136640001Y-47843659D01*
X136698966Y-47838500D01*
X136875408Y-47823063D01*
X137103663Y-47761903D01*
X137317830Y-47662035D01*
X137511401Y-47526495D01*
X137678495Y-47359401D01*
X137808425Y-47173842D01*
X137863002Y-47130217D01*
X137932500Y-47123023D01*
X137994855Y-47154546D01*
X138011575Y-47173842D01*
X138141500Y-47359395D01*
X138141505Y-47359401D01*
X138308599Y-47526495D01*
X138405384Y-47594265D01*
X138502165Y-47662032D01*
X138502167Y-47662033D01*
X138502170Y-47662035D01*
X138716337Y-47761903D01*
X138944592Y-47823063D01*
X139121034Y-47838500D01*
X139179999Y-47843659D01*
X139180000Y-47843659D01*
X139180001Y-47843659D01*
X139238966Y-47838500D01*
X139415408Y-47823063D01*
X139643663Y-47761903D01*
X139857830Y-47662035D01*
X140051401Y-47526495D01*
X140218495Y-47359401D01*
X140348425Y-47173842D01*
X140403002Y-47130217D01*
X140472500Y-47123023D01*
X140534855Y-47154546D01*
X140551575Y-47173842D01*
X140681500Y-47359395D01*
X140681505Y-47359401D01*
X140848599Y-47526495D01*
X140945384Y-47594265D01*
X141042165Y-47662032D01*
X141042167Y-47662033D01*
X141042170Y-47662035D01*
X141256337Y-47761903D01*
X141484592Y-47823063D01*
X141661034Y-47838500D01*
X141719999Y-47843659D01*
X141720000Y-47843659D01*
X141720001Y-47843659D01*
X141778966Y-47838500D01*
X141955408Y-47823063D01*
X142183663Y-47761903D01*
X142397830Y-47662035D01*
X142591401Y-47526495D01*
X142758495Y-47359401D01*
X142888425Y-47173842D01*
X142943002Y-47130217D01*
X143012500Y-47123023D01*
X143074855Y-47154546D01*
X143091575Y-47173842D01*
X143221500Y-47359395D01*
X143221505Y-47359401D01*
X143388599Y-47526495D01*
X143485384Y-47594265D01*
X143582165Y-47662032D01*
X143582167Y-47662033D01*
X143582170Y-47662035D01*
X143796337Y-47761903D01*
X144024592Y-47823063D01*
X144201034Y-47838500D01*
X144259999Y-47843659D01*
X144260000Y-47843659D01*
X144260001Y-47843659D01*
X144318966Y-47838500D01*
X144495408Y-47823063D01*
X144723663Y-47761903D01*
X144937830Y-47662035D01*
X145131401Y-47526495D01*
X145298495Y-47359401D01*
X145434035Y-47165830D01*
X145533903Y-46951663D01*
X145595063Y-46723408D01*
X145615659Y-46488000D01*
X145595063Y-46252592D01*
X145548626Y-46079285D01*
X145533905Y-46024344D01*
X145533904Y-46024343D01*
X145533903Y-46024337D01*
X145434035Y-45810171D01*
X145428425Y-45802158D01*
X145298494Y-45616597D01*
X145131402Y-45449506D01*
X145131395Y-45449501D01*
X144937834Y-45313967D01*
X144937830Y-45313965D01*
X144937828Y-45313964D01*
X144723663Y-45214097D01*
X144723659Y-45214096D01*
X144723655Y-45214094D01*
X144495413Y-45152938D01*
X144495403Y-45152936D01*
X144260001Y-45132341D01*
X144259999Y-45132341D01*
X144024596Y-45152936D01*
X144024586Y-45152938D01*
X143796344Y-45214094D01*
X143796335Y-45214098D01*
X143582171Y-45313964D01*
X143582169Y-45313965D01*
X143388597Y-45449505D01*
X143221505Y-45616597D01*
X143091575Y-45802158D01*
X143036998Y-45845783D01*
X142967500Y-45852977D01*
X142905145Y-45821454D01*
X142888425Y-45802158D01*
X142758494Y-45616597D01*
X142591402Y-45449506D01*
X142591395Y-45449501D01*
X142397834Y-45313967D01*
X142397830Y-45313965D01*
X142397828Y-45313964D01*
X142183663Y-45214097D01*
X142183659Y-45214096D01*
X142183655Y-45214094D01*
X141955413Y-45152938D01*
X141955403Y-45152936D01*
X141720001Y-45132341D01*
X141719999Y-45132341D01*
X141484596Y-45152936D01*
X141484586Y-45152938D01*
X141256344Y-45214094D01*
X141256335Y-45214098D01*
X141042171Y-45313964D01*
X141042169Y-45313965D01*
X140848597Y-45449505D01*
X140681505Y-45616597D01*
X140551575Y-45802158D01*
X140496998Y-45845783D01*
X140427500Y-45852977D01*
X140365145Y-45821454D01*
X140348425Y-45802158D01*
X140218494Y-45616597D01*
X140051402Y-45449506D01*
X140051395Y-45449501D01*
X139857834Y-45313967D01*
X139857830Y-45313965D01*
X139857828Y-45313964D01*
X139643663Y-45214097D01*
X139643659Y-45214096D01*
X139643655Y-45214094D01*
X139415413Y-45152938D01*
X139415403Y-45152936D01*
X139180001Y-45132341D01*
X139179999Y-45132341D01*
X138944596Y-45152936D01*
X138944586Y-45152938D01*
X138716344Y-45214094D01*
X138716335Y-45214098D01*
X138502171Y-45313964D01*
X138502169Y-45313965D01*
X138308597Y-45449505D01*
X138141505Y-45616597D01*
X138011575Y-45802158D01*
X137956998Y-45845783D01*
X137887500Y-45852977D01*
X137825145Y-45821454D01*
X137808425Y-45802158D01*
X137678494Y-45616597D01*
X137511402Y-45449506D01*
X137511395Y-45449501D01*
X137317834Y-45313967D01*
X137317830Y-45313965D01*
X137317828Y-45313964D01*
X137103663Y-45214097D01*
X137103659Y-45214096D01*
X137103655Y-45214094D01*
X136875413Y-45152938D01*
X136875403Y-45152936D01*
X136640001Y-45132341D01*
X136639999Y-45132341D01*
X136404596Y-45152936D01*
X136404586Y-45152938D01*
X136176344Y-45214094D01*
X136176335Y-45214098D01*
X135962171Y-45313964D01*
X135962169Y-45313965D01*
X135768597Y-45449505D01*
X135601505Y-45616597D01*
X135471575Y-45802158D01*
X135416998Y-45845783D01*
X135347500Y-45852977D01*
X135285145Y-45821454D01*
X135268425Y-45802158D01*
X135138494Y-45616597D01*
X134971402Y-45449506D01*
X134971395Y-45449501D01*
X134777834Y-45313967D01*
X134777830Y-45313965D01*
X134777828Y-45313964D01*
X134563663Y-45214097D01*
X134563659Y-45214096D01*
X134563655Y-45214094D01*
X134335413Y-45152938D01*
X134335403Y-45152936D01*
X134100001Y-45132341D01*
X134099999Y-45132341D01*
X133864596Y-45152936D01*
X133864586Y-45152938D01*
X133636344Y-45214094D01*
X133636335Y-45214098D01*
X133422171Y-45313964D01*
X133422169Y-45313965D01*
X133228597Y-45449505D01*
X133061505Y-45616597D01*
X132931575Y-45802158D01*
X132876998Y-45845783D01*
X132807500Y-45852977D01*
X132745145Y-45821454D01*
X132728425Y-45802158D01*
X132598494Y-45616597D01*
X132431402Y-45449506D01*
X132431395Y-45449501D01*
X132237834Y-45313967D01*
X132237830Y-45313965D01*
X132237828Y-45313964D01*
X132023663Y-45214097D01*
X132023659Y-45214096D01*
X132023655Y-45214094D01*
X131795413Y-45152938D01*
X131795403Y-45152936D01*
X131560001Y-45132341D01*
X131559999Y-45132341D01*
X131324596Y-45152936D01*
X131324586Y-45152938D01*
X131096344Y-45214094D01*
X131096335Y-45214098D01*
X130882171Y-45313964D01*
X130882169Y-45313965D01*
X130688597Y-45449505D01*
X130521505Y-45616597D01*
X130385965Y-45810169D01*
X130385964Y-45810171D01*
X130286098Y-46024335D01*
X130286094Y-46024344D01*
X130224938Y-46252586D01*
X130224936Y-46252596D01*
X130204341Y-46487999D01*
X127835659Y-46487999D01*
X127815063Y-46252592D01*
X127768626Y-46079285D01*
X127753905Y-46024344D01*
X127753904Y-46024343D01*
X127753903Y-46024337D01*
X127654035Y-45810171D01*
X127648425Y-45802158D01*
X127518494Y-45616597D01*
X127351402Y-45449506D01*
X127351395Y-45449501D01*
X127157834Y-45313967D01*
X127157830Y-45313965D01*
X127157828Y-45313964D01*
X126943663Y-45214097D01*
X126943659Y-45214096D01*
X126943655Y-45214094D01*
X126715413Y-45152938D01*
X126715403Y-45152936D01*
X126480001Y-45132341D01*
X126479999Y-45132341D01*
X126244596Y-45152936D01*
X126244586Y-45152938D01*
X126016344Y-45214094D01*
X126016335Y-45214098D01*
X125802171Y-45313964D01*
X125802169Y-45313965D01*
X125608597Y-45449505D01*
X125441505Y-45616597D01*
X125311575Y-45802158D01*
X125256998Y-45845783D01*
X125187500Y-45852977D01*
X125125145Y-45821454D01*
X125108425Y-45802158D01*
X124978494Y-45616597D01*
X124811402Y-45449506D01*
X124811395Y-45449501D01*
X124617834Y-45313967D01*
X124617830Y-45313965D01*
X124617828Y-45313964D01*
X124403663Y-45214097D01*
X124403659Y-45214096D01*
X124403655Y-45214094D01*
X124175413Y-45152938D01*
X124175403Y-45152936D01*
X123940001Y-45132341D01*
X123939999Y-45132341D01*
X123704596Y-45152936D01*
X123704586Y-45152938D01*
X123476344Y-45214094D01*
X123476335Y-45214098D01*
X123262171Y-45313964D01*
X123262169Y-45313965D01*
X123068600Y-45449503D01*
X122946673Y-45571430D01*
X122885350Y-45604914D01*
X122815658Y-45599930D01*
X122759725Y-45558058D01*
X122742810Y-45527081D01*
X122693797Y-45395671D01*
X122693793Y-45395664D01*
X122607547Y-45280455D01*
X122607544Y-45280452D01*
X122492335Y-45194206D01*
X122492328Y-45194202D01*
X122357482Y-45143908D01*
X122357483Y-45143908D01*
X122297883Y-45137501D01*
X122297881Y-45137500D01*
X122297873Y-45137500D01*
X122297864Y-45137500D01*
X120502129Y-45137500D01*
X120502123Y-45137501D01*
X120442516Y-45143908D01*
X120307671Y-45194202D01*
X120307664Y-45194206D01*
X120192455Y-45280452D01*
X120192452Y-45280455D01*
X120106206Y-45395664D01*
X120106202Y-45395671D01*
X120055908Y-45530517D01*
X120049501Y-45590116D01*
X120049501Y-45590123D01*
X120049500Y-45590135D01*
X117332032Y-45590135D01*
X117191402Y-45449506D01*
X117191395Y-45449501D01*
X116997834Y-45313967D01*
X116997830Y-45313965D01*
X116997828Y-45313964D01*
X116783663Y-45214097D01*
X116783659Y-45214096D01*
X116783655Y-45214094D01*
X116555413Y-45152938D01*
X116555403Y-45152936D01*
X116320001Y-45132341D01*
X116319999Y-45132341D01*
X116084596Y-45152936D01*
X116084586Y-45152938D01*
X115856344Y-45214094D01*
X115856335Y-45214098D01*
X115642171Y-45313964D01*
X115642169Y-45313965D01*
X115448597Y-45449505D01*
X115281505Y-45616597D01*
X115151575Y-45802158D01*
X115096998Y-45845783D01*
X115027500Y-45852977D01*
X114965145Y-45821454D01*
X114948425Y-45802158D01*
X114818494Y-45616597D01*
X114651402Y-45449506D01*
X114651395Y-45449501D01*
X114457834Y-45313967D01*
X114457830Y-45313965D01*
X114457828Y-45313964D01*
X114243663Y-45214097D01*
X114243659Y-45214096D01*
X114243655Y-45214094D01*
X114015413Y-45152938D01*
X114015403Y-45152936D01*
X113780001Y-45132341D01*
X113779999Y-45132341D01*
X113544596Y-45152936D01*
X113544586Y-45152938D01*
X113316344Y-45214094D01*
X113316335Y-45214098D01*
X113102171Y-45313964D01*
X113102169Y-45313965D01*
X112908597Y-45449505D01*
X112741505Y-45616597D01*
X112611575Y-45802158D01*
X112556998Y-45845783D01*
X112487500Y-45852977D01*
X112425145Y-45821454D01*
X112408425Y-45802158D01*
X112278494Y-45616597D01*
X112111402Y-45449506D01*
X112111395Y-45449501D01*
X111917834Y-45313967D01*
X111917830Y-45313965D01*
X111917828Y-45313964D01*
X111703663Y-45214097D01*
X111703659Y-45214096D01*
X111703655Y-45214094D01*
X111475413Y-45152938D01*
X111475403Y-45152936D01*
X111240001Y-45132341D01*
X111239999Y-45132341D01*
X111004596Y-45152936D01*
X111004586Y-45152938D01*
X110776344Y-45214094D01*
X110776335Y-45214098D01*
X110562171Y-45313964D01*
X110562169Y-45313965D01*
X110368597Y-45449505D01*
X110201505Y-45616597D01*
X110071575Y-45802158D01*
X110016998Y-45845783D01*
X109947500Y-45852977D01*
X109885145Y-45821454D01*
X109868425Y-45802158D01*
X109738494Y-45616597D01*
X109571402Y-45449506D01*
X109571395Y-45449501D01*
X109377834Y-45313967D01*
X109377830Y-45313965D01*
X109377828Y-45313964D01*
X109163663Y-45214097D01*
X109163659Y-45214096D01*
X109163655Y-45214094D01*
X108935413Y-45152938D01*
X108935403Y-45152936D01*
X108700001Y-45132341D01*
X108699999Y-45132341D01*
X108464596Y-45152936D01*
X108464586Y-45152938D01*
X108236344Y-45214094D01*
X108236335Y-45214098D01*
X108022171Y-45313964D01*
X108022169Y-45313965D01*
X107828597Y-45449505D01*
X107661505Y-45616597D01*
X107531575Y-45802158D01*
X107476998Y-45845783D01*
X107407500Y-45852977D01*
X107345145Y-45821454D01*
X107328425Y-45802158D01*
X107198494Y-45616597D01*
X107031402Y-45449506D01*
X107031395Y-45449501D01*
X106837834Y-45313967D01*
X106837830Y-45313965D01*
X106837828Y-45313964D01*
X106623663Y-45214097D01*
X106623659Y-45214096D01*
X106623655Y-45214094D01*
X106395413Y-45152938D01*
X106395403Y-45152936D01*
X106160001Y-45132341D01*
X106159999Y-45132341D01*
X105924596Y-45152936D01*
X105924586Y-45152938D01*
X105696344Y-45214094D01*
X105696335Y-45214098D01*
X105482171Y-45313964D01*
X105482169Y-45313965D01*
X105288597Y-45449505D01*
X105121505Y-45616597D01*
X104991575Y-45802158D01*
X104936998Y-45845783D01*
X104867500Y-45852977D01*
X104805145Y-45821454D01*
X104788425Y-45802158D01*
X104658494Y-45616597D01*
X104491402Y-45449506D01*
X104491395Y-45449501D01*
X104297834Y-45313967D01*
X104297830Y-45313965D01*
X104297828Y-45313964D01*
X104083663Y-45214097D01*
X104083659Y-45214096D01*
X104083655Y-45214094D01*
X103855413Y-45152938D01*
X103855403Y-45152936D01*
X103620001Y-45132341D01*
X103619999Y-45132341D01*
X103384596Y-45152936D01*
X103384586Y-45152938D01*
X103156344Y-45214094D01*
X103156335Y-45214098D01*
X102942171Y-45313964D01*
X102942169Y-45313965D01*
X102748597Y-45449505D01*
X102581505Y-45616597D01*
X102451575Y-45802158D01*
X102396998Y-45845783D01*
X102327500Y-45852977D01*
X102265145Y-45821454D01*
X102248425Y-45802158D01*
X102118494Y-45616597D01*
X101951402Y-45449506D01*
X101951395Y-45449501D01*
X101757834Y-45313967D01*
X101757830Y-45313965D01*
X101757828Y-45313964D01*
X101543663Y-45214097D01*
X101543659Y-45214096D01*
X101543655Y-45214094D01*
X101315413Y-45152938D01*
X101315403Y-45152936D01*
X101080001Y-45132341D01*
X101079999Y-45132341D01*
X100844596Y-45152936D01*
X100844586Y-45152938D01*
X100616344Y-45214094D01*
X100616335Y-45214098D01*
X100402171Y-45313964D01*
X100402169Y-45313965D01*
X100208597Y-45449505D01*
X100041505Y-45616597D01*
X99905965Y-45810169D01*
X99905964Y-45810171D01*
X99806098Y-46024335D01*
X99806094Y-46024344D01*
X99744938Y-46252586D01*
X99744936Y-46252596D01*
X99724341Y-46487999D01*
X89929832Y-46487999D01*
X89913109Y-46286187D01*
X89913107Y-46286175D01*
X89852063Y-46045118D01*
X89752173Y-45817393D01*
X89616166Y-45609217D01*
X89543717Y-45530517D01*
X89447744Y-45426262D01*
X89251509Y-45273526D01*
X89251507Y-45273525D01*
X89251506Y-45273524D01*
X89032811Y-45155172D01*
X89032802Y-45155169D01*
X88797616Y-45074429D01*
X88552335Y-45033500D01*
X88303665Y-45033500D01*
X88058383Y-45074429D01*
X87823197Y-45155169D01*
X87823188Y-45155172D01*
X87604493Y-45273524D01*
X87408257Y-45426261D01*
X87239833Y-45609217D01*
X87103826Y-45817393D01*
X87003936Y-46045118D01*
X86942892Y-46286175D01*
X86942890Y-46286187D01*
X86922357Y-46533994D01*
X86517814Y-46533994D01*
X86570739Y-46420496D01*
X86629635Y-46200692D01*
X86649468Y-45974000D01*
X86629635Y-45747308D01*
X86570739Y-45527504D01*
X86474568Y-45321266D01*
X86356703Y-45152936D01*
X86344045Y-45134858D01*
X86183141Y-44973954D01*
X85996734Y-44843432D01*
X85996732Y-44843431D01*
X85790497Y-44747261D01*
X85790488Y-44747258D01*
X85570697Y-44688366D01*
X85570693Y-44688365D01*
X85570692Y-44688365D01*
X85570691Y-44688364D01*
X85570686Y-44688364D01*
X85344002Y-44668532D01*
X85343998Y-44668532D01*
X85117313Y-44688364D01*
X85117302Y-44688366D01*
X84897511Y-44747258D01*
X84897502Y-44747261D01*
X84691267Y-44843431D01*
X84691265Y-44843432D01*
X84504858Y-44973954D01*
X84343954Y-45134858D01*
X84213432Y-45321265D01*
X84213431Y-45321267D01*
X84117261Y-45527502D01*
X84117258Y-45527511D01*
X84058366Y-45747302D01*
X84058364Y-45747313D01*
X84038532Y-45973998D01*
X76930429Y-45973998D01*
X76854035Y-45810171D01*
X76848425Y-45802158D01*
X76718494Y-45616597D01*
X76551402Y-45449506D01*
X76551395Y-45449501D01*
X76357834Y-45313967D01*
X76357830Y-45313965D01*
X76357828Y-45313964D01*
X76143663Y-45214097D01*
X76143659Y-45214096D01*
X76143655Y-45214094D01*
X75915413Y-45152938D01*
X75915403Y-45152936D01*
X75680001Y-45132341D01*
X75679999Y-45132341D01*
X75444596Y-45152936D01*
X75444586Y-45152938D01*
X75216344Y-45214094D01*
X75216335Y-45214098D01*
X75002171Y-45313964D01*
X75002169Y-45313965D01*
X74808597Y-45449505D01*
X74641505Y-45616597D01*
X74511575Y-45802158D01*
X74456998Y-45845783D01*
X74387500Y-45852977D01*
X74325145Y-45821454D01*
X74308425Y-45802158D01*
X74178494Y-45616597D01*
X74011402Y-45449506D01*
X74011395Y-45449501D01*
X73817834Y-45313967D01*
X73817830Y-45313965D01*
X73817828Y-45313964D01*
X73603663Y-45214097D01*
X73603659Y-45214096D01*
X73603655Y-45214094D01*
X73375413Y-45152938D01*
X73375403Y-45152936D01*
X73140001Y-45132341D01*
X73139999Y-45132341D01*
X72904596Y-45152936D01*
X72904586Y-45152938D01*
X72676344Y-45214094D01*
X72676335Y-45214098D01*
X72462171Y-45313964D01*
X72462169Y-45313965D01*
X72268597Y-45449505D01*
X72101505Y-45616597D01*
X71965965Y-45810169D01*
X71965964Y-45810171D01*
X71866098Y-46024335D01*
X71866094Y-46024344D01*
X71804938Y-46252586D01*
X71804936Y-46252596D01*
X71784341Y-46487999D01*
X69415659Y-46487999D01*
X69395063Y-46252592D01*
X69348626Y-46079285D01*
X69333905Y-46024344D01*
X69333904Y-46024343D01*
X69333903Y-46024337D01*
X69234035Y-45810171D01*
X69228425Y-45802158D01*
X69098494Y-45616597D01*
X68931402Y-45449506D01*
X68931395Y-45449501D01*
X68737834Y-45313967D01*
X68737830Y-45313965D01*
X68737828Y-45313964D01*
X68523663Y-45214097D01*
X68523659Y-45214096D01*
X68523655Y-45214094D01*
X68295413Y-45152938D01*
X68295403Y-45152936D01*
X68060001Y-45132341D01*
X68059999Y-45132341D01*
X67824596Y-45152936D01*
X67824586Y-45152938D01*
X67596344Y-45214094D01*
X67596335Y-45214098D01*
X67382171Y-45313964D01*
X67382169Y-45313965D01*
X67188600Y-45449503D01*
X67066673Y-45571430D01*
X67005350Y-45604914D01*
X66935658Y-45599930D01*
X66879725Y-45558058D01*
X66862810Y-45527081D01*
X66813797Y-45395671D01*
X66813793Y-45395664D01*
X66727547Y-45280455D01*
X66727544Y-45280452D01*
X66612335Y-45194206D01*
X66612328Y-45194202D01*
X66477482Y-45143908D01*
X66477483Y-45143908D01*
X66417883Y-45137501D01*
X66417881Y-45137500D01*
X66417873Y-45137500D01*
X66417864Y-45137500D01*
X64622129Y-45137500D01*
X64622123Y-45137501D01*
X64562516Y-45143908D01*
X64427671Y-45194202D01*
X64427664Y-45194206D01*
X64312455Y-45280452D01*
X64312452Y-45280455D01*
X64226206Y-45395664D01*
X64226202Y-45395671D01*
X64175908Y-45530517D01*
X64169501Y-45590116D01*
X64169501Y-45590123D01*
X64169500Y-45590135D01*
X59250499Y-45590135D01*
X59250499Y-45590128D01*
X59244091Y-45530517D01*
X59242967Y-45527504D01*
X59193797Y-45395671D01*
X59193793Y-45395664D01*
X59107547Y-45280455D01*
X59107544Y-45280452D01*
X58992335Y-45194206D01*
X58992328Y-45194202D01*
X58857482Y-45143908D01*
X58857483Y-45143908D01*
X58797883Y-45137501D01*
X58797881Y-45137500D01*
X58797873Y-45137500D01*
X58797864Y-45137500D01*
X57002129Y-45137500D01*
X57002123Y-45137501D01*
X56942516Y-45143908D01*
X56807671Y-45194202D01*
X56807664Y-45194206D01*
X56692455Y-45280452D01*
X56692452Y-45280455D01*
X56606206Y-45395664D01*
X56606203Y-45395669D01*
X56557189Y-45527083D01*
X56515317Y-45583016D01*
X56449853Y-45607433D01*
X56381580Y-45592581D01*
X56353326Y-45571430D01*
X56231402Y-45449506D01*
X56231395Y-45449501D01*
X56037834Y-45313967D01*
X56037830Y-45313965D01*
X56037828Y-45313964D01*
X55823663Y-45214097D01*
X55823659Y-45214096D01*
X55823655Y-45214094D01*
X55595413Y-45152938D01*
X55595403Y-45152936D01*
X55360001Y-45132341D01*
X55359999Y-45132341D01*
X55124596Y-45152936D01*
X55124586Y-45152938D01*
X54896344Y-45214094D01*
X54896335Y-45214098D01*
X54682171Y-45313964D01*
X54682169Y-45313965D01*
X54488597Y-45449505D01*
X54321505Y-45616597D01*
X54191575Y-45802158D01*
X54136998Y-45845783D01*
X54067500Y-45852977D01*
X54005145Y-45821454D01*
X53988425Y-45802158D01*
X53858494Y-45616597D01*
X53691402Y-45449506D01*
X53691395Y-45449501D01*
X53497834Y-45313967D01*
X53497830Y-45313965D01*
X53497828Y-45313964D01*
X53283663Y-45214097D01*
X53283659Y-45214096D01*
X53283655Y-45214094D01*
X53055413Y-45152938D01*
X53055403Y-45152936D01*
X52820001Y-45132341D01*
X52819999Y-45132341D01*
X52584596Y-45152936D01*
X52584586Y-45152938D01*
X52356344Y-45214094D01*
X52356335Y-45214098D01*
X52142171Y-45313964D01*
X52142169Y-45313965D01*
X51948597Y-45449505D01*
X51781505Y-45616597D01*
X51651575Y-45802158D01*
X51596998Y-45845783D01*
X51527500Y-45852977D01*
X51465145Y-45821454D01*
X51448425Y-45802158D01*
X51318494Y-45616597D01*
X51151402Y-45449506D01*
X51151395Y-45449501D01*
X50957834Y-45313967D01*
X50957830Y-45313965D01*
X50957828Y-45313964D01*
X50743663Y-45214097D01*
X50743659Y-45214096D01*
X50743655Y-45214094D01*
X50515413Y-45152938D01*
X50515403Y-45152936D01*
X50280001Y-45132341D01*
X50279999Y-45132341D01*
X50044596Y-45152936D01*
X50044586Y-45152938D01*
X49816344Y-45214094D01*
X49816335Y-45214098D01*
X49602171Y-45313964D01*
X49602169Y-45313965D01*
X49408597Y-45449505D01*
X49241505Y-45616597D01*
X49105965Y-45810169D01*
X49105964Y-45810171D01*
X49006098Y-46024335D01*
X49006094Y-46024344D01*
X48944938Y-46252586D01*
X48944936Y-46252596D01*
X48924341Y-46487999D01*
X45085000Y-46487999D01*
X45085000Y-43939000D01*
X45104685Y-43871961D01*
X45157489Y-43826206D01*
X45209000Y-43815000D01*
X146561000Y-43815000D01*
X146628039Y-43834685D01*
G37*
%TD.AperFunction*%
%TD*%
M02*
