%TF.GenerationSoftware,KiCad,Pcbnew,8.0.2-8.0.2-0~ubuntu22.04.1*%
%TF.CreationDate,2024-05-30T13:23:40+02:00*%
%TF.ProjectId,Version 1,56657273-696f-46e2-9031-2e6b69636164,1*%
%TF.SameCoordinates,Original*%
%TF.FileFunction,Legend,Top*%
%TF.FilePolarity,Positive*%
%FSLAX46Y46*%
G04 Gerber Fmt 4.6, Leading zero omitted, Abs format (unit mm)*
G04 Created by KiCad (PCBNEW 8.0.2-8.0.2-0~ubuntu22.04.1) date 2024-05-30 13:23:40*
%MOMM*%
%LPD*%
G01*
G04 APERTURE LIST*
%ADD10C,0.100000*%
%ADD11C,0.150000*%
%ADD12C,0.120000*%
G04 APERTURE END LIST*
D10*
X31351376Y-20693117D02*
X31351376Y-19893117D01*
X31351376Y-19893117D02*
X31541852Y-19893117D01*
X31541852Y-19893117D02*
X31656138Y-19931212D01*
X31656138Y-19931212D02*
X31732328Y-20007402D01*
X31732328Y-20007402D02*
X31770423Y-20083593D01*
X31770423Y-20083593D02*
X31808519Y-20235974D01*
X31808519Y-20235974D02*
X31808519Y-20350260D01*
X31808519Y-20350260D02*
X31770423Y-20502641D01*
X31770423Y-20502641D02*
X31732328Y-20578831D01*
X31732328Y-20578831D02*
X31656138Y-20655022D01*
X31656138Y-20655022D02*
X31541852Y-20693117D01*
X31541852Y-20693117D02*
X31351376Y-20693117D01*
X32151376Y-20693117D02*
X32151376Y-19893117D01*
X32684709Y-19893117D02*
X32837090Y-19893117D01*
X32837090Y-19893117D02*
X32913280Y-19931212D01*
X32913280Y-19931212D02*
X32989471Y-20007402D01*
X32989471Y-20007402D02*
X33027566Y-20159783D01*
X33027566Y-20159783D02*
X33027566Y-20426450D01*
X33027566Y-20426450D02*
X32989471Y-20578831D01*
X32989471Y-20578831D02*
X32913280Y-20655022D01*
X32913280Y-20655022D02*
X32837090Y-20693117D01*
X32837090Y-20693117D02*
X32684709Y-20693117D01*
X32684709Y-20693117D02*
X32608518Y-20655022D01*
X32608518Y-20655022D02*
X32532328Y-20578831D01*
X32532328Y-20578831D02*
X32494232Y-20426450D01*
X32494232Y-20426450D02*
X32494232Y-20159783D01*
X32494232Y-20159783D02*
X32532328Y-20007402D01*
X32532328Y-20007402D02*
X32608518Y-19931212D01*
X32608518Y-19931212D02*
X32684709Y-19893117D01*
X50244120Y-38489534D02*
X50282215Y-38413344D01*
X50282215Y-38413344D02*
X50282215Y-38299058D01*
X50282215Y-38299058D02*
X50244120Y-38184772D01*
X50244120Y-38184772D02*
X50167930Y-38108582D01*
X50167930Y-38108582D02*
X50091739Y-38070487D01*
X50091739Y-38070487D02*
X49939358Y-38032391D01*
X49939358Y-38032391D02*
X49825072Y-38032391D01*
X49825072Y-38032391D02*
X49672691Y-38070487D01*
X49672691Y-38070487D02*
X49596501Y-38108582D01*
X49596501Y-38108582D02*
X49520311Y-38184772D01*
X49520311Y-38184772D02*
X49482215Y-38299058D01*
X49482215Y-38299058D02*
X49482215Y-38375249D01*
X49482215Y-38375249D02*
X49520311Y-38489534D01*
X49520311Y-38489534D02*
X49558406Y-38527630D01*
X49558406Y-38527630D02*
X49825072Y-38527630D01*
X49825072Y-38527630D02*
X49825072Y-38375249D01*
X50282215Y-39022868D02*
X50282215Y-39099058D01*
X50282215Y-39099058D02*
X50244120Y-39175249D01*
X50244120Y-39175249D02*
X50206025Y-39213344D01*
X50206025Y-39213344D02*
X50129834Y-39251439D01*
X50129834Y-39251439D02*
X49977453Y-39289534D01*
X49977453Y-39289534D02*
X49786977Y-39289534D01*
X49786977Y-39289534D02*
X49634596Y-39251439D01*
X49634596Y-39251439D02*
X49558406Y-39213344D01*
X49558406Y-39213344D02*
X49520311Y-39175249D01*
X49520311Y-39175249D02*
X49482215Y-39099058D01*
X49482215Y-39099058D02*
X49482215Y-39022868D01*
X49482215Y-39022868D02*
X49520311Y-38946677D01*
X49520311Y-38946677D02*
X49558406Y-38908582D01*
X49558406Y-38908582D02*
X49634596Y-38870487D01*
X49634596Y-38870487D02*
X49786977Y-38832391D01*
X49786977Y-38832391D02*
X49977453Y-38832391D01*
X49977453Y-38832391D02*
X50129834Y-38870487D01*
X50129834Y-38870487D02*
X50206025Y-38908582D01*
X50206025Y-38908582D02*
X50244120Y-38946677D01*
X50244120Y-38946677D02*
X50282215Y-39022868D01*
X50282215Y-39556201D02*
X50282215Y-40089535D01*
X50282215Y-40089535D02*
X49482215Y-39746677D01*
X111853911Y-35056052D02*
X111892006Y-34941766D01*
X111892006Y-34941766D02*
X111892006Y-34751290D01*
X111892006Y-34751290D02*
X111853911Y-34675099D01*
X111853911Y-34675099D02*
X111815815Y-34637004D01*
X111815815Y-34637004D02*
X111739625Y-34598909D01*
X111739625Y-34598909D02*
X111663434Y-34598909D01*
X111663434Y-34598909D02*
X111587244Y-34637004D01*
X111587244Y-34637004D02*
X111549149Y-34675099D01*
X111549149Y-34675099D02*
X111511053Y-34751290D01*
X111511053Y-34751290D02*
X111472958Y-34903671D01*
X111472958Y-34903671D02*
X111434863Y-34979861D01*
X111434863Y-34979861D02*
X111396768Y-35017956D01*
X111396768Y-35017956D02*
X111320577Y-35056052D01*
X111320577Y-35056052D02*
X111244387Y-35056052D01*
X111244387Y-35056052D02*
X111168196Y-35017956D01*
X111168196Y-35017956D02*
X111130101Y-34979861D01*
X111130101Y-34979861D02*
X111092006Y-34903671D01*
X111092006Y-34903671D02*
X111092006Y-34713194D01*
X111092006Y-34713194D02*
X111130101Y-34598909D01*
X111815815Y-33798908D02*
X111853911Y-33837004D01*
X111853911Y-33837004D02*
X111892006Y-33951289D01*
X111892006Y-33951289D02*
X111892006Y-34027480D01*
X111892006Y-34027480D02*
X111853911Y-34141766D01*
X111853911Y-34141766D02*
X111777720Y-34217956D01*
X111777720Y-34217956D02*
X111701530Y-34256051D01*
X111701530Y-34256051D02*
X111549149Y-34294147D01*
X111549149Y-34294147D02*
X111434863Y-34294147D01*
X111434863Y-34294147D02*
X111282482Y-34256051D01*
X111282482Y-34256051D02*
X111206291Y-34217956D01*
X111206291Y-34217956D02*
X111130101Y-34141766D01*
X111130101Y-34141766D02*
X111092006Y-34027480D01*
X111092006Y-34027480D02*
X111092006Y-33951289D01*
X111092006Y-33951289D02*
X111130101Y-33837004D01*
X111130101Y-33837004D02*
X111168196Y-33798908D01*
X111892006Y-33075099D02*
X111892006Y-33456051D01*
X111892006Y-33456051D02*
X111092006Y-33456051D01*
X56199423Y-57765212D02*
X56123233Y-57727117D01*
X56123233Y-57727117D02*
X56008947Y-57727117D01*
X56008947Y-57727117D02*
X55894661Y-57765212D01*
X55894661Y-57765212D02*
X55818471Y-57841402D01*
X55818471Y-57841402D02*
X55780376Y-57917593D01*
X55780376Y-57917593D02*
X55742280Y-58069974D01*
X55742280Y-58069974D02*
X55742280Y-58184260D01*
X55742280Y-58184260D02*
X55780376Y-58336641D01*
X55780376Y-58336641D02*
X55818471Y-58412831D01*
X55818471Y-58412831D02*
X55894661Y-58489022D01*
X55894661Y-58489022D02*
X56008947Y-58527117D01*
X56008947Y-58527117D02*
X56085138Y-58527117D01*
X56085138Y-58527117D02*
X56199423Y-58489022D01*
X56199423Y-58489022D02*
X56237519Y-58450926D01*
X56237519Y-58450926D02*
X56237519Y-58184260D01*
X56237519Y-58184260D02*
X56085138Y-58184260D01*
X56580376Y-58527117D02*
X56580376Y-57727117D01*
X56580376Y-57727117D02*
X57037519Y-58527117D01*
X57037519Y-58527117D02*
X57037519Y-57727117D01*
X57418471Y-58527117D02*
X57418471Y-57727117D01*
X57418471Y-57727117D02*
X57608947Y-57727117D01*
X57608947Y-57727117D02*
X57723233Y-57765212D01*
X57723233Y-57765212D02*
X57799423Y-57841402D01*
X57799423Y-57841402D02*
X57837518Y-57917593D01*
X57837518Y-57917593D02*
X57875614Y-58069974D01*
X57875614Y-58069974D02*
X57875614Y-58184260D01*
X57875614Y-58184260D02*
X57837518Y-58336641D01*
X57837518Y-58336641D02*
X57799423Y-58412831D01*
X57799423Y-58412831D02*
X57723233Y-58489022D01*
X57723233Y-58489022D02*
X57608947Y-58527117D01*
X57608947Y-58527117D02*
X57418471Y-58527117D01*
X21038215Y-44166487D02*
X21838215Y-44166487D01*
X21457263Y-44166487D02*
X21457263Y-44623630D01*
X21038215Y-44623630D02*
X21838215Y-44623630D01*
X21838215Y-44928391D02*
X21838215Y-45423629D01*
X21838215Y-45423629D02*
X21533453Y-45156963D01*
X21533453Y-45156963D02*
X21533453Y-45271248D01*
X21533453Y-45271248D02*
X21495358Y-45347439D01*
X21495358Y-45347439D02*
X21457263Y-45385534D01*
X21457263Y-45385534D02*
X21381072Y-45423629D01*
X21381072Y-45423629D02*
X21190596Y-45423629D01*
X21190596Y-45423629D02*
X21114406Y-45385534D01*
X21114406Y-45385534D02*
X21076311Y-45347439D01*
X21076311Y-45347439D02*
X21038215Y-45271248D01*
X21038215Y-45271248D02*
X21038215Y-45042677D01*
X21038215Y-45042677D02*
X21076311Y-44966486D01*
X21076311Y-44966486D02*
X21114406Y-44928391D01*
X21076311Y-28634391D02*
X21038215Y-28748677D01*
X21038215Y-28748677D02*
X21038215Y-28939153D01*
X21038215Y-28939153D02*
X21076311Y-29015344D01*
X21076311Y-29015344D02*
X21114406Y-29053439D01*
X21114406Y-29053439D02*
X21190596Y-29091534D01*
X21190596Y-29091534D02*
X21266787Y-29091534D01*
X21266787Y-29091534D02*
X21342977Y-29053439D01*
X21342977Y-29053439D02*
X21381072Y-29015344D01*
X21381072Y-29015344D02*
X21419168Y-28939153D01*
X21419168Y-28939153D02*
X21457263Y-28786772D01*
X21457263Y-28786772D02*
X21495358Y-28710582D01*
X21495358Y-28710582D02*
X21533453Y-28672487D01*
X21533453Y-28672487D02*
X21609644Y-28634391D01*
X21609644Y-28634391D02*
X21685834Y-28634391D01*
X21685834Y-28634391D02*
X21762025Y-28672487D01*
X21762025Y-28672487D02*
X21800120Y-28710582D01*
X21800120Y-28710582D02*
X21838215Y-28786772D01*
X21838215Y-28786772D02*
X21838215Y-28977249D01*
X21838215Y-28977249D02*
X21800120Y-29091534D01*
X21114406Y-29891535D02*
X21076311Y-29853439D01*
X21076311Y-29853439D02*
X21038215Y-29739154D01*
X21038215Y-29739154D02*
X21038215Y-29662963D01*
X21038215Y-29662963D02*
X21076311Y-29548677D01*
X21076311Y-29548677D02*
X21152501Y-29472487D01*
X21152501Y-29472487D02*
X21228691Y-29434392D01*
X21228691Y-29434392D02*
X21381072Y-29396296D01*
X21381072Y-29396296D02*
X21495358Y-29396296D01*
X21495358Y-29396296D02*
X21647739Y-29434392D01*
X21647739Y-29434392D02*
X21723930Y-29472487D01*
X21723930Y-29472487D02*
X21800120Y-29548677D01*
X21800120Y-29548677D02*
X21838215Y-29662963D01*
X21838215Y-29662963D02*
X21838215Y-29739154D01*
X21838215Y-29739154D02*
X21800120Y-29853439D01*
X21800120Y-29853439D02*
X21762025Y-29891535D01*
X21038215Y-30615344D02*
X21038215Y-30234392D01*
X21038215Y-30234392D02*
X21838215Y-30234392D01*
X63400376Y-57727117D02*
X63400376Y-58374736D01*
X63400376Y-58374736D02*
X63438471Y-58450926D01*
X63438471Y-58450926D02*
X63476566Y-58489022D01*
X63476566Y-58489022D02*
X63552757Y-58527117D01*
X63552757Y-58527117D02*
X63705138Y-58527117D01*
X63705138Y-58527117D02*
X63781328Y-58489022D01*
X63781328Y-58489022D02*
X63819423Y-58450926D01*
X63819423Y-58450926D02*
X63857519Y-58374736D01*
X63857519Y-58374736D02*
X63857519Y-57727117D01*
X64200375Y-58489022D02*
X64314661Y-58527117D01*
X64314661Y-58527117D02*
X64505137Y-58527117D01*
X64505137Y-58527117D02*
X64581328Y-58489022D01*
X64581328Y-58489022D02*
X64619423Y-58450926D01*
X64619423Y-58450926D02*
X64657518Y-58374736D01*
X64657518Y-58374736D02*
X64657518Y-58298545D01*
X64657518Y-58298545D02*
X64619423Y-58222355D01*
X64619423Y-58222355D02*
X64581328Y-58184260D01*
X64581328Y-58184260D02*
X64505137Y-58146164D01*
X64505137Y-58146164D02*
X64352756Y-58108069D01*
X64352756Y-58108069D02*
X64276566Y-58069974D01*
X64276566Y-58069974D02*
X64238471Y-58031879D01*
X64238471Y-58031879D02*
X64200375Y-57955688D01*
X64200375Y-57955688D02*
X64200375Y-57879498D01*
X64200375Y-57879498D02*
X64238471Y-57803307D01*
X64238471Y-57803307D02*
X64276566Y-57765212D01*
X64276566Y-57765212D02*
X64352756Y-57727117D01*
X64352756Y-57727117D02*
X64543233Y-57727117D01*
X64543233Y-57727117D02*
X64657518Y-57765212D01*
X65457519Y-58527117D02*
X65190852Y-58146164D01*
X65000376Y-58527117D02*
X65000376Y-57727117D01*
X65000376Y-57727117D02*
X65305138Y-57727117D01*
X65305138Y-57727117D02*
X65381328Y-57765212D01*
X65381328Y-57765212D02*
X65419423Y-57803307D01*
X65419423Y-57803307D02*
X65457519Y-57879498D01*
X65457519Y-57879498D02*
X65457519Y-57993783D01*
X65457519Y-57993783D02*
X65419423Y-58069974D01*
X65419423Y-58069974D02*
X65381328Y-58108069D01*
X65381328Y-58108069D02*
X65305138Y-58146164D01*
X65305138Y-58146164D02*
X65000376Y-58146164D01*
X29014519Y-20616926D02*
X28976423Y-20655022D01*
X28976423Y-20655022D02*
X28862138Y-20693117D01*
X28862138Y-20693117D02*
X28785947Y-20693117D01*
X28785947Y-20693117D02*
X28671661Y-20655022D01*
X28671661Y-20655022D02*
X28595471Y-20578831D01*
X28595471Y-20578831D02*
X28557376Y-20502641D01*
X28557376Y-20502641D02*
X28519280Y-20350260D01*
X28519280Y-20350260D02*
X28519280Y-20235974D01*
X28519280Y-20235974D02*
X28557376Y-20083593D01*
X28557376Y-20083593D02*
X28595471Y-20007402D01*
X28595471Y-20007402D02*
X28671661Y-19931212D01*
X28671661Y-19931212D02*
X28785947Y-19893117D01*
X28785947Y-19893117D02*
X28862138Y-19893117D01*
X28862138Y-19893117D02*
X28976423Y-19931212D01*
X28976423Y-19931212D02*
X29014519Y-19969307D01*
X29738328Y-20693117D02*
X29357376Y-20693117D01*
X29357376Y-20693117D02*
X29357376Y-19893117D01*
X30004995Y-20693117D02*
X30004995Y-19893117D01*
X30462138Y-20693117D02*
X30119280Y-20235974D01*
X30462138Y-19893117D02*
X30004995Y-20350260D01*
X21076311Y-31174391D02*
X21038215Y-31288677D01*
X21038215Y-31288677D02*
X21038215Y-31479153D01*
X21038215Y-31479153D02*
X21076311Y-31555344D01*
X21076311Y-31555344D02*
X21114406Y-31593439D01*
X21114406Y-31593439D02*
X21190596Y-31631534D01*
X21190596Y-31631534D02*
X21266787Y-31631534D01*
X21266787Y-31631534D02*
X21342977Y-31593439D01*
X21342977Y-31593439D02*
X21381072Y-31555344D01*
X21381072Y-31555344D02*
X21419168Y-31479153D01*
X21419168Y-31479153D02*
X21457263Y-31326772D01*
X21457263Y-31326772D02*
X21495358Y-31250582D01*
X21495358Y-31250582D02*
X21533453Y-31212487D01*
X21533453Y-31212487D02*
X21609644Y-31174391D01*
X21609644Y-31174391D02*
X21685834Y-31174391D01*
X21685834Y-31174391D02*
X21762025Y-31212487D01*
X21762025Y-31212487D02*
X21800120Y-31250582D01*
X21800120Y-31250582D02*
X21838215Y-31326772D01*
X21838215Y-31326772D02*
X21838215Y-31517249D01*
X21838215Y-31517249D02*
X21800120Y-31631534D01*
X21038215Y-31974392D02*
X21838215Y-31974392D01*
X21838215Y-31974392D02*
X21838215Y-32164868D01*
X21838215Y-32164868D02*
X21800120Y-32279154D01*
X21800120Y-32279154D02*
X21723930Y-32355344D01*
X21723930Y-32355344D02*
X21647739Y-32393439D01*
X21647739Y-32393439D02*
X21495358Y-32431535D01*
X21495358Y-32431535D02*
X21381072Y-32431535D01*
X21381072Y-32431535D02*
X21228691Y-32393439D01*
X21228691Y-32393439D02*
X21152501Y-32355344D01*
X21152501Y-32355344D02*
X21076311Y-32279154D01*
X21076311Y-32279154D02*
X21038215Y-32164868D01*
X21038215Y-32164868D02*
X21038215Y-31974392D01*
X21266787Y-32736296D02*
X21266787Y-33117249D01*
X21038215Y-32660106D02*
X21838215Y-32926773D01*
X21838215Y-32926773D02*
X21038215Y-33193439D01*
X92566312Y-48348490D02*
X92490122Y-48310395D01*
X92490122Y-48310395D02*
X92375836Y-48310395D01*
X92375836Y-48310395D02*
X92261550Y-48348490D01*
X92261550Y-48348490D02*
X92185360Y-48424680D01*
X92185360Y-48424680D02*
X92147265Y-48500871D01*
X92147265Y-48500871D02*
X92109169Y-48653252D01*
X92109169Y-48653252D02*
X92109169Y-48767538D01*
X92109169Y-48767538D02*
X92147265Y-48919919D01*
X92147265Y-48919919D02*
X92185360Y-48996109D01*
X92185360Y-48996109D02*
X92261550Y-49072300D01*
X92261550Y-49072300D02*
X92375836Y-49110395D01*
X92375836Y-49110395D02*
X92452027Y-49110395D01*
X92452027Y-49110395D02*
X92566312Y-49072300D01*
X92566312Y-49072300D02*
X92604408Y-49034204D01*
X92604408Y-49034204D02*
X92604408Y-48767538D01*
X92604408Y-48767538D02*
X92452027Y-48767538D01*
X92947265Y-49110395D02*
X92947265Y-48310395D01*
X92947265Y-48310395D02*
X93404408Y-49110395D01*
X93404408Y-49110395D02*
X93404408Y-48310395D01*
X93785360Y-49110395D02*
X93785360Y-48310395D01*
X93785360Y-48310395D02*
X93975836Y-48310395D01*
X93975836Y-48310395D02*
X94090122Y-48348490D01*
X94090122Y-48348490D02*
X94166312Y-48424680D01*
X94166312Y-48424680D02*
X94204407Y-48500871D01*
X94204407Y-48500871D02*
X94242503Y-48653252D01*
X94242503Y-48653252D02*
X94242503Y-48767538D01*
X94242503Y-48767538D02*
X94204407Y-48919919D01*
X94204407Y-48919919D02*
X94166312Y-48996109D01*
X94166312Y-48996109D02*
X94090122Y-49072300D01*
X94090122Y-49072300D02*
X93975836Y-49110395D01*
X93975836Y-49110395D02*
X93785360Y-49110395D01*
X71731519Y-58527117D02*
X71464852Y-58146164D01*
X71274376Y-58527117D02*
X71274376Y-57727117D01*
X71274376Y-57727117D02*
X71579138Y-57727117D01*
X71579138Y-57727117D02*
X71655328Y-57765212D01*
X71655328Y-57765212D02*
X71693423Y-57803307D01*
X71693423Y-57803307D02*
X71731519Y-57879498D01*
X71731519Y-57879498D02*
X71731519Y-57993783D01*
X71731519Y-57993783D02*
X71693423Y-58069974D01*
X71693423Y-58069974D02*
X71655328Y-58108069D01*
X71655328Y-58108069D02*
X71579138Y-58146164D01*
X71579138Y-58146164D02*
X71274376Y-58146164D01*
X71960090Y-57727117D02*
X72417233Y-57727117D01*
X72188661Y-58527117D02*
X72188661Y-57727117D01*
X72645804Y-58489022D02*
X72760090Y-58527117D01*
X72760090Y-58527117D02*
X72950566Y-58527117D01*
X72950566Y-58527117D02*
X73026757Y-58489022D01*
X73026757Y-58489022D02*
X73064852Y-58450926D01*
X73064852Y-58450926D02*
X73102947Y-58374736D01*
X73102947Y-58374736D02*
X73102947Y-58298545D01*
X73102947Y-58298545D02*
X73064852Y-58222355D01*
X73064852Y-58222355D02*
X73026757Y-58184260D01*
X73026757Y-58184260D02*
X72950566Y-58146164D01*
X72950566Y-58146164D02*
X72798185Y-58108069D01*
X72798185Y-58108069D02*
X72721995Y-58069974D01*
X72721995Y-58069974D02*
X72683900Y-58031879D01*
X72683900Y-58031879D02*
X72645804Y-57955688D01*
X72645804Y-57955688D02*
X72645804Y-57879498D01*
X72645804Y-57879498D02*
X72683900Y-57803307D01*
X72683900Y-57803307D02*
X72721995Y-57765212D01*
X72721995Y-57765212D02*
X72798185Y-57727117D01*
X72798185Y-57727117D02*
X72988662Y-57727117D01*
X72988662Y-57727117D02*
X73102947Y-57765212D01*
X97189169Y-49072300D02*
X97303455Y-49110395D01*
X97303455Y-49110395D02*
X97493931Y-49110395D01*
X97493931Y-49110395D02*
X97570122Y-49072300D01*
X97570122Y-49072300D02*
X97608217Y-49034204D01*
X97608217Y-49034204D02*
X97646312Y-48958014D01*
X97646312Y-48958014D02*
X97646312Y-48881823D01*
X97646312Y-48881823D02*
X97608217Y-48805633D01*
X97608217Y-48805633D02*
X97570122Y-48767538D01*
X97570122Y-48767538D02*
X97493931Y-48729442D01*
X97493931Y-48729442D02*
X97341550Y-48691347D01*
X97341550Y-48691347D02*
X97265360Y-48653252D01*
X97265360Y-48653252D02*
X97227265Y-48615157D01*
X97227265Y-48615157D02*
X97189169Y-48538966D01*
X97189169Y-48538966D02*
X97189169Y-48462776D01*
X97189169Y-48462776D02*
X97227265Y-48386585D01*
X97227265Y-48386585D02*
X97265360Y-48348490D01*
X97265360Y-48348490D02*
X97341550Y-48310395D01*
X97341550Y-48310395D02*
X97532027Y-48310395D01*
X97532027Y-48310395D02*
X97646312Y-48348490D01*
X98446313Y-49034204D02*
X98408217Y-49072300D01*
X98408217Y-49072300D02*
X98293932Y-49110395D01*
X98293932Y-49110395D02*
X98217741Y-49110395D01*
X98217741Y-49110395D02*
X98103455Y-49072300D01*
X98103455Y-49072300D02*
X98027265Y-48996109D01*
X98027265Y-48996109D02*
X97989170Y-48919919D01*
X97989170Y-48919919D02*
X97951074Y-48767538D01*
X97951074Y-48767538D02*
X97951074Y-48653252D01*
X97951074Y-48653252D02*
X97989170Y-48500871D01*
X97989170Y-48500871D02*
X98027265Y-48424680D01*
X98027265Y-48424680D02*
X98103455Y-48348490D01*
X98103455Y-48348490D02*
X98217741Y-48310395D01*
X98217741Y-48310395D02*
X98293932Y-48310395D01*
X98293932Y-48310395D02*
X98408217Y-48348490D01*
X98408217Y-48348490D02*
X98446313Y-48386585D01*
X99170122Y-49110395D02*
X98789170Y-49110395D01*
X98789170Y-49110395D02*
X98789170Y-48310395D01*
X50244120Y-28329534D02*
X50282215Y-28253344D01*
X50282215Y-28253344D02*
X50282215Y-28139058D01*
X50282215Y-28139058D02*
X50244120Y-28024772D01*
X50244120Y-28024772D02*
X50167930Y-27948582D01*
X50167930Y-27948582D02*
X50091739Y-27910487D01*
X50091739Y-27910487D02*
X49939358Y-27872391D01*
X49939358Y-27872391D02*
X49825072Y-27872391D01*
X49825072Y-27872391D02*
X49672691Y-27910487D01*
X49672691Y-27910487D02*
X49596501Y-27948582D01*
X49596501Y-27948582D02*
X49520311Y-28024772D01*
X49520311Y-28024772D02*
X49482215Y-28139058D01*
X49482215Y-28139058D02*
X49482215Y-28215249D01*
X49482215Y-28215249D02*
X49520311Y-28329534D01*
X49520311Y-28329534D02*
X49558406Y-28367630D01*
X49558406Y-28367630D02*
X49825072Y-28367630D01*
X49825072Y-28367630D02*
X49825072Y-28215249D01*
X50282215Y-28862868D02*
X50282215Y-28939058D01*
X50282215Y-28939058D02*
X50244120Y-29015249D01*
X50244120Y-29015249D02*
X50206025Y-29053344D01*
X50206025Y-29053344D02*
X50129834Y-29091439D01*
X50129834Y-29091439D02*
X49977453Y-29129534D01*
X49977453Y-29129534D02*
X49786977Y-29129534D01*
X49786977Y-29129534D02*
X49634596Y-29091439D01*
X49634596Y-29091439D02*
X49558406Y-29053344D01*
X49558406Y-29053344D02*
X49520311Y-29015249D01*
X49520311Y-29015249D02*
X49482215Y-28939058D01*
X49482215Y-28939058D02*
X49482215Y-28862868D01*
X49482215Y-28862868D02*
X49520311Y-28786677D01*
X49520311Y-28786677D02*
X49558406Y-28748582D01*
X49558406Y-28748582D02*
X49634596Y-28710487D01*
X49634596Y-28710487D02*
X49786977Y-28672391D01*
X49786977Y-28672391D02*
X49977453Y-28672391D01*
X49977453Y-28672391D02*
X50129834Y-28710487D01*
X50129834Y-28710487D02*
X50206025Y-28748582D01*
X50206025Y-28748582D02*
X50244120Y-28786677D01*
X50244120Y-28786677D02*
X50282215Y-28862868D01*
X50282215Y-29396201D02*
X50282215Y-29891439D01*
X50282215Y-29891439D02*
X49977453Y-29624773D01*
X49977453Y-29624773D02*
X49977453Y-29739058D01*
X49977453Y-29739058D02*
X49939358Y-29815249D01*
X49939358Y-29815249D02*
X49901263Y-29853344D01*
X49901263Y-29853344D02*
X49825072Y-29891439D01*
X49825072Y-29891439D02*
X49634596Y-29891439D01*
X49634596Y-29891439D02*
X49558406Y-29853344D01*
X49558406Y-29853344D02*
X49520311Y-29815249D01*
X49520311Y-29815249D02*
X49482215Y-29739058D01*
X49482215Y-29739058D02*
X49482215Y-29510487D01*
X49482215Y-29510487D02*
X49520311Y-29434296D01*
X49520311Y-29434296D02*
X49558406Y-29396201D01*
X40821815Y-32782813D02*
X40859911Y-32820909D01*
X40859911Y-32820909D02*
X40898006Y-32935194D01*
X40898006Y-32935194D02*
X40898006Y-33011385D01*
X40898006Y-33011385D02*
X40859911Y-33125671D01*
X40859911Y-33125671D02*
X40783720Y-33201861D01*
X40783720Y-33201861D02*
X40707530Y-33239956D01*
X40707530Y-33239956D02*
X40555149Y-33278052D01*
X40555149Y-33278052D02*
X40440863Y-33278052D01*
X40440863Y-33278052D02*
X40288482Y-33239956D01*
X40288482Y-33239956D02*
X40212291Y-33201861D01*
X40212291Y-33201861D02*
X40136101Y-33125671D01*
X40136101Y-33125671D02*
X40098006Y-33011385D01*
X40098006Y-33011385D02*
X40098006Y-32935194D01*
X40098006Y-32935194D02*
X40136101Y-32820909D01*
X40136101Y-32820909D02*
X40174196Y-32782813D01*
X40898006Y-32020909D02*
X40898006Y-32478052D01*
X40898006Y-32249480D02*
X40098006Y-32249480D01*
X40098006Y-32249480D02*
X40212291Y-32325671D01*
X40212291Y-32325671D02*
X40288482Y-32401861D01*
X40288482Y-32401861D02*
X40326577Y-32478052D01*
X40898006Y-31297099D02*
X40898006Y-31678051D01*
X40898006Y-31678051D02*
X40098006Y-31678051D01*
X21457263Y-23592487D02*
X21457263Y-23859153D01*
X21038215Y-23973439D02*
X21038215Y-23592487D01*
X21038215Y-23592487D02*
X21838215Y-23592487D01*
X21838215Y-23592487D02*
X21838215Y-23973439D01*
X21038215Y-24316297D02*
X21838215Y-24316297D01*
X21571549Y-25040106D02*
X21038215Y-25040106D01*
X21876311Y-24849630D02*
X21304882Y-24659153D01*
X21304882Y-24659153D02*
X21304882Y-25154392D01*
X73738185Y-57727117D02*
X74233423Y-57727117D01*
X74233423Y-57727117D02*
X73966757Y-58031879D01*
X73966757Y-58031879D02*
X74081042Y-58031879D01*
X74081042Y-58031879D02*
X74157233Y-58069974D01*
X74157233Y-58069974D02*
X74195328Y-58108069D01*
X74195328Y-58108069D02*
X74233423Y-58184260D01*
X74233423Y-58184260D02*
X74233423Y-58374736D01*
X74233423Y-58374736D02*
X74195328Y-58450926D01*
X74195328Y-58450926D02*
X74157233Y-58489022D01*
X74157233Y-58489022D02*
X74081042Y-58527117D01*
X74081042Y-58527117D02*
X73852471Y-58527117D01*
X73852471Y-58527117D02*
X73776280Y-58489022D01*
X73776280Y-58489022D02*
X73738185Y-58450926D01*
X74461995Y-57727117D02*
X74728662Y-58527117D01*
X74728662Y-58527117D02*
X74995328Y-57727117D01*
X75185804Y-57727117D02*
X75681042Y-57727117D01*
X75681042Y-57727117D02*
X75414376Y-58031879D01*
X75414376Y-58031879D02*
X75528661Y-58031879D01*
X75528661Y-58031879D02*
X75604852Y-58069974D01*
X75604852Y-58069974D02*
X75642947Y-58108069D01*
X75642947Y-58108069D02*
X75681042Y-58184260D01*
X75681042Y-58184260D02*
X75681042Y-58374736D01*
X75681042Y-58374736D02*
X75642947Y-58450926D01*
X75642947Y-58450926D02*
X75604852Y-58489022D01*
X75604852Y-58489022D02*
X75528661Y-58527117D01*
X75528661Y-58527117D02*
X75300090Y-58527117D01*
X75300090Y-58527117D02*
X75223899Y-58489022D01*
X75223899Y-58489022D02*
X75185804Y-58450926D01*
X111092006Y-27474147D02*
X111092006Y-26978909D01*
X111092006Y-26978909D02*
X111396768Y-27245575D01*
X111396768Y-27245575D02*
X111396768Y-27131290D01*
X111396768Y-27131290D02*
X111434863Y-27055099D01*
X111434863Y-27055099D02*
X111472958Y-27017004D01*
X111472958Y-27017004D02*
X111549149Y-26978909D01*
X111549149Y-26978909D02*
X111739625Y-26978909D01*
X111739625Y-26978909D02*
X111815815Y-27017004D01*
X111815815Y-27017004D02*
X111853911Y-27055099D01*
X111853911Y-27055099D02*
X111892006Y-27131290D01*
X111892006Y-27131290D02*
X111892006Y-27359861D01*
X111892006Y-27359861D02*
X111853911Y-27436052D01*
X111853911Y-27436052D02*
X111815815Y-27474147D01*
X111092006Y-26750337D02*
X111892006Y-26483670D01*
X111892006Y-26483670D02*
X111092006Y-26217004D01*
X111092006Y-26026528D02*
X111092006Y-25531290D01*
X111092006Y-25531290D02*
X111396768Y-25797956D01*
X111396768Y-25797956D02*
X111396768Y-25683671D01*
X111396768Y-25683671D02*
X111434863Y-25607480D01*
X111434863Y-25607480D02*
X111472958Y-25569385D01*
X111472958Y-25569385D02*
X111549149Y-25531290D01*
X111549149Y-25531290D02*
X111739625Y-25531290D01*
X111739625Y-25531290D02*
X111815815Y-25569385D01*
X111815815Y-25569385D02*
X111853911Y-25607480D01*
X111853911Y-25607480D02*
X111892006Y-25683671D01*
X111892006Y-25683671D02*
X111892006Y-25912242D01*
X111892006Y-25912242D02*
X111853911Y-25988433D01*
X111853911Y-25988433D02*
X111815815Y-26026528D01*
X50244120Y-41029534D02*
X50282215Y-40953344D01*
X50282215Y-40953344D02*
X50282215Y-40839058D01*
X50282215Y-40839058D02*
X50244120Y-40724772D01*
X50244120Y-40724772D02*
X50167930Y-40648582D01*
X50167930Y-40648582D02*
X50091739Y-40610487D01*
X50091739Y-40610487D02*
X49939358Y-40572391D01*
X49939358Y-40572391D02*
X49825072Y-40572391D01*
X49825072Y-40572391D02*
X49672691Y-40610487D01*
X49672691Y-40610487D02*
X49596501Y-40648582D01*
X49596501Y-40648582D02*
X49520311Y-40724772D01*
X49520311Y-40724772D02*
X49482215Y-40839058D01*
X49482215Y-40839058D02*
X49482215Y-40915249D01*
X49482215Y-40915249D02*
X49520311Y-41029534D01*
X49520311Y-41029534D02*
X49558406Y-41067630D01*
X49558406Y-41067630D02*
X49825072Y-41067630D01*
X49825072Y-41067630D02*
X49825072Y-40915249D01*
X49482215Y-41410487D02*
X50282215Y-41410487D01*
X50282215Y-41410487D02*
X49482215Y-41867630D01*
X49482215Y-41867630D02*
X50282215Y-41867630D01*
X49482215Y-42248582D02*
X50282215Y-42248582D01*
X50282215Y-42248582D02*
X50282215Y-42439058D01*
X50282215Y-42439058D02*
X50244120Y-42553344D01*
X50244120Y-42553344D02*
X50167930Y-42629534D01*
X50167930Y-42629534D02*
X50091739Y-42667629D01*
X50091739Y-42667629D02*
X49939358Y-42705725D01*
X49939358Y-42705725D02*
X49825072Y-42705725D01*
X49825072Y-42705725D02*
X49672691Y-42667629D01*
X49672691Y-42667629D02*
X49596501Y-42629534D01*
X49596501Y-42629534D02*
X49520311Y-42553344D01*
X49520311Y-42553344D02*
X49482215Y-42439058D01*
X49482215Y-42439058D02*
X49482215Y-42248582D01*
X40859911Y-43438052D02*
X40898006Y-43323766D01*
X40898006Y-43323766D02*
X40898006Y-43133290D01*
X40898006Y-43133290D02*
X40859911Y-43057099D01*
X40859911Y-43057099D02*
X40821815Y-43019004D01*
X40821815Y-43019004D02*
X40745625Y-42980909D01*
X40745625Y-42980909D02*
X40669434Y-42980909D01*
X40669434Y-42980909D02*
X40593244Y-43019004D01*
X40593244Y-43019004D02*
X40555149Y-43057099D01*
X40555149Y-43057099D02*
X40517053Y-43133290D01*
X40517053Y-43133290D02*
X40478958Y-43285671D01*
X40478958Y-43285671D02*
X40440863Y-43361861D01*
X40440863Y-43361861D02*
X40402768Y-43399956D01*
X40402768Y-43399956D02*
X40326577Y-43438052D01*
X40326577Y-43438052D02*
X40250387Y-43438052D01*
X40250387Y-43438052D02*
X40174196Y-43399956D01*
X40174196Y-43399956D02*
X40136101Y-43361861D01*
X40136101Y-43361861D02*
X40098006Y-43285671D01*
X40098006Y-43285671D02*
X40098006Y-43095194D01*
X40098006Y-43095194D02*
X40136101Y-42980909D01*
X40821815Y-42180908D02*
X40859911Y-42219004D01*
X40859911Y-42219004D02*
X40898006Y-42333289D01*
X40898006Y-42333289D02*
X40898006Y-42409480D01*
X40898006Y-42409480D02*
X40859911Y-42523766D01*
X40859911Y-42523766D02*
X40783720Y-42599956D01*
X40783720Y-42599956D02*
X40707530Y-42638051D01*
X40707530Y-42638051D02*
X40555149Y-42676147D01*
X40555149Y-42676147D02*
X40440863Y-42676147D01*
X40440863Y-42676147D02*
X40288482Y-42638051D01*
X40288482Y-42638051D02*
X40212291Y-42599956D01*
X40212291Y-42599956D02*
X40136101Y-42523766D01*
X40136101Y-42523766D02*
X40098006Y-42409480D01*
X40098006Y-42409480D02*
X40098006Y-42333289D01*
X40098006Y-42333289D02*
X40136101Y-42219004D01*
X40136101Y-42219004D02*
X40174196Y-42180908D01*
X40898006Y-41457099D02*
X40898006Y-41838051D01*
X40898006Y-41838051D02*
X40098006Y-41838051D01*
X78994101Y-26966909D02*
X78956006Y-27043099D01*
X78956006Y-27043099D02*
X78956006Y-27157385D01*
X78956006Y-27157385D02*
X78994101Y-27271671D01*
X78994101Y-27271671D02*
X79070291Y-27347861D01*
X79070291Y-27347861D02*
X79146482Y-27385956D01*
X79146482Y-27385956D02*
X79298863Y-27424052D01*
X79298863Y-27424052D02*
X79413149Y-27424052D01*
X79413149Y-27424052D02*
X79565530Y-27385956D01*
X79565530Y-27385956D02*
X79641720Y-27347861D01*
X79641720Y-27347861D02*
X79717911Y-27271671D01*
X79717911Y-27271671D02*
X79756006Y-27157385D01*
X79756006Y-27157385D02*
X79756006Y-27081194D01*
X79756006Y-27081194D02*
X79717911Y-26966909D01*
X79717911Y-26966909D02*
X79679815Y-26928813D01*
X79679815Y-26928813D02*
X79413149Y-26928813D01*
X79413149Y-26928813D02*
X79413149Y-27081194D01*
X79756006Y-26166909D02*
X79756006Y-26624052D01*
X79756006Y-26395480D02*
X78956006Y-26395480D01*
X78956006Y-26395480D02*
X79070291Y-26471671D01*
X79070291Y-26471671D02*
X79146482Y-26547861D01*
X79146482Y-26547861D02*
X79184577Y-26624052D01*
X79298863Y-25709766D02*
X79260768Y-25785956D01*
X79260768Y-25785956D02*
X79222672Y-25824051D01*
X79222672Y-25824051D02*
X79146482Y-25862147D01*
X79146482Y-25862147D02*
X79108387Y-25862147D01*
X79108387Y-25862147D02*
X79032196Y-25824051D01*
X79032196Y-25824051D02*
X78994101Y-25785956D01*
X78994101Y-25785956D02*
X78956006Y-25709766D01*
X78956006Y-25709766D02*
X78956006Y-25557385D01*
X78956006Y-25557385D02*
X78994101Y-25481194D01*
X78994101Y-25481194D02*
X79032196Y-25443099D01*
X79032196Y-25443099D02*
X79108387Y-25405004D01*
X79108387Y-25405004D02*
X79146482Y-25405004D01*
X79146482Y-25405004D02*
X79222672Y-25443099D01*
X79222672Y-25443099D02*
X79260768Y-25481194D01*
X79260768Y-25481194D02*
X79298863Y-25557385D01*
X79298863Y-25557385D02*
X79298863Y-25709766D01*
X79298863Y-25709766D02*
X79336958Y-25785956D01*
X79336958Y-25785956D02*
X79375053Y-25824051D01*
X79375053Y-25824051D02*
X79451244Y-25862147D01*
X79451244Y-25862147D02*
X79603625Y-25862147D01*
X79603625Y-25862147D02*
X79679815Y-25824051D01*
X79679815Y-25824051D02*
X79717911Y-25785956D01*
X79717911Y-25785956D02*
X79756006Y-25709766D01*
X79756006Y-25709766D02*
X79756006Y-25557385D01*
X79756006Y-25557385D02*
X79717911Y-25481194D01*
X79717911Y-25481194D02*
X79679815Y-25443099D01*
X79679815Y-25443099D02*
X79603625Y-25405004D01*
X79603625Y-25405004D02*
X79451244Y-25405004D01*
X79451244Y-25405004D02*
X79375053Y-25443099D01*
X79375053Y-25443099D02*
X79336958Y-25481194D01*
X79336958Y-25481194D02*
X79298863Y-25557385D01*
X49901263Y-23084487D02*
X49901263Y-23351153D01*
X49482215Y-23465439D02*
X49482215Y-23084487D01*
X49482215Y-23084487D02*
X50282215Y-23084487D01*
X50282215Y-23084487D02*
X50282215Y-23465439D01*
X49482215Y-23808297D02*
X50282215Y-23808297D01*
X50282215Y-23808297D02*
X49482215Y-24265440D01*
X49482215Y-24265440D02*
X50282215Y-24265440D01*
X111092006Y-32338242D02*
X111092006Y-31881099D01*
X111892006Y-32109671D02*
X111092006Y-32109671D01*
X111092006Y-31690623D02*
X111892006Y-31157289D01*
X111092006Y-31157289D02*
X111892006Y-31690623D01*
X21800120Y-26551534D02*
X21838215Y-26475344D01*
X21838215Y-26475344D02*
X21838215Y-26361058D01*
X21838215Y-26361058D02*
X21800120Y-26246772D01*
X21800120Y-26246772D02*
X21723930Y-26170582D01*
X21723930Y-26170582D02*
X21647739Y-26132487D01*
X21647739Y-26132487D02*
X21495358Y-26094391D01*
X21495358Y-26094391D02*
X21381072Y-26094391D01*
X21381072Y-26094391D02*
X21228691Y-26132487D01*
X21228691Y-26132487D02*
X21152501Y-26170582D01*
X21152501Y-26170582D02*
X21076311Y-26246772D01*
X21076311Y-26246772D02*
X21038215Y-26361058D01*
X21038215Y-26361058D02*
X21038215Y-26437249D01*
X21038215Y-26437249D02*
X21076311Y-26551534D01*
X21076311Y-26551534D02*
X21114406Y-26589630D01*
X21114406Y-26589630D02*
X21381072Y-26589630D01*
X21381072Y-26589630D02*
X21381072Y-26437249D01*
X21038215Y-26932487D02*
X21838215Y-26932487D01*
X21838215Y-26932487D02*
X21038215Y-27389630D01*
X21038215Y-27389630D02*
X21838215Y-27389630D01*
X21038215Y-27770582D02*
X21838215Y-27770582D01*
X21838215Y-27770582D02*
X21838215Y-27961058D01*
X21838215Y-27961058D02*
X21800120Y-28075344D01*
X21800120Y-28075344D02*
X21723930Y-28151534D01*
X21723930Y-28151534D02*
X21647739Y-28189629D01*
X21647739Y-28189629D02*
X21495358Y-28227725D01*
X21495358Y-28227725D02*
X21381072Y-28227725D01*
X21381072Y-28227725D02*
X21228691Y-28189629D01*
X21228691Y-28189629D02*
X21152501Y-28151534D01*
X21152501Y-28151534D02*
X21076311Y-28075344D01*
X21076311Y-28075344D02*
X21038215Y-27961058D01*
X21038215Y-27961058D02*
X21038215Y-27770582D01*
X50244120Y-30869534D02*
X50282215Y-30793344D01*
X50282215Y-30793344D02*
X50282215Y-30679058D01*
X50282215Y-30679058D02*
X50244120Y-30564772D01*
X50244120Y-30564772D02*
X50167930Y-30488582D01*
X50167930Y-30488582D02*
X50091739Y-30450487D01*
X50091739Y-30450487D02*
X49939358Y-30412391D01*
X49939358Y-30412391D02*
X49825072Y-30412391D01*
X49825072Y-30412391D02*
X49672691Y-30450487D01*
X49672691Y-30450487D02*
X49596501Y-30488582D01*
X49596501Y-30488582D02*
X49520311Y-30564772D01*
X49520311Y-30564772D02*
X49482215Y-30679058D01*
X49482215Y-30679058D02*
X49482215Y-30755249D01*
X49482215Y-30755249D02*
X49520311Y-30869534D01*
X49520311Y-30869534D02*
X49558406Y-30907630D01*
X49558406Y-30907630D02*
X49825072Y-30907630D01*
X49825072Y-30907630D02*
X49825072Y-30755249D01*
X50282215Y-31402868D02*
X50282215Y-31479058D01*
X50282215Y-31479058D02*
X50244120Y-31555249D01*
X50244120Y-31555249D02*
X50206025Y-31593344D01*
X50206025Y-31593344D02*
X50129834Y-31631439D01*
X50129834Y-31631439D02*
X49977453Y-31669534D01*
X49977453Y-31669534D02*
X49786977Y-31669534D01*
X49786977Y-31669534D02*
X49634596Y-31631439D01*
X49634596Y-31631439D02*
X49558406Y-31593344D01*
X49558406Y-31593344D02*
X49520311Y-31555249D01*
X49520311Y-31555249D02*
X49482215Y-31479058D01*
X49482215Y-31479058D02*
X49482215Y-31402868D01*
X49482215Y-31402868D02*
X49520311Y-31326677D01*
X49520311Y-31326677D02*
X49558406Y-31288582D01*
X49558406Y-31288582D02*
X49634596Y-31250487D01*
X49634596Y-31250487D02*
X49786977Y-31212391D01*
X49786977Y-31212391D02*
X49977453Y-31212391D01*
X49977453Y-31212391D02*
X50129834Y-31250487D01*
X50129834Y-31250487D02*
X50206025Y-31288582D01*
X50206025Y-31288582D02*
X50244120Y-31326677D01*
X50244120Y-31326677D02*
X50282215Y-31402868D01*
X50015549Y-32355249D02*
X49482215Y-32355249D01*
X50320311Y-32164773D02*
X49748882Y-31974296D01*
X49748882Y-31974296D02*
X49748882Y-32469535D01*
X26436423Y-19931212D02*
X26360233Y-19893117D01*
X26360233Y-19893117D02*
X26245947Y-19893117D01*
X26245947Y-19893117D02*
X26131661Y-19931212D01*
X26131661Y-19931212D02*
X26055471Y-20007402D01*
X26055471Y-20007402D02*
X26017376Y-20083593D01*
X26017376Y-20083593D02*
X25979280Y-20235974D01*
X25979280Y-20235974D02*
X25979280Y-20350260D01*
X25979280Y-20350260D02*
X26017376Y-20502641D01*
X26017376Y-20502641D02*
X26055471Y-20578831D01*
X26055471Y-20578831D02*
X26131661Y-20655022D01*
X26131661Y-20655022D02*
X26245947Y-20693117D01*
X26245947Y-20693117D02*
X26322138Y-20693117D01*
X26322138Y-20693117D02*
X26436423Y-20655022D01*
X26436423Y-20655022D02*
X26474519Y-20616926D01*
X26474519Y-20616926D02*
X26474519Y-20350260D01*
X26474519Y-20350260D02*
X26322138Y-20350260D01*
X26817376Y-20693117D02*
X26817376Y-19893117D01*
X26817376Y-19893117D02*
X27274519Y-20693117D01*
X27274519Y-20693117D02*
X27274519Y-19893117D01*
X27655471Y-20693117D02*
X27655471Y-19893117D01*
X27655471Y-19893117D02*
X27845947Y-19893117D01*
X27845947Y-19893117D02*
X27960233Y-19931212D01*
X27960233Y-19931212D02*
X28036423Y-20007402D01*
X28036423Y-20007402D02*
X28074518Y-20083593D01*
X28074518Y-20083593D02*
X28112614Y-20235974D01*
X28112614Y-20235974D02*
X28112614Y-20350260D01*
X28112614Y-20350260D02*
X28074518Y-20502641D01*
X28074518Y-20502641D02*
X28036423Y-20578831D01*
X28036423Y-20578831D02*
X27960233Y-20655022D01*
X27960233Y-20655022D02*
X27845947Y-20693117D01*
X27845947Y-20693117D02*
X27655471Y-20693117D01*
X68480376Y-58527117D02*
X68480376Y-57727117D01*
X68480376Y-57727117D02*
X68670852Y-57727117D01*
X68670852Y-57727117D02*
X68785138Y-57765212D01*
X68785138Y-57765212D02*
X68861328Y-57841402D01*
X68861328Y-57841402D02*
X68899423Y-57917593D01*
X68899423Y-57917593D02*
X68937519Y-58069974D01*
X68937519Y-58069974D02*
X68937519Y-58184260D01*
X68937519Y-58184260D02*
X68899423Y-58336641D01*
X68899423Y-58336641D02*
X68861328Y-58412831D01*
X68861328Y-58412831D02*
X68785138Y-58489022D01*
X68785138Y-58489022D02*
X68670852Y-58527117D01*
X68670852Y-58527117D02*
X68480376Y-58527117D01*
X69166090Y-57727117D02*
X69623233Y-57727117D01*
X69394661Y-58527117D02*
X69394661Y-57727117D01*
X70347043Y-58527117D02*
X70080376Y-58146164D01*
X69889900Y-58527117D02*
X69889900Y-57727117D01*
X69889900Y-57727117D02*
X70194662Y-57727117D01*
X70194662Y-57727117D02*
X70270852Y-57765212D01*
X70270852Y-57765212D02*
X70308947Y-57803307D01*
X70308947Y-57803307D02*
X70347043Y-57879498D01*
X70347043Y-57879498D02*
X70347043Y-57993783D01*
X70347043Y-57993783D02*
X70308947Y-58069974D01*
X70308947Y-58069974D02*
X70270852Y-58108069D01*
X70270852Y-58108069D02*
X70194662Y-58146164D01*
X70194662Y-58146164D02*
X69889900Y-58146164D01*
X21838215Y-33930296D02*
X21838215Y-34425534D01*
X21838215Y-34425534D02*
X21533453Y-34158868D01*
X21533453Y-34158868D02*
X21533453Y-34273153D01*
X21533453Y-34273153D02*
X21495358Y-34349344D01*
X21495358Y-34349344D02*
X21457263Y-34387439D01*
X21457263Y-34387439D02*
X21381072Y-34425534D01*
X21381072Y-34425534D02*
X21190596Y-34425534D01*
X21190596Y-34425534D02*
X21114406Y-34387439D01*
X21114406Y-34387439D02*
X21076311Y-34349344D01*
X21076311Y-34349344D02*
X21038215Y-34273153D01*
X21038215Y-34273153D02*
X21038215Y-34044582D01*
X21038215Y-34044582D02*
X21076311Y-33968391D01*
X21076311Y-33968391D02*
X21114406Y-33930296D01*
X21838215Y-34654106D02*
X21038215Y-34920773D01*
X21038215Y-34920773D02*
X21838215Y-35187439D01*
X21838215Y-35377915D02*
X21838215Y-35873153D01*
X21838215Y-35873153D02*
X21533453Y-35606487D01*
X21533453Y-35606487D02*
X21533453Y-35720772D01*
X21533453Y-35720772D02*
X21495358Y-35796963D01*
X21495358Y-35796963D02*
X21457263Y-35835058D01*
X21457263Y-35835058D02*
X21381072Y-35873153D01*
X21381072Y-35873153D02*
X21190596Y-35873153D01*
X21190596Y-35873153D02*
X21114406Y-35835058D01*
X21114406Y-35835058D02*
X21076311Y-35796963D01*
X21076311Y-35796963D02*
X21038215Y-35720772D01*
X21038215Y-35720772D02*
X21038215Y-35492201D01*
X21038215Y-35492201D02*
X21076311Y-35416010D01*
X21076311Y-35416010D02*
X21114406Y-35377915D01*
X78994101Y-24172909D02*
X78956006Y-24249099D01*
X78956006Y-24249099D02*
X78956006Y-24363385D01*
X78956006Y-24363385D02*
X78994101Y-24477671D01*
X78994101Y-24477671D02*
X79070291Y-24553861D01*
X79070291Y-24553861D02*
X79146482Y-24591956D01*
X79146482Y-24591956D02*
X79298863Y-24630052D01*
X79298863Y-24630052D02*
X79413149Y-24630052D01*
X79413149Y-24630052D02*
X79565530Y-24591956D01*
X79565530Y-24591956D02*
X79641720Y-24553861D01*
X79641720Y-24553861D02*
X79717911Y-24477671D01*
X79717911Y-24477671D02*
X79756006Y-24363385D01*
X79756006Y-24363385D02*
X79756006Y-24287194D01*
X79756006Y-24287194D02*
X79717911Y-24172909D01*
X79717911Y-24172909D02*
X79679815Y-24134813D01*
X79679815Y-24134813D02*
X79413149Y-24134813D01*
X79413149Y-24134813D02*
X79413149Y-24287194D01*
X79756006Y-23372909D02*
X79756006Y-23830052D01*
X79756006Y-23601480D02*
X78956006Y-23601480D01*
X78956006Y-23601480D02*
X79070291Y-23677671D01*
X79070291Y-23677671D02*
X79146482Y-23753861D01*
X79146482Y-23753861D02*
X79184577Y-23830052D01*
X79756006Y-22991956D02*
X79756006Y-22839575D01*
X79756006Y-22839575D02*
X79717911Y-22763385D01*
X79717911Y-22763385D02*
X79679815Y-22725289D01*
X79679815Y-22725289D02*
X79565530Y-22649099D01*
X79565530Y-22649099D02*
X79413149Y-22611004D01*
X79413149Y-22611004D02*
X79108387Y-22611004D01*
X79108387Y-22611004D02*
X79032196Y-22649099D01*
X79032196Y-22649099D02*
X78994101Y-22687194D01*
X78994101Y-22687194D02*
X78956006Y-22763385D01*
X78956006Y-22763385D02*
X78956006Y-22915766D01*
X78956006Y-22915766D02*
X78994101Y-22991956D01*
X78994101Y-22991956D02*
X79032196Y-23030051D01*
X79032196Y-23030051D02*
X79108387Y-23068147D01*
X79108387Y-23068147D02*
X79298863Y-23068147D01*
X79298863Y-23068147D02*
X79375053Y-23030051D01*
X79375053Y-23030051D02*
X79413149Y-22991956D01*
X79413149Y-22991956D02*
X79451244Y-22915766D01*
X79451244Y-22915766D02*
X79451244Y-22763385D01*
X79451244Y-22763385D02*
X79413149Y-22687194D01*
X79413149Y-22687194D02*
X79375053Y-22649099D01*
X79375053Y-22649099D02*
X79298863Y-22611004D01*
X33815185Y-19893117D02*
X34310423Y-19893117D01*
X34310423Y-19893117D02*
X34043757Y-20197879D01*
X34043757Y-20197879D02*
X34158042Y-20197879D01*
X34158042Y-20197879D02*
X34234233Y-20235974D01*
X34234233Y-20235974D02*
X34272328Y-20274069D01*
X34272328Y-20274069D02*
X34310423Y-20350260D01*
X34310423Y-20350260D02*
X34310423Y-20540736D01*
X34310423Y-20540736D02*
X34272328Y-20616926D01*
X34272328Y-20616926D02*
X34234233Y-20655022D01*
X34234233Y-20655022D02*
X34158042Y-20693117D01*
X34158042Y-20693117D02*
X33929471Y-20693117D01*
X33929471Y-20693117D02*
X33853280Y-20655022D01*
X33853280Y-20655022D02*
X33815185Y-20616926D01*
X34538995Y-19893117D02*
X34805662Y-20693117D01*
X34805662Y-20693117D02*
X35072328Y-19893117D01*
X35262804Y-19893117D02*
X35758042Y-19893117D01*
X35758042Y-19893117D02*
X35491376Y-20197879D01*
X35491376Y-20197879D02*
X35605661Y-20197879D01*
X35605661Y-20197879D02*
X35681852Y-20235974D01*
X35681852Y-20235974D02*
X35719947Y-20274069D01*
X35719947Y-20274069D02*
X35758042Y-20350260D01*
X35758042Y-20350260D02*
X35758042Y-20540736D01*
X35758042Y-20540736D02*
X35719947Y-20616926D01*
X35719947Y-20616926D02*
X35681852Y-20655022D01*
X35681852Y-20655022D02*
X35605661Y-20693117D01*
X35605661Y-20693117D02*
X35377090Y-20693117D01*
X35377090Y-20693117D02*
X35300899Y-20655022D01*
X35300899Y-20655022D02*
X35262804Y-20616926D01*
X40821815Y-27702813D02*
X40859911Y-27740909D01*
X40859911Y-27740909D02*
X40898006Y-27855194D01*
X40898006Y-27855194D02*
X40898006Y-27931385D01*
X40898006Y-27931385D02*
X40859911Y-28045671D01*
X40859911Y-28045671D02*
X40783720Y-28121861D01*
X40783720Y-28121861D02*
X40707530Y-28159956D01*
X40707530Y-28159956D02*
X40555149Y-28198052D01*
X40555149Y-28198052D02*
X40440863Y-28198052D01*
X40440863Y-28198052D02*
X40288482Y-28159956D01*
X40288482Y-28159956D02*
X40212291Y-28121861D01*
X40212291Y-28121861D02*
X40136101Y-28045671D01*
X40136101Y-28045671D02*
X40098006Y-27931385D01*
X40098006Y-27931385D02*
X40098006Y-27855194D01*
X40098006Y-27855194D02*
X40136101Y-27740909D01*
X40136101Y-27740909D02*
X40174196Y-27702813D01*
X40174196Y-27398052D02*
X40136101Y-27359956D01*
X40136101Y-27359956D02*
X40098006Y-27283766D01*
X40098006Y-27283766D02*
X40098006Y-27093290D01*
X40098006Y-27093290D02*
X40136101Y-27017099D01*
X40136101Y-27017099D02*
X40174196Y-26979004D01*
X40174196Y-26979004D02*
X40250387Y-26940909D01*
X40250387Y-26940909D02*
X40326577Y-26940909D01*
X40326577Y-26940909D02*
X40440863Y-26979004D01*
X40440863Y-26979004D02*
X40898006Y-27436147D01*
X40898006Y-27436147D02*
X40898006Y-26940909D01*
X40898006Y-26217099D02*
X40898006Y-26598051D01*
X40898006Y-26598051D02*
X40098006Y-26598051D01*
X40821815Y-35322813D02*
X40859911Y-35360909D01*
X40859911Y-35360909D02*
X40898006Y-35475194D01*
X40898006Y-35475194D02*
X40898006Y-35551385D01*
X40898006Y-35551385D02*
X40859911Y-35665671D01*
X40859911Y-35665671D02*
X40783720Y-35741861D01*
X40783720Y-35741861D02*
X40707530Y-35779956D01*
X40707530Y-35779956D02*
X40555149Y-35818052D01*
X40555149Y-35818052D02*
X40440863Y-35818052D01*
X40440863Y-35818052D02*
X40288482Y-35779956D01*
X40288482Y-35779956D02*
X40212291Y-35741861D01*
X40212291Y-35741861D02*
X40136101Y-35665671D01*
X40136101Y-35665671D02*
X40098006Y-35551385D01*
X40098006Y-35551385D02*
X40098006Y-35475194D01*
X40098006Y-35475194D02*
X40136101Y-35360909D01*
X40136101Y-35360909D02*
X40174196Y-35322813D01*
X40898006Y-34560909D02*
X40898006Y-35018052D01*
X40898006Y-34789480D02*
X40098006Y-34789480D01*
X40098006Y-34789480D02*
X40212291Y-34865671D01*
X40212291Y-34865671D02*
X40288482Y-34941861D01*
X40288482Y-34941861D02*
X40326577Y-35018052D01*
X40898006Y-34218051D02*
X40098006Y-34218051D01*
X40478958Y-34218051D02*
X40478958Y-33760908D01*
X40898006Y-33760908D02*
X40098006Y-33760908D01*
X50244120Y-33409534D02*
X50282215Y-33333344D01*
X50282215Y-33333344D02*
X50282215Y-33219058D01*
X50282215Y-33219058D02*
X50244120Y-33104772D01*
X50244120Y-33104772D02*
X50167930Y-33028582D01*
X50167930Y-33028582D02*
X50091739Y-32990487D01*
X50091739Y-32990487D02*
X49939358Y-32952391D01*
X49939358Y-32952391D02*
X49825072Y-32952391D01*
X49825072Y-32952391D02*
X49672691Y-32990487D01*
X49672691Y-32990487D02*
X49596501Y-33028582D01*
X49596501Y-33028582D02*
X49520311Y-33104772D01*
X49520311Y-33104772D02*
X49482215Y-33219058D01*
X49482215Y-33219058D02*
X49482215Y-33295249D01*
X49482215Y-33295249D02*
X49520311Y-33409534D01*
X49520311Y-33409534D02*
X49558406Y-33447630D01*
X49558406Y-33447630D02*
X49825072Y-33447630D01*
X49825072Y-33447630D02*
X49825072Y-33295249D01*
X50282215Y-33942868D02*
X50282215Y-34019058D01*
X50282215Y-34019058D02*
X50244120Y-34095249D01*
X50244120Y-34095249D02*
X50206025Y-34133344D01*
X50206025Y-34133344D02*
X50129834Y-34171439D01*
X50129834Y-34171439D02*
X49977453Y-34209534D01*
X49977453Y-34209534D02*
X49786977Y-34209534D01*
X49786977Y-34209534D02*
X49634596Y-34171439D01*
X49634596Y-34171439D02*
X49558406Y-34133344D01*
X49558406Y-34133344D02*
X49520311Y-34095249D01*
X49520311Y-34095249D02*
X49482215Y-34019058D01*
X49482215Y-34019058D02*
X49482215Y-33942868D01*
X49482215Y-33942868D02*
X49520311Y-33866677D01*
X49520311Y-33866677D02*
X49558406Y-33828582D01*
X49558406Y-33828582D02*
X49634596Y-33790487D01*
X49634596Y-33790487D02*
X49786977Y-33752391D01*
X49786977Y-33752391D02*
X49977453Y-33752391D01*
X49977453Y-33752391D02*
X50129834Y-33790487D01*
X50129834Y-33790487D02*
X50206025Y-33828582D01*
X50206025Y-33828582D02*
X50244120Y-33866677D01*
X50244120Y-33866677D02*
X50282215Y-33942868D01*
X50282215Y-34933344D02*
X50282215Y-34552392D01*
X50282215Y-34552392D02*
X49901263Y-34514296D01*
X49901263Y-34514296D02*
X49939358Y-34552392D01*
X49939358Y-34552392D02*
X49977453Y-34628582D01*
X49977453Y-34628582D02*
X49977453Y-34819058D01*
X49977453Y-34819058D02*
X49939358Y-34895249D01*
X49939358Y-34895249D02*
X49901263Y-34933344D01*
X49901263Y-34933344D02*
X49825072Y-34971439D01*
X49825072Y-34971439D02*
X49634596Y-34971439D01*
X49634596Y-34971439D02*
X49558406Y-34933344D01*
X49558406Y-34933344D02*
X49520311Y-34895249D01*
X49520311Y-34895249D02*
X49482215Y-34819058D01*
X49482215Y-34819058D02*
X49482215Y-34628582D01*
X49482215Y-34628582D02*
X49520311Y-34552392D01*
X49520311Y-34552392D02*
X49558406Y-34514296D01*
X40098006Y-46016147D02*
X40098006Y-45520909D01*
X40098006Y-45520909D02*
X40402768Y-45787575D01*
X40402768Y-45787575D02*
X40402768Y-45673290D01*
X40402768Y-45673290D02*
X40440863Y-45597099D01*
X40440863Y-45597099D02*
X40478958Y-45559004D01*
X40478958Y-45559004D02*
X40555149Y-45520909D01*
X40555149Y-45520909D02*
X40745625Y-45520909D01*
X40745625Y-45520909D02*
X40821815Y-45559004D01*
X40821815Y-45559004D02*
X40859911Y-45597099D01*
X40859911Y-45597099D02*
X40898006Y-45673290D01*
X40898006Y-45673290D02*
X40898006Y-45901861D01*
X40898006Y-45901861D02*
X40859911Y-45978052D01*
X40859911Y-45978052D02*
X40821815Y-46016147D01*
X40098006Y-45292337D02*
X40898006Y-45025670D01*
X40898006Y-45025670D02*
X40098006Y-44759004D01*
X40098006Y-44568528D02*
X40098006Y-44073290D01*
X40098006Y-44073290D02*
X40402768Y-44339956D01*
X40402768Y-44339956D02*
X40402768Y-44225671D01*
X40402768Y-44225671D02*
X40440863Y-44149480D01*
X40440863Y-44149480D02*
X40478958Y-44111385D01*
X40478958Y-44111385D02*
X40555149Y-44073290D01*
X40555149Y-44073290D02*
X40745625Y-44073290D01*
X40745625Y-44073290D02*
X40821815Y-44111385D01*
X40821815Y-44111385D02*
X40859911Y-44149480D01*
X40859911Y-44149480D02*
X40898006Y-44225671D01*
X40898006Y-44225671D02*
X40898006Y-44454242D01*
X40898006Y-44454242D02*
X40859911Y-44530433D01*
X40859911Y-44530433D02*
X40821815Y-44568528D01*
X40859911Y-40898052D02*
X40898006Y-40783766D01*
X40898006Y-40783766D02*
X40898006Y-40593290D01*
X40898006Y-40593290D02*
X40859911Y-40517099D01*
X40859911Y-40517099D02*
X40821815Y-40479004D01*
X40821815Y-40479004D02*
X40745625Y-40440909D01*
X40745625Y-40440909D02*
X40669434Y-40440909D01*
X40669434Y-40440909D02*
X40593244Y-40479004D01*
X40593244Y-40479004D02*
X40555149Y-40517099D01*
X40555149Y-40517099D02*
X40517053Y-40593290D01*
X40517053Y-40593290D02*
X40478958Y-40745671D01*
X40478958Y-40745671D02*
X40440863Y-40821861D01*
X40440863Y-40821861D02*
X40402768Y-40859956D01*
X40402768Y-40859956D02*
X40326577Y-40898052D01*
X40326577Y-40898052D02*
X40250387Y-40898052D01*
X40250387Y-40898052D02*
X40174196Y-40859956D01*
X40174196Y-40859956D02*
X40136101Y-40821861D01*
X40136101Y-40821861D02*
X40098006Y-40745671D01*
X40098006Y-40745671D02*
X40098006Y-40555194D01*
X40098006Y-40555194D02*
X40136101Y-40440909D01*
X40898006Y-40098051D02*
X40098006Y-40098051D01*
X40098006Y-40098051D02*
X40098006Y-39907575D01*
X40098006Y-39907575D02*
X40136101Y-39793289D01*
X40136101Y-39793289D02*
X40212291Y-39717099D01*
X40212291Y-39717099D02*
X40288482Y-39679004D01*
X40288482Y-39679004D02*
X40440863Y-39640908D01*
X40440863Y-39640908D02*
X40555149Y-39640908D01*
X40555149Y-39640908D02*
X40707530Y-39679004D01*
X40707530Y-39679004D02*
X40783720Y-39717099D01*
X40783720Y-39717099D02*
X40859911Y-39793289D01*
X40859911Y-39793289D02*
X40898006Y-39907575D01*
X40898006Y-39907575D02*
X40898006Y-40098051D01*
X40669434Y-39336147D02*
X40669434Y-38955194D01*
X40898006Y-39412337D02*
X40098006Y-39145670D01*
X40098006Y-39145670D02*
X40898006Y-38879004D01*
X94649169Y-49072300D02*
X94763455Y-49110395D01*
X94763455Y-49110395D02*
X94953931Y-49110395D01*
X94953931Y-49110395D02*
X95030122Y-49072300D01*
X95030122Y-49072300D02*
X95068217Y-49034204D01*
X95068217Y-49034204D02*
X95106312Y-48958014D01*
X95106312Y-48958014D02*
X95106312Y-48881823D01*
X95106312Y-48881823D02*
X95068217Y-48805633D01*
X95068217Y-48805633D02*
X95030122Y-48767538D01*
X95030122Y-48767538D02*
X94953931Y-48729442D01*
X94953931Y-48729442D02*
X94801550Y-48691347D01*
X94801550Y-48691347D02*
X94725360Y-48653252D01*
X94725360Y-48653252D02*
X94687265Y-48615157D01*
X94687265Y-48615157D02*
X94649169Y-48538966D01*
X94649169Y-48538966D02*
X94649169Y-48462776D01*
X94649169Y-48462776D02*
X94687265Y-48386585D01*
X94687265Y-48386585D02*
X94725360Y-48348490D01*
X94725360Y-48348490D02*
X94801550Y-48310395D01*
X94801550Y-48310395D02*
X94992027Y-48310395D01*
X94992027Y-48310395D02*
X95106312Y-48348490D01*
X95449170Y-49110395D02*
X95449170Y-48310395D01*
X95449170Y-48310395D02*
X95639646Y-48310395D01*
X95639646Y-48310395D02*
X95753932Y-48348490D01*
X95753932Y-48348490D02*
X95830122Y-48424680D01*
X95830122Y-48424680D02*
X95868217Y-48500871D01*
X95868217Y-48500871D02*
X95906313Y-48653252D01*
X95906313Y-48653252D02*
X95906313Y-48767538D01*
X95906313Y-48767538D02*
X95868217Y-48919919D01*
X95868217Y-48919919D02*
X95830122Y-48996109D01*
X95830122Y-48996109D02*
X95753932Y-49072300D01*
X95753932Y-49072300D02*
X95639646Y-49110395D01*
X95639646Y-49110395D02*
X95449170Y-49110395D01*
X96211074Y-48881823D02*
X96592027Y-48881823D01*
X96134884Y-49110395D02*
X96401551Y-48310395D01*
X96401551Y-48310395D02*
X96668217Y-49110395D01*
X40821815Y-30242813D02*
X40859911Y-30280909D01*
X40859911Y-30280909D02*
X40898006Y-30395194D01*
X40898006Y-30395194D02*
X40898006Y-30471385D01*
X40898006Y-30471385D02*
X40859911Y-30585671D01*
X40859911Y-30585671D02*
X40783720Y-30661861D01*
X40783720Y-30661861D02*
X40707530Y-30699956D01*
X40707530Y-30699956D02*
X40555149Y-30738052D01*
X40555149Y-30738052D02*
X40440863Y-30738052D01*
X40440863Y-30738052D02*
X40288482Y-30699956D01*
X40288482Y-30699956D02*
X40212291Y-30661861D01*
X40212291Y-30661861D02*
X40136101Y-30585671D01*
X40136101Y-30585671D02*
X40098006Y-30471385D01*
X40098006Y-30471385D02*
X40098006Y-30395194D01*
X40098006Y-30395194D02*
X40136101Y-30280909D01*
X40136101Y-30280909D02*
X40174196Y-30242813D01*
X40174196Y-29938052D02*
X40136101Y-29899956D01*
X40136101Y-29899956D02*
X40098006Y-29823766D01*
X40098006Y-29823766D02*
X40098006Y-29633290D01*
X40098006Y-29633290D02*
X40136101Y-29557099D01*
X40136101Y-29557099D02*
X40174196Y-29519004D01*
X40174196Y-29519004D02*
X40250387Y-29480909D01*
X40250387Y-29480909D02*
X40326577Y-29480909D01*
X40326577Y-29480909D02*
X40440863Y-29519004D01*
X40440863Y-29519004D02*
X40898006Y-29976147D01*
X40898006Y-29976147D02*
X40898006Y-29480909D01*
X40898006Y-29138051D02*
X40098006Y-29138051D01*
X40478958Y-29138051D02*
X40478958Y-28680908D01*
X40898006Y-28680908D02*
X40098006Y-28680908D01*
X102993074Y-48310395D02*
X103488312Y-48310395D01*
X103488312Y-48310395D02*
X103221646Y-48615157D01*
X103221646Y-48615157D02*
X103335931Y-48615157D01*
X103335931Y-48615157D02*
X103412122Y-48653252D01*
X103412122Y-48653252D02*
X103450217Y-48691347D01*
X103450217Y-48691347D02*
X103488312Y-48767538D01*
X103488312Y-48767538D02*
X103488312Y-48958014D01*
X103488312Y-48958014D02*
X103450217Y-49034204D01*
X103450217Y-49034204D02*
X103412122Y-49072300D01*
X103412122Y-49072300D02*
X103335931Y-49110395D01*
X103335931Y-49110395D02*
X103107360Y-49110395D01*
X103107360Y-49110395D02*
X103031169Y-49072300D01*
X103031169Y-49072300D02*
X102993074Y-49034204D01*
X103716884Y-48310395D02*
X103983551Y-49110395D01*
X103983551Y-49110395D02*
X104250217Y-48310395D01*
X104440693Y-48310395D02*
X104935931Y-48310395D01*
X104935931Y-48310395D02*
X104669265Y-48615157D01*
X104669265Y-48615157D02*
X104783550Y-48615157D01*
X104783550Y-48615157D02*
X104859741Y-48653252D01*
X104859741Y-48653252D02*
X104897836Y-48691347D01*
X104897836Y-48691347D02*
X104935931Y-48767538D01*
X104935931Y-48767538D02*
X104935931Y-48958014D01*
X104935931Y-48958014D02*
X104897836Y-49034204D01*
X104897836Y-49034204D02*
X104859741Y-49072300D01*
X104859741Y-49072300D02*
X104783550Y-49110395D01*
X104783550Y-49110395D02*
X104554979Y-49110395D01*
X104554979Y-49110395D02*
X104478788Y-49072300D01*
X104478788Y-49072300D02*
X104440693Y-49034204D01*
X21038215Y-41626487D02*
X21838215Y-41626487D01*
X21457263Y-41626487D02*
X21457263Y-42083630D01*
X21038215Y-42083630D02*
X21838215Y-42083630D01*
X21762025Y-42426486D02*
X21800120Y-42464582D01*
X21800120Y-42464582D02*
X21838215Y-42540772D01*
X21838215Y-42540772D02*
X21838215Y-42731248D01*
X21838215Y-42731248D02*
X21800120Y-42807439D01*
X21800120Y-42807439D02*
X21762025Y-42845534D01*
X21762025Y-42845534D02*
X21685834Y-42883629D01*
X21685834Y-42883629D02*
X21609644Y-42883629D01*
X21609644Y-42883629D02*
X21495358Y-42845534D01*
X21495358Y-42845534D02*
X21038215Y-42388391D01*
X21038215Y-42388391D02*
X21038215Y-42883629D01*
X21038215Y-21560487D02*
X21838215Y-21560487D01*
X21838215Y-21560487D02*
X21038215Y-22017630D01*
X21038215Y-22017630D02*
X21838215Y-22017630D01*
X21114406Y-22855725D02*
X21076311Y-22817629D01*
X21076311Y-22817629D02*
X21038215Y-22703344D01*
X21038215Y-22703344D02*
X21038215Y-22627153D01*
X21038215Y-22627153D02*
X21076311Y-22512867D01*
X21076311Y-22512867D02*
X21152501Y-22436677D01*
X21152501Y-22436677D02*
X21228691Y-22398582D01*
X21228691Y-22398582D02*
X21381072Y-22360486D01*
X21381072Y-22360486D02*
X21495358Y-22360486D01*
X21495358Y-22360486D02*
X21647739Y-22398582D01*
X21647739Y-22398582D02*
X21723930Y-22436677D01*
X21723930Y-22436677D02*
X21800120Y-22512867D01*
X21800120Y-22512867D02*
X21838215Y-22627153D01*
X21838215Y-22627153D02*
X21838215Y-22703344D01*
X21838215Y-22703344D02*
X21800120Y-22817629D01*
X21800120Y-22817629D02*
X21762025Y-22855725D01*
X61825519Y-58527117D02*
X61558852Y-58146164D01*
X61368376Y-58527117D02*
X61368376Y-57727117D01*
X61368376Y-57727117D02*
X61673138Y-57727117D01*
X61673138Y-57727117D02*
X61749328Y-57765212D01*
X61749328Y-57765212D02*
X61787423Y-57803307D01*
X61787423Y-57803307D02*
X61825519Y-57879498D01*
X61825519Y-57879498D02*
X61825519Y-57993783D01*
X61825519Y-57993783D02*
X61787423Y-58069974D01*
X61787423Y-58069974D02*
X61749328Y-58108069D01*
X61749328Y-58108069D02*
X61673138Y-58146164D01*
X61673138Y-58146164D02*
X61368376Y-58146164D01*
X62092185Y-57727117D02*
X62625519Y-58527117D01*
X62625519Y-57727117D02*
X62092185Y-58527117D01*
X86698215Y-26081630D02*
X87079168Y-25814963D01*
X86698215Y-25624487D02*
X87498215Y-25624487D01*
X87498215Y-25624487D02*
X87498215Y-25929249D01*
X87498215Y-25929249D02*
X87460120Y-26005439D01*
X87460120Y-26005439D02*
X87422025Y-26043534D01*
X87422025Y-26043534D02*
X87345834Y-26081630D01*
X87345834Y-26081630D02*
X87231549Y-26081630D01*
X87231549Y-26081630D02*
X87155358Y-26043534D01*
X87155358Y-26043534D02*
X87117263Y-26005439D01*
X87117263Y-26005439D02*
X87079168Y-25929249D01*
X87079168Y-25929249D02*
X87079168Y-25624487D01*
X86736311Y-26386391D02*
X86698215Y-26500677D01*
X86698215Y-26500677D02*
X86698215Y-26691153D01*
X86698215Y-26691153D02*
X86736311Y-26767344D01*
X86736311Y-26767344D02*
X86774406Y-26805439D01*
X86774406Y-26805439D02*
X86850596Y-26843534D01*
X86850596Y-26843534D02*
X86926787Y-26843534D01*
X86926787Y-26843534D02*
X87002977Y-26805439D01*
X87002977Y-26805439D02*
X87041072Y-26767344D01*
X87041072Y-26767344D02*
X87079168Y-26691153D01*
X87079168Y-26691153D02*
X87117263Y-26538772D01*
X87117263Y-26538772D02*
X87155358Y-26462582D01*
X87155358Y-26462582D02*
X87193453Y-26424487D01*
X87193453Y-26424487D02*
X87269644Y-26386391D01*
X87269644Y-26386391D02*
X87345834Y-26386391D01*
X87345834Y-26386391D02*
X87422025Y-26424487D01*
X87422025Y-26424487D02*
X87460120Y-26462582D01*
X87460120Y-26462582D02*
X87498215Y-26538772D01*
X87498215Y-26538772D02*
X87498215Y-26729249D01*
X87498215Y-26729249D02*
X87460120Y-26843534D01*
X87498215Y-27072106D02*
X87498215Y-27529249D01*
X86698215Y-27300677D02*
X87498215Y-27300677D01*
X21038215Y-39086487D02*
X21838215Y-39086487D01*
X21457263Y-39086487D02*
X21457263Y-39543630D01*
X21038215Y-39543630D02*
X21838215Y-39543630D01*
X21038215Y-40343629D02*
X21038215Y-39886486D01*
X21038215Y-40115058D02*
X21838215Y-40115058D01*
X21838215Y-40115058D02*
X21723930Y-40038867D01*
X21723930Y-40038867D02*
X21647739Y-39962677D01*
X21647739Y-39962677D02*
X21609644Y-39886486D01*
X99767265Y-49110395D02*
X99767265Y-48310395D01*
X99767265Y-48310395D02*
X99957741Y-48310395D01*
X99957741Y-48310395D02*
X100072027Y-48348490D01*
X100072027Y-48348490D02*
X100148217Y-48424680D01*
X100148217Y-48424680D02*
X100186312Y-48500871D01*
X100186312Y-48500871D02*
X100224408Y-48653252D01*
X100224408Y-48653252D02*
X100224408Y-48767538D01*
X100224408Y-48767538D02*
X100186312Y-48919919D01*
X100186312Y-48919919D02*
X100148217Y-48996109D01*
X100148217Y-48996109D02*
X100072027Y-49072300D01*
X100072027Y-49072300D02*
X99957741Y-49110395D01*
X99957741Y-49110395D02*
X99767265Y-49110395D01*
X101024408Y-49110395D02*
X100757741Y-48729442D01*
X100567265Y-49110395D02*
X100567265Y-48310395D01*
X100567265Y-48310395D02*
X100872027Y-48310395D01*
X100872027Y-48310395D02*
X100948217Y-48348490D01*
X100948217Y-48348490D02*
X100986312Y-48386585D01*
X100986312Y-48386585D02*
X101024408Y-48462776D01*
X101024408Y-48462776D02*
X101024408Y-48577061D01*
X101024408Y-48577061D02*
X100986312Y-48653252D01*
X100986312Y-48653252D02*
X100948217Y-48691347D01*
X100948217Y-48691347D02*
X100872027Y-48729442D01*
X100872027Y-48729442D02*
X100567265Y-48729442D01*
X101367265Y-49110395D02*
X101367265Y-48310395D01*
X101367265Y-48310395D02*
X101557741Y-48310395D01*
X101557741Y-48310395D02*
X101672027Y-48348490D01*
X101672027Y-48348490D02*
X101748217Y-48424680D01*
X101748217Y-48424680D02*
X101786312Y-48500871D01*
X101786312Y-48500871D02*
X101824408Y-48653252D01*
X101824408Y-48653252D02*
X101824408Y-48767538D01*
X101824408Y-48767538D02*
X101786312Y-48919919D01*
X101786312Y-48919919D02*
X101748217Y-48996109D01*
X101748217Y-48996109D02*
X101672027Y-49072300D01*
X101672027Y-49072300D02*
X101557741Y-49110395D01*
X101557741Y-49110395D02*
X101367265Y-49110395D01*
X102319646Y-48729442D02*
X102319646Y-49110395D01*
X102052979Y-48310395D02*
X102319646Y-48729442D01*
X102319646Y-48729442D02*
X102586312Y-48310395D01*
X29319376Y-24249117D02*
X29319376Y-23449117D01*
X29319376Y-23449117D02*
X29509852Y-23449117D01*
X29509852Y-23449117D02*
X29624138Y-23487212D01*
X29624138Y-23487212D02*
X29700328Y-23563402D01*
X29700328Y-23563402D02*
X29738423Y-23639593D01*
X29738423Y-23639593D02*
X29776519Y-23791974D01*
X29776519Y-23791974D02*
X29776519Y-23906260D01*
X29776519Y-23906260D02*
X29738423Y-24058641D01*
X29738423Y-24058641D02*
X29700328Y-24134831D01*
X29700328Y-24134831D02*
X29624138Y-24211022D01*
X29624138Y-24211022D02*
X29509852Y-24249117D01*
X29509852Y-24249117D02*
X29319376Y-24249117D01*
X30424138Y-24211022D02*
X30347947Y-24249117D01*
X30347947Y-24249117D02*
X30195566Y-24249117D01*
X30195566Y-24249117D02*
X30119376Y-24211022D01*
X30119376Y-24211022D02*
X30081280Y-24134831D01*
X30081280Y-24134831D02*
X30081280Y-23830069D01*
X30081280Y-23830069D02*
X30119376Y-23753879D01*
X30119376Y-23753879D02*
X30195566Y-23715783D01*
X30195566Y-23715783D02*
X30347947Y-23715783D01*
X30347947Y-23715783D02*
X30424138Y-23753879D01*
X30424138Y-23753879D02*
X30462233Y-23830069D01*
X30462233Y-23830069D02*
X30462233Y-23906260D01*
X30462233Y-23906260D02*
X30081280Y-23982450D01*
X30805090Y-24249117D02*
X30805090Y-23449117D01*
X30805090Y-23753879D02*
X30881280Y-23715783D01*
X30881280Y-23715783D02*
X31033661Y-23715783D01*
X31033661Y-23715783D02*
X31109852Y-23753879D01*
X31109852Y-23753879D02*
X31147947Y-23791974D01*
X31147947Y-23791974D02*
X31186042Y-23868164D01*
X31186042Y-23868164D02*
X31186042Y-24096736D01*
X31186042Y-24096736D02*
X31147947Y-24172926D01*
X31147947Y-24172926D02*
X31109852Y-24211022D01*
X31109852Y-24211022D02*
X31033661Y-24249117D01*
X31033661Y-24249117D02*
X30881280Y-24249117D01*
X30881280Y-24249117D02*
X30805090Y-24211022D01*
X31871757Y-23715783D02*
X31871757Y-24249117D01*
X31528900Y-23715783D02*
X31528900Y-24134831D01*
X31528900Y-24134831D02*
X31566995Y-24211022D01*
X31566995Y-24211022D02*
X31643185Y-24249117D01*
X31643185Y-24249117D02*
X31757471Y-24249117D01*
X31757471Y-24249117D02*
X31833662Y-24211022D01*
X31833662Y-24211022D02*
X31871757Y-24172926D01*
X32595567Y-23715783D02*
X32595567Y-24363402D01*
X32595567Y-24363402D02*
X32557472Y-24439593D01*
X32557472Y-24439593D02*
X32519376Y-24477688D01*
X32519376Y-24477688D02*
X32443186Y-24515783D01*
X32443186Y-24515783D02*
X32328900Y-24515783D01*
X32328900Y-24515783D02*
X32252710Y-24477688D01*
X32595567Y-24211022D02*
X32519376Y-24249117D01*
X32519376Y-24249117D02*
X32366995Y-24249117D01*
X32366995Y-24249117D02*
X32290805Y-24211022D01*
X32290805Y-24211022D02*
X32252710Y-24172926D01*
X32252710Y-24172926D02*
X32214614Y-24096736D01*
X32214614Y-24096736D02*
X32214614Y-23868164D01*
X32214614Y-23868164D02*
X32252710Y-23791974D01*
X32252710Y-23791974D02*
X32290805Y-23753879D01*
X32290805Y-23753879D02*
X32366995Y-23715783D01*
X32366995Y-23715783D02*
X32519376Y-23715783D01*
X32519376Y-23715783D02*
X32595567Y-23753879D01*
X87460120Y-31123534D02*
X87498215Y-31047344D01*
X87498215Y-31047344D02*
X87498215Y-30933058D01*
X87498215Y-30933058D02*
X87460120Y-30818772D01*
X87460120Y-30818772D02*
X87383930Y-30742582D01*
X87383930Y-30742582D02*
X87307739Y-30704487D01*
X87307739Y-30704487D02*
X87155358Y-30666391D01*
X87155358Y-30666391D02*
X87041072Y-30666391D01*
X87041072Y-30666391D02*
X86888691Y-30704487D01*
X86888691Y-30704487D02*
X86812501Y-30742582D01*
X86812501Y-30742582D02*
X86736311Y-30818772D01*
X86736311Y-30818772D02*
X86698215Y-30933058D01*
X86698215Y-30933058D02*
X86698215Y-31009249D01*
X86698215Y-31009249D02*
X86736311Y-31123534D01*
X86736311Y-31123534D02*
X86774406Y-31161630D01*
X86774406Y-31161630D02*
X87041072Y-31161630D01*
X87041072Y-31161630D02*
X87041072Y-31009249D01*
X86698215Y-31504487D02*
X87498215Y-31504487D01*
X87498215Y-31504487D02*
X86698215Y-31961630D01*
X86698215Y-31961630D02*
X87498215Y-31961630D01*
X86698215Y-32342582D02*
X87498215Y-32342582D01*
X87498215Y-32342582D02*
X87498215Y-32533058D01*
X87498215Y-32533058D02*
X87460120Y-32647344D01*
X87460120Y-32647344D02*
X87383930Y-32723534D01*
X87383930Y-32723534D02*
X87307739Y-32761629D01*
X87307739Y-32761629D02*
X87155358Y-32799725D01*
X87155358Y-32799725D02*
X87041072Y-32799725D01*
X87041072Y-32799725D02*
X86888691Y-32761629D01*
X86888691Y-32761629D02*
X86812501Y-32723534D01*
X86812501Y-32723534D02*
X86736311Y-32647344D01*
X86736311Y-32647344D02*
X86698215Y-32533058D01*
X86698215Y-32533058D02*
X86698215Y-32342582D01*
X50244120Y-25789534D02*
X50282215Y-25713344D01*
X50282215Y-25713344D02*
X50282215Y-25599058D01*
X50282215Y-25599058D02*
X50244120Y-25484772D01*
X50244120Y-25484772D02*
X50167930Y-25408582D01*
X50167930Y-25408582D02*
X50091739Y-25370487D01*
X50091739Y-25370487D02*
X49939358Y-25332391D01*
X49939358Y-25332391D02*
X49825072Y-25332391D01*
X49825072Y-25332391D02*
X49672691Y-25370487D01*
X49672691Y-25370487D02*
X49596501Y-25408582D01*
X49596501Y-25408582D02*
X49520311Y-25484772D01*
X49520311Y-25484772D02*
X49482215Y-25599058D01*
X49482215Y-25599058D02*
X49482215Y-25675249D01*
X49482215Y-25675249D02*
X49520311Y-25789534D01*
X49520311Y-25789534D02*
X49558406Y-25827630D01*
X49558406Y-25827630D02*
X49825072Y-25827630D01*
X49825072Y-25827630D02*
X49825072Y-25675249D01*
X50282215Y-26322868D02*
X50282215Y-26399058D01*
X50282215Y-26399058D02*
X50244120Y-26475249D01*
X50244120Y-26475249D02*
X50206025Y-26513344D01*
X50206025Y-26513344D02*
X50129834Y-26551439D01*
X50129834Y-26551439D02*
X49977453Y-26589534D01*
X49977453Y-26589534D02*
X49786977Y-26589534D01*
X49786977Y-26589534D02*
X49634596Y-26551439D01*
X49634596Y-26551439D02*
X49558406Y-26513344D01*
X49558406Y-26513344D02*
X49520311Y-26475249D01*
X49520311Y-26475249D02*
X49482215Y-26399058D01*
X49482215Y-26399058D02*
X49482215Y-26322868D01*
X49482215Y-26322868D02*
X49520311Y-26246677D01*
X49520311Y-26246677D02*
X49558406Y-26208582D01*
X49558406Y-26208582D02*
X49634596Y-26170487D01*
X49634596Y-26170487D02*
X49786977Y-26132391D01*
X49786977Y-26132391D02*
X49977453Y-26132391D01*
X49977453Y-26132391D02*
X50129834Y-26170487D01*
X50129834Y-26170487D02*
X50206025Y-26208582D01*
X50206025Y-26208582D02*
X50244120Y-26246677D01*
X50244120Y-26246677D02*
X50282215Y-26322868D01*
X50206025Y-26894296D02*
X50244120Y-26932392D01*
X50244120Y-26932392D02*
X50282215Y-27008582D01*
X50282215Y-27008582D02*
X50282215Y-27199058D01*
X50282215Y-27199058D02*
X50244120Y-27275249D01*
X50244120Y-27275249D02*
X50206025Y-27313344D01*
X50206025Y-27313344D02*
X50129834Y-27351439D01*
X50129834Y-27351439D02*
X50053644Y-27351439D01*
X50053644Y-27351439D02*
X49939358Y-27313344D01*
X49939358Y-27313344D02*
X49482215Y-26856201D01*
X49482215Y-26856201D02*
X49482215Y-27351439D01*
X78994101Y-32046909D02*
X78956006Y-32123099D01*
X78956006Y-32123099D02*
X78956006Y-32237385D01*
X78956006Y-32237385D02*
X78994101Y-32351671D01*
X78994101Y-32351671D02*
X79070291Y-32427861D01*
X79070291Y-32427861D02*
X79146482Y-32465956D01*
X79146482Y-32465956D02*
X79298863Y-32504052D01*
X79298863Y-32504052D02*
X79413149Y-32504052D01*
X79413149Y-32504052D02*
X79565530Y-32465956D01*
X79565530Y-32465956D02*
X79641720Y-32427861D01*
X79641720Y-32427861D02*
X79717911Y-32351671D01*
X79717911Y-32351671D02*
X79756006Y-32237385D01*
X79756006Y-32237385D02*
X79756006Y-32161194D01*
X79756006Y-32161194D02*
X79717911Y-32046909D01*
X79717911Y-32046909D02*
X79679815Y-32008813D01*
X79679815Y-32008813D02*
X79413149Y-32008813D01*
X79413149Y-32008813D02*
X79413149Y-32161194D01*
X79756006Y-31246909D02*
X79756006Y-31704052D01*
X79756006Y-31475480D02*
X78956006Y-31475480D01*
X78956006Y-31475480D02*
X79070291Y-31551671D01*
X79070291Y-31551671D02*
X79146482Y-31627861D01*
X79146482Y-31627861D02*
X79184577Y-31704052D01*
X78956006Y-30751670D02*
X78956006Y-30675480D01*
X78956006Y-30675480D02*
X78994101Y-30599289D01*
X78994101Y-30599289D02*
X79032196Y-30561194D01*
X79032196Y-30561194D02*
X79108387Y-30523099D01*
X79108387Y-30523099D02*
X79260768Y-30485004D01*
X79260768Y-30485004D02*
X79451244Y-30485004D01*
X79451244Y-30485004D02*
X79603625Y-30523099D01*
X79603625Y-30523099D02*
X79679815Y-30561194D01*
X79679815Y-30561194D02*
X79717911Y-30599289D01*
X79717911Y-30599289D02*
X79756006Y-30675480D01*
X79756006Y-30675480D02*
X79756006Y-30751670D01*
X79756006Y-30751670D02*
X79717911Y-30827861D01*
X79717911Y-30827861D02*
X79679815Y-30865956D01*
X79679815Y-30865956D02*
X79603625Y-30904051D01*
X79603625Y-30904051D02*
X79451244Y-30942147D01*
X79451244Y-30942147D02*
X79260768Y-30942147D01*
X79260768Y-30942147D02*
X79108387Y-30904051D01*
X79108387Y-30904051D02*
X79032196Y-30865956D01*
X79032196Y-30865956D02*
X78994101Y-30827861D01*
X78994101Y-30827861D02*
X78956006Y-30751670D01*
X58714090Y-57727117D02*
X59171233Y-57727117D01*
X58942661Y-58527117D02*
X58942661Y-57727117D01*
X59361709Y-57727117D02*
X59895043Y-58527117D01*
X59895043Y-57727117D02*
X59361709Y-58527117D01*
X50244120Y-35949534D02*
X50282215Y-35873344D01*
X50282215Y-35873344D02*
X50282215Y-35759058D01*
X50282215Y-35759058D02*
X50244120Y-35644772D01*
X50244120Y-35644772D02*
X50167930Y-35568582D01*
X50167930Y-35568582D02*
X50091739Y-35530487D01*
X50091739Y-35530487D02*
X49939358Y-35492391D01*
X49939358Y-35492391D02*
X49825072Y-35492391D01*
X49825072Y-35492391D02*
X49672691Y-35530487D01*
X49672691Y-35530487D02*
X49596501Y-35568582D01*
X49596501Y-35568582D02*
X49520311Y-35644772D01*
X49520311Y-35644772D02*
X49482215Y-35759058D01*
X49482215Y-35759058D02*
X49482215Y-35835249D01*
X49482215Y-35835249D02*
X49520311Y-35949534D01*
X49520311Y-35949534D02*
X49558406Y-35987630D01*
X49558406Y-35987630D02*
X49825072Y-35987630D01*
X49825072Y-35987630D02*
X49825072Y-35835249D01*
X50282215Y-36482868D02*
X50282215Y-36559058D01*
X50282215Y-36559058D02*
X50244120Y-36635249D01*
X50244120Y-36635249D02*
X50206025Y-36673344D01*
X50206025Y-36673344D02*
X50129834Y-36711439D01*
X50129834Y-36711439D02*
X49977453Y-36749534D01*
X49977453Y-36749534D02*
X49786977Y-36749534D01*
X49786977Y-36749534D02*
X49634596Y-36711439D01*
X49634596Y-36711439D02*
X49558406Y-36673344D01*
X49558406Y-36673344D02*
X49520311Y-36635249D01*
X49520311Y-36635249D02*
X49482215Y-36559058D01*
X49482215Y-36559058D02*
X49482215Y-36482868D01*
X49482215Y-36482868D02*
X49520311Y-36406677D01*
X49520311Y-36406677D02*
X49558406Y-36368582D01*
X49558406Y-36368582D02*
X49634596Y-36330487D01*
X49634596Y-36330487D02*
X49786977Y-36292391D01*
X49786977Y-36292391D02*
X49977453Y-36292391D01*
X49977453Y-36292391D02*
X50129834Y-36330487D01*
X50129834Y-36330487D02*
X50206025Y-36368582D01*
X50206025Y-36368582D02*
X50244120Y-36406677D01*
X50244120Y-36406677D02*
X50282215Y-36482868D01*
X50282215Y-37435249D02*
X50282215Y-37282868D01*
X50282215Y-37282868D02*
X50244120Y-37206677D01*
X50244120Y-37206677D02*
X50206025Y-37168582D01*
X50206025Y-37168582D02*
X50091739Y-37092392D01*
X50091739Y-37092392D02*
X49939358Y-37054296D01*
X49939358Y-37054296D02*
X49634596Y-37054296D01*
X49634596Y-37054296D02*
X49558406Y-37092392D01*
X49558406Y-37092392D02*
X49520311Y-37130487D01*
X49520311Y-37130487D02*
X49482215Y-37206677D01*
X49482215Y-37206677D02*
X49482215Y-37359058D01*
X49482215Y-37359058D02*
X49520311Y-37435249D01*
X49520311Y-37435249D02*
X49558406Y-37473344D01*
X49558406Y-37473344D02*
X49634596Y-37511439D01*
X49634596Y-37511439D02*
X49825072Y-37511439D01*
X49825072Y-37511439D02*
X49901263Y-37473344D01*
X49901263Y-37473344D02*
X49939358Y-37435249D01*
X49939358Y-37435249D02*
X49977453Y-37359058D01*
X49977453Y-37359058D02*
X49977453Y-37206677D01*
X49977453Y-37206677D02*
X49939358Y-37130487D01*
X49939358Y-37130487D02*
X49901263Y-37092392D01*
X49901263Y-37092392D02*
X49825072Y-37054296D01*
X78956006Y-35082147D02*
X78956006Y-34586909D01*
X78956006Y-34586909D02*
X79260768Y-34853575D01*
X79260768Y-34853575D02*
X79260768Y-34739290D01*
X79260768Y-34739290D02*
X79298863Y-34663099D01*
X79298863Y-34663099D02*
X79336958Y-34625004D01*
X79336958Y-34625004D02*
X79413149Y-34586909D01*
X79413149Y-34586909D02*
X79603625Y-34586909D01*
X79603625Y-34586909D02*
X79679815Y-34625004D01*
X79679815Y-34625004D02*
X79717911Y-34663099D01*
X79717911Y-34663099D02*
X79756006Y-34739290D01*
X79756006Y-34739290D02*
X79756006Y-34967861D01*
X79756006Y-34967861D02*
X79717911Y-35044052D01*
X79717911Y-35044052D02*
X79679815Y-35082147D01*
X78956006Y-34358337D02*
X79756006Y-34091670D01*
X79756006Y-34091670D02*
X78956006Y-33825004D01*
X78956006Y-33634528D02*
X78956006Y-33139290D01*
X78956006Y-33139290D02*
X79260768Y-33405956D01*
X79260768Y-33405956D02*
X79260768Y-33291671D01*
X79260768Y-33291671D02*
X79298863Y-33215480D01*
X79298863Y-33215480D02*
X79336958Y-33177385D01*
X79336958Y-33177385D02*
X79413149Y-33139290D01*
X79413149Y-33139290D02*
X79603625Y-33139290D01*
X79603625Y-33139290D02*
X79679815Y-33177385D01*
X79679815Y-33177385D02*
X79717911Y-33215480D01*
X79717911Y-33215480D02*
X79756006Y-33291671D01*
X79756006Y-33291671D02*
X79756006Y-33520242D01*
X79756006Y-33520242D02*
X79717911Y-33596433D01*
X79717911Y-33596433D02*
X79679815Y-33634528D01*
X21800120Y-36711534D02*
X21838215Y-36635344D01*
X21838215Y-36635344D02*
X21838215Y-36521058D01*
X21838215Y-36521058D02*
X21800120Y-36406772D01*
X21800120Y-36406772D02*
X21723930Y-36330582D01*
X21723930Y-36330582D02*
X21647739Y-36292487D01*
X21647739Y-36292487D02*
X21495358Y-36254391D01*
X21495358Y-36254391D02*
X21381072Y-36254391D01*
X21381072Y-36254391D02*
X21228691Y-36292487D01*
X21228691Y-36292487D02*
X21152501Y-36330582D01*
X21152501Y-36330582D02*
X21076311Y-36406772D01*
X21076311Y-36406772D02*
X21038215Y-36521058D01*
X21038215Y-36521058D02*
X21038215Y-36597249D01*
X21038215Y-36597249D02*
X21076311Y-36711534D01*
X21076311Y-36711534D02*
X21114406Y-36749630D01*
X21114406Y-36749630D02*
X21381072Y-36749630D01*
X21381072Y-36749630D02*
X21381072Y-36597249D01*
X21038215Y-37092487D02*
X21838215Y-37092487D01*
X21838215Y-37092487D02*
X21038215Y-37549630D01*
X21038215Y-37549630D02*
X21838215Y-37549630D01*
X21038215Y-37930582D02*
X21838215Y-37930582D01*
X21838215Y-37930582D02*
X21838215Y-38121058D01*
X21838215Y-38121058D02*
X21800120Y-38235344D01*
X21800120Y-38235344D02*
X21723930Y-38311534D01*
X21723930Y-38311534D02*
X21647739Y-38349629D01*
X21647739Y-38349629D02*
X21495358Y-38387725D01*
X21495358Y-38387725D02*
X21381072Y-38387725D01*
X21381072Y-38387725D02*
X21228691Y-38349629D01*
X21228691Y-38349629D02*
X21152501Y-38311534D01*
X21152501Y-38311534D02*
X21076311Y-38235344D01*
X21076311Y-38235344D02*
X21038215Y-38121058D01*
X21038215Y-38121058D02*
X21038215Y-37930582D01*
X111892006Y-29480813D02*
X111511053Y-29747480D01*
X111892006Y-29937956D02*
X111092006Y-29937956D01*
X111092006Y-29937956D02*
X111092006Y-29633194D01*
X111092006Y-29633194D02*
X111130101Y-29557004D01*
X111130101Y-29557004D02*
X111168196Y-29518909D01*
X111168196Y-29518909D02*
X111244387Y-29480813D01*
X111244387Y-29480813D02*
X111358672Y-29480813D01*
X111358672Y-29480813D02*
X111434863Y-29518909D01*
X111434863Y-29518909D02*
X111472958Y-29557004D01*
X111472958Y-29557004D02*
X111511053Y-29633194D01*
X111511053Y-29633194D02*
X111511053Y-29937956D01*
X111092006Y-29214147D02*
X111892006Y-28680813D01*
X111092006Y-28680813D02*
X111892006Y-29214147D01*
X86736311Y-36000391D02*
X86698215Y-36114677D01*
X86698215Y-36114677D02*
X86698215Y-36305153D01*
X86698215Y-36305153D02*
X86736311Y-36381344D01*
X86736311Y-36381344D02*
X86774406Y-36419439D01*
X86774406Y-36419439D02*
X86850596Y-36457534D01*
X86850596Y-36457534D02*
X86926787Y-36457534D01*
X86926787Y-36457534D02*
X87002977Y-36419439D01*
X87002977Y-36419439D02*
X87041072Y-36381344D01*
X87041072Y-36381344D02*
X87079168Y-36305153D01*
X87079168Y-36305153D02*
X87117263Y-36152772D01*
X87117263Y-36152772D02*
X87155358Y-36076582D01*
X87155358Y-36076582D02*
X87193453Y-36038487D01*
X87193453Y-36038487D02*
X87269644Y-36000391D01*
X87269644Y-36000391D02*
X87345834Y-36000391D01*
X87345834Y-36000391D02*
X87422025Y-36038487D01*
X87422025Y-36038487D02*
X87460120Y-36076582D01*
X87460120Y-36076582D02*
X87498215Y-36152772D01*
X87498215Y-36152772D02*
X87498215Y-36343249D01*
X87498215Y-36343249D02*
X87460120Y-36457534D01*
X87117263Y-37067058D02*
X87079168Y-37181344D01*
X87079168Y-37181344D02*
X87041072Y-37219439D01*
X87041072Y-37219439D02*
X86964882Y-37257535D01*
X86964882Y-37257535D02*
X86850596Y-37257535D01*
X86850596Y-37257535D02*
X86774406Y-37219439D01*
X86774406Y-37219439D02*
X86736311Y-37181344D01*
X86736311Y-37181344D02*
X86698215Y-37105154D01*
X86698215Y-37105154D02*
X86698215Y-36800392D01*
X86698215Y-36800392D02*
X87498215Y-36800392D01*
X87498215Y-36800392D02*
X87498215Y-37067058D01*
X87498215Y-37067058D02*
X87460120Y-37143249D01*
X87460120Y-37143249D02*
X87422025Y-37181344D01*
X87422025Y-37181344D02*
X87345834Y-37219439D01*
X87345834Y-37219439D02*
X87269644Y-37219439D01*
X87269644Y-37219439D02*
X87193453Y-37181344D01*
X87193453Y-37181344D02*
X87155358Y-37143249D01*
X87155358Y-37143249D02*
X87117263Y-37067058D01*
X87117263Y-37067058D02*
X87117263Y-36800392D01*
X87498215Y-37486106D02*
X87498215Y-37943249D01*
X86698215Y-37714677D02*
X87498215Y-37714677D01*
X111853911Y-37596052D02*
X111892006Y-37481766D01*
X111892006Y-37481766D02*
X111892006Y-37291290D01*
X111892006Y-37291290D02*
X111853911Y-37215099D01*
X111853911Y-37215099D02*
X111815815Y-37177004D01*
X111815815Y-37177004D02*
X111739625Y-37138909D01*
X111739625Y-37138909D02*
X111663434Y-37138909D01*
X111663434Y-37138909D02*
X111587244Y-37177004D01*
X111587244Y-37177004D02*
X111549149Y-37215099D01*
X111549149Y-37215099D02*
X111511053Y-37291290D01*
X111511053Y-37291290D02*
X111472958Y-37443671D01*
X111472958Y-37443671D02*
X111434863Y-37519861D01*
X111434863Y-37519861D02*
X111396768Y-37557956D01*
X111396768Y-37557956D02*
X111320577Y-37596052D01*
X111320577Y-37596052D02*
X111244387Y-37596052D01*
X111244387Y-37596052D02*
X111168196Y-37557956D01*
X111168196Y-37557956D02*
X111130101Y-37519861D01*
X111130101Y-37519861D02*
X111092006Y-37443671D01*
X111092006Y-37443671D02*
X111092006Y-37253194D01*
X111092006Y-37253194D02*
X111130101Y-37138909D01*
X111892006Y-36796051D02*
X111092006Y-36796051D01*
X111092006Y-36796051D02*
X111092006Y-36605575D01*
X111092006Y-36605575D02*
X111130101Y-36491289D01*
X111130101Y-36491289D02*
X111206291Y-36415099D01*
X111206291Y-36415099D02*
X111282482Y-36377004D01*
X111282482Y-36377004D02*
X111434863Y-36338908D01*
X111434863Y-36338908D02*
X111549149Y-36338908D01*
X111549149Y-36338908D02*
X111701530Y-36377004D01*
X111701530Y-36377004D02*
X111777720Y-36415099D01*
X111777720Y-36415099D02*
X111853911Y-36491289D01*
X111853911Y-36491289D02*
X111892006Y-36605575D01*
X111892006Y-36605575D02*
X111892006Y-36796051D01*
X111663434Y-36034147D02*
X111663434Y-35653194D01*
X111892006Y-36110337D02*
X111092006Y-35843670D01*
X111092006Y-35843670D02*
X111892006Y-35577004D01*
X40821815Y-22622813D02*
X40859911Y-22660909D01*
X40859911Y-22660909D02*
X40898006Y-22775194D01*
X40898006Y-22775194D02*
X40898006Y-22851385D01*
X40898006Y-22851385D02*
X40859911Y-22965671D01*
X40859911Y-22965671D02*
X40783720Y-23041861D01*
X40783720Y-23041861D02*
X40707530Y-23079956D01*
X40707530Y-23079956D02*
X40555149Y-23118052D01*
X40555149Y-23118052D02*
X40440863Y-23118052D01*
X40440863Y-23118052D02*
X40288482Y-23079956D01*
X40288482Y-23079956D02*
X40212291Y-23041861D01*
X40212291Y-23041861D02*
X40136101Y-22965671D01*
X40136101Y-22965671D02*
X40098006Y-22851385D01*
X40098006Y-22851385D02*
X40098006Y-22775194D01*
X40098006Y-22775194D02*
X40136101Y-22660909D01*
X40136101Y-22660909D02*
X40174196Y-22622813D01*
X40098006Y-22356147D02*
X40098006Y-21860909D01*
X40098006Y-21860909D02*
X40402768Y-22127575D01*
X40402768Y-22127575D02*
X40402768Y-22013290D01*
X40402768Y-22013290D02*
X40440863Y-21937099D01*
X40440863Y-21937099D02*
X40478958Y-21899004D01*
X40478958Y-21899004D02*
X40555149Y-21860909D01*
X40555149Y-21860909D02*
X40745625Y-21860909D01*
X40745625Y-21860909D02*
X40821815Y-21899004D01*
X40821815Y-21899004D02*
X40859911Y-21937099D01*
X40859911Y-21937099D02*
X40898006Y-22013290D01*
X40898006Y-22013290D02*
X40898006Y-22241861D01*
X40898006Y-22241861D02*
X40859911Y-22318052D01*
X40859911Y-22318052D02*
X40821815Y-22356147D01*
X40898006Y-21137099D02*
X40898006Y-21518051D01*
X40898006Y-21518051D02*
X40098006Y-21518051D01*
X87117263Y-28418487D02*
X87117263Y-28685153D01*
X86698215Y-28799439D02*
X86698215Y-28418487D01*
X86698215Y-28418487D02*
X87498215Y-28418487D01*
X87498215Y-28418487D02*
X87498215Y-28799439D01*
X87498215Y-29066106D02*
X86698215Y-29599440D01*
X87498215Y-29599440D02*
X86698215Y-29066106D01*
X86698215Y-29904202D02*
X87498215Y-29904202D01*
X78994101Y-29506909D02*
X78956006Y-29583099D01*
X78956006Y-29583099D02*
X78956006Y-29697385D01*
X78956006Y-29697385D02*
X78994101Y-29811671D01*
X78994101Y-29811671D02*
X79070291Y-29887861D01*
X79070291Y-29887861D02*
X79146482Y-29925956D01*
X79146482Y-29925956D02*
X79298863Y-29964052D01*
X79298863Y-29964052D02*
X79413149Y-29964052D01*
X79413149Y-29964052D02*
X79565530Y-29925956D01*
X79565530Y-29925956D02*
X79641720Y-29887861D01*
X79641720Y-29887861D02*
X79717911Y-29811671D01*
X79717911Y-29811671D02*
X79756006Y-29697385D01*
X79756006Y-29697385D02*
X79756006Y-29621194D01*
X79756006Y-29621194D02*
X79717911Y-29506909D01*
X79717911Y-29506909D02*
X79679815Y-29468813D01*
X79679815Y-29468813D02*
X79413149Y-29468813D01*
X79413149Y-29468813D02*
X79413149Y-29621194D01*
X78956006Y-28973575D02*
X78956006Y-28897385D01*
X78956006Y-28897385D02*
X78994101Y-28821194D01*
X78994101Y-28821194D02*
X79032196Y-28783099D01*
X79032196Y-28783099D02*
X79108387Y-28745004D01*
X79108387Y-28745004D02*
X79260768Y-28706909D01*
X79260768Y-28706909D02*
X79451244Y-28706909D01*
X79451244Y-28706909D02*
X79603625Y-28745004D01*
X79603625Y-28745004D02*
X79679815Y-28783099D01*
X79679815Y-28783099D02*
X79717911Y-28821194D01*
X79717911Y-28821194D02*
X79756006Y-28897385D01*
X79756006Y-28897385D02*
X79756006Y-28973575D01*
X79756006Y-28973575D02*
X79717911Y-29049766D01*
X79717911Y-29049766D02*
X79679815Y-29087861D01*
X79679815Y-29087861D02*
X79603625Y-29125956D01*
X79603625Y-29125956D02*
X79451244Y-29164052D01*
X79451244Y-29164052D02*
X79260768Y-29164052D01*
X79260768Y-29164052D02*
X79108387Y-29125956D01*
X79108387Y-29125956D02*
X79032196Y-29087861D01*
X79032196Y-29087861D02*
X78994101Y-29049766D01*
X78994101Y-29049766D02*
X78956006Y-28973575D01*
X79298863Y-28249766D02*
X79260768Y-28325956D01*
X79260768Y-28325956D02*
X79222672Y-28364051D01*
X79222672Y-28364051D02*
X79146482Y-28402147D01*
X79146482Y-28402147D02*
X79108387Y-28402147D01*
X79108387Y-28402147D02*
X79032196Y-28364051D01*
X79032196Y-28364051D02*
X78994101Y-28325956D01*
X78994101Y-28325956D02*
X78956006Y-28249766D01*
X78956006Y-28249766D02*
X78956006Y-28097385D01*
X78956006Y-28097385D02*
X78994101Y-28021194D01*
X78994101Y-28021194D02*
X79032196Y-27983099D01*
X79032196Y-27983099D02*
X79108387Y-27945004D01*
X79108387Y-27945004D02*
X79146482Y-27945004D01*
X79146482Y-27945004D02*
X79222672Y-27983099D01*
X79222672Y-27983099D02*
X79260768Y-28021194D01*
X79260768Y-28021194D02*
X79298863Y-28097385D01*
X79298863Y-28097385D02*
X79298863Y-28249766D01*
X79298863Y-28249766D02*
X79336958Y-28325956D01*
X79336958Y-28325956D02*
X79375053Y-28364051D01*
X79375053Y-28364051D02*
X79451244Y-28402147D01*
X79451244Y-28402147D02*
X79603625Y-28402147D01*
X79603625Y-28402147D02*
X79679815Y-28364051D01*
X79679815Y-28364051D02*
X79717911Y-28325956D01*
X79717911Y-28325956D02*
X79756006Y-28249766D01*
X79756006Y-28249766D02*
X79756006Y-28097385D01*
X79756006Y-28097385D02*
X79717911Y-28021194D01*
X79717911Y-28021194D02*
X79679815Y-27983099D01*
X79679815Y-27983099D02*
X79603625Y-27945004D01*
X79603625Y-27945004D02*
X79451244Y-27945004D01*
X79451244Y-27945004D02*
X79375053Y-27983099D01*
X79375053Y-27983099D02*
X79336958Y-28021194D01*
X79336958Y-28021194D02*
X79298863Y-28097385D01*
X40821815Y-25162813D02*
X40859911Y-25200909D01*
X40859911Y-25200909D02*
X40898006Y-25315194D01*
X40898006Y-25315194D02*
X40898006Y-25391385D01*
X40898006Y-25391385D02*
X40859911Y-25505671D01*
X40859911Y-25505671D02*
X40783720Y-25581861D01*
X40783720Y-25581861D02*
X40707530Y-25619956D01*
X40707530Y-25619956D02*
X40555149Y-25658052D01*
X40555149Y-25658052D02*
X40440863Y-25658052D01*
X40440863Y-25658052D02*
X40288482Y-25619956D01*
X40288482Y-25619956D02*
X40212291Y-25581861D01*
X40212291Y-25581861D02*
X40136101Y-25505671D01*
X40136101Y-25505671D02*
X40098006Y-25391385D01*
X40098006Y-25391385D02*
X40098006Y-25315194D01*
X40098006Y-25315194D02*
X40136101Y-25200909D01*
X40136101Y-25200909D02*
X40174196Y-25162813D01*
X40098006Y-24896147D02*
X40098006Y-24400909D01*
X40098006Y-24400909D02*
X40402768Y-24667575D01*
X40402768Y-24667575D02*
X40402768Y-24553290D01*
X40402768Y-24553290D02*
X40440863Y-24477099D01*
X40440863Y-24477099D02*
X40478958Y-24439004D01*
X40478958Y-24439004D02*
X40555149Y-24400909D01*
X40555149Y-24400909D02*
X40745625Y-24400909D01*
X40745625Y-24400909D02*
X40821815Y-24439004D01*
X40821815Y-24439004D02*
X40859911Y-24477099D01*
X40859911Y-24477099D02*
X40898006Y-24553290D01*
X40898006Y-24553290D02*
X40898006Y-24781861D01*
X40898006Y-24781861D02*
X40859911Y-24858052D01*
X40859911Y-24858052D02*
X40821815Y-24896147D01*
X40898006Y-24058051D02*
X40098006Y-24058051D01*
X40478958Y-24058051D02*
X40478958Y-23600908D01*
X40898006Y-23600908D02*
X40098006Y-23600908D01*
X66448376Y-58108069D02*
X66715042Y-58108069D01*
X66829328Y-58527117D02*
X66448376Y-58527117D01*
X66448376Y-58527117D02*
X66448376Y-57727117D01*
X66448376Y-57727117D02*
X66829328Y-57727117D01*
X67172186Y-58527117D02*
X67172186Y-57727117D01*
X67172186Y-57727117D02*
X67629329Y-58527117D01*
X67629329Y-58527117D02*
X67629329Y-57727117D01*
X40136101Y-37900909D02*
X40098006Y-37977099D01*
X40098006Y-37977099D02*
X40098006Y-38091385D01*
X40098006Y-38091385D02*
X40136101Y-38205671D01*
X40136101Y-38205671D02*
X40212291Y-38281861D01*
X40212291Y-38281861D02*
X40288482Y-38319956D01*
X40288482Y-38319956D02*
X40440863Y-38358052D01*
X40440863Y-38358052D02*
X40555149Y-38358052D01*
X40555149Y-38358052D02*
X40707530Y-38319956D01*
X40707530Y-38319956D02*
X40783720Y-38281861D01*
X40783720Y-38281861D02*
X40859911Y-38205671D01*
X40859911Y-38205671D02*
X40898006Y-38091385D01*
X40898006Y-38091385D02*
X40898006Y-38015194D01*
X40898006Y-38015194D02*
X40859911Y-37900909D01*
X40859911Y-37900909D02*
X40821815Y-37862813D01*
X40821815Y-37862813D02*
X40555149Y-37862813D01*
X40555149Y-37862813D02*
X40555149Y-38015194D01*
X40898006Y-37519956D02*
X40098006Y-37519956D01*
X40098006Y-37519956D02*
X40898006Y-37062813D01*
X40898006Y-37062813D02*
X40098006Y-37062813D01*
X40898006Y-36681861D02*
X40098006Y-36681861D01*
X40098006Y-36681861D02*
X40098006Y-36491385D01*
X40098006Y-36491385D02*
X40136101Y-36377099D01*
X40136101Y-36377099D02*
X40212291Y-36300909D01*
X40212291Y-36300909D02*
X40288482Y-36262814D01*
X40288482Y-36262814D02*
X40440863Y-36224718D01*
X40440863Y-36224718D02*
X40555149Y-36224718D01*
X40555149Y-36224718D02*
X40707530Y-36262814D01*
X40707530Y-36262814D02*
X40783720Y-36300909D01*
X40783720Y-36300909D02*
X40859911Y-36377099D01*
X40859911Y-36377099D02*
X40898006Y-36491385D01*
X40898006Y-36491385D02*
X40898006Y-36681861D01*
X87498215Y-33384201D02*
X87498215Y-33841344D01*
X86698215Y-33612772D02*
X87498215Y-33612772D01*
X86698215Y-34108011D02*
X87498215Y-34108011D01*
X87498215Y-34108011D02*
X87498215Y-34412773D01*
X87498215Y-34412773D02*
X87460120Y-34488963D01*
X87460120Y-34488963D02*
X87422025Y-34527058D01*
X87422025Y-34527058D02*
X87345834Y-34565154D01*
X87345834Y-34565154D02*
X87231549Y-34565154D01*
X87231549Y-34565154D02*
X87155358Y-34527058D01*
X87155358Y-34527058D02*
X87117263Y-34488963D01*
X87117263Y-34488963D02*
X87079168Y-34412773D01*
X87079168Y-34412773D02*
X87079168Y-34108011D01*
X86736311Y-34869915D02*
X86698215Y-34984201D01*
X86698215Y-34984201D02*
X86698215Y-35174677D01*
X86698215Y-35174677D02*
X86736311Y-35250868D01*
X86736311Y-35250868D02*
X86774406Y-35288963D01*
X86774406Y-35288963D02*
X86850596Y-35327058D01*
X86850596Y-35327058D02*
X86926787Y-35327058D01*
X86926787Y-35327058D02*
X87002977Y-35288963D01*
X87002977Y-35288963D02*
X87041072Y-35250868D01*
X87041072Y-35250868D02*
X87079168Y-35174677D01*
X87079168Y-35174677D02*
X87117263Y-35022296D01*
X87117263Y-35022296D02*
X87155358Y-34946106D01*
X87155358Y-34946106D02*
X87193453Y-34908011D01*
X87193453Y-34908011D02*
X87269644Y-34869915D01*
X87269644Y-34869915D02*
X87345834Y-34869915D01*
X87345834Y-34869915D02*
X87422025Y-34908011D01*
X87422025Y-34908011D02*
X87460120Y-34946106D01*
X87460120Y-34946106D02*
X87498215Y-35022296D01*
X87498215Y-35022296D02*
X87498215Y-35212773D01*
X87498215Y-35212773D02*
X87460120Y-35327058D01*
D11*
X64142920Y-23048850D02*
X64142920Y-23525041D01*
X63809587Y-22525041D02*
X64142920Y-23048850D01*
X64142920Y-23048850D02*
X64476253Y-22525041D01*
X65333396Y-23525041D02*
X64761968Y-23525041D01*
X65047682Y-23525041D02*
X65047682Y-22525041D01*
X65047682Y-22525041D02*
X64952444Y-22667898D01*
X64952444Y-22667898D02*
X64857206Y-22763136D01*
X64857206Y-22763136D02*
X64761968Y-22810755D01*
X102987666Y-52224319D02*
X102987666Y-52938604D01*
X102987666Y-52938604D02*
X102940047Y-53081461D01*
X102940047Y-53081461D02*
X102844809Y-53176700D01*
X102844809Y-53176700D02*
X102701952Y-53224319D01*
X102701952Y-53224319D02*
X102606714Y-53224319D01*
X103606714Y-52652890D02*
X103511476Y-52605271D01*
X103511476Y-52605271D02*
X103463857Y-52557652D01*
X103463857Y-52557652D02*
X103416238Y-52462414D01*
X103416238Y-52462414D02*
X103416238Y-52414795D01*
X103416238Y-52414795D02*
X103463857Y-52319557D01*
X103463857Y-52319557D02*
X103511476Y-52271938D01*
X103511476Y-52271938D02*
X103606714Y-52224319D01*
X103606714Y-52224319D02*
X103797190Y-52224319D01*
X103797190Y-52224319D02*
X103892428Y-52271938D01*
X103892428Y-52271938D02*
X103940047Y-52319557D01*
X103940047Y-52319557D02*
X103987666Y-52414795D01*
X103987666Y-52414795D02*
X103987666Y-52462414D01*
X103987666Y-52462414D02*
X103940047Y-52557652D01*
X103940047Y-52557652D02*
X103892428Y-52605271D01*
X103892428Y-52605271D02*
X103797190Y-52652890D01*
X103797190Y-52652890D02*
X103606714Y-52652890D01*
X103606714Y-52652890D02*
X103511476Y-52700509D01*
X103511476Y-52700509D02*
X103463857Y-52748128D01*
X103463857Y-52748128D02*
X103416238Y-52843366D01*
X103416238Y-52843366D02*
X103416238Y-53033842D01*
X103416238Y-53033842D02*
X103463857Y-53129080D01*
X103463857Y-53129080D02*
X103511476Y-53176700D01*
X103511476Y-53176700D02*
X103606714Y-53224319D01*
X103606714Y-53224319D02*
X103797190Y-53224319D01*
X103797190Y-53224319D02*
X103892428Y-53176700D01*
X103892428Y-53176700D02*
X103940047Y-53129080D01*
X103940047Y-53129080D02*
X103987666Y-53033842D01*
X103987666Y-53033842D02*
X103987666Y-52843366D01*
X103987666Y-52843366D02*
X103940047Y-52748128D01*
X103940047Y-52748128D02*
X103892428Y-52700509D01*
X103892428Y-52700509D02*
X103797190Y-52652890D01*
X63857206Y-32431041D02*
X63857206Y-33240564D01*
X63857206Y-33240564D02*
X63904825Y-33335802D01*
X63904825Y-33335802D02*
X63952444Y-33383422D01*
X63952444Y-33383422D02*
X64047682Y-33431041D01*
X64047682Y-33431041D02*
X64238158Y-33431041D01*
X64238158Y-33431041D02*
X64333396Y-33383422D01*
X64333396Y-33383422D02*
X64381015Y-33335802D01*
X64381015Y-33335802D02*
X64428634Y-33240564D01*
X64428634Y-33240564D02*
X64428634Y-32431041D01*
X65428634Y-33431041D02*
X64857206Y-33431041D01*
X65142920Y-33431041D02*
X65142920Y-32431041D01*
X65142920Y-32431041D02*
X65047682Y-32573898D01*
X65047682Y-32573898D02*
X64952444Y-32669136D01*
X64952444Y-32669136D02*
X64857206Y-32716755D01*
X61706444Y-42659041D02*
X61706444Y-43468564D01*
X61706444Y-43468564D02*
X61754063Y-43563802D01*
X61754063Y-43563802D02*
X61801682Y-43611422D01*
X61801682Y-43611422D02*
X61896920Y-43659041D01*
X61896920Y-43659041D02*
X62087396Y-43659041D01*
X62087396Y-43659041D02*
X62182634Y-43611422D01*
X62182634Y-43611422D02*
X62230253Y-43563802D01*
X62230253Y-43563802D02*
X62277872Y-43468564D01*
X62277872Y-43468564D02*
X62277872Y-42659041D01*
X62706444Y-43611422D02*
X62849301Y-43659041D01*
X62849301Y-43659041D02*
X63087396Y-43659041D01*
X63087396Y-43659041D02*
X63182634Y-43611422D01*
X63182634Y-43611422D02*
X63230253Y-43563802D01*
X63230253Y-43563802D02*
X63277872Y-43468564D01*
X63277872Y-43468564D02*
X63277872Y-43373326D01*
X63277872Y-43373326D02*
X63230253Y-43278088D01*
X63230253Y-43278088D02*
X63182634Y-43230469D01*
X63182634Y-43230469D02*
X63087396Y-43182850D01*
X63087396Y-43182850D02*
X62896920Y-43135231D01*
X62896920Y-43135231D02*
X62801682Y-43087612D01*
X62801682Y-43087612D02*
X62754063Y-43039993D01*
X62754063Y-43039993D02*
X62706444Y-42944755D01*
X62706444Y-42944755D02*
X62706444Y-42849517D01*
X62706444Y-42849517D02*
X62754063Y-42754279D01*
X62754063Y-42754279D02*
X62801682Y-42706660D01*
X62801682Y-42706660D02*
X62896920Y-42659041D01*
X62896920Y-42659041D02*
X63135015Y-42659041D01*
X63135015Y-42659041D02*
X63277872Y-42706660D01*
X64277872Y-43659041D02*
X63944539Y-43182850D01*
X63706444Y-43659041D02*
X63706444Y-42659041D01*
X63706444Y-42659041D02*
X64087396Y-42659041D01*
X64087396Y-42659041D02*
X64182634Y-42706660D01*
X64182634Y-42706660D02*
X64230253Y-42754279D01*
X64230253Y-42754279D02*
X64277872Y-42849517D01*
X64277872Y-42849517D02*
X64277872Y-42992374D01*
X64277872Y-42992374D02*
X64230253Y-43087612D01*
X64230253Y-43087612D02*
X64182634Y-43135231D01*
X64182634Y-43135231D02*
X64087396Y-43182850D01*
X64087396Y-43182850D02*
X63706444Y-43182850D01*
X64468349Y-43754279D02*
X65230253Y-43754279D01*
X65420730Y-43611422D02*
X65563587Y-43659041D01*
X65563587Y-43659041D02*
X65801682Y-43659041D01*
X65801682Y-43659041D02*
X65896920Y-43611422D01*
X65896920Y-43611422D02*
X65944539Y-43563802D01*
X65944539Y-43563802D02*
X65992158Y-43468564D01*
X65992158Y-43468564D02*
X65992158Y-43373326D01*
X65992158Y-43373326D02*
X65944539Y-43278088D01*
X65944539Y-43278088D02*
X65896920Y-43230469D01*
X65896920Y-43230469D02*
X65801682Y-43182850D01*
X65801682Y-43182850D02*
X65611206Y-43135231D01*
X65611206Y-43135231D02*
X65515968Y-43087612D01*
X65515968Y-43087612D02*
X65468349Y-43039993D01*
X65468349Y-43039993D02*
X65420730Y-42944755D01*
X65420730Y-42944755D02*
X65420730Y-42849517D01*
X65420730Y-42849517D02*
X65468349Y-42754279D01*
X65468349Y-42754279D02*
X65515968Y-42706660D01*
X65515968Y-42706660D02*
X65611206Y-42659041D01*
X65611206Y-42659041D02*
X65849301Y-42659041D01*
X65849301Y-42659041D02*
X65992158Y-42706660D01*
X66325492Y-42659041D02*
X66563587Y-43659041D01*
X66563587Y-43659041D02*
X66754063Y-42944755D01*
X66754063Y-42944755D02*
X66944539Y-43659041D01*
X66944539Y-43659041D02*
X67182635Y-42659041D01*
X68087396Y-43659041D02*
X67515968Y-43659041D01*
X67801682Y-43659041D02*
X67801682Y-42659041D01*
X67801682Y-42659041D02*
X67706444Y-42801898D01*
X67706444Y-42801898D02*
X67611206Y-42897136D01*
X67611206Y-42897136D02*
X67515968Y-42944755D01*
X95193095Y-52278057D02*
X95193095Y-53006628D01*
X95193095Y-53006628D02*
X95240714Y-53092342D01*
X95240714Y-53092342D02*
X95288333Y-53135200D01*
X95288333Y-53135200D02*
X95383571Y-53178057D01*
X95383571Y-53178057D02*
X95574047Y-53178057D01*
X95574047Y-53178057D02*
X95669285Y-53135200D01*
X95669285Y-53135200D02*
X95716904Y-53092342D01*
X95716904Y-53092342D02*
X95764523Y-53006628D01*
X95764523Y-53006628D02*
X95764523Y-52278057D01*
X96669285Y-52578057D02*
X96669285Y-53178057D01*
X96431190Y-52235200D02*
X96193095Y-52878057D01*
X96193095Y-52878057D02*
X96812142Y-52878057D01*
X75715777Y-55545041D02*
X75715777Y-56259326D01*
X75715777Y-56259326D02*
X75668158Y-56402183D01*
X75668158Y-56402183D02*
X75572920Y-56497422D01*
X75572920Y-56497422D02*
X75430063Y-56545041D01*
X75430063Y-56545041D02*
X75334825Y-56545041D01*
X76239587Y-56545041D02*
X76430063Y-56545041D01*
X76430063Y-56545041D02*
X76525301Y-56497422D01*
X76525301Y-56497422D02*
X76572920Y-56449802D01*
X76572920Y-56449802D02*
X76668158Y-56306945D01*
X76668158Y-56306945D02*
X76715777Y-56116469D01*
X76715777Y-56116469D02*
X76715777Y-55735517D01*
X76715777Y-55735517D02*
X76668158Y-55640279D01*
X76668158Y-55640279D02*
X76620539Y-55592660D01*
X76620539Y-55592660D02*
X76525301Y-55545041D01*
X76525301Y-55545041D02*
X76334825Y-55545041D01*
X76334825Y-55545041D02*
X76239587Y-55592660D01*
X76239587Y-55592660D02*
X76191968Y-55640279D01*
X76191968Y-55640279D02*
X76144349Y-55735517D01*
X76144349Y-55735517D02*
X76144349Y-55973612D01*
X76144349Y-55973612D02*
X76191968Y-56068850D01*
X76191968Y-56068850D02*
X76239587Y-56116469D01*
X76239587Y-56116469D02*
X76334825Y-56164088D01*
X76334825Y-56164088D02*
X76525301Y-56164088D01*
X76525301Y-56164088D02*
X76620539Y-56116469D01*
X76620539Y-56116469D02*
X76668158Y-56068850D01*
X76668158Y-56068850D02*
X76715777Y-55973612D01*
X54125777Y-41067041D02*
X54125777Y-41781326D01*
X54125777Y-41781326D02*
X54078158Y-41924183D01*
X54078158Y-41924183D02*
X53982920Y-42019422D01*
X53982920Y-42019422D02*
X53840063Y-42067041D01*
X53840063Y-42067041D02*
X53744825Y-42067041D01*
X54554349Y-41162279D02*
X54601968Y-41114660D01*
X54601968Y-41114660D02*
X54697206Y-41067041D01*
X54697206Y-41067041D02*
X54935301Y-41067041D01*
X54935301Y-41067041D02*
X55030539Y-41114660D01*
X55030539Y-41114660D02*
X55078158Y-41162279D01*
X55078158Y-41162279D02*
X55125777Y-41257517D01*
X55125777Y-41257517D02*
X55125777Y-41352755D01*
X55125777Y-41352755D02*
X55078158Y-41495612D01*
X55078158Y-41495612D02*
X54506730Y-42067041D01*
X54506730Y-42067041D02*
X55125777Y-42067041D01*
X34308877Y-47732499D02*
X33975544Y-47256308D01*
X33737449Y-47732499D02*
X33737449Y-46732499D01*
X33737449Y-46732499D02*
X34118401Y-46732499D01*
X34118401Y-46732499D02*
X34213639Y-46780118D01*
X34213639Y-46780118D02*
X34261258Y-46827737D01*
X34261258Y-46827737D02*
X34308877Y-46922975D01*
X34308877Y-46922975D02*
X34308877Y-47065832D01*
X34308877Y-47065832D02*
X34261258Y-47161070D01*
X34261258Y-47161070D02*
X34213639Y-47208689D01*
X34213639Y-47208689D02*
X34118401Y-47256308D01*
X34118401Y-47256308D02*
X33737449Y-47256308D01*
X35261258Y-47732499D02*
X34689830Y-47732499D01*
X34975544Y-47732499D02*
X34975544Y-46732499D01*
X34975544Y-46732499D02*
X34880306Y-46875356D01*
X34880306Y-46875356D02*
X34785068Y-46970594D01*
X34785068Y-46970594D02*
X34689830Y-47018213D01*
X102932142Y-58717080D02*
X102884523Y-58764700D01*
X102884523Y-58764700D02*
X102741666Y-58812319D01*
X102741666Y-58812319D02*
X102646428Y-58812319D01*
X102646428Y-58812319D02*
X102503571Y-58764700D01*
X102503571Y-58764700D02*
X102408333Y-58669461D01*
X102408333Y-58669461D02*
X102360714Y-58574223D01*
X102360714Y-58574223D02*
X102313095Y-58383747D01*
X102313095Y-58383747D02*
X102313095Y-58240890D01*
X102313095Y-58240890D02*
X102360714Y-58050414D01*
X102360714Y-58050414D02*
X102408333Y-57955176D01*
X102408333Y-57955176D02*
X102503571Y-57859938D01*
X102503571Y-57859938D02*
X102646428Y-57812319D01*
X102646428Y-57812319D02*
X102741666Y-57812319D01*
X102741666Y-57812319D02*
X102884523Y-57859938D01*
X102884523Y-57859938D02*
X102932142Y-57907557D01*
X103884523Y-58812319D02*
X103313095Y-58812319D01*
X103598809Y-58812319D02*
X103598809Y-57812319D01*
X103598809Y-57812319D02*
X103503571Y-57955176D01*
X103503571Y-57955176D02*
X103408333Y-58050414D01*
X103408333Y-58050414D02*
X103313095Y-58098033D01*
X104789285Y-57812319D02*
X104313095Y-57812319D01*
X104313095Y-57812319D02*
X104265476Y-58288509D01*
X104265476Y-58288509D02*
X104313095Y-58240890D01*
X104313095Y-58240890D02*
X104408333Y-58193271D01*
X104408333Y-58193271D02*
X104646428Y-58193271D01*
X104646428Y-58193271D02*
X104741666Y-58240890D01*
X104741666Y-58240890D02*
X104789285Y-58288509D01*
X104789285Y-58288509D02*
X104836904Y-58383747D01*
X104836904Y-58383747D02*
X104836904Y-58621842D01*
X104836904Y-58621842D02*
X104789285Y-58717080D01*
X104789285Y-58717080D02*
X104741666Y-58764700D01*
X104741666Y-58764700D02*
X104646428Y-58812319D01*
X104646428Y-58812319D02*
X104408333Y-58812319D01*
X104408333Y-58812319D02*
X104313095Y-58764700D01*
X104313095Y-58764700D02*
X104265476Y-58717080D01*
X51752444Y-55529041D02*
X51419111Y-55052850D01*
X51181016Y-55529041D02*
X51181016Y-54529041D01*
X51181016Y-54529041D02*
X51561968Y-54529041D01*
X51561968Y-54529041D02*
X51657206Y-54576660D01*
X51657206Y-54576660D02*
X51704825Y-54624279D01*
X51704825Y-54624279D02*
X51752444Y-54719517D01*
X51752444Y-54719517D02*
X51752444Y-54862374D01*
X51752444Y-54862374D02*
X51704825Y-54957612D01*
X51704825Y-54957612D02*
X51657206Y-55005231D01*
X51657206Y-55005231D02*
X51561968Y-55052850D01*
X51561968Y-55052850D02*
X51181016Y-55052850D01*
X52609587Y-54862374D02*
X52609587Y-55529041D01*
X52371492Y-54481422D02*
X52133397Y-55195707D01*
X52133397Y-55195707D02*
X52752444Y-55195707D01*
X75646691Y-40000888D02*
X75694311Y-40048507D01*
X75694311Y-40048507D02*
X75741930Y-40191364D01*
X75741930Y-40191364D02*
X75741930Y-40286602D01*
X75741930Y-40286602D02*
X75694311Y-40429459D01*
X75694311Y-40429459D02*
X75599072Y-40524697D01*
X75599072Y-40524697D02*
X75503834Y-40572316D01*
X75503834Y-40572316D02*
X75313358Y-40619935D01*
X75313358Y-40619935D02*
X75170501Y-40619935D01*
X75170501Y-40619935D02*
X74980025Y-40572316D01*
X74980025Y-40572316D02*
X74884787Y-40524697D01*
X74884787Y-40524697D02*
X74789549Y-40429459D01*
X74789549Y-40429459D02*
X74741930Y-40286602D01*
X74741930Y-40286602D02*
X74741930Y-40191364D01*
X74741930Y-40191364D02*
X74789549Y-40048507D01*
X74789549Y-40048507D02*
X74837168Y-40000888D01*
X74741930Y-39143745D02*
X74741930Y-39334221D01*
X74741930Y-39334221D02*
X74789549Y-39429459D01*
X74789549Y-39429459D02*
X74837168Y-39477078D01*
X74837168Y-39477078D02*
X74980025Y-39572316D01*
X74980025Y-39572316D02*
X75170501Y-39619935D01*
X75170501Y-39619935D02*
X75551453Y-39619935D01*
X75551453Y-39619935D02*
X75646691Y-39572316D01*
X75646691Y-39572316D02*
X75694311Y-39524697D01*
X75694311Y-39524697D02*
X75741930Y-39429459D01*
X75741930Y-39429459D02*
X75741930Y-39238983D01*
X75741930Y-39238983D02*
X75694311Y-39143745D01*
X75694311Y-39143745D02*
X75646691Y-39096126D01*
X75646691Y-39096126D02*
X75551453Y-39048507D01*
X75551453Y-39048507D02*
X75313358Y-39048507D01*
X75313358Y-39048507D02*
X75218120Y-39096126D01*
X75218120Y-39096126D02*
X75170501Y-39143745D01*
X75170501Y-39143745D02*
X75122882Y-39238983D01*
X75122882Y-39238983D02*
X75122882Y-39429459D01*
X75122882Y-39429459D02*
X75170501Y-39524697D01*
X75170501Y-39524697D02*
X75218120Y-39572316D01*
X75218120Y-39572316D02*
X75313358Y-39619935D01*
X36548253Y-46809802D02*
X36500634Y-46857422D01*
X36500634Y-46857422D02*
X36357777Y-46905041D01*
X36357777Y-46905041D02*
X36262539Y-46905041D01*
X36262539Y-46905041D02*
X36119682Y-46857422D01*
X36119682Y-46857422D02*
X36024444Y-46762183D01*
X36024444Y-46762183D02*
X35976825Y-46666945D01*
X35976825Y-46666945D02*
X35929206Y-46476469D01*
X35929206Y-46476469D02*
X35929206Y-46333612D01*
X35929206Y-46333612D02*
X35976825Y-46143136D01*
X35976825Y-46143136D02*
X36024444Y-46047898D01*
X36024444Y-46047898D02*
X36119682Y-45952660D01*
X36119682Y-45952660D02*
X36262539Y-45905041D01*
X36262539Y-45905041D02*
X36357777Y-45905041D01*
X36357777Y-45905041D02*
X36500634Y-45952660D01*
X36500634Y-45952660D02*
X36548253Y-46000279D01*
X37500634Y-46905041D02*
X36929206Y-46905041D01*
X37214920Y-46905041D02*
X37214920Y-45905041D01*
X37214920Y-45905041D02*
X37119682Y-46047898D01*
X37119682Y-46047898D02*
X37024444Y-46143136D01*
X37024444Y-46143136D02*
X36929206Y-46190755D01*
X38119682Y-45905041D02*
X38214920Y-45905041D01*
X38214920Y-45905041D02*
X38310158Y-45952660D01*
X38310158Y-45952660D02*
X38357777Y-46000279D01*
X38357777Y-46000279D02*
X38405396Y-46095517D01*
X38405396Y-46095517D02*
X38453015Y-46285993D01*
X38453015Y-46285993D02*
X38453015Y-46524088D01*
X38453015Y-46524088D02*
X38405396Y-46714564D01*
X38405396Y-46714564D02*
X38357777Y-46809802D01*
X38357777Y-46809802D02*
X38310158Y-46857422D01*
X38310158Y-46857422D02*
X38214920Y-46905041D01*
X38214920Y-46905041D02*
X38119682Y-46905041D01*
X38119682Y-46905041D02*
X38024444Y-46857422D01*
X38024444Y-46857422D02*
X37976825Y-46809802D01*
X37976825Y-46809802D02*
X37929206Y-46714564D01*
X37929206Y-46714564D02*
X37881587Y-46524088D01*
X37881587Y-46524088D02*
X37881587Y-46285993D01*
X37881587Y-46285993D02*
X37929206Y-46095517D01*
X37929206Y-46095517D02*
X37976825Y-46000279D01*
X37976825Y-46000279D02*
X38024444Y-45952660D01*
X38024444Y-45952660D02*
X38119682Y-45905041D01*
X108353253Y-22425802D02*
X108305634Y-22473422D01*
X108305634Y-22473422D02*
X108162777Y-22521041D01*
X108162777Y-22521041D02*
X108067539Y-22521041D01*
X108067539Y-22521041D02*
X107924682Y-22473422D01*
X107924682Y-22473422D02*
X107829444Y-22378183D01*
X107829444Y-22378183D02*
X107781825Y-22282945D01*
X107781825Y-22282945D02*
X107734206Y-22092469D01*
X107734206Y-22092469D02*
X107734206Y-21949612D01*
X107734206Y-21949612D02*
X107781825Y-21759136D01*
X107781825Y-21759136D02*
X107829444Y-21663898D01*
X107829444Y-21663898D02*
X107924682Y-21568660D01*
X107924682Y-21568660D02*
X108067539Y-21521041D01*
X108067539Y-21521041D02*
X108162777Y-21521041D01*
X108162777Y-21521041D02*
X108305634Y-21568660D01*
X108305634Y-21568660D02*
X108353253Y-21616279D01*
X109305634Y-22521041D02*
X108734206Y-22521041D01*
X109019920Y-22521041D02*
X109019920Y-21521041D01*
X109019920Y-21521041D02*
X108924682Y-21663898D01*
X108924682Y-21663898D02*
X108829444Y-21759136D01*
X108829444Y-21759136D02*
X108734206Y-21806755D01*
X110258015Y-22521041D02*
X109686587Y-22521041D01*
X109972301Y-22521041D02*
X109972301Y-21521041D01*
X109972301Y-21521041D02*
X109877063Y-21663898D01*
X109877063Y-21663898D02*
X109781825Y-21759136D01*
X109781825Y-21759136D02*
X109686587Y-21806755D01*
X75882444Y-53243041D02*
X75549111Y-52766850D01*
X75311016Y-53243041D02*
X75311016Y-52243041D01*
X75311016Y-52243041D02*
X75691968Y-52243041D01*
X75691968Y-52243041D02*
X75787206Y-52290660D01*
X75787206Y-52290660D02*
X75834825Y-52338279D01*
X75834825Y-52338279D02*
X75882444Y-52433517D01*
X75882444Y-52433517D02*
X75882444Y-52576374D01*
X75882444Y-52576374D02*
X75834825Y-52671612D01*
X75834825Y-52671612D02*
X75787206Y-52719231D01*
X75787206Y-52719231D02*
X75691968Y-52766850D01*
X75691968Y-52766850D02*
X75311016Y-52766850D01*
X76215778Y-52243041D02*
X76834825Y-52243041D01*
X76834825Y-52243041D02*
X76501492Y-52623993D01*
X76501492Y-52623993D02*
X76644349Y-52623993D01*
X76644349Y-52623993D02*
X76739587Y-52671612D01*
X76739587Y-52671612D02*
X76787206Y-52719231D01*
X76787206Y-52719231D02*
X76834825Y-52814469D01*
X76834825Y-52814469D02*
X76834825Y-53052564D01*
X76834825Y-53052564D02*
X76787206Y-53147802D01*
X76787206Y-53147802D02*
X76739587Y-53195422D01*
X76739587Y-53195422D02*
X76644349Y-53243041D01*
X76644349Y-53243041D02*
X76358635Y-53243041D01*
X76358635Y-53243041D02*
X76263397Y-53195422D01*
X76263397Y-53195422D02*
X76215778Y-53147802D01*
X54292444Y-22204802D02*
X54244825Y-22252422D01*
X54244825Y-22252422D02*
X54101968Y-22300041D01*
X54101968Y-22300041D02*
X54006730Y-22300041D01*
X54006730Y-22300041D02*
X53863873Y-22252422D01*
X53863873Y-22252422D02*
X53768635Y-22157183D01*
X53768635Y-22157183D02*
X53721016Y-22061945D01*
X53721016Y-22061945D02*
X53673397Y-21871469D01*
X53673397Y-21871469D02*
X53673397Y-21728612D01*
X53673397Y-21728612D02*
X53721016Y-21538136D01*
X53721016Y-21538136D02*
X53768635Y-21442898D01*
X53768635Y-21442898D02*
X53863873Y-21347660D01*
X53863873Y-21347660D02*
X54006730Y-21300041D01*
X54006730Y-21300041D02*
X54101968Y-21300041D01*
X54101968Y-21300041D02*
X54244825Y-21347660D01*
X54244825Y-21347660D02*
X54292444Y-21395279D01*
X55197206Y-21300041D02*
X54721016Y-21300041D01*
X54721016Y-21300041D02*
X54673397Y-21776231D01*
X54673397Y-21776231D02*
X54721016Y-21728612D01*
X54721016Y-21728612D02*
X54816254Y-21680993D01*
X54816254Y-21680993D02*
X55054349Y-21680993D01*
X55054349Y-21680993D02*
X55149587Y-21728612D01*
X55149587Y-21728612D02*
X55197206Y-21776231D01*
X55197206Y-21776231D02*
X55244825Y-21871469D01*
X55244825Y-21871469D02*
X55244825Y-22109564D01*
X55244825Y-22109564D02*
X55197206Y-22204802D01*
X55197206Y-22204802D02*
X55149587Y-22252422D01*
X55149587Y-22252422D02*
X55054349Y-22300041D01*
X55054349Y-22300041D02*
X54816254Y-22300041D01*
X54816254Y-22300041D02*
X54721016Y-22252422D01*
X54721016Y-22252422D02*
X54673397Y-22204802D01*
X93266580Y-56968357D02*
X93314200Y-57015976D01*
X93314200Y-57015976D02*
X93361819Y-57158833D01*
X93361819Y-57158833D02*
X93361819Y-57254071D01*
X93361819Y-57254071D02*
X93314200Y-57396928D01*
X93314200Y-57396928D02*
X93218961Y-57492166D01*
X93218961Y-57492166D02*
X93123723Y-57539785D01*
X93123723Y-57539785D02*
X92933247Y-57587404D01*
X92933247Y-57587404D02*
X92790390Y-57587404D01*
X92790390Y-57587404D02*
X92599914Y-57539785D01*
X92599914Y-57539785D02*
X92504676Y-57492166D01*
X92504676Y-57492166D02*
X92409438Y-57396928D01*
X92409438Y-57396928D02*
X92361819Y-57254071D01*
X92361819Y-57254071D02*
X92361819Y-57158833D01*
X92361819Y-57158833D02*
X92409438Y-57015976D01*
X92409438Y-57015976D02*
X92457057Y-56968357D01*
X93361819Y-56015976D02*
X93361819Y-56587404D01*
X93361819Y-56301690D02*
X92361819Y-56301690D01*
X92361819Y-56301690D02*
X92504676Y-56396928D01*
X92504676Y-56396928D02*
X92599914Y-56492166D01*
X92599914Y-56492166D02*
X92647533Y-56587404D01*
X92361819Y-55682642D02*
X92361819Y-55063595D01*
X92361819Y-55063595D02*
X92742771Y-55396928D01*
X92742771Y-55396928D02*
X92742771Y-55254071D01*
X92742771Y-55254071D02*
X92790390Y-55158833D01*
X92790390Y-55158833D02*
X92838009Y-55111214D01*
X92838009Y-55111214D02*
X92933247Y-55063595D01*
X92933247Y-55063595D02*
X93171342Y-55063595D01*
X93171342Y-55063595D02*
X93266580Y-55111214D01*
X93266580Y-55111214D02*
X93314200Y-55158833D01*
X93314200Y-55158833D02*
X93361819Y-55254071D01*
X93361819Y-55254071D02*
X93361819Y-55539785D01*
X93361819Y-55539785D02*
X93314200Y-55635023D01*
X93314200Y-55635023D02*
X93266580Y-55682642D01*
X34308877Y-52685499D02*
X33975544Y-52209308D01*
X33737449Y-52685499D02*
X33737449Y-51685499D01*
X33737449Y-51685499D02*
X34118401Y-51685499D01*
X34118401Y-51685499D02*
X34213639Y-51733118D01*
X34213639Y-51733118D02*
X34261258Y-51780737D01*
X34261258Y-51780737D02*
X34308877Y-51875975D01*
X34308877Y-51875975D02*
X34308877Y-52018832D01*
X34308877Y-52018832D02*
X34261258Y-52114070D01*
X34261258Y-52114070D02*
X34213639Y-52161689D01*
X34213639Y-52161689D02*
X34118401Y-52209308D01*
X34118401Y-52209308D02*
X33737449Y-52209308D01*
X34689830Y-51780737D02*
X34737449Y-51733118D01*
X34737449Y-51733118D02*
X34832687Y-51685499D01*
X34832687Y-51685499D02*
X35070782Y-51685499D01*
X35070782Y-51685499D02*
X35166020Y-51733118D01*
X35166020Y-51733118D02*
X35213639Y-51780737D01*
X35213639Y-51780737D02*
X35261258Y-51875975D01*
X35261258Y-51875975D02*
X35261258Y-51971213D01*
X35261258Y-51971213D02*
X35213639Y-52114070D01*
X35213639Y-52114070D02*
X34642211Y-52685499D01*
X34642211Y-52685499D02*
X35261258Y-52685499D01*
X28620581Y-42252508D02*
X28620581Y-42728699D01*
X28287248Y-41728699D02*
X28620581Y-42252508D01*
X28620581Y-42252508D02*
X28953914Y-41728699D01*
X29239629Y-41823937D02*
X29287248Y-41776318D01*
X29287248Y-41776318D02*
X29382486Y-41728699D01*
X29382486Y-41728699D02*
X29620581Y-41728699D01*
X29620581Y-41728699D02*
X29715819Y-41776318D01*
X29715819Y-41776318D02*
X29763438Y-41823937D01*
X29763438Y-41823937D02*
X29811057Y-41919175D01*
X29811057Y-41919175D02*
X29811057Y-42014413D01*
X29811057Y-42014413D02*
X29763438Y-42157270D01*
X29763438Y-42157270D02*
X29192010Y-42728699D01*
X29192010Y-42728699D02*
X29811057Y-42728699D01*
X32198444Y-27759802D02*
X32150825Y-27807422D01*
X32150825Y-27807422D02*
X32007968Y-27855041D01*
X32007968Y-27855041D02*
X31912730Y-27855041D01*
X31912730Y-27855041D02*
X31769873Y-27807422D01*
X31769873Y-27807422D02*
X31674635Y-27712183D01*
X31674635Y-27712183D02*
X31627016Y-27616945D01*
X31627016Y-27616945D02*
X31579397Y-27426469D01*
X31579397Y-27426469D02*
X31579397Y-27283612D01*
X31579397Y-27283612D02*
X31627016Y-27093136D01*
X31627016Y-27093136D02*
X31674635Y-26997898D01*
X31674635Y-26997898D02*
X31769873Y-26902660D01*
X31769873Y-26902660D02*
X31912730Y-26855041D01*
X31912730Y-26855041D02*
X32007968Y-26855041D01*
X32007968Y-26855041D02*
X32150825Y-26902660D01*
X32150825Y-26902660D02*
X32198444Y-26950279D01*
X32579397Y-26950279D02*
X32627016Y-26902660D01*
X32627016Y-26902660D02*
X32722254Y-26855041D01*
X32722254Y-26855041D02*
X32960349Y-26855041D01*
X32960349Y-26855041D02*
X33055587Y-26902660D01*
X33055587Y-26902660D02*
X33103206Y-26950279D01*
X33103206Y-26950279D02*
X33150825Y-27045517D01*
X33150825Y-27045517D02*
X33150825Y-27140755D01*
X33150825Y-27140755D02*
X33103206Y-27283612D01*
X33103206Y-27283612D02*
X32531778Y-27855041D01*
X32531778Y-27855041D02*
X33150825Y-27855041D01*
X75072825Y-48988660D02*
X74977587Y-48941041D01*
X74977587Y-48941041D02*
X74834730Y-48941041D01*
X74834730Y-48941041D02*
X74691873Y-48988660D01*
X74691873Y-48988660D02*
X74596635Y-49083898D01*
X74596635Y-49083898D02*
X74549016Y-49179136D01*
X74549016Y-49179136D02*
X74501397Y-49369612D01*
X74501397Y-49369612D02*
X74501397Y-49512469D01*
X74501397Y-49512469D02*
X74549016Y-49702945D01*
X74549016Y-49702945D02*
X74596635Y-49798183D01*
X74596635Y-49798183D02*
X74691873Y-49893422D01*
X74691873Y-49893422D02*
X74834730Y-49941041D01*
X74834730Y-49941041D02*
X74929968Y-49941041D01*
X74929968Y-49941041D02*
X75072825Y-49893422D01*
X75072825Y-49893422D02*
X75120444Y-49845802D01*
X75120444Y-49845802D02*
X75120444Y-49512469D01*
X75120444Y-49512469D02*
X74929968Y-49512469D01*
X76072825Y-49941041D02*
X75501397Y-49941041D01*
X75787111Y-49941041D02*
X75787111Y-48941041D01*
X75787111Y-48941041D02*
X75691873Y-49083898D01*
X75691873Y-49083898D02*
X75596635Y-49179136D01*
X75596635Y-49179136D02*
X75501397Y-49226755D01*
X98582206Y-22423041D02*
X98582206Y-23232564D01*
X98582206Y-23232564D02*
X98629825Y-23327802D01*
X98629825Y-23327802D02*
X98677444Y-23375422D01*
X98677444Y-23375422D02*
X98772682Y-23423041D01*
X98772682Y-23423041D02*
X98963158Y-23423041D01*
X98963158Y-23423041D02*
X99058396Y-23375422D01*
X99058396Y-23375422D02*
X99106015Y-23327802D01*
X99106015Y-23327802D02*
X99153634Y-23232564D01*
X99153634Y-23232564D02*
X99153634Y-22423041D01*
X99534587Y-22423041D02*
X100153634Y-22423041D01*
X100153634Y-22423041D02*
X99820301Y-22803993D01*
X99820301Y-22803993D02*
X99963158Y-22803993D01*
X99963158Y-22803993D02*
X100058396Y-22851612D01*
X100058396Y-22851612D02*
X100106015Y-22899231D01*
X100106015Y-22899231D02*
X100153634Y-22994469D01*
X100153634Y-22994469D02*
X100153634Y-23232564D01*
X100153634Y-23232564D02*
X100106015Y-23327802D01*
X100106015Y-23327802D02*
X100058396Y-23375422D01*
X100058396Y-23375422D02*
X99963158Y-23423041D01*
X99963158Y-23423041D02*
X99677444Y-23423041D01*
X99677444Y-23423041D02*
X99582206Y-23375422D01*
X99582206Y-23375422D02*
X99534587Y-23327802D01*
X109170777Y-38578041D02*
X109170777Y-39292326D01*
X109170777Y-39292326D02*
X109123158Y-39435183D01*
X109123158Y-39435183D02*
X109027920Y-39530422D01*
X109027920Y-39530422D02*
X108885063Y-39578041D01*
X108885063Y-39578041D02*
X108789825Y-39578041D01*
X110075539Y-38578041D02*
X109885063Y-38578041D01*
X109885063Y-38578041D02*
X109789825Y-38625660D01*
X109789825Y-38625660D02*
X109742206Y-38673279D01*
X109742206Y-38673279D02*
X109646968Y-38816136D01*
X109646968Y-38816136D02*
X109599349Y-39006612D01*
X109599349Y-39006612D02*
X109599349Y-39387564D01*
X109599349Y-39387564D02*
X109646968Y-39482802D01*
X109646968Y-39482802D02*
X109694587Y-39530422D01*
X109694587Y-39530422D02*
X109789825Y-39578041D01*
X109789825Y-39578041D02*
X109980301Y-39578041D01*
X109980301Y-39578041D02*
X110075539Y-39530422D01*
X110075539Y-39530422D02*
X110123158Y-39482802D01*
X110123158Y-39482802D02*
X110170777Y-39387564D01*
X110170777Y-39387564D02*
X110170777Y-39149469D01*
X110170777Y-39149469D02*
X110123158Y-39054231D01*
X110123158Y-39054231D02*
X110075539Y-39006612D01*
X110075539Y-39006612D02*
X109980301Y-38958993D01*
X109980301Y-38958993D02*
X109789825Y-38958993D01*
X109789825Y-38958993D02*
X109694587Y-39006612D01*
X109694587Y-39006612D02*
X109646968Y-39054231D01*
X109646968Y-39054231D02*
X109599349Y-39149469D01*
X54546729Y-43591041D02*
X54213396Y-43114850D01*
X53975301Y-43591041D02*
X53975301Y-42591041D01*
X53975301Y-42591041D02*
X54356253Y-42591041D01*
X54356253Y-42591041D02*
X54451491Y-42638660D01*
X54451491Y-42638660D02*
X54499110Y-42686279D01*
X54499110Y-42686279D02*
X54546729Y-42781517D01*
X54546729Y-42781517D02*
X54546729Y-42924374D01*
X54546729Y-42924374D02*
X54499110Y-43019612D01*
X54499110Y-43019612D02*
X54451491Y-43067231D01*
X54451491Y-43067231D02*
X54356253Y-43114850D01*
X54356253Y-43114850D02*
X53975301Y-43114850D01*
X54927682Y-43543422D02*
X55070539Y-43591041D01*
X55070539Y-43591041D02*
X55308634Y-43591041D01*
X55308634Y-43591041D02*
X55403872Y-43543422D01*
X55403872Y-43543422D02*
X55451491Y-43495802D01*
X55451491Y-43495802D02*
X55499110Y-43400564D01*
X55499110Y-43400564D02*
X55499110Y-43305326D01*
X55499110Y-43305326D02*
X55451491Y-43210088D01*
X55451491Y-43210088D02*
X55403872Y-43162469D01*
X55403872Y-43162469D02*
X55308634Y-43114850D01*
X55308634Y-43114850D02*
X55118158Y-43067231D01*
X55118158Y-43067231D02*
X55022920Y-43019612D01*
X55022920Y-43019612D02*
X54975301Y-42971993D01*
X54975301Y-42971993D02*
X54927682Y-42876755D01*
X54927682Y-42876755D02*
X54927682Y-42781517D01*
X54927682Y-42781517D02*
X54975301Y-42686279D01*
X54975301Y-42686279D02*
X55022920Y-42638660D01*
X55022920Y-42638660D02*
X55118158Y-42591041D01*
X55118158Y-42591041D02*
X55356253Y-42591041D01*
X55356253Y-42591041D02*
X55499110Y-42638660D01*
X55784825Y-42591041D02*
X56356253Y-42591041D01*
X56070539Y-43591041D02*
X56070539Y-42591041D01*
X56451492Y-43686279D02*
X57213396Y-43686279D01*
X57403873Y-43543422D02*
X57546730Y-43591041D01*
X57546730Y-43591041D02*
X57784825Y-43591041D01*
X57784825Y-43591041D02*
X57880063Y-43543422D01*
X57880063Y-43543422D02*
X57927682Y-43495802D01*
X57927682Y-43495802D02*
X57975301Y-43400564D01*
X57975301Y-43400564D02*
X57975301Y-43305326D01*
X57975301Y-43305326D02*
X57927682Y-43210088D01*
X57927682Y-43210088D02*
X57880063Y-43162469D01*
X57880063Y-43162469D02*
X57784825Y-43114850D01*
X57784825Y-43114850D02*
X57594349Y-43067231D01*
X57594349Y-43067231D02*
X57499111Y-43019612D01*
X57499111Y-43019612D02*
X57451492Y-42971993D01*
X57451492Y-42971993D02*
X57403873Y-42876755D01*
X57403873Y-42876755D02*
X57403873Y-42781517D01*
X57403873Y-42781517D02*
X57451492Y-42686279D01*
X57451492Y-42686279D02*
X57499111Y-42638660D01*
X57499111Y-42638660D02*
X57594349Y-42591041D01*
X57594349Y-42591041D02*
X57832444Y-42591041D01*
X57832444Y-42591041D02*
X57975301Y-42638660D01*
X58308635Y-42591041D02*
X58546730Y-43591041D01*
X58546730Y-43591041D02*
X58737206Y-42876755D01*
X58737206Y-42876755D02*
X58927682Y-43591041D01*
X58927682Y-43591041D02*
X59165778Y-42591041D01*
X60070539Y-43591041D02*
X59499111Y-43591041D01*
X59784825Y-43591041D02*
X59784825Y-42591041D01*
X59784825Y-42591041D02*
X59689587Y-42733898D01*
X59689587Y-42733898D02*
X59594349Y-42829136D01*
X59594349Y-42829136D02*
X59499111Y-42876755D01*
X75207777Y-35479041D02*
X75207777Y-36193326D01*
X75207777Y-36193326D02*
X75160158Y-36336183D01*
X75160158Y-36336183D02*
X75064920Y-36431422D01*
X75064920Y-36431422D02*
X74922063Y-36479041D01*
X74922063Y-36479041D02*
X74826825Y-36479041D01*
X76207777Y-36479041D02*
X75636349Y-36479041D01*
X75922063Y-36479041D02*
X75922063Y-35479041D01*
X75922063Y-35479041D02*
X75826825Y-35621898D01*
X75826825Y-35621898D02*
X75731587Y-35717136D01*
X75731587Y-35717136D02*
X75636349Y-35764755D01*
X74646844Y-22204802D02*
X74599225Y-22252422D01*
X74599225Y-22252422D02*
X74456368Y-22300041D01*
X74456368Y-22300041D02*
X74361130Y-22300041D01*
X74361130Y-22300041D02*
X74218273Y-22252422D01*
X74218273Y-22252422D02*
X74123035Y-22157183D01*
X74123035Y-22157183D02*
X74075416Y-22061945D01*
X74075416Y-22061945D02*
X74027797Y-21871469D01*
X74027797Y-21871469D02*
X74027797Y-21728612D01*
X74027797Y-21728612D02*
X74075416Y-21538136D01*
X74075416Y-21538136D02*
X74123035Y-21442898D01*
X74123035Y-21442898D02*
X74218273Y-21347660D01*
X74218273Y-21347660D02*
X74361130Y-21300041D01*
X74361130Y-21300041D02*
X74456368Y-21300041D01*
X74456368Y-21300041D02*
X74599225Y-21347660D01*
X74599225Y-21347660D02*
X74646844Y-21395279D01*
X75503987Y-21633374D02*
X75503987Y-22300041D01*
X75265892Y-21252422D02*
X75027797Y-21966707D01*
X75027797Y-21966707D02*
X75646844Y-21966707D01*
X32911877Y-45605260D02*
X32864258Y-45652880D01*
X32864258Y-45652880D02*
X32721401Y-45700499D01*
X32721401Y-45700499D02*
X32626163Y-45700499D01*
X32626163Y-45700499D02*
X32483306Y-45652880D01*
X32483306Y-45652880D02*
X32388068Y-45557641D01*
X32388068Y-45557641D02*
X32340449Y-45462403D01*
X32340449Y-45462403D02*
X32292830Y-45271927D01*
X32292830Y-45271927D02*
X32292830Y-45129070D01*
X32292830Y-45129070D02*
X32340449Y-44938594D01*
X32340449Y-44938594D02*
X32388068Y-44843356D01*
X32388068Y-44843356D02*
X32483306Y-44748118D01*
X32483306Y-44748118D02*
X32626163Y-44700499D01*
X32626163Y-44700499D02*
X32721401Y-44700499D01*
X32721401Y-44700499D02*
X32864258Y-44748118D01*
X32864258Y-44748118D02*
X32911877Y-44795737D01*
X33245211Y-44700499D02*
X33911877Y-44700499D01*
X33911877Y-44700499D02*
X33483306Y-45700499D01*
X27088124Y-37284346D02*
X27135744Y-37331965D01*
X27135744Y-37331965D02*
X27183363Y-37474822D01*
X27183363Y-37474822D02*
X27183363Y-37570060D01*
X27183363Y-37570060D02*
X27135744Y-37712917D01*
X27135744Y-37712917D02*
X27040505Y-37808155D01*
X27040505Y-37808155D02*
X26945267Y-37855774D01*
X26945267Y-37855774D02*
X26754791Y-37903393D01*
X26754791Y-37903393D02*
X26611934Y-37903393D01*
X26611934Y-37903393D02*
X26421458Y-37855774D01*
X26421458Y-37855774D02*
X26326220Y-37808155D01*
X26326220Y-37808155D02*
X26230982Y-37712917D01*
X26230982Y-37712917D02*
X26183363Y-37570060D01*
X26183363Y-37570060D02*
X26183363Y-37474822D01*
X26183363Y-37474822D02*
X26230982Y-37331965D01*
X26230982Y-37331965D02*
X26278601Y-37284346D01*
X27183363Y-36808155D02*
X27183363Y-36617679D01*
X27183363Y-36617679D02*
X27135744Y-36522441D01*
X27135744Y-36522441D02*
X27088124Y-36474822D01*
X27088124Y-36474822D02*
X26945267Y-36379584D01*
X26945267Y-36379584D02*
X26754791Y-36331965D01*
X26754791Y-36331965D02*
X26373839Y-36331965D01*
X26373839Y-36331965D02*
X26278601Y-36379584D01*
X26278601Y-36379584D02*
X26230982Y-36427203D01*
X26230982Y-36427203D02*
X26183363Y-36522441D01*
X26183363Y-36522441D02*
X26183363Y-36712917D01*
X26183363Y-36712917D02*
X26230982Y-36808155D01*
X26230982Y-36808155D02*
X26278601Y-36855774D01*
X26278601Y-36855774D02*
X26373839Y-36903393D01*
X26373839Y-36903393D02*
X26611934Y-36903393D01*
X26611934Y-36903393D02*
X26707172Y-36855774D01*
X26707172Y-36855774D02*
X26754791Y-36808155D01*
X26754791Y-36808155D02*
X26802410Y-36712917D01*
X26802410Y-36712917D02*
X26802410Y-36522441D01*
X26802410Y-36522441D02*
X26754791Y-36427203D01*
X26754791Y-36427203D02*
X26707172Y-36379584D01*
X26707172Y-36379584D02*
X26611934Y-36331965D01*
X25818124Y-37273546D02*
X25865744Y-37321165D01*
X25865744Y-37321165D02*
X25913363Y-37464022D01*
X25913363Y-37464022D02*
X25913363Y-37559260D01*
X25913363Y-37559260D02*
X25865744Y-37702117D01*
X25865744Y-37702117D02*
X25770505Y-37797355D01*
X25770505Y-37797355D02*
X25675267Y-37844974D01*
X25675267Y-37844974D02*
X25484791Y-37892593D01*
X25484791Y-37892593D02*
X25341934Y-37892593D01*
X25341934Y-37892593D02*
X25151458Y-37844974D01*
X25151458Y-37844974D02*
X25056220Y-37797355D01*
X25056220Y-37797355D02*
X24960982Y-37702117D01*
X24960982Y-37702117D02*
X24913363Y-37559260D01*
X24913363Y-37559260D02*
X24913363Y-37464022D01*
X24913363Y-37464022D02*
X24960982Y-37321165D01*
X24960982Y-37321165D02*
X25008601Y-37273546D01*
X25341934Y-36702117D02*
X25294315Y-36797355D01*
X25294315Y-36797355D02*
X25246696Y-36844974D01*
X25246696Y-36844974D02*
X25151458Y-36892593D01*
X25151458Y-36892593D02*
X25103839Y-36892593D01*
X25103839Y-36892593D02*
X25008601Y-36844974D01*
X25008601Y-36844974D02*
X24960982Y-36797355D01*
X24960982Y-36797355D02*
X24913363Y-36702117D01*
X24913363Y-36702117D02*
X24913363Y-36511641D01*
X24913363Y-36511641D02*
X24960982Y-36416403D01*
X24960982Y-36416403D02*
X25008601Y-36368784D01*
X25008601Y-36368784D02*
X25103839Y-36321165D01*
X25103839Y-36321165D02*
X25151458Y-36321165D01*
X25151458Y-36321165D02*
X25246696Y-36368784D01*
X25246696Y-36368784D02*
X25294315Y-36416403D01*
X25294315Y-36416403D02*
X25341934Y-36511641D01*
X25341934Y-36511641D02*
X25341934Y-36702117D01*
X25341934Y-36702117D02*
X25389553Y-36797355D01*
X25389553Y-36797355D02*
X25437172Y-36844974D01*
X25437172Y-36844974D02*
X25532410Y-36892593D01*
X25532410Y-36892593D02*
X25722886Y-36892593D01*
X25722886Y-36892593D02*
X25818124Y-36844974D01*
X25818124Y-36844974D02*
X25865744Y-36797355D01*
X25865744Y-36797355D02*
X25913363Y-36702117D01*
X25913363Y-36702117D02*
X25913363Y-36511641D01*
X25913363Y-36511641D02*
X25865744Y-36416403D01*
X25865744Y-36416403D02*
X25818124Y-36368784D01*
X25818124Y-36368784D02*
X25722886Y-36321165D01*
X25722886Y-36321165D02*
X25532410Y-36321165D01*
X25532410Y-36321165D02*
X25437172Y-36368784D01*
X25437172Y-36368784D02*
X25389553Y-36416403D01*
X25389553Y-36416403D02*
X25341934Y-36511641D01*
X28896444Y-27749060D02*
X28848825Y-27796680D01*
X28848825Y-27796680D02*
X28705968Y-27844299D01*
X28705968Y-27844299D02*
X28610730Y-27844299D01*
X28610730Y-27844299D02*
X28467873Y-27796680D01*
X28467873Y-27796680D02*
X28372635Y-27701441D01*
X28372635Y-27701441D02*
X28325016Y-27606203D01*
X28325016Y-27606203D02*
X28277397Y-27415727D01*
X28277397Y-27415727D02*
X28277397Y-27272870D01*
X28277397Y-27272870D02*
X28325016Y-27082394D01*
X28325016Y-27082394D02*
X28372635Y-26987156D01*
X28372635Y-26987156D02*
X28467873Y-26891918D01*
X28467873Y-26891918D02*
X28610730Y-26844299D01*
X28610730Y-26844299D02*
X28705968Y-26844299D01*
X28705968Y-26844299D02*
X28848825Y-26891918D01*
X28848825Y-26891918D02*
X28896444Y-26939537D01*
X29229778Y-26844299D02*
X29848825Y-26844299D01*
X29848825Y-26844299D02*
X29515492Y-27225251D01*
X29515492Y-27225251D02*
X29658349Y-27225251D01*
X29658349Y-27225251D02*
X29753587Y-27272870D01*
X29753587Y-27272870D02*
X29801206Y-27320489D01*
X29801206Y-27320489D02*
X29848825Y-27415727D01*
X29848825Y-27415727D02*
X29848825Y-27653822D01*
X29848825Y-27653822D02*
X29801206Y-27749060D01*
X29801206Y-27749060D02*
X29753587Y-27796680D01*
X29753587Y-27796680D02*
X29658349Y-27844299D01*
X29658349Y-27844299D02*
X29372635Y-27844299D01*
X29372635Y-27844299D02*
X29277397Y-27796680D01*
X29277397Y-27796680D02*
X29229778Y-27749060D01*
X102932142Y-57447080D02*
X102884523Y-57494700D01*
X102884523Y-57494700D02*
X102741666Y-57542319D01*
X102741666Y-57542319D02*
X102646428Y-57542319D01*
X102646428Y-57542319D02*
X102503571Y-57494700D01*
X102503571Y-57494700D02*
X102408333Y-57399461D01*
X102408333Y-57399461D02*
X102360714Y-57304223D01*
X102360714Y-57304223D02*
X102313095Y-57113747D01*
X102313095Y-57113747D02*
X102313095Y-56970890D01*
X102313095Y-56970890D02*
X102360714Y-56780414D01*
X102360714Y-56780414D02*
X102408333Y-56685176D01*
X102408333Y-56685176D02*
X102503571Y-56589938D01*
X102503571Y-56589938D02*
X102646428Y-56542319D01*
X102646428Y-56542319D02*
X102741666Y-56542319D01*
X102741666Y-56542319D02*
X102884523Y-56589938D01*
X102884523Y-56589938D02*
X102932142Y-56637557D01*
X103884523Y-57542319D02*
X103313095Y-57542319D01*
X103598809Y-57542319D02*
X103598809Y-56542319D01*
X103598809Y-56542319D02*
X103503571Y-56685176D01*
X103503571Y-56685176D02*
X103408333Y-56780414D01*
X103408333Y-56780414D02*
X103313095Y-56828033D01*
X104741666Y-56875652D02*
X104741666Y-57542319D01*
X104503571Y-56494700D02*
X104265476Y-57208985D01*
X104265476Y-57208985D02*
X104884523Y-57208985D01*
X32198444Y-41729802D02*
X32150825Y-41777422D01*
X32150825Y-41777422D02*
X32007968Y-41825041D01*
X32007968Y-41825041D02*
X31912730Y-41825041D01*
X31912730Y-41825041D02*
X31769873Y-41777422D01*
X31769873Y-41777422D02*
X31674635Y-41682183D01*
X31674635Y-41682183D02*
X31627016Y-41586945D01*
X31627016Y-41586945D02*
X31579397Y-41396469D01*
X31579397Y-41396469D02*
X31579397Y-41253612D01*
X31579397Y-41253612D02*
X31627016Y-41063136D01*
X31627016Y-41063136D02*
X31674635Y-40967898D01*
X31674635Y-40967898D02*
X31769873Y-40872660D01*
X31769873Y-40872660D02*
X31912730Y-40825041D01*
X31912730Y-40825041D02*
X32007968Y-40825041D01*
X32007968Y-40825041D02*
X32150825Y-40872660D01*
X32150825Y-40872660D02*
X32198444Y-40920279D01*
X33150825Y-41825041D02*
X32579397Y-41825041D01*
X32865111Y-41825041D02*
X32865111Y-40825041D01*
X32865111Y-40825041D02*
X32769873Y-40967898D01*
X32769873Y-40967898D02*
X32674635Y-41063136D01*
X32674635Y-41063136D02*
X32579397Y-41110755D01*
X30030639Y-27871041D02*
X30030639Y-28680564D01*
X30030639Y-28680564D02*
X30078258Y-28775802D01*
X30078258Y-28775802D02*
X30125877Y-28823422D01*
X30125877Y-28823422D02*
X30221115Y-28871041D01*
X30221115Y-28871041D02*
X30411591Y-28871041D01*
X30411591Y-28871041D02*
X30506829Y-28823422D01*
X30506829Y-28823422D02*
X30554448Y-28775802D01*
X30554448Y-28775802D02*
X30602067Y-28680564D01*
X30602067Y-28680564D02*
X30602067Y-27871041D01*
X31030639Y-27966279D02*
X31078258Y-27918660D01*
X31078258Y-27918660D02*
X31173496Y-27871041D01*
X31173496Y-27871041D02*
X31411591Y-27871041D01*
X31411591Y-27871041D02*
X31506829Y-27918660D01*
X31506829Y-27918660D02*
X31554448Y-27966279D01*
X31554448Y-27966279D02*
X31602067Y-28061517D01*
X31602067Y-28061517D02*
X31602067Y-28156755D01*
X31602067Y-28156755D02*
X31554448Y-28299612D01*
X31554448Y-28299612D02*
X30983020Y-28871041D01*
X30983020Y-28871041D02*
X31602067Y-28871041D01*
X88850777Y-38578041D02*
X88850777Y-39292326D01*
X88850777Y-39292326D02*
X88803158Y-39435183D01*
X88803158Y-39435183D02*
X88707920Y-39530422D01*
X88707920Y-39530422D02*
X88565063Y-39578041D01*
X88565063Y-39578041D02*
X88469825Y-39578041D01*
X89231730Y-38578041D02*
X89898396Y-38578041D01*
X89898396Y-38578041D02*
X89469825Y-39578041D01*
X89049253Y-22425802D02*
X89001634Y-22473422D01*
X89001634Y-22473422D02*
X88858777Y-22521041D01*
X88858777Y-22521041D02*
X88763539Y-22521041D01*
X88763539Y-22521041D02*
X88620682Y-22473422D01*
X88620682Y-22473422D02*
X88525444Y-22378183D01*
X88525444Y-22378183D02*
X88477825Y-22282945D01*
X88477825Y-22282945D02*
X88430206Y-22092469D01*
X88430206Y-22092469D02*
X88430206Y-21949612D01*
X88430206Y-21949612D02*
X88477825Y-21759136D01*
X88477825Y-21759136D02*
X88525444Y-21663898D01*
X88525444Y-21663898D02*
X88620682Y-21568660D01*
X88620682Y-21568660D02*
X88763539Y-21521041D01*
X88763539Y-21521041D02*
X88858777Y-21521041D01*
X88858777Y-21521041D02*
X89001634Y-21568660D01*
X89001634Y-21568660D02*
X89049253Y-21616279D01*
X90001634Y-22521041D02*
X89430206Y-22521041D01*
X89715920Y-22521041D02*
X89715920Y-21521041D01*
X89715920Y-21521041D02*
X89620682Y-21663898D01*
X89620682Y-21663898D02*
X89525444Y-21759136D01*
X89525444Y-21759136D02*
X89430206Y-21806755D01*
X90382587Y-21616279D02*
X90430206Y-21568660D01*
X90430206Y-21568660D02*
X90525444Y-21521041D01*
X90525444Y-21521041D02*
X90763539Y-21521041D01*
X90763539Y-21521041D02*
X90858777Y-21568660D01*
X90858777Y-21568660D02*
X90906396Y-21616279D01*
X90906396Y-21616279D02*
X90954015Y-21711517D01*
X90954015Y-21711517D02*
X90954015Y-21806755D01*
X90954015Y-21806755D02*
X90906396Y-21949612D01*
X90906396Y-21949612D02*
X90334968Y-22521041D01*
X90334968Y-22521041D02*
X90954015Y-22521041D01*
X76676253Y-51623802D02*
X76628634Y-51671422D01*
X76628634Y-51671422D02*
X76485777Y-51719041D01*
X76485777Y-51719041D02*
X76390539Y-51719041D01*
X76390539Y-51719041D02*
X76247682Y-51671422D01*
X76247682Y-51671422D02*
X76152444Y-51576183D01*
X76152444Y-51576183D02*
X76104825Y-51480945D01*
X76104825Y-51480945D02*
X76057206Y-51290469D01*
X76057206Y-51290469D02*
X76057206Y-51147612D01*
X76057206Y-51147612D02*
X76104825Y-50957136D01*
X76104825Y-50957136D02*
X76152444Y-50861898D01*
X76152444Y-50861898D02*
X76247682Y-50766660D01*
X76247682Y-50766660D02*
X76390539Y-50719041D01*
X76390539Y-50719041D02*
X76485777Y-50719041D01*
X76485777Y-50719041D02*
X76628634Y-50766660D01*
X76628634Y-50766660D02*
X76676253Y-50814279D01*
X77628634Y-51719041D02*
X77057206Y-51719041D01*
X77342920Y-51719041D02*
X77342920Y-50719041D01*
X77342920Y-50719041D02*
X77247682Y-50861898D01*
X77247682Y-50861898D02*
X77152444Y-50957136D01*
X77152444Y-50957136D02*
X77057206Y-51004755D01*
X78485777Y-50719041D02*
X78295301Y-50719041D01*
X78295301Y-50719041D02*
X78200063Y-50766660D01*
X78200063Y-50766660D02*
X78152444Y-50814279D01*
X78152444Y-50814279D02*
X78057206Y-50957136D01*
X78057206Y-50957136D02*
X78009587Y-51147612D01*
X78009587Y-51147612D02*
X78009587Y-51528564D01*
X78009587Y-51528564D02*
X78057206Y-51623802D01*
X78057206Y-51623802D02*
X78104825Y-51671422D01*
X78104825Y-51671422D02*
X78200063Y-51719041D01*
X78200063Y-51719041D02*
X78390539Y-51719041D01*
X78390539Y-51719041D02*
X78485777Y-51671422D01*
X78485777Y-51671422D02*
X78533396Y-51623802D01*
X78533396Y-51623802D02*
X78581015Y-51528564D01*
X78581015Y-51528564D02*
X78581015Y-51290469D01*
X78581015Y-51290469D02*
X78533396Y-51195231D01*
X78533396Y-51195231D02*
X78485777Y-51147612D01*
X78485777Y-51147612D02*
X78390539Y-51099993D01*
X78390539Y-51099993D02*
X78200063Y-51099993D01*
X78200063Y-51099993D02*
X78104825Y-51147612D01*
X78104825Y-51147612D02*
X78057206Y-51195231D01*
X78057206Y-51195231D02*
X78009587Y-51290469D01*
X70058691Y-48097079D02*
X70106311Y-48144698D01*
X70106311Y-48144698D02*
X70153930Y-48287555D01*
X70153930Y-48287555D02*
X70153930Y-48382793D01*
X70153930Y-48382793D02*
X70106311Y-48525650D01*
X70106311Y-48525650D02*
X70011072Y-48620888D01*
X70011072Y-48620888D02*
X69915834Y-48668507D01*
X69915834Y-48668507D02*
X69725358Y-48716126D01*
X69725358Y-48716126D02*
X69582501Y-48716126D01*
X69582501Y-48716126D02*
X69392025Y-48668507D01*
X69392025Y-48668507D02*
X69296787Y-48620888D01*
X69296787Y-48620888D02*
X69201549Y-48525650D01*
X69201549Y-48525650D02*
X69153930Y-48382793D01*
X69153930Y-48382793D02*
X69153930Y-48287555D01*
X69153930Y-48287555D02*
X69201549Y-48144698D01*
X69201549Y-48144698D02*
X69249168Y-48097079D01*
X70153930Y-47144698D02*
X70153930Y-47716126D01*
X70153930Y-47430412D02*
X69153930Y-47430412D01*
X69153930Y-47430412D02*
X69296787Y-47525650D01*
X69296787Y-47525650D02*
X69392025Y-47620888D01*
X69392025Y-47620888D02*
X69439644Y-47716126D01*
X69153930Y-46811364D02*
X69153930Y-46144698D01*
X69153930Y-46144698D02*
X70153930Y-46573269D01*
D10*
%TO.C,Y1*%
X63019111Y-21800222D02*
X63019111Y-21800222D01*
X63119111Y-21800222D02*
X63119111Y-21800222D01*
X63019111Y-21800222D02*
G75*
G02*
X63119111Y-21800222I50000J0D01*
G01*
X63119111Y-21800222D02*
G75*
G02*
X63019111Y-21800222I-50000J0D01*
G01*
D12*
%TO.C,J8*%
X91826000Y-49412500D02*
X91826000Y-52072500D01*
X102046000Y-49412500D02*
X91826000Y-49412500D01*
X102046000Y-49412500D02*
X102046000Y-52072500D01*
X102046000Y-52072500D02*
X91826000Y-52072500D01*
X103316000Y-49412500D02*
X104646000Y-49412500D01*
X104646000Y-49412500D02*
X104646000Y-50742500D01*
%TO.C,U1*%
X55344111Y-40601222D02*
X54844111Y-40101222D01*
X55344111Y-40101222D01*
X55344111Y-40601222D01*
G36*
X55344111Y-40601222D02*
G01*
X54844111Y-40101222D01*
X55344111Y-40101222D01*
X55344111Y-40601222D01*
G37*
X73636111Y-41993222D02*
X73636111Y-40088222D01*
X73636111Y-23959222D02*
X73636111Y-25864222D01*
X55602111Y-41993222D02*
X73636111Y-41993222D01*
X55602111Y-40088222D02*
X55602111Y-41993222D01*
X55602111Y-25864222D02*
X55602111Y-23959222D01*
X55602111Y-23959222D02*
X73636111Y-23959222D01*
%TO.C,USR_SW1*%
X61373111Y-46704222D02*
X61373111Y-48204222D01*
X62623111Y-50704222D02*
X67123111Y-50704222D01*
X67123111Y-44204222D02*
X62623111Y-44204222D01*
X68373111Y-48204222D02*
X68373111Y-46704222D01*
%TO.C,U4*%
X94855000Y-53452500D02*
X94855000Y-53452500D01*
X94855000Y-53952500D02*
X94855000Y-53652500D01*
X94855000Y-55152500D02*
X94855000Y-55152500D01*
X94855000Y-55652500D02*
X94855000Y-55152500D01*
X95355000Y-53452500D02*
X95055000Y-53452500D01*
X95355000Y-55652500D02*
X94855000Y-55652500D01*
X96555000Y-53452500D02*
X97055000Y-53452500D01*
X96555000Y-55652500D02*
X96555000Y-55652500D01*
X97055000Y-53452500D02*
X97055000Y-53952500D01*
X97055000Y-53952500D02*
X97055000Y-53952500D01*
X97055000Y-55152500D02*
X97055000Y-55652500D01*
X97055000Y-55652500D02*
X96555000Y-55652500D01*
X94855000Y-53452500D02*
X94495000Y-53452500D01*
X94855000Y-53092500D01*
X94855000Y-53452500D01*
G36*
X94855000Y-53452500D02*
G01*
X94495000Y-53452500D01*
X94855000Y-53092500D01*
X94855000Y-53452500D01*
G37*
%TO.C,J9*%
X54384111Y-54760222D02*
X54384111Y-57420222D01*
X72224111Y-54760222D02*
X54384111Y-54760222D01*
X72224111Y-54760222D02*
X72224111Y-57420222D01*
X72224111Y-57420222D02*
X54384111Y-57420222D01*
X73494111Y-54760222D02*
X74824111Y-54760222D01*
X74824111Y-54760222D02*
X74824111Y-56090222D01*
%TO.C,J2*%
X50589111Y-40342222D02*
X50589111Y-22502222D01*
X53249111Y-22502222D02*
X50589111Y-22502222D01*
X53249111Y-40342222D02*
X50589111Y-40342222D01*
X53249111Y-40342222D02*
X53249111Y-22502222D01*
X53249111Y-41612222D02*
X53249111Y-42942222D01*
X53249111Y-42942222D02*
X51919111Y-42942222D01*
%TO.C,R1*%
X23450544Y-48166680D02*
X24220544Y-48166680D01*
X24220544Y-46796680D02*
X24220544Y-49536680D01*
X24220544Y-49536680D02*
X30760544Y-49536680D01*
X30760544Y-46796680D02*
X24220544Y-46796680D01*
X30760544Y-49536680D02*
X30760544Y-46796680D01*
X31530544Y-48166680D02*
X30760544Y-48166680D01*
%TO.C,C15*%
X95621000Y-56738500D02*
X95621000Y-57053500D01*
X95621000Y-56738500D02*
X100861000Y-56738500D01*
X95621000Y-59163500D02*
X95621000Y-59478500D01*
X95621000Y-59478500D02*
X100861000Y-59478500D01*
X100861000Y-56738500D02*
X100861000Y-57053500D01*
X100861000Y-59163500D02*
X100861000Y-59478500D01*
%TO.C,R4*%
X52451111Y-52788222D02*
X53221111Y-52788222D01*
X53221111Y-51418222D02*
X53221111Y-54158222D01*
X53221111Y-54158222D02*
X59761111Y-54158222D01*
X59761111Y-51418222D02*
X53221111Y-51418222D01*
X59761111Y-54158222D02*
X59761111Y-51418222D01*
X60531111Y-52788222D02*
X59761111Y-52788222D01*
%TO.C,C6*%
X75949111Y-37214222D02*
X75949111Y-42454222D01*
X76264111Y-37214222D02*
X75949111Y-37214222D01*
X76264111Y-42454222D02*
X75949111Y-42454222D01*
X78689111Y-37214222D02*
X78374111Y-37214222D01*
X78689111Y-37214222D02*
X78689111Y-42454222D01*
X78689111Y-42454222D02*
X78374111Y-42454222D01*
%TO.C,C10*%
X34771769Y-50101680D02*
X34771769Y-49533680D01*
X34811769Y-50335680D02*
X34811769Y-49299680D01*
X34851769Y-50494680D02*
X34851769Y-49140680D01*
X34891769Y-50622680D02*
X34891769Y-49012680D01*
X34931769Y-50732680D02*
X34931769Y-48902680D01*
X34971769Y-50828680D02*
X34971769Y-48806680D01*
X35011769Y-50915680D02*
X35011769Y-48719680D01*
X35051769Y-50995680D02*
X35051769Y-48639680D01*
X35091769Y-51068680D02*
X35091769Y-48566680D01*
X35131769Y-51136680D02*
X35131769Y-48498680D01*
X35171769Y-51200680D02*
X35171769Y-48434680D01*
X35211769Y-51260680D02*
X35211769Y-48374680D01*
X35251769Y-51317680D02*
X35251769Y-48317680D01*
X35291769Y-51371680D02*
X35291769Y-48263680D01*
X35331769Y-51422680D02*
X35331769Y-48212680D01*
X35371769Y-48777680D02*
X35371769Y-48164680D01*
X35371769Y-51470680D02*
X35371769Y-50857680D01*
X35411769Y-48777680D02*
X35411769Y-48118680D01*
X35411769Y-51516680D02*
X35411769Y-50857680D01*
X35451769Y-48777680D02*
X35451769Y-48074680D01*
X35451769Y-51560680D02*
X35451769Y-50857680D01*
X35491769Y-48777680D02*
X35491769Y-48032680D01*
X35491769Y-51602680D02*
X35491769Y-50857680D01*
X35531769Y-48777680D02*
X35531769Y-47991680D01*
X35531769Y-51643680D02*
X35531769Y-50857680D01*
X35571769Y-48777680D02*
X35571769Y-47953680D01*
X35571769Y-51681680D02*
X35571769Y-50857680D01*
X35611769Y-48777680D02*
X35611769Y-47916680D01*
X35611769Y-51718680D02*
X35611769Y-50857680D01*
X35651769Y-48777680D02*
X35651769Y-47880680D01*
X35651769Y-51754680D02*
X35651769Y-50857680D01*
X35691769Y-48777680D02*
X35691769Y-47846680D01*
X35691769Y-51788680D02*
X35691769Y-50857680D01*
X35731769Y-48777680D02*
X35731769Y-47813680D01*
X35731769Y-51821680D02*
X35731769Y-50857680D01*
X35771769Y-48777680D02*
X35771769Y-47782680D01*
X35771769Y-51852680D02*
X35771769Y-50857680D01*
X35811769Y-48777680D02*
X35811769Y-47752680D01*
X35811769Y-51882680D02*
X35811769Y-50857680D01*
X35851769Y-48777680D02*
X35851769Y-47722680D01*
X35851769Y-51912680D02*
X35851769Y-50857680D01*
X35891769Y-48777680D02*
X35891769Y-47695680D01*
X35891769Y-51939680D02*
X35891769Y-50857680D01*
X35931769Y-48777680D02*
X35931769Y-47668680D01*
X35931769Y-51966680D02*
X35931769Y-50857680D01*
X35971769Y-48777680D02*
X35971769Y-47642680D01*
X35971769Y-51992680D02*
X35971769Y-50857680D01*
X36011769Y-48777680D02*
X36011769Y-47617680D01*
X36011769Y-52017680D02*
X36011769Y-50857680D01*
X36051769Y-48777680D02*
X36051769Y-47593680D01*
X36051769Y-52041680D02*
X36051769Y-50857680D01*
X36091769Y-48777680D02*
X36091769Y-47570680D01*
X36091769Y-52064680D02*
X36091769Y-50857680D01*
X36131769Y-48777680D02*
X36131769Y-47549680D01*
X36131769Y-52085680D02*
X36131769Y-50857680D01*
X36171769Y-48777680D02*
X36171769Y-47527680D01*
X36171769Y-52107680D02*
X36171769Y-50857680D01*
X36211769Y-48777680D02*
X36211769Y-47507680D01*
X36211769Y-52127680D02*
X36211769Y-50857680D01*
X36251769Y-48777680D02*
X36251769Y-47488680D01*
X36251769Y-52146680D02*
X36251769Y-50857680D01*
X36291769Y-48777680D02*
X36291769Y-47469680D01*
X36291769Y-52165680D02*
X36291769Y-50857680D01*
X36331769Y-48777680D02*
X36331769Y-47452680D01*
X36331769Y-52182680D02*
X36331769Y-50857680D01*
X36371769Y-48777680D02*
X36371769Y-47435680D01*
X36371769Y-52199680D02*
X36371769Y-50857680D01*
X36411769Y-48777680D02*
X36411769Y-47419680D01*
X36411769Y-52215680D02*
X36411769Y-50857680D01*
X36451769Y-48777680D02*
X36451769Y-47403680D01*
X36451769Y-52231680D02*
X36451769Y-50857680D01*
X36491769Y-48777680D02*
X36491769Y-47389680D01*
X36491769Y-52245680D02*
X36491769Y-50857680D01*
X36531769Y-48777680D02*
X36531769Y-47375680D01*
X36531769Y-52259680D02*
X36531769Y-50857680D01*
X36571769Y-48777680D02*
X36571769Y-47362680D01*
X36571769Y-52272680D02*
X36571769Y-50857680D01*
X36611769Y-48777680D02*
X36611769Y-47349680D01*
X36611769Y-52285680D02*
X36611769Y-50857680D01*
X36651769Y-48777680D02*
X36651769Y-47337680D01*
X36651769Y-52297680D02*
X36651769Y-50857680D01*
X36692769Y-48777680D02*
X36692769Y-47326680D01*
X36692769Y-52308680D02*
X36692769Y-50857680D01*
X36732769Y-48777680D02*
X36732769Y-47316680D01*
X36732769Y-52318680D02*
X36732769Y-50857680D01*
X36772769Y-48777680D02*
X36772769Y-47306680D01*
X36772769Y-52328680D02*
X36772769Y-50857680D01*
X36812769Y-48777680D02*
X36812769Y-47297680D01*
X36812769Y-52337680D02*
X36812769Y-50857680D01*
X36852769Y-48777680D02*
X36852769Y-47289680D01*
X36852769Y-52345680D02*
X36852769Y-50857680D01*
X36892769Y-48777680D02*
X36892769Y-47281680D01*
X36892769Y-52353680D02*
X36892769Y-50857680D01*
X36932769Y-48777680D02*
X36932769Y-47274680D01*
X36932769Y-52360680D02*
X36932769Y-50857680D01*
X36972769Y-48777680D02*
X36972769Y-47267680D01*
X36972769Y-52367680D02*
X36972769Y-50857680D01*
X37012769Y-48777680D02*
X37012769Y-47261680D01*
X37012769Y-52373680D02*
X37012769Y-50857680D01*
X37052769Y-48777680D02*
X37052769Y-47256680D01*
X37052769Y-52378680D02*
X37052769Y-50857680D01*
X37092769Y-48777680D02*
X37092769Y-47252680D01*
X37092769Y-52382680D02*
X37092769Y-50857680D01*
X37132769Y-48777680D02*
X37132769Y-47248680D01*
X37132769Y-52386680D02*
X37132769Y-50857680D01*
X37172769Y-48777680D02*
X37172769Y-47244680D01*
X37172769Y-52390680D02*
X37172769Y-50857680D01*
X37212769Y-48777680D02*
X37212769Y-47241680D01*
X37212769Y-52393680D02*
X37212769Y-50857680D01*
X37252769Y-48777680D02*
X37252769Y-47239680D01*
X37252769Y-52395680D02*
X37252769Y-50857680D01*
X37292769Y-48777680D02*
X37292769Y-47238680D01*
X37292769Y-52396680D02*
X37292769Y-50857680D01*
X37332769Y-48777680D02*
X37332769Y-47237680D01*
X37332769Y-52397680D02*
X37332769Y-50857680D01*
X37372769Y-48777680D02*
X37372769Y-47237680D01*
X37372769Y-52397680D02*
X37372769Y-50857680D01*
X39927544Y-51542680D02*
X39927544Y-51042680D01*
X40177544Y-51292680D02*
X39677544Y-51292680D01*
X39992769Y-49817680D02*
G75*
G02*
X34752769Y-49817680I-2620000J0D01*
G01*
X34752769Y-49817680D02*
G75*
G02*
X39992769Y-49817680I2620000J0D01*
G01*
%TO.C,C11*%
X101042111Y-20657222D02*
X101042111Y-20972222D01*
X101042111Y-20657222D02*
X106282111Y-20657222D01*
X101042111Y-23082222D02*
X101042111Y-23397222D01*
X101042111Y-23397222D02*
X106282111Y-23397222D01*
X106282111Y-20657222D02*
X106282111Y-20972222D01*
X106282111Y-23082222D02*
X106282111Y-23397222D01*
%TO.C,R3*%
X64897111Y-52788222D02*
X65667111Y-52788222D01*
X65667111Y-51418222D02*
X65667111Y-54158222D01*
X65667111Y-54158222D02*
X72207111Y-54158222D01*
X72207111Y-51418222D02*
X65667111Y-51418222D01*
X72207111Y-54158222D02*
X72207111Y-51418222D01*
X72977111Y-52788222D02*
X72207111Y-52788222D01*
%TO.C,C5*%
X56411111Y-20745222D02*
X56411111Y-20430222D01*
X56411111Y-23170222D02*
X56411111Y-22855222D01*
X61651111Y-20430222D02*
X56411111Y-20430222D01*
X61651111Y-20745222D02*
X61651111Y-20430222D01*
X61651111Y-23170222D02*
X56411111Y-23170222D01*
X61651111Y-23170222D02*
X61651111Y-22855222D01*
%TO.C,C13*%
X91537000Y-53705500D02*
X91537000Y-58945500D01*
X91852000Y-53705500D02*
X91537000Y-53705500D01*
X91852000Y-58945500D02*
X91537000Y-58945500D01*
X94277000Y-53705500D02*
X93962000Y-53705500D01*
X94277000Y-53705500D02*
X94277000Y-58945500D01*
X94277000Y-58945500D02*
X93962000Y-58945500D01*
%TO.C,R2*%
X23450544Y-51214680D02*
X24220544Y-51214680D01*
X24220544Y-49844680D02*
X24220544Y-52584680D01*
X24220544Y-52584680D02*
X30760544Y-52584680D01*
X30760544Y-49844680D02*
X24220544Y-49844680D01*
X30760544Y-52584680D02*
X30760544Y-49844680D01*
X31530544Y-51214680D02*
X30760544Y-51214680D01*
%TO.C,Y2*%
X27925344Y-41073880D02*
X25125344Y-41073880D01*
X27925344Y-43473880D02*
X27925344Y-41073880D01*
%TO.C,C2*%
X33537344Y-24769480D02*
X33852344Y-24769480D01*
X33537344Y-30009480D02*
X33537344Y-24769480D01*
X33537344Y-30009480D02*
X33852344Y-30009480D01*
X35962344Y-24769480D02*
X36277344Y-24769480D01*
X35962344Y-30009480D02*
X36277344Y-30009480D01*
X36277344Y-30009480D02*
X36277344Y-24769480D01*
%TO.C,G1*%
X72037111Y-48326222D02*
X73447111Y-48326222D01*
X72047111Y-50646222D02*
X73447111Y-50646222D01*
X71667111Y-48376222D02*
X71427111Y-48046222D01*
X71907111Y-48046222D01*
X71667111Y-48376222D01*
G36*
X71667111Y-48376222D02*
G01*
X71427111Y-48046222D01*
X71907111Y-48046222D01*
X71667111Y-48376222D01*
G37*
%TO.C,U3*%
X91484111Y-23858222D02*
X91484111Y-27568222D01*
X91484111Y-23858222D02*
X107204111Y-23858222D01*
X91484111Y-28268222D02*
X91484111Y-39578222D01*
X91484111Y-39578222D02*
X107204111Y-39578222D01*
X107204111Y-23858222D02*
X107204111Y-39578222D01*
X91484111Y-27918222D02*
X91154111Y-28158222D01*
X91154111Y-27678222D01*
X91484111Y-27918222D01*
G36*
X91484111Y-27918222D02*
G01*
X91154111Y-28158222D01*
X91154111Y-27678222D01*
X91484111Y-27918222D01*
G37*
%TO.C,J6*%
X108174111Y-35523222D02*
X108174111Y-25303222D01*
X110834111Y-25303222D02*
X108174111Y-25303222D01*
X110834111Y-35523222D02*
X108174111Y-35523222D01*
X110834111Y-35523222D02*
X110834111Y-25303222D01*
X110834111Y-36793222D02*
X110834111Y-38123222D01*
X110834111Y-38123222D02*
X109504111Y-38123222D01*
%TO.C,RST_SW1*%
X51721111Y-46704222D02*
X51721111Y-48204222D01*
X52971111Y-50704222D02*
X57471111Y-50704222D01*
X57471111Y-44204222D02*
X52971111Y-44204222D01*
X58721111Y-48204222D02*
X58721111Y-46704222D01*
%TO.C,J1*%
X75989111Y-32722222D02*
X75989111Y-22502222D01*
X78649111Y-22502222D02*
X75989111Y-22502222D01*
X78649111Y-32722222D02*
X75989111Y-32722222D01*
X78649111Y-32722222D02*
X78649111Y-22502222D01*
X78649111Y-33992222D02*
X78649111Y-35322222D01*
X78649111Y-35322222D02*
X77319111Y-35322222D01*
%TO.C,C4*%
X67621511Y-20430222D02*
X67621511Y-20745222D01*
X67621511Y-20430222D02*
X72861511Y-20430222D01*
X67621511Y-22855222D02*
X67621511Y-23170222D01*
X67621511Y-23170222D02*
X72861511Y-23170222D01*
X72861511Y-20430222D02*
X72861511Y-20745222D01*
X72861511Y-22855222D02*
X72861511Y-23170222D01*
%TO.C,C7*%
X25937344Y-43748680D02*
X25937344Y-44063680D01*
X25937344Y-43748680D02*
X31177344Y-43748680D01*
X25937344Y-46173680D02*
X25937344Y-46488680D01*
X25937344Y-46488680D02*
X31177344Y-46488680D01*
X31177344Y-43748680D02*
X31177344Y-44063680D01*
X31177344Y-46173680D02*
X31177344Y-46488680D01*
%TO.C,C9*%
X26878944Y-39339300D02*
X26878944Y-39620460D01*
X27898944Y-39339300D02*
X27898944Y-39620460D01*
%TO.C,C8*%
X25202544Y-39339300D02*
X25202544Y-39620460D01*
X26222544Y-39339300D02*
X26222544Y-39620460D01*
%TO.C,C3*%
X25307744Y-24769480D02*
X25622744Y-24769480D01*
X25307744Y-30009480D02*
X25307744Y-24769480D01*
X25307744Y-30009480D02*
X25622744Y-30009480D01*
X27732744Y-24769480D02*
X28047744Y-24769480D01*
X27732744Y-30009480D02*
X28047744Y-30009480D01*
X28047744Y-30009480D02*
X28047744Y-24769480D01*
%TO.C,C14*%
X98415000Y-53436500D02*
X98415000Y-53751500D01*
X98415000Y-53436500D02*
X103655000Y-53436500D01*
X98415000Y-55861500D02*
X98415000Y-56176500D01*
X98415000Y-56176500D02*
X103655000Y-56176500D01*
X103655000Y-53436500D02*
X103655000Y-53751500D01*
X103655000Y-55861500D02*
X103655000Y-56176500D01*
%TO.C,C1*%
X33535111Y-38750222D02*
X33535111Y-43990222D01*
X33850111Y-38750222D02*
X33535111Y-38750222D01*
X33850111Y-43990222D02*
X33535111Y-43990222D01*
X36275111Y-38750222D02*
X35960111Y-38750222D01*
X36275111Y-38750222D02*
X36275111Y-43990222D01*
X36275111Y-43990222D02*
X35960111Y-43990222D01*
%TO.C,U2*%
X26023109Y-33918027D02*
X25899365Y-34041771D01*
X26023109Y-34589779D02*
X25856939Y-34423609D01*
X30456668Y-29484468D02*
X30792544Y-29148592D01*
X30792544Y-29148592D02*
X31128420Y-29484468D01*
X30792544Y-39359214D02*
X30456668Y-39023338D01*
X31128420Y-39023338D02*
X30792544Y-39359214D01*
X35561979Y-34589779D02*
X35897855Y-34253903D01*
X35897855Y-34253903D02*
X35561979Y-33918027D01*
X25687233Y-34253903D02*
X25284182Y-34190263D01*
X25623593Y-33850852D01*
X25687233Y-34253903D01*
G36*
X25687233Y-34253903D02*
G01*
X25284182Y-34190263D01*
X25623593Y-33850852D01*
X25687233Y-34253903D01*
G37*
%TO.C,J7*%
X87854111Y-35523222D02*
X87854111Y-25303222D01*
X90514111Y-25303222D02*
X87854111Y-25303222D01*
X90514111Y-35523222D02*
X87854111Y-35523222D01*
X90514111Y-35523222D02*
X90514111Y-25303222D01*
X90514111Y-36793222D02*
X90514111Y-38123222D01*
X90514111Y-38123222D02*
X89184111Y-38123222D01*
%TO.C,C12*%
X92406111Y-20657222D02*
X92406111Y-20972222D01*
X92406111Y-20657222D02*
X97646111Y-20657222D01*
X92406111Y-23082222D02*
X92406111Y-23397222D01*
X92406111Y-23397222D02*
X97646111Y-23397222D01*
X97646111Y-20657222D02*
X97646111Y-20972222D01*
X97646111Y-23082222D02*
X97646111Y-23397222D01*
%TO.C,C16*%
X75949111Y-44326222D02*
X76264111Y-44326222D01*
X75949111Y-49566222D02*
X75949111Y-44326222D01*
X75949111Y-49566222D02*
X76264111Y-49566222D01*
X78374111Y-44326222D02*
X78689111Y-44326222D01*
X78374111Y-49566222D02*
X78689111Y-49566222D01*
X78689111Y-49566222D02*
X78689111Y-44326222D01*
%TO.C,C17*%
X69987224Y-43693222D02*
X70487224Y-43693222D01*
X70237224Y-43443222D02*
X70237224Y-43943222D01*
X72791999Y-42588222D02*
X72791999Y-44128222D01*
X72791999Y-46208222D02*
X72791999Y-47748222D01*
X72831999Y-42588222D02*
X72831999Y-44128222D01*
X72831999Y-46208222D02*
X72831999Y-47748222D01*
X72871999Y-42589222D02*
X72871999Y-44128222D01*
X72871999Y-46208222D02*
X72871999Y-47747222D01*
X72911999Y-42590222D02*
X72911999Y-44128222D01*
X72911999Y-46208222D02*
X72911999Y-47746222D01*
X72951999Y-42592222D02*
X72951999Y-44128222D01*
X72951999Y-46208222D02*
X72951999Y-47744222D01*
X72991999Y-42595222D02*
X72991999Y-44128222D01*
X72991999Y-46208222D02*
X72991999Y-47741222D01*
X73031999Y-42599222D02*
X73031999Y-44128222D01*
X73031999Y-46208222D02*
X73031999Y-47737222D01*
X73071999Y-42603222D02*
X73071999Y-44128222D01*
X73071999Y-46208222D02*
X73071999Y-47733222D01*
X73111999Y-42607222D02*
X73111999Y-44128222D01*
X73111999Y-46208222D02*
X73111999Y-47729222D01*
X73151999Y-42612222D02*
X73151999Y-44128222D01*
X73151999Y-46208222D02*
X73151999Y-47724222D01*
X73191999Y-42618222D02*
X73191999Y-44128222D01*
X73191999Y-46208222D02*
X73191999Y-47718222D01*
X73231999Y-42625222D02*
X73231999Y-44128222D01*
X73231999Y-46208222D02*
X73231999Y-47711222D01*
X73271999Y-42632222D02*
X73271999Y-44128222D01*
X73271999Y-46208222D02*
X73271999Y-47704222D01*
X73311999Y-42640222D02*
X73311999Y-44128222D01*
X73311999Y-46208222D02*
X73311999Y-47696222D01*
X73351999Y-42648222D02*
X73351999Y-44128222D01*
X73351999Y-46208222D02*
X73351999Y-47688222D01*
X73391999Y-42657222D02*
X73391999Y-44128222D01*
X73391999Y-46208222D02*
X73391999Y-47679222D01*
X73431999Y-42667222D02*
X73431999Y-44128222D01*
X73431999Y-46208222D02*
X73431999Y-47669222D01*
X73471999Y-42677222D02*
X73471999Y-44128222D01*
X73471999Y-46208222D02*
X73471999Y-47659222D01*
X73512999Y-42688222D02*
X73512999Y-44128222D01*
X73512999Y-46208222D02*
X73512999Y-47648222D01*
X73552999Y-42700222D02*
X73552999Y-44128222D01*
X73552999Y-46208222D02*
X73552999Y-47636222D01*
X73592999Y-42713222D02*
X73592999Y-44128222D01*
X73592999Y-46208222D02*
X73592999Y-47623222D01*
X73632999Y-42726222D02*
X73632999Y-44128222D01*
X73632999Y-46208222D02*
X73632999Y-47610222D01*
X73672999Y-42740222D02*
X73672999Y-44128222D01*
X73672999Y-46208222D02*
X73672999Y-47596222D01*
X73712999Y-42754222D02*
X73712999Y-44128222D01*
X73712999Y-46208222D02*
X73712999Y-47582222D01*
X73752999Y-42770222D02*
X73752999Y-44128222D01*
X73752999Y-46208222D02*
X73752999Y-47566222D01*
X73792999Y-42786222D02*
X73792999Y-44128222D01*
X73792999Y-46208222D02*
X73792999Y-47550222D01*
X73832999Y-42803222D02*
X73832999Y-44128222D01*
X73832999Y-46208222D02*
X73832999Y-47533222D01*
X73872999Y-42820222D02*
X73872999Y-44128222D01*
X73872999Y-46208222D02*
X73872999Y-47516222D01*
X73912999Y-42839222D02*
X73912999Y-44128222D01*
X73912999Y-46208222D02*
X73912999Y-47497222D01*
X73952999Y-42858222D02*
X73952999Y-44128222D01*
X73952999Y-46208222D02*
X73952999Y-47478222D01*
X73992999Y-42878222D02*
X73992999Y-44128222D01*
X73992999Y-46208222D02*
X73992999Y-47458222D01*
X74032999Y-42900222D02*
X74032999Y-44128222D01*
X74032999Y-46208222D02*
X74032999Y-47436222D01*
X74072999Y-42921222D02*
X74072999Y-44128222D01*
X74072999Y-46208222D02*
X74072999Y-47415222D01*
X74112999Y-42944222D02*
X74112999Y-44128222D01*
X74112999Y-46208222D02*
X74112999Y-47392222D01*
X74152999Y-42968222D02*
X74152999Y-44128222D01*
X74152999Y-46208222D02*
X74152999Y-47368222D01*
X74192999Y-42993222D02*
X74192999Y-44128222D01*
X74192999Y-46208222D02*
X74192999Y-47343222D01*
X74232999Y-43019222D02*
X74232999Y-44128222D01*
X74232999Y-46208222D02*
X74232999Y-47317222D01*
X74272999Y-43046222D02*
X74272999Y-44128222D01*
X74272999Y-46208222D02*
X74272999Y-47290222D01*
X74312999Y-43073222D02*
X74312999Y-44128222D01*
X74312999Y-46208222D02*
X74312999Y-47263222D01*
X74352999Y-43103222D02*
X74352999Y-44128222D01*
X74352999Y-46208222D02*
X74352999Y-47233222D01*
X74392999Y-43133222D02*
X74392999Y-44128222D01*
X74392999Y-46208222D02*
X74392999Y-47203222D01*
X74432999Y-43164222D02*
X74432999Y-44128222D01*
X74432999Y-46208222D02*
X74432999Y-47172222D01*
X74472999Y-43197222D02*
X74472999Y-44128222D01*
X74472999Y-46208222D02*
X74472999Y-47139222D01*
X74512999Y-43231222D02*
X74512999Y-44128222D01*
X74512999Y-46208222D02*
X74512999Y-47105222D01*
X74552999Y-43267222D02*
X74552999Y-44128222D01*
X74552999Y-46208222D02*
X74552999Y-47069222D01*
X74592999Y-43304222D02*
X74592999Y-44128222D01*
X74592999Y-46208222D02*
X74592999Y-47032222D01*
X74632999Y-43342222D02*
X74632999Y-44128222D01*
X74632999Y-46208222D02*
X74632999Y-46994222D01*
X74672999Y-43383222D02*
X74672999Y-44128222D01*
X74672999Y-46208222D02*
X74672999Y-46953222D01*
X74712999Y-43425222D02*
X74712999Y-44128222D01*
X74712999Y-46208222D02*
X74712999Y-46911222D01*
X74752999Y-43469222D02*
X74752999Y-44128222D01*
X74752999Y-46208222D02*
X74752999Y-46867222D01*
X74792999Y-43515222D02*
X74792999Y-44128222D01*
X74792999Y-46208222D02*
X74792999Y-46821222D01*
X74832999Y-43563222D02*
X74832999Y-46773222D01*
X74872999Y-43614222D02*
X74872999Y-46722222D01*
X74912999Y-43668222D02*
X74912999Y-46668222D01*
X74952999Y-43725222D02*
X74952999Y-46611222D01*
X74992999Y-43785222D02*
X74992999Y-46551222D01*
X75032999Y-43849222D02*
X75032999Y-46487222D01*
X75072999Y-43917222D02*
X75072999Y-46419222D01*
X75112999Y-43990222D02*
X75112999Y-46346222D01*
X75152999Y-44070222D02*
X75152999Y-46266222D01*
X75192999Y-44157222D02*
X75192999Y-46179222D01*
X75232999Y-44253222D02*
X75232999Y-46083222D01*
X75272999Y-44363222D02*
X75272999Y-45973222D01*
X75312999Y-44491222D02*
X75312999Y-45845222D01*
X75352999Y-44650222D02*
X75352999Y-45686222D01*
X75392999Y-44884222D02*
X75392999Y-45452222D01*
X75411999Y-45168222D02*
G75*
G02*
X70171999Y-45168222I-2620000J0D01*
G01*
X70171999Y-45168222D02*
G75*
G02*
X75411999Y-45168222I2620000J0D01*
G01*
%TD*%
M02*
