%TF.GenerationSoftware,KiCad,Pcbnew,8.0.2-8.0.2-0~ubuntu22.04.1*%
%TF.CreationDate,2024-05-30T13:23:40+02:00*%
%TF.ProjectId,Version 1,56657273-696f-46e2-9031-2e6b69636164,1*%
%TF.SameCoordinates,Original*%
%TF.FileFunction,Soldermask,Bot*%
%TF.FilePolarity,Negative*%
%FSLAX46Y46*%
G04 Gerber Fmt 4.6, Leading zero omitted, Abs format (unit mm)*
G04 Created by KiCad (PCBNEW 8.0.2-8.0.2-0~ubuntu22.04.1) date 2024-05-30 13:23:40*
%MOMM*%
%LPD*%
G01*
G04 APERTURE LIST*
%ADD10R,1.700000X1.700000*%
%ADD11O,1.700000X1.700000*%
%ADD12C,2.000000*%
%ADD13C,1.600000*%
%ADD14O,1.600000X1.600000*%
%ADD15R,1.600000X1.600000*%
G04 APERTURE END LIST*
D10*
%TO.C,J8*%
X103316000Y-50742500D03*
D11*
X100776000Y-50742500D03*
X98236000Y-50742500D03*
X95696000Y-50742500D03*
X93156000Y-50742500D03*
%TD*%
D12*
%TO.C,USR_SW1*%
X61623111Y-45204222D03*
X68123111Y-45204222D03*
X61623111Y-49704222D03*
X68123111Y-49704222D03*
%TD*%
D10*
%TO.C,J9*%
X73494111Y-56090222D03*
D11*
X70954111Y-56090222D03*
X68414111Y-56090222D03*
X65874111Y-56090222D03*
X63334111Y-56090222D03*
X60794111Y-56090222D03*
X58254111Y-56090222D03*
X55714111Y-56090222D03*
%TD*%
D10*
%TO.C,J2*%
X51919111Y-41612222D03*
D11*
X51919111Y-39072222D03*
X51919111Y-36532222D03*
X51919111Y-33992222D03*
X51919111Y-31452222D03*
X51919111Y-28912222D03*
X51919111Y-26372222D03*
X51919111Y-23832222D03*
%TD*%
D13*
%TO.C,R1*%
X22410544Y-48166680D03*
D14*
X32570544Y-48166680D03*
%TD*%
D13*
%TO.C,C15*%
X95741000Y-58108500D03*
X100741000Y-58108500D03*
%TD*%
%TO.C,R4*%
X61571111Y-52788222D03*
D14*
X51411111Y-52788222D03*
%TD*%
D13*
%TO.C,C6*%
X77319111Y-37334222D03*
X77319111Y-42334222D03*
%TD*%
D15*
%TO.C,C10*%
X38372769Y-49817680D03*
D13*
X36372769Y-49817680D03*
%TD*%
%TO.C,C11*%
X101162111Y-22027222D03*
X106162111Y-22027222D03*
%TD*%
%TO.C,R3*%
X63857111Y-52788222D03*
D14*
X74017111Y-52788222D03*
%TD*%
D13*
%TO.C,C5*%
X61531111Y-21800222D03*
X56531111Y-21800222D03*
%TD*%
%TO.C,C13*%
X92907000Y-53825500D03*
X92907000Y-58825500D03*
%TD*%
%TO.C,R2*%
X22410544Y-51214680D03*
D14*
X32570544Y-51214680D03*
%TD*%
D13*
%TO.C,C2*%
X34907344Y-29889480D03*
X34907344Y-24889480D03*
%TD*%
D10*
%TO.C,J6*%
X109504111Y-36793222D03*
D11*
X109504111Y-34253222D03*
X109504111Y-31713222D03*
X109504111Y-29173222D03*
X109504111Y-26633222D03*
%TD*%
D12*
%TO.C,RST_SW1*%
X51971111Y-45204222D03*
X58471111Y-45204222D03*
X51971111Y-49704222D03*
X58471111Y-49704222D03*
%TD*%
D10*
%TO.C,J1*%
X77319111Y-33992222D03*
D11*
X77319111Y-31452222D03*
X77319111Y-28912222D03*
X77319111Y-26372222D03*
X77319111Y-23832222D03*
%TD*%
D13*
%TO.C,C4*%
X67741511Y-21800222D03*
X72741511Y-21800222D03*
%TD*%
%TO.C,C7*%
X26057344Y-45118680D03*
X31057344Y-45118680D03*
%TD*%
%TO.C,C3*%
X26677744Y-29889480D03*
X26677744Y-24889480D03*
%TD*%
%TO.C,C14*%
X98535000Y-54806500D03*
X103535000Y-54806500D03*
%TD*%
%TO.C,C1*%
X34905111Y-38870222D03*
X34905111Y-43870222D03*
%TD*%
D10*
%TO.C,J7*%
X89184111Y-36793222D03*
D11*
X89184111Y-34253222D03*
X89184111Y-31713222D03*
X89184111Y-29173222D03*
X89184111Y-26633222D03*
%TD*%
D13*
%TO.C,C12*%
X92526111Y-22027222D03*
X97526111Y-22027222D03*
%TD*%
%TO.C,C16*%
X77319111Y-49446222D03*
X77319111Y-44446222D03*
%TD*%
D15*
%TO.C,C17*%
X71791999Y-45168222D03*
D13*
X73791999Y-45168222D03*
%TD*%
D10*
%TO.C,J4*%
X23172544Y-44864680D03*
D11*
X23172544Y-42324680D03*
X23172544Y-39784680D03*
X23172544Y-37244680D03*
X23172544Y-34704680D03*
X23172544Y-32164680D03*
X23172544Y-29624680D03*
X23172544Y-27084680D03*
X23172544Y-24544680D03*
X23172544Y-22004680D03*
%TD*%
D10*
%TO.C,J3*%
X34592544Y-22004680D03*
D11*
X32052544Y-22004680D03*
X29512544Y-22004680D03*
X26972544Y-22004680D03*
%TD*%
D10*
%TO.C,J5*%
X38412544Y-44864680D03*
D11*
X38412544Y-42324680D03*
X38412544Y-39784680D03*
X38412544Y-37244680D03*
X38412544Y-34704680D03*
X38412544Y-32164680D03*
X38412544Y-29624680D03*
X38412544Y-27084680D03*
X38412544Y-24544680D03*
X38412544Y-22004680D03*
%TD*%
M02*
