%TF.GenerationSoftware,KiCad,Pcbnew,8.0.2-8.0.2-0~ubuntu22.04.1*%
%TF.CreationDate,2024-05-30T13:23:40+02:00*%
%TF.ProjectId,Version 1,56657273-696f-46e2-9031-2e6b69636164,1*%
%TF.SameCoordinates,Original*%
%TF.FileFunction,Paste,Top*%
%TF.FilePolarity,Positive*%
%FSLAX46Y46*%
G04 Gerber Fmt 4.6, Leading zero omitted, Abs format (unit mm)*
G04 Created by KiCad (PCBNEW 8.0.2-8.0.2-0~ubuntu22.04.1) date 2024-05-30 13:23:40*
%MOMM*%
%LPD*%
G01*
G04 APERTURE LIST*
G04 Aperture macros list*
%AMRoundRect*
0 Rectangle with rounded corners*
0 $1 Rounding radius*
0 $2 $3 $4 $5 $6 $7 $8 $9 X,Y pos of 4 corners*
0 Add a 4 corners polygon primitive as box body*
4,1,4,$2,$3,$4,$5,$6,$7,$8,$9,$2,$3,0*
0 Add four circle primitives for the rounded corners*
1,1,$1+$1,$2,$3*
1,1,$1+$1,$4,$5*
1,1,$1+$1,$6,$7*
1,1,$1+$1,$8,$9*
0 Add four rect primitives between the rounded corners*
20,1,$1+$1,$2,$3,$4,$5,0*
20,1,$1+$1,$4,$5,$6,$7,0*
20,1,$1+$1,$6,$7,$8,$9,0*
20,1,$1+$1,$8,$9,$2,$3,0*%
G04 Aperture macros list end*
%ADD10R,0.600000X1.100000*%
%ADD11RoundRect,0.250000X0.500000X-0.250000X0.500000X0.250000X-0.500000X0.250000X-0.500000X-0.250000X0*%
%ADD12R,0.375000X0.350000*%
%ADD13R,0.350000X0.375000*%
%ADD14RoundRect,0.102000X0.373000X0.323000X-0.373000X0.323000X-0.373000X-0.323000X0.373000X-0.323000X0*%
%ADD15RoundRect,0.100000X-0.225000X-0.100000X0.225000X-0.100000X0.225000X0.100000X-0.225000X0.100000X0*%
%ADD16R,0.720000X0.580000*%
%ADD17R,0.580000X0.720000*%
%ADD18RoundRect,0.225000X-0.250000X0.225000X-0.250000X-0.225000X0.250000X-0.225000X0.250000X0.225000X0*%
%ADD19RoundRect,0.250000X0.000000X-0.445477X0.445477X0.000000X0.000000X0.445477X-0.445477X0.000000X0*%
%ADD20RoundRect,0.062500X-0.220971X-0.309359X0.309359X0.220971X0.220971X0.309359X-0.309359X-0.220971X0*%
%ADD21RoundRect,0.062500X0.220971X-0.309359X0.309359X-0.220971X-0.220971X0.309359X-0.309359X0.220971X0*%
G04 APERTURE END LIST*
D10*
%TO.C,Y1*%
X63919111Y-21800222D03*
X65319111Y-21800222D03*
%TD*%
D11*
%TO.C,U1*%
X73509111Y-26626222D03*
X73509111Y-27896222D03*
X73509111Y-29166222D03*
X73509111Y-30436222D03*
X73509111Y-31706222D03*
X73509111Y-32976222D03*
X73509111Y-34246222D03*
X73509111Y-35516222D03*
X73509111Y-36786222D03*
X73509111Y-38056222D03*
X73509111Y-39326222D03*
X55729111Y-26626222D03*
X55729111Y-27896222D03*
X55729111Y-29166222D03*
X55729111Y-30436222D03*
X55729111Y-31706222D03*
X55729111Y-32976222D03*
X55729111Y-34246222D03*
X55729111Y-35516222D03*
X55729111Y-36786222D03*
X55729111Y-38056222D03*
X55729111Y-39326222D03*
%TD*%
D12*
%TO.C,U4*%
X95192500Y-53802500D03*
X95192500Y-54302500D03*
X95192500Y-54802500D03*
X95192500Y-55302500D03*
D13*
X95705000Y-55315000D03*
X96205000Y-55315000D03*
D12*
X96717500Y-55302500D03*
X96717500Y-54802500D03*
X96717500Y-54302500D03*
X96717500Y-53802500D03*
D13*
X96205000Y-53790000D03*
X95705000Y-53790000D03*
%TD*%
D14*
%TO.C,Y2*%
X27250344Y-41698880D03*
X25800344Y-41698880D03*
X25800344Y-42848880D03*
X27250344Y-42848880D03*
%TD*%
D15*
%TO.C,G1*%
X71797111Y-48836222D03*
X71797111Y-49486222D03*
X71797111Y-50136222D03*
X73697111Y-50136222D03*
X73697111Y-49486222D03*
X73697111Y-48836222D03*
%TD*%
D16*
%TO.C,U3*%
X92244111Y-27493222D03*
X92244111Y-28343222D03*
X92244111Y-29393222D03*
X92244111Y-30243222D03*
X92244111Y-31293222D03*
X92244111Y-32143222D03*
X92244111Y-33193222D03*
X92244111Y-34043222D03*
X92244111Y-35093222D03*
X92244111Y-35943222D03*
X93244111Y-27493222D03*
X93244111Y-28343222D03*
X93244111Y-29393222D03*
X93244111Y-30243222D03*
X93244111Y-31293222D03*
X93244111Y-32143222D03*
X93244111Y-33193222D03*
X93244111Y-34043222D03*
X93244111Y-35093222D03*
X93244111Y-35943222D03*
D17*
X95119111Y-24618222D03*
X95119111Y-25618222D03*
X95119111Y-37818222D03*
X95119111Y-38818222D03*
X95969111Y-24618222D03*
X95969111Y-25618222D03*
X95969111Y-37818222D03*
X95969111Y-38818222D03*
X97019111Y-24618222D03*
X97019111Y-25618222D03*
X97019111Y-37818222D03*
X97019111Y-38818222D03*
X97869111Y-24618222D03*
X97869111Y-25618222D03*
X97869111Y-37818222D03*
X97869111Y-38818222D03*
X98919111Y-24618222D03*
X98919111Y-25618222D03*
X98919111Y-37818222D03*
X98919111Y-38818222D03*
X99769111Y-24618222D03*
X99769111Y-25618222D03*
X99769111Y-37818222D03*
X99769111Y-38818222D03*
X100819111Y-24618222D03*
X100819111Y-25618222D03*
X100819111Y-37818222D03*
X100819111Y-38818222D03*
X101669111Y-24618222D03*
X101669111Y-25618222D03*
X101669111Y-37818222D03*
X101669111Y-38818222D03*
X102719111Y-24618222D03*
X102719111Y-25618222D03*
X102719111Y-37818222D03*
X102719111Y-38818222D03*
X103569111Y-24618222D03*
X103569111Y-25618222D03*
X103569111Y-37818222D03*
X103569111Y-38818222D03*
D16*
X105444111Y-27493222D03*
X105444111Y-28343222D03*
X105444111Y-29393222D03*
X105444111Y-30243222D03*
X105444111Y-31293222D03*
X105444111Y-32143222D03*
X105444111Y-33193222D03*
X105444111Y-34043222D03*
X105444111Y-35093222D03*
X105444111Y-35943222D03*
X106444111Y-27493222D03*
X106444111Y-28343222D03*
X106444111Y-29393222D03*
X106444111Y-30243222D03*
X106444111Y-31293222D03*
X106444111Y-32143222D03*
X106444111Y-33193222D03*
X106444111Y-34043222D03*
X106444111Y-35093222D03*
X106444111Y-35943222D03*
%TD*%
D18*
%TO.C,C9*%
X27388944Y-38704880D03*
X27388944Y-40254880D03*
%TD*%
%TO.C,C8*%
X25712544Y-38704880D03*
X25712544Y-40254880D03*
%TD*%
D19*
%TO.C,U2*%
X27822696Y-34253903D03*
X28812645Y-35243852D03*
X29802595Y-36233802D03*
X30792544Y-37223751D03*
X28812645Y-33263954D03*
X29802595Y-34253903D03*
X30792544Y-35243852D03*
X31782493Y-36233802D03*
X29802595Y-32274004D03*
X30792544Y-33263954D03*
X31782493Y-34253903D03*
X32772443Y-35243852D03*
X30792544Y-31284055D03*
X31782493Y-32274004D03*
X32772443Y-33263954D03*
X33762392Y-34253903D03*
D20*
X26417321Y-34740039D03*
X26770874Y-35093592D03*
X27124428Y-35447146D03*
X27477981Y-35800699D03*
X27831534Y-36154252D03*
X28185088Y-36507806D03*
X28538641Y-36861359D03*
X28892195Y-37214913D03*
X29245748Y-37568466D03*
X29599301Y-37922019D03*
X29952855Y-38275573D03*
X30306408Y-38629126D03*
D21*
X31278680Y-38629126D03*
X31632233Y-38275573D03*
X31985787Y-37922019D03*
X32339340Y-37568466D03*
X32692893Y-37214913D03*
X33046447Y-36861359D03*
X33400000Y-36507806D03*
X33753554Y-36154252D03*
X34107107Y-35800699D03*
X34460660Y-35447146D03*
X34814214Y-35093592D03*
X35167767Y-34740039D03*
D20*
X35167767Y-33767767D03*
X34814214Y-33414214D03*
X34460660Y-33060660D03*
X34107107Y-32707107D03*
X33753554Y-32353554D03*
X33400000Y-32000000D03*
X33046447Y-31646447D03*
X32692893Y-31292893D03*
X32339340Y-30939340D03*
X31985787Y-30585787D03*
X31632233Y-30232233D03*
X31278680Y-29878680D03*
D21*
X30306408Y-29878680D03*
X29952855Y-30232233D03*
X29599301Y-30585787D03*
X29245748Y-30939340D03*
X28892195Y-31292893D03*
X28538641Y-31646447D03*
X28185088Y-32000000D03*
X27831534Y-32353554D03*
X27477981Y-32707107D03*
X27124428Y-33060660D03*
X26770874Y-33414214D03*
X26417321Y-33767767D03*
%TD*%
M02*
