%TF.GenerationSoftware,KiCad,Pcbnew,8.0.2-8.0.2-0~ubuntu22.04.1*%
%TF.CreationDate,2024-05-31T00:48:12+02:00*%
%TF.ProjectId,Version 1,56657273-696f-46e2-9031-2e6b69636164,1*%
%TF.SameCoordinates,Original*%
%TF.FileFunction,Paste,Top*%
%TF.FilePolarity,Positive*%
%FSLAX46Y46*%
G04 Gerber Fmt 4.6, Leading zero omitted, Abs format (unit mm)*
G04 Created by KiCad (PCBNEW 8.0.2-8.0.2-0~ubuntu22.04.1) date 2024-05-31 00:48:12*
%MOMM*%
%LPD*%
G01*
G04 APERTURE LIST*
G04 Aperture macros list*
%AMRoundRect*
0 Rectangle with rounded corners*
0 $1 Rounding radius*
0 $2 $3 $4 $5 $6 $7 $8 $9 X,Y pos of 4 corners*
0 Add a 4 corners polygon primitive as box body*
4,1,4,$2,$3,$4,$5,$6,$7,$8,$9,$2,$3,0*
0 Add four circle primitives for the rounded corners*
1,1,$1+$1,$2,$3*
1,1,$1+$1,$4,$5*
1,1,$1+$1,$6,$7*
1,1,$1+$1,$8,$9*
0 Add four rect primitives between the rounded corners*
20,1,$1+$1,$2,$3,$4,$5,0*
20,1,$1+$1,$4,$5,$6,$7,0*
20,1,$1+$1,$6,$7,$8,$9,0*
20,1,$1+$1,$8,$9,$2,$3,0*%
G04 Aperture macros list end*
%ADD10R,1.100000X0.600000*%
%ADD11RoundRect,0.250000X-0.250000X-0.500000X0.250000X-0.500000X0.250000X0.500000X-0.250000X0.500000X0*%
%ADD12R,0.375000X0.350000*%
%ADD13R,0.350000X0.375000*%
%ADD14RoundRect,0.102000X-0.492146X0.035355X0.035355X-0.492146X0.492146X-0.035355X-0.035355X0.492146X0*%
%ADD15RoundRect,0.100000X-0.100000X0.225000X-0.100000X-0.225000X0.100000X-0.225000X0.100000X0.225000X0*%
%ADD16R,0.580000X0.720000*%
%ADD17R,0.720000X0.580000*%
%ADD18RoundRect,0.225000X0.017678X-0.335876X0.335876X-0.017678X-0.017678X0.335876X-0.335876X0.017678X0*%
%ADD19RoundRect,0.250000X-0.445477X0.000000X0.000000X-0.445477X0.445477X0.000000X0.000000X0.445477X0*%
%ADD20RoundRect,0.062500X-0.309359X0.220971X0.220971X-0.309359X0.309359X-0.220971X-0.220971X0.309359X0*%
%ADD21RoundRect,0.062500X-0.309359X-0.220971X-0.220971X-0.309359X0.309359X0.220971X0.220971X0.309359X0*%
G04 APERTURE END LIST*
D10*
%TO.C,Y1*%
X116332000Y-58482000D03*
X116332000Y-59882000D03*
%TD*%
D11*
%TO.C,U1*%
X98806000Y-50292000D03*
X100076000Y-50292000D03*
X101346000Y-50292000D03*
X102616000Y-50292000D03*
X103886000Y-50292000D03*
X105156000Y-50292000D03*
X106426000Y-50292000D03*
X107696000Y-50292000D03*
X108966000Y-50292000D03*
X110236000Y-50292000D03*
X111506000Y-50292000D03*
X98806000Y-68072000D03*
X100076000Y-68072000D03*
X101346000Y-68072000D03*
X102616000Y-68072000D03*
X103886000Y-68072000D03*
X105156000Y-68072000D03*
X106426000Y-68072000D03*
X107696000Y-68072000D03*
X108966000Y-68072000D03*
X110236000Y-68072000D03*
X111506000Y-68072000D03*
%TD*%
D12*
%TO.C,U4*%
X49902500Y-49807000D03*
X49902500Y-50307000D03*
X49902500Y-50807000D03*
X49902500Y-51307000D03*
D13*
X50415000Y-51319500D03*
X50915000Y-51319500D03*
D12*
X51427500Y-51307000D03*
X51427500Y-50807000D03*
X51427500Y-50307000D03*
X51427500Y-49807000D03*
D13*
X50915000Y-49794500D03*
X50415000Y-49794500D03*
%TD*%
D14*
%TO.C,Y2*%
X130182753Y-50139542D03*
X131208058Y-51164847D03*
X132021231Y-50351674D03*
X130995926Y-49326369D03*
%TD*%
D15*
%TO.C,G1*%
X89296000Y-66360000D03*
X88646000Y-66360000D03*
X87996000Y-66360000D03*
X87996000Y-68260000D03*
X88646000Y-68260000D03*
X89296000Y-68260000D03*
%TD*%
D16*
%TO.C,U3*%
X73555000Y-52088000D03*
X72705000Y-52088000D03*
X71655000Y-52088000D03*
X70805000Y-52088000D03*
X69755000Y-52088000D03*
X68905000Y-52088000D03*
X67855000Y-52088000D03*
X67005000Y-52088000D03*
X65955000Y-52088000D03*
X65105000Y-52088000D03*
X73555000Y-53088000D03*
X72705000Y-53088000D03*
X71655000Y-53088000D03*
X70805000Y-53088000D03*
X69755000Y-53088000D03*
X68905000Y-53088000D03*
X67855000Y-53088000D03*
X67005000Y-53088000D03*
X65955000Y-53088000D03*
X65105000Y-53088000D03*
D17*
X76430000Y-54963000D03*
X75430000Y-54963000D03*
X63230000Y-54963000D03*
X62230000Y-54963000D03*
X76430000Y-55813000D03*
X75430000Y-55813000D03*
X63230000Y-55813000D03*
X62230000Y-55813000D03*
X76430000Y-56863000D03*
X75430000Y-56863000D03*
X63230000Y-56863000D03*
X62230000Y-56863000D03*
X76430000Y-57713000D03*
X75430000Y-57713000D03*
X63230000Y-57713000D03*
X62230000Y-57713000D03*
X76430000Y-58763000D03*
X75430000Y-58763000D03*
X63230000Y-58763000D03*
X62230000Y-58763000D03*
X76430000Y-59613000D03*
X75430000Y-59613000D03*
X63230000Y-59613000D03*
X62230000Y-59613000D03*
X76430000Y-60663000D03*
X75430000Y-60663000D03*
X63230000Y-60663000D03*
X62230000Y-60663000D03*
X76430000Y-61513000D03*
X75430000Y-61513000D03*
X63230000Y-61513000D03*
X62230000Y-61513000D03*
X76430000Y-62563000D03*
X75430000Y-62563000D03*
X63230000Y-62563000D03*
X62230000Y-62563000D03*
X76430000Y-63413000D03*
X75430000Y-63413000D03*
X63230000Y-63413000D03*
X62230000Y-63413000D03*
D16*
X73555000Y-65288000D03*
X72705000Y-65288000D03*
X71655000Y-65288000D03*
X70805000Y-65288000D03*
X69755000Y-65288000D03*
X68905000Y-65288000D03*
X67855000Y-65288000D03*
X67005000Y-65288000D03*
X65955000Y-65288000D03*
X65105000Y-65288000D03*
X73555000Y-66288000D03*
X72705000Y-66288000D03*
X71655000Y-66288000D03*
X70805000Y-66288000D03*
X69755000Y-66288000D03*
X68905000Y-66288000D03*
X67855000Y-66288000D03*
X67005000Y-66288000D03*
X65955000Y-66288000D03*
X65105000Y-66288000D03*
%TD*%
D18*
%TO.C,C9*%
X128025584Y-52257616D03*
X129121600Y-51161600D03*
%TD*%
%TO.C,C8*%
X129117784Y-53324416D03*
X130213800Y-52228400D03*
%TD*%
D19*
%TO.C,U2*%
X132277777Y-55070927D03*
X131287828Y-56060876D03*
X130297878Y-57050826D03*
X129307929Y-58040775D03*
X133267726Y-56060876D03*
X132277777Y-57050826D03*
X131287828Y-58040775D03*
X130297878Y-59030724D03*
X134257676Y-57050826D03*
X133267726Y-58040775D03*
X132277777Y-59030724D03*
X131287828Y-60020674D03*
X135247625Y-58040775D03*
X134257676Y-59030724D03*
X133267726Y-60020674D03*
X132277777Y-61010623D03*
D20*
X131791641Y-53665552D03*
X131438088Y-54019105D03*
X131084534Y-54372659D03*
X130730981Y-54726212D03*
X130377428Y-55079765D03*
X130023874Y-55433319D03*
X129670321Y-55786872D03*
X129316767Y-56140426D03*
X128963214Y-56493979D03*
X128609661Y-56847532D03*
X128256107Y-57201086D03*
X127902554Y-57554639D03*
D21*
X127902554Y-58526911D03*
X128256107Y-58880464D03*
X128609661Y-59234018D03*
X128963214Y-59587571D03*
X129316767Y-59941124D03*
X129670321Y-60294678D03*
X130023874Y-60648231D03*
X130377428Y-61001785D03*
X130730981Y-61355338D03*
X131084534Y-61708891D03*
X131438088Y-62062445D03*
X131791641Y-62415998D03*
D20*
X132763913Y-62415998D03*
X133117466Y-62062445D03*
X133471020Y-61708891D03*
X133824573Y-61355338D03*
X134178126Y-61001785D03*
X134531680Y-60648231D03*
X134885233Y-60294678D03*
X135238787Y-59941124D03*
X135592340Y-59587571D03*
X135945893Y-59234018D03*
X136299447Y-58880464D03*
X136653000Y-58526911D03*
D21*
X136653000Y-57554639D03*
X136299447Y-57201086D03*
X135945893Y-56847532D03*
X135592340Y-56493979D03*
X135238787Y-56140426D03*
X134885233Y-55786872D03*
X134531680Y-55433319D03*
X134178126Y-55079765D03*
X133824573Y-54726212D03*
X133471020Y-54372659D03*
X133117466Y-54019105D03*
X132763913Y-53665552D03*
%TD*%
M02*
