%TF.GenerationSoftware,KiCad,Pcbnew,8.0.2-8.0.2-0~ubuntu22.04.1*%
%TF.CreationDate,2024-05-31T00:48:12+02:00*%
%TF.ProjectId,Version 1,56657273-696f-46e2-9031-2e6b69636164,1*%
%TF.SameCoordinates,Original*%
%TF.FileFunction,Legend,Top*%
%TF.FilePolarity,Positive*%
%FSLAX46Y46*%
G04 Gerber Fmt 4.6, Leading zero omitted, Abs format (unit mm)*
G04 Created by KiCad (PCBNEW 8.0.2-8.0.2-0~ubuntu22.04.1) date 2024-05-31 00:48:12*
%MOMM*%
%LPD*%
G01*
G04 APERTURE LIST*
%ADD10C,0.100000*%
%ADD11C,0.150000*%
%ADD12C,0.120000*%
G04 APERTURE END LIST*
D10*
X146696895Y-59947734D02*
X145896895Y-59947734D01*
X145896895Y-59947734D02*
X145896895Y-59757258D01*
X145896895Y-59757258D02*
X145934990Y-59642972D01*
X145934990Y-59642972D02*
X146011180Y-59566782D01*
X146011180Y-59566782D02*
X146087371Y-59528687D01*
X146087371Y-59528687D02*
X146239752Y-59490591D01*
X146239752Y-59490591D02*
X146354038Y-59490591D01*
X146354038Y-59490591D02*
X146506419Y-59528687D01*
X146506419Y-59528687D02*
X146582609Y-59566782D01*
X146582609Y-59566782D02*
X146658800Y-59642972D01*
X146658800Y-59642972D02*
X146696895Y-59757258D01*
X146696895Y-59757258D02*
X146696895Y-59947734D01*
X146696895Y-59147734D02*
X145896895Y-59147734D01*
X145896895Y-58614401D02*
X145896895Y-58462020D01*
X145896895Y-58462020D02*
X145934990Y-58385830D01*
X145934990Y-58385830D02*
X146011180Y-58309639D01*
X146011180Y-58309639D02*
X146163561Y-58271544D01*
X146163561Y-58271544D02*
X146430228Y-58271544D01*
X146430228Y-58271544D02*
X146582609Y-58309639D01*
X146582609Y-58309639D02*
X146658800Y-58385830D01*
X146658800Y-58385830D02*
X146696895Y-58462020D01*
X146696895Y-58462020D02*
X146696895Y-58614401D01*
X146696895Y-58614401D02*
X146658800Y-58690592D01*
X146658800Y-58690592D02*
X146582609Y-58766782D01*
X146582609Y-58766782D02*
X146430228Y-58804878D01*
X146430228Y-58804878D02*
X146163561Y-58804878D01*
X146163561Y-58804878D02*
X146011180Y-58766782D01*
X146011180Y-58766782D02*
X145934990Y-58690592D01*
X145934990Y-58690592D02*
X145896895Y-58614401D01*
X101686687Y-45061009D02*
X101762877Y-45099104D01*
X101762877Y-45099104D02*
X101877163Y-45099104D01*
X101877163Y-45099104D02*
X101991449Y-45061009D01*
X101991449Y-45061009D02*
X102067639Y-44984819D01*
X102067639Y-44984819D02*
X102105734Y-44908628D01*
X102105734Y-44908628D02*
X102143830Y-44756247D01*
X102143830Y-44756247D02*
X102143830Y-44641961D01*
X102143830Y-44641961D02*
X102105734Y-44489580D01*
X102105734Y-44489580D02*
X102067639Y-44413390D01*
X102067639Y-44413390D02*
X101991449Y-44337200D01*
X101991449Y-44337200D02*
X101877163Y-44299104D01*
X101877163Y-44299104D02*
X101800972Y-44299104D01*
X101800972Y-44299104D02*
X101686687Y-44337200D01*
X101686687Y-44337200D02*
X101648591Y-44375295D01*
X101648591Y-44375295D02*
X101648591Y-44641961D01*
X101648591Y-44641961D02*
X101800972Y-44641961D01*
X101153353Y-45099104D02*
X101077163Y-45099104D01*
X101077163Y-45099104D02*
X101000972Y-45061009D01*
X101000972Y-45061009D02*
X100962877Y-45022914D01*
X100962877Y-45022914D02*
X100924782Y-44946723D01*
X100924782Y-44946723D02*
X100886687Y-44794342D01*
X100886687Y-44794342D02*
X100886687Y-44603866D01*
X100886687Y-44603866D02*
X100924782Y-44451485D01*
X100924782Y-44451485D02*
X100962877Y-44375295D01*
X100962877Y-44375295D02*
X101000972Y-44337200D01*
X101000972Y-44337200D02*
X101077163Y-44299104D01*
X101077163Y-44299104D02*
X101153353Y-44299104D01*
X101153353Y-44299104D02*
X101229544Y-44337200D01*
X101229544Y-44337200D02*
X101267639Y-44375295D01*
X101267639Y-44375295D02*
X101305734Y-44451485D01*
X101305734Y-44451485D02*
X101343830Y-44603866D01*
X101343830Y-44603866D02*
X101343830Y-44794342D01*
X101343830Y-44794342D02*
X101305734Y-44946723D01*
X101305734Y-44946723D02*
X101267639Y-45022914D01*
X101267639Y-45022914D02*
X101229544Y-45061009D01*
X101229544Y-45061009D02*
X101153353Y-45099104D01*
X100620020Y-45099104D02*
X100086686Y-45099104D01*
X100086686Y-45099104D02*
X100429544Y-44299104D01*
X67262169Y-73778800D02*
X67376455Y-73816895D01*
X67376455Y-73816895D02*
X67566931Y-73816895D01*
X67566931Y-73816895D02*
X67643122Y-73778800D01*
X67643122Y-73778800D02*
X67681217Y-73740704D01*
X67681217Y-73740704D02*
X67719312Y-73664514D01*
X67719312Y-73664514D02*
X67719312Y-73588323D01*
X67719312Y-73588323D02*
X67681217Y-73512133D01*
X67681217Y-73512133D02*
X67643122Y-73474038D01*
X67643122Y-73474038D02*
X67566931Y-73435942D01*
X67566931Y-73435942D02*
X67414550Y-73397847D01*
X67414550Y-73397847D02*
X67338360Y-73359752D01*
X67338360Y-73359752D02*
X67300265Y-73321657D01*
X67300265Y-73321657D02*
X67262169Y-73245466D01*
X67262169Y-73245466D02*
X67262169Y-73169276D01*
X67262169Y-73169276D02*
X67300265Y-73093085D01*
X67300265Y-73093085D02*
X67338360Y-73054990D01*
X67338360Y-73054990D02*
X67414550Y-73016895D01*
X67414550Y-73016895D02*
X67605027Y-73016895D01*
X67605027Y-73016895D02*
X67719312Y-73054990D01*
X68519313Y-73740704D02*
X68481217Y-73778800D01*
X68481217Y-73778800D02*
X68366932Y-73816895D01*
X68366932Y-73816895D02*
X68290741Y-73816895D01*
X68290741Y-73816895D02*
X68176455Y-73778800D01*
X68176455Y-73778800D02*
X68100265Y-73702609D01*
X68100265Y-73702609D02*
X68062170Y-73626419D01*
X68062170Y-73626419D02*
X68024074Y-73474038D01*
X68024074Y-73474038D02*
X68024074Y-73359752D01*
X68024074Y-73359752D02*
X68062170Y-73207371D01*
X68062170Y-73207371D02*
X68100265Y-73131180D01*
X68100265Y-73131180D02*
X68176455Y-73054990D01*
X68176455Y-73054990D02*
X68290741Y-73016895D01*
X68290741Y-73016895D02*
X68366932Y-73016895D01*
X68366932Y-73016895D02*
X68481217Y-73054990D01*
X68481217Y-73054990D02*
X68519313Y-73093085D01*
X69243122Y-73816895D02*
X68862170Y-73816895D01*
X68862170Y-73816895D02*
X68862170Y-73016895D01*
X80367009Y-49951312D02*
X80405104Y-49875122D01*
X80405104Y-49875122D02*
X80405104Y-49760836D01*
X80405104Y-49760836D02*
X80367009Y-49646550D01*
X80367009Y-49646550D02*
X80290819Y-49570360D01*
X80290819Y-49570360D02*
X80214628Y-49532265D01*
X80214628Y-49532265D02*
X80062247Y-49494169D01*
X80062247Y-49494169D02*
X79947961Y-49494169D01*
X79947961Y-49494169D02*
X79795580Y-49532265D01*
X79795580Y-49532265D02*
X79719390Y-49570360D01*
X79719390Y-49570360D02*
X79643200Y-49646550D01*
X79643200Y-49646550D02*
X79605104Y-49760836D01*
X79605104Y-49760836D02*
X79605104Y-49837027D01*
X79605104Y-49837027D02*
X79643200Y-49951312D01*
X79643200Y-49951312D02*
X79681295Y-49989408D01*
X79681295Y-49989408D02*
X79947961Y-49989408D01*
X79947961Y-49989408D02*
X79947961Y-49837027D01*
X79605104Y-50332265D02*
X80405104Y-50332265D01*
X80405104Y-50332265D02*
X79605104Y-50789408D01*
X79605104Y-50789408D02*
X80405104Y-50789408D01*
X79605104Y-51170360D02*
X80405104Y-51170360D01*
X80405104Y-51170360D02*
X80405104Y-51360836D01*
X80405104Y-51360836D02*
X80367009Y-51475122D01*
X80367009Y-51475122D02*
X80290819Y-51551312D01*
X80290819Y-51551312D02*
X80214628Y-51589407D01*
X80214628Y-51589407D02*
X80062247Y-51627503D01*
X80062247Y-51627503D02*
X79947961Y-51627503D01*
X79947961Y-51627503D02*
X79795580Y-51589407D01*
X79795580Y-51589407D02*
X79719390Y-51551312D01*
X79719390Y-51551312D02*
X79643200Y-51475122D01*
X79643200Y-51475122D02*
X79605104Y-51360836D01*
X79605104Y-51360836D02*
X79605104Y-51170360D01*
X122159734Y-44305104D02*
X122159734Y-45105104D01*
X122159734Y-44724152D02*
X121702591Y-44724152D01*
X121702591Y-44305104D02*
X121702591Y-45105104D01*
X121397830Y-45105104D02*
X120902592Y-45105104D01*
X120902592Y-45105104D02*
X121169258Y-44800342D01*
X121169258Y-44800342D02*
X121054973Y-44800342D01*
X121054973Y-44800342D02*
X120978782Y-44762247D01*
X120978782Y-44762247D02*
X120940687Y-44724152D01*
X120940687Y-44724152D02*
X120902592Y-44647961D01*
X120902592Y-44647961D02*
X120902592Y-44457485D01*
X120902592Y-44457485D02*
X120940687Y-44381295D01*
X120940687Y-44381295D02*
X120978782Y-44343200D01*
X120978782Y-44343200D02*
X121054973Y-44305104D01*
X121054973Y-44305104D02*
X121283544Y-44305104D01*
X121283544Y-44305104D02*
X121359735Y-44343200D01*
X121359735Y-44343200D02*
X121397830Y-44381295D01*
X137437830Y-44343200D02*
X137323544Y-44305104D01*
X137323544Y-44305104D02*
X137133068Y-44305104D01*
X137133068Y-44305104D02*
X137056877Y-44343200D01*
X137056877Y-44343200D02*
X137018782Y-44381295D01*
X137018782Y-44381295D02*
X136980687Y-44457485D01*
X136980687Y-44457485D02*
X136980687Y-44533676D01*
X136980687Y-44533676D02*
X137018782Y-44609866D01*
X137018782Y-44609866D02*
X137056877Y-44647961D01*
X137056877Y-44647961D02*
X137133068Y-44686057D01*
X137133068Y-44686057D02*
X137285449Y-44724152D01*
X137285449Y-44724152D02*
X137361639Y-44762247D01*
X137361639Y-44762247D02*
X137399734Y-44800342D01*
X137399734Y-44800342D02*
X137437830Y-44876533D01*
X137437830Y-44876533D02*
X137437830Y-44952723D01*
X137437830Y-44952723D02*
X137399734Y-45028914D01*
X137399734Y-45028914D02*
X137361639Y-45067009D01*
X137361639Y-45067009D02*
X137285449Y-45105104D01*
X137285449Y-45105104D02*
X137094972Y-45105104D01*
X137094972Y-45105104D02*
X136980687Y-45067009D01*
X136180686Y-44381295D02*
X136218782Y-44343200D01*
X136218782Y-44343200D02*
X136333067Y-44305104D01*
X136333067Y-44305104D02*
X136409258Y-44305104D01*
X136409258Y-44305104D02*
X136523544Y-44343200D01*
X136523544Y-44343200D02*
X136599734Y-44419390D01*
X136599734Y-44419390D02*
X136637829Y-44495580D01*
X136637829Y-44495580D02*
X136675925Y-44647961D01*
X136675925Y-44647961D02*
X136675925Y-44762247D01*
X136675925Y-44762247D02*
X136637829Y-44914628D01*
X136637829Y-44914628D02*
X136599734Y-44990819D01*
X136599734Y-44990819D02*
X136523544Y-45067009D01*
X136523544Y-45067009D02*
X136409258Y-45105104D01*
X136409258Y-45105104D02*
X136333067Y-45105104D01*
X136333067Y-45105104D02*
X136218782Y-45067009D01*
X136218782Y-45067009D02*
X136180686Y-45028914D01*
X135456877Y-44305104D02*
X135837829Y-44305104D01*
X135837829Y-44305104D02*
X135837829Y-45105104D01*
X80405104Y-57152265D02*
X79757485Y-57152265D01*
X79757485Y-57152265D02*
X79681295Y-57190360D01*
X79681295Y-57190360D02*
X79643200Y-57228455D01*
X79643200Y-57228455D02*
X79605104Y-57304646D01*
X79605104Y-57304646D02*
X79605104Y-57457027D01*
X79605104Y-57457027D02*
X79643200Y-57533217D01*
X79643200Y-57533217D02*
X79681295Y-57571312D01*
X79681295Y-57571312D02*
X79757485Y-57609408D01*
X79757485Y-57609408D02*
X80405104Y-57609408D01*
X79643200Y-57952264D02*
X79605104Y-58066550D01*
X79605104Y-58066550D02*
X79605104Y-58257026D01*
X79605104Y-58257026D02*
X79643200Y-58333217D01*
X79643200Y-58333217D02*
X79681295Y-58371312D01*
X79681295Y-58371312D02*
X79757485Y-58409407D01*
X79757485Y-58409407D02*
X79833676Y-58409407D01*
X79833676Y-58409407D02*
X79909866Y-58371312D01*
X79909866Y-58371312D02*
X79947961Y-58333217D01*
X79947961Y-58333217D02*
X79986057Y-58257026D01*
X79986057Y-58257026D02*
X80024152Y-58104645D01*
X80024152Y-58104645D02*
X80062247Y-58028455D01*
X80062247Y-58028455D02*
X80100342Y-57990360D01*
X80100342Y-57990360D02*
X80176533Y-57952264D01*
X80176533Y-57952264D02*
X80252723Y-57952264D01*
X80252723Y-57952264D02*
X80328914Y-57990360D01*
X80328914Y-57990360D02*
X80367009Y-58028455D01*
X80367009Y-58028455D02*
X80405104Y-58104645D01*
X80405104Y-58104645D02*
X80405104Y-58295122D01*
X80405104Y-58295122D02*
X80367009Y-58409407D01*
X79605104Y-59209408D02*
X79986057Y-58942741D01*
X79605104Y-58752265D02*
X80405104Y-58752265D01*
X80405104Y-58752265D02*
X80405104Y-59057027D01*
X80405104Y-59057027D02*
X80367009Y-59133217D01*
X80367009Y-59133217D02*
X80328914Y-59171312D01*
X80328914Y-59171312D02*
X80252723Y-59209408D01*
X80252723Y-59209408D02*
X80138438Y-59209408D01*
X80138438Y-59209408D02*
X80062247Y-59171312D01*
X80062247Y-59171312D02*
X80024152Y-59133217D01*
X80024152Y-59133217D02*
X79986057Y-59057027D01*
X79986057Y-59057027D02*
X79986057Y-58752265D01*
X146620704Y-56950591D02*
X146658800Y-56988687D01*
X146658800Y-56988687D02*
X146696895Y-57102972D01*
X146696895Y-57102972D02*
X146696895Y-57179163D01*
X146696895Y-57179163D02*
X146658800Y-57293449D01*
X146658800Y-57293449D02*
X146582609Y-57369639D01*
X146582609Y-57369639D02*
X146506419Y-57407734D01*
X146506419Y-57407734D02*
X146354038Y-57445830D01*
X146354038Y-57445830D02*
X146239752Y-57445830D01*
X146239752Y-57445830D02*
X146087371Y-57407734D01*
X146087371Y-57407734D02*
X146011180Y-57369639D01*
X146011180Y-57369639D02*
X145934990Y-57293449D01*
X145934990Y-57293449D02*
X145896895Y-57179163D01*
X145896895Y-57179163D02*
X145896895Y-57102972D01*
X145896895Y-57102972D02*
X145934990Y-56988687D01*
X145934990Y-56988687D02*
X145973085Y-56950591D01*
X146696895Y-56226782D02*
X146696895Y-56607734D01*
X146696895Y-56607734D02*
X145896895Y-56607734D01*
X146696895Y-55960115D02*
X145896895Y-55960115D01*
X146696895Y-55502972D02*
X146239752Y-55845830D01*
X145896895Y-55502972D02*
X146354038Y-55960115D01*
X134897830Y-44343200D02*
X134783544Y-44305104D01*
X134783544Y-44305104D02*
X134593068Y-44305104D01*
X134593068Y-44305104D02*
X134516877Y-44343200D01*
X134516877Y-44343200D02*
X134478782Y-44381295D01*
X134478782Y-44381295D02*
X134440687Y-44457485D01*
X134440687Y-44457485D02*
X134440687Y-44533676D01*
X134440687Y-44533676D02*
X134478782Y-44609866D01*
X134478782Y-44609866D02*
X134516877Y-44647961D01*
X134516877Y-44647961D02*
X134593068Y-44686057D01*
X134593068Y-44686057D02*
X134745449Y-44724152D01*
X134745449Y-44724152D02*
X134821639Y-44762247D01*
X134821639Y-44762247D02*
X134859734Y-44800342D01*
X134859734Y-44800342D02*
X134897830Y-44876533D01*
X134897830Y-44876533D02*
X134897830Y-44952723D01*
X134897830Y-44952723D02*
X134859734Y-45028914D01*
X134859734Y-45028914D02*
X134821639Y-45067009D01*
X134821639Y-45067009D02*
X134745449Y-45105104D01*
X134745449Y-45105104D02*
X134554972Y-45105104D01*
X134554972Y-45105104D02*
X134440687Y-45067009D01*
X134097829Y-44305104D02*
X134097829Y-45105104D01*
X134097829Y-45105104D02*
X133907353Y-45105104D01*
X133907353Y-45105104D02*
X133793067Y-45067009D01*
X133793067Y-45067009D02*
X133716877Y-44990819D01*
X133716877Y-44990819D02*
X133678782Y-44914628D01*
X133678782Y-44914628D02*
X133640686Y-44762247D01*
X133640686Y-44762247D02*
X133640686Y-44647961D01*
X133640686Y-44647961D02*
X133678782Y-44495580D01*
X133678782Y-44495580D02*
X133716877Y-44419390D01*
X133716877Y-44419390D02*
X133793067Y-44343200D01*
X133793067Y-44343200D02*
X133907353Y-44305104D01*
X133907353Y-44305104D02*
X134097829Y-44305104D01*
X133335925Y-44533676D02*
X132954972Y-44533676D01*
X133412115Y-44305104D02*
X133145448Y-45105104D01*
X133145448Y-45105104D02*
X132878782Y-44305104D01*
X48080687Y-45067009D02*
X48156877Y-45105104D01*
X48156877Y-45105104D02*
X48271163Y-45105104D01*
X48271163Y-45105104D02*
X48385449Y-45067009D01*
X48385449Y-45067009D02*
X48461639Y-44990819D01*
X48461639Y-44990819D02*
X48499734Y-44914628D01*
X48499734Y-44914628D02*
X48537830Y-44762247D01*
X48537830Y-44762247D02*
X48537830Y-44647961D01*
X48537830Y-44647961D02*
X48499734Y-44495580D01*
X48499734Y-44495580D02*
X48461639Y-44419390D01*
X48461639Y-44419390D02*
X48385449Y-44343200D01*
X48385449Y-44343200D02*
X48271163Y-44305104D01*
X48271163Y-44305104D02*
X48194972Y-44305104D01*
X48194972Y-44305104D02*
X48080687Y-44343200D01*
X48080687Y-44343200D02*
X48042591Y-44381295D01*
X48042591Y-44381295D02*
X48042591Y-44647961D01*
X48042591Y-44647961D02*
X48194972Y-44647961D01*
X47699734Y-44305104D02*
X47699734Y-45105104D01*
X47699734Y-45105104D02*
X47242591Y-44305104D01*
X47242591Y-44305104D02*
X47242591Y-45105104D01*
X46861639Y-44305104D02*
X46861639Y-45105104D01*
X46861639Y-45105104D02*
X46671163Y-45105104D01*
X46671163Y-45105104D02*
X46556877Y-45067009D01*
X46556877Y-45067009D02*
X46480687Y-44990819D01*
X46480687Y-44990819D02*
X46442592Y-44914628D01*
X46442592Y-44914628D02*
X46404496Y-44762247D01*
X46404496Y-44762247D02*
X46404496Y-44647961D01*
X46404496Y-44647961D02*
X46442592Y-44495580D01*
X46442592Y-44495580D02*
X46480687Y-44419390D01*
X46480687Y-44419390D02*
X46556877Y-44343200D01*
X46556877Y-44343200D02*
X46671163Y-44305104D01*
X46671163Y-44305104D02*
X46861639Y-44305104D01*
X79605104Y-65483408D02*
X79986057Y-65216741D01*
X79605104Y-65026265D02*
X80405104Y-65026265D01*
X80405104Y-65026265D02*
X80405104Y-65331027D01*
X80405104Y-65331027D02*
X80367009Y-65407217D01*
X80367009Y-65407217D02*
X80328914Y-65445312D01*
X80328914Y-65445312D02*
X80252723Y-65483408D01*
X80252723Y-65483408D02*
X80138438Y-65483408D01*
X80138438Y-65483408D02*
X80062247Y-65445312D01*
X80062247Y-65445312D02*
X80024152Y-65407217D01*
X80024152Y-65407217D02*
X79986057Y-65331027D01*
X79986057Y-65331027D02*
X79986057Y-65026265D01*
X80405104Y-65711979D02*
X80405104Y-66169122D01*
X79605104Y-65940550D02*
X80405104Y-65940550D01*
X79643200Y-66397693D02*
X79605104Y-66511979D01*
X79605104Y-66511979D02*
X79605104Y-66702455D01*
X79605104Y-66702455D02*
X79643200Y-66778646D01*
X79643200Y-66778646D02*
X79681295Y-66816741D01*
X79681295Y-66816741D02*
X79757485Y-66854836D01*
X79757485Y-66854836D02*
X79833676Y-66854836D01*
X79833676Y-66854836D02*
X79909866Y-66816741D01*
X79909866Y-66816741D02*
X79947961Y-66778646D01*
X79947961Y-66778646D02*
X79986057Y-66702455D01*
X79986057Y-66702455D02*
X80024152Y-66550074D01*
X80024152Y-66550074D02*
X80062247Y-66473884D01*
X80062247Y-66473884D02*
X80100342Y-66435789D01*
X80100342Y-66435789D02*
X80176533Y-66397693D01*
X80176533Y-66397693D02*
X80252723Y-66397693D01*
X80252723Y-66397693D02*
X80328914Y-66435789D01*
X80328914Y-66435789D02*
X80367009Y-66473884D01*
X80367009Y-66473884D02*
X80405104Y-66550074D01*
X80405104Y-66550074D02*
X80405104Y-66740551D01*
X80405104Y-66740551D02*
X80367009Y-66854836D01*
X53617830Y-44343200D02*
X53503544Y-44305104D01*
X53503544Y-44305104D02*
X53313068Y-44305104D01*
X53313068Y-44305104D02*
X53236877Y-44343200D01*
X53236877Y-44343200D02*
X53198782Y-44381295D01*
X53198782Y-44381295D02*
X53160687Y-44457485D01*
X53160687Y-44457485D02*
X53160687Y-44533676D01*
X53160687Y-44533676D02*
X53198782Y-44609866D01*
X53198782Y-44609866D02*
X53236877Y-44647961D01*
X53236877Y-44647961D02*
X53313068Y-44686057D01*
X53313068Y-44686057D02*
X53465449Y-44724152D01*
X53465449Y-44724152D02*
X53541639Y-44762247D01*
X53541639Y-44762247D02*
X53579734Y-44800342D01*
X53579734Y-44800342D02*
X53617830Y-44876533D01*
X53617830Y-44876533D02*
X53617830Y-44952723D01*
X53617830Y-44952723D02*
X53579734Y-45028914D01*
X53579734Y-45028914D02*
X53541639Y-45067009D01*
X53541639Y-45067009D02*
X53465449Y-45105104D01*
X53465449Y-45105104D02*
X53274972Y-45105104D01*
X53274972Y-45105104D02*
X53160687Y-45067009D01*
X52360686Y-44381295D02*
X52398782Y-44343200D01*
X52398782Y-44343200D02*
X52513067Y-44305104D01*
X52513067Y-44305104D02*
X52589258Y-44305104D01*
X52589258Y-44305104D02*
X52703544Y-44343200D01*
X52703544Y-44343200D02*
X52779734Y-44419390D01*
X52779734Y-44419390D02*
X52817829Y-44495580D01*
X52817829Y-44495580D02*
X52855925Y-44647961D01*
X52855925Y-44647961D02*
X52855925Y-44762247D01*
X52855925Y-44762247D02*
X52817829Y-44914628D01*
X52817829Y-44914628D02*
X52779734Y-44990819D01*
X52779734Y-44990819D02*
X52703544Y-45067009D01*
X52703544Y-45067009D02*
X52589258Y-45105104D01*
X52589258Y-45105104D02*
X52513067Y-45105104D01*
X52513067Y-45105104D02*
X52398782Y-45067009D01*
X52398782Y-45067009D02*
X52360686Y-45028914D01*
X51636877Y-44305104D02*
X52017829Y-44305104D01*
X52017829Y-44305104D02*
X52017829Y-45105104D01*
X111846687Y-45061009D02*
X111922877Y-45099104D01*
X111922877Y-45099104D02*
X112037163Y-45099104D01*
X112037163Y-45099104D02*
X112151449Y-45061009D01*
X112151449Y-45061009D02*
X112227639Y-44984819D01*
X112227639Y-44984819D02*
X112265734Y-44908628D01*
X112265734Y-44908628D02*
X112303830Y-44756247D01*
X112303830Y-44756247D02*
X112303830Y-44641961D01*
X112303830Y-44641961D02*
X112265734Y-44489580D01*
X112265734Y-44489580D02*
X112227639Y-44413390D01*
X112227639Y-44413390D02*
X112151449Y-44337200D01*
X112151449Y-44337200D02*
X112037163Y-44299104D01*
X112037163Y-44299104D02*
X111960972Y-44299104D01*
X111960972Y-44299104D02*
X111846687Y-44337200D01*
X111846687Y-44337200D02*
X111808591Y-44375295D01*
X111808591Y-44375295D02*
X111808591Y-44641961D01*
X111808591Y-44641961D02*
X111960972Y-44641961D01*
X111313353Y-45099104D02*
X111237163Y-45099104D01*
X111237163Y-45099104D02*
X111160972Y-45061009D01*
X111160972Y-45061009D02*
X111122877Y-45022914D01*
X111122877Y-45022914D02*
X111084782Y-44946723D01*
X111084782Y-44946723D02*
X111046687Y-44794342D01*
X111046687Y-44794342D02*
X111046687Y-44603866D01*
X111046687Y-44603866D02*
X111084782Y-44451485D01*
X111084782Y-44451485D02*
X111122877Y-44375295D01*
X111122877Y-44375295D02*
X111160972Y-44337200D01*
X111160972Y-44337200D02*
X111237163Y-44299104D01*
X111237163Y-44299104D02*
X111313353Y-44299104D01*
X111313353Y-44299104D02*
X111389544Y-44337200D01*
X111389544Y-44337200D02*
X111427639Y-44375295D01*
X111427639Y-44375295D02*
X111465734Y-44451485D01*
X111465734Y-44451485D02*
X111503830Y-44603866D01*
X111503830Y-44603866D02*
X111503830Y-44794342D01*
X111503830Y-44794342D02*
X111465734Y-44946723D01*
X111465734Y-44946723D02*
X111427639Y-45022914D01*
X111427639Y-45022914D02*
X111389544Y-45061009D01*
X111389544Y-45061009D02*
X111313353Y-45099104D01*
X110780020Y-45099104D02*
X110284782Y-45099104D01*
X110284782Y-45099104D02*
X110551448Y-44794342D01*
X110551448Y-44794342D02*
X110437163Y-44794342D01*
X110437163Y-44794342D02*
X110360972Y-44756247D01*
X110360972Y-44756247D02*
X110322877Y-44718152D01*
X110322877Y-44718152D02*
X110284782Y-44641961D01*
X110284782Y-44641961D02*
X110284782Y-44451485D01*
X110284782Y-44451485D02*
X110322877Y-44375295D01*
X110322877Y-44375295D02*
X110360972Y-44337200D01*
X110360972Y-44337200D02*
X110437163Y-44299104D01*
X110437163Y-44299104D02*
X110665734Y-44299104D01*
X110665734Y-44299104D02*
X110741925Y-44337200D01*
X110741925Y-44337200D02*
X110780020Y-44375295D01*
X131257408Y-73994704D02*
X131219312Y-74032800D01*
X131219312Y-74032800D02*
X131105027Y-74070895D01*
X131105027Y-74070895D02*
X131028836Y-74070895D01*
X131028836Y-74070895D02*
X130914550Y-74032800D01*
X130914550Y-74032800D02*
X130838360Y-73956609D01*
X130838360Y-73956609D02*
X130800265Y-73880419D01*
X130800265Y-73880419D02*
X130762169Y-73728038D01*
X130762169Y-73728038D02*
X130762169Y-73613752D01*
X130762169Y-73613752D02*
X130800265Y-73461371D01*
X130800265Y-73461371D02*
X130838360Y-73385180D01*
X130838360Y-73385180D02*
X130914550Y-73308990D01*
X130914550Y-73308990D02*
X131028836Y-73270895D01*
X131028836Y-73270895D02*
X131105027Y-73270895D01*
X131105027Y-73270895D02*
X131219312Y-73308990D01*
X131219312Y-73308990D02*
X131257408Y-73347085D01*
X132019312Y-74070895D02*
X131562169Y-74070895D01*
X131790741Y-74070895D02*
X131790741Y-73270895D01*
X131790741Y-73270895D02*
X131714550Y-73385180D01*
X131714550Y-73385180D02*
X131638360Y-73461371D01*
X131638360Y-73461371D02*
X131562169Y-73499466D01*
X132743122Y-74070895D02*
X132362170Y-74070895D01*
X132362170Y-74070895D02*
X132362170Y-73270895D01*
X142479734Y-44724152D02*
X142213068Y-44724152D01*
X142098782Y-44305104D02*
X142479734Y-44305104D01*
X142479734Y-44305104D02*
X142479734Y-45105104D01*
X142479734Y-45105104D02*
X142098782Y-45105104D01*
X141755924Y-44305104D02*
X141755924Y-45105104D01*
X141032115Y-44838438D02*
X141032115Y-44305104D01*
X141222591Y-45143200D02*
X141413068Y-44571771D01*
X141413068Y-44571771D02*
X140917829Y-44571771D01*
X80405104Y-67490074D02*
X80405104Y-67985312D01*
X80405104Y-67985312D02*
X80100342Y-67718646D01*
X80100342Y-67718646D02*
X80100342Y-67832931D01*
X80100342Y-67832931D02*
X80062247Y-67909122D01*
X80062247Y-67909122D02*
X80024152Y-67947217D01*
X80024152Y-67947217D02*
X79947961Y-67985312D01*
X79947961Y-67985312D02*
X79757485Y-67985312D01*
X79757485Y-67985312D02*
X79681295Y-67947217D01*
X79681295Y-67947217D02*
X79643200Y-67909122D01*
X79643200Y-67909122D02*
X79605104Y-67832931D01*
X79605104Y-67832931D02*
X79605104Y-67604360D01*
X79605104Y-67604360D02*
X79643200Y-67528169D01*
X79643200Y-67528169D02*
X79681295Y-67490074D01*
X80405104Y-68213884D02*
X79605104Y-68480551D01*
X79605104Y-68480551D02*
X80405104Y-68747217D01*
X80405104Y-68937693D02*
X80405104Y-69432931D01*
X80405104Y-69432931D02*
X80100342Y-69166265D01*
X80100342Y-69166265D02*
X80100342Y-69280550D01*
X80100342Y-69280550D02*
X80062247Y-69356741D01*
X80062247Y-69356741D02*
X80024152Y-69394836D01*
X80024152Y-69394836D02*
X79947961Y-69432931D01*
X79947961Y-69432931D02*
X79757485Y-69432931D01*
X79757485Y-69432931D02*
X79681295Y-69394836D01*
X79681295Y-69394836D02*
X79643200Y-69356741D01*
X79643200Y-69356741D02*
X79605104Y-69280550D01*
X79605104Y-69280550D02*
X79605104Y-69051979D01*
X79605104Y-69051979D02*
X79643200Y-68975788D01*
X79643200Y-68975788D02*
X79681295Y-68937693D01*
X74844074Y-73016895D02*
X75339312Y-73016895D01*
X75339312Y-73016895D02*
X75072646Y-73321657D01*
X75072646Y-73321657D02*
X75186931Y-73321657D01*
X75186931Y-73321657D02*
X75263122Y-73359752D01*
X75263122Y-73359752D02*
X75301217Y-73397847D01*
X75301217Y-73397847D02*
X75339312Y-73474038D01*
X75339312Y-73474038D02*
X75339312Y-73664514D01*
X75339312Y-73664514D02*
X75301217Y-73740704D01*
X75301217Y-73740704D02*
X75263122Y-73778800D01*
X75263122Y-73778800D02*
X75186931Y-73816895D01*
X75186931Y-73816895D02*
X74958360Y-73816895D01*
X74958360Y-73816895D02*
X74882169Y-73778800D01*
X74882169Y-73778800D02*
X74844074Y-73740704D01*
X75567884Y-73016895D02*
X75834551Y-73816895D01*
X75834551Y-73816895D02*
X76101217Y-73016895D01*
X76291693Y-73016895D02*
X76786931Y-73016895D01*
X76786931Y-73016895D02*
X76520265Y-73321657D01*
X76520265Y-73321657D02*
X76634550Y-73321657D01*
X76634550Y-73321657D02*
X76710741Y-73359752D01*
X76710741Y-73359752D02*
X76748836Y-73397847D01*
X76748836Y-73397847D02*
X76786931Y-73474038D01*
X76786931Y-73474038D02*
X76786931Y-73664514D01*
X76786931Y-73664514D02*
X76748836Y-73740704D01*
X76748836Y-73740704D02*
X76710741Y-73778800D01*
X76710741Y-73778800D02*
X76634550Y-73816895D01*
X76634550Y-73816895D02*
X76405979Y-73816895D01*
X76405979Y-73816895D02*
X76329788Y-73778800D01*
X76329788Y-73778800D02*
X76291693Y-73740704D01*
X99146687Y-45061009D02*
X99222877Y-45099104D01*
X99222877Y-45099104D02*
X99337163Y-45099104D01*
X99337163Y-45099104D02*
X99451449Y-45061009D01*
X99451449Y-45061009D02*
X99527639Y-44984819D01*
X99527639Y-44984819D02*
X99565734Y-44908628D01*
X99565734Y-44908628D02*
X99603830Y-44756247D01*
X99603830Y-44756247D02*
X99603830Y-44641961D01*
X99603830Y-44641961D02*
X99565734Y-44489580D01*
X99565734Y-44489580D02*
X99527639Y-44413390D01*
X99527639Y-44413390D02*
X99451449Y-44337200D01*
X99451449Y-44337200D02*
X99337163Y-44299104D01*
X99337163Y-44299104D02*
X99260972Y-44299104D01*
X99260972Y-44299104D02*
X99146687Y-44337200D01*
X99146687Y-44337200D02*
X99108591Y-44375295D01*
X99108591Y-44375295D02*
X99108591Y-44641961D01*
X99108591Y-44641961D02*
X99260972Y-44641961D01*
X98765734Y-44299104D02*
X98765734Y-45099104D01*
X98765734Y-45099104D02*
X98308591Y-44299104D01*
X98308591Y-44299104D02*
X98308591Y-45099104D01*
X97927639Y-44299104D02*
X97927639Y-45099104D01*
X97927639Y-45099104D02*
X97737163Y-45099104D01*
X97737163Y-45099104D02*
X97622877Y-45061009D01*
X97622877Y-45061009D02*
X97546687Y-44984819D01*
X97546687Y-44984819D02*
X97508592Y-44908628D01*
X97508592Y-44908628D02*
X97470496Y-44756247D01*
X97470496Y-44756247D02*
X97470496Y-44641961D01*
X97470496Y-44641961D02*
X97508592Y-44489580D01*
X97508592Y-44489580D02*
X97546687Y-44413390D01*
X97546687Y-44413390D02*
X97622877Y-44337200D01*
X97622877Y-44337200D02*
X97737163Y-44299104D01*
X97737163Y-44299104D02*
X97927639Y-44299104D01*
X123142169Y-74032800D02*
X123256455Y-74070895D01*
X123256455Y-74070895D02*
X123446931Y-74070895D01*
X123446931Y-74070895D02*
X123523122Y-74032800D01*
X123523122Y-74032800D02*
X123561217Y-73994704D01*
X123561217Y-73994704D02*
X123599312Y-73918514D01*
X123599312Y-73918514D02*
X123599312Y-73842323D01*
X123599312Y-73842323D02*
X123561217Y-73766133D01*
X123561217Y-73766133D02*
X123523122Y-73728038D01*
X123523122Y-73728038D02*
X123446931Y-73689942D01*
X123446931Y-73689942D02*
X123294550Y-73651847D01*
X123294550Y-73651847D02*
X123218360Y-73613752D01*
X123218360Y-73613752D02*
X123180265Y-73575657D01*
X123180265Y-73575657D02*
X123142169Y-73499466D01*
X123142169Y-73499466D02*
X123142169Y-73423276D01*
X123142169Y-73423276D02*
X123180265Y-73347085D01*
X123180265Y-73347085D02*
X123218360Y-73308990D01*
X123218360Y-73308990D02*
X123294550Y-73270895D01*
X123294550Y-73270895D02*
X123485027Y-73270895D01*
X123485027Y-73270895D02*
X123599312Y-73308990D01*
X124399313Y-73994704D02*
X124361217Y-74032800D01*
X124361217Y-74032800D02*
X124246932Y-74070895D01*
X124246932Y-74070895D02*
X124170741Y-74070895D01*
X124170741Y-74070895D02*
X124056455Y-74032800D01*
X124056455Y-74032800D02*
X123980265Y-73956609D01*
X123980265Y-73956609D02*
X123942170Y-73880419D01*
X123942170Y-73880419D02*
X123904074Y-73728038D01*
X123904074Y-73728038D02*
X123904074Y-73613752D01*
X123904074Y-73613752D02*
X123942170Y-73461371D01*
X123942170Y-73461371D02*
X123980265Y-73385180D01*
X123980265Y-73385180D02*
X124056455Y-73308990D01*
X124056455Y-73308990D02*
X124170741Y-73270895D01*
X124170741Y-73270895D02*
X124246932Y-73270895D01*
X124246932Y-73270895D02*
X124361217Y-73308990D01*
X124361217Y-73308990D02*
X124399313Y-73347085D01*
X125123122Y-74070895D02*
X124742170Y-74070895D01*
X124742170Y-74070895D02*
X124742170Y-73270895D01*
X110454169Y-74026800D02*
X110568455Y-74064895D01*
X110568455Y-74064895D02*
X110758931Y-74064895D01*
X110758931Y-74064895D02*
X110835122Y-74026800D01*
X110835122Y-74026800D02*
X110873217Y-73988704D01*
X110873217Y-73988704D02*
X110911312Y-73912514D01*
X110911312Y-73912514D02*
X110911312Y-73836323D01*
X110911312Y-73836323D02*
X110873217Y-73760133D01*
X110873217Y-73760133D02*
X110835122Y-73722038D01*
X110835122Y-73722038D02*
X110758931Y-73683942D01*
X110758931Y-73683942D02*
X110606550Y-73645847D01*
X110606550Y-73645847D02*
X110530360Y-73607752D01*
X110530360Y-73607752D02*
X110492265Y-73569657D01*
X110492265Y-73569657D02*
X110454169Y-73493466D01*
X110454169Y-73493466D02*
X110454169Y-73417276D01*
X110454169Y-73417276D02*
X110492265Y-73341085D01*
X110492265Y-73341085D02*
X110530360Y-73302990D01*
X110530360Y-73302990D02*
X110606550Y-73264895D01*
X110606550Y-73264895D02*
X110797027Y-73264895D01*
X110797027Y-73264895D02*
X110911312Y-73302990D01*
X111254170Y-74064895D02*
X111254170Y-73264895D01*
X111254170Y-73264895D02*
X111444646Y-73264895D01*
X111444646Y-73264895D02*
X111558932Y-73302990D01*
X111558932Y-73302990D02*
X111635122Y-73379180D01*
X111635122Y-73379180D02*
X111673217Y-73455371D01*
X111673217Y-73455371D02*
X111711313Y-73607752D01*
X111711313Y-73607752D02*
X111711313Y-73722038D01*
X111711313Y-73722038D02*
X111673217Y-73874419D01*
X111673217Y-73874419D02*
X111635122Y-73950609D01*
X111635122Y-73950609D02*
X111558932Y-74026800D01*
X111558932Y-74026800D02*
X111444646Y-74064895D01*
X111444646Y-74064895D02*
X111254170Y-74064895D01*
X112016074Y-73836323D02*
X112397027Y-73836323D01*
X111939884Y-74064895D02*
X112206551Y-73264895D01*
X112206551Y-73264895D02*
X112473217Y-74064895D01*
X117091734Y-44718152D02*
X116825068Y-44718152D01*
X116710782Y-44299104D02*
X117091734Y-44299104D01*
X117091734Y-44299104D02*
X117091734Y-45099104D01*
X117091734Y-45099104D02*
X116710782Y-45099104D01*
X116367924Y-44299104D02*
X116367924Y-45099104D01*
X116367924Y-45099104D02*
X115910781Y-44299104D01*
X115910781Y-44299104D02*
X115910781Y-45099104D01*
X69725979Y-73016895D02*
X70183122Y-73016895D01*
X69954550Y-73816895D02*
X69954550Y-73016895D01*
X70373598Y-73016895D02*
X70906932Y-73816895D01*
X70906932Y-73016895D02*
X70373598Y-73816895D01*
X139520687Y-45067009D02*
X139596877Y-45105104D01*
X139596877Y-45105104D02*
X139711163Y-45105104D01*
X139711163Y-45105104D02*
X139825449Y-45067009D01*
X139825449Y-45067009D02*
X139901639Y-44990819D01*
X139901639Y-44990819D02*
X139939734Y-44914628D01*
X139939734Y-44914628D02*
X139977830Y-44762247D01*
X139977830Y-44762247D02*
X139977830Y-44647961D01*
X139977830Y-44647961D02*
X139939734Y-44495580D01*
X139939734Y-44495580D02*
X139901639Y-44419390D01*
X139901639Y-44419390D02*
X139825449Y-44343200D01*
X139825449Y-44343200D02*
X139711163Y-44305104D01*
X139711163Y-44305104D02*
X139634972Y-44305104D01*
X139634972Y-44305104D02*
X139520687Y-44343200D01*
X139520687Y-44343200D02*
X139482591Y-44381295D01*
X139482591Y-44381295D02*
X139482591Y-44647961D01*
X139482591Y-44647961D02*
X139634972Y-44647961D01*
X139139734Y-44305104D02*
X139139734Y-45105104D01*
X139139734Y-45105104D02*
X138682591Y-44305104D01*
X138682591Y-44305104D02*
X138682591Y-45105104D01*
X138301639Y-44305104D02*
X138301639Y-45105104D01*
X138301639Y-45105104D02*
X138111163Y-45105104D01*
X138111163Y-45105104D02*
X137996877Y-45067009D01*
X137996877Y-45067009D02*
X137920687Y-44990819D01*
X137920687Y-44990819D02*
X137882592Y-44914628D01*
X137882592Y-44914628D02*
X137844496Y-44762247D01*
X137844496Y-44762247D02*
X137844496Y-44647961D01*
X137844496Y-44647961D02*
X137882592Y-44495580D01*
X137882592Y-44495580D02*
X137920687Y-44419390D01*
X137920687Y-44419390D02*
X137996877Y-44343200D01*
X137996877Y-44343200D02*
X138111163Y-44305104D01*
X138111163Y-44305104D02*
X138301639Y-44305104D01*
X109306687Y-45061009D02*
X109382877Y-45099104D01*
X109382877Y-45099104D02*
X109497163Y-45099104D01*
X109497163Y-45099104D02*
X109611449Y-45061009D01*
X109611449Y-45061009D02*
X109687639Y-44984819D01*
X109687639Y-44984819D02*
X109725734Y-44908628D01*
X109725734Y-44908628D02*
X109763830Y-44756247D01*
X109763830Y-44756247D02*
X109763830Y-44641961D01*
X109763830Y-44641961D02*
X109725734Y-44489580D01*
X109725734Y-44489580D02*
X109687639Y-44413390D01*
X109687639Y-44413390D02*
X109611449Y-44337200D01*
X109611449Y-44337200D02*
X109497163Y-44299104D01*
X109497163Y-44299104D02*
X109420972Y-44299104D01*
X109420972Y-44299104D02*
X109306687Y-44337200D01*
X109306687Y-44337200D02*
X109268591Y-44375295D01*
X109268591Y-44375295D02*
X109268591Y-44641961D01*
X109268591Y-44641961D02*
X109420972Y-44641961D01*
X108773353Y-45099104D02*
X108697163Y-45099104D01*
X108697163Y-45099104D02*
X108620972Y-45061009D01*
X108620972Y-45061009D02*
X108582877Y-45022914D01*
X108582877Y-45022914D02*
X108544782Y-44946723D01*
X108544782Y-44946723D02*
X108506687Y-44794342D01*
X108506687Y-44794342D02*
X108506687Y-44603866D01*
X108506687Y-44603866D02*
X108544782Y-44451485D01*
X108544782Y-44451485D02*
X108582877Y-44375295D01*
X108582877Y-44375295D02*
X108620972Y-44337200D01*
X108620972Y-44337200D02*
X108697163Y-44299104D01*
X108697163Y-44299104D02*
X108773353Y-44299104D01*
X108773353Y-44299104D02*
X108849544Y-44337200D01*
X108849544Y-44337200D02*
X108887639Y-44375295D01*
X108887639Y-44375295D02*
X108925734Y-44451485D01*
X108925734Y-44451485D02*
X108963830Y-44603866D01*
X108963830Y-44603866D02*
X108963830Y-44794342D01*
X108963830Y-44794342D02*
X108925734Y-44946723D01*
X108925734Y-44946723D02*
X108887639Y-45022914D01*
X108887639Y-45022914D02*
X108849544Y-45061009D01*
X108849544Y-45061009D02*
X108773353Y-45099104D01*
X107820972Y-44832438D02*
X107820972Y-44299104D01*
X108011448Y-45137200D02*
X108201925Y-44565771D01*
X108201925Y-44565771D02*
X107706686Y-44565771D01*
X145934990Y-54448687D02*
X145896895Y-54524877D01*
X145896895Y-54524877D02*
X145896895Y-54639163D01*
X145896895Y-54639163D02*
X145934990Y-54753449D01*
X145934990Y-54753449D02*
X146011180Y-54829639D01*
X146011180Y-54829639D02*
X146087371Y-54867734D01*
X146087371Y-54867734D02*
X146239752Y-54905830D01*
X146239752Y-54905830D02*
X146354038Y-54905830D01*
X146354038Y-54905830D02*
X146506419Y-54867734D01*
X146506419Y-54867734D02*
X146582609Y-54829639D01*
X146582609Y-54829639D02*
X146658800Y-54753449D01*
X146658800Y-54753449D02*
X146696895Y-54639163D01*
X146696895Y-54639163D02*
X146696895Y-54562972D01*
X146696895Y-54562972D02*
X146658800Y-54448687D01*
X146658800Y-54448687D02*
X146620704Y-54410591D01*
X146620704Y-54410591D02*
X146354038Y-54410591D01*
X146354038Y-54410591D02*
X146354038Y-54562972D01*
X146696895Y-54067734D02*
X145896895Y-54067734D01*
X145896895Y-54067734D02*
X146696895Y-53610591D01*
X146696895Y-53610591D02*
X145896895Y-53610591D01*
X146696895Y-53229639D02*
X145896895Y-53229639D01*
X145896895Y-53229639D02*
X145896895Y-53039163D01*
X145896895Y-53039163D02*
X145934990Y-52924877D01*
X145934990Y-52924877D02*
X146011180Y-52848687D01*
X146011180Y-52848687D02*
X146087371Y-52810592D01*
X146087371Y-52810592D02*
X146239752Y-52772496D01*
X146239752Y-52772496D02*
X146354038Y-52772496D01*
X146354038Y-52772496D02*
X146506419Y-52810592D01*
X146506419Y-52810592D02*
X146582609Y-52848687D01*
X146582609Y-52848687D02*
X146658800Y-52924877D01*
X146658800Y-52924877D02*
X146696895Y-53039163D01*
X146696895Y-53039163D02*
X146696895Y-53229639D01*
X79605104Y-62232265D02*
X80405104Y-62232265D01*
X80405104Y-62232265D02*
X80405104Y-62422741D01*
X80405104Y-62422741D02*
X80367009Y-62537027D01*
X80367009Y-62537027D02*
X80290819Y-62613217D01*
X80290819Y-62613217D02*
X80214628Y-62651312D01*
X80214628Y-62651312D02*
X80062247Y-62689408D01*
X80062247Y-62689408D02*
X79947961Y-62689408D01*
X79947961Y-62689408D02*
X79795580Y-62651312D01*
X79795580Y-62651312D02*
X79719390Y-62613217D01*
X79719390Y-62613217D02*
X79643200Y-62537027D01*
X79643200Y-62537027D02*
X79605104Y-62422741D01*
X79605104Y-62422741D02*
X79605104Y-62232265D01*
X80405104Y-62917979D02*
X80405104Y-63375122D01*
X79605104Y-63146550D02*
X80405104Y-63146550D01*
X79605104Y-64098932D02*
X79986057Y-63832265D01*
X79605104Y-63641789D02*
X80405104Y-63641789D01*
X80405104Y-63641789D02*
X80405104Y-63946551D01*
X80405104Y-63946551D02*
X80367009Y-64022741D01*
X80367009Y-64022741D02*
X80328914Y-64060836D01*
X80328914Y-64060836D02*
X80252723Y-64098932D01*
X80252723Y-64098932D02*
X80138438Y-64098932D01*
X80138438Y-64098932D02*
X80062247Y-64060836D01*
X80062247Y-64060836D02*
X80024152Y-64022741D01*
X80024152Y-64022741D02*
X79986057Y-63946551D01*
X79986057Y-63946551D02*
X79986057Y-63641789D01*
X132395925Y-45105104D02*
X131900687Y-45105104D01*
X131900687Y-45105104D02*
X132167353Y-44800342D01*
X132167353Y-44800342D02*
X132053068Y-44800342D01*
X132053068Y-44800342D02*
X131976877Y-44762247D01*
X131976877Y-44762247D02*
X131938782Y-44724152D01*
X131938782Y-44724152D02*
X131900687Y-44647961D01*
X131900687Y-44647961D02*
X131900687Y-44457485D01*
X131900687Y-44457485D02*
X131938782Y-44381295D01*
X131938782Y-44381295D02*
X131976877Y-44343200D01*
X131976877Y-44343200D02*
X132053068Y-44305104D01*
X132053068Y-44305104D02*
X132281639Y-44305104D01*
X132281639Y-44305104D02*
X132357830Y-44343200D01*
X132357830Y-44343200D02*
X132395925Y-44381295D01*
X131672115Y-45105104D02*
X131405448Y-44305104D01*
X131405448Y-44305104D02*
X131138782Y-45105104D01*
X130948306Y-45105104D02*
X130453068Y-45105104D01*
X130453068Y-45105104D02*
X130719734Y-44800342D01*
X130719734Y-44800342D02*
X130605449Y-44800342D01*
X130605449Y-44800342D02*
X130529258Y-44762247D01*
X130529258Y-44762247D02*
X130491163Y-44724152D01*
X130491163Y-44724152D02*
X130453068Y-44647961D01*
X130453068Y-44647961D02*
X130453068Y-44457485D01*
X130453068Y-44457485D02*
X130491163Y-44381295D01*
X130491163Y-44381295D02*
X130529258Y-44343200D01*
X130529258Y-44343200D02*
X130605449Y-44305104D01*
X130605449Y-44305104D02*
X130834020Y-44305104D01*
X130834020Y-44305104D02*
X130910211Y-44343200D01*
X130910211Y-44343200D02*
X130948306Y-44381295D01*
X112994169Y-74026800D02*
X113108455Y-74064895D01*
X113108455Y-74064895D02*
X113298931Y-74064895D01*
X113298931Y-74064895D02*
X113375122Y-74026800D01*
X113375122Y-74026800D02*
X113413217Y-73988704D01*
X113413217Y-73988704D02*
X113451312Y-73912514D01*
X113451312Y-73912514D02*
X113451312Y-73836323D01*
X113451312Y-73836323D02*
X113413217Y-73760133D01*
X113413217Y-73760133D02*
X113375122Y-73722038D01*
X113375122Y-73722038D02*
X113298931Y-73683942D01*
X113298931Y-73683942D02*
X113146550Y-73645847D01*
X113146550Y-73645847D02*
X113070360Y-73607752D01*
X113070360Y-73607752D02*
X113032265Y-73569657D01*
X113032265Y-73569657D02*
X112994169Y-73493466D01*
X112994169Y-73493466D02*
X112994169Y-73417276D01*
X112994169Y-73417276D02*
X113032265Y-73341085D01*
X113032265Y-73341085D02*
X113070360Y-73302990D01*
X113070360Y-73302990D02*
X113146550Y-73264895D01*
X113146550Y-73264895D02*
X113337027Y-73264895D01*
X113337027Y-73264895D02*
X113451312Y-73302990D01*
X114251313Y-73988704D02*
X114213217Y-74026800D01*
X114213217Y-74026800D02*
X114098932Y-74064895D01*
X114098932Y-74064895D02*
X114022741Y-74064895D01*
X114022741Y-74064895D02*
X113908455Y-74026800D01*
X113908455Y-74026800D02*
X113832265Y-73950609D01*
X113832265Y-73950609D02*
X113794170Y-73874419D01*
X113794170Y-73874419D02*
X113756074Y-73722038D01*
X113756074Y-73722038D02*
X113756074Y-73607752D01*
X113756074Y-73607752D02*
X113794170Y-73455371D01*
X113794170Y-73455371D02*
X113832265Y-73379180D01*
X113832265Y-73379180D02*
X113908455Y-73302990D01*
X113908455Y-73302990D02*
X114022741Y-73264895D01*
X114022741Y-73264895D02*
X114098932Y-73264895D01*
X114098932Y-73264895D02*
X114213217Y-73302990D01*
X114213217Y-73302990D02*
X114251313Y-73341085D01*
X114975122Y-74064895D02*
X114594170Y-74064895D01*
X114594170Y-74064895D02*
X114594170Y-73264895D01*
X145896895Y-62817925D02*
X145896895Y-62322687D01*
X145896895Y-62322687D02*
X146201657Y-62589353D01*
X146201657Y-62589353D02*
X146201657Y-62475068D01*
X146201657Y-62475068D02*
X146239752Y-62398877D01*
X146239752Y-62398877D02*
X146277847Y-62360782D01*
X146277847Y-62360782D02*
X146354038Y-62322687D01*
X146354038Y-62322687D02*
X146544514Y-62322687D01*
X146544514Y-62322687D02*
X146620704Y-62360782D01*
X146620704Y-62360782D02*
X146658800Y-62398877D01*
X146658800Y-62398877D02*
X146696895Y-62475068D01*
X146696895Y-62475068D02*
X146696895Y-62703639D01*
X146696895Y-62703639D02*
X146658800Y-62779830D01*
X146658800Y-62779830D02*
X146620704Y-62817925D01*
X145896895Y-62094115D02*
X146696895Y-61827448D01*
X146696895Y-61827448D02*
X145896895Y-61560782D01*
X145896895Y-61370306D02*
X145896895Y-60875068D01*
X145896895Y-60875068D02*
X146201657Y-61141734D01*
X146201657Y-61141734D02*
X146201657Y-61027449D01*
X146201657Y-61027449D02*
X146239752Y-60951258D01*
X146239752Y-60951258D02*
X146277847Y-60913163D01*
X146277847Y-60913163D02*
X146354038Y-60875068D01*
X146354038Y-60875068D02*
X146544514Y-60875068D01*
X146544514Y-60875068D02*
X146620704Y-60913163D01*
X146620704Y-60913163D02*
X146658800Y-60951258D01*
X146658800Y-60951258D02*
X146696895Y-61027449D01*
X146696895Y-61027449D02*
X146696895Y-61256020D01*
X146696895Y-61256020D02*
X146658800Y-61332211D01*
X146658800Y-61332211D02*
X146620704Y-61370306D01*
X141417408Y-73994704D02*
X141379312Y-74032800D01*
X141379312Y-74032800D02*
X141265027Y-74070895D01*
X141265027Y-74070895D02*
X141188836Y-74070895D01*
X141188836Y-74070895D02*
X141074550Y-74032800D01*
X141074550Y-74032800D02*
X140998360Y-73956609D01*
X140998360Y-73956609D02*
X140960265Y-73880419D01*
X140960265Y-73880419D02*
X140922169Y-73728038D01*
X140922169Y-73728038D02*
X140922169Y-73613752D01*
X140922169Y-73613752D02*
X140960265Y-73461371D01*
X140960265Y-73461371D02*
X140998360Y-73385180D01*
X140998360Y-73385180D02*
X141074550Y-73308990D01*
X141074550Y-73308990D02*
X141188836Y-73270895D01*
X141188836Y-73270895D02*
X141265027Y-73270895D01*
X141265027Y-73270895D02*
X141379312Y-73308990D01*
X141379312Y-73308990D02*
X141417408Y-73347085D01*
X141722169Y-73347085D02*
X141760265Y-73308990D01*
X141760265Y-73308990D02*
X141836455Y-73270895D01*
X141836455Y-73270895D02*
X142026931Y-73270895D01*
X142026931Y-73270895D02*
X142103122Y-73308990D01*
X142103122Y-73308990D02*
X142141217Y-73347085D01*
X142141217Y-73347085D02*
X142179312Y-73423276D01*
X142179312Y-73423276D02*
X142179312Y-73499466D01*
X142179312Y-73499466D02*
X142141217Y-73613752D01*
X142141217Y-73613752D02*
X141684074Y-74070895D01*
X141684074Y-74070895D02*
X142179312Y-74070895D01*
X142903122Y-74070895D02*
X142522170Y-74070895D01*
X142522170Y-74070895D02*
X142522170Y-73270895D01*
X138877408Y-73994704D02*
X138839312Y-74032800D01*
X138839312Y-74032800D02*
X138725027Y-74070895D01*
X138725027Y-74070895D02*
X138648836Y-74070895D01*
X138648836Y-74070895D02*
X138534550Y-74032800D01*
X138534550Y-74032800D02*
X138458360Y-73956609D01*
X138458360Y-73956609D02*
X138420265Y-73880419D01*
X138420265Y-73880419D02*
X138382169Y-73728038D01*
X138382169Y-73728038D02*
X138382169Y-73613752D01*
X138382169Y-73613752D02*
X138420265Y-73461371D01*
X138420265Y-73461371D02*
X138458360Y-73385180D01*
X138458360Y-73385180D02*
X138534550Y-73308990D01*
X138534550Y-73308990D02*
X138648836Y-73270895D01*
X138648836Y-73270895D02*
X138725027Y-73270895D01*
X138725027Y-73270895D02*
X138839312Y-73308990D01*
X138839312Y-73308990D02*
X138877408Y-73347085D01*
X139639312Y-74070895D02*
X139182169Y-74070895D01*
X139410741Y-74070895D02*
X139410741Y-73270895D01*
X139410741Y-73270895D02*
X139334550Y-73385180D01*
X139334550Y-73385180D02*
X139258360Y-73461371D01*
X139258360Y-73461371D02*
X139182169Y-73499466D01*
X139982170Y-74070895D02*
X139982170Y-73270895D01*
X139982170Y-73651847D02*
X140439313Y-73651847D01*
X140439313Y-74070895D02*
X140439313Y-73270895D01*
X106766687Y-45061009D02*
X106842877Y-45099104D01*
X106842877Y-45099104D02*
X106957163Y-45099104D01*
X106957163Y-45099104D02*
X107071449Y-45061009D01*
X107071449Y-45061009D02*
X107147639Y-44984819D01*
X107147639Y-44984819D02*
X107185734Y-44908628D01*
X107185734Y-44908628D02*
X107223830Y-44756247D01*
X107223830Y-44756247D02*
X107223830Y-44641961D01*
X107223830Y-44641961D02*
X107185734Y-44489580D01*
X107185734Y-44489580D02*
X107147639Y-44413390D01*
X107147639Y-44413390D02*
X107071449Y-44337200D01*
X107071449Y-44337200D02*
X106957163Y-44299104D01*
X106957163Y-44299104D02*
X106880972Y-44299104D01*
X106880972Y-44299104D02*
X106766687Y-44337200D01*
X106766687Y-44337200D02*
X106728591Y-44375295D01*
X106728591Y-44375295D02*
X106728591Y-44641961D01*
X106728591Y-44641961D02*
X106880972Y-44641961D01*
X106233353Y-45099104D02*
X106157163Y-45099104D01*
X106157163Y-45099104D02*
X106080972Y-45061009D01*
X106080972Y-45061009D02*
X106042877Y-45022914D01*
X106042877Y-45022914D02*
X106004782Y-44946723D01*
X106004782Y-44946723D02*
X105966687Y-44794342D01*
X105966687Y-44794342D02*
X105966687Y-44603866D01*
X105966687Y-44603866D02*
X106004782Y-44451485D01*
X106004782Y-44451485D02*
X106042877Y-44375295D01*
X106042877Y-44375295D02*
X106080972Y-44337200D01*
X106080972Y-44337200D02*
X106157163Y-44299104D01*
X106157163Y-44299104D02*
X106233353Y-44299104D01*
X106233353Y-44299104D02*
X106309544Y-44337200D01*
X106309544Y-44337200D02*
X106347639Y-44375295D01*
X106347639Y-44375295D02*
X106385734Y-44451485D01*
X106385734Y-44451485D02*
X106423830Y-44603866D01*
X106423830Y-44603866D02*
X106423830Y-44794342D01*
X106423830Y-44794342D02*
X106385734Y-44946723D01*
X106385734Y-44946723D02*
X106347639Y-45022914D01*
X106347639Y-45022914D02*
X106309544Y-45061009D01*
X106309544Y-45061009D02*
X106233353Y-45099104D01*
X105242877Y-45099104D02*
X105623829Y-45099104D01*
X105623829Y-45099104D02*
X105661925Y-44718152D01*
X105661925Y-44718152D02*
X105623829Y-44756247D01*
X105623829Y-44756247D02*
X105547639Y-44794342D01*
X105547639Y-44794342D02*
X105357163Y-44794342D01*
X105357163Y-44794342D02*
X105280972Y-44756247D01*
X105280972Y-44756247D02*
X105242877Y-44718152D01*
X105242877Y-44718152D02*
X105204782Y-44641961D01*
X105204782Y-44641961D02*
X105204782Y-44451485D01*
X105204782Y-44451485D02*
X105242877Y-44375295D01*
X105242877Y-44375295D02*
X105280972Y-44337200D01*
X105280972Y-44337200D02*
X105357163Y-44299104D01*
X105357163Y-44299104D02*
X105547639Y-44299104D01*
X105547639Y-44299104D02*
X105623829Y-44337200D01*
X105623829Y-44337200D02*
X105661925Y-44375295D01*
X120310074Y-73270895D02*
X120805312Y-73270895D01*
X120805312Y-73270895D02*
X120538646Y-73575657D01*
X120538646Y-73575657D02*
X120652931Y-73575657D01*
X120652931Y-73575657D02*
X120729122Y-73613752D01*
X120729122Y-73613752D02*
X120767217Y-73651847D01*
X120767217Y-73651847D02*
X120805312Y-73728038D01*
X120805312Y-73728038D02*
X120805312Y-73918514D01*
X120805312Y-73918514D02*
X120767217Y-73994704D01*
X120767217Y-73994704D02*
X120729122Y-74032800D01*
X120729122Y-74032800D02*
X120652931Y-74070895D01*
X120652931Y-74070895D02*
X120424360Y-74070895D01*
X120424360Y-74070895D02*
X120348169Y-74032800D01*
X120348169Y-74032800D02*
X120310074Y-73994704D01*
X121033884Y-73270895D02*
X121300551Y-74070895D01*
X121300551Y-74070895D02*
X121567217Y-73270895D01*
X121757693Y-73270895D02*
X122252931Y-73270895D01*
X122252931Y-73270895D02*
X121986265Y-73575657D01*
X121986265Y-73575657D02*
X122100550Y-73575657D01*
X122100550Y-73575657D02*
X122176741Y-73613752D01*
X122176741Y-73613752D02*
X122214836Y-73651847D01*
X122214836Y-73651847D02*
X122252931Y-73728038D01*
X122252931Y-73728038D02*
X122252931Y-73918514D01*
X122252931Y-73918514D02*
X122214836Y-73994704D01*
X122214836Y-73994704D02*
X122176741Y-74032800D01*
X122176741Y-74032800D02*
X122100550Y-74070895D01*
X122100550Y-74070895D02*
X121871979Y-74070895D01*
X121871979Y-74070895D02*
X121795788Y-74032800D01*
X121795788Y-74032800D02*
X121757693Y-73994704D01*
X145057830Y-44343200D02*
X144943544Y-44305104D01*
X144943544Y-44305104D02*
X144753068Y-44305104D01*
X144753068Y-44305104D02*
X144676877Y-44343200D01*
X144676877Y-44343200D02*
X144638782Y-44381295D01*
X144638782Y-44381295D02*
X144600687Y-44457485D01*
X144600687Y-44457485D02*
X144600687Y-44533676D01*
X144600687Y-44533676D02*
X144638782Y-44609866D01*
X144638782Y-44609866D02*
X144676877Y-44647961D01*
X144676877Y-44647961D02*
X144753068Y-44686057D01*
X144753068Y-44686057D02*
X144905449Y-44724152D01*
X144905449Y-44724152D02*
X144981639Y-44762247D01*
X144981639Y-44762247D02*
X145019734Y-44800342D01*
X145019734Y-44800342D02*
X145057830Y-44876533D01*
X145057830Y-44876533D02*
X145057830Y-44952723D01*
X145057830Y-44952723D02*
X145019734Y-45028914D01*
X145019734Y-45028914D02*
X144981639Y-45067009D01*
X144981639Y-45067009D02*
X144905449Y-45105104D01*
X144905449Y-45105104D02*
X144714972Y-45105104D01*
X144714972Y-45105104D02*
X144600687Y-45067009D01*
X144257829Y-44305104D02*
X144257829Y-45105104D01*
X144257829Y-45105104D02*
X144067353Y-45105104D01*
X144067353Y-45105104D02*
X143953067Y-45067009D01*
X143953067Y-45067009D02*
X143876877Y-44990819D01*
X143876877Y-44990819D02*
X143838782Y-44914628D01*
X143838782Y-44914628D02*
X143800686Y-44762247D01*
X143800686Y-44762247D02*
X143800686Y-44647961D01*
X143800686Y-44647961D02*
X143838782Y-44495580D01*
X143838782Y-44495580D02*
X143876877Y-44419390D01*
X143876877Y-44419390D02*
X143953067Y-44343200D01*
X143953067Y-44343200D02*
X144067353Y-44305104D01*
X144067353Y-44305104D02*
X144257829Y-44305104D01*
X143495925Y-44533676D02*
X143114972Y-44533676D01*
X143572115Y-44305104D02*
X143305448Y-45105104D01*
X143305448Y-45105104D02*
X143038782Y-44305104D01*
X51077830Y-44343200D02*
X50963544Y-44305104D01*
X50963544Y-44305104D02*
X50773068Y-44305104D01*
X50773068Y-44305104D02*
X50696877Y-44343200D01*
X50696877Y-44343200D02*
X50658782Y-44381295D01*
X50658782Y-44381295D02*
X50620687Y-44457485D01*
X50620687Y-44457485D02*
X50620687Y-44533676D01*
X50620687Y-44533676D02*
X50658782Y-44609866D01*
X50658782Y-44609866D02*
X50696877Y-44647961D01*
X50696877Y-44647961D02*
X50773068Y-44686057D01*
X50773068Y-44686057D02*
X50925449Y-44724152D01*
X50925449Y-44724152D02*
X51001639Y-44762247D01*
X51001639Y-44762247D02*
X51039734Y-44800342D01*
X51039734Y-44800342D02*
X51077830Y-44876533D01*
X51077830Y-44876533D02*
X51077830Y-44952723D01*
X51077830Y-44952723D02*
X51039734Y-45028914D01*
X51039734Y-45028914D02*
X51001639Y-45067009D01*
X51001639Y-45067009D02*
X50925449Y-45105104D01*
X50925449Y-45105104D02*
X50734972Y-45105104D01*
X50734972Y-45105104D02*
X50620687Y-45067009D01*
X50277829Y-44305104D02*
X50277829Y-45105104D01*
X50277829Y-45105104D02*
X50087353Y-45105104D01*
X50087353Y-45105104D02*
X49973067Y-45067009D01*
X49973067Y-45067009D02*
X49896877Y-44990819D01*
X49896877Y-44990819D02*
X49858782Y-44914628D01*
X49858782Y-44914628D02*
X49820686Y-44762247D01*
X49820686Y-44762247D02*
X49820686Y-44647961D01*
X49820686Y-44647961D02*
X49858782Y-44495580D01*
X49858782Y-44495580D02*
X49896877Y-44419390D01*
X49896877Y-44419390D02*
X49973067Y-44343200D01*
X49973067Y-44343200D02*
X50087353Y-44305104D01*
X50087353Y-44305104D02*
X50277829Y-44305104D01*
X49515925Y-44533676D02*
X49134972Y-44533676D01*
X49592115Y-44305104D02*
X49325448Y-45105104D01*
X49325448Y-45105104D02*
X49058782Y-44305104D01*
X133797408Y-73994704D02*
X133759312Y-74032800D01*
X133759312Y-74032800D02*
X133645027Y-74070895D01*
X133645027Y-74070895D02*
X133568836Y-74070895D01*
X133568836Y-74070895D02*
X133454550Y-74032800D01*
X133454550Y-74032800D02*
X133378360Y-73956609D01*
X133378360Y-73956609D02*
X133340265Y-73880419D01*
X133340265Y-73880419D02*
X133302169Y-73728038D01*
X133302169Y-73728038D02*
X133302169Y-73613752D01*
X133302169Y-73613752D02*
X133340265Y-73461371D01*
X133340265Y-73461371D02*
X133378360Y-73385180D01*
X133378360Y-73385180D02*
X133454550Y-73308990D01*
X133454550Y-73308990D02*
X133568836Y-73270895D01*
X133568836Y-73270895D02*
X133645027Y-73270895D01*
X133645027Y-73270895D02*
X133759312Y-73308990D01*
X133759312Y-73308990D02*
X133797408Y-73347085D01*
X134102169Y-73347085D02*
X134140265Y-73308990D01*
X134140265Y-73308990D02*
X134216455Y-73270895D01*
X134216455Y-73270895D02*
X134406931Y-73270895D01*
X134406931Y-73270895D02*
X134483122Y-73308990D01*
X134483122Y-73308990D02*
X134521217Y-73347085D01*
X134521217Y-73347085D02*
X134559312Y-73423276D01*
X134559312Y-73423276D02*
X134559312Y-73499466D01*
X134559312Y-73499466D02*
X134521217Y-73613752D01*
X134521217Y-73613752D02*
X134064074Y-74070895D01*
X134064074Y-74070895D02*
X134559312Y-74070895D01*
X134902170Y-74070895D02*
X134902170Y-73270895D01*
X134902170Y-73651847D02*
X135359313Y-73651847D01*
X135359313Y-74070895D02*
X135359313Y-73270895D01*
X58989925Y-45105104D02*
X58494687Y-45105104D01*
X58494687Y-45105104D02*
X58761353Y-44800342D01*
X58761353Y-44800342D02*
X58647068Y-44800342D01*
X58647068Y-44800342D02*
X58570877Y-44762247D01*
X58570877Y-44762247D02*
X58532782Y-44724152D01*
X58532782Y-44724152D02*
X58494687Y-44647961D01*
X58494687Y-44647961D02*
X58494687Y-44457485D01*
X58494687Y-44457485D02*
X58532782Y-44381295D01*
X58532782Y-44381295D02*
X58570877Y-44343200D01*
X58570877Y-44343200D02*
X58647068Y-44305104D01*
X58647068Y-44305104D02*
X58875639Y-44305104D01*
X58875639Y-44305104D02*
X58951830Y-44343200D01*
X58951830Y-44343200D02*
X58989925Y-44381295D01*
X58266115Y-45105104D02*
X57999448Y-44305104D01*
X57999448Y-44305104D02*
X57732782Y-45105104D01*
X57542306Y-45105104D02*
X57047068Y-45105104D01*
X57047068Y-45105104D02*
X57313734Y-44800342D01*
X57313734Y-44800342D02*
X57199449Y-44800342D01*
X57199449Y-44800342D02*
X57123258Y-44762247D01*
X57123258Y-44762247D02*
X57085163Y-44724152D01*
X57085163Y-44724152D02*
X57047068Y-44647961D01*
X57047068Y-44647961D02*
X57047068Y-44457485D01*
X57047068Y-44457485D02*
X57085163Y-44381295D01*
X57085163Y-44381295D02*
X57123258Y-44343200D01*
X57123258Y-44343200D02*
X57199449Y-44305104D01*
X57199449Y-44305104D02*
X57428020Y-44305104D01*
X57428020Y-44305104D02*
X57504211Y-44343200D01*
X57504211Y-44343200D02*
X57542306Y-44381295D01*
X124699734Y-44305104D02*
X124699734Y-45105104D01*
X124699734Y-44724152D02*
X124242591Y-44724152D01*
X124242591Y-44305104D02*
X124242591Y-45105104D01*
X123899735Y-45028914D02*
X123861639Y-45067009D01*
X123861639Y-45067009D02*
X123785449Y-45105104D01*
X123785449Y-45105104D02*
X123594973Y-45105104D01*
X123594973Y-45105104D02*
X123518782Y-45067009D01*
X123518782Y-45067009D02*
X123480687Y-45028914D01*
X123480687Y-45028914D02*
X123442592Y-44952723D01*
X123442592Y-44952723D02*
X123442592Y-44876533D01*
X123442592Y-44876533D02*
X123480687Y-44762247D01*
X123480687Y-44762247D02*
X123937830Y-44305104D01*
X123937830Y-44305104D02*
X123442592Y-44305104D01*
X125720265Y-74070895D02*
X125720265Y-73270895D01*
X125720265Y-73270895D02*
X126177408Y-74070895D01*
X126177408Y-74070895D02*
X126177408Y-73270895D01*
X127015503Y-73994704D02*
X126977407Y-74032800D01*
X126977407Y-74032800D02*
X126863122Y-74070895D01*
X126863122Y-74070895D02*
X126786931Y-74070895D01*
X126786931Y-74070895D02*
X126672645Y-74032800D01*
X126672645Y-74032800D02*
X126596455Y-73956609D01*
X126596455Y-73956609D02*
X126558360Y-73880419D01*
X126558360Y-73880419D02*
X126520264Y-73728038D01*
X126520264Y-73728038D02*
X126520264Y-73613752D01*
X126520264Y-73613752D02*
X126558360Y-73461371D01*
X126558360Y-73461371D02*
X126596455Y-73385180D01*
X126596455Y-73385180D02*
X126672645Y-73308990D01*
X126672645Y-73308990D02*
X126786931Y-73270895D01*
X126786931Y-73270895D02*
X126863122Y-73270895D01*
X126863122Y-73270895D02*
X126977407Y-73308990D01*
X126977407Y-73308990D02*
X127015503Y-73347085D01*
X79605104Y-55577408D02*
X79986057Y-55310741D01*
X79605104Y-55120265D02*
X80405104Y-55120265D01*
X80405104Y-55120265D02*
X80405104Y-55425027D01*
X80405104Y-55425027D02*
X80367009Y-55501217D01*
X80367009Y-55501217D02*
X80328914Y-55539312D01*
X80328914Y-55539312D02*
X80252723Y-55577408D01*
X80252723Y-55577408D02*
X80138438Y-55577408D01*
X80138438Y-55577408D02*
X80062247Y-55539312D01*
X80062247Y-55539312D02*
X80024152Y-55501217D01*
X80024152Y-55501217D02*
X79986057Y-55425027D01*
X79986057Y-55425027D02*
X79986057Y-55120265D01*
X80405104Y-55844074D02*
X79605104Y-56377408D01*
X80405104Y-56377408D02*
X79605104Y-55844074D01*
X75982591Y-44305104D02*
X76249258Y-44686057D01*
X76439734Y-44305104D02*
X76439734Y-45105104D01*
X76439734Y-45105104D02*
X76134972Y-45105104D01*
X76134972Y-45105104D02*
X76058782Y-45067009D01*
X76058782Y-45067009D02*
X76020687Y-45028914D01*
X76020687Y-45028914D02*
X75982591Y-44952723D01*
X75982591Y-44952723D02*
X75982591Y-44838438D01*
X75982591Y-44838438D02*
X76020687Y-44762247D01*
X76020687Y-44762247D02*
X76058782Y-44724152D01*
X76058782Y-44724152D02*
X76134972Y-44686057D01*
X76134972Y-44686057D02*
X76439734Y-44686057D01*
X75677830Y-44343200D02*
X75563544Y-44305104D01*
X75563544Y-44305104D02*
X75373068Y-44305104D01*
X75373068Y-44305104D02*
X75296877Y-44343200D01*
X75296877Y-44343200D02*
X75258782Y-44381295D01*
X75258782Y-44381295D02*
X75220687Y-44457485D01*
X75220687Y-44457485D02*
X75220687Y-44533676D01*
X75220687Y-44533676D02*
X75258782Y-44609866D01*
X75258782Y-44609866D02*
X75296877Y-44647961D01*
X75296877Y-44647961D02*
X75373068Y-44686057D01*
X75373068Y-44686057D02*
X75525449Y-44724152D01*
X75525449Y-44724152D02*
X75601639Y-44762247D01*
X75601639Y-44762247D02*
X75639734Y-44800342D01*
X75639734Y-44800342D02*
X75677830Y-44876533D01*
X75677830Y-44876533D02*
X75677830Y-44952723D01*
X75677830Y-44952723D02*
X75639734Y-45028914D01*
X75639734Y-45028914D02*
X75601639Y-45067009D01*
X75601639Y-45067009D02*
X75525449Y-45105104D01*
X75525449Y-45105104D02*
X75334972Y-45105104D01*
X75334972Y-45105104D02*
X75220687Y-45067009D01*
X74992115Y-45105104D02*
X74534972Y-45105104D01*
X74763544Y-44305104D02*
X74763544Y-45105104D01*
X127239734Y-44305104D02*
X127239734Y-45105104D01*
X127239734Y-44724152D02*
X126782591Y-44724152D01*
X126782591Y-44305104D02*
X126782591Y-45105104D01*
X125982592Y-44305104D02*
X126439735Y-44305104D01*
X126211163Y-44305104D02*
X126211163Y-45105104D01*
X126211163Y-45105104D02*
X126287354Y-44990819D01*
X126287354Y-44990819D02*
X126363544Y-44914628D01*
X126363544Y-44914628D02*
X126439735Y-44876533D01*
X56627734Y-44305104D02*
X56627734Y-45105104D01*
X56627734Y-45105104D02*
X56437258Y-45105104D01*
X56437258Y-45105104D02*
X56322972Y-45067009D01*
X56322972Y-45067009D02*
X56246782Y-44990819D01*
X56246782Y-44990819D02*
X56208687Y-44914628D01*
X56208687Y-44914628D02*
X56170591Y-44762247D01*
X56170591Y-44762247D02*
X56170591Y-44647961D01*
X56170591Y-44647961D02*
X56208687Y-44495580D01*
X56208687Y-44495580D02*
X56246782Y-44419390D01*
X56246782Y-44419390D02*
X56322972Y-44343200D01*
X56322972Y-44343200D02*
X56437258Y-44305104D01*
X56437258Y-44305104D02*
X56627734Y-44305104D01*
X55370591Y-44305104D02*
X55637258Y-44686057D01*
X55827734Y-44305104D02*
X55827734Y-45105104D01*
X55827734Y-45105104D02*
X55522972Y-45105104D01*
X55522972Y-45105104D02*
X55446782Y-45067009D01*
X55446782Y-45067009D02*
X55408687Y-45028914D01*
X55408687Y-45028914D02*
X55370591Y-44952723D01*
X55370591Y-44952723D02*
X55370591Y-44838438D01*
X55370591Y-44838438D02*
X55408687Y-44762247D01*
X55408687Y-44762247D02*
X55446782Y-44724152D01*
X55446782Y-44724152D02*
X55522972Y-44686057D01*
X55522972Y-44686057D02*
X55827734Y-44686057D01*
X55027734Y-44305104D02*
X55027734Y-45105104D01*
X55027734Y-45105104D02*
X54837258Y-45105104D01*
X54837258Y-45105104D02*
X54722972Y-45067009D01*
X54722972Y-45067009D02*
X54646782Y-44990819D01*
X54646782Y-44990819D02*
X54608687Y-44914628D01*
X54608687Y-44914628D02*
X54570591Y-44762247D01*
X54570591Y-44762247D02*
X54570591Y-44647961D01*
X54570591Y-44647961D02*
X54608687Y-44495580D01*
X54608687Y-44495580D02*
X54646782Y-44419390D01*
X54646782Y-44419390D02*
X54722972Y-44343200D01*
X54722972Y-44343200D02*
X54837258Y-44305104D01*
X54837258Y-44305104D02*
X55027734Y-44305104D01*
X54075353Y-44686057D02*
X54075353Y-44305104D01*
X54342020Y-45105104D02*
X54075353Y-44686057D01*
X54075353Y-44686057D02*
X53808687Y-45105104D01*
X142378895Y-57407734D02*
X141578895Y-57407734D01*
X141578895Y-57407734D02*
X141578895Y-57217258D01*
X141578895Y-57217258D02*
X141616990Y-57102972D01*
X141616990Y-57102972D02*
X141693180Y-57026782D01*
X141693180Y-57026782D02*
X141769371Y-56988687D01*
X141769371Y-56988687D02*
X141921752Y-56950591D01*
X141921752Y-56950591D02*
X142036038Y-56950591D01*
X142036038Y-56950591D02*
X142188419Y-56988687D01*
X142188419Y-56988687D02*
X142264609Y-57026782D01*
X142264609Y-57026782D02*
X142340800Y-57102972D01*
X142340800Y-57102972D02*
X142378895Y-57217258D01*
X142378895Y-57217258D02*
X142378895Y-57407734D01*
X142340800Y-56302972D02*
X142378895Y-56379163D01*
X142378895Y-56379163D02*
X142378895Y-56531544D01*
X142378895Y-56531544D02*
X142340800Y-56607734D01*
X142340800Y-56607734D02*
X142264609Y-56645830D01*
X142264609Y-56645830D02*
X141959847Y-56645830D01*
X141959847Y-56645830D02*
X141883657Y-56607734D01*
X141883657Y-56607734D02*
X141845561Y-56531544D01*
X141845561Y-56531544D02*
X141845561Y-56379163D01*
X141845561Y-56379163D02*
X141883657Y-56302972D01*
X141883657Y-56302972D02*
X141959847Y-56264877D01*
X141959847Y-56264877D02*
X142036038Y-56264877D01*
X142036038Y-56264877D02*
X142112228Y-56645830D01*
X142378895Y-55922020D02*
X141578895Y-55922020D01*
X141883657Y-55922020D02*
X141845561Y-55845830D01*
X141845561Y-55845830D02*
X141845561Y-55693449D01*
X141845561Y-55693449D02*
X141883657Y-55617258D01*
X141883657Y-55617258D02*
X141921752Y-55579163D01*
X141921752Y-55579163D02*
X141997942Y-55541068D01*
X141997942Y-55541068D02*
X142226514Y-55541068D01*
X142226514Y-55541068D02*
X142302704Y-55579163D01*
X142302704Y-55579163D02*
X142340800Y-55617258D01*
X142340800Y-55617258D02*
X142378895Y-55693449D01*
X142378895Y-55693449D02*
X142378895Y-55845830D01*
X142378895Y-55845830D02*
X142340800Y-55922020D01*
X141845561Y-54855353D02*
X142378895Y-54855353D01*
X141845561Y-55198210D02*
X142264609Y-55198210D01*
X142264609Y-55198210D02*
X142340800Y-55160115D01*
X142340800Y-55160115D02*
X142378895Y-55083925D01*
X142378895Y-55083925D02*
X142378895Y-54969639D01*
X142378895Y-54969639D02*
X142340800Y-54893448D01*
X142340800Y-54893448D02*
X142302704Y-54855353D01*
X141845561Y-54131543D02*
X142493180Y-54131543D01*
X142493180Y-54131543D02*
X142569371Y-54169638D01*
X142569371Y-54169638D02*
X142607466Y-54207734D01*
X142607466Y-54207734D02*
X142645561Y-54283924D01*
X142645561Y-54283924D02*
X142645561Y-54398210D01*
X142645561Y-54398210D02*
X142607466Y-54474400D01*
X142340800Y-54131543D02*
X142378895Y-54207734D01*
X142378895Y-54207734D02*
X142378895Y-54360115D01*
X142378895Y-54360115D02*
X142340800Y-54436305D01*
X142340800Y-54436305D02*
X142302704Y-54474400D01*
X142302704Y-54474400D02*
X142226514Y-54512496D01*
X142226514Y-54512496D02*
X141997942Y-54512496D01*
X141997942Y-54512496D02*
X141921752Y-54474400D01*
X141921752Y-54474400D02*
X141883657Y-54436305D01*
X141883657Y-54436305D02*
X141845561Y-54360115D01*
X141845561Y-54360115D02*
X141845561Y-54207734D01*
X141845561Y-54207734D02*
X141883657Y-54131543D01*
X70940687Y-45067009D02*
X71016877Y-45105104D01*
X71016877Y-45105104D02*
X71131163Y-45105104D01*
X71131163Y-45105104D02*
X71245449Y-45067009D01*
X71245449Y-45067009D02*
X71321639Y-44990819D01*
X71321639Y-44990819D02*
X71359734Y-44914628D01*
X71359734Y-44914628D02*
X71397830Y-44762247D01*
X71397830Y-44762247D02*
X71397830Y-44647961D01*
X71397830Y-44647961D02*
X71359734Y-44495580D01*
X71359734Y-44495580D02*
X71321639Y-44419390D01*
X71321639Y-44419390D02*
X71245449Y-44343200D01*
X71245449Y-44343200D02*
X71131163Y-44305104D01*
X71131163Y-44305104D02*
X71054972Y-44305104D01*
X71054972Y-44305104D02*
X70940687Y-44343200D01*
X70940687Y-44343200D02*
X70902591Y-44381295D01*
X70902591Y-44381295D02*
X70902591Y-44647961D01*
X70902591Y-44647961D02*
X71054972Y-44647961D01*
X70559734Y-44305104D02*
X70559734Y-45105104D01*
X70559734Y-45105104D02*
X70102591Y-44305104D01*
X70102591Y-44305104D02*
X70102591Y-45105104D01*
X69721639Y-44305104D02*
X69721639Y-45105104D01*
X69721639Y-45105104D02*
X69531163Y-45105104D01*
X69531163Y-45105104D02*
X69416877Y-45067009D01*
X69416877Y-45067009D02*
X69340687Y-44990819D01*
X69340687Y-44990819D02*
X69302592Y-44914628D01*
X69302592Y-44914628D02*
X69264496Y-44762247D01*
X69264496Y-44762247D02*
X69264496Y-44647961D01*
X69264496Y-44647961D02*
X69302592Y-44495580D01*
X69302592Y-44495580D02*
X69340687Y-44419390D01*
X69340687Y-44419390D02*
X69416877Y-44343200D01*
X69416877Y-44343200D02*
X69531163Y-44305104D01*
X69531163Y-44305104D02*
X69721639Y-44305104D01*
X114386687Y-45061009D02*
X114462877Y-45099104D01*
X114462877Y-45099104D02*
X114577163Y-45099104D01*
X114577163Y-45099104D02*
X114691449Y-45061009D01*
X114691449Y-45061009D02*
X114767639Y-44984819D01*
X114767639Y-44984819D02*
X114805734Y-44908628D01*
X114805734Y-44908628D02*
X114843830Y-44756247D01*
X114843830Y-44756247D02*
X114843830Y-44641961D01*
X114843830Y-44641961D02*
X114805734Y-44489580D01*
X114805734Y-44489580D02*
X114767639Y-44413390D01*
X114767639Y-44413390D02*
X114691449Y-44337200D01*
X114691449Y-44337200D02*
X114577163Y-44299104D01*
X114577163Y-44299104D02*
X114500972Y-44299104D01*
X114500972Y-44299104D02*
X114386687Y-44337200D01*
X114386687Y-44337200D02*
X114348591Y-44375295D01*
X114348591Y-44375295D02*
X114348591Y-44641961D01*
X114348591Y-44641961D02*
X114500972Y-44641961D01*
X113853353Y-45099104D02*
X113777163Y-45099104D01*
X113777163Y-45099104D02*
X113700972Y-45061009D01*
X113700972Y-45061009D02*
X113662877Y-45022914D01*
X113662877Y-45022914D02*
X113624782Y-44946723D01*
X113624782Y-44946723D02*
X113586687Y-44794342D01*
X113586687Y-44794342D02*
X113586687Y-44603866D01*
X113586687Y-44603866D02*
X113624782Y-44451485D01*
X113624782Y-44451485D02*
X113662877Y-44375295D01*
X113662877Y-44375295D02*
X113700972Y-44337200D01*
X113700972Y-44337200D02*
X113777163Y-44299104D01*
X113777163Y-44299104D02*
X113853353Y-44299104D01*
X113853353Y-44299104D02*
X113929544Y-44337200D01*
X113929544Y-44337200D02*
X113967639Y-44375295D01*
X113967639Y-44375295D02*
X114005734Y-44451485D01*
X114005734Y-44451485D02*
X114043830Y-44603866D01*
X114043830Y-44603866D02*
X114043830Y-44794342D01*
X114043830Y-44794342D02*
X114005734Y-44946723D01*
X114005734Y-44946723D02*
X113967639Y-45022914D01*
X113967639Y-45022914D02*
X113929544Y-45061009D01*
X113929544Y-45061009D02*
X113853353Y-45099104D01*
X113281925Y-45022914D02*
X113243829Y-45061009D01*
X113243829Y-45061009D02*
X113167639Y-45099104D01*
X113167639Y-45099104D02*
X112977163Y-45099104D01*
X112977163Y-45099104D02*
X112900972Y-45061009D01*
X112900972Y-45061009D02*
X112862877Y-45022914D01*
X112862877Y-45022914D02*
X112824782Y-44946723D01*
X112824782Y-44946723D02*
X112824782Y-44870533D01*
X112824782Y-44870533D02*
X112862877Y-44756247D01*
X112862877Y-44756247D02*
X113320020Y-44299104D01*
X113320020Y-44299104D02*
X112824782Y-44299104D01*
X105831312Y-73302990D02*
X105755122Y-73264895D01*
X105755122Y-73264895D02*
X105640836Y-73264895D01*
X105640836Y-73264895D02*
X105526550Y-73302990D01*
X105526550Y-73302990D02*
X105450360Y-73379180D01*
X105450360Y-73379180D02*
X105412265Y-73455371D01*
X105412265Y-73455371D02*
X105374169Y-73607752D01*
X105374169Y-73607752D02*
X105374169Y-73722038D01*
X105374169Y-73722038D02*
X105412265Y-73874419D01*
X105412265Y-73874419D02*
X105450360Y-73950609D01*
X105450360Y-73950609D02*
X105526550Y-74026800D01*
X105526550Y-74026800D02*
X105640836Y-74064895D01*
X105640836Y-74064895D02*
X105717027Y-74064895D01*
X105717027Y-74064895D02*
X105831312Y-74026800D01*
X105831312Y-74026800D02*
X105869408Y-73988704D01*
X105869408Y-73988704D02*
X105869408Y-73722038D01*
X105869408Y-73722038D02*
X105717027Y-73722038D01*
X106631312Y-74064895D02*
X106174169Y-74064895D01*
X106402741Y-74064895D02*
X106402741Y-73264895D01*
X106402741Y-73264895D02*
X106326550Y-73379180D01*
X106326550Y-73379180D02*
X106250360Y-73455371D01*
X106250360Y-73455371D02*
X106174169Y-73493466D01*
X107126551Y-73264895D02*
X107202741Y-73264895D01*
X107202741Y-73264895D02*
X107278932Y-73302990D01*
X107278932Y-73302990D02*
X107317027Y-73341085D01*
X107317027Y-73341085D02*
X107355122Y-73417276D01*
X107355122Y-73417276D02*
X107393217Y-73569657D01*
X107393217Y-73569657D02*
X107393217Y-73760133D01*
X107393217Y-73760133D02*
X107355122Y-73912514D01*
X107355122Y-73912514D02*
X107317027Y-73988704D01*
X107317027Y-73988704D02*
X107278932Y-74026800D01*
X107278932Y-74026800D02*
X107202741Y-74064895D01*
X107202741Y-74064895D02*
X107126551Y-74064895D01*
X107126551Y-74064895D02*
X107050360Y-74026800D01*
X107050360Y-74026800D02*
X107012265Y-73988704D01*
X107012265Y-73988704D02*
X106974170Y-73912514D01*
X106974170Y-73912514D02*
X106936074Y-73760133D01*
X106936074Y-73760133D02*
X106936074Y-73569657D01*
X106936074Y-73569657D02*
X106974170Y-73417276D01*
X106974170Y-73417276D02*
X107012265Y-73341085D01*
X107012265Y-73341085D02*
X107050360Y-73302990D01*
X107050360Y-73302990D02*
X107126551Y-73264895D01*
X80405104Y-52465979D02*
X80405104Y-52923122D01*
X79605104Y-52694550D02*
X80405104Y-52694550D01*
X80405104Y-53113598D02*
X79605104Y-53646932D01*
X80405104Y-53646932D02*
X79605104Y-53113598D01*
X104226687Y-45061009D02*
X104302877Y-45099104D01*
X104302877Y-45099104D02*
X104417163Y-45099104D01*
X104417163Y-45099104D02*
X104531449Y-45061009D01*
X104531449Y-45061009D02*
X104607639Y-44984819D01*
X104607639Y-44984819D02*
X104645734Y-44908628D01*
X104645734Y-44908628D02*
X104683830Y-44756247D01*
X104683830Y-44756247D02*
X104683830Y-44641961D01*
X104683830Y-44641961D02*
X104645734Y-44489580D01*
X104645734Y-44489580D02*
X104607639Y-44413390D01*
X104607639Y-44413390D02*
X104531449Y-44337200D01*
X104531449Y-44337200D02*
X104417163Y-44299104D01*
X104417163Y-44299104D02*
X104340972Y-44299104D01*
X104340972Y-44299104D02*
X104226687Y-44337200D01*
X104226687Y-44337200D02*
X104188591Y-44375295D01*
X104188591Y-44375295D02*
X104188591Y-44641961D01*
X104188591Y-44641961D02*
X104340972Y-44641961D01*
X103693353Y-45099104D02*
X103617163Y-45099104D01*
X103617163Y-45099104D02*
X103540972Y-45061009D01*
X103540972Y-45061009D02*
X103502877Y-45022914D01*
X103502877Y-45022914D02*
X103464782Y-44946723D01*
X103464782Y-44946723D02*
X103426687Y-44794342D01*
X103426687Y-44794342D02*
X103426687Y-44603866D01*
X103426687Y-44603866D02*
X103464782Y-44451485D01*
X103464782Y-44451485D02*
X103502877Y-44375295D01*
X103502877Y-44375295D02*
X103540972Y-44337200D01*
X103540972Y-44337200D02*
X103617163Y-44299104D01*
X103617163Y-44299104D02*
X103693353Y-44299104D01*
X103693353Y-44299104D02*
X103769544Y-44337200D01*
X103769544Y-44337200D02*
X103807639Y-44375295D01*
X103807639Y-44375295D02*
X103845734Y-44451485D01*
X103845734Y-44451485D02*
X103883830Y-44603866D01*
X103883830Y-44603866D02*
X103883830Y-44794342D01*
X103883830Y-44794342D02*
X103845734Y-44946723D01*
X103845734Y-44946723D02*
X103807639Y-45022914D01*
X103807639Y-45022914D02*
X103769544Y-45061009D01*
X103769544Y-45061009D02*
X103693353Y-45099104D01*
X102740972Y-45099104D02*
X102893353Y-45099104D01*
X102893353Y-45099104D02*
X102969544Y-45061009D01*
X102969544Y-45061009D02*
X103007639Y-45022914D01*
X103007639Y-45022914D02*
X103083829Y-44908628D01*
X103083829Y-44908628D02*
X103121925Y-44756247D01*
X103121925Y-44756247D02*
X103121925Y-44451485D01*
X103121925Y-44451485D02*
X103083829Y-44375295D01*
X103083829Y-44375295D02*
X103045734Y-44337200D01*
X103045734Y-44337200D02*
X102969544Y-44299104D01*
X102969544Y-44299104D02*
X102817163Y-44299104D01*
X102817163Y-44299104D02*
X102740972Y-44337200D01*
X102740972Y-44337200D02*
X102702877Y-44375295D01*
X102702877Y-44375295D02*
X102664782Y-44451485D01*
X102664782Y-44451485D02*
X102664782Y-44641961D01*
X102664782Y-44641961D02*
X102702877Y-44718152D01*
X102702877Y-44718152D02*
X102740972Y-44756247D01*
X102740972Y-44756247D02*
X102817163Y-44794342D01*
X102817163Y-44794342D02*
X102969544Y-44794342D01*
X102969544Y-44794342D02*
X103045734Y-44756247D01*
X103045734Y-44756247D02*
X103083829Y-44718152D01*
X103083829Y-44718152D02*
X103121925Y-44641961D01*
X102796074Y-73264895D02*
X103291312Y-73264895D01*
X103291312Y-73264895D02*
X103024646Y-73569657D01*
X103024646Y-73569657D02*
X103138931Y-73569657D01*
X103138931Y-73569657D02*
X103215122Y-73607752D01*
X103215122Y-73607752D02*
X103253217Y-73645847D01*
X103253217Y-73645847D02*
X103291312Y-73722038D01*
X103291312Y-73722038D02*
X103291312Y-73912514D01*
X103291312Y-73912514D02*
X103253217Y-73988704D01*
X103253217Y-73988704D02*
X103215122Y-74026800D01*
X103215122Y-74026800D02*
X103138931Y-74064895D01*
X103138931Y-74064895D02*
X102910360Y-74064895D01*
X102910360Y-74064895D02*
X102834169Y-74026800D01*
X102834169Y-74026800D02*
X102796074Y-73988704D01*
X103519884Y-73264895D02*
X103786551Y-74064895D01*
X103786551Y-74064895D02*
X104053217Y-73264895D01*
X104243693Y-73264895D02*
X104738931Y-73264895D01*
X104738931Y-73264895D02*
X104472265Y-73569657D01*
X104472265Y-73569657D02*
X104586550Y-73569657D01*
X104586550Y-73569657D02*
X104662741Y-73607752D01*
X104662741Y-73607752D02*
X104700836Y-73645847D01*
X104700836Y-73645847D02*
X104738931Y-73722038D01*
X104738931Y-73722038D02*
X104738931Y-73912514D01*
X104738931Y-73912514D02*
X104700836Y-73988704D01*
X104700836Y-73988704D02*
X104662741Y-74026800D01*
X104662741Y-74026800D02*
X104586550Y-74064895D01*
X104586550Y-74064895D02*
X104357979Y-74064895D01*
X104357979Y-74064895D02*
X104281788Y-74026800D01*
X104281788Y-74026800D02*
X104243693Y-73988704D01*
X129360687Y-45067009D02*
X129436877Y-45105104D01*
X129436877Y-45105104D02*
X129551163Y-45105104D01*
X129551163Y-45105104D02*
X129665449Y-45067009D01*
X129665449Y-45067009D02*
X129741639Y-44990819D01*
X129741639Y-44990819D02*
X129779734Y-44914628D01*
X129779734Y-44914628D02*
X129817830Y-44762247D01*
X129817830Y-44762247D02*
X129817830Y-44647961D01*
X129817830Y-44647961D02*
X129779734Y-44495580D01*
X129779734Y-44495580D02*
X129741639Y-44419390D01*
X129741639Y-44419390D02*
X129665449Y-44343200D01*
X129665449Y-44343200D02*
X129551163Y-44305104D01*
X129551163Y-44305104D02*
X129474972Y-44305104D01*
X129474972Y-44305104D02*
X129360687Y-44343200D01*
X129360687Y-44343200D02*
X129322591Y-44381295D01*
X129322591Y-44381295D02*
X129322591Y-44647961D01*
X129322591Y-44647961D02*
X129474972Y-44647961D01*
X128979734Y-44305104D02*
X128979734Y-45105104D01*
X128979734Y-45105104D02*
X128522591Y-44305104D01*
X128522591Y-44305104D02*
X128522591Y-45105104D01*
X128141639Y-44305104D02*
X128141639Y-45105104D01*
X128141639Y-45105104D02*
X127951163Y-45105104D01*
X127951163Y-45105104D02*
X127836877Y-45067009D01*
X127836877Y-45067009D02*
X127760687Y-44990819D01*
X127760687Y-44990819D02*
X127722592Y-44914628D01*
X127722592Y-44914628D02*
X127684496Y-44762247D01*
X127684496Y-44762247D02*
X127684496Y-44647961D01*
X127684496Y-44647961D02*
X127722592Y-44495580D01*
X127722592Y-44495580D02*
X127760687Y-44419390D01*
X127760687Y-44419390D02*
X127836877Y-44343200D01*
X127836877Y-44343200D02*
X127951163Y-44305104D01*
X127951163Y-44305104D02*
X128141639Y-44305104D01*
X72837408Y-73816895D02*
X72570741Y-73435942D01*
X72380265Y-73816895D02*
X72380265Y-73016895D01*
X72380265Y-73016895D02*
X72685027Y-73016895D01*
X72685027Y-73016895D02*
X72761217Y-73054990D01*
X72761217Y-73054990D02*
X72799312Y-73093085D01*
X72799312Y-73093085D02*
X72837408Y-73169276D01*
X72837408Y-73169276D02*
X72837408Y-73283561D01*
X72837408Y-73283561D02*
X72799312Y-73359752D01*
X72799312Y-73359752D02*
X72761217Y-73397847D01*
X72761217Y-73397847D02*
X72685027Y-73435942D01*
X72685027Y-73435942D02*
X72380265Y-73435942D01*
X73104074Y-73016895D02*
X73637408Y-73816895D01*
X73637408Y-73016895D02*
X73104074Y-73816895D01*
X66317830Y-44343200D02*
X66203544Y-44305104D01*
X66203544Y-44305104D02*
X66013068Y-44305104D01*
X66013068Y-44305104D02*
X65936877Y-44343200D01*
X65936877Y-44343200D02*
X65898782Y-44381295D01*
X65898782Y-44381295D02*
X65860687Y-44457485D01*
X65860687Y-44457485D02*
X65860687Y-44533676D01*
X65860687Y-44533676D02*
X65898782Y-44609866D01*
X65898782Y-44609866D02*
X65936877Y-44647961D01*
X65936877Y-44647961D02*
X66013068Y-44686057D01*
X66013068Y-44686057D02*
X66165449Y-44724152D01*
X66165449Y-44724152D02*
X66241639Y-44762247D01*
X66241639Y-44762247D02*
X66279734Y-44800342D01*
X66279734Y-44800342D02*
X66317830Y-44876533D01*
X66317830Y-44876533D02*
X66317830Y-44952723D01*
X66317830Y-44952723D02*
X66279734Y-45028914D01*
X66279734Y-45028914D02*
X66241639Y-45067009D01*
X66241639Y-45067009D02*
X66165449Y-45105104D01*
X66165449Y-45105104D02*
X65974972Y-45105104D01*
X65974972Y-45105104D02*
X65860687Y-45067009D01*
X65251163Y-44724152D02*
X65136877Y-44686057D01*
X65136877Y-44686057D02*
X65098782Y-44647961D01*
X65098782Y-44647961D02*
X65060686Y-44571771D01*
X65060686Y-44571771D02*
X65060686Y-44457485D01*
X65060686Y-44457485D02*
X65098782Y-44381295D01*
X65098782Y-44381295D02*
X65136877Y-44343200D01*
X65136877Y-44343200D02*
X65213067Y-44305104D01*
X65213067Y-44305104D02*
X65517829Y-44305104D01*
X65517829Y-44305104D02*
X65517829Y-45105104D01*
X65517829Y-45105104D02*
X65251163Y-45105104D01*
X65251163Y-45105104D02*
X65174972Y-45067009D01*
X65174972Y-45067009D02*
X65136877Y-45028914D01*
X65136877Y-45028914D02*
X65098782Y-44952723D01*
X65098782Y-44952723D02*
X65098782Y-44876533D01*
X65098782Y-44876533D02*
X65136877Y-44800342D01*
X65136877Y-44800342D02*
X65174972Y-44762247D01*
X65174972Y-44762247D02*
X65251163Y-44724152D01*
X65251163Y-44724152D02*
X65517829Y-44724152D01*
X64832115Y-45105104D02*
X64374972Y-45105104D01*
X64603544Y-44305104D02*
X64603544Y-45105104D01*
X64722169Y-73778800D02*
X64836455Y-73816895D01*
X64836455Y-73816895D02*
X65026931Y-73816895D01*
X65026931Y-73816895D02*
X65103122Y-73778800D01*
X65103122Y-73778800D02*
X65141217Y-73740704D01*
X65141217Y-73740704D02*
X65179312Y-73664514D01*
X65179312Y-73664514D02*
X65179312Y-73588323D01*
X65179312Y-73588323D02*
X65141217Y-73512133D01*
X65141217Y-73512133D02*
X65103122Y-73474038D01*
X65103122Y-73474038D02*
X65026931Y-73435942D01*
X65026931Y-73435942D02*
X64874550Y-73397847D01*
X64874550Y-73397847D02*
X64798360Y-73359752D01*
X64798360Y-73359752D02*
X64760265Y-73321657D01*
X64760265Y-73321657D02*
X64722169Y-73245466D01*
X64722169Y-73245466D02*
X64722169Y-73169276D01*
X64722169Y-73169276D02*
X64760265Y-73093085D01*
X64760265Y-73093085D02*
X64798360Y-73054990D01*
X64798360Y-73054990D02*
X64874550Y-73016895D01*
X64874550Y-73016895D02*
X65065027Y-73016895D01*
X65065027Y-73016895D02*
X65179312Y-73054990D01*
X65522170Y-73816895D02*
X65522170Y-73016895D01*
X65522170Y-73016895D02*
X65712646Y-73016895D01*
X65712646Y-73016895D02*
X65826932Y-73054990D01*
X65826932Y-73054990D02*
X65903122Y-73131180D01*
X65903122Y-73131180D02*
X65941217Y-73207371D01*
X65941217Y-73207371D02*
X65979313Y-73359752D01*
X65979313Y-73359752D02*
X65979313Y-73474038D01*
X65979313Y-73474038D02*
X65941217Y-73626419D01*
X65941217Y-73626419D02*
X65903122Y-73702609D01*
X65903122Y-73702609D02*
X65826932Y-73778800D01*
X65826932Y-73778800D02*
X65712646Y-73816895D01*
X65712646Y-73816895D02*
X65522170Y-73816895D01*
X66284074Y-73588323D02*
X66665027Y-73588323D01*
X66207884Y-73816895D02*
X66474551Y-73016895D01*
X66474551Y-73016895D02*
X66741217Y-73816895D01*
X143957408Y-73994704D02*
X143919312Y-74032800D01*
X143919312Y-74032800D02*
X143805027Y-74070895D01*
X143805027Y-74070895D02*
X143728836Y-74070895D01*
X143728836Y-74070895D02*
X143614550Y-74032800D01*
X143614550Y-74032800D02*
X143538360Y-73956609D01*
X143538360Y-73956609D02*
X143500265Y-73880419D01*
X143500265Y-73880419D02*
X143462169Y-73728038D01*
X143462169Y-73728038D02*
X143462169Y-73613752D01*
X143462169Y-73613752D02*
X143500265Y-73461371D01*
X143500265Y-73461371D02*
X143538360Y-73385180D01*
X143538360Y-73385180D02*
X143614550Y-73308990D01*
X143614550Y-73308990D02*
X143728836Y-73270895D01*
X143728836Y-73270895D02*
X143805027Y-73270895D01*
X143805027Y-73270895D02*
X143919312Y-73308990D01*
X143919312Y-73308990D02*
X143957408Y-73347085D01*
X144224074Y-73270895D02*
X144719312Y-73270895D01*
X144719312Y-73270895D02*
X144452646Y-73575657D01*
X144452646Y-73575657D02*
X144566931Y-73575657D01*
X144566931Y-73575657D02*
X144643122Y-73613752D01*
X144643122Y-73613752D02*
X144681217Y-73651847D01*
X144681217Y-73651847D02*
X144719312Y-73728038D01*
X144719312Y-73728038D02*
X144719312Y-73918514D01*
X144719312Y-73918514D02*
X144681217Y-73994704D01*
X144681217Y-73994704D02*
X144643122Y-74032800D01*
X144643122Y-74032800D02*
X144566931Y-74070895D01*
X144566931Y-74070895D02*
X144338360Y-74070895D01*
X144338360Y-74070895D02*
X144262169Y-74032800D01*
X144262169Y-74032800D02*
X144224074Y-73994704D01*
X145443122Y-74070895D02*
X145062170Y-74070895D01*
X145062170Y-74070895D02*
X145062170Y-73270895D01*
X73899734Y-44724152D02*
X73633068Y-44724152D01*
X73518782Y-44305104D02*
X73899734Y-44305104D01*
X73899734Y-44305104D02*
X73899734Y-45105104D01*
X73899734Y-45105104D02*
X73518782Y-45105104D01*
X73252115Y-45105104D02*
X72718781Y-44305104D01*
X72718781Y-45105104D02*
X73252115Y-44305104D01*
X72414019Y-44305104D02*
X72414019Y-45105104D01*
X108371312Y-73302990D02*
X108295122Y-73264895D01*
X108295122Y-73264895D02*
X108180836Y-73264895D01*
X108180836Y-73264895D02*
X108066550Y-73302990D01*
X108066550Y-73302990D02*
X107990360Y-73379180D01*
X107990360Y-73379180D02*
X107952265Y-73455371D01*
X107952265Y-73455371D02*
X107914169Y-73607752D01*
X107914169Y-73607752D02*
X107914169Y-73722038D01*
X107914169Y-73722038D02*
X107952265Y-73874419D01*
X107952265Y-73874419D02*
X107990360Y-73950609D01*
X107990360Y-73950609D02*
X108066550Y-74026800D01*
X108066550Y-74026800D02*
X108180836Y-74064895D01*
X108180836Y-74064895D02*
X108257027Y-74064895D01*
X108257027Y-74064895D02*
X108371312Y-74026800D01*
X108371312Y-74026800D02*
X108409408Y-73988704D01*
X108409408Y-73988704D02*
X108409408Y-73722038D01*
X108409408Y-73722038D02*
X108257027Y-73722038D01*
X108904646Y-73264895D02*
X108980836Y-73264895D01*
X108980836Y-73264895D02*
X109057027Y-73302990D01*
X109057027Y-73302990D02*
X109095122Y-73341085D01*
X109095122Y-73341085D02*
X109133217Y-73417276D01*
X109133217Y-73417276D02*
X109171312Y-73569657D01*
X109171312Y-73569657D02*
X109171312Y-73760133D01*
X109171312Y-73760133D02*
X109133217Y-73912514D01*
X109133217Y-73912514D02*
X109095122Y-73988704D01*
X109095122Y-73988704D02*
X109057027Y-74026800D01*
X109057027Y-74026800D02*
X108980836Y-74064895D01*
X108980836Y-74064895D02*
X108904646Y-74064895D01*
X108904646Y-74064895D02*
X108828455Y-74026800D01*
X108828455Y-74026800D02*
X108790360Y-73988704D01*
X108790360Y-73988704D02*
X108752265Y-73912514D01*
X108752265Y-73912514D02*
X108714169Y-73760133D01*
X108714169Y-73760133D02*
X108714169Y-73569657D01*
X108714169Y-73569657D02*
X108752265Y-73417276D01*
X108752265Y-73417276D02*
X108790360Y-73341085D01*
X108790360Y-73341085D02*
X108828455Y-73302990D01*
X108828455Y-73302990D02*
X108904646Y-73264895D01*
X109628455Y-73607752D02*
X109552265Y-73569657D01*
X109552265Y-73569657D02*
X109514170Y-73531561D01*
X109514170Y-73531561D02*
X109476074Y-73455371D01*
X109476074Y-73455371D02*
X109476074Y-73417276D01*
X109476074Y-73417276D02*
X109514170Y-73341085D01*
X109514170Y-73341085D02*
X109552265Y-73302990D01*
X109552265Y-73302990D02*
X109628455Y-73264895D01*
X109628455Y-73264895D02*
X109780836Y-73264895D01*
X109780836Y-73264895D02*
X109857027Y-73302990D01*
X109857027Y-73302990D02*
X109895122Y-73341085D01*
X109895122Y-73341085D02*
X109933217Y-73417276D01*
X109933217Y-73417276D02*
X109933217Y-73455371D01*
X109933217Y-73455371D02*
X109895122Y-73531561D01*
X109895122Y-73531561D02*
X109857027Y-73569657D01*
X109857027Y-73569657D02*
X109780836Y-73607752D01*
X109780836Y-73607752D02*
X109628455Y-73607752D01*
X109628455Y-73607752D02*
X109552265Y-73645847D01*
X109552265Y-73645847D02*
X109514170Y-73683942D01*
X109514170Y-73683942D02*
X109476074Y-73760133D01*
X109476074Y-73760133D02*
X109476074Y-73912514D01*
X109476074Y-73912514D02*
X109514170Y-73988704D01*
X109514170Y-73988704D02*
X109552265Y-74026800D01*
X109552265Y-74026800D02*
X109628455Y-74064895D01*
X109628455Y-74064895D02*
X109780836Y-74064895D01*
X109780836Y-74064895D02*
X109857027Y-74026800D01*
X109857027Y-74026800D02*
X109895122Y-73988704D01*
X109895122Y-73988704D02*
X109933217Y-73912514D01*
X109933217Y-73912514D02*
X109933217Y-73760133D01*
X109933217Y-73760133D02*
X109895122Y-73683942D01*
X109895122Y-73683942D02*
X109857027Y-73645847D01*
X109857027Y-73645847D02*
X109780836Y-73607752D01*
X136337408Y-73994704D02*
X136299312Y-74032800D01*
X136299312Y-74032800D02*
X136185027Y-74070895D01*
X136185027Y-74070895D02*
X136108836Y-74070895D01*
X136108836Y-74070895D02*
X135994550Y-74032800D01*
X135994550Y-74032800D02*
X135918360Y-73956609D01*
X135918360Y-73956609D02*
X135880265Y-73880419D01*
X135880265Y-73880419D02*
X135842169Y-73728038D01*
X135842169Y-73728038D02*
X135842169Y-73613752D01*
X135842169Y-73613752D02*
X135880265Y-73461371D01*
X135880265Y-73461371D02*
X135918360Y-73385180D01*
X135918360Y-73385180D02*
X135994550Y-73308990D01*
X135994550Y-73308990D02*
X136108836Y-73270895D01*
X136108836Y-73270895D02*
X136185027Y-73270895D01*
X136185027Y-73270895D02*
X136299312Y-73308990D01*
X136299312Y-73308990D02*
X136337408Y-73347085D01*
X136604074Y-73270895D02*
X137099312Y-73270895D01*
X137099312Y-73270895D02*
X136832646Y-73575657D01*
X136832646Y-73575657D02*
X136946931Y-73575657D01*
X136946931Y-73575657D02*
X137023122Y-73613752D01*
X137023122Y-73613752D02*
X137061217Y-73651847D01*
X137061217Y-73651847D02*
X137099312Y-73728038D01*
X137099312Y-73728038D02*
X137099312Y-73918514D01*
X137099312Y-73918514D02*
X137061217Y-73994704D01*
X137061217Y-73994704D02*
X137023122Y-74032800D01*
X137023122Y-74032800D02*
X136946931Y-74070895D01*
X136946931Y-74070895D02*
X136718360Y-74070895D01*
X136718360Y-74070895D02*
X136642169Y-74032800D01*
X136642169Y-74032800D02*
X136604074Y-73994704D01*
X137442170Y-74070895D02*
X137442170Y-73270895D01*
X137442170Y-73651847D02*
X137899313Y-73651847D01*
X137899313Y-74070895D02*
X137899313Y-73270895D01*
X80024152Y-60200265D02*
X80024152Y-60466931D01*
X79605104Y-60581217D02*
X79605104Y-60200265D01*
X79605104Y-60200265D02*
X80405104Y-60200265D01*
X80405104Y-60200265D02*
X80405104Y-60581217D01*
X79605104Y-60924075D02*
X80405104Y-60924075D01*
X80405104Y-60924075D02*
X79605104Y-61381218D01*
X79605104Y-61381218D02*
X80405104Y-61381218D01*
X128679312Y-73308990D02*
X128603122Y-73270895D01*
X128603122Y-73270895D02*
X128488836Y-73270895D01*
X128488836Y-73270895D02*
X128374550Y-73308990D01*
X128374550Y-73308990D02*
X128298360Y-73385180D01*
X128298360Y-73385180D02*
X128260265Y-73461371D01*
X128260265Y-73461371D02*
X128222169Y-73613752D01*
X128222169Y-73613752D02*
X128222169Y-73728038D01*
X128222169Y-73728038D02*
X128260265Y-73880419D01*
X128260265Y-73880419D02*
X128298360Y-73956609D01*
X128298360Y-73956609D02*
X128374550Y-74032800D01*
X128374550Y-74032800D02*
X128488836Y-74070895D01*
X128488836Y-74070895D02*
X128565027Y-74070895D01*
X128565027Y-74070895D02*
X128679312Y-74032800D01*
X128679312Y-74032800D02*
X128717408Y-73994704D01*
X128717408Y-73994704D02*
X128717408Y-73728038D01*
X128717408Y-73728038D02*
X128565027Y-73728038D01*
X129060265Y-74070895D02*
X129060265Y-73270895D01*
X129060265Y-73270895D02*
X129517408Y-74070895D01*
X129517408Y-74070895D02*
X129517408Y-73270895D01*
X129898360Y-74070895D02*
X129898360Y-73270895D01*
X129898360Y-73270895D02*
X130088836Y-73270895D01*
X130088836Y-73270895D02*
X130203122Y-73308990D01*
X130203122Y-73308990D02*
X130279312Y-73385180D01*
X130279312Y-73385180D02*
X130317407Y-73461371D01*
X130317407Y-73461371D02*
X130355503Y-73613752D01*
X130355503Y-73613752D02*
X130355503Y-73728038D01*
X130355503Y-73728038D02*
X130317407Y-73880419D01*
X130317407Y-73880419D02*
X130279312Y-73956609D01*
X130279312Y-73956609D02*
X130203122Y-74032800D01*
X130203122Y-74032800D02*
X130088836Y-74070895D01*
X130088836Y-74070895D02*
X129898360Y-74070895D01*
X68934020Y-45105104D02*
X68476877Y-45105104D01*
X68705449Y-44305104D02*
X68705449Y-45105104D01*
X68210210Y-44305104D02*
X68210210Y-45105104D01*
X68210210Y-45105104D02*
X67905448Y-45105104D01*
X67905448Y-45105104D02*
X67829258Y-45067009D01*
X67829258Y-45067009D02*
X67791163Y-45028914D01*
X67791163Y-45028914D02*
X67753067Y-44952723D01*
X67753067Y-44952723D02*
X67753067Y-44838438D01*
X67753067Y-44838438D02*
X67791163Y-44762247D01*
X67791163Y-44762247D02*
X67829258Y-44724152D01*
X67829258Y-44724152D02*
X67905448Y-44686057D01*
X67905448Y-44686057D02*
X68210210Y-44686057D01*
X67448306Y-44343200D02*
X67334020Y-44305104D01*
X67334020Y-44305104D02*
X67143544Y-44305104D01*
X67143544Y-44305104D02*
X67067353Y-44343200D01*
X67067353Y-44343200D02*
X67029258Y-44381295D01*
X67029258Y-44381295D02*
X66991163Y-44457485D01*
X66991163Y-44457485D02*
X66991163Y-44533676D01*
X66991163Y-44533676D02*
X67029258Y-44609866D01*
X67029258Y-44609866D02*
X67067353Y-44647961D01*
X67067353Y-44647961D02*
X67143544Y-44686057D01*
X67143544Y-44686057D02*
X67295925Y-44724152D01*
X67295925Y-44724152D02*
X67372115Y-44762247D01*
X67372115Y-44762247D02*
X67410210Y-44800342D01*
X67410210Y-44800342D02*
X67448306Y-44876533D01*
X67448306Y-44876533D02*
X67448306Y-44952723D01*
X67448306Y-44952723D02*
X67410210Y-45028914D01*
X67410210Y-45028914D02*
X67372115Y-45067009D01*
X67372115Y-45067009D02*
X67295925Y-45105104D01*
X67295925Y-45105104D02*
X67105448Y-45105104D01*
X67105448Y-45105104D02*
X66991163Y-45067009D01*
D11*
X115040628Y-59658190D02*
X115516819Y-59658190D01*
X114516819Y-59991523D02*
X115040628Y-59658190D01*
X115040628Y-59658190D02*
X114516819Y-59324857D01*
X115516819Y-58467714D02*
X115516819Y-59039142D01*
X115516819Y-58753428D02*
X114516819Y-58753428D01*
X114516819Y-58753428D02*
X114659676Y-58848666D01*
X114659676Y-58848666D02*
X114754914Y-58943904D01*
X114754914Y-58943904D02*
X114802533Y-59039142D01*
X104610819Y-59943904D02*
X105420342Y-59943904D01*
X105420342Y-59943904D02*
X105515580Y-59896285D01*
X105515580Y-59896285D02*
X105563200Y-59848666D01*
X105563200Y-59848666D02*
X105610819Y-59753428D01*
X105610819Y-59753428D02*
X105610819Y-59562952D01*
X105610819Y-59562952D02*
X105563200Y-59467714D01*
X105563200Y-59467714D02*
X105515580Y-59420095D01*
X105515580Y-59420095D02*
X105420342Y-59372476D01*
X105420342Y-59372476D02*
X104610819Y-59372476D01*
X105610819Y-58372476D02*
X105610819Y-58943904D01*
X105610819Y-58658190D02*
X104610819Y-58658190D01*
X104610819Y-58658190D02*
X104753676Y-58753428D01*
X104753676Y-58753428D02*
X104848914Y-58848666D01*
X104848914Y-58848666D02*
X104896533Y-58943904D01*
X94382819Y-62602666D02*
X95192342Y-62602666D01*
X95192342Y-62602666D02*
X95287580Y-62555047D01*
X95287580Y-62555047D02*
X95335200Y-62507428D01*
X95335200Y-62507428D02*
X95382819Y-62412190D01*
X95382819Y-62412190D02*
X95382819Y-62221714D01*
X95382819Y-62221714D02*
X95335200Y-62126476D01*
X95335200Y-62126476D02*
X95287580Y-62078857D01*
X95287580Y-62078857D02*
X95192342Y-62031238D01*
X95192342Y-62031238D02*
X94382819Y-62031238D01*
X95335200Y-61602666D02*
X95382819Y-61459809D01*
X95382819Y-61459809D02*
X95382819Y-61221714D01*
X95382819Y-61221714D02*
X95335200Y-61126476D01*
X95335200Y-61126476D02*
X95287580Y-61078857D01*
X95287580Y-61078857D02*
X95192342Y-61031238D01*
X95192342Y-61031238D02*
X95097104Y-61031238D01*
X95097104Y-61031238D02*
X95001866Y-61078857D01*
X95001866Y-61078857D02*
X94954247Y-61126476D01*
X94954247Y-61126476D02*
X94906628Y-61221714D01*
X94906628Y-61221714D02*
X94859009Y-61412190D01*
X94859009Y-61412190D02*
X94811390Y-61507428D01*
X94811390Y-61507428D02*
X94763771Y-61555047D01*
X94763771Y-61555047D02*
X94668533Y-61602666D01*
X94668533Y-61602666D02*
X94573295Y-61602666D01*
X94573295Y-61602666D02*
X94478057Y-61555047D01*
X94478057Y-61555047D02*
X94430438Y-61507428D01*
X94430438Y-61507428D02*
X94382819Y-61412190D01*
X94382819Y-61412190D02*
X94382819Y-61174095D01*
X94382819Y-61174095D02*
X94430438Y-61031238D01*
X95382819Y-60031238D02*
X94906628Y-60364571D01*
X95382819Y-60602666D02*
X94382819Y-60602666D01*
X94382819Y-60602666D02*
X94382819Y-60221714D01*
X94382819Y-60221714D02*
X94430438Y-60126476D01*
X94430438Y-60126476D02*
X94478057Y-60078857D01*
X94478057Y-60078857D02*
X94573295Y-60031238D01*
X94573295Y-60031238D02*
X94716152Y-60031238D01*
X94716152Y-60031238D02*
X94811390Y-60078857D01*
X94811390Y-60078857D02*
X94859009Y-60126476D01*
X94859009Y-60126476D02*
X94906628Y-60221714D01*
X94906628Y-60221714D02*
X94906628Y-60602666D01*
X95478057Y-59840762D02*
X95478057Y-59078857D01*
X95335200Y-58888380D02*
X95382819Y-58745523D01*
X95382819Y-58745523D02*
X95382819Y-58507428D01*
X95382819Y-58507428D02*
X95335200Y-58412190D01*
X95335200Y-58412190D02*
X95287580Y-58364571D01*
X95287580Y-58364571D02*
X95192342Y-58316952D01*
X95192342Y-58316952D02*
X95097104Y-58316952D01*
X95097104Y-58316952D02*
X95001866Y-58364571D01*
X95001866Y-58364571D02*
X94954247Y-58412190D01*
X94954247Y-58412190D02*
X94906628Y-58507428D01*
X94906628Y-58507428D02*
X94859009Y-58697904D01*
X94859009Y-58697904D02*
X94811390Y-58793142D01*
X94811390Y-58793142D02*
X94763771Y-58840761D01*
X94763771Y-58840761D02*
X94668533Y-58888380D01*
X94668533Y-58888380D02*
X94573295Y-58888380D01*
X94573295Y-58888380D02*
X94478057Y-58840761D01*
X94478057Y-58840761D02*
X94430438Y-58793142D01*
X94430438Y-58793142D02*
X94382819Y-58697904D01*
X94382819Y-58697904D02*
X94382819Y-58459809D01*
X94382819Y-58459809D02*
X94430438Y-58316952D01*
X94382819Y-57983618D02*
X95382819Y-57745523D01*
X95382819Y-57745523D02*
X94668533Y-57555047D01*
X94668533Y-57555047D02*
X95382819Y-57364571D01*
X95382819Y-57364571D02*
X94382819Y-57126476D01*
X95382819Y-56221714D02*
X95382819Y-56793142D01*
X95382819Y-56507428D02*
X94382819Y-56507428D01*
X94382819Y-56507428D02*
X94525676Y-56602666D01*
X94525676Y-56602666D02*
X94620914Y-56697904D01*
X94620914Y-56697904D02*
X94668533Y-56793142D01*
X49903095Y-48282557D02*
X49903095Y-49011128D01*
X49903095Y-49011128D02*
X49950714Y-49096842D01*
X49950714Y-49096842D02*
X49998333Y-49139700D01*
X49998333Y-49139700D02*
X50093571Y-49182557D01*
X50093571Y-49182557D02*
X50284047Y-49182557D01*
X50284047Y-49182557D02*
X50379285Y-49139700D01*
X50379285Y-49139700D02*
X50426904Y-49096842D01*
X50426904Y-49096842D02*
X50474523Y-49011128D01*
X50474523Y-49011128D02*
X50474523Y-48282557D01*
X51379285Y-48582557D02*
X51379285Y-49182557D01*
X51141190Y-48239700D02*
X50903095Y-48882557D01*
X50903095Y-48882557D02*
X51522142Y-48882557D01*
X81496819Y-70945333D02*
X82211104Y-70945333D01*
X82211104Y-70945333D02*
X82353961Y-70992952D01*
X82353961Y-70992952D02*
X82449200Y-71088190D01*
X82449200Y-71088190D02*
X82496819Y-71231047D01*
X82496819Y-71231047D02*
X82496819Y-71326285D01*
X82496819Y-70421523D02*
X82496819Y-70231047D01*
X82496819Y-70231047D02*
X82449200Y-70135809D01*
X82449200Y-70135809D02*
X82401580Y-70088190D01*
X82401580Y-70088190D02*
X82258723Y-69992952D01*
X82258723Y-69992952D02*
X82068247Y-69945333D01*
X82068247Y-69945333D02*
X81687295Y-69945333D01*
X81687295Y-69945333D02*
X81592057Y-69992952D01*
X81592057Y-69992952D02*
X81544438Y-70040571D01*
X81544438Y-70040571D02*
X81496819Y-70135809D01*
X81496819Y-70135809D02*
X81496819Y-70326285D01*
X81496819Y-70326285D02*
X81544438Y-70421523D01*
X81544438Y-70421523D02*
X81592057Y-70469142D01*
X81592057Y-70469142D02*
X81687295Y-70516761D01*
X81687295Y-70516761D02*
X81925390Y-70516761D01*
X81925390Y-70516761D02*
X82020628Y-70469142D01*
X82020628Y-70469142D02*
X82068247Y-70421523D01*
X82068247Y-70421523D02*
X82115866Y-70326285D01*
X82115866Y-70326285D02*
X82115866Y-70135809D01*
X82115866Y-70135809D02*
X82068247Y-70040571D01*
X82068247Y-70040571D02*
X82020628Y-69992952D01*
X82020628Y-69992952D02*
X81925390Y-69945333D01*
X59198819Y-72969333D02*
X59913104Y-72969333D01*
X59913104Y-72969333D02*
X60055961Y-73016952D01*
X60055961Y-73016952D02*
X60151200Y-73112190D01*
X60151200Y-73112190D02*
X60198819Y-73255047D01*
X60198819Y-73255047D02*
X60198819Y-73350285D01*
X60198819Y-72493142D02*
X59198819Y-72493142D01*
X59198819Y-72493142D02*
X59198819Y-72112190D01*
X59198819Y-72112190D02*
X59246438Y-72016952D01*
X59246438Y-72016952D02*
X59294057Y-71969333D01*
X59294057Y-71969333D02*
X59389295Y-71921714D01*
X59389295Y-71921714D02*
X59532152Y-71921714D01*
X59532152Y-71921714D02*
X59627390Y-71969333D01*
X59627390Y-71969333D02*
X59675009Y-72016952D01*
X59675009Y-72016952D02*
X59722628Y-72112190D01*
X59722628Y-72112190D02*
X59722628Y-72493142D01*
X60198819Y-70969333D02*
X60198819Y-71540761D01*
X60198819Y-71255047D02*
X59198819Y-71255047D01*
X59198819Y-71255047D02*
X59341676Y-71350285D01*
X59341676Y-71350285D02*
X59436914Y-71445523D01*
X59436914Y-71445523D02*
X59484533Y-71540761D01*
X145109333Y-52022819D02*
X144776000Y-51546628D01*
X144537905Y-52022819D02*
X144537905Y-51022819D01*
X144537905Y-51022819D02*
X144918857Y-51022819D01*
X144918857Y-51022819D02*
X145014095Y-51070438D01*
X145014095Y-51070438D02*
X145061714Y-51118057D01*
X145061714Y-51118057D02*
X145109333Y-51213295D01*
X145109333Y-51213295D02*
X145109333Y-51356152D01*
X145109333Y-51356152D02*
X145061714Y-51451390D01*
X145061714Y-51451390D02*
X145014095Y-51499009D01*
X145014095Y-51499009D02*
X144918857Y-51546628D01*
X144918857Y-51546628D02*
X144537905Y-51546628D01*
X146061714Y-52022819D02*
X145490286Y-52022819D01*
X145776000Y-52022819D02*
X145776000Y-51022819D01*
X145776000Y-51022819D02*
X145680762Y-51165676D01*
X145680762Y-51165676D02*
X145585524Y-51260914D01*
X145585524Y-51260914D02*
X145490286Y-51308533D01*
X52431142Y-55991580D02*
X52383523Y-56039200D01*
X52383523Y-56039200D02*
X52240666Y-56086819D01*
X52240666Y-56086819D02*
X52145428Y-56086819D01*
X52145428Y-56086819D02*
X52002571Y-56039200D01*
X52002571Y-56039200D02*
X51907333Y-55943961D01*
X51907333Y-55943961D02*
X51859714Y-55848723D01*
X51859714Y-55848723D02*
X51812095Y-55658247D01*
X51812095Y-55658247D02*
X51812095Y-55515390D01*
X51812095Y-55515390D02*
X51859714Y-55324914D01*
X51859714Y-55324914D02*
X51907333Y-55229676D01*
X51907333Y-55229676D02*
X52002571Y-55134438D01*
X52002571Y-55134438D02*
X52145428Y-55086819D01*
X52145428Y-55086819D02*
X52240666Y-55086819D01*
X52240666Y-55086819D02*
X52383523Y-55134438D01*
X52383523Y-55134438D02*
X52431142Y-55182057D01*
X53383523Y-56086819D02*
X52812095Y-56086819D01*
X53097809Y-56086819D02*
X53097809Y-55086819D01*
X53097809Y-55086819D02*
X53002571Y-55229676D01*
X53002571Y-55229676D02*
X52907333Y-55324914D01*
X52907333Y-55324914D02*
X52812095Y-55372533D01*
X54288285Y-55086819D02*
X53812095Y-55086819D01*
X53812095Y-55086819D02*
X53764476Y-55563009D01*
X53764476Y-55563009D02*
X53812095Y-55515390D01*
X53812095Y-55515390D02*
X53907333Y-55467771D01*
X53907333Y-55467771D02*
X54145428Y-55467771D01*
X54145428Y-55467771D02*
X54240666Y-55515390D01*
X54240666Y-55515390D02*
X54288285Y-55563009D01*
X54288285Y-55563009D02*
X54335904Y-55658247D01*
X54335904Y-55658247D02*
X54335904Y-55896342D01*
X54335904Y-55896342D02*
X54288285Y-55991580D01*
X54288285Y-55991580D02*
X54240666Y-56039200D01*
X54240666Y-56039200D02*
X54145428Y-56086819D01*
X54145428Y-56086819D02*
X53907333Y-56086819D01*
X53907333Y-56086819D02*
X53812095Y-56039200D01*
X53812095Y-56039200D02*
X53764476Y-55991580D01*
X83512819Y-46648666D02*
X83036628Y-46981999D01*
X83512819Y-47220094D02*
X82512819Y-47220094D01*
X82512819Y-47220094D02*
X82512819Y-46839142D01*
X82512819Y-46839142D02*
X82560438Y-46743904D01*
X82560438Y-46743904D02*
X82608057Y-46696285D01*
X82608057Y-46696285D02*
X82703295Y-46648666D01*
X82703295Y-46648666D02*
X82846152Y-46648666D01*
X82846152Y-46648666D02*
X82941390Y-46696285D01*
X82941390Y-46696285D02*
X82989009Y-46743904D01*
X82989009Y-46743904D02*
X83036628Y-46839142D01*
X83036628Y-46839142D02*
X83036628Y-47220094D01*
X82846152Y-45791523D02*
X83512819Y-45791523D01*
X82465200Y-46029618D02*
X83179485Y-46267713D01*
X83179485Y-46267713D02*
X83179485Y-45648666D01*
X98131333Y-70209580D02*
X98083714Y-70257200D01*
X98083714Y-70257200D02*
X97940857Y-70304819D01*
X97940857Y-70304819D02*
X97845619Y-70304819D01*
X97845619Y-70304819D02*
X97702762Y-70257200D01*
X97702762Y-70257200D02*
X97607524Y-70161961D01*
X97607524Y-70161961D02*
X97559905Y-70066723D01*
X97559905Y-70066723D02*
X97512286Y-69876247D01*
X97512286Y-69876247D02*
X97512286Y-69733390D01*
X97512286Y-69733390D02*
X97559905Y-69542914D01*
X97559905Y-69542914D02*
X97607524Y-69447676D01*
X97607524Y-69447676D02*
X97702762Y-69352438D01*
X97702762Y-69352438D02*
X97845619Y-69304819D01*
X97845619Y-69304819D02*
X97940857Y-69304819D01*
X97940857Y-69304819D02*
X98083714Y-69352438D01*
X98083714Y-69352438D02*
X98131333Y-69400057D01*
X98988476Y-69304819D02*
X98798000Y-69304819D01*
X98798000Y-69304819D02*
X98702762Y-69352438D01*
X98702762Y-69352438D02*
X98655143Y-69400057D01*
X98655143Y-69400057D02*
X98559905Y-69542914D01*
X98559905Y-69542914D02*
X98512286Y-69733390D01*
X98512286Y-69733390D02*
X98512286Y-70114342D01*
X98512286Y-70114342D02*
X98559905Y-70209580D01*
X98559905Y-70209580D02*
X98607524Y-70257200D01*
X98607524Y-70257200D02*
X98702762Y-70304819D01*
X98702762Y-70304819D02*
X98893238Y-70304819D01*
X98893238Y-70304819D02*
X98988476Y-70257200D01*
X98988476Y-70257200D02*
X99036095Y-70209580D01*
X99036095Y-70209580D02*
X99083714Y-70114342D01*
X99083714Y-70114342D02*
X99083714Y-69876247D01*
X99083714Y-69876247D02*
X99036095Y-69781009D01*
X99036095Y-69781009D02*
X98988476Y-69733390D01*
X98988476Y-69733390D02*
X98893238Y-69685771D01*
X98893238Y-69685771D02*
X98702762Y-69685771D01*
X98702762Y-69685771D02*
X98607524Y-69733390D01*
X98607524Y-69733390D02*
X98559905Y-69781009D01*
X98559905Y-69781009D02*
X98512286Y-69876247D01*
X132935580Y-67311312D02*
X132983200Y-67358931D01*
X132983200Y-67358931D02*
X133030819Y-67501788D01*
X133030819Y-67501788D02*
X133030819Y-67597026D01*
X133030819Y-67597026D02*
X132983200Y-67739883D01*
X132983200Y-67739883D02*
X132887961Y-67835121D01*
X132887961Y-67835121D02*
X132792723Y-67882740D01*
X132792723Y-67882740D02*
X132602247Y-67930359D01*
X132602247Y-67930359D02*
X132459390Y-67930359D01*
X132459390Y-67930359D02*
X132268914Y-67882740D01*
X132268914Y-67882740D02*
X132173676Y-67835121D01*
X132173676Y-67835121D02*
X132078438Y-67739883D01*
X132078438Y-67739883D02*
X132030819Y-67597026D01*
X132030819Y-67597026D02*
X132030819Y-67501788D01*
X132030819Y-67501788D02*
X132078438Y-67358931D01*
X132078438Y-67358931D02*
X132126057Y-67311312D01*
X133030819Y-66358931D02*
X133030819Y-66930359D01*
X133030819Y-66644645D02*
X132030819Y-66644645D01*
X132030819Y-66644645D02*
X132173676Y-66739883D01*
X132173676Y-66739883D02*
X132268914Y-66835121D01*
X132268914Y-66835121D02*
X132316533Y-66930359D01*
X132030819Y-65739883D02*
X132030819Y-65644645D01*
X132030819Y-65644645D02*
X132078438Y-65549407D01*
X132078438Y-65549407D02*
X132126057Y-65501788D01*
X132126057Y-65501788D02*
X132221295Y-65454169D01*
X132221295Y-65454169D02*
X132411771Y-65406550D01*
X132411771Y-65406550D02*
X132649866Y-65406550D01*
X132649866Y-65406550D02*
X132840342Y-65454169D01*
X132840342Y-65454169D02*
X132935580Y-65501788D01*
X132935580Y-65501788D02*
X132983200Y-65549407D01*
X132983200Y-65549407D02*
X133030819Y-65644645D01*
X133030819Y-65644645D02*
X133030819Y-65739883D01*
X133030819Y-65739883D02*
X132983200Y-65835121D01*
X132983200Y-65835121D02*
X132935580Y-65882740D01*
X132935580Y-65882740D02*
X132840342Y-65930359D01*
X132840342Y-65930359D02*
X132649866Y-65977978D01*
X132649866Y-65977978D02*
X132411771Y-65977978D01*
X132411771Y-65977978D02*
X132221295Y-65930359D01*
X132221295Y-65930359D02*
X132126057Y-65882740D01*
X132126057Y-65882740D02*
X132078438Y-65835121D01*
X132078438Y-65835121D02*
X132030819Y-65739883D01*
X59193819Y-61539333D02*
X59908104Y-61539333D01*
X59908104Y-61539333D02*
X60050961Y-61586952D01*
X60050961Y-61586952D02*
X60146200Y-61682190D01*
X60146200Y-61682190D02*
X60193819Y-61825047D01*
X60193819Y-61825047D02*
X60193819Y-61920285D01*
X60193819Y-61063142D02*
X59193819Y-61063142D01*
X59193819Y-61063142D02*
X59193819Y-60682190D01*
X59193819Y-60682190D02*
X59241438Y-60586952D01*
X59241438Y-60586952D02*
X59289057Y-60539333D01*
X59289057Y-60539333D02*
X59384295Y-60491714D01*
X59384295Y-60491714D02*
X59527152Y-60491714D01*
X59527152Y-60491714D02*
X59622390Y-60539333D01*
X59622390Y-60539333D02*
X59670009Y-60586952D01*
X59670009Y-60586952D02*
X59717628Y-60682190D01*
X59717628Y-60682190D02*
X59717628Y-61063142D01*
X59527152Y-59634571D02*
X60193819Y-59634571D01*
X59146200Y-59872666D02*
X59860485Y-60110761D01*
X59860485Y-60110761D02*
X59860485Y-59491714D01*
X67803142Y-69160580D02*
X67755523Y-69208200D01*
X67755523Y-69208200D02*
X67612666Y-69255819D01*
X67612666Y-69255819D02*
X67517428Y-69255819D01*
X67517428Y-69255819D02*
X67374571Y-69208200D01*
X67374571Y-69208200D02*
X67279333Y-69112961D01*
X67279333Y-69112961D02*
X67231714Y-69017723D01*
X67231714Y-69017723D02*
X67184095Y-68827247D01*
X67184095Y-68827247D02*
X67184095Y-68684390D01*
X67184095Y-68684390D02*
X67231714Y-68493914D01*
X67231714Y-68493914D02*
X67279333Y-68398676D01*
X67279333Y-68398676D02*
X67374571Y-68303438D01*
X67374571Y-68303438D02*
X67517428Y-68255819D01*
X67517428Y-68255819D02*
X67612666Y-68255819D01*
X67612666Y-68255819D02*
X67755523Y-68303438D01*
X67755523Y-68303438D02*
X67803142Y-68351057D01*
X68755523Y-69255819D02*
X68184095Y-69255819D01*
X68469809Y-69255819D02*
X68469809Y-68255819D01*
X68469809Y-68255819D02*
X68374571Y-68398676D01*
X68374571Y-68398676D02*
X68279333Y-68493914D01*
X68279333Y-68493914D02*
X68184095Y-68541533D01*
X69707904Y-69255819D02*
X69136476Y-69255819D01*
X69422190Y-69255819D02*
X69422190Y-68255819D01*
X69422190Y-68255819D02*
X69326952Y-68398676D01*
X69326952Y-68398676D02*
X69231714Y-68493914D01*
X69231714Y-68493914D02*
X69136476Y-68541533D01*
X85798819Y-70778666D02*
X85322628Y-71111999D01*
X85798819Y-71350094D02*
X84798819Y-71350094D01*
X84798819Y-71350094D02*
X84798819Y-70969142D01*
X84798819Y-70969142D02*
X84846438Y-70873904D01*
X84846438Y-70873904D02*
X84894057Y-70826285D01*
X84894057Y-70826285D02*
X84989295Y-70778666D01*
X84989295Y-70778666D02*
X85132152Y-70778666D01*
X85132152Y-70778666D02*
X85227390Y-70826285D01*
X85227390Y-70826285D02*
X85275009Y-70873904D01*
X85275009Y-70873904D02*
X85322628Y-70969142D01*
X85322628Y-70969142D02*
X85322628Y-71350094D01*
X84798819Y-70445332D02*
X84798819Y-69826285D01*
X84798819Y-69826285D02*
X85179771Y-70159618D01*
X85179771Y-70159618D02*
X85179771Y-70016761D01*
X85179771Y-70016761D02*
X85227390Y-69921523D01*
X85227390Y-69921523D02*
X85275009Y-69873904D01*
X85275009Y-69873904D02*
X85370247Y-69826285D01*
X85370247Y-69826285D02*
X85608342Y-69826285D01*
X85608342Y-69826285D02*
X85703580Y-69873904D01*
X85703580Y-69873904D02*
X85751200Y-69921523D01*
X85751200Y-69921523D02*
X85798819Y-70016761D01*
X85798819Y-70016761D02*
X85798819Y-70302475D01*
X85798819Y-70302475D02*
X85751200Y-70397713D01*
X85751200Y-70397713D02*
X85703580Y-70445332D01*
X116646580Y-49188666D02*
X116694200Y-49236285D01*
X116694200Y-49236285D02*
X116741819Y-49379142D01*
X116741819Y-49379142D02*
X116741819Y-49474380D01*
X116741819Y-49474380D02*
X116694200Y-49617237D01*
X116694200Y-49617237D02*
X116598961Y-49712475D01*
X116598961Y-49712475D02*
X116503723Y-49760094D01*
X116503723Y-49760094D02*
X116313247Y-49807713D01*
X116313247Y-49807713D02*
X116170390Y-49807713D01*
X116170390Y-49807713D02*
X115979914Y-49760094D01*
X115979914Y-49760094D02*
X115884676Y-49712475D01*
X115884676Y-49712475D02*
X115789438Y-49617237D01*
X115789438Y-49617237D02*
X115741819Y-49474380D01*
X115741819Y-49474380D02*
X115741819Y-49379142D01*
X115741819Y-49379142D02*
X115789438Y-49236285D01*
X115789438Y-49236285D02*
X115837057Y-49188666D01*
X115741819Y-48283904D02*
X115741819Y-48760094D01*
X115741819Y-48760094D02*
X116218009Y-48807713D01*
X116218009Y-48807713D02*
X116170390Y-48760094D01*
X116170390Y-48760094D02*
X116122771Y-48664856D01*
X116122771Y-48664856D02*
X116122771Y-48426761D01*
X116122771Y-48426761D02*
X116170390Y-48331523D01*
X116170390Y-48331523D02*
X116218009Y-48283904D01*
X116218009Y-48283904D02*
X116313247Y-48236285D01*
X116313247Y-48236285D02*
X116551342Y-48236285D01*
X116551342Y-48236285D02*
X116646580Y-48283904D01*
X116646580Y-48283904D02*
X116694200Y-48331523D01*
X116694200Y-48331523D02*
X116741819Y-48426761D01*
X116741819Y-48426761D02*
X116741819Y-48664856D01*
X116741819Y-48664856D02*
X116694200Y-48760094D01*
X116694200Y-48760094D02*
X116646580Y-48807713D01*
X46807142Y-58023580D02*
X46759523Y-58071200D01*
X46759523Y-58071200D02*
X46616666Y-58118819D01*
X46616666Y-58118819D02*
X46521428Y-58118819D01*
X46521428Y-58118819D02*
X46378571Y-58071200D01*
X46378571Y-58071200D02*
X46283333Y-57975961D01*
X46283333Y-57975961D02*
X46235714Y-57880723D01*
X46235714Y-57880723D02*
X46188095Y-57690247D01*
X46188095Y-57690247D02*
X46188095Y-57547390D01*
X46188095Y-57547390D02*
X46235714Y-57356914D01*
X46235714Y-57356914D02*
X46283333Y-57261676D01*
X46283333Y-57261676D02*
X46378571Y-57166438D01*
X46378571Y-57166438D02*
X46521428Y-57118819D01*
X46521428Y-57118819D02*
X46616666Y-57118819D01*
X46616666Y-57118819D02*
X46759523Y-57166438D01*
X46759523Y-57166438D02*
X46807142Y-57214057D01*
X47759523Y-58118819D02*
X47188095Y-58118819D01*
X47473809Y-58118819D02*
X47473809Y-57118819D01*
X47473809Y-57118819D02*
X47378571Y-57261676D01*
X47378571Y-57261676D02*
X47283333Y-57356914D01*
X47283333Y-57356914D02*
X47188095Y-57404533D01*
X48092857Y-57118819D02*
X48711904Y-57118819D01*
X48711904Y-57118819D02*
X48378571Y-57499771D01*
X48378571Y-57499771D02*
X48521428Y-57499771D01*
X48521428Y-57499771D02*
X48616666Y-57547390D01*
X48616666Y-57547390D02*
X48664285Y-57595009D01*
X48664285Y-57595009D02*
X48711904Y-57690247D01*
X48711904Y-57690247D02*
X48711904Y-57928342D01*
X48711904Y-57928342D02*
X48664285Y-58023580D01*
X48664285Y-58023580D02*
X48616666Y-58071200D01*
X48616666Y-58071200D02*
X48521428Y-58118819D01*
X48521428Y-58118819D02*
X48235714Y-58118819D01*
X48235714Y-58118819D02*
X48140476Y-58071200D01*
X48140476Y-58071200D02*
X48092857Y-58023580D01*
X129176171Y-49095605D02*
X129512889Y-49432323D01*
X128570080Y-48960918D02*
X129176171Y-49095605D01*
X129176171Y-49095605D02*
X129041484Y-48489514D01*
X129310858Y-48354827D02*
X129310858Y-48287483D01*
X129310858Y-48287483D02*
X129344530Y-48186468D01*
X129344530Y-48186468D02*
X129512889Y-48018109D01*
X129512889Y-48018109D02*
X129613904Y-47984437D01*
X129613904Y-47984437D02*
X129681247Y-47984437D01*
X129681247Y-47984437D02*
X129782263Y-48018109D01*
X129782263Y-48018109D02*
X129849606Y-48085453D01*
X129849606Y-48085453D02*
X129916950Y-48220140D01*
X129916950Y-48220140D02*
X129916950Y-49028262D01*
X129916950Y-49028262D02*
X130354682Y-48590529D01*
X139056980Y-61894666D02*
X139104600Y-61942285D01*
X139104600Y-61942285D02*
X139152219Y-62085142D01*
X139152219Y-62085142D02*
X139152219Y-62180380D01*
X139152219Y-62180380D02*
X139104600Y-62323237D01*
X139104600Y-62323237D02*
X139009361Y-62418475D01*
X139009361Y-62418475D02*
X138914123Y-62466094D01*
X138914123Y-62466094D02*
X138723647Y-62513713D01*
X138723647Y-62513713D02*
X138580790Y-62513713D01*
X138580790Y-62513713D02*
X138390314Y-62466094D01*
X138390314Y-62466094D02*
X138295076Y-62418475D01*
X138295076Y-62418475D02*
X138199838Y-62323237D01*
X138199838Y-62323237D02*
X138152219Y-62180380D01*
X138152219Y-62180380D02*
X138152219Y-62085142D01*
X138152219Y-62085142D02*
X138199838Y-61942285D01*
X138199838Y-61942285D02*
X138247457Y-61894666D01*
X138247457Y-61513713D02*
X138199838Y-61466094D01*
X138199838Y-61466094D02*
X138152219Y-61370856D01*
X138152219Y-61370856D02*
X138152219Y-61132761D01*
X138152219Y-61132761D02*
X138199838Y-61037523D01*
X138199838Y-61037523D02*
X138247457Y-60989904D01*
X138247457Y-60989904D02*
X138342695Y-60942285D01*
X138342695Y-60942285D02*
X138437933Y-60942285D01*
X138437933Y-60942285D02*
X138580790Y-60989904D01*
X138580790Y-60989904D02*
X139152219Y-61561332D01*
X139152219Y-61561332D02*
X139152219Y-60942285D01*
X88431714Y-69104438D02*
X88336476Y-69056819D01*
X88336476Y-69056819D02*
X88193619Y-69056819D01*
X88193619Y-69056819D02*
X88050762Y-69104438D01*
X88050762Y-69104438D02*
X87955524Y-69199676D01*
X87955524Y-69199676D02*
X87907905Y-69294914D01*
X87907905Y-69294914D02*
X87860286Y-69485390D01*
X87860286Y-69485390D02*
X87860286Y-69628247D01*
X87860286Y-69628247D02*
X87907905Y-69818723D01*
X87907905Y-69818723D02*
X87955524Y-69913961D01*
X87955524Y-69913961D02*
X88050762Y-70009200D01*
X88050762Y-70009200D02*
X88193619Y-70056819D01*
X88193619Y-70056819D02*
X88288857Y-70056819D01*
X88288857Y-70056819D02*
X88431714Y-70009200D01*
X88431714Y-70009200D02*
X88479333Y-69961580D01*
X88479333Y-69961580D02*
X88479333Y-69628247D01*
X88479333Y-69628247D02*
X88288857Y-69628247D01*
X89431714Y-70056819D02*
X88860286Y-70056819D01*
X89146000Y-70056819D02*
X89146000Y-69056819D01*
X89146000Y-69056819D02*
X89050762Y-69199676D01*
X89050762Y-69199676D02*
X88955524Y-69294914D01*
X88955524Y-69294914D02*
X88860286Y-69342533D01*
X60148819Y-59949904D02*
X60958342Y-59949904D01*
X60958342Y-59949904D02*
X61053580Y-59902285D01*
X61053580Y-59902285D02*
X61101200Y-59854666D01*
X61101200Y-59854666D02*
X61148819Y-59759428D01*
X61148819Y-59759428D02*
X61148819Y-59568952D01*
X61148819Y-59568952D02*
X61101200Y-59473714D01*
X61101200Y-59473714D02*
X61053580Y-59426095D01*
X61053580Y-59426095D02*
X60958342Y-59378476D01*
X60958342Y-59378476D02*
X60148819Y-59378476D01*
X60148819Y-58997523D02*
X60148819Y-58378476D01*
X60148819Y-58378476D02*
X60529771Y-58711809D01*
X60529771Y-58711809D02*
X60529771Y-58568952D01*
X60529771Y-58568952D02*
X60577390Y-58473714D01*
X60577390Y-58473714D02*
X60625009Y-58426095D01*
X60625009Y-58426095D02*
X60720247Y-58378476D01*
X60720247Y-58378476D02*
X60958342Y-58378476D01*
X60958342Y-58378476D02*
X61053580Y-58426095D01*
X61053580Y-58426095D02*
X61101200Y-58473714D01*
X61101200Y-58473714D02*
X61148819Y-58568952D01*
X61148819Y-58568952D02*
X61148819Y-58854666D01*
X61148819Y-58854666D02*
X61101200Y-58949904D01*
X61101200Y-58949904D02*
X61053580Y-58997523D01*
X95450819Y-52887143D02*
X94974628Y-53220476D01*
X95450819Y-53458571D02*
X94450819Y-53458571D01*
X94450819Y-53458571D02*
X94450819Y-53077619D01*
X94450819Y-53077619D02*
X94498438Y-52982381D01*
X94498438Y-52982381D02*
X94546057Y-52934762D01*
X94546057Y-52934762D02*
X94641295Y-52887143D01*
X94641295Y-52887143D02*
X94784152Y-52887143D01*
X94784152Y-52887143D02*
X94879390Y-52934762D01*
X94879390Y-52934762D02*
X94927009Y-52982381D01*
X94927009Y-52982381D02*
X94974628Y-53077619D01*
X94974628Y-53077619D02*
X94974628Y-53458571D01*
X94927009Y-52458571D02*
X94927009Y-52125238D01*
X95450819Y-51982381D02*
X95450819Y-52458571D01*
X95450819Y-52458571D02*
X94450819Y-52458571D01*
X94450819Y-52458571D02*
X94450819Y-51982381D01*
X95403200Y-51601428D02*
X95450819Y-51458571D01*
X95450819Y-51458571D02*
X95450819Y-51220476D01*
X95450819Y-51220476D02*
X95403200Y-51125238D01*
X95403200Y-51125238D02*
X95355580Y-51077619D01*
X95355580Y-51077619D02*
X95260342Y-51030000D01*
X95260342Y-51030000D02*
X95165104Y-51030000D01*
X95165104Y-51030000D02*
X95069866Y-51077619D01*
X95069866Y-51077619D02*
X95022247Y-51125238D01*
X95022247Y-51125238D02*
X94974628Y-51220476D01*
X94974628Y-51220476D02*
X94927009Y-51410952D01*
X94927009Y-51410952D02*
X94879390Y-51506190D01*
X94879390Y-51506190D02*
X94831771Y-51553809D01*
X94831771Y-51553809D02*
X94736533Y-51601428D01*
X94736533Y-51601428D02*
X94641295Y-51601428D01*
X94641295Y-51601428D02*
X94546057Y-51553809D01*
X94546057Y-51553809D02*
X94498438Y-51506190D01*
X94498438Y-51506190D02*
X94450819Y-51410952D01*
X94450819Y-51410952D02*
X94450819Y-51172857D01*
X94450819Y-51172857D02*
X94498438Y-51030000D01*
X94927009Y-50601428D02*
X94927009Y-50268095D01*
X95450819Y-50125238D02*
X95450819Y-50601428D01*
X95450819Y-50601428D02*
X94450819Y-50601428D01*
X94450819Y-50601428D02*
X94450819Y-50125238D01*
X94450819Y-49839523D02*
X94450819Y-49268095D01*
X95450819Y-49553809D02*
X94450819Y-49553809D01*
X95546057Y-49172857D02*
X95546057Y-48410952D01*
X95403200Y-48220475D02*
X95450819Y-48077618D01*
X95450819Y-48077618D02*
X95450819Y-47839523D01*
X95450819Y-47839523D02*
X95403200Y-47744285D01*
X95403200Y-47744285D02*
X95355580Y-47696666D01*
X95355580Y-47696666D02*
X95260342Y-47649047D01*
X95260342Y-47649047D02*
X95165104Y-47649047D01*
X95165104Y-47649047D02*
X95069866Y-47696666D01*
X95069866Y-47696666D02*
X95022247Y-47744285D01*
X95022247Y-47744285D02*
X94974628Y-47839523D01*
X94974628Y-47839523D02*
X94927009Y-48029999D01*
X94927009Y-48029999D02*
X94879390Y-48125237D01*
X94879390Y-48125237D02*
X94831771Y-48172856D01*
X94831771Y-48172856D02*
X94736533Y-48220475D01*
X94736533Y-48220475D02*
X94641295Y-48220475D01*
X94641295Y-48220475D02*
X94546057Y-48172856D01*
X94546057Y-48172856D02*
X94498438Y-48125237D01*
X94498438Y-48125237D02*
X94450819Y-48029999D01*
X94450819Y-48029999D02*
X94450819Y-47791904D01*
X94450819Y-47791904D02*
X94498438Y-47649047D01*
X94450819Y-47315713D02*
X95450819Y-47077618D01*
X95450819Y-47077618D02*
X94736533Y-46887142D01*
X94736533Y-46887142D02*
X95450819Y-46696666D01*
X95450819Y-46696666D02*
X94450819Y-46458571D01*
X95450819Y-45553809D02*
X95450819Y-46125237D01*
X95450819Y-45839523D02*
X94450819Y-45839523D01*
X94450819Y-45839523D02*
X94593676Y-45934761D01*
X94593676Y-45934761D02*
X94688914Y-46029999D01*
X94688914Y-46029999D02*
X94736533Y-46125237D01*
X59193819Y-65349333D02*
X59908104Y-65349333D01*
X59908104Y-65349333D02*
X60050961Y-65396952D01*
X60050961Y-65396952D02*
X60146200Y-65492190D01*
X60146200Y-65492190D02*
X60193819Y-65635047D01*
X60193819Y-65635047D02*
X60193819Y-65730285D01*
X60193819Y-64873142D02*
X59193819Y-64873142D01*
X59193819Y-64873142D02*
X59193819Y-64492190D01*
X59193819Y-64492190D02*
X59241438Y-64396952D01*
X59241438Y-64396952D02*
X59289057Y-64349333D01*
X59289057Y-64349333D02*
X59384295Y-64301714D01*
X59384295Y-64301714D02*
X59527152Y-64301714D01*
X59527152Y-64301714D02*
X59622390Y-64349333D01*
X59622390Y-64349333D02*
X59670009Y-64396952D01*
X59670009Y-64396952D02*
X59717628Y-64492190D01*
X59717628Y-64492190D02*
X59717628Y-64873142D01*
X59289057Y-63920761D02*
X59241438Y-63873142D01*
X59241438Y-63873142D02*
X59193819Y-63777904D01*
X59193819Y-63777904D02*
X59193819Y-63539809D01*
X59193819Y-63539809D02*
X59241438Y-63444571D01*
X59241438Y-63444571D02*
X59289057Y-63396952D01*
X59289057Y-63396952D02*
X59384295Y-63349333D01*
X59384295Y-63349333D02*
X59479533Y-63349333D01*
X59479533Y-63349333D02*
X59622390Y-63396952D01*
X59622390Y-63396952D02*
X60193819Y-63968380D01*
X60193819Y-63968380D02*
X60193819Y-63349333D01*
X116646580Y-69543066D02*
X116694200Y-69590685D01*
X116694200Y-69590685D02*
X116741819Y-69733542D01*
X116741819Y-69733542D02*
X116741819Y-69828780D01*
X116741819Y-69828780D02*
X116694200Y-69971637D01*
X116694200Y-69971637D02*
X116598961Y-70066875D01*
X116598961Y-70066875D02*
X116503723Y-70114494D01*
X116503723Y-70114494D02*
X116313247Y-70162113D01*
X116313247Y-70162113D02*
X116170390Y-70162113D01*
X116170390Y-70162113D02*
X115979914Y-70114494D01*
X115979914Y-70114494D02*
X115884676Y-70066875D01*
X115884676Y-70066875D02*
X115789438Y-69971637D01*
X115789438Y-69971637D02*
X115741819Y-69828780D01*
X115741819Y-69828780D02*
X115741819Y-69733542D01*
X115741819Y-69733542D02*
X115789438Y-69590685D01*
X115789438Y-69590685D02*
X115837057Y-69543066D01*
X116075152Y-68685923D02*
X116741819Y-68685923D01*
X115694200Y-68924018D02*
X116408485Y-69162113D01*
X116408485Y-69162113D02*
X116408485Y-68543066D01*
X124027333Y-57504780D02*
X123979714Y-57552400D01*
X123979714Y-57552400D02*
X123836857Y-57600019D01*
X123836857Y-57600019D02*
X123741619Y-57600019D01*
X123741619Y-57600019D02*
X123598762Y-57552400D01*
X123598762Y-57552400D02*
X123503524Y-57457161D01*
X123503524Y-57457161D02*
X123455905Y-57361923D01*
X123455905Y-57361923D02*
X123408286Y-57171447D01*
X123408286Y-57171447D02*
X123408286Y-57028590D01*
X123408286Y-57028590D02*
X123455905Y-56838114D01*
X123455905Y-56838114D02*
X123503524Y-56742876D01*
X123503524Y-56742876D02*
X123598762Y-56647638D01*
X123598762Y-56647638D02*
X123741619Y-56600019D01*
X123741619Y-56600019D02*
X123836857Y-56600019D01*
X123836857Y-56600019D02*
X123979714Y-56647638D01*
X123979714Y-56647638D02*
X124027333Y-56695257D01*
X124360667Y-56600019D02*
X125027333Y-56600019D01*
X125027333Y-56600019D02*
X124598762Y-57600019D01*
X126870411Y-53972112D02*
X126870411Y-54039456D01*
X126870411Y-54039456D02*
X126803067Y-54174143D01*
X126803067Y-54174143D02*
X126735724Y-54241486D01*
X126735724Y-54241486D02*
X126601037Y-54308830D01*
X126601037Y-54308830D02*
X126466350Y-54308830D01*
X126466350Y-54308830D02*
X126365335Y-54275158D01*
X126365335Y-54275158D02*
X126196976Y-54174143D01*
X126196976Y-54174143D02*
X126095961Y-54073128D01*
X126095961Y-54073128D02*
X125994945Y-53904769D01*
X125994945Y-53904769D02*
X125961274Y-53803754D01*
X125961274Y-53803754D02*
X125961274Y-53669067D01*
X125961274Y-53669067D02*
X126028617Y-53534380D01*
X126028617Y-53534380D02*
X126095961Y-53467036D01*
X126095961Y-53467036D02*
X126230648Y-53399693D01*
X126230648Y-53399693D02*
X126297991Y-53399693D01*
X127274472Y-53702738D02*
X127409159Y-53568051D01*
X127409159Y-53568051D02*
X127442831Y-53467036D01*
X127442831Y-53467036D02*
X127442831Y-53399693D01*
X127442831Y-53399693D02*
X127409159Y-53231334D01*
X127409159Y-53231334D02*
X127308144Y-53062975D01*
X127308144Y-53062975D02*
X127038770Y-52793601D01*
X127038770Y-52793601D02*
X126937754Y-52759929D01*
X126937754Y-52759929D02*
X126870411Y-52759929D01*
X126870411Y-52759929D02*
X126769396Y-52793601D01*
X126769396Y-52793601D02*
X126634709Y-52928288D01*
X126634709Y-52928288D02*
X126601037Y-53029303D01*
X126601037Y-53029303D02*
X126601037Y-53096647D01*
X126601037Y-53096647D02*
X126634709Y-53197662D01*
X126634709Y-53197662D02*
X126803067Y-53366021D01*
X126803067Y-53366021D02*
X126904083Y-53399693D01*
X126904083Y-53399693D02*
X126971426Y-53399693D01*
X126971426Y-53399693D02*
X127072441Y-53366021D01*
X127072441Y-53366021D02*
X127207128Y-53231334D01*
X127207128Y-53231334D02*
X127240800Y-53130319D01*
X127240800Y-53130319D02*
X127240800Y-53062975D01*
X127240800Y-53062975D02*
X127207128Y-52961960D01*
X127886411Y-54988111D02*
X127886411Y-55055455D01*
X127886411Y-55055455D02*
X127819067Y-55190142D01*
X127819067Y-55190142D02*
X127751724Y-55257485D01*
X127751724Y-55257485D02*
X127617037Y-55324829D01*
X127617037Y-55324829D02*
X127482350Y-55324829D01*
X127482350Y-55324829D02*
X127381335Y-55291157D01*
X127381335Y-55291157D02*
X127212976Y-55190142D01*
X127212976Y-55190142D02*
X127111961Y-55089127D01*
X127111961Y-55089127D02*
X127010945Y-54920768D01*
X127010945Y-54920768D02*
X126977274Y-54819753D01*
X126977274Y-54819753D02*
X126977274Y-54685066D01*
X126977274Y-54685066D02*
X127044617Y-54550379D01*
X127044617Y-54550379D02*
X127111961Y-54483035D01*
X127111961Y-54483035D02*
X127246648Y-54415692D01*
X127246648Y-54415692D02*
X127313991Y-54415692D01*
X127953754Y-54247333D02*
X127852739Y-54281005D01*
X127852739Y-54281005D02*
X127785396Y-54281005D01*
X127785396Y-54281005D02*
X127684380Y-54247333D01*
X127684380Y-54247333D02*
X127650709Y-54213661D01*
X127650709Y-54213661D02*
X127617037Y-54112646D01*
X127617037Y-54112646D02*
X127617037Y-54045302D01*
X127617037Y-54045302D02*
X127650709Y-53944287D01*
X127650709Y-53944287D02*
X127785396Y-53809600D01*
X127785396Y-53809600D02*
X127886411Y-53775928D01*
X127886411Y-53775928D02*
X127953754Y-53775928D01*
X127953754Y-53775928D02*
X128054770Y-53809600D01*
X128054770Y-53809600D02*
X128088441Y-53843272D01*
X128088441Y-53843272D02*
X128122113Y-53944287D01*
X128122113Y-53944287D02*
X128122113Y-54011631D01*
X128122113Y-54011631D02*
X128088441Y-54112646D01*
X128088441Y-54112646D02*
X127953754Y-54247333D01*
X127953754Y-54247333D02*
X127920083Y-54348348D01*
X127920083Y-54348348D02*
X127920083Y-54415692D01*
X127920083Y-54415692D02*
X127953754Y-54516707D01*
X127953754Y-54516707D02*
X128088441Y-54651394D01*
X128088441Y-54651394D02*
X128189457Y-54685066D01*
X128189457Y-54685066D02*
X128256800Y-54685066D01*
X128256800Y-54685066D02*
X128357815Y-54651394D01*
X128357815Y-54651394D02*
X128492502Y-54516707D01*
X128492502Y-54516707D02*
X128526174Y-54415692D01*
X128526174Y-54415692D02*
X128526174Y-54348348D01*
X128526174Y-54348348D02*
X128492502Y-54247333D01*
X128492502Y-54247333D02*
X128357815Y-54112646D01*
X128357815Y-54112646D02*
X128256800Y-54078974D01*
X128256800Y-54078974D02*
X128189457Y-54078974D01*
X128189457Y-54078974D02*
X128088441Y-54112646D01*
X141807333Y-52689580D02*
X141759714Y-52737200D01*
X141759714Y-52737200D02*
X141616857Y-52784819D01*
X141616857Y-52784819D02*
X141521619Y-52784819D01*
X141521619Y-52784819D02*
X141378762Y-52737200D01*
X141378762Y-52737200D02*
X141283524Y-52641961D01*
X141283524Y-52641961D02*
X141235905Y-52546723D01*
X141235905Y-52546723D02*
X141188286Y-52356247D01*
X141188286Y-52356247D02*
X141188286Y-52213390D01*
X141188286Y-52213390D02*
X141235905Y-52022914D01*
X141235905Y-52022914D02*
X141283524Y-51927676D01*
X141283524Y-51927676D02*
X141378762Y-51832438D01*
X141378762Y-51832438D02*
X141521619Y-51784819D01*
X141521619Y-51784819D02*
X141616857Y-51784819D01*
X141616857Y-51784819D02*
X141759714Y-51832438D01*
X141759714Y-51832438D02*
X141807333Y-51880057D01*
X142140667Y-51784819D02*
X142759714Y-51784819D01*
X142759714Y-51784819D02*
X142426381Y-52165771D01*
X142426381Y-52165771D02*
X142569238Y-52165771D01*
X142569238Y-52165771D02*
X142664476Y-52213390D01*
X142664476Y-52213390D02*
X142712095Y-52261009D01*
X142712095Y-52261009D02*
X142759714Y-52356247D01*
X142759714Y-52356247D02*
X142759714Y-52594342D01*
X142759714Y-52594342D02*
X142712095Y-52689580D01*
X142712095Y-52689580D02*
X142664476Y-52737200D01*
X142664476Y-52737200D02*
X142569238Y-52784819D01*
X142569238Y-52784819D02*
X142283524Y-52784819D01*
X142283524Y-52784819D02*
X142188286Y-52737200D01*
X142188286Y-52737200D02*
X142140667Y-52689580D01*
X57511142Y-52943580D02*
X57463523Y-52991200D01*
X57463523Y-52991200D02*
X57320666Y-53038819D01*
X57320666Y-53038819D02*
X57225428Y-53038819D01*
X57225428Y-53038819D02*
X57082571Y-52991200D01*
X57082571Y-52991200D02*
X56987333Y-52895961D01*
X56987333Y-52895961D02*
X56939714Y-52800723D01*
X56939714Y-52800723D02*
X56892095Y-52610247D01*
X56892095Y-52610247D02*
X56892095Y-52467390D01*
X56892095Y-52467390D02*
X56939714Y-52276914D01*
X56939714Y-52276914D02*
X56987333Y-52181676D01*
X56987333Y-52181676D02*
X57082571Y-52086438D01*
X57082571Y-52086438D02*
X57225428Y-52038819D01*
X57225428Y-52038819D02*
X57320666Y-52038819D01*
X57320666Y-52038819D02*
X57463523Y-52086438D01*
X57463523Y-52086438D02*
X57511142Y-52134057D01*
X58463523Y-53038819D02*
X57892095Y-53038819D01*
X58177809Y-53038819D02*
X58177809Y-52038819D01*
X58177809Y-52038819D02*
X58082571Y-52181676D01*
X58082571Y-52181676D02*
X57987333Y-52276914D01*
X57987333Y-52276914D02*
X57892095Y-52324533D01*
X59320666Y-52372152D02*
X59320666Y-53038819D01*
X59082571Y-51991200D02*
X58844476Y-52705485D01*
X58844476Y-52705485D02*
X59463523Y-52705485D01*
X59193819Y-69159333D02*
X59908104Y-69159333D01*
X59908104Y-69159333D02*
X60050961Y-69206952D01*
X60050961Y-69206952D02*
X60146200Y-69302190D01*
X60146200Y-69302190D02*
X60193819Y-69445047D01*
X60193819Y-69445047D02*
X60193819Y-69540285D01*
X60193819Y-68683142D02*
X59193819Y-68683142D01*
X59193819Y-68683142D02*
X59193819Y-68302190D01*
X59193819Y-68302190D02*
X59241438Y-68206952D01*
X59241438Y-68206952D02*
X59289057Y-68159333D01*
X59289057Y-68159333D02*
X59384295Y-68111714D01*
X59384295Y-68111714D02*
X59527152Y-68111714D01*
X59527152Y-68111714D02*
X59622390Y-68159333D01*
X59622390Y-68159333D02*
X59670009Y-68206952D01*
X59670009Y-68206952D02*
X59717628Y-68302190D01*
X59717628Y-68302190D02*
X59717628Y-68683142D01*
X59193819Y-67778380D02*
X59193819Y-67159333D01*
X59193819Y-67159333D02*
X59574771Y-67492666D01*
X59574771Y-67492666D02*
X59574771Y-67349809D01*
X59574771Y-67349809D02*
X59622390Y-67254571D01*
X59622390Y-67254571D02*
X59670009Y-67206952D01*
X59670009Y-67206952D02*
X59765247Y-67159333D01*
X59765247Y-67159333D02*
X60003342Y-67159333D01*
X60003342Y-67159333D02*
X60098580Y-67206952D01*
X60098580Y-67206952D02*
X60146200Y-67254571D01*
X60146200Y-67254571D02*
X60193819Y-67349809D01*
X60193819Y-67349809D02*
X60193819Y-67635523D01*
X60193819Y-67635523D02*
X60146200Y-67730761D01*
X60146200Y-67730761D02*
X60098580Y-67778380D01*
X125678333Y-63738580D02*
X125630714Y-63786200D01*
X125630714Y-63786200D02*
X125487857Y-63833819D01*
X125487857Y-63833819D02*
X125392619Y-63833819D01*
X125392619Y-63833819D02*
X125249762Y-63786200D01*
X125249762Y-63786200D02*
X125154524Y-63690961D01*
X125154524Y-63690961D02*
X125106905Y-63595723D01*
X125106905Y-63595723D02*
X125059286Y-63405247D01*
X125059286Y-63405247D02*
X125059286Y-63262390D01*
X125059286Y-63262390D02*
X125106905Y-63071914D01*
X125106905Y-63071914D02*
X125154524Y-62976676D01*
X125154524Y-62976676D02*
X125249762Y-62881438D01*
X125249762Y-62881438D02*
X125392619Y-62833819D01*
X125392619Y-62833819D02*
X125487857Y-62833819D01*
X125487857Y-62833819D02*
X125630714Y-62881438D01*
X125630714Y-62881438D02*
X125678333Y-62929057D01*
X126630714Y-63833819D02*
X126059286Y-63833819D01*
X126345000Y-63833819D02*
X126345000Y-62833819D01*
X126345000Y-62833819D02*
X126249762Y-62976676D01*
X126249762Y-62976676D02*
X126154524Y-63071914D01*
X126154524Y-63071914D02*
X126059286Y-63119533D01*
X137656095Y-57495594D02*
X137656095Y-58305117D01*
X137656095Y-58305117D02*
X137703714Y-58400355D01*
X137703714Y-58400355D02*
X137751333Y-58447975D01*
X137751333Y-58447975D02*
X137846571Y-58495594D01*
X137846571Y-58495594D02*
X138037047Y-58495594D01*
X138037047Y-58495594D02*
X138132285Y-58447975D01*
X138132285Y-58447975D02*
X138179904Y-58400355D01*
X138179904Y-58400355D02*
X138227523Y-58305117D01*
X138227523Y-58305117D02*
X138227523Y-57495594D01*
X138656095Y-57590832D02*
X138703714Y-57543213D01*
X138703714Y-57543213D02*
X138798952Y-57495594D01*
X138798952Y-57495594D02*
X139037047Y-57495594D01*
X139037047Y-57495594D02*
X139132285Y-57543213D01*
X139132285Y-57543213D02*
X139179904Y-57590832D01*
X139179904Y-57590832D02*
X139227523Y-57686070D01*
X139227523Y-57686070D02*
X139227523Y-57781308D01*
X139227523Y-57781308D02*
X139179904Y-57924165D01*
X139179904Y-57924165D02*
X138608476Y-58495594D01*
X138608476Y-58495594D02*
X139227523Y-58495594D01*
X64115142Y-49895580D02*
X64067523Y-49943200D01*
X64067523Y-49943200D02*
X63924666Y-49990819D01*
X63924666Y-49990819D02*
X63829428Y-49990819D01*
X63829428Y-49990819D02*
X63686571Y-49943200D01*
X63686571Y-49943200D02*
X63591333Y-49847961D01*
X63591333Y-49847961D02*
X63543714Y-49752723D01*
X63543714Y-49752723D02*
X63496095Y-49562247D01*
X63496095Y-49562247D02*
X63496095Y-49419390D01*
X63496095Y-49419390D02*
X63543714Y-49228914D01*
X63543714Y-49228914D02*
X63591333Y-49133676D01*
X63591333Y-49133676D02*
X63686571Y-49038438D01*
X63686571Y-49038438D02*
X63829428Y-48990819D01*
X63829428Y-48990819D02*
X63924666Y-48990819D01*
X63924666Y-48990819D02*
X64067523Y-49038438D01*
X64067523Y-49038438D02*
X64115142Y-49086057D01*
X65067523Y-49990819D02*
X64496095Y-49990819D01*
X64781809Y-49990819D02*
X64781809Y-48990819D01*
X64781809Y-48990819D02*
X64686571Y-49133676D01*
X64686571Y-49133676D02*
X64591333Y-49228914D01*
X64591333Y-49228914D02*
X64496095Y-49276533D01*
X65448476Y-49086057D02*
X65496095Y-49038438D01*
X65496095Y-49038438D02*
X65591333Y-48990819D01*
X65591333Y-48990819D02*
X65829428Y-48990819D01*
X65829428Y-48990819D02*
X65924666Y-49038438D01*
X65924666Y-49038438D02*
X65972285Y-49086057D01*
X65972285Y-49086057D02*
X66019904Y-49181295D01*
X66019904Y-49181295D02*
X66019904Y-49276533D01*
X66019904Y-49276533D02*
X65972285Y-49419390D01*
X65972285Y-49419390D02*
X65400857Y-49990819D01*
X65400857Y-49990819D02*
X66019904Y-49990819D01*
X87227580Y-72524857D02*
X87275200Y-72572476D01*
X87275200Y-72572476D02*
X87322819Y-72715333D01*
X87322819Y-72715333D02*
X87322819Y-72810571D01*
X87322819Y-72810571D02*
X87275200Y-72953428D01*
X87275200Y-72953428D02*
X87179961Y-73048666D01*
X87179961Y-73048666D02*
X87084723Y-73096285D01*
X87084723Y-73096285D02*
X86894247Y-73143904D01*
X86894247Y-73143904D02*
X86751390Y-73143904D01*
X86751390Y-73143904D02*
X86560914Y-73096285D01*
X86560914Y-73096285D02*
X86465676Y-73048666D01*
X86465676Y-73048666D02*
X86370438Y-72953428D01*
X86370438Y-72953428D02*
X86322819Y-72810571D01*
X86322819Y-72810571D02*
X86322819Y-72715333D01*
X86322819Y-72715333D02*
X86370438Y-72572476D01*
X86370438Y-72572476D02*
X86418057Y-72524857D01*
X87322819Y-71572476D02*
X87322819Y-72143904D01*
X87322819Y-71858190D02*
X86322819Y-71858190D01*
X86322819Y-71858190D02*
X86465676Y-71953428D01*
X86465676Y-71953428D02*
X86560914Y-72048666D01*
X86560914Y-72048666D02*
X86608533Y-72143904D01*
X86322819Y-70715333D02*
X86322819Y-70905809D01*
X86322819Y-70905809D02*
X86370438Y-71001047D01*
X86370438Y-71001047D02*
X86418057Y-71048666D01*
X86418057Y-71048666D02*
X86560914Y-71143904D01*
X86560914Y-71143904D02*
X86751390Y-71191523D01*
X86751390Y-71191523D02*
X87132342Y-71191523D01*
X87132342Y-71191523D02*
X87227580Y-71143904D01*
X87227580Y-71143904D02*
X87275200Y-71096285D01*
X87275200Y-71096285D02*
X87322819Y-71001047D01*
X87322819Y-71001047D02*
X87322819Y-70810571D01*
X87322819Y-70810571D02*
X87275200Y-70715333D01*
X87275200Y-70715333D02*
X87227580Y-70667714D01*
X87227580Y-70667714D02*
X87132342Y-70620095D01*
X87132342Y-70620095D02*
X86894247Y-70620095D01*
X86894247Y-70620095D02*
X86799009Y-70667714D01*
X86799009Y-70667714D02*
X86751390Y-70715333D01*
X86751390Y-70715333D02*
X86703771Y-70810571D01*
X86703771Y-70810571D02*
X86703771Y-71001047D01*
X86703771Y-71001047D02*
X86751390Y-71096285D01*
X86751390Y-71096285D02*
X86799009Y-71143904D01*
X86799009Y-71143904D02*
X86894247Y-71191523D01*
X90035142Y-64621580D02*
X89987523Y-64669200D01*
X89987523Y-64669200D02*
X89844666Y-64716819D01*
X89844666Y-64716819D02*
X89749428Y-64716819D01*
X89749428Y-64716819D02*
X89606571Y-64669200D01*
X89606571Y-64669200D02*
X89511333Y-64573961D01*
X89511333Y-64573961D02*
X89463714Y-64478723D01*
X89463714Y-64478723D02*
X89416095Y-64288247D01*
X89416095Y-64288247D02*
X89416095Y-64145390D01*
X89416095Y-64145390D02*
X89463714Y-63954914D01*
X89463714Y-63954914D02*
X89511333Y-63859676D01*
X89511333Y-63859676D02*
X89606571Y-63764438D01*
X89606571Y-63764438D02*
X89749428Y-63716819D01*
X89749428Y-63716819D02*
X89844666Y-63716819D01*
X89844666Y-63716819D02*
X89987523Y-63764438D01*
X89987523Y-63764438D02*
X90035142Y-63812057D01*
X90987523Y-64716819D02*
X90416095Y-64716819D01*
X90701809Y-64716819D02*
X90701809Y-63716819D01*
X90701809Y-63716819D02*
X90606571Y-63859676D01*
X90606571Y-63859676D02*
X90511333Y-63954914D01*
X90511333Y-63954914D02*
X90416095Y-64002533D01*
X91320857Y-63716819D02*
X91987523Y-63716819D01*
X91987523Y-63716819D02*
X91558952Y-64716819D01*
D10*
%TO.C,Y1*%
X116332000Y-57582000D02*
X116332000Y-57582000D01*
X116332000Y-57682000D02*
X116332000Y-57682000D01*
X116332000Y-57582000D02*
G75*
G02*
X116332000Y-57682000I0J-50000D01*
G01*
X116332000Y-57682000D02*
G75*
G02*
X116332000Y-57582000I0J50000D01*
G01*
D12*
%TO.C,U1*%
X96139000Y-50165000D02*
X96139000Y-68199000D01*
X96139000Y-68199000D02*
X98044000Y-68199000D01*
X98044000Y-50165000D02*
X96139000Y-50165000D01*
X112268000Y-50165000D02*
X114173000Y-50165000D01*
X114173000Y-50165000D02*
X114173000Y-68199000D01*
X114173000Y-68199000D02*
X112268000Y-68199000D01*
X98031000Y-49907000D02*
X97531000Y-49907000D01*
X98031000Y-49407000D01*
X98031000Y-49907000D01*
G36*
X98031000Y-49907000D02*
G01*
X97531000Y-49907000D01*
X98031000Y-49407000D01*
X98031000Y-49907000D01*
G37*
%TO.C,USR_SW1*%
X87428000Y-57186000D02*
X87428000Y-61686000D01*
X89928000Y-62936000D02*
X91428000Y-62936000D01*
X91428000Y-55936000D02*
X89928000Y-55936000D01*
X93928000Y-61686000D02*
X93928000Y-57186000D01*
%TO.C,U4*%
X49565000Y-49457000D02*
X49565000Y-49457000D01*
X49565000Y-49957000D02*
X49565000Y-49657000D01*
X49565000Y-51157000D02*
X49565000Y-51157000D01*
X49565000Y-51657000D02*
X49565000Y-51157000D01*
X50065000Y-49457000D02*
X49765000Y-49457000D01*
X50065000Y-51657000D02*
X49565000Y-51657000D01*
X51265000Y-49457000D02*
X51765000Y-49457000D01*
X51265000Y-51657000D02*
X51265000Y-51657000D01*
X51765000Y-49457000D02*
X51765000Y-49957000D01*
X51765000Y-49957000D02*
X51765000Y-49957000D01*
X51765000Y-51157000D02*
X51765000Y-51657000D01*
X51765000Y-51657000D02*
X51265000Y-51657000D01*
X49565000Y-49457000D02*
X49205000Y-49457000D01*
X49565000Y-49097000D01*
X49565000Y-49457000D01*
G36*
X49565000Y-49457000D02*
G01*
X49205000Y-49457000D01*
X49565000Y-49097000D01*
X49565000Y-49457000D01*
G37*
%TO.C,J9*%
X80712000Y-66787000D02*
X80712000Y-48947000D01*
X83372000Y-48947000D02*
X80712000Y-48947000D01*
X83372000Y-66787000D02*
X80712000Y-66787000D01*
X83372000Y-66787000D02*
X83372000Y-48947000D01*
X83372000Y-68057000D02*
X83372000Y-69387000D01*
X83372000Y-69387000D02*
X82042000Y-69387000D01*
%TO.C,JP1*%
X53544000Y-70806000D02*
X53544000Y-73466000D01*
X56144000Y-70806000D02*
X53544000Y-70806000D01*
X56144000Y-70806000D02*
X56144000Y-73466000D01*
X56144000Y-73466000D02*
X53544000Y-73466000D01*
X57414000Y-70806000D02*
X58744000Y-70806000D01*
X58744000Y-70806000D02*
X58744000Y-72136000D01*
%TO.C,R1*%
X136094400Y-49282000D02*
X136864400Y-49282000D01*
X136864400Y-47912000D02*
X136864400Y-50652000D01*
X136864400Y-50652000D02*
X143404400Y-50652000D01*
X143404400Y-47912000D02*
X136864400Y-47912000D01*
X143404400Y-50652000D02*
X143404400Y-47912000D01*
X144174400Y-49282000D02*
X143404400Y-49282000D01*
%TO.C,C15*%
X50295000Y-52103000D02*
X50295000Y-52418000D01*
X50295000Y-52103000D02*
X55535000Y-52103000D01*
X50295000Y-54528000D02*
X50295000Y-54843000D01*
X50295000Y-54843000D02*
X55535000Y-54843000D01*
X55535000Y-52103000D02*
X55535000Y-52418000D01*
X55535000Y-54528000D02*
X55535000Y-54843000D01*
%TO.C,R4*%
X83974000Y-47784000D02*
X83974000Y-54324000D01*
X83974000Y-54324000D02*
X86714000Y-54324000D01*
X85344000Y-47014000D02*
X85344000Y-47784000D01*
X85344000Y-55094000D02*
X85344000Y-54324000D01*
X86714000Y-47784000D02*
X83974000Y-47784000D01*
X86714000Y-54324000D02*
X86714000Y-47784000D01*
%TO.C,C6*%
X95678000Y-70827000D02*
X95678000Y-70512000D01*
X95678000Y-73252000D02*
X95678000Y-72937000D01*
X100918000Y-70512000D02*
X95678000Y-70512000D01*
X100918000Y-70827000D02*
X100918000Y-70512000D01*
X100918000Y-73252000D02*
X95678000Y-73252000D01*
X100918000Y-73252000D02*
X100918000Y-72937000D01*
%TO.C,C10*%
X123011000Y-66810113D02*
X124551000Y-66810113D01*
X123011000Y-66850113D02*
X124551000Y-66850113D01*
X123012000Y-66770113D02*
X124551000Y-66770113D01*
X123013000Y-66730113D02*
X124551000Y-66730113D01*
X123015000Y-66690113D02*
X124551000Y-66690113D01*
X123018000Y-66650113D02*
X124551000Y-66650113D01*
X123022000Y-66610113D02*
X124551000Y-66610113D01*
X123026000Y-66570113D02*
X124551000Y-66570113D01*
X123030000Y-66530113D02*
X124551000Y-66530113D01*
X123035000Y-66490113D02*
X124551000Y-66490113D01*
X123041000Y-66450113D02*
X124551000Y-66450113D01*
X123048000Y-66410113D02*
X124551000Y-66410113D01*
X123055000Y-66370113D02*
X124551000Y-66370113D01*
X123063000Y-66330113D02*
X124551000Y-66330113D01*
X123071000Y-66290113D02*
X124551000Y-66290113D01*
X123080000Y-66250113D02*
X124551000Y-66250113D01*
X123090000Y-66210113D02*
X124551000Y-66210113D01*
X123100000Y-66170113D02*
X124551000Y-66170113D01*
X123111000Y-66129113D02*
X124551000Y-66129113D01*
X123123000Y-66089113D02*
X124551000Y-66089113D01*
X123136000Y-66049113D02*
X124551000Y-66049113D01*
X123149000Y-66009113D02*
X124551000Y-66009113D01*
X123163000Y-65969113D02*
X124551000Y-65969113D01*
X123177000Y-65929113D02*
X124551000Y-65929113D01*
X123193000Y-65889113D02*
X124551000Y-65889113D01*
X123209000Y-65849113D02*
X124551000Y-65849113D01*
X123226000Y-65809113D02*
X124551000Y-65809113D01*
X123243000Y-65769113D02*
X124551000Y-65769113D01*
X123262000Y-65729113D02*
X124551000Y-65729113D01*
X123281000Y-65689113D02*
X124551000Y-65689113D01*
X123301000Y-65649113D02*
X124551000Y-65649113D01*
X123323000Y-65609113D02*
X124551000Y-65609113D01*
X123344000Y-65569113D02*
X124551000Y-65569113D01*
X123367000Y-65529113D02*
X124551000Y-65529113D01*
X123391000Y-65489113D02*
X124551000Y-65489113D01*
X123416000Y-65449113D02*
X124551000Y-65449113D01*
X123442000Y-65409113D02*
X124551000Y-65409113D01*
X123469000Y-65369113D02*
X124551000Y-65369113D01*
X123496000Y-65329113D02*
X124551000Y-65329113D01*
X123526000Y-65289113D02*
X124551000Y-65289113D01*
X123556000Y-65249113D02*
X124551000Y-65249113D01*
X123587000Y-65209113D02*
X124551000Y-65209113D01*
X123620000Y-65169113D02*
X124551000Y-65169113D01*
X123654000Y-65129113D02*
X124551000Y-65129113D01*
X123690000Y-65089113D02*
X124551000Y-65089113D01*
X123727000Y-65049113D02*
X124551000Y-65049113D01*
X123765000Y-65009113D02*
X124551000Y-65009113D01*
X123806000Y-64969113D02*
X124551000Y-64969113D01*
X123848000Y-64929113D02*
X124551000Y-64929113D01*
X123866000Y-69404888D02*
X124366000Y-69404888D01*
X123892000Y-64889113D02*
X124551000Y-64889113D01*
X123938000Y-64849113D02*
X124551000Y-64849113D01*
X123986000Y-64809113D02*
X127196000Y-64809113D01*
X124037000Y-64769113D02*
X127145000Y-64769113D01*
X124091000Y-64729113D02*
X127091000Y-64729113D01*
X124116000Y-69654888D02*
X124116000Y-69154888D01*
X124148000Y-64689113D02*
X127034000Y-64689113D01*
X124208000Y-64649113D02*
X126974000Y-64649113D01*
X124272000Y-64609113D02*
X126910000Y-64609113D01*
X124340000Y-64569113D02*
X126842000Y-64569113D01*
X124413000Y-64529113D02*
X126769000Y-64529113D01*
X124493000Y-64489113D02*
X126689000Y-64489113D01*
X124580000Y-64449113D02*
X126602000Y-64449113D01*
X124676000Y-64409113D02*
X126506000Y-64409113D01*
X124786000Y-64369113D02*
X126396000Y-64369113D01*
X124914000Y-64329113D02*
X126268000Y-64329113D01*
X125073000Y-64289113D02*
X126109000Y-64289113D01*
X125307000Y-64249113D02*
X125875000Y-64249113D01*
X126631000Y-64849113D02*
X127244000Y-64849113D01*
X126631000Y-64889113D02*
X127290000Y-64889113D01*
X126631000Y-64929113D02*
X127334000Y-64929113D01*
X126631000Y-64969113D02*
X127376000Y-64969113D01*
X126631000Y-65009113D02*
X127417000Y-65009113D01*
X126631000Y-65049113D02*
X127455000Y-65049113D01*
X126631000Y-65089113D02*
X127492000Y-65089113D01*
X126631000Y-65129113D02*
X127528000Y-65129113D01*
X126631000Y-65169113D02*
X127562000Y-65169113D01*
X126631000Y-65209113D02*
X127595000Y-65209113D01*
X126631000Y-65249113D02*
X127626000Y-65249113D01*
X126631000Y-65289113D02*
X127656000Y-65289113D01*
X126631000Y-65329113D02*
X127686000Y-65329113D01*
X126631000Y-65369113D02*
X127713000Y-65369113D01*
X126631000Y-65409113D02*
X127740000Y-65409113D01*
X126631000Y-65449113D02*
X127766000Y-65449113D01*
X126631000Y-65489113D02*
X127791000Y-65489113D01*
X126631000Y-65529113D02*
X127815000Y-65529113D01*
X126631000Y-65569113D02*
X127838000Y-65569113D01*
X126631000Y-65609113D02*
X127859000Y-65609113D01*
X126631000Y-65649113D02*
X127881000Y-65649113D01*
X126631000Y-65689113D02*
X127901000Y-65689113D01*
X126631000Y-65729113D02*
X127920000Y-65729113D01*
X126631000Y-65769113D02*
X127939000Y-65769113D01*
X126631000Y-65809113D02*
X127956000Y-65809113D01*
X126631000Y-65849113D02*
X127973000Y-65849113D01*
X126631000Y-65889113D02*
X127989000Y-65889113D01*
X126631000Y-65929113D02*
X128005000Y-65929113D01*
X126631000Y-65969113D02*
X128019000Y-65969113D01*
X126631000Y-66009113D02*
X128033000Y-66009113D01*
X126631000Y-66049113D02*
X128046000Y-66049113D01*
X126631000Y-66089113D02*
X128059000Y-66089113D01*
X126631000Y-66129113D02*
X128071000Y-66129113D01*
X126631000Y-66170113D02*
X128082000Y-66170113D01*
X126631000Y-66210113D02*
X128092000Y-66210113D01*
X126631000Y-66250113D02*
X128102000Y-66250113D01*
X126631000Y-66290113D02*
X128111000Y-66290113D01*
X126631000Y-66330113D02*
X128119000Y-66330113D01*
X126631000Y-66370113D02*
X128127000Y-66370113D01*
X126631000Y-66410113D02*
X128134000Y-66410113D01*
X126631000Y-66450113D02*
X128141000Y-66450113D01*
X126631000Y-66490113D02*
X128147000Y-66490113D01*
X126631000Y-66530113D02*
X128152000Y-66530113D01*
X126631000Y-66570113D02*
X128156000Y-66570113D01*
X126631000Y-66610113D02*
X128160000Y-66610113D01*
X126631000Y-66650113D02*
X128164000Y-66650113D01*
X126631000Y-66690113D02*
X128167000Y-66690113D01*
X126631000Y-66730113D02*
X128169000Y-66730113D01*
X126631000Y-66770113D02*
X128170000Y-66770113D01*
X126631000Y-66810113D02*
X128171000Y-66810113D01*
X126631000Y-66850113D02*
X128171000Y-66850113D01*
X128211000Y-66850113D02*
G75*
G02*
X122971000Y-66850113I-2620000J0D01*
G01*
X122971000Y-66850113D02*
G75*
G02*
X128211000Y-66850113I2620000J0D01*
G01*
%TO.C,JP4*%
X53539000Y-59376000D02*
X53539000Y-62036000D01*
X56139000Y-59376000D02*
X53539000Y-59376000D01*
X56139000Y-59376000D02*
X56139000Y-62036000D01*
X56139000Y-62036000D02*
X53539000Y-62036000D01*
X57409000Y-59376000D02*
X58739000Y-59376000D01*
X58739000Y-59376000D02*
X58739000Y-60706000D01*
%TO.C,C11*%
X71160000Y-67785000D02*
X71160000Y-67470000D01*
X71160000Y-70210000D02*
X71160000Y-69895000D01*
X76400000Y-67470000D02*
X71160000Y-67470000D01*
X76400000Y-67785000D02*
X76400000Y-67470000D01*
X76400000Y-70210000D02*
X71160000Y-70210000D01*
X76400000Y-70210000D02*
X76400000Y-69895000D01*
%TO.C,R3*%
X83974000Y-60230000D02*
X83974000Y-66770000D01*
X83974000Y-66770000D02*
X86714000Y-66770000D01*
X85344000Y-59460000D02*
X85344000Y-60230000D01*
X85344000Y-67540000D02*
X85344000Y-66770000D01*
X86714000Y-60230000D02*
X83974000Y-60230000D01*
X86714000Y-66770000D02*
X86714000Y-60230000D01*
%TO.C,C5*%
X114962000Y-50974000D02*
X115277000Y-50974000D01*
X114962000Y-56214000D02*
X114962000Y-50974000D01*
X114962000Y-56214000D02*
X115277000Y-56214000D01*
X117387000Y-50974000D02*
X117702000Y-50974000D01*
X117387000Y-56214000D02*
X117702000Y-56214000D01*
X117702000Y-56214000D02*
X117702000Y-50974000D01*
%TO.C,C13*%
X46080000Y-50687000D02*
X46080000Y-55927000D01*
X46395000Y-50687000D02*
X46080000Y-50687000D01*
X46395000Y-55927000D02*
X46080000Y-55927000D01*
X48820000Y-50687000D02*
X48505000Y-50687000D01*
X48820000Y-50687000D02*
X48820000Y-55927000D01*
X48820000Y-55927000D02*
X48505000Y-55927000D01*
%TO.C,R2*%
X119730000Y-51934000D02*
X119730000Y-58474000D01*
X119730000Y-58474000D02*
X122470000Y-58474000D01*
X121100000Y-51164000D02*
X121100000Y-51934000D01*
X121100000Y-59244000D02*
X121100000Y-58474000D01*
X122470000Y-51934000D02*
X119730000Y-51934000D01*
X122470000Y-58474000D02*
X122470000Y-51934000D01*
%TO.C,Y2*%
X129263514Y-50104187D02*
X131243413Y-52084086D01*
X130960571Y-48407130D02*
X129263514Y-50104187D01*
%TO.C,C2*%
X139588000Y-59068000D02*
X139588000Y-64308000D01*
X139903000Y-59068000D02*
X139588000Y-59068000D01*
X139903000Y-64308000D02*
X139588000Y-64308000D01*
X142328000Y-59068000D02*
X142013000Y-59068000D01*
X142328000Y-59068000D02*
X142328000Y-64308000D01*
X142328000Y-64308000D02*
X142013000Y-64308000D01*
%TO.C,G1*%
X87486000Y-66610000D02*
X87486000Y-68010000D01*
X89806000Y-66600000D02*
X89806000Y-68010000D01*
X90086000Y-66470000D02*
X89756000Y-66230000D01*
X90086000Y-65990000D01*
X90086000Y-66470000D01*
G36*
X90086000Y-66470000D02*
G01*
X89756000Y-66230000D01*
X90086000Y-65990000D01*
X90086000Y-66470000D01*
G37*
%TO.C,U3*%
X61470000Y-51328000D02*
X61470000Y-67048000D01*
X72780000Y-51328000D02*
X61470000Y-51328000D01*
X77190000Y-51328000D02*
X73480000Y-51328000D01*
X77190000Y-51328000D02*
X77190000Y-67048000D01*
X77190000Y-67048000D02*
X61470000Y-67048000D01*
X73130000Y-51328000D02*
X72890000Y-50998000D01*
X73370000Y-50998000D01*
X73130000Y-51328000D01*
G36*
X73130000Y-51328000D02*
G01*
X72890000Y-50998000D01*
X73370000Y-50998000D01*
X73130000Y-51328000D01*
G37*
%TO.C,RESET_SW1*%
X87428000Y-47534000D02*
X87428000Y-52034000D01*
X89928000Y-53284000D02*
X91428000Y-53284000D01*
X91428000Y-46284000D02*
X89928000Y-46284000D01*
X93928000Y-52034000D02*
X93928000Y-47534000D01*
%TO.C,JP2*%
X53539000Y-63186000D02*
X53539000Y-65846000D01*
X56139000Y-63186000D02*
X53539000Y-63186000D01*
X56139000Y-63186000D02*
X56139000Y-65846000D01*
X56139000Y-65846000D02*
X53539000Y-65846000D01*
X57409000Y-63186000D02*
X58739000Y-63186000D01*
X58739000Y-63186000D02*
X58739000Y-64516000D01*
%TO.C,C4*%
X114962000Y-62184400D02*
X114962000Y-67424400D01*
X115277000Y-62184400D02*
X114962000Y-62184400D01*
X115277000Y-67424400D02*
X114962000Y-67424400D01*
X117702000Y-62184400D02*
X117387000Y-62184400D01*
X117702000Y-62184400D02*
X117702000Y-67424400D01*
X117702000Y-67424400D02*
X117387000Y-67424400D01*
%TO.C,C7*%
X122824000Y-50004000D02*
X122824000Y-55244000D01*
X123139000Y-50004000D02*
X122824000Y-50004000D01*
X123139000Y-55244000D02*
X122824000Y-55244000D01*
X125564000Y-50004000D02*
X125249000Y-50004000D01*
X125564000Y-50004000D02*
X125564000Y-55244000D01*
X125564000Y-55244000D02*
X125249000Y-55244000D01*
%TO.C,C9*%
X128113562Y-51448389D02*
X128312373Y-51249578D01*
X128834811Y-52169638D02*
X129033622Y-51970827D01*
%TO.C,C8*%
X129205762Y-52515189D02*
X129404573Y-52316378D01*
X129927011Y-53236438D02*
X130125822Y-53037627D01*
%TO.C,C3*%
X134934400Y-50985400D02*
X134934400Y-51300400D01*
X134934400Y-50985400D02*
X140174400Y-50985400D01*
X134934400Y-53410400D02*
X134934400Y-53725400D01*
X134934400Y-53725400D02*
X140174400Y-53725400D01*
X140174400Y-50985400D02*
X140174400Y-51300400D01*
X140174400Y-53410400D02*
X140174400Y-53725400D01*
%TO.C,C14*%
X53375000Y-48937000D02*
X53375000Y-49252000D01*
X53375000Y-48937000D02*
X58615000Y-48937000D01*
X53375000Y-51362000D02*
X53375000Y-51677000D01*
X53375000Y-51677000D02*
X58615000Y-51677000D01*
X58615000Y-48937000D02*
X58615000Y-49252000D01*
X58615000Y-51362000D02*
X58615000Y-51677000D01*
%TO.C,JP3*%
X53539000Y-66996000D02*
X53539000Y-69656000D01*
X56139000Y-66996000D02*
X53539000Y-66996000D01*
X56139000Y-66996000D02*
X56139000Y-69656000D01*
X56139000Y-69656000D02*
X53539000Y-69656000D01*
X57409000Y-66996000D02*
X58739000Y-66996000D01*
X58739000Y-66996000D02*
X58739000Y-68326000D01*
%TO.C,J3*%
X142930000Y-60458000D02*
X142930000Y-52778000D01*
X145590000Y-52778000D02*
X142930000Y-52778000D01*
X145590000Y-60458000D02*
X142930000Y-60458000D01*
X145590000Y-60458000D02*
X145590000Y-52778000D01*
X145590000Y-61728000D02*
X145590000Y-63058000D01*
X145590000Y-63058000D02*
X144260000Y-63058000D01*
%TO.C,C1*%
X128920000Y-64402000D02*
X128920000Y-69642000D01*
X129235000Y-64402000D02*
X128920000Y-64402000D01*
X129235000Y-69642000D02*
X128920000Y-69642000D01*
X131660000Y-64402000D02*
X131345000Y-64402000D01*
X131660000Y-64402000D02*
X131660000Y-69642000D01*
X131660000Y-69642000D02*
X131345000Y-69642000D01*
%TO.C,U2*%
X127172466Y-58040775D02*
X127508342Y-57704899D01*
X127508342Y-58376651D02*
X127172466Y-58040775D01*
X131941901Y-53271340D02*
X132108071Y-53105170D01*
X131941901Y-62810210D02*
X132277777Y-63146086D01*
X132277777Y-63146086D02*
X132613653Y-62810210D01*
X132613653Y-53271340D02*
X132489909Y-53147596D01*
X137047212Y-57704899D02*
X137383088Y-58040775D01*
X137383088Y-58040775D02*
X137047212Y-58376651D01*
X132680828Y-52871824D02*
X132277777Y-52935464D01*
X132341417Y-52532413D01*
X132680828Y-52871824D01*
G36*
X132680828Y-52871824D02*
G01*
X132277777Y-52935464D01*
X132341417Y-52532413D01*
X132680828Y-52871824D01*
G37*
%TO.C,C12*%
X67345000Y-48481000D02*
X67345000Y-48166000D01*
X67345000Y-50906000D02*
X67345000Y-50591000D01*
X72585000Y-48166000D02*
X67345000Y-48166000D01*
X72585000Y-48481000D02*
X72585000Y-48166000D01*
X72585000Y-50906000D02*
X67345000Y-50906000D01*
X72585000Y-50906000D02*
X72585000Y-50591000D01*
%TO.C,C16*%
X88566000Y-70512000D02*
X88566000Y-70827000D01*
X88566000Y-70512000D02*
X93806000Y-70512000D01*
X88566000Y-72937000D02*
X88566000Y-73252000D01*
X88566000Y-73252000D02*
X93806000Y-73252000D01*
X93806000Y-70512000D02*
X93806000Y-70827000D01*
X93806000Y-72937000D02*
X93806000Y-73252000D01*
%TO.C,C17*%
X91924000Y-67354888D02*
X90384000Y-67354888D01*
X91924000Y-67394888D02*
X90384000Y-67394888D01*
X91924000Y-67434888D02*
X90385000Y-67434888D01*
X91924000Y-67474888D02*
X90386000Y-67474888D01*
X91924000Y-67514888D02*
X90388000Y-67514888D01*
X91924000Y-67554888D02*
X90391000Y-67554888D01*
X91924000Y-67594888D02*
X90395000Y-67594888D01*
X91924000Y-67634888D02*
X90399000Y-67634888D01*
X91924000Y-67674888D02*
X90403000Y-67674888D01*
X91924000Y-67714888D02*
X90408000Y-67714888D01*
X91924000Y-67754888D02*
X90414000Y-67754888D01*
X91924000Y-67794888D02*
X90421000Y-67794888D01*
X91924000Y-67834888D02*
X90428000Y-67834888D01*
X91924000Y-67874888D02*
X90436000Y-67874888D01*
X91924000Y-67914888D02*
X90444000Y-67914888D01*
X91924000Y-67954888D02*
X90453000Y-67954888D01*
X91924000Y-67994888D02*
X90463000Y-67994888D01*
X91924000Y-68034888D02*
X90473000Y-68034888D01*
X91924000Y-68075888D02*
X90484000Y-68075888D01*
X91924000Y-68115888D02*
X90496000Y-68115888D01*
X91924000Y-68155888D02*
X90509000Y-68155888D01*
X91924000Y-68195888D02*
X90522000Y-68195888D01*
X91924000Y-68235888D02*
X90536000Y-68235888D01*
X91924000Y-68275888D02*
X90550000Y-68275888D01*
X91924000Y-68315888D02*
X90566000Y-68315888D01*
X91924000Y-68355888D02*
X90582000Y-68355888D01*
X91924000Y-68395888D02*
X90599000Y-68395888D01*
X91924000Y-68435888D02*
X90616000Y-68435888D01*
X91924000Y-68475888D02*
X90635000Y-68475888D01*
X91924000Y-68515888D02*
X90654000Y-68515888D01*
X91924000Y-68555888D02*
X90674000Y-68555888D01*
X91924000Y-68595888D02*
X90696000Y-68595888D01*
X91924000Y-68635888D02*
X90717000Y-68635888D01*
X91924000Y-68675888D02*
X90740000Y-68675888D01*
X91924000Y-68715888D02*
X90764000Y-68715888D01*
X91924000Y-68755888D02*
X90789000Y-68755888D01*
X91924000Y-68795888D02*
X90815000Y-68795888D01*
X91924000Y-68835888D02*
X90842000Y-68835888D01*
X91924000Y-68875888D02*
X90869000Y-68875888D01*
X91924000Y-68915888D02*
X90899000Y-68915888D01*
X91924000Y-68955888D02*
X90929000Y-68955888D01*
X91924000Y-68995888D02*
X90960000Y-68995888D01*
X91924000Y-69035888D02*
X90993000Y-69035888D01*
X91924000Y-69075888D02*
X91027000Y-69075888D01*
X91924000Y-69115888D02*
X91063000Y-69115888D01*
X91924000Y-69155888D02*
X91100000Y-69155888D01*
X91924000Y-69195888D02*
X91138000Y-69195888D01*
X91924000Y-69235888D02*
X91179000Y-69235888D01*
X91924000Y-69275888D02*
X91221000Y-69275888D01*
X91924000Y-69315888D02*
X91265000Y-69315888D01*
X91924000Y-69355888D02*
X91311000Y-69355888D01*
X93248000Y-69955888D02*
X92680000Y-69955888D01*
X93482000Y-69915888D02*
X92446000Y-69915888D01*
X93641000Y-69875888D02*
X92287000Y-69875888D01*
X93769000Y-69835888D02*
X92159000Y-69835888D01*
X93879000Y-69795888D02*
X92049000Y-69795888D01*
X93975000Y-69755888D02*
X91953000Y-69755888D01*
X94062000Y-69715888D02*
X91866000Y-69715888D01*
X94142000Y-69675888D02*
X91786000Y-69675888D01*
X94215000Y-69635888D02*
X91713000Y-69635888D01*
X94283000Y-69595888D02*
X91645000Y-69595888D01*
X94347000Y-69555888D02*
X91581000Y-69555888D01*
X94407000Y-69515888D02*
X91521000Y-69515888D01*
X94439000Y-64550113D02*
X94439000Y-65050113D01*
X94464000Y-69475888D02*
X91464000Y-69475888D01*
X94518000Y-69435888D02*
X91410000Y-69435888D01*
X94569000Y-69395888D02*
X91359000Y-69395888D01*
X94617000Y-69355888D02*
X94004000Y-69355888D01*
X94663000Y-69315888D02*
X94004000Y-69315888D01*
X94689000Y-64800113D02*
X94189000Y-64800113D01*
X94707000Y-69275888D02*
X94004000Y-69275888D01*
X94749000Y-69235888D02*
X94004000Y-69235888D01*
X94790000Y-69195888D02*
X94004000Y-69195888D01*
X94828000Y-69155888D02*
X94004000Y-69155888D01*
X94865000Y-69115888D02*
X94004000Y-69115888D01*
X94901000Y-69075888D02*
X94004000Y-69075888D01*
X94935000Y-69035888D02*
X94004000Y-69035888D01*
X94968000Y-68995888D02*
X94004000Y-68995888D01*
X94999000Y-68955888D02*
X94004000Y-68955888D01*
X95029000Y-68915888D02*
X94004000Y-68915888D01*
X95059000Y-68875888D02*
X94004000Y-68875888D01*
X95086000Y-68835888D02*
X94004000Y-68835888D01*
X95113000Y-68795888D02*
X94004000Y-68795888D01*
X95139000Y-68755888D02*
X94004000Y-68755888D01*
X95164000Y-68715888D02*
X94004000Y-68715888D01*
X95188000Y-68675888D02*
X94004000Y-68675888D01*
X95211000Y-68635888D02*
X94004000Y-68635888D01*
X95232000Y-68595888D02*
X94004000Y-68595888D01*
X95254000Y-68555888D02*
X94004000Y-68555888D01*
X95274000Y-68515888D02*
X94004000Y-68515888D01*
X95293000Y-68475888D02*
X94004000Y-68475888D01*
X95312000Y-68435888D02*
X94004000Y-68435888D01*
X95329000Y-68395888D02*
X94004000Y-68395888D01*
X95346000Y-68355888D02*
X94004000Y-68355888D01*
X95362000Y-68315888D02*
X94004000Y-68315888D01*
X95378000Y-68275888D02*
X94004000Y-68275888D01*
X95392000Y-68235888D02*
X94004000Y-68235888D01*
X95406000Y-68195888D02*
X94004000Y-68195888D01*
X95419000Y-68155888D02*
X94004000Y-68155888D01*
X95432000Y-68115888D02*
X94004000Y-68115888D01*
X95444000Y-68075888D02*
X94004000Y-68075888D01*
X95455000Y-68034888D02*
X94004000Y-68034888D01*
X95465000Y-67994888D02*
X94004000Y-67994888D01*
X95475000Y-67954888D02*
X94004000Y-67954888D01*
X95484000Y-67914888D02*
X94004000Y-67914888D01*
X95492000Y-67874888D02*
X94004000Y-67874888D01*
X95500000Y-67834888D02*
X94004000Y-67834888D01*
X95507000Y-67794888D02*
X94004000Y-67794888D01*
X95514000Y-67754888D02*
X94004000Y-67754888D01*
X95520000Y-67714888D02*
X94004000Y-67714888D01*
X95525000Y-67674888D02*
X94004000Y-67674888D01*
X95529000Y-67634888D02*
X94004000Y-67634888D01*
X95533000Y-67594888D02*
X94004000Y-67594888D01*
X95537000Y-67554888D02*
X94004000Y-67554888D01*
X95540000Y-67514888D02*
X94004000Y-67514888D01*
X95542000Y-67474888D02*
X94004000Y-67474888D01*
X95543000Y-67434888D02*
X94004000Y-67434888D01*
X95544000Y-67354888D02*
X94004000Y-67354888D01*
X95544000Y-67394888D02*
X94004000Y-67394888D01*
X95584000Y-67354888D02*
G75*
G02*
X90344000Y-67354888I-2620000J0D01*
G01*
X90344000Y-67354888D02*
G75*
G02*
X95584000Y-67354888I2620000J0D01*
G01*
%TD*%
M02*
