%TF.GenerationSoftware,KiCad,Pcbnew,8.0.2-8.0.2-0~ubuntu22.04.1*%
%TF.CreationDate,2024-05-30T13:23:40+02:00*%
%TF.ProjectId,Version 1,56657273-696f-46e2-9031-2e6b69636164,1*%
%TF.SameCoordinates,Original*%
%TF.FileFunction,Soldermask,Top*%
%TF.FilePolarity,Negative*%
%FSLAX46Y46*%
G04 Gerber Fmt 4.6, Leading zero omitted, Abs format (unit mm)*
G04 Created by KiCad (PCBNEW 8.0.2-8.0.2-0~ubuntu22.04.1) date 2024-05-30 13:23:40*
%MOMM*%
%LPD*%
G01*
G04 APERTURE LIST*
G04 Aperture macros list*
%AMRoundRect*
0 Rectangle with rounded corners*
0 $1 Rounding radius*
0 $2 $3 $4 $5 $6 $7 $8 $9 X,Y pos of 4 corners*
0 Add a 4 corners polygon primitive as box body*
4,1,4,$2,$3,$4,$5,$6,$7,$8,$9,$2,$3,0*
0 Add four circle primitives for the rounded corners*
1,1,$1+$1,$2,$3*
1,1,$1+$1,$4,$5*
1,1,$1+$1,$6,$7*
1,1,$1+$1,$8,$9*
0 Add four rect primitives between the rounded corners*
20,1,$1+$1,$2,$3,$4,$5,0*
20,1,$1+$1,$4,$5,$6,$7,0*
20,1,$1+$1,$6,$7,$8,$9,0*
20,1,$1+$1,$8,$9,$2,$3,0*%
%AMRotRect*
0 Rectangle, with rotation*
0 The origin of the aperture is its center*
0 $1 length*
0 $2 width*
0 $3 Rotation angle, in degrees counterclockwise*
0 Add horizontal line*
21,1,$1,$2,0,0,$3*%
G04 Aperture macros list end*
%ADD10R,0.600000X1.100000*%
%ADD11R,1.700000X1.700000*%
%ADD12O,1.700000X1.700000*%
%ADD13RoundRect,0.250000X0.500000X-0.250000X0.500000X0.250000X-0.500000X0.250000X-0.500000X-0.250000X0*%
%ADD14C,2.000000*%
%ADD15R,0.375000X0.350000*%
%ADD16R,0.350000X0.375000*%
%ADD17C,1.600000*%
%ADD18O,1.600000X1.600000*%
%ADD19R,1.600000X1.600000*%
%ADD20RoundRect,0.102000X0.373000X0.323000X-0.373000X0.323000X-0.373000X-0.323000X0.373000X-0.323000X0*%
%ADD21RoundRect,0.100000X-0.225000X-0.100000X0.225000X-0.100000X0.225000X0.100000X-0.225000X0.100000X0*%
%ADD22RoundRect,0.000001X-0.900000X-0.750000X0.900000X-0.750000X0.900000X0.750000X-0.900000X0.750000X0*%
%ADD23RoundRect,0.000001X-0.750000X-0.900000X0.750000X-0.900000X0.750000X0.900000X-0.750000X0.900000X0*%
%ADD24RoundRect,0.225000X-0.250000X0.225000X-0.250000X-0.225000X0.250000X-0.225000X0.250000X0.225000X0*%
%ADD25RoundRect,0.062500X-0.220971X-0.309359X0.309359X0.220971X0.220971X0.309359X-0.309359X-0.220971X0*%
%ADD26RoundRect,0.062500X0.220971X-0.309359X0.309359X-0.220971X-0.220971X0.309359X-0.309359X0.220971X0*%
%ADD27RotRect,5.600000X5.600000X45.000000*%
G04 APERTURE END LIST*
D10*
%TO.C,Y1*%
X63919111Y-21800222D03*
X65319111Y-21800222D03*
%TD*%
D11*
%TO.C,J8*%
X103316000Y-50742500D03*
D12*
X100776000Y-50742500D03*
X98236000Y-50742500D03*
X95696000Y-50742500D03*
X93156000Y-50742500D03*
%TD*%
D13*
%TO.C,U1*%
X73509111Y-26626222D03*
X73509111Y-27896222D03*
X73509111Y-29166222D03*
X73509111Y-30436222D03*
X73509111Y-31706222D03*
X73509111Y-32976222D03*
X73509111Y-34246222D03*
X73509111Y-35516222D03*
X73509111Y-36786222D03*
X73509111Y-38056222D03*
X73509111Y-39326222D03*
X55729111Y-26626222D03*
X55729111Y-27896222D03*
X55729111Y-29166222D03*
X55729111Y-30436222D03*
X55729111Y-31706222D03*
X55729111Y-32976222D03*
X55729111Y-34246222D03*
X55729111Y-35516222D03*
X55729111Y-36786222D03*
X55729111Y-38056222D03*
X55729111Y-39326222D03*
%TD*%
D14*
%TO.C,USR_SW1*%
X61623111Y-45204222D03*
X68123111Y-45204222D03*
X61623111Y-49704222D03*
X68123111Y-49704222D03*
%TD*%
D15*
%TO.C,U4*%
X95192500Y-53802500D03*
X95192500Y-54302500D03*
X95192500Y-54802500D03*
X95192500Y-55302500D03*
D16*
X95705000Y-55315000D03*
X96205000Y-55315000D03*
D15*
X96717500Y-55302500D03*
X96717500Y-54802500D03*
X96717500Y-54302500D03*
X96717500Y-53802500D03*
D16*
X96205000Y-53790000D03*
X95705000Y-53790000D03*
%TD*%
D11*
%TO.C,J9*%
X73494111Y-56090222D03*
D12*
X70954111Y-56090222D03*
X68414111Y-56090222D03*
X65874111Y-56090222D03*
X63334111Y-56090222D03*
X60794111Y-56090222D03*
X58254111Y-56090222D03*
X55714111Y-56090222D03*
%TD*%
D11*
%TO.C,J2*%
X51919111Y-41612222D03*
D12*
X51919111Y-39072222D03*
X51919111Y-36532222D03*
X51919111Y-33992222D03*
X51919111Y-31452222D03*
X51919111Y-28912222D03*
X51919111Y-26372222D03*
X51919111Y-23832222D03*
%TD*%
D17*
%TO.C,R1*%
X22410544Y-48166680D03*
D18*
X32570544Y-48166680D03*
%TD*%
D17*
%TO.C,C15*%
X95741000Y-58108500D03*
X100741000Y-58108500D03*
%TD*%
%TO.C,R4*%
X61571111Y-52788222D03*
D18*
X51411111Y-52788222D03*
%TD*%
D17*
%TO.C,C6*%
X77319111Y-37334222D03*
X77319111Y-42334222D03*
%TD*%
D19*
%TO.C,C10*%
X38372769Y-49817680D03*
D17*
X36372769Y-49817680D03*
%TD*%
%TO.C,C11*%
X101162111Y-22027222D03*
X106162111Y-22027222D03*
%TD*%
%TO.C,R3*%
X63857111Y-52788222D03*
D18*
X74017111Y-52788222D03*
%TD*%
D17*
%TO.C,C5*%
X61531111Y-21800222D03*
X56531111Y-21800222D03*
%TD*%
%TO.C,C13*%
X92907000Y-53825500D03*
X92907000Y-58825500D03*
%TD*%
%TO.C,R2*%
X22410544Y-51214680D03*
D18*
X32570544Y-51214680D03*
%TD*%
D20*
%TO.C,Y2*%
X27250344Y-41698880D03*
X25800344Y-41698880D03*
X25800344Y-42848880D03*
X27250344Y-42848880D03*
%TD*%
D17*
%TO.C,C2*%
X34907344Y-29889480D03*
X34907344Y-24889480D03*
%TD*%
D21*
%TO.C,G1*%
X71797111Y-48836222D03*
X71797111Y-49486222D03*
X71797111Y-50136222D03*
X73697111Y-50136222D03*
X73697111Y-49486222D03*
X73697111Y-48836222D03*
%TD*%
D22*
%TO.C,U3*%
X92744111Y-27918222D03*
X92744111Y-29818222D03*
X92744111Y-31718222D03*
X92744111Y-33618222D03*
X92744111Y-35518222D03*
D23*
X95544111Y-38318222D03*
X97444111Y-38318222D03*
X99344111Y-38318222D03*
X101244111Y-38318222D03*
X103144111Y-38318222D03*
D22*
X105944111Y-35518222D03*
X105944111Y-33618222D03*
X105944111Y-31718222D03*
X105944111Y-29818222D03*
X105944111Y-27918222D03*
D23*
X103144111Y-25118222D03*
X101244111Y-25118222D03*
X99344111Y-25118222D03*
X97444111Y-25118222D03*
X95544111Y-25118222D03*
%TD*%
D11*
%TO.C,J6*%
X109504111Y-36793222D03*
D12*
X109504111Y-34253222D03*
X109504111Y-31713222D03*
X109504111Y-29173222D03*
X109504111Y-26633222D03*
%TD*%
D14*
%TO.C,RST_SW1*%
X51971111Y-45204222D03*
X58471111Y-45204222D03*
X51971111Y-49704222D03*
X58471111Y-49704222D03*
%TD*%
D11*
%TO.C,J1*%
X77319111Y-33992222D03*
D12*
X77319111Y-31452222D03*
X77319111Y-28912222D03*
X77319111Y-26372222D03*
X77319111Y-23832222D03*
%TD*%
D17*
%TO.C,C4*%
X67741511Y-21800222D03*
X72741511Y-21800222D03*
%TD*%
%TO.C,C7*%
X26057344Y-45118680D03*
X31057344Y-45118680D03*
%TD*%
D24*
%TO.C,C9*%
X27388944Y-38704880D03*
X27388944Y-40254880D03*
%TD*%
%TO.C,C8*%
X25712544Y-38704880D03*
X25712544Y-40254880D03*
%TD*%
D17*
%TO.C,C3*%
X26677744Y-29889480D03*
X26677744Y-24889480D03*
%TD*%
%TO.C,C14*%
X98535000Y-54806500D03*
X103535000Y-54806500D03*
%TD*%
%TO.C,C1*%
X34905111Y-38870222D03*
X34905111Y-43870222D03*
%TD*%
D25*
%TO.C,U2*%
X26417321Y-34740039D03*
X26770874Y-35093592D03*
X27124428Y-35447146D03*
X27477981Y-35800699D03*
X27831534Y-36154252D03*
X28185088Y-36507806D03*
X28538641Y-36861359D03*
X28892195Y-37214913D03*
X29245748Y-37568466D03*
X29599301Y-37922019D03*
X29952855Y-38275573D03*
X30306408Y-38629126D03*
D26*
X31278680Y-38629126D03*
X31632233Y-38275573D03*
X31985787Y-37922019D03*
X32339340Y-37568466D03*
X32692893Y-37214913D03*
X33046447Y-36861359D03*
X33400000Y-36507806D03*
X33753554Y-36154252D03*
X34107107Y-35800699D03*
X34460660Y-35447146D03*
X34814214Y-35093592D03*
X35167767Y-34740039D03*
D25*
X35167767Y-33767767D03*
X34814214Y-33414214D03*
X34460660Y-33060660D03*
X34107107Y-32707107D03*
X33753554Y-32353554D03*
X33400000Y-32000000D03*
X33046447Y-31646447D03*
X32692893Y-31292893D03*
X32339340Y-30939340D03*
X31985787Y-30585787D03*
X31632233Y-30232233D03*
X31278680Y-29878680D03*
D26*
X30306408Y-29878680D03*
X29952855Y-30232233D03*
X29599301Y-30585787D03*
X29245748Y-30939340D03*
X28892195Y-31292893D03*
X28538641Y-31646447D03*
X28185088Y-32000000D03*
X27831534Y-32353554D03*
X27477981Y-32707107D03*
X27124428Y-33060660D03*
X26770874Y-33414214D03*
X26417321Y-33767767D03*
D27*
X30792544Y-34253903D03*
%TD*%
D11*
%TO.C,J7*%
X89184111Y-36793222D03*
D12*
X89184111Y-34253222D03*
X89184111Y-31713222D03*
X89184111Y-29173222D03*
X89184111Y-26633222D03*
%TD*%
D17*
%TO.C,C12*%
X92526111Y-22027222D03*
X97526111Y-22027222D03*
%TD*%
%TO.C,C16*%
X77319111Y-49446222D03*
X77319111Y-44446222D03*
%TD*%
D19*
%TO.C,C17*%
X71791999Y-45168222D03*
D17*
X73791999Y-45168222D03*
%TD*%
D11*
%TO.C,J4*%
X23172544Y-44864680D03*
D12*
X23172544Y-42324680D03*
X23172544Y-39784680D03*
X23172544Y-37244680D03*
X23172544Y-34704680D03*
X23172544Y-32164680D03*
X23172544Y-29624680D03*
X23172544Y-27084680D03*
X23172544Y-24544680D03*
X23172544Y-22004680D03*
%TD*%
D11*
%TO.C,J3*%
X34592544Y-22004680D03*
D12*
X32052544Y-22004680D03*
X29512544Y-22004680D03*
X26972544Y-22004680D03*
%TD*%
D11*
%TO.C,J5*%
X38412544Y-44864680D03*
D12*
X38412544Y-42324680D03*
X38412544Y-39784680D03*
X38412544Y-37244680D03*
X38412544Y-34704680D03*
X38412544Y-32164680D03*
X38412544Y-29624680D03*
X38412544Y-27084680D03*
X38412544Y-24544680D03*
X38412544Y-22004680D03*
%TD*%
M02*
