%TF.GenerationSoftware,KiCad,Pcbnew,8.0.2-8.0.2-0~ubuntu22.04.1*%
%TF.CreationDate,2024-05-31T00:48:12+02:00*%
%TF.ProjectId,Version 1,56657273-696f-46e2-9031-2e6b69636164,1*%
%TF.SameCoordinates,Original*%
%TF.FileFunction,Soldermask,Bot*%
%TF.FilePolarity,Negative*%
%FSLAX46Y46*%
G04 Gerber Fmt 4.6, Leading zero omitted, Abs format (unit mm)*
G04 Created by KiCad (PCBNEW 8.0.2-8.0.2-0~ubuntu22.04.1) date 2024-05-31 00:48:12*
%MOMM*%
%LPD*%
G01*
G04 APERTURE LIST*
%ADD10C,2.000000*%
%ADD11R,1.700000X1.700000*%
%ADD12O,1.700000X1.700000*%
%ADD13C,1.600000*%
%ADD14O,1.600000X1.600000*%
%ADD15R,1.600000X1.600000*%
G04 APERTURE END LIST*
D10*
%TO.C,USR_SW1*%
X92928000Y-56186000D03*
X92928000Y-62686000D03*
X88428000Y-56186000D03*
X88428000Y-62686000D03*
%TD*%
D11*
%TO.C,J9*%
X82042000Y-68057000D03*
D12*
X82042000Y-65517000D03*
X82042000Y-62977000D03*
X82042000Y-60437000D03*
X82042000Y-57897000D03*
X82042000Y-55357000D03*
X82042000Y-52817000D03*
X82042000Y-50277000D03*
%TD*%
D11*
%TO.C,JP1*%
X57414000Y-72136000D03*
D12*
X54874000Y-72136000D03*
%TD*%
D13*
%TO.C,R1*%
X145214400Y-49282000D03*
D14*
X135054400Y-49282000D03*
%TD*%
D13*
%TO.C,C15*%
X50415000Y-53473000D03*
X55415000Y-53473000D03*
%TD*%
%TO.C,R4*%
X85344000Y-56134000D03*
D14*
X85344000Y-45974000D03*
%TD*%
D13*
%TO.C,C6*%
X100798000Y-71882000D03*
X95798000Y-71882000D03*
%TD*%
D15*
%TO.C,C10*%
X125591000Y-67850113D03*
D13*
X125591000Y-65850113D03*
%TD*%
D11*
%TO.C,JP4*%
X57409000Y-60706000D03*
D12*
X54869000Y-60706000D03*
%TD*%
D13*
%TO.C,C11*%
X76280000Y-68840000D03*
X71280000Y-68840000D03*
%TD*%
%TO.C,R3*%
X85344000Y-58420000D03*
D14*
X85344000Y-68580000D03*
%TD*%
D13*
%TO.C,C5*%
X116332000Y-56094000D03*
X116332000Y-51094000D03*
%TD*%
%TO.C,C13*%
X47450000Y-50807000D03*
X47450000Y-55807000D03*
%TD*%
%TO.C,R2*%
X121100000Y-50124000D03*
D14*
X121100000Y-60284000D03*
%TD*%
D13*
%TO.C,C2*%
X140958000Y-59188000D03*
X140958000Y-64188000D03*
%TD*%
D10*
%TO.C,RESET_SW1*%
X92928000Y-46534000D03*
X92928000Y-53034000D03*
X88428000Y-46534000D03*
X88428000Y-53034000D03*
%TD*%
D11*
%TO.C,JP2*%
X57409000Y-64516000D03*
D12*
X54869000Y-64516000D03*
%TD*%
D13*
%TO.C,C4*%
X116332000Y-62304400D03*
X116332000Y-67304400D03*
%TD*%
%TO.C,C7*%
X124194000Y-50124000D03*
X124194000Y-55124000D03*
%TD*%
%TO.C,C3*%
X135054400Y-52355400D03*
X140054400Y-52355400D03*
%TD*%
%TO.C,C14*%
X53495000Y-50307000D03*
X58495000Y-50307000D03*
%TD*%
D11*
%TO.C,JP3*%
X57409000Y-68326000D03*
D12*
X54869000Y-68326000D03*
%TD*%
D11*
%TO.C,J3*%
X144260000Y-61728000D03*
D12*
X144260000Y-59188000D03*
X144260000Y-56648000D03*
X144260000Y-54108000D03*
%TD*%
D13*
%TO.C,C1*%
X130290000Y-64522000D03*
X130290000Y-69522000D03*
%TD*%
%TO.C,C12*%
X72465000Y-49536000D03*
X67465000Y-49536000D03*
%TD*%
%TO.C,C16*%
X88686000Y-71882000D03*
X93686000Y-71882000D03*
%TD*%
D15*
%TO.C,C17*%
X92964000Y-66354888D03*
D13*
X92964000Y-68354888D03*
%TD*%
D11*
%TO.C,J8*%
X57900000Y-46488000D03*
D12*
X55360000Y-46488000D03*
X52820000Y-46488000D03*
X50280000Y-46488000D03*
X47740000Y-46488000D03*
%TD*%
D11*
%TO.C,J2*%
X98540000Y-46488000D03*
D12*
X101080000Y-46488000D03*
X103620000Y-46488000D03*
X106160000Y-46488000D03*
X108700000Y-46488000D03*
X111240000Y-46488000D03*
X113780000Y-46488000D03*
X116320000Y-46488000D03*
%TD*%
D11*
%TO.C,J6*%
X65520000Y-71888000D03*
D12*
X68060000Y-71888000D03*
X70600000Y-71888000D03*
X73140000Y-71888000D03*
X75680000Y-71888000D03*
%TD*%
D11*
%TO.C,J4*%
X121400000Y-46488000D03*
D12*
X123940000Y-46488000D03*
X126480000Y-46488000D03*
X129020000Y-46488000D03*
X131560000Y-46488000D03*
X134100000Y-46488000D03*
X136640000Y-46488000D03*
X139180000Y-46488000D03*
X141720000Y-46488000D03*
X144260000Y-46488000D03*
%TD*%
D11*
%TO.C,J1*%
X103620000Y-71888000D03*
D12*
X106160000Y-71888000D03*
X108700000Y-71888000D03*
X111240000Y-71888000D03*
X113780000Y-71888000D03*
%TD*%
D11*
%TO.C,J5*%
X121400000Y-71888000D03*
D12*
X123940000Y-71888000D03*
X126480000Y-71888000D03*
X129020000Y-71888000D03*
X131560000Y-71888000D03*
X134100000Y-71888000D03*
X136640000Y-71888000D03*
X139180000Y-71888000D03*
X141720000Y-71888000D03*
X144260000Y-71888000D03*
%TD*%
D11*
%TO.C,J7*%
X65520000Y-46488000D03*
D12*
X68060000Y-46488000D03*
X70600000Y-46488000D03*
X73140000Y-46488000D03*
X75680000Y-46488000D03*
%TD*%
M02*
