%TF.GenerationSoftware,KiCad,Pcbnew,8.0.2-8.0.2-0~ubuntu22.04.1*%
%TF.CreationDate,2024-05-30T13:23:40+02:00*%
%TF.ProjectId,Version 1,56657273-696f-46e2-9031-2e6b69636164,1*%
%TF.SameCoordinates,Original*%
%TF.FileFunction,Copper,L2,Bot*%
%TF.FilePolarity,Positive*%
%FSLAX46Y46*%
G04 Gerber Fmt 4.6, Leading zero omitted, Abs format (unit mm)*
G04 Created by KiCad (PCBNEW 8.0.2-8.0.2-0~ubuntu22.04.1) date 2024-05-30 13:23:40*
%MOMM*%
%LPD*%
G01*
G04 APERTURE LIST*
%TA.AperFunction,ComponentPad*%
%ADD10R,1.700000X1.700000*%
%TD*%
%TA.AperFunction,ComponentPad*%
%ADD11O,1.700000X1.700000*%
%TD*%
%TA.AperFunction,ComponentPad*%
%ADD12C,2.000000*%
%TD*%
%TA.AperFunction,ComponentPad*%
%ADD13C,1.600000*%
%TD*%
%TA.AperFunction,ComponentPad*%
%ADD14O,1.600000X1.600000*%
%TD*%
%TA.AperFunction,ComponentPad*%
%ADD15R,1.600000X1.600000*%
%TD*%
%TA.AperFunction,ViaPad*%
%ADD16C,0.500000*%
%TD*%
%TA.AperFunction,ViaPad*%
%ADD17C,0.600000*%
%TD*%
%TA.AperFunction,Conductor*%
%ADD18C,0.200000*%
%TD*%
G04 APERTURE END LIST*
D10*
%TO.P,J8,1,Pin_1*%
%TO.N,+3.3V4*%
X103316000Y-50742500D03*
D11*
%TO.P,J8,2,Pin_2*%
%TO.N,DRDY*%
X100776000Y-50742500D03*
%TO.P,J8,3,Pin_3*%
%TO.N,/SCL2*%
X98236000Y-50742500D03*
%TO.P,J8,4,Pin_4*%
%TO.N,/SDA2*%
X95696000Y-50742500D03*
%TO.P,J8,5,Pin_5*%
%TO.N,GND4*%
X93156000Y-50742500D03*
%TD*%
D12*
%TO.P,USR_SW1,1,A*%
%TO.N,GND2*%
X61623111Y-45204222D03*
X68123111Y-45204222D03*
%TO.P,USR_SW1,2,B*%
%TO.N,/USR_Key*%
X61623111Y-49704222D03*
X68123111Y-49704222D03*
%TD*%
D10*
%TO.P,J9,1,Pin_1*%
%TO.N,+3.3V2*%
X73494111Y-56090222D03*
D11*
%TO.P,J9,2,Pin_2*%
%TO.N,/RTS*%
X70954111Y-56090222D03*
%TO.P,J9,3,Pin_3*%
%TO.N,/DTR*%
X68414111Y-56090222D03*
%TO.P,J9,4,Pin_4*%
%TO.N,/ESPEN*%
X65874111Y-56090222D03*
%TO.P,J9,5,Pin_5*%
%TO.N,/USR_Key*%
X63334111Y-56090222D03*
%TO.P,J9,6,Pin_6*%
%TO.N,/RX*%
X60794111Y-56090222D03*
%TO.P,J9,7,Pin_7*%
%TO.N,/TX*%
X58254111Y-56090222D03*
%TO.P,J9,8,Pin_8*%
%TO.N,GND2*%
X55714111Y-56090222D03*
%TD*%
D10*
%TO.P,J2,1,Pin_1*%
%TO.N,GND2*%
X51919111Y-41612222D03*
D11*
%TO.P,J2,2,Pin_2*%
%TO.N,/GPIO7*%
X51919111Y-39072222D03*
%TO.P,J2,3,Pin_3*%
%TO.N,/GPIO6*%
X51919111Y-36532222D03*
%TO.P,J2,4,Pin_4*%
%TO.N,/GPIO5*%
X51919111Y-33992222D03*
%TO.P,J2,5,Pin_5*%
%TO.N,/GPIO4*%
X51919111Y-31452222D03*
%TO.P,J2,6,Pin_6*%
%TO.N,/GPIO3*%
X51919111Y-28912222D03*
%TO.P,J2,7,Pin_7*%
%TO.N,/GPIO2*%
X51919111Y-26372222D03*
%TO.P,J2,8,Pin_8*%
%TO.N,/ESPEN*%
X51919111Y-23832222D03*
%TD*%
D13*
%TO.P,R1,1*%
%TO.N,GND1*%
X22410544Y-48166680D03*
D14*
%TO.P,R1,2*%
%TO.N,/BOOT0*%
X32570544Y-48166680D03*
%TD*%
D13*
%TO.P,C15,1*%
%TO.N,/C1*%
X95741000Y-58108500D03*
%TO.P,C15,2*%
%TO.N,GND4*%
X100741000Y-58108500D03*
%TD*%
%TO.P,R4,1*%
%TO.N,+3.3V2*%
X61571111Y-52788222D03*
D14*
%TO.P,R4,2*%
%TO.N,/ESPEN*%
X51411111Y-52788222D03*
%TD*%
D13*
%TO.P,C6,1*%
%TO.N,+3.3V2*%
X77319111Y-37334222D03*
%TO.P,C6,2*%
%TO.N,GND2*%
X77319111Y-42334222D03*
%TD*%
D15*
%TO.P,C10,1*%
%TO.N,GND1*%
X38372769Y-49817680D03*
D13*
%TO.P,C10,2*%
%TO.N,/VCAP*%
X36372769Y-49817680D03*
%TD*%
%TO.P,C11,1*%
%TO.N,+3.3V3*%
X101162111Y-22027222D03*
%TO.P,C11,2*%
%TO.N,GND3*%
X106162111Y-22027222D03*
%TD*%
%TO.P,R3,1*%
%TO.N,/USR_Key*%
X63857111Y-52788222D03*
D14*
%TO.P,R3,2*%
%TO.N,+3.3V2*%
X74017111Y-52788222D03*
%TD*%
D13*
%TO.P,C5,1*%
%TO.N,/GPIO0*%
X61531111Y-21800222D03*
%TO.P,C5,2*%
%TO.N,GND2*%
X56531111Y-21800222D03*
%TD*%
%TO.P,C13,1*%
%TO.N,+3.3V4*%
X92907000Y-53825500D03*
%TO.P,C13,2*%
%TO.N,GND4*%
X92907000Y-58825500D03*
%TD*%
%TO.P,R2,1*%
%TO.N,GND1*%
X22410544Y-51214680D03*
D14*
%TO.P,R2,2*%
%TO.N,/BOOT1*%
X32570544Y-51214680D03*
%TD*%
D13*
%TO.P,C2,1*%
%TO.N,+3.3V1*%
X34907344Y-29889480D03*
%TO.P,C2,2*%
%TO.N,GND1*%
X34907344Y-24889480D03*
%TD*%
D10*
%TO.P,J6,1,Pin_1*%
%TO.N,/SDA1*%
X109504111Y-36793222D03*
D11*
%TO.P,J6,2,Pin_2*%
%TO.N,/SCL1*%
X109504111Y-34253222D03*
%TO.P,J6,3,Pin_3*%
%TO.N,/TXD*%
X109504111Y-31713222D03*
%TO.P,J6,4,Pin_4*%
%TO.N,/RXD*%
X109504111Y-29173222D03*
%TO.P,J6,5,Pin_5*%
%TO.N,+3.3V3*%
X109504111Y-26633222D03*
%TD*%
D12*
%TO.P,RST_SW1,1,A*%
%TO.N,GND2*%
X51971111Y-45204222D03*
X58471111Y-45204222D03*
%TO.P,RST_SW1,2,B*%
%TO.N,/ESPEN*%
X51971111Y-49704222D03*
X58471111Y-49704222D03*
%TD*%
D10*
%TO.P,J1,1,Pin_1*%
%TO.N,+3.3V2*%
X77319111Y-33992222D03*
D11*
%TO.P,J1,2,Pin_2*%
%TO.N,/GPIO10*%
X77319111Y-31452222D03*
%TO.P,J1,3,Pin_3*%
%TO.N,/GPIO8*%
X77319111Y-28912222D03*
%TO.P,J1,4,Pin_4*%
%TO.N,/GPIO18*%
X77319111Y-26372222D03*
%TO.P,J1,5,Pin_5*%
%TO.N,/GPIO19*%
X77319111Y-23832222D03*
%TD*%
D13*
%TO.P,C4,1*%
%TO.N,/GPIO1*%
X67741511Y-21800222D03*
%TO.P,C4,2*%
%TO.N,GND2*%
X72741511Y-21800222D03*
%TD*%
%TO.P,C7,1*%
%TO.N,GND1*%
X26057344Y-45118680D03*
%TO.P,C7,2*%
%TO.N,/RS*%
X31057344Y-45118680D03*
%TD*%
%TO.P,C3,1*%
%TO.N,+3.3V1*%
X26677744Y-29889480D03*
%TO.P,C3,2*%
%TO.N,GND1*%
X26677744Y-24889480D03*
%TD*%
%TO.P,C14,1*%
%TO.N,+3.3V4*%
X98535000Y-54806500D03*
%TO.P,C14,2*%
%TO.N,GND4*%
X103535000Y-54806500D03*
%TD*%
%TO.P,C1,1*%
%TO.N,+3.3V1*%
X34905111Y-38870222D03*
%TO.P,C1,2*%
%TO.N,GND1*%
X34905111Y-43870222D03*
%TD*%
D10*
%TO.P,J7,1,Pin_1*%
%TO.N,/SBOOT*%
X89184111Y-36793222D03*
D11*
%TO.P,J7,2,Pin_2*%
%TO.N,/TPULSE*%
X89184111Y-34253222D03*
%TO.P,J7,3,Pin_3*%
%TO.N,GND3*%
X89184111Y-31713222D03*
%TO.P,J7,4,Pin_4*%
%TO.N,/EXTINT*%
X89184111Y-29173222D03*
%TO.P,J7,5,Pin_5*%
%TO.N,/RST*%
X89184111Y-26633222D03*
%TD*%
D13*
%TO.P,C12,1*%
%TO.N,+3.3V3*%
X92526111Y-22027222D03*
%TO.P,C12,2*%
%TO.N,GND3*%
X97526111Y-22027222D03*
%TD*%
%TO.P,C16,1*%
%TO.N,/DTR*%
X77319111Y-49446222D03*
%TO.P,C16,2*%
%TO.N,/ESPEN*%
X77319111Y-44446222D03*
%TD*%
D15*
%TO.P,C17,1*%
%TO.N,GND2*%
X71791999Y-45168222D03*
D13*
%TO.P,C17,2*%
%TO.N,/ESPEN*%
X73791999Y-45168222D03*
%TD*%
D10*
%TO.P,J4,1,Pin_1*%
%TO.N,TIM2_CH3*%
X23172544Y-44864680D03*
D11*
%TO.P,J4,2,Pin_2*%
%TO.N,TIM2_CH2*%
X23172544Y-42324680D03*
%TO.P,J4,3,Pin_3*%
%TO.N,TIM2_CH1*%
X23172544Y-39784680D03*
%TO.P,J4,4,Pin_4*%
%TO.N,GND1*%
X23172544Y-37244680D03*
%TO.P,J4,5,Pin_5*%
%TO.N,+3.3V1*%
X23172544Y-34704680D03*
%TO.P,J4,6,Pin_6*%
%TO.N,I2C1_SDA*%
X23172544Y-32164680D03*
%TO.P,J4,7,Pin_7*%
%TO.N,I2C1_SCL*%
X23172544Y-29624680D03*
%TO.P,J4,8,Pin_8*%
%TO.N,GND1*%
X23172544Y-27084680D03*
%TO.P,J4,9,Pin_9*%
%TO.N,EXTI4*%
X23172544Y-24544680D03*
%TO.P,J4,10,Pin_10*%
%TO.N,unconnected-(J4-Pin_10-Pad10)*%
X23172544Y-22004680D03*
%TD*%
D10*
%TO.P,J3,1,Pin_1*%
%TO.N,+3.3V1*%
X34592544Y-22004680D03*
D11*
%TO.P,J3,2,Pin_2*%
%TO.N,/SWDIO*%
X32052544Y-22004680D03*
%TO.P,J3,3,Pin_3*%
%TO.N,/SWCLK*%
X29512544Y-22004680D03*
%TO.P,J3,4,Pin_4*%
%TO.N,GND*%
X26972544Y-22004680D03*
%TD*%
D10*
%TO.P,J5,1,Pin_1*%
%TO.N,+3.3V1*%
X38412544Y-44864680D03*
D11*
%TO.P,J5,2,Pin_2*%
%TO.N,I2C2_SCL*%
X38412544Y-42324680D03*
%TO.P,J5,3,Pin_3*%
%TO.N,I2C2_SDA*%
X38412544Y-39784680D03*
%TO.P,J5,4,Pin_4*%
%TO.N,GND1*%
X38412544Y-37244680D03*
%TO.P,J5,5,Pin_5*%
%TO.N,TIM1_CH1*%
X38412544Y-34704680D03*
%TO.P,J5,6,Pin_6*%
%TO.N,TIM1_CH1N*%
X38412544Y-32164680D03*
%TO.P,J5,7,Pin_7*%
%TO.N,TIM1_CH2*%
X38412544Y-29624680D03*
%TO.P,J5,8,Pin_8*%
%TO.N,TIM1_CH2N*%
X38412544Y-27084680D03*
%TO.P,J5,9,Pin_9*%
%TO.N,TIM1_CH3*%
X38412544Y-24544680D03*
%TO.P,J5,10,Pin_10*%
%TO.N,TIM1_CH3N*%
X38412544Y-22004680D03*
%TD*%
D16*
%TO.N,*%
X88900000Y-53340000D03*
X88900000Y-52324000D03*
X81280000Y-32258000D03*
X97028000Y-43180000D03*
X81280000Y-35306000D03*
X83820000Y-30734000D03*
X81280000Y-53340000D03*
X45720000Y-38100000D03*
X83820000Y-34544000D03*
X81280000Y-30734000D03*
X83820000Y-31496000D03*
X45720000Y-37338000D03*
X83820000Y-33782000D03*
X43180000Y-36576000D03*
X96266000Y-45720000D03*
X100076000Y-43180000D03*
X83820000Y-33020000D03*
X81280000Y-31496000D03*
X45720000Y-36576000D03*
X96266000Y-43180000D03*
X97790000Y-45720000D03*
X43180000Y-39624000D03*
X43180000Y-38100000D03*
X95504000Y-45720000D03*
X97790000Y-43180000D03*
X81280000Y-52324000D03*
X81280000Y-54356000D03*
X45720000Y-38862000D03*
X81280000Y-33782000D03*
X43180000Y-38862000D03*
X97028000Y-45720000D03*
X43180000Y-35814000D03*
X45720000Y-35814000D03*
X81280000Y-34544000D03*
X99314000Y-45720000D03*
X100076000Y-45720000D03*
X81280000Y-33020000D03*
X45720000Y-40386000D03*
X43180000Y-40386000D03*
X98552000Y-45720000D03*
X95504000Y-43180000D03*
X99314000Y-43180000D03*
X83820000Y-35306000D03*
X83820000Y-32258000D03*
X88900000Y-54356000D03*
X45720000Y-39624000D03*
X43180000Y-37338000D03*
X98552000Y-43180000D03*
D17*
%TO.N,I2C2_SDA*%
X29219234Y-29640036D03*
%TO.N,TIM2_CH1*%
X29172544Y-39744680D03*
%TO.N,TIM2_CH2*%
X29972547Y-39744680D03*
%TO.N,TIM2_CH3*%
X30772550Y-39744680D03*
%TO.N,I2C2_SCL*%
X34673084Y-36975859D03*
%TO.N,TIM1_CH3*%
X36253544Y-25941680D03*
%TO.N,TIM1_CH1*%
X34519274Y-31446410D03*
%TO.N,TIM1_CH2*%
X36262544Y-28989680D03*
%TO.N,/BOOT0*%
X26982544Y-31529680D03*
X32570544Y-39149680D03*
%TO.N,/RTS*%
X70461111Y-49486222D03*
%TO.N,/ESPEN*%
X57621846Y-27248957D03*
X57761111Y-29928222D03*
%TO.N,+3.3V1*%
X31935544Y-28100680D03*
%TO.N,+3.3V3*%
X90962111Y-28631222D03*
%TO.N,GND1*%
X25712544Y-37625680D03*
X27219111Y-37624798D03*
X32302544Y-29370680D03*
X36253544Y-36101680D03*
X27998544Y-43975680D03*
X26093544Y-32545680D03*
%TO.N,GND2*%
X71223111Y-27896222D03*
X75287111Y-37548222D03*
%TO.N,GND3*%
X93020376Y-37240957D03*
X104932111Y-38283222D03*
X105948111Y-26091222D03*
X93816376Y-25389487D03*
X105948111Y-37267222D03*
X93782376Y-38002957D03*
X104932111Y-25075222D03*
X93126111Y-26137566D03*
%TO.N,GND4*%
X96717000Y-56325500D03*
%TO.N,/USR_Key*%
X69953111Y-47454222D03*
%TO.N,/TX*%
X55475111Y-49104222D03*
X55475111Y-50304222D03*
%TO.N,/RX*%
X56491111Y-50304222D03*
X56491111Y-49104222D03*
%TD*%
D18*
%TO.N,I2C2_SDA*%
X29219234Y-29640036D02*
X35273084Y-35693886D01*
X35273084Y-35693886D02*
X35273084Y-36645220D01*
X35273084Y-36645220D02*
X38412544Y-39784680D01*
%TO.N,TIM2_CH1*%
X28532544Y-39784680D02*
X23172544Y-39784680D01*
X29172544Y-39744680D02*
X28572544Y-39744680D01*
X28572544Y-39744680D02*
X28532544Y-39784680D01*
%TO.N,TIM2_CH2*%
X29972547Y-39793206D02*
X27441073Y-42324680D01*
X27441073Y-42324680D02*
X23172544Y-42324680D01*
X29972547Y-39744680D02*
X29972547Y-39793206D01*
%TO.N,TIM2_CH3*%
X27841076Y-42724680D02*
X25312544Y-42724680D01*
X25312544Y-42724680D02*
X23172544Y-44864680D01*
X30772550Y-39744680D02*
X30772550Y-39793206D01*
X30772550Y-39793206D02*
X27841076Y-42724680D01*
%TO.N,I2C2_SCL*%
X34977214Y-36975859D02*
X37262544Y-39261189D01*
X37262544Y-39261189D02*
X37262544Y-41174680D01*
X34673084Y-36975859D02*
X34977214Y-36975859D01*
X37262544Y-41174680D02*
X38412544Y-42324680D01*
%TO.N,TIM1_CH3*%
X38412544Y-24544680D02*
X37015544Y-25941680D01*
X37015544Y-25941680D02*
X36253544Y-25941680D01*
%TO.N,TIM1_CH1*%
X35154274Y-31446410D02*
X38412544Y-34704680D01*
X34519274Y-31446410D02*
X35154274Y-31446410D01*
%TO.N,TIM1_CH2*%
X38412544Y-29624680D02*
X36897544Y-29624680D01*
X36897544Y-29624680D02*
X36262544Y-28989680D01*
%TO.N,/BOOT0*%
X32570544Y-37117680D02*
X32570544Y-39149680D01*
X26982544Y-31529680D02*
X32570544Y-37117680D01*
%TO.N,/RTS*%
X70461111Y-49486222D02*
X70461111Y-55597222D01*
X70461111Y-55597222D02*
X70954111Y-56090222D01*
%TO.N,/ESPEN*%
X57621846Y-27248957D02*
X57761111Y-27388222D01*
X57761111Y-27388222D02*
X57761111Y-29928222D01*
%TO.N,+3.3V1*%
X28466544Y-28100680D02*
X31935544Y-28100680D01*
X33118544Y-28100680D02*
X34907344Y-29889480D01*
X31935544Y-28100680D02*
X33118544Y-28100680D01*
X26677744Y-29889480D02*
X28466544Y-28100680D01*
%TO.N,+3.3V3*%
X90962111Y-28631222D02*
X90962111Y-27869222D01*
X92526111Y-26305222D02*
X92526111Y-22027222D01*
X90962111Y-27869222D02*
X92526111Y-26305222D01*
%TO.N,+3.3V4*%
X102599000Y-50742500D02*
X98535000Y-54806500D01*
X103316000Y-50742500D02*
X102599000Y-50742500D01*
%TO.N,/USR_Key*%
X68123111Y-49704222D02*
X69953111Y-47874222D01*
X63857111Y-55567222D02*
X63334111Y-56090222D01*
X69953111Y-47874222D02*
X69953111Y-47454222D01*
X63857111Y-52788222D02*
X63857111Y-55567222D01*
%TO.N,/TX*%
X55475111Y-50304222D02*
X55475111Y-49104222D01*
%TO.N,/RX*%
X56491111Y-50304222D02*
X56491111Y-49104222D01*
%TD*%
%TA.AperFunction,Conductor*%
%TO.N,GND4*%
G36*
X105296039Y-48730185D02*
G01*
X105341794Y-48782989D01*
X105353000Y-48834500D01*
X105353000Y-60016500D01*
X105333315Y-60083539D01*
X105280511Y-60129294D01*
X105229000Y-60140500D01*
X93688743Y-60140500D01*
X93621704Y-60120815D01*
X93575949Y-60068011D01*
X93566005Y-59998853D01*
X93595030Y-59935297D01*
X93617618Y-59914926D01*
X93632471Y-59904524D01*
X92953447Y-59225500D01*
X92959661Y-59225500D01*
X93061394Y-59198241D01*
X93152606Y-59145580D01*
X93227080Y-59071106D01*
X93279741Y-58979894D01*
X93307000Y-58878161D01*
X93307000Y-58871947D01*
X93986024Y-59550971D01*
X94037136Y-59477978D01*
X94133264Y-59271831D01*
X94133269Y-59271817D01*
X94192139Y-59052110D01*
X94192141Y-59052099D01*
X94211966Y-58825502D01*
X94211966Y-58825497D01*
X94192141Y-58598900D01*
X94192139Y-58598889D01*
X94133269Y-58379182D01*
X94133264Y-58379168D01*
X94037136Y-58173021D01*
X94037132Y-58173013D01*
X93991957Y-58108498D01*
X94435532Y-58108498D01*
X94435532Y-58108501D01*
X94455364Y-58335186D01*
X94455366Y-58335197D01*
X94514258Y-58554988D01*
X94514261Y-58554997D01*
X94610431Y-58761232D01*
X94610432Y-58761234D01*
X94740954Y-58947641D01*
X94901858Y-59108545D01*
X94901861Y-59108547D01*
X95088266Y-59239068D01*
X95294504Y-59335239D01*
X95514308Y-59394135D01*
X95676230Y-59408301D01*
X95740998Y-59413968D01*
X95741000Y-59413968D01*
X95741002Y-59413968D01*
X95797673Y-59409009D01*
X95967692Y-59394135D01*
X96187496Y-59335239D01*
X96393734Y-59239068D01*
X96580139Y-59108547D01*
X96741047Y-58947639D01*
X96871568Y-58761234D01*
X96967739Y-58554996D01*
X97026635Y-58335192D01*
X97046468Y-58108500D01*
X97046468Y-58108497D01*
X99436034Y-58108497D01*
X99436034Y-58108502D01*
X99455858Y-58335099D01*
X99455860Y-58335110D01*
X99514730Y-58554817D01*
X99514735Y-58554831D01*
X99610863Y-58760978D01*
X99661974Y-58833972D01*
X100341000Y-58154946D01*
X100341000Y-58161161D01*
X100368259Y-58262894D01*
X100420920Y-58354106D01*
X100495394Y-58428580D01*
X100586606Y-58481241D01*
X100688339Y-58508500D01*
X100694553Y-58508500D01*
X100015526Y-59187525D01*
X100088513Y-59238632D01*
X100088521Y-59238636D01*
X100294668Y-59334764D01*
X100294682Y-59334769D01*
X100514389Y-59393639D01*
X100514400Y-59393641D01*
X100740998Y-59413466D01*
X100741002Y-59413466D01*
X100967599Y-59393641D01*
X100967610Y-59393639D01*
X101187317Y-59334769D01*
X101187331Y-59334764D01*
X101393478Y-59238636D01*
X101466471Y-59187524D01*
X100787447Y-58508500D01*
X100793661Y-58508500D01*
X100895394Y-58481241D01*
X100986606Y-58428580D01*
X101061080Y-58354106D01*
X101113741Y-58262894D01*
X101141000Y-58161161D01*
X101141000Y-58154947D01*
X101820024Y-58833971D01*
X101871136Y-58760978D01*
X101967264Y-58554831D01*
X101967269Y-58554817D01*
X102026139Y-58335110D01*
X102026141Y-58335099D01*
X102045966Y-58108502D01*
X102045966Y-58108497D01*
X102026141Y-57881900D01*
X102026139Y-57881889D01*
X101967269Y-57662182D01*
X101967264Y-57662168D01*
X101871136Y-57456021D01*
X101871132Y-57456013D01*
X101820025Y-57383026D01*
X101141000Y-58062051D01*
X101141000Y-58055839D01*
X101113741Y-57954106D01*
X101061080Y-57862894D01*
X100986606Y-57788420D01*
X100895394Y-57735759D01*
X100793661Y-57708500D01*
X100787448Y-57708500D01*
X101466472Y-57029474D01*
X101393478Y-56978363D01*
X101187331Y-56882235D01*
X101187317Y-56882230D01*
X100967610Y-56823360D01*
X100967599Y-56823358D01*
X100741002Y-56803534D01*
X100740998Y-56803534D01*
X100514400Y-56823358D01*
X100514389Y-56823360D01*
X100294682Y-56882230D01*
X100294673Y-56882234D01*
X100088516Y-56978366D01*
X100088512Y-56978368D01*
X100015526Y-57029473D01*
X100015526Y-57029474D01*
X100694553Y-57708500D01*
X100688339Y-57708500D01*
X100586606Y-57735759D01*
X100495394Y-57788420D01*
X100420920Y-57862894D01*
X100368259Y-57954106D01*
X100341000Y-58055839D01*
X100341000Y-58062052D01*
X99661974Y-57383026D01*
X99661973Y-57383026D01*
X99610868Y-57456012D01*
X99610866Y-57456016D01*
X99514734Y-57662173D01*
X99514730Y-57662182D01*
X99455860Y-57881889D01*
X99455858Y-57881900D01*
X99436034Y-58108497D01*
X97046468Y-58108497D01*
X97026635Y-57881808D01*
X96976678Y-57695366D01*
X96967741Y-57662011D01*
X96967738Y-57662002D01*
X96938469Y-57599235D01*
X96871568Y-57455766D01*
X96741047Y-57269361D01*
X96741045Y-57269358D01*
X96580141Y-57108454D01*
X96393734Y-56977932D01*
X96393732Y-56977931D01*
X96187497Y-56881761D01*
X96187488Y-56881758D01*
X95967697Y-56822866D01*
X95967693Y-56822865D01*
X95967692Y-56822865D01*
X95967691Y-56822864D01*
X95967686Y-56822864D01*
X95741002Y-56803032D01*
X95740998Y-56803032D01*
X95514313Y-56822864D01*
X95514302Y-56822866D01*
X95294511Y-56881758D01*
X95294502Y-56881761D01*
X95088267Y-56977931D01*
X95088265Y-56977932D01*
X94901858Y-57108454D01*
X94740954Y-57269358D01*
X94610432Y-57455765D01*
X94610431Y-57455767D01*
X94514261Y-57662002D01*
X94514258Y-57662011D01*
X94455366Y-57881802D01*
X94455364Y-57881813D01*
X94435532Y-58108498D01*
X93991957Y-58108498D01*
X93986025Y-58100026D01*
X93307000Y-58779051D01*
X93307000Y-58772839D01*
X93279741Y-58671106D01*
X93227080Y-58579894D01*
X93152606Y-58505420D01*
X93061394Y-58452759D01*
X92959661Y-58425500D01*
X92953448Y-58425500D01*
X93632472Y-57746474D01*
X93559478Y-57695363D01*
X93353331Y-57599235D01*
X93353317Y-57599230D01*
X93133610Y-57540360D01*
X93133599Y-57540358D01*
X92907002Y-57520534D01*
X92906998Y-57520534D01*
X92680400Y-57540358D01*
X92680389Y-57540360D01*
X92460682Y-57599230D01*
X92460673Y-57599234D01*
X92254516Y-57695366D01*
X92254512Y-57695368D01*
X92181526Y-57746473D01*
X92181526Y-57746474D01*
X92860553Y-58425500D01*
X92854339Y-58425500D01*
X92752606Y-58452759D01*
X92661394Y-58505420D01*
X92586920Y-58579894D01*
X92534259Y-58671106D01*
X92507000Y-58772839D01*
X92507000Y-58779052D01*
X91827974Y-58100026D01*
X91827973Y-58100026D01*
X91776868Y-58173012D01*
X91776866Y-58173016D01*
X91680734Y-58379173D01*
X91680730Y-58379182D01*
X91621860Y-58598889D01*
X91621858Y-58598900D01*
X91602034Y-58825497D01*
X91602034Y-58825502D01*
X91621858Y-59052099D01*
X91621860Y-59052110D01*
X91680730Y-59271817D01*
X91680735Y-59271831D01*
X91776863Y-59477978D01*
X91827974Y-59550972D01*
X92507000Y-58871946D01*
X92507000Y-58878161D01*
X92534259Y-58979894D01*
X92586920Y-59071106D01*
X92661394Y-59145580D01*
X92752606Y-59198241D01*
X92854339Y-59225500D01*
X92860553Y-59225500D01*
X92181526Y-59904525D01*
X92196380Y-59914926D01*
X92240005Y-59969503D01*
X92247197Y-60039001D01*
X92215675Y-60101356D01*
X92155445Y-60136769D01*
X92125256Y-60140500D01*
X91253000Y-60140500D01*
X91185961Y-60120815D01*
X91140206Y-60068011D01*
X91129000Y-60016500D01*
X91129000Y-53825498D01*
X91601532Y-53825498D01*
X91601532Y-53825501D01*
X91621364Y-54052186D01*
X91621366Y-54052197D01*
X91680258Y-54271988D01*
X91680261Y-54271997D01*
X91776431Y-54478232D01*
X91776432Y-54478234D01*
X91906954Y-54664641D01*
X92067858Y-54825545D01*
X92067861Y-54825547D01*
X92254266Y-54956068D01*
X92460504Y-55052239D01*
X92680308Y-55111135D01*
X92842230Y-55125301D01*
X92906998Y-55130968D01*
X92907000Y-55130968D01*
X92907002Y-55130968D01*
X92963673Y-55126009D01*
X93133692Y-55111135D01*
X93353496Y-55052239D01*
X93559734Y-54956068D01*
X93746139Y-54825547D01*
X93907047Y-54664639D01*
X94037568Y-54478234D01*
X94133739Y-54271996D01*
X94192635Y-54052192D01*
X94212468Y-53825500D01*
X94192635Y-53598808D01*
X94133739Y-53379004D01*
X94037568Y-53172766D01*
X93907047Y-52986361D01*
X93907045Y-52986358D01*
X93746141Y-52825454D01*
X93559734Y-52694932D01*
X93559732Y-52694931D01*
X93353497Y-52598761D01*
X93353488Y-52598758D01*
X93133697Y-52539866D01*
X93133693Y-52539865D01*
X93133692Y-52539865D01*
X93133691Y-52539864D01*
X93133686Y-52539864D01*
X92907002Y-52520032D01*
X92906998Y-52520032D01*
X92680313Y-52539864D01*
X92680302Y-52539866D01*
X92460511Y-52598758D01*
X92460502Y-52598761D01*
X92254267Y-52694931D01*
X92254265Y-52694932D01*
X92067858Y-52825454D01*
X91906954Y-52986358D01*
X91776432Y-53172765D01*
X91776431Y-53172767D01*
X91680261Y-53379002D01*
X91680258Y-53379011D01*
X91621366Y-53598802D01*
X91621364Y-53598813D01*
X91601532Y-53825498D01*
X91129000Y-53825498D01*
X91129000Y-50492499D01*
X91825364Y-50492499D01*
X91825364Y-50492500D01*
X92722988Y-50492500D01*
X92690075Y-50549507D01*
X92656000Y-50676674D01*
X92656000Y-50808326D01*
X92690075Y-50935493D01*
X92722988Y-50992500D01*
X91825364Y-50992500D01*
X91882567Y-51205986D01*
X91882570Y-51205992D01*
X91982399Y-51420078D01*
X92117894Y-51613582D01*
X92284917Y-51780605D01*
X92478421Y-51916100D01*
X92692507Y-52015929D01*
X92692516Y-52015933D01*
X92906000Y-52073134D01*
X92906000Y-51175512D01*
X92963007Y-51208425D01*
X93090174Y-51242500D01*
X93221826Y-51242500D01*
X93348993Y-51208425D01*
X93406000Y-51175512D01*
X93406000Y-52073133D01*
X93619483Y-52015933D01*
X93619492Y-52015929D01*
X93833578Y-51916100D01*
X94027082Y-51780605D01*
X94194105Y-51613582D01*
X94324119Y-51427905D01*
X94378696Y-51384281D01*
X94448195Y-51377088D01*
X94510549Y-51408610D01*
X94527269Y-51427905D01*
X94657505Y-51613901D01*
X94824599Y-51780995D01*
X94921384Y-51848765D01*
X95018165Y-51916532D01*
X95018167Y-51916533D01*
X95018170Y-51916535D01*
X95232337Y-52016403D01*
X95460592Y-52077563D01*
X95637034Y-52093000D01*
X95695999Y-52098159D01*
X95696000Y-52098159D01*
X95696001Y-52098159D01*
X95754966Y-52093000D01*
X95931408Y-52077563D01*
X96159663Y-52016403D01*
X96373830Y-51916535D01*
X96567401Y-51780995D01*
X96734495Y-51613901D01*
X96864425Y-51428342D01*
X96919002Y-51384717D01*
X96988500Y-51377523D01*
X97050855Y-51409046D01*
X97067575Y-51428342D01*
X97197281Y-51613582D01*
X97197505Y-51613901D01*
X97364599Y-51780995D01*
X97461384Y-51848765D01*
X97558165Y-51916532D01*
X97558167Y-51916533D01*
X97558170Y-51916535D01*
X97772337Y-52016403D01*
X98000592Y-52077563D01*
X98177034Y-52093000D01*
X98235999Y-52098159D01*
X98236000Y-52098159D01*
X98236001Y-52098159D01*
X98294966Y-52093000D01*
X98471408Y-52077563D01*
X98699663Y-52016403D01*
X98913830Y-51916535D01*
X99107401Y-51780995D01*
X99274495Y-51613901D01*
X99404425Y-51428342D01*
X99459002Y-51384717D01*
X99528500Y-51377523D01*
X99590855Y-51409046D01*
X99607575Y-51428342D01*
X99737281Y-51613582D01*
X99737505Y-51613901D01*
X99904599Y-51780995D01*
X100001384Y-51848765D01*
X100098165Y-51916532D01*
X100098167Y-51916533D01*
X100098170Y-51916535D01*
X100263361Y-51993565D01*
X100315799Y-52039736D01*
X100334951Y-52106930D01*
X100314735Y-52173811D01*
X100298636Y-52193627D01*
X98977705Y-53514558D01*
X98916382Y-53548043D01*
X98857931Y-53546652D01*
X98761697Y-53520866D01*
X98761693Y-53520865D01*
X98761692Y-53520865D01*
X98761691Y-53520864D01*
X98761686Y-53520864D01*
X98535002Y-53501032D01*
X98534998Y-53501032D01*
X98308313Y-53520864D01*
X98308302Y-53520866D01*
X98088511Y-53579758D01*
X98088502Y-53579761D01*
X97882267Y-53675931D01*
X97882265Y-53675932D01*
X97695858Y-53806454D01*
X97534954Y-53967358D01*
X97404432Y-54153765D01*
X97404431Y-54153767D01*
X97308261Y-54360002D01*
X97308258Y-54360011D01*
X97249366Y-54579802D01*
X97249364Y-54579813D01*
X97229532Y-54806498D01*
X97229532Y-54806501D01*
X97249364Y-55033186D01*
X97249366Y-55033197D01*
X97308258Y-55252988D01*
X97308261Y-55252997D01*
X97404431Y-55459232D01*
X97404432Y-55459234D01*
X97534954Y-55645641D01*
X97695858Y-55806545D01*
X97695861Y-55806547D01*
X97882266Y-55937068D01*
X98088504Y-56033239D01*
X98308308Y-56092135D01*
X98470230Y-56106301D01*
X98534998Y-56111968D01*
X98535000Y-56111968D01*
X98535002Y-56111968D01*
X98591673Y-56107009D01*
X98761692Y-56092135D01*
X98981496Y-56033239D01*
X99187734Y-55937068D01*
X99374139Y-55806547D01*
X99535047Y-55645639D01*
X99665568Y-55459234D01*
X99761739Y-55252996D01*
X99820635Y-55033192D01*
X99840468Y-54806500D01*
X99840468Y-54806497D01*
X102230034Y-54806497D01*
X102230034Y-54806502D01*
X102249858Y-55033099D01*
X102249860Y-55033110D01*
X102308730Y-55252817D01*
X102308735Y-55252831D01*
X102404863Y-55458978D01*
X102455974Y-55531972D01*
X103135000Y-54852946D01*
X103135000Y-54859161D01*
X103162259Y-54960894D01*
X103214920Y-55052106D01*
X103289394Y-55126580D01*
X103380606Y-55179241D01*
X103482339Y-55206500D01*
X103488553Y-55206500D01*
X102809526Y-55885525D01*
X102882513Y-55936632D01*
X102882521Y-55936636D01*
X103088668Y-56032764D01*
X103088682Y-56032769D01*
X103308389Y-56091639D01*
X103308400Y-56091641D01*
X103534998Y-56111466D01*
X103535002Y-56111466D01*
X103761599Y-56091641D01*
X103761610Y-56091639D01*
X103981317Y-56032769D01*
X103981331Y-56032764D01*
X104187478Y-55936636D01*
X104260471Y-55885524D01*
X103581447Y-55206500D01*
X103587661Y-55206500D01*
X103689394Y-55179241D01*
X103780606Y-55126580D01*
X103855080Y-55052106D01*
X103907741Y-54960894D01*
X103935000Y-54859161D01*
X103935000Y-54852947D01*
X104614024Y-55531971D01*
X104665136Y-55458978D01*
X104761264Y-55252831D01*
X104761269Y-55252817D01*
X104820139Y-55033110D01*
X104820141Y-55033099D01*
X104839966Y-54806502D01*
X104839966Y-54806497D01*
X104820141Y-54579900D01*
X104820139Y-54579889D01*
X104761269Y-54360182D01*
X104761264Y-54360168D01*
X104665136Y-54154021D01*
X104665132Y-54154013D01*
X104614025Y-54081026D01*
X103935000Y-54760051D01*
X103935000Y-54753839D01*
X103907741Y-54652106D01*
X103855080Y-54560894D01*
X103780606Y-54486420D01*
X103689394Y-54433759D01*
X103587661Y-54406500D01*
X103581448Y-54406500D01*
X104260472Y-53727474D01*
X104187478Y-53676363D01*
X103981331Y-53580235D01*
X103981317Y-53580230D01*
X103761610Y-53521360D01*
X103761599Y-53521358D01*
X103535002Y-53501534D01*
X103534998Y-53501534D01*
X103308400Y-53521358D01*
X103308389Y-53521360D01*
X103088682Y-53580230D01*
X103088673Y-53580234D01*
X102882516Y-53676366D01*
X102882512Y-53676368D01*
X102809526Y-53727473D01*
X102809526Y-53727474D01*
X103488553Y-54406500D01*
X103482339Y-54406500D01*
X103380606Y-54433759D01*
X103289394Y-54486420D01*
X103214920Y-54560894D01*
X103162259Y-54652106D01*
X103135000Y-54753839D01*
X103135000Y-54760052D01*
X102455974Y-54081026D01*
X102455973Y-54081026D01*
X102404868Y-54154012D01*
X102404866Y-54154016D01*
X102308734Y-54360173D01*
X102308730Y-54360182D01*
X102249860Y-54579889D01*
X102249858Y-54579900D01*
X102230034Y-54806497D01*
X99840468Y-54806497D01*
X99820635Y-54579808D01*
X99794847Y-54483566D01*
X99796510Y-54413717D01*
X99826939Y-54363794D01*
X102116897Y-52073836D01*
X102178218Y-52040353D01*
X102247909Y-52045337D01*
X102358517Y-52086591D01*
X102358516Y-52086591D01*
X102365444Y-52087335D01*
X102418127Y-52093000D01*
X104213872Y-52092999D01*
X104273483Y-52086591D01*
X104408331Y-52036296D01*
X104523546Y-51950046D01*
X104609796Y-51834831D01*
X104660091Y-51699983D01*
X104666500Y-51640373D01*
X104666499Y-49844628D01*
X104660091Y-49785017D01*
X104658810Y-49781583D01*
X104609797Y-49650171D01*
X104609793Y-49650164D01*
X104523547Y-49534955D01*
X104523544Y-49534952D01*
X104408335Y-49448706D01*
X104408328Y-49448702D01*
X104273482Y-49398408D01*
X104273483Y-49398408D01*
X104213883Y-49392001D01*
X104213881Y-49392000D01*
X104213873Y-49392000D01*
X104213864Y-49392000D01*
X102418129Y-49392000D01*
X102418123Y-49392001D01*
X102358516Y-49398408D01*
X102223671Y-49448702D01*
X102223664Y-49448706D01*
X102108455Y-49534952D01*
X102108452Y-49534955D01*
X102022206Y-49650164D01*
X102022203Y-49650169D01*
X101973189Y-49781583D01*
X101931317Y-49837516D01*
X101865853Y-49861933D01*
X101797580Y-49847081D01*
X101769326Y-49825930D01*
X101647402Y-49704006D01*
X101647395Y-49704001D01*
X101453834Y-49568467D01*
X101453830Y-49568465D01*
X101453828Y-49568464D01*
X101239663Y-49468597D01*
X101239659Y-49468596D01*
X101239655Y-49468594D01*
X101011413Y-49407438D01*
X101011403Y-49407436D01*
X100776001Y-49386841D01*
X100775999Y-49386841D01*
X100540596Y-49407436D01*
X100540586Y-49407438D01*
X100312344Y-49468594D01*
X100312335Y-49468598D01*
X100098171Y-49568464D01*
X100098169Y-49568465D01*
X99904597Y-49704005D01*
X99737505Y-49871097D01*
X99607575Y-50056658D01*
X99552998Y-50100283D01*
X99483500Y-50107477D01*
X99421145Y-50075954D01*
X99404425Y-50056658D01*
X99274494Y-49871097D01*
X99107402Y-49704006D01*
X99107395Y-49704001D01*
X98913834Y-49568467D01*
X98913830Y-49568465D01*
X98913828Y-49568464D01*
X98699663Y-49468597D01*
X98699659Y-49468596D01*
X98699655Y-49468594D01*
X98471413Y-49407438D01*
X98471403Y-49407436D01*
X98236001Y-49386841D01*
X98235999Y-49386841D01*
X98000596Y-49407436D01*
X98000586Y-49407438D01*
X97772344Y-49468594D01*
X97772335Y-49468598D01*
X97558171Y-49568464D01*
X97558169Y-49568465D01*
X97364597Y-49704005D01*
X97197505Y-49871097D01*
X97067575Y-50056658D01*
X97012998Y-50100283D01*
X96943500Y-50107477D01*
X96881145Y-50075954D01*
X96864425Y-50056658D01*
X96734494Y-49871097D01*
X96567402Y-49704006D01*
X96567395Y-49704001D01*
X96373834Y-49568467D01*
X96373830Y-49568465D01*
X96373828Y-49568464D01*
X96159663Y-49468597D01*
X96159659Y-49468596D01*
X96159655Y-49468594D01*
X95931413Y-49407438D01*
X95931403Y-49407436D01*
X95696001Y-49386841D01*
X95695999Y-49386841D01*
X95460596Y-49407436D01*
X95460586Y-49407438D01*
X95232344Y-49468594D01*
X95232335Y-49468598D01*
X95018171Y-49568464D01*
X95018169Y-49568465D01*
X94824597Y-49704005D01*
X94657508Y-49871094D01*
X94527269Y-50057095D01*
X94472692Y-50100719D01*
X94403193Y-50107912D01*
X94340839Y-50076390D01*
X94324119Y-50057094D01*
X94194113Y-49871426D01*
X94194108Y-49871420D01*
X94027082Y-49704394D01*
X93833578Y-49568899D01*
X93619492Y-49469070D01*
X93619486Y-49469067D01*
X93406000Y-49411864D01*
X93406000Y-50309488D01*
X93348993Y-50276575D01*
X93221826Y-50242500D01*
X93090174Y-50242500D01*
X92963007Y-50276575D01*
X92906000Y-50309488D01*
X92906000Y-49411864D01*
X92905999Y-49411864D01*
X92692513Y-49469067D01*
X92692507Y-49469070D01*
X92478422Y-49568899D01*
X92478420Y-49568900D01*
X92284926Y-49704386D01*
X92284920Y-49704391D01*
X92117891Y-49871420D01*
X92117886Y-49871426D01*
X91982400Y-50064920D01*
X91982399Y-50064922D01*
X91882570Y-50279007D01*
X91882567Y-50279013D01*
X91825364Y-50492499D01*
X91129000Y-50492499D01*
X91129000Y-48834500D01*
X91148685Y-48767461D01*
X91201489Y-48721706D01*
X91253000Y-48710500D01*
X105229000Y-48710500D01*
X105296039Y-48730185D01*
G37*
%TD.AperFunction*%
%TD*%
%TA.AperFunction,Conductor*%
%TO.N,GND2*%
G36*
X79294150Y-20250907D02*
G01*
X79339905Y-20303711D01*
X79351111Y-20355222D01*
X79351111Y-57857222D01*
X79331426Y-57924261D01*
X79278622Y-57970016D01*
X79227111Y-57981222D01*
X50265111Y-57981222D01*
X50198072Y-57961537D01*
X50152317Y-57908733D01*
X50141111Y-57857222D01*
X50141111Y-55840221D01*
X54383475Y-55840221D01*
X54383475Y-55840222D01*
X55281099Y-55840222D01*
X55248186Y-55897229D01*
X55214111Y-56024396D01*
X55214111Y-56156048D01*
X55248186Y-56283215D01*
X55281099Y-56340222D01*
X54383475Y-56340222D01*
X54440678Y-56553708D01*
X54440681Y-56553714D01*
X54540510Y-56767800D01*
X54676005Y-56961304D01*
X54843028Y-57128327D01*
X55036532Y-57263822D01*
X55250618Y-57363651D01*
X55250627Y-57363655D01*
X55464111Y-57420856D01*
X55464111Y-56523234D01*
X55521118Y-56556147D01*
X55648285Y-56590222D01*
X55779937Y-56590222D01*
X55907104Y-56556147D01*
X55964111Y-56523234D01*
X55964111Y-57420855D01*
X56177594Y-57363655D01*
X56177603Y-57363651D01*
X56391689Y-57263822D01*
X56585193Y-57128327D01*
X56752216Y-56961304D01*
X56882230Y-56775627D01*
X56936807Y-56732003D01*
X57006306Y-56724810D01*
X57068660Y-56756332D01*
X57085380Y-56775627D01*
X57215616Y-56961623D01*
X57382710Y-57128717D01*
X57479495Y-57196487D01*
X57576276Y-57264254D01*
X57576278Y-57264255D01*
X57576281Y-57264257D01*
X57790448Y-57364125D01*
X58018703Y-57425285D01*
X58195145Y-57440722D01*
X58254110Y-57445881D01*
X58254111Y-57445881D01*
X58254112Y-57445881D01*
X58313077Y-57440722D01*
X58489519Y-57425285D01*
X58717774Y-57364125D01*
X58931941Y-57264257D01*
X59125512Y-57128717D01*
X59292606Y-56961623D01*
X59422536Y-56776064D01*
X59477113Y-56732439D01*
X59546611Y-56725245D01*
X59608966Y-56756768D01*
X59625686Y-56776064D01*
X59755392Y-56961304D01*
X59755616Y-56961623D01*
X59922710Y-57128717D01*
X60019495Y-57196487D01*
X60116276Y-57264254D01*
X60116278Y-57264255D01*
X60116281Y-57264257D01*
X60330448Y-57364125D01*
X60558703Y-57425285D01*
X60735145Y-57440722D01*
X60794110Y-57445881D01*
X60794111Y-57445881D01*
X60794112Y-57445881D01*
X60853077Y-57440722D01*
X61029519Y-57425285D01*
X61257774Y-57364125D01*
X61471941Y-57264257D01*
X61665512Y-57128717D01*
X61832606Y-56961623D01*
X61962536Y-56776064D01*
X62017113Y-56732439D01*
X62086611Y-56725245D01*
X62148966Y-56756768D01*
X62165686Y-56776064D01*
X62295392Y-56961304D01*
X62295616Y-56961623D01*
X62462710Y-57128717D01*
X62559495Y-57196487D01*
X62656276Y-57264254D01*
X62656278Y-57264255D01*
X62656281Y-57264257D01*
X62870448Y-57364125D01*
X63098703Y-57425285D01*
X63275145Y-57440722D01*
X63334110Y-57445881D01*
X63334111Y-57445881D01*
X63334112Y-57445881D01*
X63393077Y-57440722D01*
X63569519Y-57425285D01*
X63797774Y-57364125D01*
X64011941Y-57264257D01*
X64205512Y-57128717D01*
X64372606Y-56961623D01*
X64502536Y-56776064D01*
X64557113Y-56732439D01*
X64626611Y-56725245D01*
X64688966Y-56756768D01*
X64705686Y-56776064D01*
X64835392Y-56961304D01*
X64835616Y-56961623D01*
X65002710Y-57128717D01*
X65099495Y-57196487D01*
X65196276Y-57264254D01*
X65196278Y-57264255D01*
X65196281Y-57264257D01*
X65410448Y-57364125D01*
X65638703Y-57425285D01*
X65815145Y-57440722D01*
X65874110Y-57445881D01*
X65874111Y-57445881D01*
X65874112Y-57445881D01*
X65933077Y-57440722D01*
X66109519Y-57425285D01*
X66337774Y-57364125D01*
X66551941Y-57264257D01*
X66745512Y-57128717D01*
X66912606Y-56961623D01*
X67042536Y-56776064D01*
X67097113Y-56732439D01*
X67166611Y-56725245D01*
X67228966Y-56756768D01*
X67245686Y-56776064D01*
X67375392Y-56961304D01*
X67375616Y-56961623D01*
X67542710Y-57128717D01*
X67639495Y-57196487D01*
X67736276Y-57264254D01*
X67736278Y-57264255D01*
X67736281Y-57264257D01*
X67950448Y-57364125D01*
X68178703Y-57425285D01*
X68355145Y-57440722D01*
X68414110Y-57445881D01*
X68414111Y-57445881D01*
X68414112Y-57445881D01*
X68473077Y-57440722D01*
X68649519Y-57425285D01*
X68877774Y-57364125D01*
X69091941Y-57264257D01*
X69285512Y-57128717D01*
X69452606Y-56961623D01*
X69582536Y-56776064D01*
X69637113Y-56732439D01*
X69706611Y-56725245D01*
X69768966Y-56756768D01*
X69785686Y-56776064D01*
X69915392Y-56961304D01*
X69915616Y-56961623D01*
X70082710Y-57128717D01*
X70179495Y-57196487D01*
X70276276Y-57264254D01*
X70276278Y-57264255D01*
X70276281Y-57264257D01*
X70490448Y-57364125D01*
X70718703Y-57425285D01*
X70895145Y-57440722D01*
X70954110Y-57445881D01*
X70954111Y-57445881D01*
X70954112Y-57445881D01*
X71013077Y-57440722D01*
X71189519Y-57425285D01*
X71417774Y-57364125D01*
X71631941Y-57264257D01*
X71825512Y-57128717D01*
X71947440Y-57006788D01*
X72008759Y-56973306D01*
X72078451Y-56978290D01*
X72134385Y-57020161D01*
X72151300Y-57051139D01*
X72200313Y-57182550D01*
X72200317Y-57182557D01*
X72286563Y-57297766D01*
X72286566Y-57297769D01*
X72401775Y-57384015D01*
X72401782Y-57384019D01*
X72536628Y-57434313D01*
X72536627Y-57434313D01*
X72543555Y-57435057D01*
X72596238Y-57440722D01*
X74391983Y-57440721D01*
X74451594Y-57434313D01*
X74586442Y-57384018D01*
X74701657Y-57297768D01*
X74787907Y-57182553D01*
X74838202Y-57047705D01*
X74844611Y-56988095D01*
X74844610Y-55192350D01*
X74838202Y-55132739D01*
X74836921Y-55129305D01*
X74787908Y-54997893D01*
X74787904Y-54997886D01*
X74701658Y-54882677D01*
X74701655Y-54882674D01*
X74586446Y-54796428D01*
X74586439Y-54796424D01*
X74451593Y-54746130D01*
X74451594Y-54746130D01*
X74391994Y-54739723D01*
X74391992Y-54739722D01*
X74391984Y-54739722D01*
X74391975Y-54739722D01*
X72596240Y-54739722D01*
X72596234Y-54739723D01*
X72536627Y-54746130D01*
X72401782Y-54796424D01*
X72401775Y-54796428D01*
X72286566Y-54882674D01*
X72286563Y-54882677D01*
X72200317Y-54997886D01*
X72200314Y-54997891D01*
X72151300Y-55129305D01*
X72109428Y-55185238D01*
X72043964Y-55209655D01*
X71975691Y-55194803D01*
X71947437Y-55173652D01*
X71825513Y-55051728D01*
X71825506Y-55051723D01*
X71631945Y-54916189D01*
X71631941Y-54916187D01*
X71631939Y-54916186D01*
X71417774Y-54816319D01*
X71417770Y-54816318D01*
X71417766Y-54816316D01*
X71189524Y-54755160D01*
X71189521Y-54755159D01*
X71189519Y-54755159D01*
X71179126Y-54754249D01*
X71174799Y-54753871D01*
X71109732Y-54728416D01*
X71068755Y-54671824D01*
X71061611Y-54630343D01*
X71061611Y-52788220D01*
X72711643Y-52788220D01*
X72711643Y-52788223D01*
X72731475Y-53014908D01*
X72731477Y-53014919D01*
X72790369Y-53234710D01*
X72790372Y-53234719D01*
X72886542Y-53440954D01*
X72886543Y-53440956D01*
X73017065Y-53627363D01*
X73177969Y-53788267D01*
X73177972Y-53788269D01*
X73364377Y-53918790D01*
X73570615Y-54014961D01*
X73790419Y-54073857D01*
X73952341Y-54088023D01*
X74017109Y-54093690D01*
X74017111Y-54093690D01*
X74017113Y-54093690D01*
X74073784Y-54088731D01*
X74243803Y-54073857D01*
X74463607Y-54014961D01*
X74669845Y-53918790D01*
X74856250Y-53788269D01*
X75017158Y-53627361D01*
X75147679Y-53440956D01*
X75243850Y-53234718D01*
X75302746Y-53014914D01*
X75322579Y-52788222D01*
X75302746Y-52561530D01*
X75243850Y-52341726D01*
X75147679Y-52135488D01*
X75017158Y-51949083D01*
X75017156Y-51949080D01*
X74856252Y-51788176D01*
X74669845Y-51657654D01*
X74669843Y-51657653D01*
X74463608Y-51561483D01*
X74463599Y-51561480D01*
X74243808Y-51502588D01*
X74243804Y-51502587D01*
X74243803Y-51502587D01*
X74243802Y-51502586D01*
X74243797Y-51502586D01*
X74017113Y-51482754D01*
X74017109Y-51482754D01*
X73790424Y-51502586D01*
X73790413Y-51502588D01*
X73570622Y-51561480D01*
X73570613Y-51561483D01*
X73364378Y-51657653D01*
X73364376Y-51657654D01*
X73177969Y-51788176D01*
X73017065Y-51949080D01*
X72886543Y-52135487D01*
X72886542Y-52135489D01*
X72790372Y-52341724D01*
X72790369Y-52341733D01*
X72731477Y-52561524D01*
X72731475Y-52561535D01*
X72711643Y-52788220D01*
X71061611Y-52788220D01*
X71061611Y-50068634D01*
X71081296Y-50001595D01*
X71088666Y-49991319D01*
X71090921Y-49988489D01*
X71090927Y-49988484D01*
X71186900Y-49835744D01*
X71246479Y-49665477D01*
X71252561Y-49611497D01*
X71266676Y-49486225D01*
X71266676Y-49486218D01*
X71262169Y-49446220D01*
X76013643Y-49446220D01*
X76013643Y-49446223D01*
X76033475Y-49672908D01*
X76033477Y-49672919D01*
X76092369Y-49892710D01*
X76092372Y-49892719D01*
X76188542Y-50098954D01*
X76188543Y-50098956D01*
X76319065Y-50285363D01*
X76479969Y-50446267D01*
X76479972Y-50446269D01*
X76666377Y-50576790D01*
X76872615Y-50672961D01*
X77092419Y-50731857D01*
X77254341Y-50746023D01*
X77319109Y-50751690D01*
X77319111Y-50751690D01*
X77319113Y-50751690D01*
X77375784Y-50746731D01*
X77545803Y-50731857D01*
X77765607Y-50672961D01*
X77971845Y-50576790D01*
X78158250Y-50446269D01*
X78319158Y-50285361D01*
X78449679Y-50098956D01*
X78545850Y-49892718D01*
X78604746Y-49672914D01*
X78623688Y-49456409D01*
X78624579Y-49446223D01*
X78624579Y-49446220D01*
X78612396Y-49306967D01*
X78604746Y-49219530D01*
X78545850Y-48999726D01*
X78449679Y-48793488D01*
X78319158Y-48607083D01*
X78319156Y-48607080D01*
X78158252Y-48446176D01*
X77971845Y-48315654D01*
X77971843Y-48315653D01*
X77765608Y-48219483D01*
X77765599Y-48219480D01*
X77545808Y-48160588D01*
X77545804Y-48160587D01*
X77545803Y-48160587D01*
X77545802Y-48160586D01*
X77545797Y-48160586D01*
X77319113Y-48140754D01*
X77319109Y-48140754D01*
X77092424Y-48160586D01*
X77092413Y-48160588D01*
X76872622Y-48219480D01*
X76872613Y-48219483D01*
X76666378Y-48315653D01*
X76666376Y-48315654D01*
X76479969Y-48446176D01*
X76319065Y-48607080D01*
X76188543Y-48793487D01*
X76188542Y-48793489D01*
X76092372Y-48999724D01*
X76092369Y-48999733D01*
X76033477Y-49219524D01*
X76033475Y-49219535D01*
X76013643Y-49446220D01*
X71262169Y-49446220D01*
X71246480Y-49306972D01*
X71246479Y-49306967D01*
X71186899Y-49136698D01*
X71100832Y-48999724D01*
X71090927Y-48983960D01*
X70963373Y-48856406D01*
X70931919Y-48836642D01*
X70810634Y-48760433D01*
X70640365Y-48700853D01*
X70640360Y-48700852D01*
X70461115Y-48680657D01*
X70461107Y-48680657D01*
X70288981Y-48700050D01*
X70220159Y-48687995D01*
X70168780Y-48640646D01*
X70151156Y-48573036D01*
X70172883Y-48506630D01*
X70187412Y-48489154D01*
X70321824Y-48354743D01*
X70321827Y-48354742D01*
X70433631Y-48242938D01*
X70483750Y-48156126D01*
X70512688Y-48106007D01*
X70533108Y-48029794D01*
X70565205Y-47974205D01*
X70582927Y-47956484D01*
X70678900Y-47803744D01*
X70738479Y-47633477D01*
X70758676Y-47454222D01*
X70738479Y-47274967D01*
X70678900Y-47104700D01*
X70582927Y-46951960D01*
X70455373Y-46824406D01*
X70302634Y-46728433D01*
X70132365Y-46668853D01*
X70132360Y-46668852D01*
X69953115Y-46648657D01*
X69953107Y-46648657D01*
X69773861Y-46668852D01*
X69773856Y-46668853D01*
X69603587Y-46728433D01*
X69450848Y-46824406D01*
X69323295Y-46951959D01*
X69227322Y-47104698D01*
X69167742Y-47274967D01*
X69167741Y-47274972D01*
X69147546Y-47454218D01*
X69147546Y-47454225D01*
X69167741Y-47633468D01*
X69167743Y-47633479D01*
X69187858Y-47690962D01*
X69191420Y-47760741D01*
X69158498Y-47819598D01*
X68726659Y-48251437D01*
X68665336Y-48284922D01*
X68598715Y-48281037D01*
X68492727Y-48244651D01*
X68247446Y-48203722D01*
X67998776Y-48203722D01*
X67753494Y-48244651D01*
X67518308Y-48325391D01*
X67518299Y-48325394D01*
X67299604Y-48443746D01*
X67103368Y-48596483D01*
X66934944Y-48779439D01*
X66798937Y-48987615D01*
X66699047Y-49215340D01*
X66638003Y-49456397D01*
X66638001Y-49456409D01*
X66617468Y-49704216D01*
X66617468Y-49704227D01*
X66638001Y-49952034D01*
X66638003Y-49952046D01*
X66699047Y-50193103D01*
X66798937Y-50420828D01*
X66934944Y-50629004D01*
X66934947Y-50629007D01*
X67103367Y-50811960D01*
X67299602Y-50964696D01*
X67518301Y-51083050D01*
X67753497Y-51163793D01*
X67998776Y-51204722D01*
X68247446Y-51204722D01*
X68492725Y-51163793D01*
X68727921Y-51083050D01*
X68946620Y-50964696D01*
X69142855Y-50811960D01*
X69311275Y-50629007D01*
X69447284Y-50420829D01*
X69547174Y-50193103D01*
X69594618Y-50005748D01*
X69630158Y-49945594D01*
X69692578Y-49914202D01*
X69762061Y-49921540D01*
X69816547Y-49965279D01*
X69819818Y-49970218D01*
X69831296Y-49988485D01*
X69833556Y-49991319D01*
X69834445Y-49993497D01*
X69835000Y-49994380D01*
X69834845Y-49994477D01*
X69859966Y-50056005D01*
X69860611Y-50068634D01*
X69860611Y-55258279D01*
X69840926Y-55325318D01*
X69838186Y-55329402D01*
X69785686Y-55404381D01*
X69731110Y-55448006D01*
X69661611Y-55455200D01*
X69599257Y-55423678D01*
X69582536Y-55404381D01*
X69452605Y-55218819D01*
X69285513Y-55051728D01*
X69285506Y-55051723D01*
X69091945Y-54916189D01*
X69091941Y-54916187D01*
X69091939Y-54916186D01*
X68877774Y-54816319D01*
X68877770Y-54816318D01*
X68877766Y-54816316D01*
X68649524Y-54755160D01*
X68649514Y-54755158D01*
X68414112Y-54734563D01*
X68414110Y-54734563D01*
X68178707Y-54755158D01*
X68178697Y-54755160D01*
X67950455Y-54816316D01*
X67950446Y-54816320D01*
X67736282Y-54916186D01*
X67736280Y-54916187D01*
X67542708Y-55051727D01*
X67375616Y-55218819D01*
X67245686Y-55404380D01*
X67191109Y-55448005D01*
X67121611Y-55455199D01*
X67059256Y-55423676D01*
X67042536Y-55404380D01*
X66912605Y-55218819D01*
X66745513Y-55051728D01*
X66745506Y-55051723D01*
X66551945Y-54916189D01*
X66551941Y-54916187D01*
X66551939Y-54916186D01*
X66337774Y-54816319D01*
X66337770Y-54816318D01*
X66337766Y-54816316D01*
X66109524Y-54755160D01*
X66109514Y-54755158D01*
X65874112Y-54734563D01*
X65874110Y-54734563D01*
X65638707Y-54755158D01*
X65638697Y-54755160D01*
X65410455Y-54816316D01*
X65410446Y-54816320D01*
X65196282Y-54916186D01*
X65196280Y-54916187D01*
X65002708Y-55051727D01*
X64835619Y-55218816D01*
X64705685Y-55404382D01*
X64651108Y-55448006D01*
X64581609Y-55455199D01*
X64519255Y-55423677D01*
X64502537Y-55404383D01*
X64480034Y-55372244D01*
X64457708Y-55306038D01*
X64457611Y-55301124D01*
X64457611Y-54019914D01*
X64477296Y-53952875D01*
X64510485Y-53918341D01*
X64696250Y-53788269D01*
X64857158Y-53627361D01*
X64987679Y-53440956D01*
X65083850Y-53234718D01*
X65142746Y-53014914D01*
X65162579Y-52788222D01*
X65142746Y-52561530D01*
X65083850Y-52341726D01*
X64987679Y-52135488D01*
X64857158Y-51949083D01*
X64857156Y-51949080D01*
X64696252Y-51788176D01*
X64509845Y-51657654D01*
X64509843Y-51657653D01*
X64303608Y-51561483D01*
X64303599Y-51561480D01*
X64083808Y-51502588D01*
X64083804Y-51502587D01*
X64083803Y-51502587D01*
X64083802Y-51502586D01*
X64083797Y-51502586D01*
X63857113Y-51482754D01*
X63857109Y-51482754D01*
X63630424Y-51502586D01*
X63630413Y-51502588D01*
X63410622Y-51561480D01*
X63410613Y-51561483D01*
X63204378Y-51657653D01*
X63204376Y-51657654D01*
X63017969Y-51788176D01*
X62857065Y-51949080D01*
X62815686Y-52008177D01*
X62761110Y-52051802D01*
X62691611Y-52058996D01*
X62629256Y-52027473D01*
X62612536Y-52008177D01*
X62571156Y-51949080D01*
X62410252Y-51788176D01*
X62223845Y-51657654D01*
X62223843Y-51657653D01*
X62017608Y-51561483D01*
X62017599Y-51561480D01*
X61797808Y-51502588D01*
X61797804Y-51502587D01*
X61797803Y-51502587D01*
X61797802Y-51502586D01*
X61797797Y-51502586D01*
X61571113Y-51482754D01*
X61571109Y-51482754D01*
X61344424Y-51502586D01*
X61344413Y-51502588D01*
X61124622Y-51561480D01*
X61124613Y-51561483D01*
X60918378Y-51657653D01*
X60918376Y-51657654D01*
X60731969Y-51788176D01*
X60571065Y-51949080D01*
X60440543Y-52135487D01*
X60440542Y-52135489D01*
X60344372Y-52341724D01*
X60344369Y-52341733D01*
X60285477Y-52561524D01*
X60285475Y-52561535D01*
X60265643Y-52788220D01*
X60265643Y-52788223D01*
X60285475Y-53014908D01*
X60285477Y-53014919D01*
X60344369Y-53234710D01*
X60344372Y-53234719D01*
X60440542Y-53440954D01*
X60440543Y-53440956D01*
X60571065Y-53627363D01*
X60731969Y-53788267D01*
X60731972Y-53788269D01*
X60918377Y-53918790D01*
X61124615Y-54014961D01*
X61344419Y-54073857D01*
X61506341Y-54088023D01*
X61571109Y-54093690D01*
X61571111Y-54093690D01*
X61571113Y-54093690D01*
X61627784Y-54088731D01*
X61797803Y-54073857D01*
X62017607Y-54014961D01*
X62223845Y-53918790D01*
X62410250Y-53788269D01*
X62571158Y-53627361D01*
X62612536Y-53568267D01*
X62667112Y-53524642D01*
X62736611Y-53517448D01*
X62798966Y-53548971D01*
X62815686Y-53568267D01*
X62857065Y-53627363D01*
X63017969Y-53788267D01*
X63017972Y-53788269D01*
X63203735Y-53918340D01*
X63247359Y-53972915D01*
X63256611Y-54019914D01*
X63256611Y-54627718D01*
X63236926Y-54694757D01*
X63184122Y-54740512D01*
X63143421Y-54751246D01*
X63098706Y-54755158D01*
X63098697Y-54755160D01*
X62870455Y-54816316D01*
X62870446Y-54816320D01*
X62656282Y-54916186D01*
X62656280Y-54916187D01*
X62462708Y-55051727D01*
X62295616Y-55218819D01*
X62165686Y-55404380D01*
X62111109Y-55448005D01*
X62041611Y-55455199D01*
X61979256Y-55423676D01*
X61962536Y-55404380D01*
X61832605Y-55218819D01*
X61665513Y-55051728D01*
X61665506Y-55051723D01*
X61471945Y-54916189D01*
X61471941Y-54916187D01*
X61471939Y-54916186D01*
X61257774Y-54816319D01*
X61257770Y-54816318D01*
X61257766Y-54816316D01*
X61029524Y-54755160D01*
X61029514Y-54755158D01*
X60794112Y-54734563D01*
X60794110Y-54734563D01*
X60558707Y-54755158D01*
X60558697Y-54755160D01*
X60330455Y-54816316D01*
X60330446Y-54816320D01*
X60116282Y-54916186D01*
X60116280Y-54916187D01*
X59922708Y-55051727D01*
X59755616Y-55218819D01*
X59625686Y-55404380D01*
X59571109Y-55448005D01*
X59501611Y-55455199D01*
X59439256Y-55423676D01*
X59422536Y-55404380D01*
X59292605Y-55218819D01*
X59125513Y-55051728D01*
X59125506Y-55051723D01*
X58931945Y-54916189D01*
X58931941Y-54916187D01*
X58931939Y-54916186D01*
X58717774Y-54816319D01*
X58717770Y-54816318D01*
X58717766Y-54816316D01*
X58489524Y-54755160D01*
X58489514Y-54755158D01*
X58254112Y-54734563D01*
X58254110Y-54734563D01*
X58018707Y-54755158D01*
X58018697Y-54755160D01*
X57790455Y-54816316D01*
X57790446Y-54816320D01*
X57576282Y-54916186D01*
X57576280Y-54916187D01*
X57382708Y-55051727D01*
X57215619Y-55218816D01*
X57085380Y-55404817D01*
X57030803Y-55448441D01*
X56961304Y-55455634D01*
X56898950Y-55424112D01*
X56882230Y-55404816D01*
X56752224Y-55219148D01*
X56752219Y-55219142D01*
X56585193Y-55052116D01*
X56391689Y-54916621D01*
X56177603Y-54816792D01*
X56177597Y-54816789D01*
X55964111Y-54759586D01*
X55964111Y-55657210D01*
X55907104Y-55624297D01*
X55779937Y-55590222D01*
X55648285Y-55590222D01*
X55521118Y-55624297D01*
X55464111Y-55657210D01*
X55464111Y-54759586D01*
X55464110Y-54759586D01*
X55250624Y-54816789D01*
X55250618Y-54816792D01*
X55036533Y-54916621D01*
X55036531Y-54916622D01*
X54843037Y-55052108D01*
X54843031Y-55052113D01*
X54676002Y-55219142D01*
X54675997Y-55219148D01*
X54540511Y-55412642D01*
X54540510Y-55412644D01*
X54440681Y-55626729D01*
X54440678Y-55626735D01*
X54383475Y-55840221D01*
X50141111Y-55840221D01*
X50141111Y-53635105D01*
X50160796Y-53568066D01*
X50213600Y-53522311D01*
X50282758Y-53512367D01*
X50346314Y-53541392D01*
X50366686Y-53563982D01*
X50411065Y-53627363D01*
X50571969Y-53788267D01*
X50571972Y-53788269D01*
X50758377Y-53918790D01*
X50964615Y-54014961D01*
X51184419Y-54073857D01*
X51346341Y-54088023D01*
X51411109Y-54093690D01*
X51411111Y-54093690D01*
X51411113Y-54093690D01*
X51467784Y-54088731D01*
X51637803Y-54073857D01*
X51857607Y-54014961D01*
X52063845Y-53918790D01*
X52250250Y-53788269D01*
X52411158Y-53627361D01*
X52541679Y-53440956D01*
X52637850Y-53234718D01*
X52696746Y-53014914D01*
X52716579Y-52788222D01*
X52696746Y-52561530D01*
X52637850Y-52341726D01*
X52541679Y-52135488D01*
X52411158Y-51949083D01*
X52411156Y-51949080D01*
X52250252Y-51788176D01*
X52063845Y-51657654D01*
X52063843Y-51657653D01*
X51857608Y-51561483D01*
X51857599Y-51561480D01*
X51637808Y-51502588D01*
X51637804Y-51502587D01*
X51637803Y-51502587D01*
X51637802Y-51502586D01*
X51637797Y-51502586D01*
X51411113Y-51482754D01*
X51411109Y-51482754D01*
X51184424Y-51502586D01*
X51184413Y-51502588D01*
X50964622Y-51561480D01*
X50964613Y-51561483D01*
X50758378Y-51657653D01*
X50758376Y-51657654D01*
X50571969Y-51788176D01*
X50411064Y-51949081D01*
X50366686Y-52012461D01*
X50312109Y-52056086D01*
X50242611Y-52063280D01*
X50180256Y-52031757D01*
X50144842Y-51971527D01*
X50141111Y-51941338D01*
X50141111Y-49704216D01*
X50465468Y-49704216D01*
X50465468Y-49704227D01*
X50486001Y-49952034D01*
X50486003Y-49952046D01*
X50547047Y-50193103D01*
X50646937Y-50420828D01*
X50782944Y-50629004D01*
X50782947Y-50629007D01*
X50951367Y-50811960D01*
X51147602Y-50964696D01*
X51366301Y-51083050D01*
X51601497Y-51163793D01*
X51846776Y-51204722D01*
X52095446Y-51204722D01*
X52340725Y-51163793D01*
X52575921Y-51083050D01*
X52794620Y-50964696D01*
X52990855Y-50811960D01*
X53159275Y-50629007D01*
X53295284Y-50420829D01*
X53395174Y-50193103D01*
X53456219Y-49952043D01*
X53456220Y-49952034D01*
X53476754Y-49704227D01*
X53476754Y-49704216D01*
X53456220Y-49456409D01*
X53456218Y-49456397D01*
X53395174Y-49215340D01*
X53346431Y-49104218D01*
X54669546Y-49104218D01*
X54669546Y-49104225D01*
X54689741Y-49283471D01*
X54689742Y-49283476D01*
X54749322Y-49453745D01*
X54845296Y-49606485D01*
X54847556Y-49609319D01*
X54848445Y-49611497D01*
X54849000Y-49612380D01*
X54848845Y-49612477D01*
X54873966Y-49674005D01*
X54874611Y-49686634D01*
X54874611Y-49721809D01*
X54854926Y-49788848D01*
X54847561Y-49799118D01*
X54845297Y-49801956D01*
X54749322Y-49954698D01*
X54689742Y-50124967D01*
X54689741Y-50124972D01*
X54669546Y-50304218D01*
X54669546Y-50304225D01*
X54689741Y-50483471D01*
X54689742Y-50483476D01*
X54749322Y-50653745D01*
X54845295Y-50806484D01*
X54972849Y-50934038D01*
X55125589Y-51030011D01*
X55295856Y-51089590D01*
X55295861Y-51089591D01*
X55475107Y-51109787D01*
X55475111Y-51109787D01*
X55475115Y-51109787D01*
X55654360Y-51089591D01*
X55654363Y-51089590D01*
X55654366Y-51089590D01*
X55824633Y-51030011D01*
X55917138Y-50971885D01*
X55984375Y-50952885D01*
X56049084Y-50971886D01*
X56141586Y-51030010D01*
X56311856Y-51089590D01*
X56311861Y-51089591D01*
X56491107Y-51109787D01*
X56491111Y-51109787D01*
X56491115Y-51109787D01*
X56670360Y-51089591D01*
X56670363Y-51089590D01*
X56670366Y-51089590D01*
X56840633Y-51030011D01*
X56993373Y-50934038D01*
X57120927Y-50806484D01*
X57166604Y-50733788D01*
X57218937Y-50687499D01*
X57287991Y-50676850D01*
X57351839Y-50705225D01*
X57362820Y-50715772D01*
X57451367Y-50811960D01*
X57647602Y-50964696D01*
X57866301Y-51083050D01*
X58101497Y-51163793D01*
X58346776Y-51204722D01*
X58595446Y-51204722D01*
X58840725Y-51163793D01*
X59075921Y-51083050D01*
X59294620Y-50964696D01*
X59490855Y-50811960D01*
X59659275Y-50629007D01*
X59795284Y-50420829D01*
X59895174Y-50193103D01*
X59912427Y-50124972D01*
X59926905Y-50067801D01*
X59962445Y-50007645D01*
X60024865Y-49976253D01*
X60094349Y-49983591D01*
X60148834Y-50027330D01*
X60167317Y-50067801D01*
X60199047Y-50193103D01*
X60298937Y-50420828D01*
X60434944Y-50629004D01*
X60434947Y-50629007D01*
X60603367Y-50811960D01*
X60799602Y-50964696D01*
X61018301Y-51083050D01*
X61253497Y-51163793D01*
X61498776Y-51204722D01*
X61747446Y-51204722D01*
X61992725Y-51163793D01*
X62227921Y-51083050D01*
X62446620Y-50964696D01*
X62642855Y-50811960D01*
X62811275Y-50629007D01*
X62947284Y-50420829D01*
X63047174Y-50193103D01*
X63108219Y-49952043D01*
X63108220Y-49952034D01*
X63128754Y-49704227D01*
X63128754Y-49704216D01*
X63108220Y-49456409D01*
X63108218Y-49456397D01*
X63047174Y-49215340D01*
X62947284Y-48987615D01*
X62811277Y-48779439D01*
X62738194Y-48700050D01*
X62642855Y-48596484D01*
X62446620Y-48443748D01*
X62446618Y-48443747D01*
X62446617Y-48443746D01*
X62227922Y-48325394D01*
X62227913Y-48325391D01*
X61992727Y-48244651D01*
X61747446Y-48203722D01*
X61498776Y-48203722D01*
X61253494Y-48244651D01*
X61018308Y-48325391D01*
X61018299Y-48325394D01*
X60799604Y-48443746D01*
X60603368Y-48596483D01*
X60434944Y-48779439D01*
X60298937Y-48987615D01*
X60199048Y-49215339D01*
X60167317Y-49340643D01*
X60131777Y-49400798D01*
X60069356Y-49432190D01*
X59999873Y-49424852D01*
X59945388Y-49381113D01*
X59926905Y-49340643D01*
X59896236Y-49219535D01*
X59895174Y-49215341D01*
X59795284Y-48987615D01*
X59792895Y-48983959D01*
X59659277Y-48779439D01*
X59586194Y-48700050D01*
X59490855Y-48596484D01*
X59294620Y-48443748D01*
X59294618Y-48443747D01*
X59294617Y-48443746D01*
X59075922Y-48325394D01*
X59075913Y-48325391D01*
X58840727Y-48244651D01*
X58595446Y-48203722D01*
X58346776Y-48203722D01*
X58101494Y-48244651D01*
X57866308Y-48325391D01*
X57866299Y-48325394D01*
X57647604Y-48443746D01*
X57451366Y-48596484D01*
X57451363Y-48596487D01*
X57362826Y-48692664D01*
X57302939Y-48728655D01*
X57233101Y-48726554D01*
X57175485Y-48687030D01*
X57166603Y-48674653D01*
X57120926Y-48601959D01*
X56993373Y-48474406D01*
X56840634Y-48378433D01*
X56670365Y-48318853D01*
X56670360Y-48318852D01*
X56491115Y-48298657D01*
X56491107Y-48298657D01*
X56311861Y-48318852D01*
X56311856Y-48318853D01*
X56141587Y-48378433D01*
X56049083Y-48436558D01*
X55981846Y-48455558D01*
X55917139Y-48436558D01*
X55824634Y-48378433D01*
X55654365Y-48318853D01*
X55654360Y-48318852D01*
X55475115Y-48298657D01*
X55475107Y-48298657D01*
X55295861Y-48318852D01*
X55295856Y-48318853D01*
X55125587Y-48378433D01*
X54972848Y-48474406D01*
X54845295Y-48601959D01*
X54749322Y-48754698D01*
X54689742Y-48924967D01*
X54689741Y-48924972D01*
X54669546Y-49104218D01*
X53346431Y-49104218D01*
X53295284Y-48987615D01*
X53159277Y-48779439D01*
X53086194Y-48700050D01*
X52990855Y-48596484D01*
X52794620Y-48443748D01*
X52794618Y-48443747D01*
X52794617Y-48443746D01*
X52575922Y-48325394D01*
X52575913Y-48325391D01*
X52340727Y-48244651D01*
X52095446Y-48203722D01*
X51846776Y-48203722D01*
X51601494Y-48244651D01*
X51366308Y-48325391D01*
X51366299Y-48325394D01*
X51147604Y-48443746D01*
X50951368Y-48596483D01*
X50782944Y-48779439D01*
X50646937Y-48987615D01*
X50547047Y-49215340D01*
X50486003Y-49456397D01*
X50486001Y-49456409D01*
X50465468Y-49704216D01*
X50141111Y-49704216D01*
X50141111Y-45204216D01*
X50465970Y-45204216D01*
X50465970Y-45204227D01*
X50486496Y-45451951D01*
X50486498Y-45451960D01*
X50547523Y-45692939D01*
X50647377Y-45920586D01*
X50747675Y-46074104D01*
X51447323Y-45374456D01*
X51458593Y-45416514D01*
X51531001Y-45541930D01*
X51633403Y-45644332D01*
X51758819Y-45716740D01*
X51800876Y-45728009D01*
X51101053Y-46427831D01*
X51147879Y-46464277D01*
X51147881Y-46464278D01*
X51366496Y-46582586D01*
X51366507Y-46582591D01*
X51601617Y-46663305D01*
X51846818Y-46704222D01*
X52095404Y-46704222D01*
X52340604Y-46663305D01*
X52575714Y-46582591D01*
X52575725Y-46582586D01*
X52794339Y-46464279D01*
X52794342Y-46464277D01*
X52841167Y-46427831D01*
X52141345Y-45728009D01*
X52183403Y-45716740D01*
X52308819Y-45644332D01*
X52411221Y-45541930D01*
X52483629Y-45416514D01*
X52494898Y-45374457D01*
X53194545Y-46074104D01*
X53294842Y-45920591D01*
X53394698Y-45692939D01*
X53455723Y-45451960D01*
X53455725Y-45451951D01*
X53476252Y-45204227D01*
X53476252Y-45204216D01*
X56965970Y-45204216D01*
X56965970Y-45204227D01*
X56986496Y-45451951D01*
X56986498Y-45451960D01*
X57047523Y-45692939D01*
X57147377Y-45920586D01*
X57247675Y-46074104D01*
X57947323Y-45374456D01*
X57958593Y-45416514D01*
X58031001Y-45541930D01*
X58133403Y-45644332D01*
X58258819Y-45716740D01*
X58300876Y-45728009D01*
X57601053Y-46427831D01*
X57647879Y-46464277D01*
X57647881Y-46464278D01*
X57866496Y-46582586D01*
X57866507Y-46582591D01*
X58101617Y-46663305D01*
X58346818Y-46704222D01*
X58595404Y-46704222D01*
X58840604Y-46663305D01*
X59075714Y-46582591D01*
X59075725Y-46582586D01*
X59294339Y-46464279D01*
X59294342Y-46464277D01*
X59341167Y-46427831D01*
X58641345Y-45728009D01*
X58683403Y-45716740D01*
X58808819Y-45644332D01*
X58911221Y-45541930D01*
X58983629Y-45416514D01*
X58994898Y-45374457D01*
X59694545Y-46074104D01*
X59794842Y-45920591D01*
X59894699Y-45692938D01*
X59926905Y-45565763D01*
X59962445Y-45505607D01*
X60024865Y-45474215D01*
X60094349Y-45481553D01*
X60148834Y-45525292D01*
X60167317Y-45565763D01*
X60199522Y-45692938D01*
X60299377Y-45920586D01*
X60399675Y-46074104D01*
X61099323Y-45374456D01*
X61110593Y-45416514D01*
X61183001Y-45541930D01*
X61285403Y-45644332D01*
X61410819Y-45716740D01*
X61452876Y-45728009D01*
X60753053Y-46427831D01*
X60799879Y-46464277D01*
X60799881Y-46464278D01*
X61018496Y-46582586D01*
X61018507Y-46582591D01*
X61253617Y-46663305D01*
X61498818Y-46704222D01*
X61747404Y-46704222D01*
X61992604Y-46663305D01*
X62227714Y-46582591D01*
X62227725Y-46582586D01*
X62446339Y-46464279D01*
X62446342Y-46464277D01*
X62493167Y-46427831D01*
X61793345Y-45728009D01*
X61835403Y-45716740D01*
X61960819Y-45644332D01*
X62063221Y-45541930D01*
X62135629Y-45416514D01*
X62146898Y-45374457D01*
X62846545Y-46074104D01*
X62946842Y-45920591D01*
X63046698Y-45692939D01*
X63107723Y-45451960D01*
X63107725Y-45451951D01*
X63128252Y-45204227D01*
X63128252Y-45204216D01*
X66617970Y-45204216D01*
X66617970Y-45204227D01*
X66638496Y-45451951D01*
X66638498Y-45451960D01*
X66699523Y-45692939D01*
X66799377Y-45920586D01*
X66899675Y-46074104D01*
X67599323Y-45374456D01*
X67610593Y-45416514D01*
X67683001Y-45541930D01*
X67785403Y-45644332D01*
X67910819Y-45716740D01*
X67952876Y-45728009D01*
X67253053Y-46427831D01*
X67299879Y-46464277D01*
X67299881Y-46464278D01*
X67518496Y-46582586D01*
X67518507Y-46582591D01*
X67753617Y-46663305D01*
X67998818Y-46704222D01*
X68247404Y-46704222D01*
X68492604Y-46663305D01*
X68727714Y-46582591D01*
X68727725Y-46582586D01*
X68946339Y-46464279D01*
X68946342Y-46464277D01*
X68993167Y-46427831D01*
X68293345Y-45728009D01*
X68335403Y-45716740D01*
X68460819Y-45644332D01*
X68563221Y-45541930D01*
X68635629Y-45416514D01*
X68646898Y-45374457D01*
X69346545Y-46074104D01*
X69446842Y-45920591D01*
X69546698Y-45692939D01*
X69607723Y-45451960D01*
X69607725Y-45451951D01*
X69628252Y-45204227D01*
X69628252Y-45204216D01*
X69607725Y-44956492D01*
X69607723Y-44956483D01*
X69546698Y-44715504D01*
X69446842Y-44487852D01*
X69346545Y-44334338D01*
X68646898Y-45033986D01*
X68635629Y-44991930D01*
X68563221Y-44866514D01*
X68460819Y-44764112D01*
X68335403Y-44691704D01*
X68293346Y-44680434D01*
X68653403Y-44320377D01*
X70491999Y-44320377D01*
X70491999Y-44918222D01*
X71476313Y-44918222D01*
X71471919Y-44922616D01*
X71419258Y-45013828D01*
X71391999Y-45115561D01*
X71391999Y-45220883D01*
X71419258Y-45322616D01*
X71471919Y-45413828D01*
X71476313Y-45418222D01*
X70491999Y-45418222D01*
X70491999Y-46016066D01*
X70498400Y-46075594D01*
X70498402Y-46075601D01*
X70548644Y-46210308D01*
X70548648Y-46210315D01*
X70634808Y-46325409D01*
X70634811Y-46325412D01*
X70749905Y-46411572D01*
X70749912Y-46411576D01*
X70884619Y-46461818D01*
X70884626Y-46461820D01*
X70944154Y-46468221D01*
X70944171Y-46468222D01*
X71541999Y-46468222D01*
X71541999Y-45483908D01*
X71546393Y-45488302D01*
X71637605Y-45540963D01*
X71739338Y-45568222D01*
X71844660Y-45568222D01*
X71946393Y-45540963D01*
X72037605Y-45488302D01*
X72041999Y-45483908D01*
X72041999Y-46468222D01*
X72639827Y-46468222D01*
X72639843Y-46468221D01*
X72699371Y-46461820D01*
X72699378Y-46461818D01*
X72834085Y-46411576D01*
X72834087Y-46411574D01*
X72949185Y-46325412D01*
X72949187Y-46325410D01*
X72955641Y-46316790D01*
X73011574Y-46274918D01*
X73081265Y-46269932D01*
X73126028Y-46289522D01*
X73139265Y-46298790D01*
X73345503Y-46394961D01*
X73565307Y-46453857D01*
X73727229Y-46468023D01*
X73791997Y-46473690D01*
X73791999Y-46473690D01*
X73792001Y-46473690D01*
X73854510Y-46468221D01*
X74018691Y-46453857D01*
X74238495Y-46394961D01*
X74444733Y-46298790D01*
X74631138Y-46168269D01*
X74792046Y-46007361D01*
X74922567Y-45820956D01*
X75018738Y-45614718D01*
X75077634Y-45394914D01*
X75097467Y-45168222D01*
X75077634Y-44941530D01*
X75018738Y-44721726D01*
X74922567Y-44515488D01*
X74874065Y-44446220D01*
X76013643Y-44446220D01*
X76013643Y-44446223D01*
X76033475Y-44672908D01*
X76033477Y-44672919D01*
X76092369Y-44892710D01*
X76092372Y-44892719D01*
X76188542Y-45098954D01*
X76188543Y-45098956D01*
X76319065Y-45285363D01*
X76479969Y-45446267D01*
X76479972Y-45446269D01*
X76666377Y-45576790D01*
X76872615Y-45672961D01*
X77092419Y-45731857D01*
X77254341Y-45746023D01*
X77319109Y-45751690D01*
X77319111Y-45751690D01*
X77319113Y-45751690D01*
X77375784Y-45746731D01*
X77545803Y-45731857D01*
X77765607Y-45672961D01*
X77971845Y-45576790D01*
X78158250Y-45446269D01*
X78319158Y-45285361D01*
X78449679Y-45098956D01*
X78545850Y-44892718D01*
X78604746Y-44672914D01*
X78624579Y-44446222D01*
X78604746Y-44219530D01*
X78545850Y-43999726D01*
X78449679Y-43793488D01*
X78319158Y-43607083D01*
X78319156Y-43607080D01*
X78158252Y-43446176D01*
X77971846Y-43315654D01*
X77971842Y-43315652D01*
X77945084Y-43303174D01*
X77909810Y-43278474D01*
X77365559Y-42734222D01*
X77371772Y-42734222D01*
X77473505Y-42706963D01*
X77564717Y-42654302D01*
X77639191Y-42579828D01*
X77691852Y-42488616D01*
X77719111Y-42386883D01*
X77719111Y-42380669D01*
X78398135Y-43059693D01*
X78449247Y-42986700D01*
X78545375Y-42780553D01*
X78545380Y-42780539D01*
X78604250Y-42560832D01*
X78604252Y-42560821D01*
X78624077Y-42334224D01*
X78624077Y-42334219D01*
X78604252Y-42107622D01*
X78604250Y-42107611D01*
X78545380Y-41887904D01*
X78545375Y-41887890D01*
X78449247Y-41681743D01*
X78449243Y-41681735D01*
X78398136Y-41608748D01*
X77719111Y-42287773D01*
X77719111Y-42281561D01*
X77691852Y-42179828D01*
X77639191Y-42088616D01*
X77564717Y-42014142D01*
X77473505Y-41961481D01*
X77371772Y-41934222D01*
X77365559Y-41934222D01*
X78044583Y-41255196D01*
X77971589Y-41204085D01*
X77765442Y-41107957D01*
X77765428Y-41107952D01*
X77545721Y-41049082D01*
X77545710Y-41049080D01*
X77319113Y-41029256D01*
X77319109Y-41029256D01*
X77092511Y-41049080D01*
X77092500Y-41049082D01*
X76872793Y-41107952D01*
X76872784Y-41107956D01*
X76666627Y-41204088D01*
X76666623Y-41204090D01*
X76593637Y-41255195D01*
X76593637Y-41255196D01*
X77272664Y-41934222D01*
X77266450Y-41934222D01*
X77164717Y-41961481D01*
X77073505Y-42014142D01*
X76999031Y-42088616D01*
X76946370Y-42179828D01*
X76919111Y-42281561D01*
X76919111Y-42287774D01*
X76240085Y-41608748D01*
X76240084Y-41608748D01*
X76188979Y-41681734D01*
X76188977Y-41681738D01*
X76092845Y-41887895D01*
X76092841Y-41887904D01*
X76033971Y-42107611D01*
X76033969Y-42107622D01*
X76014145Y-42334219D01*
X76014145Y-42334224D01*
X76033969Y-42560821D01*
X76033971Y-42560832D01*
X76092841Y-42780539D01*
X76092846Y-42780553D01*
X76188974Y-42986700D01*
X76240085Y-43059694D01*
X76919111Y-42380668D01*
X76919111Y-42386883D01*
X76946370Y-42488616D01*
X76999031Y-42579828D01*
X77073505Y-42654302D01*
X77164717Y-42706963D01*
X77266450Y-42734222D01*
X77272664Y-42734222D01*
X76728409Y-43278475D01*
X76693138Y-43303174D01*
X76666373Y-43315655D01*
X76479969Y-43446176D01*
X76319065Y-43607080D01*
X76188543Y-43793487D01*
X76188542Y-43793489D01*
X76092372Y-43999724D01*
X76092369Y-43999733D01*
X76033477Y-44219524D01*
X76033475Y-44219535D01*
X76013643Y-44446220D01*
X74874065Y-44446220D01*
X74792046Y-44329083D01*
X74792044Y-44329080D01*
X74631140Y-44168176D01*
X74444733Y-44037654D01*
X74444731Y-44037653D01*
X74238496Y-43941483D01*
X74238487Y-43941480D01*
X74018696Y-43882588D01*
X74018692Y-43882587D01*
X74018691Y-43882587D01*
X74018690Y-43882586D01*
X74018685Y-43882586D01*
X73792001Y-43862754D01*
X73791997Y-43862754D01*
X73565312Y-43882586D01*
X73565301Y-43882588D01*
X73345510Y-43941480D01*
X73345501Y-43941483D01*
X73139260Y-44037656D01*
X73139259Y-44037656D01*
X73126028Y-44046921D01*
X73059821Y-44069247D01*
X72992054Y-44052234D01*
X72955639Y-44019652D01*
X72949185Y-44011030D01*
X72834092Y-43924871D01*
X72834085Y-43924867D01*
X72699378Y-43874625D01*
X72699371Y-43874623D01*
X72639843Y-43868222D01*
X72041999Y-43868222D01*
X72041999Y-44852536D01*
X72037605Y-44848142D01*
X71946393Y-44795481D01*
X71844660Y-44768222D01*
X71739338Y-44768222D01*
X71637605Y-44795481D01*
X71546393Y-44848142D01*
X71541999Y-44852536D01*
X71541999Y-43868222D01*
X70944154Y-43868222D01*
X70884626Y-43874623D01*
X70884619Y-43874625D01*
X70749912Y-43924867D01*
X70749905Y-43924871D01*
X70634811Y-44011031D01*
X70634808Y-44011034D01*
X70548648Y-44126128D01*
X70548644Y-44126135D01*
X70498402Y-44260842D01*
X70498400Y-44260849D01*
X70491999Y-44320377D01*
X68653403Y-44320377D01*
X68993168Y-43980612D01*
X68993167Y-43980611D01*
X68946340Y-43944165D01*
X68727725Y-43825857D01*
X68727714Y-43825852D01*
X68492604Y-43745138D01*
X68247404Y-43704222D01*
X67998818Y-43704222D01*
X67753617Y-43745138D01*
X67518507Y-43825852D01*
X67518501Y-43825854D01*
X67299872Y-43944171D01*
X67253053Y-43980610D01*
X67253053Y-43980612D01*
X67952876Y-44680434D01*
X67910819Y-44691704D01*
X67785403Y-44764112D01*
X67683001Y-44866514D01*
X67610593Y-44991930D01*
X67599323Y-45033986D01*
X66899675Y-44334338D01*
X66799378Y-44487854D01*
X66699523Y-44715504D01*
X66638498Y-44956483D01*
X66638496Y-44956492D01*
X66617970Y-45204216D01*
X63128252Y-45204216D01*
X63107725Y-44956492D01*
X63107723Y-44956483D01*
X63046698Y-44715504D01*
X62946842Y-44487852D01*
X62846545Y-44334338D01*
X62146898Y-45033986D01*
X62135629Y-44991930D01*
X62063221Y-44866514D01*
X61960819Y-44764112D01*
X61835403Y-44691704D01*
X61793346Y-44680434D01*
X62493168Y-43980612D01*
X62493167Y-43980611D01*
X62446340Y-43944165D01*
X62227725Y-43825857D01*
X62227714Y-43825852D01*
X61992604Y-43745138D01*
X61747404Y-43704222D01*
X61498818Y-43704222D01*
X61253617Y-43745138D01*
X61018507Y-43825852D01*
X61018501Y-43825854D01*
X60799872Y-43944171D01*
X60753053Y-43980610D01*
X60753053Y-43980612D01*
X61452876Y-44680434D01*
X61410819Y-44691704D01*
X61285403Y-44764112D01*
X61183001Y-44866514D01*
X61110593Y-44991930D01*
X61099323Y-45033986D01*
X60399675Y-44334338D01*
X60299378Y-44487854D01*
X60199522Y-44715504D01*
X60167317Y-44842681D01*
X60131777Y-44902836D01*
X60069356Y-44934228D01*
X59999873Y-44926890D01*
X59945388Y-44883151D01*
X59926905Y-44842681D01*
X59894699Y-44715504D01*
X59794842Y-44487852D01*
X59694545Y-44334338D01*
X58994898Y-45033986D01*
X58983629Y-44991930D01*
X58911221Y-44866514D01*
X58808819Y-44764112D01*
X58683403Y-44691704D01*
X58641346Y-44680434D01*
X59341168Y-43980612D01*
X59341167Y-43980611D01*
X59294340Y-43944165D01*
X59075725Y-43825857D01*
X59075714Y-43825852D01*
X58840604Y-43745138D01*
X58595404Y-43704222D01*
X58346818Y-43704222D01*
X58101617Y-43745138D01*
X57866507Y-43825852D01*
X57866501Y-43825854D01*
X57647872Y-43944171D01*
X57601053Y-43980610D01*
X57601053Y-43980612D01*
X58300876Y-44680434D01*
X58258819Y-44691704D01*
X58133403Y-44764112D01*
X58031001Y-44866514D01*
X57958593Y-44991930D01*
X57947323Y-45033986D01*
X57247675Y-44334338D01*
X57147378Y-44487854D01*
X57047523Y-44715504D01*
X56986498Y-44956483D01*
X56986496Y-44956492D01*
X56965970Y-45204216D01*
X53476252Y-45204216D01*
X53455725Y-44956492D01*
X53455723Y-44956483D01*
X53394698Y-44715504D01*
X53294842Y-44487852D01*
X53194545Y-44334338D01*
X52494898Y-45033986D01*
X52483629Y-44991930D01*
X52411221Y-44866514D01*
X52308819Y-44764112D01*
X52183403Y-44691704D01*
X52141346Y-44680434D01*
X52841168Y-43980612D01*
X52841167Y-43980611D01*
X52794340Y-43944165D01*
X52575725Y-43825857D01*
X52575714Y-43825852D01*
X52340604Y-43745138D01*
X52095404Y-43704222D01*
X51846818Y-43704222D01*
X51601617Y-43745138D01*
X51366507Y-43825852D01*
X51366501Y-43825854D01*
X51147872Y-43944171D01*
X51101053Y-43980610D01*
X51101053Y-43980612D01*
X51800876Y-44680434D01*
X51758819Y-44691704D01*
X51633403Y-44764112D01*
X51531001Y-44866514D01*
X51458593Y-44991930D01*
X51447323Y-45033986D01*
X50747675Y-44334338D01*
X50647378Y-44487854D01*
X50547523Y-44715504D01*
X50486498Y-44956483D01*
X50486496Y-44956492D01*
X50465970Y-45204216D01*
X50141111Y-45204216D01*
X50141111Y-23832221D01*
X50563452Y-23832221D01*
X50563452Y-23832222D01*
X50584047Y-24067625D01*
X50584049Y-24067635D01*
X50645205Y-24295877D01*
X50645207Y-24295881D01*
X50645208Y-24295885D01*
X50745076Y-24510052D01*
X50745078Y-24510056D01*
X50880612Y-24703617D01*
X50880617Y-24703624D01*
X51047708Y-24870715D01*
X51047714Y-24870720D01*
X51233269Y-25000647D01*
X51276894Y-25055224D01*
X51284088Y-25124722D01*
X51252565Y-25187077D01*
X51233269Y-25203797D01*
X51047708Y-25333727D01*
X50880616Y-25500819D01*
X50745076Y-25694391D01*
X50745075Y-25694393D01*
X50645209Y-25908557D01*
X50645205Y-25908566D01*
X50584049Y-26136808D01*
X50584047Y-26136818D01*
X50563452Y-26372221D01*
X50563452Y-26372222D01*
X50584047Y-26607625D01*
X50584049Y-26607635D01*
X50645205Y-26835877D01*
X50645207Y-26835881D01*
X50645208Y-26835885D01*
X50674841Y-26899433D01*
X50745076Y-27050052D01*
X50745078Y-27050056D01*
X50880612Y-27243617D01*
X50880617Y-27243624D01*
X51047708Y-27410715D01*
X51047714Y-27410720D01*
X51233269Y-27540647D01*
X51276894Y-27595224D01*
X51284088Y-27664722D01*
X51252565Y-27727077D01*
X51233269Y-27743797D01*
X51047708Y-27873727D01*
X50880616Y-28040819D01*
X50745076Y-28234391D01*
X50745075Y-28234393D01*
X50645209Y-28448557D01*
X50645205Y-28448566D01*
X50584049Y-28676808D01*
X50584047Y-28676818D01*
X50563452Y-28912221D01*
X50563452Y-28912222D01*
X50584047Y-29147625D01*
X50584049Y-29147635D01*
X50645205Y-29375877D01*
X50645207Y-29375881D01*
X50645208Y-29375885D01*
X50739782Y-29578698D01*
X50745076Y-29590052D01*
X50745078Y-29590056D01*
X50880612Y-29783617D01*
X50880617Y-29783624D01*
X51047708Y-29950715D01*
X51047714Y-29950720D01*
X51233269Y-30080647D01*
X51276894Y-30135224D01*
X51284088Y-30204722D01*
X51252565Y-30267077D01*
X51233269Y-30283797D01*
X51047708Y-30413727D01*
X50880616Y-30580819D01*
X50745076Y-30774391D01*
X50745075Y-30774393D01*
X50645209Y-30988557D01*
X50645205Y-30988566D01*
X50584049Y-31216808D01*
X50584047Y-31216818D01*
X50563452Y-31452221D01*
X50563452Y-31452222D01*
X50584047Y-31687625D01*
X50584049Y-31687635D01*
X50645205Y-31915877D01*
X50645207Y-31915881D01*
X50645208Y-31915885D01*
X50745076Y-32130052D01*
X50745078Y-32130056D01*
X50853392Y-32284743D01*
X50880612Y-32323618D01*
X50880617Y-32323624D01*
X51047708Y-32490715D01*
X51047714Y-32490720D01*
X51233269Y-32620647D01*
X51276894Y-32675224D01*
X51284088Y-32744722D01*
X51252565Y-32807077D01*
X51233269Y-32823797D01*
X51047708Y-32953727D01*
X50880616Y-33120819D01*
X50745076Y-33314391D01*
X50745075Y-33314393D01*
X50645209Y-33528557D01*
X50645205Y-33528566D01*
X50584049Y-33756808D01*
X50584047Y-33756818D01*
X50563452Y-33992221D01*
X50563452Y-33992222D01*
X50584047Y-34227625D01*
X50584049Y-34227635D01*
X50645205Y-34455877D01*
X50645207Y-34455881D01*
X50645208Y-34455885D01*
X50745076Y-34670052D01*
X50745078Y-34670056D01*
X50880612Y-34863617D01*
X50880617Y-34863624D01*
X51047708Y-35030715D01*
X51047714Y-35030720D01*
X51233269Y-35160647D01*
X51276894Y-35215224D01*
X51284088Y-35284722D01*
X51252565Y-35347077D01*
X51233269Y-35363797D01*
X51047708Y-35493727D01*
X50880616Y-35660819D01*
X50745076Y-35854391D01*
X50745075Y-35854393D01*
X50645209Y-36068557D01*
X50645205Y-36068566D01*
X50584049Y-36296808D01*
X50584047Y-36296818D01*
X50563452Y-36532221D01*
X50563452Y-36532222D01*
X50584047Y-36767625D01*
X50584049Y-36767635D01*
X50645205Y-36995877D01*
X50645207Y-36995881D01*
X50645208Y-36995885D01*
X50745076Y-37210052D01*
X50745078Y-37210056D01*
X50880612Y-37403617D01*
X50880617Y-37403624D01*
X51047708Y-37570715D01*
X51047714Y-37570720D01*
X51233269Y-37700647D01*
X51276894Y-37755224D01*
X51284088Y-37824722D01*
X51252565Y-37887077D01*
X51233269Y-37903797D01*
X51047708Y-38033727D01*
X50880616Y-38200819D01*
X50745076Y-38394391D01*
X50745075Y-38394393D01*
X50645209Y-38608557D01*
X50645205Y-38608566D01*
X50584049Y-38836808D01*
X50584047Y-38836818D01*
X50563452Y-39072221D01*
X50563452Y-39072222D01*
X50584047Y-39307625D01*
X50584049Y-39307635D01*
X50645205Y-39535877D01*
X50645207Y-39535881D01*
X50645208Y-39535885D01*
X50745076Y-39750052D01*
X50745078Y-39750056D01*
X50853392Y-39904743D01*
X50880612Y-39943618D01*
X50880617Y-39943624D01*
X51002929Y-40065936D01*
X51036414Y-40127259D01*
X51031430Y-40196951D01*
X50989558Y-40252884D01*
X50958582Y-40269799D01*
X50827023Y-40318868D01*
X50827017Y-40318871D01*
X50711923Y-40405031D01*
X50711920Y-40405034D01*
X50625760Y-40520128D01*
X50625756Y-40520135D01*
X50575514Y-40654842D01*
X50575512Y-40654849D01*
X50569111Y-40714377D01*
X50569111Y-41362222D01*
X51486099Y-41362222D01*
X51453186Y-41419229D01*
X51419111Y-41546396D01*
X51419111Y-41678048D01*
X51453186Y-41805215D01*
X51486099Y-41862222D01*
X50569111Y-41862222D01*
X50569111Y-42510066D01*
X50575512Y-42569594D01*
X50575514Y-42569601D01*
X50625756Y-42704308D01*
X50625760Y-42704315D01*
X50711920Y-42819409D01*
X50711923Y-42819412D01*
X50827017Y-42905572D01*
X50827024Y-42905576D01*
X50961731Y-42955818D01*
X50961738Y-42955820D01*
X51021266Y-42962221D01*
X51021283Y-42962222D01*
X51669111Y-42962222D01*
X51669111Y-42045234D01*
X51726118Y-42078147D01*
X51853285Y-42112222D01*
X51984937Y-42112222D01*
X52112104Y-42078147D01*
X52169111Y-42045234D01*
X52169111Y-42962222D01*
X52816939Y-42962222D01*
X52816955Y-42962221D01*
X52876483Y-42955820D01*
X52876490Y-42955818D01*
X53011197Y-42905576D01*
X53011204Y-42905572D01*
X53126298Y-42819412D01*
X53126301Y-42819409D01*
X53212461Y-42704315D01*
X53212465Y-42704308D01*
X53262707Y-42569601D01*
X53262709Y-42569594D01*
X53269110Y-42510066D01*
X53269111Y-42510049D01*
X53269111Y-41862222D01*
X52352123Y-41862222D01*
X52385036Y-41805215D01*
X52419111Y-41678048D01*
X52419111Y-41546396D01*
X52385036Y-41419229D01*
X52352123Y-41362222D01*
X53269111Y-41362222D01*
X53269111Y-40714394D01*
X53269110Y-40714377D01*
X53262709Y-40654849D01*
X53262707Y-40654842D01*
X53212465Y-40520135D01*
X53212461Y-40520128D01*
X53126301Y-40405034D01*
X53126298Y-40405031D01*
X53011204Y-40318871D01*
X53011199Y-40318868D01*
X52879639Y-40269799D01*
X52823706Y-40227927D01*
X52799289Y-40162463D01*
X52814141Y-40094190D01*
X52835286Y-40065942D01*
X52957606Y-39943623D01*
X53093146Y-39750052D01*
X53193014Y-39535885D01*
X53254174Y-39307630D01*
X53274770Y-39072222D01*
X53254174Y-38836814D01*
X53193014Y-38608559D01*
X53093146Y-38394393D01*
X53051046Y-38334267D01*
X52957605Y-38200819D01*
X52790513Y-38033728D01*
X52790507Y-38033723D01*
X52604953Y-37903797D01*
X52561328Y-37849220D01*
X52554134Y-37779722D01*
X52585657Y-37717367D01*
X52604953Y-37700647D01*
X52627137Y-37685113D01*
X52790512Y-37570717D01*
X52957606Y-37403623D01*
X53006203Y-37334220D01*
X76013643Y-37334220D01*
X76013643Y-37334223D01*
X76033475Y-37560908D01*
X76033477Y-37560919D01*
X76092369Y-37780710D01*
X76092372Y-37780719D01*
X76188542Y-37986954D01*
X76188543Y-37986956D01*
X76319065Y-38173363D01*
X76479969Y-38334267D01*
X76479972Y-38334269D01*
X76666377Y-38464790D01*
X76872615Y-38560961D01*
X77092419Y-38619857D01*
X77254341Y-38634023D01*
X77319109Y-38639690D01*
X77319111Y-38639690D01*
X77319113Y-38639690D01*
X77375784Y-38634731D01*
X77545803Y-38619857D01*
X77765607Y-38560961D01*
X77971845Y-38464790D01*
X78158250Y-38334269D01*
X78319158Y-38173361D01*
X78449679Y-37986956D01*
X78545850Y-37780718D01*
X78604746Y-37560914D01*
X78624579Y-37334222D01*
X78604746Y-37107530D01*
X78545850Y-36887726D01*
X78449679Y-36681488D01*
X78319158Y-36495083D01*
X78319156Y-36495080D01*
X78158252Y-36334176D01*
X77971845Y-36203654D01*
X77971843Y-36203653D01*
X77765608Y-36107483D01*
X77765599Y-36107480D01*
X77545808Y-36048588D01*
X77545804Y-36048587D01*
X77545803Y-36048587D01*
X77545802Y-36048586D01*
X77545797Y-36048586D01*
X77319113Y-36028754D01*
X77319109Y-36028754D01*
X77092424Y-36048586D01*
X77092413Y-36048588D01*
X76872622Y-36107480D01*
X76872613Y-36107483D01*
X76666378Y-36203653D01*
X76666376Y-36203654D01*
X76479969Y-36334176D01*
X76319065Y-36495080D01*
X76188543Y-36681487D01*
X76188542Y-36681489D01*
X76092372Y-36887724D01*
X76092369Y-36887733D01*
X76033477Y-37107524D01*
X76033475Y-37107535D01*
X76013643Y-37334220D01*
X53006203Y-37334220D01*
X53093146Y-37210052D01*
X53193014Y-36995885D01*
X53254174Y-36767630D01*
X53274770Y-36532222D01*
X53254174Y-36296814D01*
X53193014Y-36068559D01*
X53093146Y-35854393D01*
X52957606Y-35660821D01*
X52957605Y-35660819D01*
X52790513Y-35493728D01*
X52790507Y-35493723D01*
X52604953Y-35363797D01*
X52561328Y-35309220D01*
X52554134Y-35239722D01*
X52585657Y-35177367D01*
X52604953Y-35160647D01*
X52627137Y-35145113D01*
X52790512Y-35030717D01*
X52957606Y-34863623D01*
X53093146Y-34670052D01*
X53193014Y-34455885D01*
X53254174Y-34227630D01*
X53274770Y-33992222D01*
X53254174Y-33756814D01*
X53193014Y-33528559D01*
X53093146Y-33314393D01*
X52957606Y-33120821D01*
X52957605Y-33120819D01*
X52790513Y-32953728D01*
X52790507Y-32953723D01*
X52604953Y-32823797D01*
X52561328Y-32769220D01*
X52554134Y-32699722D01*
X52585657Y-32637367D01*
X52604953Y-32620647D01*
X52717165Y-32542075D01*
X52790512Y-32490717D01*
X52957606Y-32323623D01*
X53093146Y-32130052D01*
X53193014Y-31915885D01*
X53254174Y-31687630D01*
X53274770Y-31452222D01*
X53254174Y-31216814D01*
X53193014Y-30988559D01*
X53093146Y-30774393D01*
X53064714Y-30733787D01*
X52957605Y-30580819D01*
X52790513Y-30413728D01*
X52790507Y-30413723D01*
X52604953Y-30283797D01*
X52561328Y-30229220D01*
X52554134Y-30159722D01*
X52585657Y-30097367D01*
X52604953Y-30080647D01*
X52627137Y-30065113D01*
X52790512Y-29950717D01*
X52957606Y-29783623D01*
X53093146Y-29590052D01*
X53193014Y-29375885D01*
X53254174Y-29147630D01*
X53274770Y-28912222D01*
X53254174Y-28676814D01*
X53193014Y-28448559D01*
X53093146Y-28234393D01*
X52957606Y-28040821D01*
X52957605Y-28040819D01*
X52790513Y-27873728D01*
X52790507Y-27873723D01*
X52604953Y-27743797D01*
X52561328Y-27689220D01*
X52554134Y-27619722D01*
X52585657Y-27557367D01*
X52604953Y-27540647D01*
X52765525Y-27428213D01*
X52790512Y-27410717D01*
X52952276Y-27248953D01*
X56816281Y-27248953D01*
X56816281Y-27248960D01*
X56836476Y-27428206D01*
X56836477Y-27428211D01*
X56896057Y-27598480D01*
X56992030Y-27751219D01*
X57124292Y-27883481D01*
X57157777Y-27944804D01*
X57160611Y-27971162D01*
X57160611Y-29345809D01*
X57140926Y-29412848D01*
X57133561Y-29423118D01*
X57131297Y-29425956D01*
X57035322Y-29578698D01*
X56975742Y-29748967D01*
X56975741Y-29748972D01*
X56955546Y-29928218D01*
X56955546Y-29928225D01*
X56975741Y-30107471D01*
X56975742Y-30107476D01*
X57035322Y-30277745D01*
X57035600Y-30278187D01*
X57131295Y-30430484D01*
X57258849Y-30558038D01*
X57411589Y-30654011D01*
X57581856Y-30713590D01*
X57581861Y-30713591D01*
X57761107Y-30733787D01*
X57761111Y-30733787D01*
X57761115Y-30733787D01*
X57940360Y-30713591D01*
X57940363Y-30713590D01*
X57940366Y-30713590D01*
X58110633Y-30654011D01*
X58263373Y-30558038D01*
X58390927Y-30430484D01*
X58486900Y-30277744D01*
X58546479Y-30107477D01*
X58564141Y-29950720D01*
X58566676Y-29928225D01*
X58566676Y-29928218D01*
X58546480Y-29748972D01*
X58546479Y-29748967D01*
X58486900Y-29578700D01*
X58390927Y-29425960D01*
X58390925Y-29425958D01*
X58390924Y-29425956D01*
X58388661Y-29423118D01*
X58387770Y-29420937D01*
X58387222Y-29420064D01*
X58387375Y-29419967D01*
X58362255Y-29358431D01*
X58361611Y-29345809D01*
X58361611Y-27579604D01*
X58368570Y-27538649D01*
X58407214Y-27428212D01*
X58427411Y-27248957D01*
X58426810Y-27243624D01*
X58407215Y-27069707D01*
X58407214Y-27069702D01*
X58347634Y-26899433D01*
X58251661Y-26746694D01*
X58124108Y-26619141D01*
X57971369Y-26523168D01*
X57801100Y-26463588D01*
X57801095Y-26463587D01*
X57621850Y-26443392D01*
X57621842Y-26443392D01*
X57442596Y-26463587D01*
X57442591Y-26463588D01*
X57272322Y-26523168D01*
X57119583Y-26619141D01*
X56992030Y-26746694D01*
X56896057Y-26899433D01*
X56836477Y-27069702D01*
X56836476Y-27069707D01*
X56816281Y-27248953D01*
X52952276Y-27248953D01*
X52957606Y-27243623D01*
X53093146Y-27050052D01*
X53193014Y-26835885D01*
X53254174Y-26607630D01*
X53274770Y-26372222D01*
X53254174Y-26136814D01*
X53193014Y-25908559D01*
X53093146Y-25694393D01*
X52957606Y-25500821D01*
X52957605Y-25500819D01*
X52790513Y-25333728D01*
X52790507Y-25333723D01*
X52604953Y-25203797D01*
X52561328Y-25149220D01*
X52554134Y-25079722D01*
X52585657Y-25017367D01*
X52604953Y-25000647D01*
X52627137Y-24985113D01*
X52790512Y-24870717D01*
X52957606Y-24703623D01*
X53093146Y-24510052D01*
X53193014Y-24295885D01*
X53254174Y-24067630D01*
X53274770Y-23832222D01*
X53274770Y-23832221D01*
X75963452Y-23832221D01*
X75963452Y-23832222D01*
X75984047Y-24067625D01*
X75984049Y-24067635D01*
X76045205Y-24295877D01*
X76045207Y-24295881D01*
X76045208Y-24295885D01*
X76145076Y-24510052D01*
X76145078Y-24510056D01*
X76280612Y-24703617D01*
X76280617Y-24703624D01*
X76447708Y-24870715D01*
X76447714Y-24870720D01*
X76633269Y-25000647D01*
X76676894Y-25055224D01*
X76684088Y-25124722D01*
X76652565Y-25187077D01*
X76633269Y-25203797D01*
X76447708Y-25333727D01*
X76280616Y-25500819D01*
X76145076Y-25694391D01*
X76145075Y-25694393D01*
X76045209Y-25908557D01*
X76045205Y-25908566D01*
X75984049Y-26136808D01*
X75984047Y-26136818D01*
X75963452Y-26372221D01*
X75963452Y-26372222D01*
X75984047Y-26607625D01*
X75984049Y-26607635D01*
X76045205Y-26835877D01*
X76045207Y-26835881D01*
X76045208Y-26835885D01*
X76074841Y-26899433D01*
X76145076Y-27050052D01*
X76145078Y-27050056D01*
X76280612Y-27243617D01*
X76280617Y-27243624D01*
X76447708Y-27410715D01*
X76447714Y-27410720D01*
X76633269Y-27540647D01*
X76676894Y-27595224D01*
X76684088Y-27664722D01*
X76652565Y-27727077D01*
X76633269Y-27743797D01*
X76447708Y-27873727D01*
X76280616Y-28040819D01*
X76145076Y-28234391D01*
X76145075Y-28234393D01*
X76045209Y-28448557D01*
X76045205Y-28448566D01*
X75984049Y-28676808D01*
X75984047Y-28676818D01*
X75963452Y-28912221D01*
X75963452Y-28912222D01*
X75984047Y-29147625D01*
X75984049Y-29147635D01*
X76045205Y-29375877D01*
X76045207Y-29375881D01*
X76045208Y-29375885D01*
X76139782Y-29578698D01*
X76145076Y-29590052D01*
X76145078Y-29590056D01*
X76280612Y-29783617D01*
X76280617Y-29783624D01*
X76447708Y-29950715D01*
X76447714Y-29950720D01*
X76633269Y-30080647D01*
X76676894Y-30135224D01*
X76684088Y-30204722D01*
X76652565Y-30267077D01*
X76633269Y-30283797D01*
X76447708Y-30413727D01*
X76280616Y-30580819D01*
X76145076Y-30774391D01*
X76145075Y-30774393D01*
X76045209Y-30988557D01*
X76045205Y-30988566D01*
X75984049Y-31216808D01*
X75984047Y-31216818D01*
X75963452Y-31452221D01*
X75963452Y-31452222D01*
X75984047Y-31687625D01*
X75984049Y-31687635D01*
X76045205Y-31915877D01*
X76045207Y-31915881D01*
X76045208Y-31915885D01*
X76145076Y-32130052D01*
X76145078Y-32130056D01*
X76253392Y-32284743D01*
X76280612Y-32323618D01*
X76280617Y-32323624D01*
X76402541Y-32445548D01*
X76436026Y-32506871D01*
X76431042Y-32576563D01*
X76389170Y-32632496D01*
X76358194Y-32649411D01*
X76226780Y-32698425D01*
X76226775Y-32698428D01*
X76111566Y-32784674D01*
X76111563Y-32784677D01*
X76025317Y-32899886D01*
X76025313Y-32899893D01*
X75975019Y-33034739D01*
X75968612Y-33094338D01*
X75968612Y-33094345D01*
X75968611Y-33094357D01*
X75968611Y-34890092D01*
X75968612Y-34890098D01*
X75975019Y-34949705D01*
X76025313Y-35084550D01*
X76025317Y-35084557D01*
X76111563Y-35199766D01*
X76111566Y-35199769D01*
X76226775Y-35286015D01*
X76226782Y-35286019D01*
X76361628Y-35336313D01*
X76361627Y-35336313D01*
X76368555Y-35337057D01*
X76421238Y-35342722D01*
X78216983Y-35342721D01*
X78276594Y-35336313D01*
X78411442Y-35286018D01*
X78526657Y-35199768D01*
X78612907Y-35084553D01*
X78663202Y-34949705D01*
X78669611Y-34890095D01*
X78669610Y-33094350D01*
X78663202Y-33034739D01*
X78612907Y-32899891D01*
X78612906Y-32899890D01*
X78612904Y-32899886D01*
X78526658Y-32784677D01*
X78526655Y-32784674D01*
X78411446Y-32698428D01*
X78411439Y-32698424D01*
X78280028Y-32649411D01*
X78224094Y-32607540D01*
X78199677Y-32542075D01*
X78214529Y-32473802D01*
X78235674Y-32445554D01*
X78357606Y-32323623D01*
X78493146Y-32130052D01*
X78593014Y-31915885D01*
X78654174Y-31687630D01*
X78674770Y-31452222D01*
X78654174Y-31216814D01*
X78593014Y-30988559D01*
X78493146Y-30774393D01*
X78464714Y-30733787D01*
X78357605Y-30580819D01*
X78190513Y-30413728D01*
X78190507Y-30413723D01*
X78004953Y-30283797D01*
X77961328Y-30229220D01*
X77954134Y-30159722D01*
X77985657Y-30097367D01*
X78004953Y-30080647D01*
X78027137Y-30065113D01*
X78190512Y-29950717D01*
X78357606Y-29783623D01*
X78493146Y-29590052D01*
X78593014Y-29375885D01*
X78654174Y-29147630D01*
X78674770Y-28912222D01*
X78654174Y-28676814D01*
X78593014Y-28448559D01*
X78493146Y-28234393D01*
X78357606Y-28040821D01*
X78357605Y-28040819D01*
X78190513Y-27873728D01*
X78190507Y-27873723D01*
X78004953Y-27743797D01*
X77961328Y-27689220D01*
X77954134Y-27619722D01*
X77985657Y-27557367D01*
X78004953Y-27540647D01*
X78165525Y-27428213D01*
X78190512Y-27410717D01*
X78357606Y-27243623D01*
X78493146Y-27050052D01*
X78593014Y-26835885D01*
X78654174Y-26607630D01*
X78674770Y-26372222D01*
X78654174Y-26136814D01*
X78593014Y-25908559D01*
X78493146Y-25694393D01*
X78357606Y-25500821D01*
X78357605Y-25500819D01*
X78190513Y-25333728D01*
X78190507Y-25333723D01*
X78004953Y-25203797D01*
X77961328Y-25149220D01*
X77954134Y-25079722D01*
X77985657Y-25017367D01*
X78004953Y-25000647D01*
X78027137Y-24985113D01*
X78190512Y-24870717D01*
X78357606Y-24703623D01*
X78493146Y-24510052D01*
X78593014Y-24295885D01*
X78654174Y-24067630D01*
X78674770Y-23832222D01*
X78654174Y-23596814D01*
X78593014Y-23368559D01*
X78493146Y-23154393D01*
X78458693Y-23105188D01*
X78357605Y-22960819D01*
X78190513Y-22793728D01*
X78190506Y-22793723D01*
X77996945Y-22658189D01*
X77996941Y-22658187D01*
X77956573Y-22639363D01*
X77782774Y-22558319D01*
X77782770Y-22558318D01*
X77782766Y-22558316D01*
X77554524Y-22497160D01*
X77554514Y-22497158D01*
X77319112Y-22476563D01*
X77319110Y-22476563D01*
X77083707Y-22497158D01*
X77083697Y-22497160D01*
X76855455Y-22558316D01*
X76855446Y-22558320D01*
X76641282Y-22658186D01*
X76641280Y-22658187D01*
X76447708Y-22793727D01*
X76280616Y-22960819D01*
X76145076Y-23154391D01*
X76145075Y-23154393D01*
X76045209Y-23368557D01*
X76045205Y-23368566D01*
X75984049Y-23596808D01*
X75984047Y-23596818D01*
X75963452Y-23832221D01*
X53274770Y-23832221D01*
X53254174Y-23596814D01*
X53193014Y-23368559D01*
X53093146Y-23154393D01*
X53058693Y-23105188D01*
X52957605Y-22960819D01*
X52790513Y-22793728D01*
X52790506Y-22793723D01*
X52596945Y-22658189D01*
X52596941Y-22658187D01*
X52556573Y-22639363D01*
X52382774Y-22558319D01*
X52382770Y-22558318D01*
X52382766Y-22558316D01*
X52154524Y-22497160D01*
X52154514Y-22497158D01*
X51919112Y-22476563D01*
X51919110Y-22476563D01*
X51683707Y-22497158D01*
X51683697Y-22497160D01*
X51455455Y-22558316D01*
X51455446Y-22558320D01*
X51241282Y-22658186D01*
X51241280Y-22658187D01*
X51047708Y-22793727D01*
X50880616Y-22960819D01*
X50745076Y-23154391D01*
X50745075Y-23154393D01*
X50645209Y-23368557D01*
X50645205Y-23368566D01*
X50584049Y-23596808D01*
X50584047Y-23596818D01*
X50563452Y-23832221D01*
X50141111Y-23832221D01*
X50141111Y-21800219D01*
X55226145Y-21800219D01*
X55226145Y-21800224D01*
X55245969Y-22026821D01*
X55245971Y-22026832D01*
X55304841Y-22246539D01*
X55304846Y-22246553D01*
X55400974Y-22452700D01*
X55452085Y-22525694D01*
X56131111Y-21846668D01*
X56131111Y-21852883D01*
X56158370Y-21954616D01*
X56211031Y-22045828D01*
X56285505Y-22120302D01*
X56376717Y-22172963D01*
X56478450Y-22200222D01*
X56484664Y-22200222D01*
X55805637Y-22879247D01*
X55878624Y-22930354D01*
X55878632Y-22930358D01*
X56084779Y-23026486D01*
X56084793Y-23026491D01*
X56304500Y-23085361D01*
X56304511Y-23085363D01*
X56531109Y-23105188D01*
X56531113Y-23105188D01*
X56757710Y-23085363D01*
X56757721Y-23085361D01*
X56977428Y-23026491D01*
X56977442Y-23026486D01*
X57183589Y-22930358D01*
X57256582Y-22879246D01*
X56577558Y-22200222D01*
X56583772Y-22200222D01*
X56685505Y-22172963D01*
X56776717Y-22120302D01*
X56851191Y-22045828D01*
X56903852Y-21954616D01*
X56931111Y-21852883D01*
X56931111Y-21846669D01*
X57610135Y-22525693D01*
X57661247Y-22452700D01*
X57757375Y-22246553D01*
X57757380Y-22246539D01*
X57816250Y-22026832D01*
X57816252Y-22026821D01*
X57836077Y-21800224D01*
X57836077Y-21800220D01*
X60225643Y-21800220D01*
X60225643Y-21800223D01*
X60245475Y-22026908D01*
X60245477Y-22026919D01*
X60304369Y-22246710D01*
X60304372Y-22246719D01*
X60400542Y-22452954D01*
X60400543Y-22452956D01*
X60531065Y-22639363D01*
X60691969Y-22800267D01*
X60691972Y-22800269D01*
X60878377Y-22930790D01*
X61084615Y-23026961D01*
X61304419Y-23085857D01*
X61466341Y-23100023D01*
X61531109Y-23105690D01*
X61531111Y-23105690D01*
X61531113Y-23105690D01*
X61587784Y-23100731D01*
X61757803Y-23085857D01*
X61977607Y-23026961D01*
X62183845Y-22930790D01*
X62370250Y-22800269D01*
X62531158Y-22639361D01*
X62661679Y-22452956D01*
X62757850Y-22246718D01*
X62816746Y-22026914D01*
X62836579Y-21800222D01*
X62836579Y-21800220D01*
X66436043Y-21800220D01*
X66436043Y-21800223D01*
X66455875Y-22026908D01*
X66455877Y-22026919D01*
X66514769Y-22246710D01*
X66514772Y-22246719D01*
X66610942Y-22452954D01*
X66610943Y-22452956D01*
X66741465Y-22639363D01*
X66902369Y-22800267D01*
X66902372Y-22800269D01*
X67088777Y-22930790D01*
X67295015Y-23026961D01*
X67514819Y-23085857D01*
X67676741Y-23100023D01*
X67741509Y-23105690D01*
X67741511Y-23105690D01*
X67741513Y-23105690D01*
X67798184Y-23100731D01*
X67968203Y-23085857D01*
X68188007Y-23026961D01*
X68394245Y-22930790D01*
X68580650Y-22800269D01*
X68741558Y-22639361D01*
X68872079Y-22452956D01*
X68968250Y-22246718D01*
X69027146Y-22026914D01*
X69046979Y-21800222D01*
X69046979Y-21800219D01*
X71436545Y-21800219D01*
X71436545Y-21800224D01*
X71456369Y-22026821D01*
X71456371Y-22026832D01*
X71515241Y-22246539D01*
X71515246Y-22246553D01*
X71611374Y-22452700D01*
X71662485Y-22525694D01*
X72341511Y-21846668D01*
X72341511Y-21852883D01*
X72368770Y-21954616D01*
X72421431Y-22045828D01*
X72495905Y-22120302D01*
X72587117Y-22172963D01*
X72688850Y-22200222D01*
X72695064Y-22200222D01*
X72016037Y-22879247D01*
X72089024Y-22930354D01*
X72089032Y-22930358D01*
X72295179Y-23026486D01*
X72295193Y-23026491D01*
X72514900Y-23085361D01*
X72514911Y-23085363D01*
X72741509Y-23105188D01*
X72741513Y-23105188D01*
X72968110Y-23085363D01*
X72968121Y-23085361D01*
X73187828Y-23026491D01*
X73187842Y-23026486D01*
X73393989Y-22930358D01*
X73466982Y-22879246D01*
X72787958Y-22200222D01*
X72794172Y-22200222D01*
X72895905Y-22172963D01*
X72987117Y-22120302D01*
X73061591Y-22045828D01*
X73114252Y-21954616D01*
X73141511Y-21852883D01*
X73141511Y-21846669D01*
X73820535Y-22525693D01*
X73871647Y-22452700D01*
X73967775Y-22246553D01*
X73967780Y-22246539D01*
X74026650Y-22026832D01*
X74026652Y-22026821D01*
X74046477Y-21800224D01*
X74046477Y-21800219D01*
X74026652Y-21573622D01*
X74026650Y-21573611D01*
X73967780Y-21353904D01*
X73967775Y-21353890D01*
X73871647Y-21147743D01*
X73871643Y-21147735D01*
X73820536Y-21074748D01*
X73141511Y-21753773D01*
X73141511Y-21747561D01*
X73114252Y-21645828D01*
X73061591Y-21554616D01*
X72987117Y-21480142D01*
X72895905Y-21427481D01*
X72794172Y-21400222D01*
X72787959Y-21400222D01*
X73466983Y-20721196D01*
X73393989Y-20670085D01*
X73187842Y-20573957D01*
X73187828Y-20573952D01*
X72968121Y-20515082D01*
X72968110Y-20515080D01*
X72741513Y-20495256D01*
X72741509Y-20495256D01*
X72514911Y-20515080D01*
X72514900Y-20515082D01*
X72295193Y-20573952D01*
X72295184Y-20573956D01*
X72089027Y-20670088D01*
X72089023Y-20670090D01*
X72016037Y-20721195D01*
X72016037Y-20721196D01*
X72695064Y-21400222D01*
X72688850Y-21400222D01*
X72587117Y-21427481D01*
X72495905Y-21480142D01*
X72421431Y-21554616D01*
X72368770Y-21645828D01*
X72341511Y-21747561D01*
X72341511Y-21753774D01*
X71662485Y-21074748D01*
X71662484Y-21074748D01*
X71611379Y-21147734D01*
X71611377Y-21147738D01*
X71515245Y-21353895D01*
X71515241Y-21353904D01*
X71456371Y-21573611D01*
X71456369Y-21573622D01*
X71436545Y-21800219D01*
X69046979Y-21800219D01*
X69027146Y-21573530D01*
X68968250Y-21353726D01*
X68872079Y-21147488D01*
X68741558Y-20961083D01*
X68741556Y-20961080D01*
X68580652Y-20800176D01*
X68394245Y-20669654D01*
X68394243Y-20669653D01*
X68188008Y-20573483D01*
X68187999Y-20573480D01*
X67968208Y-20514588D01*
X67968204Y-20514587D01*
X67968203Y-20514587D01*
X67968202Y-20514586D01*
X67968197Y-20514586D01*
X67741513Y-20494754D01*
X67741509Y-20494754D01*
X67514824Y-20514586D01*
X67514813Y-20514588D01*
X67295022Y-20573480D01*
X67295013Y-20573483D01*
X67088778Y-20669653D01*
X67088776Y-20669654D01*
X66902369Y-20800176D01*
X66741465Y-20961080D01*
X66610943Y-21147487D01*
X66610942Y-21147489D01*
X66514772Y-21353724D01*
X66514769Y-21353733D01*
X66455877Y-21573524D01*
X66455875Y-21573535D01*
X66436043Y-21800220D01*
X62836579Y-21800220D01*
X62816746Y-21573530D01*
X62757850Y-21353726D01*
X62661679Y-21147488D01*
X62531158Y-20961083D01*
X62531156Y-20961080D01*
X62370252Y-20800176D01*
X62183845Y-20669654D01*
X62183843Y-20669653D01*
X61977608Y-20573483D01*
X61977599Y-20573480D01*
X61757808Y-20514588D01*
X61757804Y-20514587D01*
X61757803Y-20514587D01*
X61757802Y-20514586D01*
X61757797Y-20514586D01*
X61531113Y-20494754D01*
X61531109Y-20494754D01*
X61304424Y-20514586D01*
X61304413Y-20514588D01*
X61084622Y-20573480D01*
X61084613Y-20573483D01*
X60878378Y-20669653D01*
X60878376Y-20669654D01*
X60691969Y-20800176D01*
X60531065Y-20961080D01*
X60400543Y-21147487D01*
X60400542Y-21147489D01*
X60304372Y-21353724D01*
X60304369Y-21353733D01*
X60245477Y-21573524D01*
X60245475Y-21573535D01*
X60225643Y-21800220D01*
X57836077Y-21800220D01*
X57836077Y-21800219D01*
X57816252Y-21573622D01*
X57816250Y-21573611D01*
X57757380Y-21353904D01*
X57757375Y-21353890D01*
X57661247Y-21147743D01*
X57661243Y-21147735D01*
X57610136Y-21074748D01*
X56931111Y-21753773D01*
X56931111Y-21747561D01*
X56903852Y-21645828D01*
X56851191Y-21554616D01*
X56776717Y-21480142D01*
X56685505Y-21427481D01*
X56583772Y-21400222D01*
X56577559Y-21400222D01*
X57256583Y-20721196D01*
X57183589Y-20670085D01*
X56977442Y-20573957D01*
X56977428Y-20573952D01*
X56757721Y-20515082D01*
X56757710Y-20515080D01*
X56531113Y-20495256D01*
X56531109Y-20495256D01*
X56304511Y-20515080D01*
X56304500Y-20515082D01*
X56084793Y-20573952D01*
X56084784Y-20573956D01*
X55878627Y-20670088D01*
X55878623Y-20670090D01*
X55805637Y-20721195D01*
X55805637Y-20721196D01*
X56484664Y-21400222D01*
X56478450Y-21400222D01*
X56376717Y-21427481D01*
X56285505Y-21480142D01*
X56211031Y-21554616D01*
X56158370Y-21645828D01*
X56131111Y-21747561D01*
X56131111Y-21753774D01*
X55452085Y-21074748D01*
X55452084Y-21074748D01*
X55400979Y-21147734D01*
X55400977Y-21147738D01*
X55304845Y-21353895D01*
X55304841Y-21353904D01*
X55245971Y-21573611D01*
X55245969Y-21573622D01*
X55226145Y-21800219D01*
X50141111Y-21800219D01*
X50141111Y-20355222D01*
X50160796Y-20288183D01*
X50213600Y-20242428D01*
X50265111Y-20231222D01*
X79227111Y-20231222D01*
X79294150Y-20250907D01*
G37*
%TD.AperFunction*%
%TD*%
%TA.AperFunction,Conductor*%
%TO.N,GND3*%
G36*
X111479150Y-20268907D02*
G01*
X111524905Y-20321711D01*
X111536111Y-20373222D01*
X111536111Y-40445222D01*
X111516426Y-40512261D01*
X111463622Y-40558016D01*
X111412111Y-40569222D01*
X87276111Y-40569222D01*
X87209072Y-40549537D01*
X87163317Y-40496733D01*
X87152111Y-40445222D01*
X87152111Y-26633221D01*
X87828452Y-26633221D01*
X87828452Y-26633222D01*
X87849047Y-26868625D01*
X87849049Y-26868635D01*
X87910205Y-27096877D01*
X87910207Y-27096881D01*
X87910208Y-27096885D01*
X87986266Y-27259992D01*
X88010076Y-27311052D01*
X88010078Y-27311056D01*
X88092368Y-27428577D01*
X88145157Y-27503968D01*
X88145612Y-27504617D01*
X88145617Y-27504624D01*
X88312708Y-27671715D01*
X88312714Y-27671720D01*
X88498269Y-27801647D01*
X88541894Y-27856224D01*
X88549088Y-27925722D01*
X88517565Y-27988077D01*
X88498269Y-28004797D01*
X88312708Y-28134727D01*
X88145616Y-28301819D01*
X88010076Y-28495391D01*
X88010075Y-28495393D01*
X87910209Y-28709557D01*
X87910205Y-28709566D01*
X87849049Y-28937808D01*
X87849047Y-28937818D01*
X87828452Y-29173221D01*
X87828452Y-29173222D01*
X87849047Y-29408625D01*
X87849049Y-29408635D01*
X87910205Y-29636877D01*
X87910207Y-29636881D01*
X87910208Y-29636885D01*
X88010076Y-29851052D01*
X88010078Y-29851056D01*
X88145612Y-30044617D01*
X88145617Y-30044624D01*
X88312708Y-30211715D01*
X88312714Y-30211720D01*
X88498705Y-30341952D01*
X88542330Y-30396529D01*
X88549524Y-30466027D01*
X88518001Y-30528382D01*
X88498706Y-30545102D01*
X88313033Y-30675112D01*
X88313031Y-30675113D01*
X88146002Y-30842142D01*
X88145997Y-30842148D01*
X88010511Y-31035642D01*
X88010510Y-31035644D01*
X87910681Y-31249729D01*
X87910678Y-31249735D01*
X87853475Y-31463221D01*
X87853475Y-31463222D01*
X88751099Y-31463222D01*
X88718186Y-31520229D01*
X88684111Y-31647396D01*
X88684111Y-31779048D01*
X88718186Y-31906215D01*
X88751099Y-31963222D01*
X87853475Y-31963222D01*
X87910678Y-32176708D01*
X87910681Y-32176714D01*
X88010510Y-32390800D01*
X88146005Y-32584304D01*
X88313028Y-32751327D01*
X88498706Y-32881341D01*
X88542330Y-32935918D01*
X88549523Y-33005417D01*
X88518001Y-33067771D01*
X88498706Y-33084491D01*
X88312705Y-33214730D01*
X88145616Y-33381819D01*
X88010076Y-33575391D01*
X88010075Y-33575393D01*
X87910209Y-33789557D01*
X87910205Y-33789566D01*
X87849049Y-34017808D01*
X87849047Y-34017818D01*
X87828452Y-34253221D01*
X87828452Y-34253222D01*
X87849047Y-34488625D01*
X87849049Y-34488635D01*
X87910205Y-34716877D01*
X87910207Y-34716881D01*
X87910208Y-34716885D01*
X88010076Y-34931052D01*
X88010078Y-34931056D01*
X88118392Y-35085743D01*
X88145612Y-35124618D01*
X88145617Y-35124624D01*
X88267541Y-35246548D01*
X88301026Y-35307871D01*
X88296042Y-35377563D01*
X88254170Y-35433496D01*
X88223194Y-35450411D01*
X88091780Y-35499425D01*
X88091775Y-35499428D01*
X87976566Y-35585674D01*
X87976563Y-35585677D01*
X87890317Y-35700886D01*
X87890313Y-35700893D01*
X87840019Y-35835739D01*
X87833612Y-35895338D01*
X87833612Y-35895345D01*
X87833611Y-35895357D01*
X87833611Y-37691092D01*
X87833612Y-37691098D01*
X87840019Y-37750705D01*
X87890313Y-37885550D01*
X87890317Y-37885557D01*
X87976563Y-38000766D01*
X87976566Y-38000769D01*
X88091775Y-38087015D01*
X88091782Y-38087019D01*
X88226628Y-38137313D01*
X88226627Y-38137313D01*
X88233555Y-38138057D01*
X88286238Y-38143722D01*
X90081983Y-38143721D01*
X90141594Y-38137313D01*
X90276442Y-38087018D01*
X90391657Y-38000768D01*
X90477907Y-37885553D01*
X90528202Y-37750705D01*
X90534611Y-37691095D01*
X90534610Y-35895350D01*
X90528202Y-35835739D01*
X90477907Y-35700891D01*
X90477906Y-35700890D01*
X90477904Y-35700886D01*
X90391658Y-35585677D01*
X90391655Y-35585674D01*
X90276446Y-35499428D01*
X90276439Y-35499424D01*
X90145028Y-35450411D01*
X90089094Y-35408540D01*
X90064677Y-35343075D01*
X90079529Y-35274802D01*
X90100674Y-35246554D01*
X90222606Y-35124623D01*
X90358146Y-34931052D01*
X90458014Y-34716885D01*
X90519174Y-34488630D01*
X90539770Y-34253222D01*
X90519174Y-34017814D01*
X90458014Y-33789559D01*
X90358146Y-33575393D01*
X90222606Y-33381821D01*
X90222605Y-33381819D01*
X90055513Y-33214728D01*
X90055512Y-33214727D01*
X89869516Y-33084491D01*
X89825892Y-33029914D01*
X89818699Y-32960415D01*
X89850221Y-32898061D01*
X89869516Y-32881341D01*
X90055193Y-32751327D01*
X90222216Y-32584304D01*
X90357711Y-32390800D01*
X90457540Y-32176714D01*
X90457543Y-32176708D01*
X90514747Y-31963222D01*
X89617123Y-31963222D01*
X89650036Y-31906215D01*
X89684111Y-31779048D01*
X89684111Y-31647396D01*
X89650036Y-31520229D01*
X89617123Y-31463222D01*
X90514747Y-31463222D01*
X90514746Y-31463221D01*
X90457543Y-31249735D01*
X90457540Y-31249729D01*
X90357711Y-31035644D01*
X90357710Y-31035642D01*
X90222224Y-30842148D01*
X90222219Y-30842142D01*
X90055189Y-30675112D01*
X89869516Y-30545101D01*
X89825891Y-30490524D01*
X89818699Y-30421026D01*
X89850221Y-30358671D01*
X89869517Y-30341952D01*
X89869953Y-30341647D01*
X90055512Y-30211717D01*
X90222606Y-30044623D01*
X90358146Y-29851052D01*
X90458014Y-29636885D01*
X90505239Y-29460636D01*
X90541602Y-29400978D01*
X90604449Y-29370448D01*
X90665968Y-29375690D01*
X90782848Y-29416588D01*
X90782854Y-29416589D01*
X90782856Y-29416590D01*
X90782857Y-29416590D01*
X90782861Y-29416591D01*
X90962107Y-29436787D01*
X90962111Y-29436787D01*
X90962115Y-29436787D01*
X91141360Y-29416591D01*
X91141363Y-29416590D01*
X91141366Y-29416590D01*
X91311633Y-29357011D01*
X91464373Y-29261038D01*
X91591927Y-29133484D01*
X91687900Y-28980744D01*
X91747479Y-28810477D01*
X91767676Y-28631222D01*
X91747479Y-28451967D01*
X91687900Y-28281700D01*
X91636179Y-28199386D01*
X91628979Y-28187927D01*
X91609979Y-28120690D01*
X91630347Y-28053855D01*
X91646287Y-28034279D01*
X92894824Y-26785743D01*
X92894827Y-26785742D01*
X93006631Y-26673938D01*
X93030138Y-26633221D01*
X108148452Y-26633221D01*
X108148452Y-26633222D01*
X108169047Y-26868625D01*
X108169049Y-26868635D01*
X108230205Y-27096877D01*
X108230207Y-27096881D01*
X108230208Y-27096885D01*
X108306266Y-27259992D01*
X108330076Y-27311052D01*
X108330078Y-27311056D01*
X108412368Y-27428577D01*
X108465157Y-27503968D01*
X108465612Y-27504617D01*
X108465617Y-27504624D01*
X108632708Y-27671715D01*
X108632714Y-27671720D01*
X108818269Y-27801647D01*
X108861894Y-27856224D01*
X108869088Y-27925722D01*
X108837565Y-27988077D01*
X108818269Y-28004797D01*
X108632708Y-28134727D01*
X108465616Y-28301819D01*
X108330076Y-28495391D01*
X108330075Y-28495393D01*
X108230209Y-28709557D01*
X108230205Y-28709566D01*
X108169049Y-28937808D01*
X108169047Y-28937818D01*
X108148452Y-29173221D01*
X108148452Y-29173222D01*
X108169047Y-29408625D01*
X108169049Y-29408635D01*
X108230205Y-29636877D01*
X108230207Y-29636881D01*
X108230208Y-29636885D01*
X108330076Y-29851052D01*
X108330078Y-29851056D01*
X108465612Y-30044617D01*
X108465617Y-30044624D01*
X108632708Y-30211715D01*
X108632714Y-30211720D01*
X108818269Y-30341647D01*
X108861894Y-30396224D01*
X108869088Y-30465722D01*
X108837565Y-30528077D01*
X108818269Y-30544797D01*
X108632708Y-30674727D01*
X108465616Y-30841819D01*
X108330076Y-31035391D01*
X108330075Y-31035393D01*
X108230209Y-31249557D01*
X108230205Y-31249566D01*
X108169049Y-31477808D01*
X108169047Y-31477818D01*
X108148452Y-31713221D01*
X108148452Y-31713222D01*
X108169047Y-31948625D01*
X108169049Y-31948635D01*
X108230205Y-32176877D01*
X108230207Y-32176881D01*
X108230208Y-32176885D01*
X108329958Y-32390800D01*
X108330076Y-32391052D01*
X108330078Y-32391056D01*
X108465612Y-32584617D01*
X108465617Y-32584624D01*
X108632708Y-32751715D01*
X108632714Y-32751720D01*
X108818269Y-32881647D01*
X108861894Y-32936224D01*
X108869088Y-33005722D01*
X108837565Y-33068077D01*
X108818269Y-33084797D01*
X108632708Y-33214727D01*
X108465616Y-33381819D01*
X108330076Y-33575391D01*
X108330075Y-33575393D01*
X108230209Y-33789557D01*
X108230205Y-33789566D01*
X108169049Y-34017808D01*
X108169047Y-34017818D01*
X108148452Y-34253221D01*
X108148452Y-34253222D01*
X108169047Y-34488625D01*
X108169049Y-34488635D01*
X108230205Y-34716877D01*
X108230207Y-34716881D01*
X108230208Y-34716885D01*
X108330076Y-34931052D01*
X108330078Y-34931056D01*
X108438392Y-35085743D01*
X108465612Y-35124618D01*
X108465617Y-35124624D01*
X108587541Y-35246548D01*
X108621026Y-35307871D01*
X108616042Y-35377563D01*
X108574170Y-35433496D01*
X108543194Y-35450411D01*
X108411780Y-35499425D01*
X108411775Y-35499428D01*
X108296566Y-35585674D01*
X108296563Y-35585677D01*
X108210317Y-35700886D01*
X108210313Y-35700893D01*
X108160019Y-35835739D01*
X108153612Y-35895338D01*
X108153612Y-35895345D01*
X108153611Y-35895357D01*
X108153611Y-37691092D01*
X108153612Y-37691098D01*
X108160019Y-37750705D01*
X108210313Y-37885550D01*
X108210317Y-37885557D01*
X108296563Y-38000766D01*
X108296566Y-38000769D01*
X108411775Y-38087015D01*
X108411782Y-38087019D01*
X108546628Y-38137313D01*
X108546627Y-38137313D01*
X108553555Y-38138057D01*
X108606238Y-38143722D01*
X110401983Y-38143721D01*
X110461594Y-38137313D01*
X110596442Y-38087018D01*
X110711657Y-38000768D01*
X110797907Y-37885553D01*
X110848202Y-37750705D01*
X110854611Y-37691095D01*
X110854610Y-35895350D01*
X110848202Y-35835739D01*
X110797907Y-35700891D01*
X110797906Y-35700890D01*
X110797904Y-35700886D01*
X110711658Y-35585677D01*
X110711655Y-35585674D01*
X110596446Y-35499428D01*
X110596439Y-35499424D01*
X110465028Y-35450411D01*
X110409094Y-35408540D01*
X110384677Y-35343075D01*
X110399529Y-35274802D01*
X110420674Y-35246554D01*
X110542606Y-35124623D01*
X110678146Y-34931052D01*
X110778014Y-34716885D01*
X110839174Y-34488630D01*
X110859770Y-34253222D01*
X110839174Y-34017814D01*
X110778014Y-33789559D01*
X110678146Y-33575393D01*
X110542606Y-33381821D01*
X110542605Y-33381819D01*
X110375513Y-33214728D01*
X110375507Y-33214723D01*
X110189953Y-33084797D01*
X110146328Y-33030220D01*
X110139134Y-32960722D01*
X110170657Y-32898367D01*
X110189953Y-32881647D01*
X110212137Y-32866113D01*
X110375512Y-32751717D01*
X110542606Y-32584623D01*
X110678146Y-32391052D01*
X110778014Y-32176885D01*
X110839174Y-31948630D01*
X110859770Y-31713222D01*
X110839174Y-31477814D01*
X110778014Y-31249559D01*
X110678146Y-31035393D01*
X110542606Y-30841821D01*
X110542605Y-30841819D01*
X110375513Y-30674728D01*
X110375507Y-30674723D01*
X110189953Y-30544797D01*
X110146328Y-30490220D01*
X110139134Y-30420722D01*
X110170657Y-30358367D01*
X110189953Y-30341647D01*
X110212137Y-30326113D01*
X110375512Y-30211717D01*
X110542606Y-30044623D01*
X110678146Y-29851052D01*
X110778014Y-29636885D01*
X110839174Y-29408630D01*
X110859770Y-29173222D01*
X110839174Y-28937814D01*
X110778014Y-28709559D01*
X110678146Y-28495393D01*
X110647743Y-28451972D01*
X110542605Y-28301819D01*
X110375513Y-28134728D01*
X110375507Y-28134723D01*
X110189953Y-28004797D01*
X110146328Y-27950220D01*
X110139134Y-27880722D01*
X110170657Y-27818367D01*
X110189953Y-27801647D01*
X110212137Y-27786113D01*
X110375512Y-27671717D01*
X110542606Y-27504623D01*
X110678146Y-27311052D01*
X110778014Y-27096885D01*
X110839174Y-26868630D01*
X110859770Y-26633222D01*
X110839174Y-26397814D01*
X110778014Y-26169559D01*
X110678146Y-25955393D01*
X110542606Y-25761821D01*
X110542605Y-25761819D01*
X110375513Y-25594728D01*
X110375506Y-25594723D01*
X110181945Y-25459189D01*
X110181941Y-25459187D01*
X110181939Y-25459186D01*
X109967774Y-25359319D01*
X109967770Y-25359318D01*
X109967766Y-25359316D01*
X109739524Y-25298160D01*
X109739514Y-25298158D01*
X109504112Y-25277563D01*
X109504110Y-25277563D01*
X109268707Y-25298158D01*
X109268697Y-25298160D01*
X109040455Y-25359316D01*
X109040446Y-25359320D01*
X108826282Y-25459186D01*
X108826280Y-25459187D01*
X108632708Y-25594727D01*
X108465616Y-25761819D01*
X108330076Y-25955391D01*
X108330075Y-25955393D01*
X108230209Y-26169557D01*
X108230205Y-26169566D01*
X108169049Y-26397808D01*
X108169047Y-26397818D01*
X108148452Y-26633221D01*
X93030138Y-26633221D01*
X93056750Y-26587126D01*
X93085688Y-26537007D01*
X93126612Y-26384279D01*
X93126612Y-26226165D01*
X93126612Y-26218570D01*
X93126611Y-26218552D01*
X93126611Y-23258914D01*
X93146296Y-23191875D01*
X93179485Y-23157341D01*
X93365250Y-23027269D01*
X93526158Y-22866361D01*
X93656679Y-22679956D01*
X93752850Y-22473718D01*
X93811746Y-22253914D01*
X93831579Y-22027222D01*
X93831579Y-22027219D01*
X96221145Y-22027219D01*
X96221145Y-22027224D01*
X96240969Y-22253821D01*
X96240971Y-22253832D01*
X96299841Y-22473539D01*
X96299846Y-22473553D01*
X96395974Y-22679700D01*
X96447085Y-22752694D01*
X97126111Y-22073668D01*
X97126111Y-22079883D01*
X97153370Y-22181616D01*
X97206031Y-22272828D01*
X97280505Y-22347302D01*
X97371717Y-22399963D01*
X97473450Y-22427222D01*
X97479664Y-22427222D01*
X96800637Y-23106247D01*
X96873624Y-23157354D01*
X96873632Y-23157358D01*
X97079779Y-23253486D01*
X97079793Y-23253491D01*
X97299500Y-23312361D01*
X97299511Y-23312363D01*
X97526109Y-23332188D01*
X97526113Y-23332188D01*
X97752710Y-23312363D01*
X97752721Y-23312361D01*
X97972428Y-23253491D01*
X97972442Y-23253486D01*
X98178589Y-23157358D01*
X98251582Y-23106246D01*
X97572558Y-22427222D01*
X97578772Y-22427222D01*
X97680505Y-22399963D01*
X97771717Y-22347302D01*
X97846191Y-22272828D01*
X97898852Y-22181616D01*
X97926111Y-22079883D01*
X97926111Y-22073669D01*
X98605135Y-22752693D01*
X98656247Y-22679700D01*
X98752375Y-22473553D01*
X98752380Y-22473539D01*
X98811250Y-22253832D01*
X98811252Y-22253821D01*
X98831077Y-22027224D01*
X98831077Y-22027220D01*
X99856643Y-22027220D01*
X99856643Y-22027223D01*
X99876475Y-22253908D01*
X99876477Y-22253919D01*
X99935369Y-22473710D01*
X99935372Y-22473719D01*
X100031542Y-22679954D01*
X100031543Y-22679956D01*
X100162065Y-22866363D01*
X100322969Y-23027267D01*
X100322972Y-23027269D01*
X100509377Y-23157790D01*
X100715615Y-23253961D01*
X100935419Y-23312857D01*
X101097341Y-23327023D01*
X101162109Y-23332690D01*
X101162111Y-23332690D01*
X101162113Y-23332690D01*
X101218784Y-23327731D01*
X101388803Y-23312857D01*
X101608607Y-23253961D01*
X101814845Y-23157790D01*
X102001250Y-23027269D01*
X102162158Y-22866361D01*
X102292679Y-22679956D01*
X102388850Y-22473718D01*
X102447746Y-22253914D01*
X102467579Y-22027222D01*
X102467579Y-22027219D01*
X104857145Y-22027219D01*
X104857145Y-22027224D01*
X104876969Y-22253821D01*
X104876971Y-22253832D01*
X104935841Y-22473539D01*
X104935846Y-22473553D01*
X105031974Y-22679700D01*
X105083085Y-22752694D01*
X105762111Y-22073668D01*
X105762111Y-22079883D01*
X105789370Y-22181616D01*
X105842031Y-22272828D01*
X105916505Y-22347302D01*
X106007717Y-22399963D01*
X106109450Y-22427222D01*
X106115664Y-22427222D01*
X105436637Y-23106247D01*
X105509624Y-23157354D01*
X105509632Y-23157358D01*
X105715779Y-23253486D01*
X105715793Y-23253491D01*
X105935500Y-23312361D01*
X105935511Y-23312363D01*
X106162109Y-23332188D01*
X106162113Y-23332188D01*
X106388710Y-23312363D01*
X106388721Y-23312361D01*
X106608428Y-23253491D01*
X106608442Y-23253486D01*
X106814589Y-23157358D01*
X106887582Y-23106246D01*
X106208558Y-22427222D01*
X106214772Y-22427222D01*
X106316505Y-22399963D01*
X106407717Y-22347302D01*
X106482191Y-22272828D01*
X106534852Y-22181616D01*
X106562111Y-22079883D01*
X106562111Y-22073669D01*
X107241135Y-22752693D01*
X107292247Y-22679700D01*
X107388375Y-22473553D01*
X107388380Y-22473539D01*
X107447250Y-22253832D01*
X107447252Y-22253821D01*
X107467077Y-22027224D01*
X107467077Y-22027219D01*
X107447252Y-21800622D01*
X107447250Y-21800611D01*
X107388380Y-21580904D01*
X107388375Y-21580890D01*
X107292247Y-21374743D01*
X107292243Y-21374735D01*
X107241136Y-21301748D01*
X106562111Y-21980773D01*
X106562111Y-21974561D01*
X106534852Y-21872828D01*
X106482191Y-21781616D01*
X106407717Y-21707142D01*
X106316505Y-21654481D01*
X106214772Y-21627222D01*
X106208559Y-21627222D01*
X106887583Y-20948196D01*
X106814589Y-20897085D01*
X106608442Y-20800957D01*
X106608428Y-20800952D01*
X106388721Y-20742082D01*
X106388710Y-20742080D01*
X106162113Y-20722256D01*
X106162109Y-20722256D01*
X105935511Y-20742080D01*
X105935500Y-20742082D01*
X105715793Y-20800952D01*
X105715784Y-20800956D01*
X105509627Y-20897088D01*
X105509623Y-20897090D01*
X105436637Y-20948195D01*
X105436637Y-20948196D01*
X106115664Y-21627222D01*
X106109450Y-21627222D01*
X106007717Y-21654481D01*
X105916505Y-21707142D01*
X105842031Y-21781616D01*
X105789370Y-21872828D01*
X105762111Y-21974561D01*
X105762111Y-21980774D01*
X105083085Y-21301748D01*
X105083084Y-21301748D01*
X105031979Y-21374734D01*
X105031977Y-21374738D01*
X104935845Y-21580895D01*
X104935841Y-21580904D01*
X104876971Y-21800611D01*
X104876969Y-21800622D01*
X104857145Y-22027219D01*
X102467579Y-22027219D01*
X102447746Y-21800530D01*
X102388850Y-21580726D01*
X102292679Y-21374488D01*
X102162158Y-21188083D01*
X102162156Y-21188080D01*
X102001252Y-21027176D01*
X101814845Y-20896654D01*
X101814843Y-20896653D01*
X101608608Y-20800483D01*
X101608599Y-20800480D01*
X101388808Y-20741588D01*
X101388804Y-20741587D01*
X101388803Y-20741587D01*
X101388802Y-20741586D01*
X101388797Y-20741586D01*
X101162113Y-20721754D01*
X101162109Y-20721754D01*
X100935424Y-20741586D01*
X100935413Y-20741588D01*
X100715622Y-20800480D01*
X100715613Y-20800483D01*
X100509378Y-20896653D01*
X100509376Y-20896654D01*
X100322969Y-21027176D01*
X100162065Y-21188080D01*
X100031543Y-21374487D01*
X100031542Y-21374489D01*
X99935372Y-21580724D01*
X99935369Y-21580733D01*
X99876477Y-21800524D01*
X99876475Y-21800535D01*
X99856643Y-22027220D01*
X98831077Y-22027220D01*
X98831077Y-22027219D01*
X98811252Y-21800622D01*
X98811250Y-21800611D01*
X98752380Y-21580904D01*
X98752375Y-21580890D01*
X98656247Y-21374743D01*
X98656243Y-21374735D01*
X98605136Y-21301748D01*
X97926111Y-21980773D01*
X97926111Y-21974561D01*
X97898852Y-21872828D01*
X97846191Y-21781616D01*
X97771717Y-21707142D01*
X97680505Y-21654481D01*
X97578772Y-21627222D01*
X97572559Y-21627222D01*
X98251583Y-20948196D01*
X98178589Y-20897085D01*
X97972442Y-20800957D01*
X97972428Y-20800952D01*
X97752721Y-20742082D01*
X97752710Y-20742080D01*
X97526113Y-20722256D01*
X97526109Y-20722256D01*
X97299511Y-20742080D01*
X97299500Y-20742082D01*
X97079793Y-20800952D01*
X97079784Y-20800956D01*
X96873627Y-20897088D01*
X96873623Y-20897090D01*
X96800637Y-20948195D01*
X96800637Y-20948196D01*
X97479664Y-21627222D01*
X97473450Y-21627222D01*
X97371717Y-21654481D01*
X97280505Y-21707142D01*
X97206031Y-21781616D01*
X97153370Y-21872828D01*
X97126111Y-21974561D01*
X97126111Y-21980774D01*
X96447085Y-21301748D01*
X96447084Y-21301748D01*
X96395979Y-21374734D01*
X96395977Y-21374738D01*
X96299845Y-21580895D01*
X96299841Y-21580904D01*
X96240971Y-21800611D01*
X96240969Y-21800622D01*
X96221145Y-22027219D01*
X93831579Y-22027219D01*
X93811746Y-21800530D01*
X93752850Y-21580726D01*
X93656679Y-21374488D01*
X93526158Y-21188083D01*
X93526156Y-21188080D01*
X93365252Y-21027176D01*
X93178845Y-20896654D01*
X93178843Y-20896653D01*
X92972608Y-20800483D01*
X92972599Y-20800480D01*
X92752808Y-20741588D01*
X92752804Y-20741587D01*
X92752803Y-20741587D01*
X92752802Y-20741586D01*
X92752797Y-20741586D01*
X92526113Y-20721754D01*
X92526109Y-20721754D01*
X92299424Y-20741586D01*
X92299413Y-20741588D01*
X92079622Y-20800480D01*
X92079613Y-20800483D01*
X91873378Y-20896653D01*
X91873376Y-20896654D01*
X91686969Y-21027176D01*
X91526065Y-21188080D01*
X91395543Y-21374487D01*
X91395542Y-21374489D01*
X91299372Y-21580724D01*
X91299369Y-21580733D01*
X91240477Y-21800524D01*
X91240475Y-21800535D01*
X91220643Y-22027220D01*
X91220643Y-22027223D01*
X91240475Y-22253908D01*
X91240477Y-22253919D01*
X91299369Y-22473710D01*
X91299372Y-22473719D01*
X91395542Y-22679954D01*
X91395543Y-22679956D01*
X91526065Y-22866363D01*
X91686969Y-23027267D01*
X91686972Y-23027269D01*
X91872735Y-23157340D01*
X91916359Y-23211915D01*
X91925611Y-23258914D01*
X91925611Y-26005124D01*
X91905926Y-26072163D01*
X91889292Y-26092805D01*
X90593391Y-27388706D01*
X90582014Y-27400082D01*
X90520690Y-27433564D01*
X90450998Y-27428577D01*
X90395067Y-27386703D01*
X90370653Y-27321238D01*
X90381954Y-27259994D01*
X90458014Y-27096885D01*
X90519174Y-26868630D01*
X90539770Y-26633222D01*
X90519174Y-26397814D01*
X90458014Y-26169559D01*
X90358146Y-25955393D01*
X90222606Y-25761821D01*
X90222605Y-25761819D01*
X90055513Y-25594728D01*
X90055506Y-25594723D01*
X89861945Y-25459189D01*
X89861941Y-25459187D01*
X89861939Y-25459186D01*
X89647774Y-25359319D01*
X89647770Y-25359318D01*
X89647766Y-25359316D01*
X89419524Y-25298160D01*
X89419514Y-25298158D01*
X89184112Y-25277563D01*
X89184110Y-25277563D01*
X88948707Y-25298158D01*
X88948697Y-25298160D01*
X88720455Y-25359316D01*
X88720446Y-25359320D01*
X88506282Y-25459186D01*
X88506280Y-25459187D01*
X88312708Y-25594727D01*
X88145616Y-25761819D01*
X88010076Y-25955391D01*
X88010075Y-25955393D01*
X87910209Y-26169557D01*
X87910205Y-26169566D01*
X87849049Y-26397808D01*
X87849047Y-26397818D01*
X87828452Y-26633221D01*
X87152111Y-26633221D01*
X87152111Y-20373222D01*
X87171796Y-20306183D01*
X87224600Y-20260428D01*
X87276111Y-20249222D01*
X111412111Y-20249222D01*
X111479150Y-20268907D01*
G37*
%TD.AperFunction*%
%TD*%
%TA.AperFunction,Conductor*%
%TO.N,GND1*%
G36*
X31420171Y-28720865D02*
G01*
X31430447Y-28728235D01*
X31433280Y-28730494D01*
X31433282Y-28730496D01*
X31478506Y-28758912D01*
X31560486Y-28810424D01*
X31586022Y-28826469D01*
X31732829Y-28877839D01*
X31756289Y-28886048D01*
X31756294Y-28886049D01*
X31935540Y-28906245D01*
X31935544Y-28906245D01*
X31935548Y-28906245D01*
X32114793Y-28886049D01*
X32114796Y-28886048D01*
X32114799Y-28886048D01*
X32285066Y-28826469D01*
X32437806Y-28730496D01*
X32437811Y-28730490D01*
X32440641Y-28728235D01*
X32442819Y-28727345D01*
X32443702Y-28726791D01*
X32443799Y-28726945D01*
X32505327Y-28701825D01*
X32517956Y-28701180D01*
X32818447Y-28701180D01*
X32885486Y-28720865D01*
X32906128Y-28737499D01*
X33615402Y-29446773D01*
X33648887Y-29508096D01*
X33647496Y-29566547D01*
X33621710Y-29662782D01*
X33621708Y-29662793D01*
X33601876Y-29889478D01*
X33601876Y-29889481D01*
X33621708Y-30116166D01*
X33621710Y-30116177D01*
X33680602Y-30335968D01*
X33680605Y-30335977D01*
X33776775Y-30542212D01*
X33776776Y-30542214D01*
X33907298Y-30728621D01*
X33918460Y-30739783D01*
X33951945Y-30801106D01*
X33946961Y-30870798D01*
X33918462Y-30915144D01*
X33889457Y-30944149D01*
X33793485Y-31096886D01*
X33733905Y-31267155D01*
X33733904Y-31267160D01*
X33713709Y-31446406D01*
X33713709Y-31446413D01*
X33733904Y-31625659D01*
X33733905Y-31625664D01*
X33793485Y-31795933D01*
X33877264Y-31929266D01*
X33889458Y-31948672D01*
X34017012Y-32076226D01*
X34070244Y-32109674D01*
X34157785Y-32164680D01*
X34169752Y-32172199D01*
X34227838Y-32192524D01*
X34340019Y-32231778D01*
X34340024Y-32231779D01*
X34519270Y-32251975D01*
X34519274Y-32251975D01*
X34519278Y-32251975D01*
X34698523Y-32231779D01*
X34698526Y-32231778D01*
X34698529Y-32231778D01*
X34868796Y-32172199D01*
X34868798Y-32172198D01*
X34884573Y-32162286D01*
X34951809Y-32143285D01*
X35018645Y-32163652D01*
X35038227Y-32179598D01*
X37079777Y-34221149D01*
X37113262Y-34282472D01*
X37111871Y-34340923D01*
X37077482Y-34469266D01*
X37077480Y-34469276D01*
X37056885Y-34704679D01*
X37056885Y-34704680D01*
X37077480Y-34940083D01*
X37077482Y-34940093D01*
X37138638Y-35168335D01*
X37138640Y-35168339D01*
X37138641Y-35168343D01*
X37211770Y-35325168D01*
X37238509Y-35382510D01*
X37238511Y-35382514D01*
X37374045Y-35576075D01*
X37374050Y-35576082D01*
X37541141Y-35743173D01*
X37541147Y-35743178D01*
X37727138Y-35873410D01*
X37770763Y-35927987D01*
X37777957Y-35997485D01*
X37746434Y-36059840D01*
X37727139Y-36076560D01*
X37541466Y-36206570D01*
X37541464Y-36206571D01*
X37374435Y-36373600D01*
X37374430Y-36373606D01*
X37238944Y-36567100D01*
X37238943Y-36567102D01*
X37139114Y-36781187D01*
X37139111Y-36781193D01*
X37081908Y-36994679D01*
X37081908Y-36994680D01*
X37979532Y-36994680D01*
X37946619Y-37051687D01*
X37912544Y-37178854D01*
X37912544Y-37310506D01*
X37946619Y-37437673D01*
X37979532Y-37494680D01*
X37023141Y-37494680D01*
X36956102Y-37474995D01*
X36935460Y-37458361D01*
X35909903Y-36432804D01*
X35876418Y-36371481D01*
X35873584Y-36345123D01*
X35873584Y-35782946D01*
X35873585Y-35782933D01*
X35873585Y-35614830D01*
X35873585Y-35614829D01*
X35832661Y-35462102D01*
X35832657Y-35462095D01*
X35753608Y-35325176D01*
X35753602Y-35325168D01*
X30049934Y-29621501D01*
X30016449Y-29560178D01*
X30014397Y-29547722D01*
X30004602Y-29460781D01*
X29945023Y-29290514D01*
X29849050Y-29137774D01*
X29721496Y-29010220D01*
X29594104Y-28930174D01*
X29547813Y-28877839D01*
X29537165Y-28808785D01*
X29565540Y-28744937D01*
X29623930Y-28706565D01*
X29660076Y-28701180D01*
X31353132Y-28701180D01*
X31420171Y-28720865D01*
G37*
%TD.AperFunction*%
%TA.AperFunction,Conductor*%
G36*
X40115583Y-20264365D02*
G01*
X40161338Y-20317169D01*
X40172544Y-20368680D01*
X40172544Y-52521338D01*
X40152859Y-52588377D01*
X40100055Y-52634132D01*
X40049204Y-52645336D01*
X33058512Y-52682520D01*
X32991368Y-52663193D01*
X32945333Y-52610633D01*
X32935022Y-52541528D01*
X32963708Y-52477819D01*
X33012339Y-52444149D01*
X33012133Y-52443707D01*
X33014724Y-52442498D01*
X33015449Y-52441997D01*
X33017024Y-52441423D01*
X33017040Y-52441419D01*
X33223278Y-52345248D01*
X33409683Y-52214727D01*
X33570591Y-52053819D01*
X33701112Y-51867414D01*
X33797283Y-51661176D01*
X33856179Y-51441372D01*
X33876012Y-51214680D01*
X33856179Y-50987988D01*
X33797283Y-50768184D01*
X33701112Y-50561946D01*
X33570591Y-50375541D01*
X33570589Y-50375538D01*
X33409685Y-50214634D01*
X33223278Y-50084112D01*
X33223276Y-50084111D01*
X33017041Y-49987941D01*
X33017032Y-49987938D01*
X32797241Y-49929046D01*
X32797237Y-49929045D01*
X32797236Y-49929045D01*
X32797235Y-49929044D01*
X32797230Y-49929044D01*
X32570546Y-49909212D01*
X32570542Y-49909212D01*
X32343857Y-49929044D01*
X32343846Y-49929046D01*
X32124055Y-49987938D01*
X32124046Y-49987941D01*
X31917811Y-50084111D01*
X31917809Y-50084112D01*
X31731402Y-50214634D01*
X31570498Y-50375538D01*
X31439976Y-50561945D01*
X31439975Y-50561947D01*
X31343805Y-50768182D01*
X31343802Y-50768191D01*
X31284910Y-50987982D01*
X31284908Y-50987993D01*
X31265076Y-51214678D01*
X31265076Y-51214681D01*
X31284908Y-51441366D01*
X31284910Y-51441377D01*
X31343802Y-51661168D01*
X31343805Y-51661177D01*
X31439975Y-51867412D01*
X31439976Y-51867414D01*
X31570498Y-52053821D01*
X31731402Y-52214725D01*
X31731405Y-52214727D01*
X31917810Y-52345248D01*
X32124048Y-52441419D01*
X32133071Y-52443836D01*
X32192731Y-52480200D01*
X32223262Y-52543046D01*
X32214968Y-52612422D01*
X32170484Y-52666301D01*
X32103933Y-52687577D01*
X32101639Y-52687610D01*
X22692042Y-52737661D01*
X22624898Y-52718334D01*
X22578863Y-52665774D01*
X22568552Y-52596669D01*
X22597238Y-52532960D01*
X22655815Y-52494873D01*
X22659289Y-52493888D01*
X22856861Y-52440949D01*
X22856875Y-52440944D01*
X23063022Y-52344816D01*
X23136015Y-52293704D01*
X22456991Y-51614680D01*
X22463205Y-51614680D01*
X22564938Y-51587421D01*
X22656150Y-51534760D01*
X22730624Y-51460286D01*
X22783285Y-51369074D01*
X22810544Y-51267341D01*
X22810544Y-51261127D01*
X23489568Y-51940151D01*
X23540680Y-51867158D01*
X23636808Y-51661011D01*
X23636813Y-51660997D01*
X23695683Y-51441290D01*
X23695685Y-51441279D01*
X23715510Y-51214682D01*
X23715510Y-51214677D01*
X23695685Y-50988080D01*
X23695683Y-50988069D01*
X23636813Y-50768362D01*
X23636808Y-50768348D01*
X23540680Y-50562201D01*
X23540676Y-50562193D01*
X23489569Y-50489206D01*
X22810544Y-51168231D01*
X22810544Y-51162019D01*
X22783285Y-51060286D01*
X22730624Y-50969074D01*
X22656150Y-50894600D01*
X22564938Y-50841939D01*
X22463205Y-50814680D01*
X22456991Y-50814680D01*
X23136016Y-50135654D01*
X23063022Y-50084543D01*
X22856875Y-49988415D01*
X22856861Y-49988410D01*
X22637154Y-49929540D01*
X22637143Y-49929538D01*
X22410546Y-49909714D01*
X22410542Y-49909714D01*
X22183944Y-49929538D01*
X22183933Y-49929540D01*
X21964226Y-49988410D01*
X21964217Y-49988414D01*
X21758061Y-50084545D01*
X21567668Y-50217862D01*
X21501462Y-50240189D01*
X21433694Y-50223179D01*
X21385881Y-50172231D01*
X21372544Y-50116287D01*
X21372544Y-49817678D01*
X35067301Y-49817678D01*
X35067301Y-49817681D01*
X35087133Y-50044366D01*
X35087135Y-50044377D01*
X35146027Y-50264168D01*
X35146030Y-50264177D01*
X35242200Y-50470412D01*
X35242201Y-50470414D01*
X35372723Y-50656821D01*
X35533627Y-50817725D01*
X35533630Y-50817727D01*
X35720035Y-50948248D01*
X35926273Y-51044419D01*
X36146077Y-51103315D01*
X36307999Y-51117481D01*
X36372767Y-51123148D01*
X36372769Y-51123148D01*
X36372771Y-51123148D01*
X36435280Y-51117679D01*
X36599461Y-51103315D01*
X36819265Y-51044419D01*
X37025503Y-50948248D01*
X37038733Y-50938983D01*
X37104935Y-50916655D01*
X37172703Y-50933662D01*
X37209125Y-50966247D01*
X37215575Y-50974864D01*
X37215583Y-50974871D01*
X37330675Y-51061030D01*
X37330682Y-51061034D01*
X37465389Y-51111276D01*
X37465396Y-51111278D01*
X37524924Y-51117679D01*
X37524941Y-51117680D01*
X38122769Y-51117680D01*
X38122769Y-50133366D01*
X38127163Y-50137760D01*
X38218375Y-50190421D01*
X38320108Y-50217680D01*
X38425430Y-50217680D01*
X38527163Y-50190421D01*
X38618375Y-50137760D01*
X38622769Y-50133366D01*
X38622769Y-51117680D01*
X39220597Y-51117680D01*
X39220613Y-51117679D01*
X39280141Y-51111278D01*
X39280148Y-51111276D01*
X39414855Y-51061034D01*
X39414862Y-51061030D01*
X39529956Y-50974870D01*
X39529959Y-50974867D01*
X39616119Y-50859773D01*
X39616123Y-50859766D01*
X39666365Y-50725059D01*
X39666367Y-50725052D01*
X39672768Y-50665524D01*
X39672769Y-50665507D01*
X39672769Y-50067680D01*
X38688455Y-50067680D01*
X38692849Y-50063286D01*
X38745510Y-49972074D01*
X38772769Y-49870341D01*
X38772769Y-49765019D01*
X38745510Y-49663286D01*
X38692849Y-49572074D01*
X38688455Y-49567680D01*
X39672769Y-49567680D01*
X39672769Y-48969852D01*
X39672768Y-48969835D01*
X39666367Y-48910307D01*
X39666365Y-48910300D01*
X39616123Y-48775593D01*
X39616119Y-48775586D01*
X39529959Y-48660492D01*
X39529956Y-48660489D01*
X39414862Y-48574329D01*
X39414855Y-48574325D01*
X39280148Y-48524083D01*
X39280141Y-48524081D01*
X39220613Y-48517680D01*
X38622769Y-48517680D01*
X38622769Y-49501994D01*
X38618375Y-49497600D01*
X38527163Y-49444939D01*
X38425430Y-49417680D01*
X38320108Y-49417680D01*
X38218375Y-49444939D01*
X38127163Y-49497600D01*
X38122769Y-49501994D01*
X38122769Y-48517680D01*
X37524924Y-48517680D01*
X37465396Y-48524081D01*
X37465389Y-48524083D01*
X37330682Y-48574325D01*
X37330675Y-48574329D01*
X37215583Y-48660488D01*
X37215575Y-48660496D01*
X37209123Y-48669115D01*
X37153188Y-48710985D01*
X37083497Y-48715968D01*
X37038737Y-48696378D01*
X37025507Y-48687115D01*
X37025501Y-48687111D01*
X36819266Y-48590941D01*
X36819257Y-48590938D01*
X36599466Y-48532046D01*
X36599462Y-48532045D01*
X36599461Y-48532045D01*
X36599460Y-48532044D01*
X36599455Y-48532044D01*
X36372771Y-48512212D01*
X36372767Y-48512212D01*
X36146082Y-48532044D01*
X36146071Y-48532046D01*
X35926280Y-48590938D01*
X35926271Y-48590941D01*
X35720036Y-48687111D01*
X35720034Y-48687112D01*
X35533627Y-48817634D01*
X35372723Y-48978538D01*
X35242201Y-49164945D01*
X35242200Y-49164947D01*
X35146030Y-49371182D01*
X35146027Y-49371191D01*
X35087135Y-49590982D01*
X35087133Y-49590993D01*
X35067301Y-49817678D01*
X21372544Y-49817678D01*
X21372544Y-49265072D01*
X21392229Y-49198033D01*
X21445033Y-49152278D01*
X21514191Y-49142334D01*
X21567668Y-49163498D01*
X21758054Y-49296809D01*
X21758060Y-49296813D01*
X21964217Y-49392945D01*
X21964226Y-49392949D01*
X22183933Y-49451819D01*
X22183944Y-49451821D01*
X22410542Y-49471646D01*
X22410546Y-49471646D01*
X22637143Y-49451821D01*
X22637154Y-49451819D01*
X22856861Y-49392949D01*
X22856875Y-49392944D01*
X23063022Y-49296816D01*
X23136015Y-49245704D01*
X22456991Y-48566680D01*
X22463205Y-48566680D01*
X22564938Y-48539421D01*
X22656150Y-48486760D01*
X22730624Y-48412286D01*
X22783285Y-48321074D01*
X22810544Y-48219341D01*
X22810544Y-48213127D01*
X23489568Y-48892151D01*
X23540680Y-48819158D01*
X23636808Y-48613011D01*
X23636813Y-48612997D01*
X23695683Y-48393290D01*
X23695685Y-48393279D01*
X23715510Y-48166682D01*
X23715510Y-48166678D01*
X31265076Y-48166678D01*
X31265076Y-48166681D01*
X31284908Y-48393366D01*
X31284910Y-48393377D01*
X31343802Y-48613168D01*
X31343805Y-48613177D01*
X31439975Y-48819412D01*
X31439976Y-48819414D01*
X31570498Y-49005821D01*
X31731402Y-49166725D01*
X31731405Y-49166727D01*
X31917810Y-49297248D01*
X32124048Y-49393419D01*
X32343852Y-49452315D01*
X32505774Y-49466481D01*
X32570542Y-49472148D01*
X32570544Y-49472148D01*
X32570546Y-49472148D01*
X32627217Y-49467189D01*
X32797236Y-49452315D01*
X33017040Y-49393419D01*
X33223278Y-49297248D01*
X33409683Y-49166727D01*
X33570591Y-49005819D01*
X33701112Y-48819414D01*
X33797283Y-48613176D01*
X33856179Y-48393372D01*
X33876012Y-48166680D01*
X33856179Y-47939988D01*
X33797283Y-47720184D01*
X33701112Y-47513946D01*
X33570591Y-47327541D01*
X33570589Y-47327538D01*
X33409685Y-47166634D01*
X33223278Y-47036112D01*
X33223276Y-47036111D01*
X33017041Y-46939941D01*
X33017032Y-46939938D01*
X32797241Y-46881046D01*
X32797237Y-46881045D01*
X32797236Y-46881045D01*
X32797235Y-46881044D01*
X32797230Y-46881044D01*
X32570546Y-46861212D01*
X32570542Y-46861212D01*
X32343857Y-46881044D01*
X32343846Y-46881046D01*
X32124055Y-46939938D01*
X32124046Y-46939941D01*
X31917811Y-47036111D01*
X31917809Y-47036112D01*
X31731402Y-47166634D01*
X31570498Y-47327538D01*
X31439976Y-47513945D01*
X31439975Y-47513947D01*
X31343805Y-47720182D01*
X31343802Y-47720191D01*
X31284910Y-47939982D01*
X31284908Y-47939993D01*
X31265076Y-48166678D01*
X23715510Y-48166678D01*
X23715510Y-48166677D01*
X23695685Y-47940080D01*
X23695683Y-47940069D01*
X23636813Y-47720362D01*
X23636808Y-47720348D01*
X23540680Y-47514201D01*
X23540676Y-47514193D01*
X23489569Y-47441206D01*
X22810544Y-48120231D01*
X22810544Y-48114019D01*
X22783285Y-48012286D01*
X22730624Y-47921074D01*
X22656150Y-47846600D01*
X22564938Y-47793939D01*
X22463205Y-47766680D01*
X22456991Y-47766680D01*
X23136016Y-47087654D01*
X23063022Y-47036543D01*
X22856875Y-46940415D01*
X22856861Y-46940410D01*
X22637154Y-46881540D01*
X22637143Y-46881538D01*
X22410546Y-46861714D01*
X22410542Y-46861714D01*
X22183944Y-46881538D01*
X22183933Y-46881540D01*
X21964226Y-46940410D01*
X21964217Y-46940414D01*
X21758061Y-47036545D01*
X21567668Y-47169862D01*
X21501462Y-47192189D01*
X21433694Y-47175179D01*
X21385881Y-47124231D01*
X21372544Y-47068287D01*
X21372544Y-22004679D01*
X21816885Y-22004679D01*
X21816885Y-22004680D01*
X21837480Y-22240083D01*
X21837482Y-22240093D01*
X21898638Y-22468335D01*
X21898640Y-22468339D01*
X21898641Y-22468343D01*
X21902544Y-22476712D01*
X21998509Y-22682510D01*
X21998511Y-22682514D01*
X22106825Y-22837201D01*
X22134045Y-22876076D01*
X22134050Y-22876082D01*
X22301141Y-23043173D01*
X22301147Y-23043178D01*
X22486702Y-23173105D01*
X22530327Y-23227682D01*
X22537521Y-23297180D01*
X22505998Y-23359535D01*
X22486702Y-23376255D01*
X22301141Y-23506185D01*
X22134049Y-23673277D01*
X21998509Y-23866849D01*
X21998508Y-23866851D01*
X21898642Y-24081015D01*
X21898638Y-24081024D01*
X21837482Y-24309266D01*
X21837480Y-24309276D01*
X21816885Y-24544679D01*
X21816885Y-24544680D01*
X21837480Y-24780083D01*
X21837482Y-24780093D01*
X21898638Y-25008335D01*
X21898640Y-25008339D01*
X21898641Y-25008343D01*
X21967640Y-25156311D01*
X21998509Y-25222510D01*
X21998511Y-25222514D01*
X22134045Y-25416075D01*
X22134050Y-25416082D01*
X22301141Y-25583173D01*
X22301147Y-25583178D01*
X22487138Y-25713410D01*
X22530763Y-25767987D01*
X22537957Y-25837485D01*
X22506434Y-25899840D01*
X22487139Y-25916560D01*
X22301466Y-26046570D01*
X22301464Y-26046571D01*
X22134435Y-26213600D01*
X22134430Y-26213606D01*
X21998944Y-26407100D01*
X21998943Y-26407102D01*
X21899114Y-26621187D01*
X21899111Y-26621193D01*
X21841908Y-26834679D01*
X21841908Y-26834680D01*
X22739532Y-26834680D01*
X22706619Y-26891687D01*
X22672544Y-27018854D01*
X22672544Y-27150506D01*
X22706619Y-27277673D01*
X22739532Y-27334680D01*
X21841908Y-27334680D01*
X21899111Y-27548166D01*
X21899114Y-27548172D01*
X21998943Y-27762258D01*
X22134438Y-27955762D01*
X22301461Y-28122785D01*
X22487139Y-28252799D01*
X22530763Y-28307376D01*
X22537956Y-28376875D01*
X22506434Y-28439229D01*
X22487139Y-28455949D01*
X22301138Y-28586188D01*
X22134049Y-28753277D01*
X21998509Y-28946849D01*
X21998508Y-28946851D01*
X21898642Y-29161015D01*
X21898638Y-29161024D01*
X21837482Y-29389266D01*
X21837480Y-29389276D01*
X21816885Y-29624679D01*
X21816885Y-29624680D01*
X21837480Y-29860083D01*
X21837482Y-29860093D01*
X21898638Y-30088335D01*
X21898640Y-30088339D01*
X21898641Y-30088343D01*
X21962450Y-30225181D01*
X21998509Y-30302510D01*
X21998511Y-30302514D01*
X22134045Y-30496075D01*
X22134050Y-30496082D01*
X22301141Y-30663173D01*
X22301147Y-30663178D01*
X22486702Y-30793105D01*
X22530327Y-30847682D01*
X22537521Y-30917180D01*
X22505998Y-30979535D01*
X22486702Y-30996255D01*
X22301141Y-31126185D01*
X22134049Y-31293277D01*
X21998509Y-31486849D01*
X21998508Y-31486851D01*
X21898642Y-31701015D01*
X21898638Y-31701024D01*
X21837482Y-31929266D01*
X21837480Y-31929276D01*
X21816885Y-32164679D01*
X21816885Y-32164680D01*
X21837480Y-32400083D01*
X21837482Y-32400093D01*
X21898638Y-32628335D01*
X21898640Y-32628339D01*
X21898641Y-32628343D01*
X21998509Y-32842510D01*
X21998511Y-32842514D01*
X22134045Y-33036075D01*
X22134050Y-33036082D01*
X22301141Y-33203173D01*
X22301147Y-33203178D01*
X22486702Y-33333105D01*
X22530327Y-33387682D01*
X22537521Y-33457180D01*
X22505998Y-33519535D01*
X22486702Y-33536255D01*
X22301141Y-33666185D01*
X22134049Y-33833277D01*
X21998509Y-34026849D01*
X21998508Y-34026851D01*
X21898642Y-34241015D01*
X21898638Y-34241024D01*
X21837482Y-34469266D01*
X21837480Y-34469276D01*
X21816885Y-34704679D01*
X21816885Y-34704680D01*
X21837480Y-34940083D01*
X21837482Y-34940093D01*
X21898638Y-35168335D01*
X21898640Y-35168339D01*
X21898641Y-35168343D01*
X21971770Y-35325168D01*
X21998509Y-35382510D01*
X21998511Y-35382514D01*
X22134045Y-35576075D01*
X22134050Y-35576082D01*
X22301141Y-35743173D01*
X22301147Y-35743178D01*
X22487138Y-35873410D01*
X22530763Y-35927987D01*
X22537957Y-35997485D01*
X22506434Y-36059840D01*
X22487139Y-36076560D01*
X22301466Y-36206570D01*
X22301464Y-36206571D01*
X22134435Y-36373600D01*
X22134430Y-36373606D01*
X21998944Y-36567100D01*
X21998943Y-36567102D01*
X21899114Y-36781187D01*
X21899111Y-36781193D01*
X21841908Y-36994679D01*
X21841908Y-36994680D01*
X22739532Y-36994680D01*
X22706619Y-37051687D01*
X22672544Y-37178854D01*
X22672544Y-37310506D01*
X22706619Y-37437673D01*
X22739532Y-37494680D01*
X21841908Y-37494680D01*
X21899111Y-37708166D01*
X21899114Y-37708172D01*
X21998943Y-37922258D01*
X22134438Y-38115762D01*
X22301461Y-38282785D01*
X22487139Y-38412799D01*
X22530763Y-38467376D01*
X22537956Y-38536875D01*
X22506434Y-38599229D01*
X22487139Y-38615949D01*
X22301138Y-38746188D01*
X22134049Y-38913277D01*
X21998509Y-39106849D01*
X21998508Y-39106851D01*
X21898642Y-39321015D01*
X21898638Y-39321024D01*
X21837482Y-39549266D01*
X21837480Y-39549276D01*
X21816885Y-39784679D01*
X21816885Y-39784680D01*
X21837480Y-40020083D01*
X21837482Y-40020093D01*
X21898638Y-40248335D01*
X21898640Y-40248339D01*
X21898641Y-40248343D01*
X21962450Y-40385181D01*
X21998509Y-40462510D01*
X21998511Y-40462514D01*
X22134045Y-40656075D01*
X22134050Y-40656082D01*
X22301141Y-40823173D01*
X22301147Y-40823178D01*
X22486702Y-40953105D01*
X22530327Y-41007682D01*
X22537521Y-41077180D01*
X22505998Y-41139535D01*
X22486702Y-41156255D01*
X22301141Y-41286185D01*
X22134049Y-41453277D01*
X21998509Y-41646849D01*
X21998508Y-41646851D01*
X21898642Y-41861015D01*
X21898638Y-41861024D01*
X21837482Y-42089266D01*
X21837480Y-42089276D01*
X21816885Y-42324679D01*
X21816885Y-42324680D01*
X21837480Y-42560083D01*
X21837482Y-42560093D01*
X21898638Y-42788335D01*
X21898640Y-42788339D01*
X21898641Y-42788343D01*
X21998509Y-43002510D01*
X21998511Y-43002514D01*
X22062146Y-43093393D01*
X22134045Y-43196076D01*
X22134050Y-43196082D01*
X22255974Y-43318006D01*
X22289459Y-43379329D01*
X22284475Y-43449021D01*
X22242603Y-43504954D01*
X22211627Y-43521869D01*
X22080213Y-43570883D01*
X22080208Y-43570886D01*
X21964999Y-43657132D01*
X21964996Y-43657135D01*
X21878750Y-43772344D01*
X21878746Y-43772351D01*
X21828452Y-43907197D01*
X21822045Y-43966796D01*
X21822045Y-43966803D01*
X21822044Y-43966815D01*
X21822044Y-45762550D01*
X21822045Y-45762556D01*
X21828452Y-45822163D01*
X21878746Y-45957008D01*
X21878750Y-45957015D01*
X21964996Y-46072224D01*
X21964999Y-46072227D01*
X22080208Y-46158473D01*
X22080215Y-46158477D01*
X22215061Y-46208771D01*
X22215060Y-46208771D01*
X22221988Y-46209515D01*
X22274671Y-46215180D01*
X24070416Y-46215179D01*
X24130027Y-46208771D01*
X24264875Y-46158476D01*
X24380090Y-46072226D01*
X24466340Y-45957011D01*
X24516635Y-45822163D01*
X24523044Y-45762553D01*
X24523043Y-45337441D01*
X24542727Y-45270405D01*
X24595531Y-45224650D01*
X24664690Y-45214706D01*
X24728246Y-45243731D01*
X24766020Y-45302509D01*
X24770571Y-45326634D01*
X24772202Y-45345281D01*
X24772204Y-45345290D01*
X24831074Y-45564997D01*
X24831079Y-45565011D01*
X24927207Y-45771158D01*
X24978318Y-45844152D01*
X25657344Y-45165126D01*
X25657344Y-45171341D01*
X25684603Y-45273074D01*
X25737264Y-45364286D01*
X25811738Y-45438760D01*
X25902950Y-45491421D01*
X26004683Y-45518680D01*
X26010897Y-45518680D01*
X25331870Y-46197705D01*
X25404857Y-46248812D01*
X25404865Y-46248816D01*
X25611012Y-46344944D01*
X25611026Y-46344949D01*
X25830733Y-46403819D01*
X25830744Y-46403821D01*
X26057342Y-46423646D01*
X26057346Y-46423646D01*
X26283943Y-46403821D01*
X26283954Y-46403819D01*
X26503661Y-46344949D01*
X26503675Y-46344944D01*
X26709822Y-46248816D01*
X26782815Y-46197704D01*
X26103791Y-45518680D01*
X26110005Y-45518680D01*
X26211738Y-45491421D01*
X26302950Y-45438760D01*
X26377424Y-45364286D01*
X26430085Y-45273074D01*
X26457344Y-45171341D01*
X26457344Y-45165127D01*
X27136368Y-45844151D01*
X27187480Y-45771158D01*
X27283608Y-45565011D01*
X27283613Y-45564997D01*
X27342483Y-45345290D01*
X27342485Y-45345279D01*
X27362310Y-45118682D01*
X27362310Y-45118678D01*
X29751876Y-45118678D01*
X29751876Y-45118681D01*
X29771708Y-45345366D01*
X29771710Y-45345377D01*
X29830602Y-45565168D01*
X29830605Y-45565177D01*
X29926775Y-45771412D01*
X29926776Y-45771414D01*
X30057298Y-45957821D01*
X30218202Y-46118725D01*
X30218205Y-46118727D01*
X30404610Y-46249248D01*
X30610848Y-46345419D01*
X30830652Y-46404315D01*
X30992574Y-46418481D01*
X31057342Y-46424148D01*
X31057344Y-46424148D01*
X31057346Y-46424148D01*
X31114017Y-46419189D01*
X31284036Y-46404315D01*
X31503840Y-46345419D01*
X31710078Y-46249248D01*
X31896483Y-46118727D01*
X32057391Y-45957819D01*
X32187912Y-45771414D01*
X32284083Y-45565176D01*
X32342979Y-45345372D01*
X32362812Y-45118680D01*
X32342979Y-44891988D01*
X32284083Y-44672184D01*
X32187912Y-44465946D01*
X32057391Y-44279541D01*
X32057389Y-44279538D01*
X31896485Y-44118634D01*
X31710078Y-43988112D01*
X31710076Y-43988111D01*
X31503841Y-43891941D01*
X31503832Y-43891938D01*
X31422774Y-43870219D01*
X33600145Y-43870219D01*
X33600145Y-43870224D01*
X33619969Y-44096821D01*
X33619971Y-44096832D01*
X33678841Y-44316539D01*
X33678846Y-44316553D01*
X33774974Y-44522700D01*
X33826085Y-44595694D01*
X34505111Y-43916668D01*
X34505111Y-43922883D01*
X34532370Y-44024616D01*
X34585031Y-44115828D01*
X34659505Y-44190302D01*
X34750717Y-44242963D01*
X34852450Y-44270222D01*
X34858664Y-44270222D01*
X34179637Y-44949247D01*
X34252624Y-45000354D01*
X34252632Y-45000358D01*
X34458779Y-45096486D01*
X34458793Y-45096491D01*
X34678500Y-45155361D01*
X34678511Y-45155363D01*
X34905109Y-45175188D01*
X34905113Y-45175188D01*
X35131710Y-45155363D01*
X35131721Y-45155361D01*
X35351428Y-45096491D01*
X35351442Y-45096486D01*
X35557589Y-45000358D01*
X35630582Y-44949246D01*
X34951558Y-44270222D01*
X34957772Y-44270222D01*
X35059505Y-44242963D01*
X35150717Y-44190302D01*
X35225191Y-44115828D01*
X35277852Y-44024616D01*
X35305111Y-43922883D01*
X35305111Y-43916669D01*
X35984135Y-44595693D01*
X36035247Y-44522700D01*
X36131375Y-44316553D01*
X36131380Y-44316539D01*
X36190250Y-44096832D01*
X36190252Y-44096821D01*
X36210077Y-43870224D01*
X36210077Y-43870219D01*
X36190252Y-43643622D01*
X36190250Y-43643611D01*
X36131380Y-43423904D01*
X36131375Y-43423890D01*
X36035247Y-43217743D01*
X36035243Y-43217735D01*
X35984136Y-43144748D01*
X35305111Y-43823773D01*
X35305111Y-43817561D01*
X35277852Y-43715828D01*
X35225191Y-43624616D01*
X35150717Y-43550142D01*
X35059505Y-43497481D01*
X34957772Y-43470222D01*
X34951559Y-43470222D01*
X35630583Y-42791196D01*
X35557589Y-42740085D01*
X35351442Y-42643957D01*
X35351428Y-42643952D01*
X35131721Y-42585082D01*
X35131710Y-42585080D01*
X34905113Y-42565256D01*
X34905109Y-42565256D01*
X34678511Y-42585080D01*
X34678500Y-42585082D01*
X34458793Y-42643952D01*
X34458784Y-42643956D01*
X34252627Y-42740088D01*
X34252623Y-42740090D01*
X34179637Y-42791195D01*
X34179637Y-42791196D01*
X34858664Y-43470222D01*
X34852450Y-43470222D01*
X34750717Y-43497481D01*
X34659505Y-43550142D01*
X34585031Y-43624616D01*
X34532370Y-43715828D01*
X34505111Y-43817561D01*
X34505111Y-43823774D01*
X33826085Y-43144748D01*
X33826084Y-43144748D01*
X33774979Y-43217734D01*
X33774977Y-43217738D01*
X33678845Y-43423895D01*
X33678841Y-43423904D01*
X33619971Y-43643611D01*
X33619969Y-43643622D01*
X33600145Y-43870219D01*
X31422774Y-43870219D01*
X31284041Y-43833046D01*
X31284037Y-43833045D01*
X31284036Y-43833045D01*
X31284035Y-43833044D01*
X31284030Y-43833044D01*
X31057346Y-43813212D01*
X31057342Y-43813212D01*
X30830657Y-43833044D01*
X30830646Y-43833046D01*
X30610855Y-43891938D01*
X30610846Y-43891941D01*
X30404611Y-43988111D01*
X30404609Y-43988112D01*
X30218202Y-44118634D01*
X30057298Y-44279538D01*
X29926776Y-44465945D01*
X29926775Y-44465947D01*
X29830605Y-44672182D01*
X29830602Y-44672191D01*
X29771710Y-44891982D01*
X29771708Y-44891993D01*
X29751876Y-45118678D01*
X27362310Y-45118678D01*
X27362310Y-45118677D01*
X27342485Y-44892080D01*
X27342483Y-44892069D01*
X27283613Y-44672362D01*
X27283608Y-44672348D01*
X27187480Y-44466201D01*
X27187476Y-44466193D01*
X27136369Y-44393206D01*
X26457344Y-45072231D01*
X26457344Y-45066019D01*
X26430085Y-44964286D01*
X26377424Y-44873074D01*
X26302950Y-44798600D01*
X26211738Y-44745939D01*
X26110005Y-44718680D01*
X26103792Y-44718680D01*
X26782816Y-44039654D01*
X26709822Y-43988543D01*
X26503675Y-43892415D01*
X26503661Y-43892410D01*
X26283954Y-43833540D01*
X26283943Y-43833538D01*
X26057346Y-43813714D01*
X26057342Y-43813714D01*
X25830744Y-43833538D01*
X25830733Y-43833540D01*
X25611026Y-43892410D01*
X25611017Y-43892414D01*
X25404860Y-43988546D01*
X25404856Y-43988548D01*
X25331870Y-44039653D01*
X25331870Y-44039654D01*
X26010897Y-44718680D01*
X26004683Y-44718680D01*
X25902950Y-44745939D01*
X25811738Y-44798600D01*
X25737264Y-44873074D01*
X25684603Y-44964286D01*
X25657344Y-45066019D01*
X25657344Y-45072232D01*
X24978318Y-44393206D01*
X24978317Y-44393206D01*
X24927212Y-44466192D01*
X24927210Y-44466196D01*
X24831078Y-44672353D01*
X24831074Y-44672362D01*
X24772204Y-44892069D01*
X24772202Y-44892079D01*
X24770571Y-44910727D01*
X24745117Y-44975796D01*
X24688526Y-45016773D01*
X24618764Y-45020650D01*
X24557980Y-44986196D01*
X24525473Y-44924348D01*
X24523043Y-44899918D01*
X24523043Y-44414776D01*
X24542728Y-44347737D01*
X24559357Y-44327100D01*
X25524960Y-43361499D01*
X25586283Y-43328014D01*
X25612641Y-43325180D01*
X27754407Y-43325180D01*
X27754423Y-43325181D01*
X27762019Y-43325181D01*
X27920130Y-43325181D01*
X27920133Y-43325181D01*
X28072861Y-43284257D01*
X28122980Y-43255319D01*
X28209792Y-43205200D01*
X28321596Y-43093396D01*
X28321596Y-43093394D01*
X28331804Y-43083187D01*
X28331806Y-43083184D01*
X30845772Y-40569217D01*
X30907093Y-40535734D01*
X30919552Y-40533681D01*
X30951805Y-40530048D01*
X31122072Y-40470469D01*
X31274812Y-40374496D01*
X31402366Y-40246942D01*
X31498339Y-40094202D01*
X31557918Y-39923935D01*
X31573608Y-39784680D01*
X31578115Y-39744683D01*
X31578115Y-39744676D01*
X31557919Y-39565430D01*
X31557918Y-39565425D01*
X31534746Y-39499203D01*
X31498339Y-39395158D01*
X31402366Y-39242418D01*
X31274812Y-39114864D01*
X31232464Y-39088255D01*
X31122073Y-39018891D01*
X30951804Y-38959311D01*
X30951799Y-38959310D01*
X30772554Y-38939115D01*
X30772546Y-38939115D01*
X30593300Y-38959310D01*
X30593287Y-38959313D01*
X30416456Y-39021190D01*
X30415707Y-39019049D01*
X30357371Y-39028638D01*
X30328955Y-39020291D01*
X30328641Y-39021190D01*
X30151809Y-38959313D01*
X30151796Y-38959310D01*
X29972551Y-38939115D01*
X29972543Y-38939115D01*
X29793297Y-38959310D01*
X29793284Y-38959313D01*
X29616453Y-39021190D01*
X29615704Y-39019049D01*
X29557368Y-39028638D01*
X29528952Y-39020291D01*
X29528638Y-39021190D01*
X29351806Y-38959313D01*
X29351793Y-38959310D01*
X29172548Y-38939115D01*
X29172540Y-38939115D01*
X28993294Y-38959310D01*
X28993289Y-38959311D01*
X28823020Y-39018891D01*
X28670281Y-39114864D01*
X28667447Y-39117125D01*
X28665268Y-39118014D01*
X28664386Y-39118569D01*
X28664288Y-39118414D01*
X28602760Y-39143534D01*
X28590133Y-39144179D01*
X28493487Y-39144179D01*
X28359971Y-39179955D01*
X28327879Y-39184180D01*
X24461635Y-39184180D01*
X24394596Y-39164495D01*
X24349255Y-39112589D01*
X24346581Y-39106855D01*
X24346578Y-39106850D01*
X24346577Y-39106849D01*
X24284989Y-39018891D01*
X24211038Y-38913277D01*
X24043946Y-38746186D01*
X24043945Y-38746185D01*
X23857949Y-38615949D01*
X23814325Y-38561372D01*
X23807132Y-38491873D01*
X23838654Y-38429519D01*
X23857949Y-38412799D01*
X24043626Y-38282785D01*
X24210649Y-38115762D01*
X24346144Y-37922258D01*
X24445973Y-37708172D01*
X24445976Y-37708166D01*
X24503180Y-37494680D01*
X23605556Y-37494680D01*
X23638469Y-37437673D01*
X23672544Y-37310506D01*
X23672544Y-37178854D01*
X23638469Y-37051687D01*
X23605556Y-36994680D01*
X24503180Y-36994680D01*
X24503179Y-36994679D01*
X24445976Y-36781193D01*
X24445973Y-36781187D01*
X24346144Y-36567102D01*
X24346143Y-36567100D01*
X24210657Y-36373606D01*
X24210652Y-36373600D01*
X24043622Y-36206570D01*
X23857949Y-36076559D01*
X23814324Y-36021982D01*
X23807132Y-35952484D01*
X23838654Y-35890129D01*
X23857950Y-35873410D01*
X23987146Y-35782946D01*
X24043945Y-35743175D01*
X24211039Y-35576081D01*
X24346579Y-35382510D01*
X24446447Y-35168343D01*
X24507607Y-34940088D01*
X24528203Y-34704680D01*
X24507607Y-34469272D01*
X24446447Y-34241017D01*
X24346579Y-34026851D01*
X24211039Y-33833279D01*
X24211038Y-33833277D01*
X24043946Y-33666186D01*
X24043940Y-33666181D01*
X23858386Y-33536255D01*
X23814761Y-33481678D01*
X23807567Y-33412180D01*
X23839090Y-33349825D01*
X23858386Y-33333105D01*
X23880570Y-33317571D01*
X24043945Y-33203175D01*
X24211039Y-33036081D01*
X24346579Y-32842510D01*
X24446447Y-32628343D01*
X24507607Y-32400088D01*
X24528203Y-32164680D01*
X24527749Y-32159496D01*
X24507607Y-31929276D01*
X24507607Y-31929272D01*
X24446447Y-31701017D01*
X24346579Y-31486851D01*
X24320652Y-31449822D01*
X24211038Y-31293277D01*
X24043946Y-31126186D01*
X24043940Y-31126181D01*
X23858386Y-30996255D01*
X23814761Y-30941678D01*
X23807567Y-30872180D01*
X23839090Y-30809825D01*
X23858386Y-30793105D01*
X23880570Y-30777571D01*
X24043945Y-30663175D01*
X24211039Y-30496081D01*
X24346579Y-30302510D01*
X24446447Y-30088343D01*
X24499732Y-29889478D01*
X25372276Y-29889478D01*
X25372276Y-29889481D01*
X25392108Y-30116166D01*
X25392110Y-30116177D01*
X25451002Y-30335968D01*
X25451005Y-30335977D01*
X25547175Y-30542212D01*
X25547176Y-30542214D01*
X25677698Y-30728621D01*
X25838602Y-30889525D01*
X25838605Y-30889527D01*
X26025010Y-31020048D01*
X26140441Y-31073874D01*
X26170713Y-31087991D01*
X26223152Y-31134164D01*
X26242304Y-31201357D01*
X26235350Y-31241327D01*
X26197176Y-31350422D01*
X26197174Y-31350430D01*
X26176979Y-31529676D01*
X26176979Y-31529683D01*
X26197174Y-31708929D01*
X26197175Y-31708934D01*
X26256755Y-31879203D01*
X26300406Y-31948672D01*
X26352728Y-32031942D01*
X26480282Y-32159496D01*
X26633022Y-32255469D01*
X26803289Y-32315048D01*
X26890213Y-32324841D01*
X26954624Y-32351906D01*
X26964009Y-32360380D01*
X31933725Y-37330096D01*
X31967210Y-37391419D01*
X31970044Y-37417777D01*
X31970044Y-38567267D01*
X31950359Y-38634306D01*
X31942994Y-38644576D01*
X31940730Y-38647414D01*
X31844755Y-38800156D01*
X31785175Y-38970425D01*
X31785174Y-38970430D01*
X31764979Y-39149676D01*
X31764979Y-39149683D01*
X31785174Y-39328929D01*
X31785175Y-39328934D01*
X31844755Y-39499203D01*
X31940728Y-39651942D01*
X32068282Y-39779496D01*
X32221022Y-39875469D01*
X32359513Y-39923929D01*
X32391289Y-39935048D01*
X32391294Y-39935049D01*
X32570540Y-39955245D01*
X32570544Y-39955245D01*
X32570548Y-39955245D01*
X32749793Y-39935049D01*
X32749796Y-39935048D01*
X32749799Y-39935048D01*
X32920066Y-39875469D01*
X33072806Y-39779496D01*
X33200360Y-39651942D01*
X33296333Y-39499202D01*
X33355912Y-39328935D01*
X33355913Y-39328929D01*
X33376109Y-39149683D01*
X33376109Y-39149678D01*
X33374180Y-39132560D01*
X33375275Y-39126306D01*
X33371970Y-39112945D01*
X33355913Y-38970430D01*
X33355912Y-38970425D01*
X33296332Y-38800156D01*
X33200357Y-38647414D01*
X33198094Y-38644576D01*
X33197203Y-38642395D01*
X33196655Y-38641522D01*
X33196808Y-38641425D01*
X33171688Y-38579889D01*
X33171044Y-38567267D01*
X33171044Y-37038625D01*
X33171044Y-37038623D01*
X33130121Y-36885896D01*
X33078569Y-36796604D01*
X33051068Y-36748970D01*
X33051065Y-36748966D01*
X33051064Y-36748964D01*
X32939260Y-36637160D01*
X32939259Y-36637159D01*
X32934929Y-36632829D01*
X32934918Y-36632819D01*
X27813244Y-31511145D01*
X27779759Y-31449822D01*
X27777707Y-31437366D01*
X27767912Y-31350425D01*
X27708333Y-31180158D01*
X27612360Y-31027418D01*
X27583357Y-30998415D01*
X27549872Y-30937092D01*
X27554856Y-30867400D01*
X27583355Y-30823054D01*
X27677791Y-30728619D01*
X27808312Y-30542214D01*
X27904483Y-30335976D01*
X27963379Y-30116172D01*
X27983212Y-29889480D01*
X27963379Y-29662788D01*
X27937591Y-29566546D01*
X27939254Y-29496697D01*
X27969683Y-29446774D01*
X28336566Y-29079892D01*
X28397888Y-29046408D01*
X28467580Y-29051392D01*
X28523513Y-29093264D01*
X28547930Y-29158728D01*
X28533078Y-29227001D01*
X28529240Y-29233546D01*
X28493445Y-29290512D01*
X28433865Y-29460781D01*
X28433864Y-29460786D01*
X28413669Y-29640032D01*
X28413669Y-29640039D01*
X28433864Y-29819285D01*
X28433865Y-29819290D01*
X28493445Y-29989559D01*
X28566108Y-30105200D01*
X28589418Y-30142298D01*
X28716972Y-30269852D01*
X28869712Y-30365825D01*
X29039979Y-30425404D01*
X29126903Y-30435197D01*
X29191314Y-30462262D01*
X29200699Y-30470736D01*
X34636265Y-35906302D01*
X34669750Y-35967625D01*
X34672584Y-35993983D01*
X34672584Y-36059536D01*
X34652899Y-36126575D01*
X34600095Y-36172330D01*
X34562468Y-36182756D01*
X34493834Y-36190489D01*
X34323562Y-36250069D01*
X34170821Y-36346043D01*
X34043268Y-36473596D01*
X33947295Y-36626335D01*
X33887715Y-36796604D01*
X33887714Y-36796609D01*
X33867519Y-36975855D01*
X33867519Y-36975862D01*
X33887714Y-37155108D01*
X33887715Y-37155113D01*
X33947295Y-37325382D01*
X34043268Y-37478121D01*
X34175746Y-37610599D01*
X34174346Y-37611998D01*
X34208887Y-37661203D01*
X34211741Y-37731015D01*
X34176398Y-37791286D01*
X34162560Y-37802543D01*
X34065967Y-37870178D01*
X33905065Y-38031080D01*
X33774543Y-38217487D01*
X33774542Y-38217489D01*
X33678372Y-38423724D01*
X33678369Y-38423733D01*
X33619477Y-38643524D01*
X33619475Y-38643535D01*
X33599643Y-38870220D01*
X33599643Y-38870224D01*
X33618718Y-39088255D01*
X33618026Y-39091698D01*
X33618075Y-39091685D01*
X33678369Y-39316710D01*
X33678372Y-39316719D01*
X33774542Y-39522954D01*
X33774543Y-39522956D01*
X33905065Y-39709363D01*
X34065969Y-39870267D01*
X34065972Y-39870269D01*
X34252377Y-40000790D01*
X34458615Y-40096961D01*
X34678419Y-40155857D01*
X34840341Y-40170023D01*
X34905109Y-40175690D01*
X34905111Y-40175690D01*
X34905113Y-40175690D01*
X34961784Y-40170731D01*
X35131803Y-40155857D01*
X35351607Y-40096961D01*
X35557845Y-40000790D01*
X35744250Y-39870269D01*
X35905158Y-39709361D01*
X36035679Y-39522956D01*
X36131850Y-39316718D01*
X36147476Y-39258401D01*
X36183840Y-39198740D01*
X36246687Y-39168210D01*
X36316063Y-39176504D01*
X36354932Y-39202812D01*
X36625725Y-39473605D01*
X36659210Y-39534928D01*
X36662044Y-39561286D01*
X36662044Y-41088010D01*
X36662043Y-41088028D01*
X36662043Y-41253734D01*
X36662042Y-41253734D01*
X36670738Y-41286186D01*
X36702967Y-41406465D01*
X36721202Y-41438048D01*
X36729996Y-41453279D01*
X36782023Y-41543395D01*
X36900893Y-41662265D01*
X36900899Y-41662270D01*
X37079777Y-41841148D01*
X37113262Y-41902471D01*
X37111871Y-41960921D01*
X37077483Y-42089263D01*
X37077480Y-42089276D01*
X37056885Y-42324679D01*
X37056885Y-42324680D01*
X37077480Y-42560083D01*
X37077482Y-42560093D01*
X37138638Y-42788335D01*
X37138640Y-42788339D01*
X37138641Y-42788343D01*
X37238509Y-43002510D01*
X37238511Y-43002514D01*
X37302146Y-43093393D01*
X37374045Y-43196076D01*
X37374050Y-43196082D01*
X37495974Y-43318006D01*
X37529459Y-43379329D01*
X37524475Y-43449021D01*
X37482603Y-43504954D01*
X37451627Y-43521869D01*
X37320213Y-43570883D01*
X37320208Y-43570886D01*
X37204999Y-43657132D01*
X37204996Y-43657135D01*
X37118750Y-43772344D01*
X37118746Y-43772351D01*
X37068452Y-43907197D01*
X37062045Y-43966796D01*
X37062045Y-43966803D01*
X37062044Y-43966815D01*
X37062044Y-45762550D01*
X37062045Y-45762556D01*
X37068452Y-45822163D01*
X37118746Y-45957008D01*
X37118750Y-45957015D01*
X37204996Y-46072224D01*
X37204999Y-46072227D01*
X37320208Y-46158473D01*
X37320215Y-46158477D01*
X37455061Y-46208771D01*
X37455060Y-46208771D01*
X37461988Y-46209515D01*
X37514671Y-46215180D01*
X39310416Y-46215179D01*
X39370027Y-46208771D01*
X39504875Y-46158476D01*
X39620090Y-46072226D01*
X39706340Y-45957011D01*
X39756635Y-45822163D01*
X39763044Y-45762553D01*
X39763043Y-43966808D01*
X39756635Y-43907197D01*
X39751121Y-43892414D01*
X39706341Y-43772351D01*
X39706337Y-43772344D01*
X39620091Y-43657135D01*
X39620088Y-43657132D01*
X39504879Y-43570886D01*
X39504872Y-43570882D01*
X39373461Y-43521869D01*
X39317527Y-43479998D01*
X39293110Y-43414533D01*
X39307962Y-43346260D01*
X39329107Y-43318012D01*
X39451039Y-43196081D01*
X39586579Y-43002510D01*
X39686447Y-42788343D01*
X39747607Y-42560088D01*
X39768203Y-42324680D01*
X39747607Y-42089272D01*
X39686447Y-41861017D01*
X39586579Y-41646851D01*
X39586578Y-41646849D01*
X39451038Y-41453277D01*
X39283946Y-41286186D01*
X39283940Y-41286181D01*
X39098386Y-41156255D01*
X39054761Y-41101678D01*
X39047567Y-41032180D01*
X39079090Y-40969825D01*
X39098386Y-40953105D01*
X39120570Y-40937571D01*
X39283945Y-40823175D01*
X39451039Y-40656081D01*
X39586579Y-40462510D01*
X39686447Y-40248343D01*
X39747607Y-40020088D01*
X39768203Y-39784680D01*
X39767749Y-39779496D01*
X39756590Y-39651942D01*
X39747607Y-39549272D01*
X39686447Y-39321017D01*
X39586579Y-39106851D01*
X39586578Y-39106849D01*
X39451038Y-38913277D01*
X39283946Y-38746186D01*
X39283945Y-38746185D01*
X39097949Y-38615949D01*
X39054325Y-38561372D01*
X39047132Y-38491873D01*
X39078654Y-38429519D01*
X39097949Y-38412799D01*
X39283626Y-38282785D01*
X39450649Y-38115762D01*
X39586144Y-37922258D01*
X39685973Y-37708172D01*
X39685976Y-37708166D01*
X39743180Y-37494680D01*
X38845556Y-37494680D01*
X38878469Y-37437673D01*
X38912544Y-37310506D01*
X38912544Y-37178854D01*
X38878469Y-37051687D01*
X38845556Y-36994680D01*
X39743180Y-36994680D01*
X39743179Y-36994679D01*
X39685976Y-36781193D01*
X39685973Y-36781187D01*
X39586144Y-36567102D01*
X39586143Y-36567100D01*
X39450657Y-36373606D01*
X39450652Y-36373600D01*
X39283622Y-36206570D01*
X39097949Y-36076559D01*
X39054324Y-36021982D01*
X39047132Y-35952484D01*
X39078654Y-35890129D01*
X39097950Y-35873410D01*
X39227146Y-35782946D01*
X39283945Y-35743175D01*
X39451039Y-35576081D01*
X39586579Y-35382510D01*
X39686447Y-35168343D01*
X39747607Y-34940088D01*
X39768203Y-34704680D01*
X39747607Y-34469272D01*
X39686447Y-34241017D01*
X39586579Y-34026851D01*
X39451039Y-33833279D01*
X39451038Y-33833277D01*
X39283946Y-33666186D01*
X39283940Y-33666181D01*
X39098386Y-33536255D01*
X39054761Y-33481678D01*
X39047567Y-33412180D01*
X39079090Y-33349825D01*
X39098386Y-33333105D01*
X39120570Y-33317571D01*
X39283945Y-33203175D01*
X39451039Y-33036081D01*
X39586579Y-32842510D01*
X39686447Y-32628343D01*
X39747607Y-32400088D01*
X39768203Y-32164680D01*
X39767749Y-32159496D01*
X39747607Y-31929276D01*
X39747607Y-31929272D01*
X39686447Y-31701017D01*
X39586579Y-31486851D01*
X39560652Y-31449822D01*
X39451038Y-31293277D01*
X39283946Y-31126186D01*
X39283940Y-31126181D01*
X39098386Y-30996255D01*
X39054761Y-30941678D01*
X39047567Y-30872180D01*
X39079090Y-30809825D01*
X39098386Y-30793105D01*
X39120570Y-30777571D01*
X39283945Y-30663175D01*
X39451039Y-30496081D01*
X39586579Y-30302510D01*
X39686447Y-30088343D01*
X39747607Y-29860088D01*
X39768203Y-29624680D01*
X39747607Y-29389272D01*
X39686447Y-29161017D01*
X39586579Y-28946851D01*
X39562947Y-28913100D01*
X39451038Y-28753277D01*
X39283946Y-28586186D01*
X39283940Y-28586181D01*
X39098386Y-28456255D01*
X39054761Y-28401678D01*
X39047567Y-28332180D01*
X39079090Y-28269825D01*
X39098386Y-28253105D01*
X39168072Y-28204310D01*
X39283945Y-28123175D01*
X39451039Y-27956081D01*
X39586579Y-27762510D01*
X39686447Y-27548343D01*
X39747607Y-27320088D01*
X39768203Y-27084680D01*
X39747607Y-26849272D01*
X39686447Y-26621017D01*
X39586579Y-26406851D01*
X39505601Y-26291201D01*
X39451038Y-26213277D01*
X39283946Y-26046186D01*
X39283940Y-26046181D01*
X39098386Y-25916255D01*
X39054761Y-25861678D01*
X39047567Y-25792180D01*
X39079090Y-25729825D01*
X39098386Y-25713105D01*
X39120570Y-25697571D01*
X39283945Y-25583175D01*
X39451039Y-25416081D01*
X39586579Y-25222510D01*
X39686447Y-25008343D01*
X39747607Y-24780088D01*
X39768203Y-24544680D01*
X39747607Y-24309272D01*
X39686447Y-24081017D01*
X39586579Y-23866851D01*
X39511302Y-23759343D01*
X39451038Y-23673277D01*
X39283946Y-23506186D01*
X39283940Y-23506181D01*
X39098386Y-23376255D01*
X39054761Y-23321678D01*
X39047567Y-23252180D01*
X39079090Y-23189825D01*
X39098386Y-23173105D01*
X39120570Y-23157571D01*
X39283945Y-23043175D01*
X39451039Y-22876081D01*
X39586579Y-22682510D01*
X39686447Y-22468343D01*
X39747607Y-22240088D01*
X39768203Y-22004680D01*
X39747607Y-21769272D01*
X39686447Y-21541017D01*
X39586579Y-21326851D01*
X39580969Y-21318838D01*
X39451038Y-21133277D01*
X39283946Y-20966186D01*
X39283939Y-20966181D01*
X39090378Y-20830647D01*
X39090374Y-20830645D01*
X39090372Y-20830644D01*
X38876207Y-20730777D01*
X38876203Y-20730776D01*
X38876199Y-20730774D01*
X38647957Y-20669618D01*
X38647947Y-20669616D01*
X38412545Y-20649021D01*
X38412543Y-20649021D01*
X38177140Y-20669616D01*
X38177130Y-20669618D01*
X37948888Y-20730774D01*
X37948879Y-20730778D01*
X37734715Y-20830644D01*
X37734713Y-20830645D01*
X37541141Y-20966185D01*
X37374049Y-21133277D01*
X37238509Y-21326849D01*
X37238508Y-21326851D01*
X37138642Y-21541015D01*
X37138638Y-21541024D01*
X37077482Y-21769266D01*
X37077480Y-21769276D01*
X37056885Y-22004679D01*
X37056885Y-22004680D01*
X37077480Y-22240083D01*
X37077482Y-22240093D01*
X37138638Y-22468335D01*
X37138640Y-22468339D01*
X37138641Y-22468343D01*
X37142544Y-22476712D01*
X37238509Y-22682510D01*
X37238511Y-22682514D01*
X37346825Y-22837201D01*
X37374045Y-22876076D01*
X37374050Y-22876082D01*
X37541141Y-23043173D01*
X37541147Y-23043178D01*
X37726702Y-23173105D01*
X37770327Y-23227682D01*
X37777521Y-23297180D01*
X37745998Y-23359535D01*
X37726702Y-23376255D01*
X37541141Y-23506185D01*
X37374049Y-23673277D01*
X37238509Y-23866849D01*
X37238508Y-23866851D01*
X37138642Y-24081015D01*
X37138638Y-24081024D01*
X37077482Y-24309266D01*
X37077480Y-24309276D01*
X37056885Y-24544679D01*
X37056885Y-24544680D01*
X37077480Y-24780083D01*
X37077482Y-24780093D01*
X37111871Y-24908436D01*
X37110208Y-24978286D01*
X37079777Y-25028210D01*
X36850489Y-25257498D01*
X36789166Y-25290983D01*
X36719474Y-25285999D01*
X36696835Y-25274810D01*
X36603068Y-25215891D01*
X36432798Y-25156311D01*
X36432793Y-25156310D01*
X36311531Y-25142648D01*
X36247117Y-25115582D01*
X36207562Y-25057987D01*
X36201886Y-25008620D01*
X36212310Y-24889480D01*
X36212310Y-24889477D01*
X36192485Y-24662880D01*
X36192483Y-24662869D01*
X36133613Y-24443162D01*
X36133608Y-24443148D01*
X36037480Y-24237001D01*
X36037476Y-24236993D01*
X35986369Y-24164006D01*
X35307344Y-24843032D01*
X35307344Y-24836819D01*
X35280085Y-24735086D01*
X35227424Y-24643874D01*
X35152950Y-24569400D01*
X35061738Y-24516739D01*
X34960005Y-24489480D01*
X34953792Y-24489480D01*
X35632816Y-23810454D01*
X35559822Y-23759343D01*
X35353675Y-23663215D01*
X35353661Y-23663210D01*
X35133954Y-23604340D01*
X35133944Y-23604338D01*
X35115295Y-23602707D01*
X35050226Y-23577254D01*
X35009248Y-23520663D01*
X35005370Y-23450901D01*
X35039825Y-23390117D01*
X35101671Y-23357610D01*
X35126100Y-23355179D01*
X35490416Y-23355179D01*
X35550027Y-23348771D01*
X35684875Y-23298476D01*
X35800090Y-23212226D01*
X35886340Y-23097011D01*
X35936635Y-22962163D01*
X35943044Y-22902553D01*
X35943043Y-21106808D01*
X35936635Y-21047197D01*
X35935354Y-21043763D01*
X35886341Y-20912351D01*
X35886337Y-20912344D01*
X35800091Y-20797135D01*
X35800088Y-20797132D01*
X35684879Y-20710886D01*
X35684872Y-20710882D01*
X35550026Y-20660588D01*
X35550027Y-20660588D01*
X35490427Y-20654181D01*
X35490425Y-20654180D01*
X35490417Y-20654180D01*
X35490408Y-20654180D01*
X33694673Y-20654180D01*
X33694667Y-20654181D01*
X33635060Y-20660588D01*
X33500215Y-20710882D01*
X33500208Y-20710886D01*
X33384999Y-20797132D01*
X33384996Y-20797135D01*
X33298750Y-20912344D01*
X33298747Y-20912349D01*
X33249733Y-21043763D01*
X33207861Y-21099696D01*
X33142397Y-21124113D01*
X33074124Y-21109261D01*
X33045870Y-21088110D01*
X32923946Y-20966186D01*
X32923939Y-20966181D01*
X32730378Y-20830647D01*
X32730374Y-20830645D01*
X32730372Y-20830644D01*
X32516207Y-20730777D01*
X32516203Y-20730776D01*
X32516199Y-20730774D01*
X32287957Y-20669618D01*
X32287947Y-20669616D01*
X32052545Y-20649021D01*
X32052543Y-20649021D01*
X31817140Y-20669616D01*
X31817130Y-20669618D01*
X31588888Y-20730774D01*
X31588879Y-20730778D01*
X31374715Y-20830644D01*
X31374713Y-20830645D01*
X31181141Y-20966185D01*
X31014049Y-21133277D01*
X30884119Y-21318838D01*
X30829542Y-21362463D01*
X30760044Y-21369657D01*
X30697689Y-21338134D01*
X30680969Y-21318838D01*
X30551038Y-21133277D01*
X30383946Y-20966186D01*
X30383939Y-20966181D01*
X30190378Y-20830647D01*
X30190374Y-20830645D01*
X30190372Y-20830644D01*
X29976207Y-20730777D01*
X29976203Y-20730776D01*
X29976199Y-20730774D01*
X29747957Y-20669618D01*
X29747947Y-20669616D01*
X29512545Y-20649021D01*
X29512543Y-20649021D01*
X29277140Y-20669616D01*
X29277130Y-20669618D01*
X29048888Y-20730774D01*
X29048879Y-20730778D01*
X28834715Y-20830644D01*
X28834713Y-20830645D01*
X28641141Y-20966185D01*
X28474049Y-21133277D01*
X28344119Y-21318838D01*
X28289542Y-21362463D01*
X28220044Y-21369657D01*
X28157689Y-21338134D01*
X28140969Y-21318838D01*
X28011038Y-21133277D01*
X27843946Y-20966186D01*
X27843939Y-20966181D01*
X27650378Y-20830647D01*
X27650374Y-20830645D01*
X27650372Y-20830644D01*
X27436207Y-20730777D01*
X27436203Y-20730776D01*
X27436199Y-20730774D01*
X27207957Y-20669618D01*
X27207947Y-20669616D01*
X26972545Y-20649021D01*
X26972543Y-20649021D01*
X26737140Y-20669616D01*
X26737130Y-20669618D01*
X26508888Y-20730774D01*
X26508879Y-20730778D01*
X26294715Y-20830644D01*
X26294713Y-20830645D01*
X26101141Y-20966185D01*
X25934049Y-21133277D01*
X25798509Y-21326849D01*
X25798508Y-21326851D01*
X25698642Y-21541015D01*
X25698638Y-21541024D01*
X25637482Y-21769266D01*
X25637480Y-21769276D01*
X25616885Y-22004679D01*
X25616885Y-22004680D01*
X25637480Y-22240083D01*
X25637482Y-22240093D01*
X25698638Y-22468335D01*
X25698640Y-22468339D01*
X25698641Y-22468343D01*
X25702544Y-22476712D01*
X25798509Y-22682510D01*
X25798511Y-22682514D01*
X25906825Y-22837201D01*
X25934049Y-22876081D01*
X26101143Y-23043175D01*
X26197928Y-23110945D01*
X26294709Y-23178712D01*
X26294711Y-23178713D01*
X26294714Y-23178715D01*
X26508881Y-23278583D01*
X26737136Y-23339743D01*
X26913578Y-23355180D01*
X26972543Y-23360339D01*
X26972544Y-23360339D01*
X26972545Y-23360339D01*
X27031510Y-23355180D01*
X27207952Y-23339743D01*
X27436207Y-23278583D01*
X27650374Y-23178715D01*
X27843945Y-23043175D01*
X28011039Y-22876081D01*
X28140969Y-22690522D01*
X28195546Y-22646897D01*
X28265044Y-22639703D01*
X28327399Y-22671226D01*
X28344119Y-22690522D01*
X28474044Y-22876075D01*
X28474049Y-22876081D01*
X28641143Y-23043175D01*
X28737928Y-23110945D01*
X28834709Y-23178712D01*
X28834711Y-23178713D01*
X28834714Y-23178715D01*
X29048881Y-23278583D01*
X29277136Y-23339743D01*
X29453578Y-23355180D01*
X29512543Y-23360339D01*
X29512544Y-23360339D01*
X29512545Y-23360339D01*
X29571510Y-23355180D01*
X29747952Y-23339743D01*
X29976207Y-23278583D01*
X30190374Y-23178715D01*
X30383945Y-23043175D01*
X30551039Y-22876081D01*
X30680969Y-22690522D01*
X30735546Y-22646897D01*
X30805044Y-22639703D01*
X30867399Y-22671226D01*
X30884119Y-22690522D01*
X31014044Y-22876075D01*
X31014049Y-22876081D01*
X31181143Y-23043175D01*
X31277928Y-23110945D01*
X31374709Y-23178712D01*
X31374711Y-23178713D01*
X31374714Y-23178715D01*
X31588881Y-23278583D01*
X31817136Y-23339743D01*
X31993578Y-23355180D01*
X32052543Y-23360339D01*
X32052544Y-23360339D01*
X32052545Y-23360339D01*
X32111510Y-23355180D01*
X32287952Y-23339743D01*
X32516207Y-23278583D01*
X32730374Y-23178715D01*
X32923945Y-23043175D01*
X33045873Y-22921246D01*
X33107192Y-22887764D01*
X33176884Y-22892748D01*
X33232818Y-22934619D01*
X33249733Y-22965597D01*
X33298746Y-23097008D01*
X33298750Y-23097015D01*
X33384996Y-23212224D01*
X33384999Y-23212227D01*
X33500208Y-23298473D01*
X33500215Y-23298477D01*
X33635061Y-23348771D01*
X33635060Y-23348771D01*
X33641988Y-23349515D01*
X33694671Y-23355180D01*
X34688582Y-23355179D01*
X34755620Y-23374863D01*
X34801375Y-23427667D01*
X34811319Y-23496826D01*
X34782294Y-23560382D01*
X34723516Y-23598156D01*
X34699391Y-23602707D01*
X34680742Y-23604338D01*
X34680733Y-23604340D01*
X34461026Y-23663210D01*
X34461017Y-23663214D01*
X34254860Y-23759346D01*
X34254856Y-23759348D01*
X34181870Y-23810453D01*
X34181870Y-23810454D01*
X34860897Y-24489480D01*
X34854683Y-24489480D01*
X34752950Y-24516739D01*
X34661738Y-24569400D01*
X34587264Y-24643874D01*
X34534603Y-24735086D01*
X34507344Y-24836819D01*
X34507344Y-24843032D01*
X33828318Y-24164006D01*
X33828317Y-24164006D01*
X33777212Y-24236992D01*
X33777210Y-24236996D01*
X33681078Y-24443153D01*
X33681074Y-24443162D01*
X33622204Y-24662869D01*
X33622202Y-24662880D01*
X33602378Y-24889477D01*
X33602378Y-24889482D01*
X33622202Y-25116079D01*
X33622204Y-25116090D01*
X33681074Y-25335797D01*
X33681079Y-25335811D01*
X33777207Y-25541958D01*
X33828318Y-25614952D01*
X34507344Y-24935926D01*
X34507344Y-24942141D01*
X34534603Y-25043874D01*
X34587264Y-25135086D01*
X34661738Y-25209560D01*
X34752950Y-25262221D01*
X34854683Y-25289480D01*
X34860897Y-25289480D01*
X34181870Y-25968505D01*
X34254857Y-26019612D01*
X34254865Y-26019616D01*
X34461012Y-26115744D01*
X34461026Y-26115749D01*
X34680733Y-26174619D01*
X34680744Y-26174621D01*
X34907342Y-26194446D01*
X34907346Y-26194446D01*
X35133943Y-26174621D01*
X35133950Y-26174620D01*
X35345565Y-26117917D01*
X35415415Y-26119580D01*
X35473277Y-26158742D01*
X35494701Y-26196738D01*
X35527754Y-26291201D01*
X35527755Y-26291202D01*
X35623728Y-26443942D01*
X35751282Y-26571496D01*
X35904022Y-26667469D01*
X35992058Y-26698274D01*
X36074289Y-26727048D01*
X36074294Y-26727049D01*
X36253540Y-26747245D01*
X36253544Y-26747245D01*
X36253548Y-26747245D01*
X36432793Y-26727049D01*
X36432796Y-26727048D01*
X36432799Y-26727048D01*
X36603066Y-26667469D01*
X36755806Y-26571496D01*
X36755811Y-26571490D01*
X36758641Y-26569235D01*
X36760819Y-26568345D01*
X36761702Y-26567791D01*
X36761799Y-26567945D01*
X36823327Y-26542825D01*
X36835956Y-26542180D01*
X36928875Y-26542180D01*
X36928891Y-26542181D01*
X36998165Y-26542181D01*
X37065204Y-26561866D01*
X37110959Y-26614670D01*
X37120903Y-26683828D01*
X37117940Y-26698274D01*
X37077482Y-26849266D01*
X37077480Y-26849276D01*
X37056885Y-27084679D01*
X37056885Y-27084680D01*
X37077480Y-27320083D01*
X37077482Y-27320093D01*
X37138638Y-27548335D01*
X37138640Y-27548339D01*
X37138641Y-27548343D01*
X37224265Y-27731964D01*
X37238509Y-27762510D01*
X37238511Y-27762514D01*
X37374045Y-27956075D01*
X37374050Y-27956082D01*
X37541141Y-28123173D01*
X37541147Y-28123178D01*
X37726702Y-28253105D01*
X37770327Y-28307682D01*
X37777521Y-28377180D01*
X37745998Y-28439535D01*
X37726702Y-28456255D01*
X37541141Y-28586185D01*
X37374049Y-28753277D01*
X37275652Y-28893804D01*
X37221075Y-28937429D01*
X37151577Y-28944623D01*
X37089222Y-28913100D01*
X37053808Y-28852870D01*
X37050857Y-28836570D01*
X37047912Y-28810425D01*
X36988333Y-28640158D01*
X36892360Y-28487418D01*
X36764806Y-28359864D01*
X36653009Y-28289617D01*
X36612067Y-28263891D01*
X36441798Y-28204311D01*
X36441793Y-28204310D01*
X36262548Y-28184115D01*
X36262540Y-28184115D01*
X36083294Y-28204310D01*
X36083289Y-28204311D01*
X35913020Y-28263891D01*
X35760281Y-28359864D01*
X35632726Y-28487419D01*
X35542550Y-28630933D01*
X35490215Y-28677223D01*
X35421162Y-28687871D01*
X35385153Y-28677342D01*
X35353846Y-28662743D01*
X35353832Y-28662738D01*
X35134041Y-28603846D01*
X35134037Y-28603845D01*
X35134036Y-28603845D01*
X35134035Y-28603844D01*
X35134030Y-28603844D01*
X34907346Y-28584012D01*
X34907342Y-28584012D01*
X34680657Y-28603844D01*
X34680646Y-28603846D01*
X34584411Y-28629632D01*
X34514561Y-28627969D01*
X34464637Y-28597538D01*
X33606134Y-27739035D01*
X33606132Y-27739032D01*
X33487261Y-27620161D01*
X33487253Y-27620155D01*
X33380625Y-27558594D01*
X33380622Y-27558593D01*
X33350331Y-27541104D01*
X33350330Y-27541103D01*
X33350329Y-27541103D01*
X33197601Y-27500179D01*
X33039487Y-27500179D01*
X33031891Y-27500179D01*
X33031875Y-27500180D01*
X32517956Y-27500180D01*
X32450917Y-27480495D01*
X32440641Y-27473125D01*
X32437807Y-27470865D01*
X32437806Y-27470864D01*
X32311797Y-27391687D01*
X32285067Y-27374891D01*
X32114798Y-27315311D01*
X32114793Y-27315310D01*
X31935548Y-27295115D01*
X31935540Y-27295115D01*
X31756294Y-27315310D01*
X31756289Y-27315311D01*
X31586020Y-27374891D01*
X31433280Y-27470865D01*
X31430447Y-27473125D01*
X31428268Y-27474014D01*
X31427386Y-27474569D01*
X31427288Y-27474414D01*
X31365761Y-27499535D01*
X31353132Y-27500180D01*
X28387486Y-27500180D01*
X28234756Y-27541103D01*
X28204466Y-27558593D01*
X28204463Y-27558594D01*
X28097834Y-27620155D01*
X28097826Y-27620161D01*
X27986022Y-27731966D01*
X27120449Y-28597538D01*
X27059126Y-28631023D01*
X27000675Y-28629632D01*
X26904441Y-28603846D01*
X26904437Y-28603845D01*
X26904436Y-28603845D01*
X26904435Y-28603844D01*
X26904430Y-28603844D01*
X26677746Y-28584012D01*
X26677742Y-28584012D01*
X26451057Y-28603844D01*
X26451046Y-28603846D01*
X26231255Y-28662738D01*
X26231246Y-28662741D01*
X26025011Y-28758911D01*
X26025009Y-28758912D01*
X25838602Y-28889434D01*
X25677698Y-29050338D01*
X25547176Y-29236745D01*
X25547175Y-29236747D01*
X25451005Y-29442982D01*
X25451002Y-29442991D01*
X25392110Y-29662782D01*
X25392108Y-29662793D01*
X25372276Y-29889478D01*
X24499732Y-29889478D01*
X24507607Y-29860088D01*
X24528203Y-29624680D01*
X24507607Y-29389272D01*
X24446447Y-29161017D01*
X24346579Y-28946851D01*
X24322947Y-28913100D01*
X24211038Y-28753277D01*
X24043946Y-28586186D01*
X24043945Y-28586185D01*
X23857949Y-28455949D01*
X23814325Y-28401372D01*
X23807132Y-28331873D01*
X23838654Y-28269519D01*
X23857949Y-28252799D01*
X24043626Y-28122785D01*
X24210649Y-27955762D01*
X24346144Y-27762258D01*
X24445973Y-27548172D01*
X24445976Y-27548166D01*
X24503180Y-27334680D01*
X23605556Y-27334680D01*
X23638469Y-27277673D01*
X23672544Y-27150506D01*
X23672544Y-27018854D01*
X23638469Y-26891687D01*
X23605556Y-26834680D01*
X24503180Y-26834680D01*
X24503179Y-26834679D01*
X24445976Y-26621193D01*
X24445973Y-26621187D01*
X24346144Y-26407102D01*
X24346143Y-26407100D01*
X24210657Y-26213606D01*
X24210652Y-26213600D01*
X24043622Y-26046570D01*
X23857949Y-25916559D01*
X23814324Y-25861982D01*
X23807132Y-25792484D01*
X23838654Y-25730129D01*
X23857950Y-25713410D01*
X23858386Y-25713105D01*
X24043945Y-25583175D01*
X24211039Y-25416081D01*
X24346579Y-25222510D01*
X24446447Y-25008343D01*
X24478297Y-24889477D01*
X25372778Y-24889477D01*
X25372778Y-24889482D01*
X25392602Y-25116079D01*
X25392604Y-25116090D01*
X25451474Y-25335797D01*
X25451479Y-25335811D01*
X25547607Y-25541958D01*
X25598718Y-25614952D01*
X26277744Y-24935926D01*
X26277744Y-24942141D01*
X26305003Y-25043874D01*
X26357664Y-25135086D01*
X26432138Y-25209560D01*
X26523350Y-25262221D01*
X26625083Y-25289480D01*
X26631297Y-25289480D01*
X25952270Y-25968505D01*
X26025257Y-26019612D01*
X26025265Y-26019616D01*
X26231412Y-26115744D01*
X26231426Y-26115749D01*
X26451133Y-26174619D01*
X26451144Y-26174621D01*
X26677742Y-26194446D01*
X26677746Y-26194446D01*
X26904343Y-26174621D01*
X26904354Y-26174619D01*
X27124061Y-26115749D01*
X27124075Y-26115744D01*
X27330222Y-26019616D01*
X27403215Y-25968504D01*
X26724191Y-25289480D01*
X26730405Y-25289480D01*
X26832138Y-25262221D01*
X26923350Y-25209560D01*
X26997824Y-25135086D01*
X27050485Y-25043874D01*
X27077744Y-24942141D01*
X27077744Y-24935927D01*
X27756768Y-25614951D01*
X27807880Y-25541958D01*
X27904008Y-25335811D01*
X27904013Y-25335797D01*
X27962883Y-25116090D01*
X27962885Y-25116079D01*
X27982710Y-24889482D01*
X27982710Y-24889477D01*
X27962885Y-24662880D01*
X27962883Y-24662869D01*
X27904013Y-24443162D01*
X27904008Y-24443148D01*
X27807880Y-24237001D01*
X27807876Y-24236993D01*
X27756769Y-24164006D01*
X27077744Y-24843031D01*
X27077744Y-24836819D01*
X27050485Y-24735086D01*
X26997824Y-24643874D01*
X26923350Y-24569400D01*
X26832138Y-24516739D01*
X26730405Y-24489480D01*
X26724192Y-24489480D01*
X27403216Y-23810454D01*
X27330222Y-23759343D01*
X27124075Y-23663215D01*
X27124061Y-23663210D01*
X26904354Y-23604340D01*
X26904343Y-23604338D01*
X26677746Y-23584514D01*
X26677742Y-23584514D01*
X26451144Y-23604338D01*
X26451133Y-23604340D01*
X26231426Y-23663210D01*
X26231417Y-23663214D01*
X26025260Y-23759346D01*
X26025256Y-23759348D01*
X25952270Y-23810453D01*
X25952270Y-23810454D01*
X26631297Y-24489480D01*
X26625083Y-24489480D01*
X26523350Y-24516739D01*
X26432138Y-24569400D01*
X26357664Y-24643874D01*
X26305003Y-24735086D01*
X26277744Y-24836819D01*
X26277744Y-24843032D01*
X25598718Y-24164006D01*
X25598717Y-24164006D01*
X25547612Y-24236992D01*
X25547610Y-24236996D01*
X25451478Y-24443153D01*
X25451474Y-24443162D01*
X25392604Y-24662869D01*
X25392602Y-24662880D01*
X25372778Y-24889477D01*
X24478297Y-24889477D01*
X24507607Y-24780088D01*
X24528203Y-24544680D01*
X24507607Y-24309272D01*
X24446447Y-24081017D01*
X24346579Y-23866851D01*
X24271302Y-23759343D01*
X24211038Y-23673277D01*
X24043946Y-23506186D01*
X24043940Y-23506181D01*
X23858386Y-23376255D01*
X23814761Y-23321678D01*
X23807567Y-23252180D01*
X23839090Y-23189825D01*
X23858386Y-23173105D01*
X23880570Y-23157571D01*
X24043945Y-23043175D01*
X24211039Y-22876081D01*
X24346579Y-22682510D01*
X24446447Y-22468343D01*
X24507607Y-22240088D01*
X24528203Y-22004680D01*
X24507607Y-21769272D01*
X24446447Y-21541017D01*
X24346579Y-21326851D01*
X24340969Y-21318838D01*
X24211038Y-21133277D01*
X24043946Y-20966186D01*
X24043939Y-20966181D01*
X23850378Y-20830647D01*
X23850374Y-20830645D01*
X23850372Y-20830644D01*
X23636207Y-20730777D01*
X23636203Y-20730776D01*
X23636199Y-20730774D01*
X23407957Y-20669618D01*
X23407947Y-20669616D01*
X23172545Y-20649021D01*
X23172543Y-20649021D01*
X22937140Y-20669616D01*
X22937130Y-20669618D01*
X22708888Y-20730774D01*
X22708879Y-20730778D01*
X22494715Y-20830644D01*
X22494713Y-20830645D01*
X22301141Y-20966185D01*
X22134049Y-21133277D01*
X21998509Y-21326849D01*
X21998508Y-21326851D01*
X21898642Y-21541015D01*
X21898638Y-21541024D01*
X21837482Y-21769266D01*
X21837480Y-21769276D01*
X21816885Y-22004679D01*
X21372544Y-22004679D01*
X21372544Y-20368680D01*
X21392229Y-20301641D01*
X21445033Y-20255886D01*
X21496544Y-20244680D01*
X40048544Y-20244680D01*
X40115583Y-20264365D01*
G37*
%TD.AperFunction*%
%TD*%
M02*
